*
*
G04 PADS 9.3.1 Build Number: 456998 generated Gerber (RS-274-X) file*
G04 PC Version=2.1*
*
%IN "avago_ssi_rev1.pcb"*%
*
%MOIN*%
*
%FSLAX35Y35*%
*
*
*
*
G04 PC Standard Apertures*
*
*
G04 Thermal Relief Aperture macro.*
%AMTER*
1,1,$1,0,0*
1,0,$1-$2,0,0*
21,0,$3,$4,0,0,45*
21,0,$3,$4,0,0,135*
%
*
*
G04 Annular Aperture macro.*
%AMANN*
1,1,$1,0,0*
1,0,$2,0,0*
%
*
*
G04 Odd Aperture macro.*
%AMODD*
1,1,$1,0,0*
1,0,$1-0.005,0,0*
%
*
*
G04 PC Custom Aperture Macros*
*
*
*
*
*
*
G04 PC Aperture Table*
*
%ADD010C,0.001*%
%ADD020C,0.014*%
%ADD023C,0.016*%
%ADD035C,0.05331*%
%ADD036C,0.06906*%
%ADD037C,0.07299*%
%ADD038O,0.048X0.035*%
*
*
*
*
G04 PC Circuitry*
G04 Layer Name avago_ssi_rev1.pcb - circuitry*
%LPD*%
*
*
G04 PC Custom Flashes*
G04 Layer Name avago_ssi_rev1.pcb - flashes*
%LPD*%
*
*
G04 PC Circuitry*
G04 Layer Name avago_ssi_rev1.pcb - circuitry*
%LPD*%
*
G54D10*
G54D20*
G01X131654Y182282D02*
X129054D01*
Y185682*
X131654*
Y182282*
X129054Y182600D02*
X131654D01*
X129054Y184000D02*
X131654D01*
X129054Y185400D02*
X131654D01*
X129400Y182282D02*
Y185682D01*
X130800Y182282D02*
Y185682D01*
X131654Y176082D02*
X129054D01*
Y179482*
X131654*
Y176082*
X129054Y177000D02*
X131654D01*
X129054Y178400D02*
X131654D01*
X129400Y176082D02*
Y179482D01*
X130800Y176082D02*
Y179482D01*
X124129D02*
X126729D01*
Y176082*
X124129*
Y179482*
Y177000D02*
X126729D01*
X124129Y178400D02*
X126729D01*
X125200Y176082D02*
Y179482D01*
X126600Y176082D02*
Y179482D01*
X124129Y185682D02*
X126729D01*
Y182282*
X124129*
Y185682*
Y182600D02*
X126729D01*
X124129Y184000D02*
X126729D01*
X124129Y185400D02*
X126729D01*
X125200Y182282D02*
Y185682D01*
X126600Y182282D02*
Y185682D01*
X175695Y123200D02*
Y125800D01*
X179095*
Y123200*
X175695*
Y123800D02*
X179095D01*
X175695Y125200D02*
X179095D01*
X177000Y123200D02*
Y125800D01*
X178400Y123200D02*
Y125800D01*
X169495Y123200D02*
Y125800D01*
X172895*
Y123200*
X169495*
Y123800D02*
X172895D01*
X169495Y125200D02*
X172895D01*
X170000Y123200D02*
Y125800D01*
X171400Y123200D02*
Y125800D01*
X172800Y123200D02*
Y125800D01*
X60195Y191688D02*
Y194288D01*
X63595*
Y191688*
X60195*
Y192400D02*
X63595D01*
X60195Y193800D02*
X63595D01*
X60195Y191688D02*
Y194288D01*
X61595Y191688D02*
Y194288D01*
X62995Y191688D02*
Y194288D01*
X53995Y191688D02*
Y194288D01*
X57395*
Y191688*
X53995*
Y192400D02*
X57395D01*
X53995Y193800D02*
X57395D01*
X53995Y191688D02*
Y194288D01*
X55395Y191688D02*
Y194288D01*
X56795Y191688D02*
Y194288D01*
X182487Y117385D02*
Y119985D01*
X185887*
Y117385*
X182487*
Y118200D02*
X185887D01*
X182487Y119600D02*
X185887D01*
X182600Y117385D02*
Y119985D01*
X184000Y117385D02*
Y119985D01*
X185400Y117385D02*
Y119985D01*
X176287Y117385D02*
Y119985D01*
X179687*
Y117385*
X176287*
Y118200D02*
X179687D01*
X176287Y119600D02*
X179687D01*
X177000Y117385D02*
Y119985D01*
X178400Y117385D02*
Y119985D01*
X93666Y188739D02*
X95567Y190513D01*
X97887Y188027*
X95986Y186253*
X93666Y188739*
X95475Y186800D02*
X96572D01*
X94169Y188200D02*
X97725D01*
X94589Y189600D02*
X96419D01*
X93666Y188739D02*
X93666D01*
X95066Y187239D02*
Y190045D01*
X96466Y186702D02*
Y189549D01*
X97866Y188008D02*
Y188049D01*
X89436Y193272D02*
X91337Y195046D01*
X93657Y192560*
X91756Y190786*
X89436Y193272*
X91556Y191000D02*
X91985D01*
X90250Y192400D02*
X93485D01*
X90002Y193800D02*
X92500D01*
X89436Y193272D02*
X89436D01*
X90836Y191772D02*
Y194579D01*
X92236Y191235D02*
Y194083D01*
X93636Y192541D02*
Y192582D01*
G54D23*
X151704Y152657D02*
Y148257D01*
X146304*
Y152657*
X151704*
X146304Y149600D02*
X151704D01*
X146304Y151200D02*
X151704D01*
X146400Y148257D02*
Y152657D01*
X148000Y148257D02*
Y152657D01*
X149600Y148257D02*
Y152657D01*
X151200Y148257D02*
Y152657D01*
X160704D02*
Y148257D01*
X155304*
Y152657*
X160704*
X155304Y149600D02*
X160704D01*
X155304Y151200D02*
X160704D01*
X156000Y148257D02*
Y152657D01*
X157600Y148257D02*
Y152657D01*
X159200Y148257D02*
Y152657D01*
X163209Y134365D02*
X167609D01*
Y128965*
X163209*
Y134365*
Y130400D02*
X167609D01*
X163209Y132000D02*
X167609D01*
X163209Y133600D02*
X167609D01*
X164000Y128965D02*
Y134365D01*
X165600Y128965D02*
Y134365D01*
X167200Y128965D02*
Y134365D01*
X163209Y143365D02*
X167609D01*
Y137965*
X163209*
Y143365*
Y138400D02*
X167609D01*
X163209Y140000D02*
X167609D01*
X163209Y141600D02*
X167609D01*
X163209Y143200D02*
X167609D01*
X164000Y137965D02*
Y143365D01*
X165600Y137965D02*
Y143365D01*
X167200Y137965D02*
Y143365D01*
G54D35*
X58530Y133291D03*
Y128291D03*
X53530D03*
Y133291D03*
X48530Y128291D03*
Y133291D03*
X43530Y128291D03*
Y133291D03*
X38530Y128291D03*
Y133291D03*
X33530Y128291D03*
Y133291D03*
X28530Y128291D03*
Y133291D03*
X23530Y128291D03*
Y133291D03*
G54D36*
X105734Y198474D03*
X113373Y196562D03*
X121011Y194650D03*
X128649Y192738D03*
X136288Y190826D03*
X143926Y188914D03*
G54D37*
X30400Y149000D03*
X22526D03*
X14652D03*
G54D38*
X159100Y143648D03*
Y139898D03*
Y136148D03*
X148900D03*
Y143648D03*
X0Y0D02*
M02*
