*
*
G04 PADS 9.3.1 Build Number: 456998 generated Gerber (RS-274-X) file*
G04 PC Version=2.1*
*
%IN "avago_ssi_rev1.pcb"*%
*
%MOIN*%
*
%FSLAX35Y35*%
*
*
*
*
G04 PC Standard Apertures*
*
*
G04 Thermal Relief Aperture macro.*
%AMTER*
1,1,$1,0,0*
1,0,$1-$2,0,0*
21,0,$3,$4,0,0,45*
21,0,$3,$4,0,0,135*
%
*
*
G04 Annular Aperture macro.*
%AMANN*
1,1,$1,0,0*
1,0,$2,0,0*
%
*
*
G04 Odd Aperture macro.*
%AMODD*
1,1,$1,0,0*
1,0,$1-0.005,0,0*
%
*
*
G04 PC Custom Aperture Macros*
*
*
*
*
*
*
G04 PC Aperture Table*
*
%ADD010C,0.001*%
%ADD011C,0.04331*%
%ADD012C,0.004*%
%ADD013C,0.00787*%
%ADD014C,0.00394*%
%ADD015C,0.05906*%
%ADD016C,0.008*%
%ADD017C,0.006*%
%ADD018C,0.06299*%
%ADD019C,0.01*%
%ADD020C,0.014*%
%ADD021C,0.02*%
%ADD022C,0.03*%
%ADD023C,0.016*%
%ADD024C,0.025*%
%ADD025C,0.015*%
*
*
*
*
G04 PC Circuitry*
G04 Layer Name avago_ssi_rev1.pcb - circuitry*
%LPD*%
*
*
G04 PC Custom Flashes*
G04 Layer Name avago_ssi_rev1.pcb - flashes*
%LPD*%
*
*
G04 PC Circuitry*
G04 Layer Name avago_ssi_rev1.pcb - circuitry*
%LPD*%
*
G54D10*
G54D11*
G01X58530Y133291D03*
Y128291D03*
X53530D03*
Y133291D03*
X48530Y128291D03*
Y133291D03*
X43530Y128291D03*
Y133291D03*
X38530Y128291D03*
Y133291D03*
X33530Y128291D03*
Y133291D03*
X28530Y128291D03*
Y133291D03*
X23530Y128291D03*
Y133291D03*
G54D12*
X77641Y141107D02*
X75802Y142945D01*
X78205Y145350*
X80044Y143513*
X77641Y141107*
X77549Y141200D02*
X77734D01*
X77148Y141600D02*
X78134D01*
X76748Y142000D02*
X78533D01*
X76347Y142400D02*
X78933D01*
X75947Y142800D02*
X79332D01*
X76057Y143200D02*
X79732D01*
X76457Y143600D02*
X79957D01*
X76856Y144000D02*
X79556D01*
X77256Y144400D02*
X79156D01*
X77655Y144800D02*
X78756D01*
X78055Y145200D02*
X78355D01*
X75802Y142945D02*
X75802D01*
X76202Y142545D02*
Y143345D01*
X76602Y142146D02*
Y143746D01*
X77002Y141746D02*
Y144146D01*
X77402Y141346D02*
Y144546D01*
X77802Y141268D02*
Y144947D01*
X78202Y141668D02*
Y145347D01*
X78602Y142069D02*
Y144953D01*
X79002Y142469D02*
Y144554D01*
X79402Y142870D02*
Y144154D01*
X79802Y143270D02*
Y143755D01*
X73260Y136721D02*
X71420Y138558D01*
X73823Y140964*
X75663Y139126*
X73260Y136721*
X73180Y136800D02*
X73339D01*
X72780Y137200D02*
X73739D01*
X72380Y137600D02*
X74138D01*
X71979Y138000D02*
X74538D01*
X71579Y138400D02*
X74937D01*
X71662Y138800D02*
X75337D01*
X72061Y139200D02*
X75589D01*
X72461Y139600D02*
X75188D01*
X72861Y140000D02*
X74788D01*
X73260Y140400D02*
X74387D01*
X73660Y140800D02*
X73987D01*
X71420Y138558D02*
X71420D01*
X71820Y138159D02*
Y138959D01*
X72220Y137759D02*
Y139359D01*
X72620Y137359D02*
Y139759D01*
X73020Y136960D02*
Y140160D01*
X73420Y136881D02*
Y140560D01*
X73820Y137282D02*
Y140961D01*
X74220Y137682D02*
Y140567D01*
X74620Y138083D02*
Y140167D01*
X75020Y138483D02*
Y139768D01*
X75420Y138884D02*
Y139368D01*
X85206Y196619D02*
Y194019D01*
X81806*
Y196619*
X85206*
X81806Y194400D02*
X85206D01*
X81806Y194800D02*
X85206D01*
X81806Y195200D02*
X85206D01*
X81806Y195600D02*
X85206D01*
X81806Y196000D02*
X85206D01*
X81806Y196400D02*
X85206D01*
X81806Y194019D02*
Y196619D01*
X82206Y194019D02*
Y196619D01*
X82606Y194019D02*
Y196619D01*
X83006Y194019D02*
Y196619D01*
X83406Y194019D02*
Y196619D01*
X83806Y194019D02*
Y196619D01*
X84206Y194019D02*
Y196619D01*
X84606Y194019D02*
Y196619D01*
X85006Y194019D02*
Y196619D01*
X91406D02*
Y194019D01*
X88006*
Y196619*
X91406*
X88006Y194400D02*
X91406D01*
X88006Y194800D02*
X91406D01*
X88006Y195200D02*
X91406D01*
X88006Y195600D02*
X91406D01*
X88006Y196000D02*
X91406D01*
X88006Y196400D02*
X91406D01*
X88006Y194019D02*
Y196619D01*
X88406Y194019D02*
Y196619D01*
X88806Y194019D02*
Y196619D01*
X89206Y194019D02*
Y196619D01*
X89606Y194019D02*
Y196619D01*
X90006Y194019D02*
Y196619D01*
X90406Y194019D02*
Y196619D01*
X90806Y194019D02*
Y196619D01*
X91206Y194019D02*
Y196619D01*
X49638Y178143D02*
X51460Y176288D01*
X49034Y173905*
X47212Y175760*
X49638Y178143*
X48942Y174000D02*
X49131D01*
X48549Y174400D02*
X49538D01*
X48156Y174800D02*
X49945D01*
X47763Y175200D02*
X50352D01*
X47370Y175600D02*
X50759D01*
X47456Y176000D02*
X51166D01*
X47864Y176400D02*
X51350D01*
X48271Y176800D02*
X50957D01*
X48678Y177200D02*
X50564D01*
X49085Y177600D02*
X50171D01*
X49492Y178000D02*
X49778D01*
X47212Y175760D02*
X47212D01*
X47612Y175353D02*
Y176153D01*
X48012Y174946D02*
Y176546D01*
X48412Y174539D02*
Y176939D01*
X48812Y174132D02*
Y177332D01*
X49212Y174080D02*
Y177725D01*
X49612Y174473D02*
Y178118D01*
X50012Y174866D02*
Y177762D01*
X50412Y175259D02*
Y177354D01*
X50812Y175652D02*
Y176947D01*
X51212Y176045D02*
Y176540D01*
X54060Y182488D02*
X55882Y180634D01*
X53457Y178251*
X51635Y180105*
X54060Y182488*
X53310Y178400D02*
X53609D01*
X52917Y178800D02*
X54016D01*
X52524Y179200D02*
X54423D01*
X52131Y179600D02*
X54830D01*
X51738Y180000D02*
X55237D01*
X51935Y180400D02*
X55644D01*
X52342Y180800D02*
X55719D01*
X52749Y181200D02*
X55326D01*
X53156Y181600D02*
X54933D01*
X53563Y182000D02*
X54540D01*
X53970Y182400D02*
X54147D01*
X51635Y180105D02*
X51635D01*
X52035Y179698D02*
Y180498D01*
X52435Y179291D02*
Y180891D01*
X52835Y178884D02*
Y181284D01*
X53235Y178477D02*
Y181677D01*
X53635Y178425D02*
Y182070D01*
X54035Y178818D02*
Y182463D01*
X54435Y179211D02*
Y182107D01*
X54835Y179604D02*
Y181700D01*
X55235Y179997D02*
Y181293D01*
X55635Y180390D02*
Y180885D01*
X85202Y201627D02*
Y199027D01*
X81802*
Y201627*
X85202*
X81802Y199200D02*
X85202D01*
X81802Y199600D02*
X85202D01*
X81802Y200000D02*
X85202D01*
X81802Y200400D02*
X85202D01*
X81802Y200800D02*
X85202D01*
X81802Y201200D02*
X85202D01*
X81802Y201600D02*
X85202D01*
X81802Y199027D02*
Y201627D01*
X82202Y199027D02*
Y201627D01*
X82602Y199027D02*
Y201627D01*
X83002Y199027D02*
Y201627D01*
X83402Y199027D02*
Y201627D01*
X83802Y199027D02*
Y201627D01*
X84202Y199027D02*
Y201627D01*
X84602Y199027D02*
Y201627D01*
X85002Y199027D02*
Y201627D01*
X91402D02*
Y199027D01*
X88002*
Y201627*
X91402*
X88002Y199200D02*
X91402D01*
X88002Y199600D02*
X91402D01*
X88002Y200000D02*
X91402D01*
X88002Y200400D02*
X91402D01*
X88002Y200800D02*
X91402D01*
X88002Y201200D02*
X91402D01*
X88002Y201600D02*
X91402D01*
X88002Y199027D02*
Y201627D01*
X88402Y199027D02*
Y201627D01*
X88802Y199027D02*
Y201627D01*
X89202Y199027D02*
Y201627D01*
X89602Y199027D02*
Y201627D01*
X90002Y199027D02*
Y201627D01*
X90402Y199027D02*
Y201627D01*
X90802Y199027D02*
Y201627D01*
X91202Y199027D02*
Y201627D01*
X104221Y151061D02*
X101621D01*
Y154461*
X104221*
Y151061*
X101621Y151200D02*
X104221D01*
X101621Y151600D02*
X104221D01*
X101621Y152000D02*
X104221D01*
X101621Y152400D02*
X104221D01*
X101621Y152800D02*
X104221D01*
X101621Y153200D02*
X104221D01*
X101621Y153600D02*
X104221D01*
X101621Y154000D02*
X104221D01*
X101621Y154400D02*
X104221D01*
X102000Y151061D02*
Y154461D01*
X102400Y151061D02*
Y154461D01*
X102800Y151061D02*
Y154461D01*
X103200Y151061D02*
Y154461D01*
X103600Y151061D02*
Y154461D01*
X104000Y151061D02*
Y154461D01*
X104221Y144861D02*
X101621D01*
Y148261*
X104221*
Y144861*
X101621Y145200D02*
X104221D01*
X101621Y145600D02*
X104221D01*
X101621Y146000D02*
X104221D01*
X101621Y146400D02*
X104221D01*
X101621Y146800D02*
X104221D01*
X101621Y147200D02*
X104221D01*
X101621Y147600D02*
X104221D01*
X101621Y148000D02*
X104221D01*
X102000Y144861D02*
Y148261D01*
X102400Y144861D02*
Y148261D01*
X102800Y144861D02*
Y148261D01*
X103200Y144861D02*
Y148261D01*
X103600Y144861D02*
Y148261D01*
X104000Y144861D02*
Y148261D01*
X108898Y151061D02*
X106298D01*
Y154461*
X108898*
Y151061*
X106298Y151200D02*
X108898D01*
X106298Y151600D02*
X108898D01*
X106298Y152000D02*
X108898D01*
X106298Y152400D02*
X108898D01*
X106298Y152800D02*
X108898D01*
X106298Y153200D02*
X108898D01*
X106298Y153600D02*
X108898D01*
X106298Y154000D02*
X108898D01*
X106298Y154400D02*
X108898D01*
X106400Y151061D02*
Y154461D01*
X106800Y151061D02*
Y154461D01*
X107200Y151061D02*
Y154461D01*
X107600Y151061D02*
Y154461D01*
X108000Y151061D02*
Y154461D01*
X108400Y151061D02*
Y154461D01*
X108800Y151061D02*
Y154461D01*
X108898Y144861D02*
X106298D01*
Y148261*
X108898*
Y144861*
X106298Y145200D02*
X108898D01*
X106298Y145600D02*
X108898D01*
X106298Y146000D02*
X108898D01*
X106298Y146400D02*
X108898D01*
X106298Y146800D02*
X108898D01*
X106298Y147200D02*
X108898D01*
X106298Y147600D02*
X108898D01*
X106298Y148000D02*
X108898D01*
X106400Y144861D02*
Y148261D01*
X106800Y144861D02*
Y148261D01*
X107200Y144861D02*
Y148261D01*
X107600Y144861D02*
Y148261D01*
X108000Y144861D02*
Y148261D01*
X108400Y144861D02*
Y148261D01*
X108800Y144861D02*
Y148261D01*
X143203Y168495D02*
X143879Y171006D01*
X147162Y170123*
X146487Y167612*
X143203Y168495*
X145045Y168000D02*
X146591D01*
X143558Y168400D02*
X146699D01*
X143285Y168800D02*
X146806D01*
X143393Y169200D02*
X146914D01*
X143500Y169600D02*
X147021D01*
X143608Y170000D02*
X147129D01*
X143716Y170400D02*
X146132D01*
X143823Y170800D02*
X144645D01*
X143600Y168389D02*
Y169970D01*
X144000Y168281D02*
Y170973D01*
X144400Y168173D02*
Y170866D01*
X144800Y168066D02*
Y170758D01*
X145200Y167958D02*
Y170651D01*
X145600Y167851D02*
Y170543D01*
X146000Y167743D02*
Y170436D01*
X146400Y167636D02*
Y170328D01*
X146800Y168777D02*
Y170221D01*
X137216Y170105D02*
X137891Y172616D01*
X141175Y171733*
X140499Y169222*
X137216Y170105*
X139095Y169600D02*
X140601D01*
X137607Y170000D02*
X140709D01*
X137295Y170400D02*
X140816D01*
X137403Y170800D02*
X140924D01*
X137510Y171200D02*
X141031D01*
X137618Y171600D02*
X141139D01*
X137726Y172000D02*
X140182D01*
X137833Y172400D02*
X138694D01*
X137600Y170002D02*
Y171533D01*
X138000Y169894D02*
Y172587D01*
X138400Y169787D02*
Y172479D01*
X138800Y169679D02*
Y172372D01*
X139200Y169572D02*
Y172264D01*
X139600Y169464D02*
Y172156D01*
X140000Y169357D02*
Y172049D01*
X140400Y169249D02*
Y171941D01*
X140800Y170340D02*
Y171834D01*
X162038Y117231D02*
Y119831D01*
X165438*
Y117231*
X162038*
Y117600D02*
X165438D01*
X162038Y118000D02*
X165438D01*
X162038Y118400D02*
X165438D01*
X162038Y118800D02*
X165438D01*
X162038Y119200D02*
X165438D01*
X162038Y119600D02*
X165438D01*
X162400Y117231D02*
Y119831D01*
X162800Y117231D02*
Y119831D01*
X163200Y117231D02*
Y119831D01*
X163600Y117231D02*
Y119831D01*
X164000Y117231D02*
Y119831D01*
X164400Y117231D02*
Y119831D01*
X164800Y117231D02*
Y119831D01*
X165200Y117231D02*
Y119831D01*
X155838Y117231D02*
Y119831D01*
X159238*
Y117231*
X155838*
Y117600D02*
X159238D01*
X155838Y118000D02*
X159238D01*
X155838Y118400D02*
X159238D01*
X155838Y118800D02*
X159238D01*
X155838Y119200D02*
X159238D01*
X155838Y119600D02*
X159238D01*
X156000Y117231D02*
Y119831D01*
X156400Y117231D02*
Y119831D01*
X156800Y117231D02*
Y119831D01*
X157200Y117231D02*
Y119831D01*
X157600Y117231D02*
Y119831D01*
X158000Y117231D02*
Y119831D01*
X158400Y117231D02*
Y119831D01*
X158800Y117231D02*
Y119831D01*
X159200Y117231D02*
Y119831D01*
X163254Y136090D02*
Y138690D01*
X166654*
Y136090*
X163254*
Y136400D02*
X166654D01*
X163254Y136800D02*
X166654D01*
X163254Y137200D02*
X166654D01*
X163254Y137600D02*
X166654D01*
X163254Y138000D02*
X166654D01*
X163254Y138400D02*
X166654D01*
X163600Y136090D02*
Y138690D01*
X164000Y136090D02*
Y138690D01*
X164400Y136090D02*
Y138690D01*
X164800Y136090D02*
Y138690D01*
X165200Y136090D02*
Y138690D01*
X165600Y136090D02*
Y138690D01*
X166000Y136090D02*
Y138690D01*
X166400Y136090D02*
Y138690D01*
X157054Y136090D02*
Y138690D01*
X160454*
Y136090*
X157054*
Y136400D02*
X160454D01*
X157054Y136800D02*
X160454D01*
X157054Y137200D02*
X160454D01*
X157054Y137600D02*
X160454D01*
X157054Y138000D02*
X160454D01*
X157054Y138400D02*
X160454D01*
X157200Y136090D02*
Y138690D01*
X157600Y136090D02*
Y138690D01*
X158000Y136090D02*
Y138690D01*
X158400Y136090D02*
Y138690D01*
X158800Y136090D02*
Y138690D01*
X159200Y136090D02*
Y138690D01*
X159600Y136090D02*
Y138690D01*
X160000Y136090D02*
Y138690D01*
X160400Y136090D02*
Y138690D01*
X54442Y194659D02*
X53359Y197022D01*
X56450Y198439*
X57533Y196075*
X54442Y194659*
X54377Y194800D02*
X54750D01*
X54194Y195200D02*
X55623D01*
X54010Y195600D02*
X56496D01*
X53827Y196000D02*
X57369D01*
X53644Y196400D02*
X57384D01*
X53461Y196800D02*
X57200D01*
X53746Y197200D02*
X57017D01*
X54619Y197600D02*
X56834D01*
X55492Y198000D02*
X56651D01*
X56365Y198400D02*
X56467D01*
X53359Y197022D02*
X53359D01*
X53759Y196150D02*
Y197206D01*
X54159Y195277D02*
Y197389D01*
X54559Y194712D02*
Y197572D01*
X54959Y194896D02*
Y197756D01*
X55359Y195079D02*
Y197939D01*
X55759Y195262D02*
Y198122D01*
X56159Y195446D02*
Y198305D01*
X56559Y195629D02*
Y198201D01*
X56959Y195812D02*
Y197328D01*
X57359Y195995D02*
Y196455D01*
X60078Y197242D02*
X58995Y199605D01*
X62086Y201022*
X63169Y198658*
X60078Y197242*
X59914Y197600D02*
X60860D01*
X59731Y198000D02*
X61733D01*
X59547Y198400D02*
X62606D01*
X59364Y198800D02*
X63104D01*
X59181Y199200D02*
X62921D01*
X58997Y199600D02*
X62737D01*
X59857Y200000D02*
X62554D01*
X60730Y200400D02*
X62371D01*
X61603Y200800D02*
X62187D01*
X58995Y199605D02*
X58995D01*
X59395Y198732D02*
Y199788D01*
X59795Y197859D02*
Y199972D01*
X60195Y197295D02*
Y200155D01*
X60595Y197478D02*
Y200338D01*
X60995Y197662D02*
Y200522D01*
X61395Y197845D02*
Y200705D01*
X61795Y198028D02*
Y200888D01*
X62195Y198212D02*
Y200784D01*
X62595Y198395D02*
Y199911D01*
X62995Y198578D02*
Y199038D01*
X174830Y117570D02*
Y120170D01*
X178230*
Y117570*
X174830*
Y117600D02*
X178230D01*
X174830Y118000D02*
X178230D01*
X174830Y118400D02*
X178230D01*
X174830Y118800D02*
X178230D01*
X174830Y119200D02*
X178230D01*
X174830Y119600D02*
X178230D01*
X174830Y120000D02*
X178230D01*
X175200Y117570D02*
Y120170D01*
X175600Y117570D02*
Y120170D01*
X176000Y117570D02*
Y120170D01*
X176400Y117570D02*
Y120170D01*
X176800Y117570D02*
Y120170D01*
X177200Y117570D02*
Y120170D01*
X177600Y117570D02*
Y120170D01*
X178000Y117570D02*
Y120170D01*
X181030Y117570D02*
Y120170D01*
X184430*
Y117570*
X181030*
Y117600D02*
X184430D01*
X181030Y118000D02*
X184430D01*
X181030Y118400D02*
X184430D01*
X181030Y118800D02*
X184430D01*
X181030Y119200D02*
X184430D01*
X181030Y119600D02*
X184430D01*
X181030Y120000D02*
X184430D01*
X181200Y117570D02*
Y120170D01*
X181600Y117570D02*
Y120170D01*
X182000Y117570D02*
Y120170D01*
X182400Y117570D02*
Y120170D01*
X182800Y117570D02*
Y120170D01*
X183200Y117570D02*
Y120170D01*
X183600Y117570D02*
Y120170D01*
X184000Y117570D02*
Y120170D01*
X184400Y117570D02*
Y120170D01*
G54D13*
X85914Y144774D02*
X85635Y144495D01*
X81180Y148948*
X81458Y149227*
X85914Y144774*
X85248Y144882D02*
X85805D01*
X84461Y145669D02*
X85018D01*
X83673Y146457D02*
X84230D01*
X82885Y147244D02*
X83442D01*
X82097Y148031D02*
X82654D01*
X81310Y148819D02*
X81867D01*
X81180Y148948D02*
X81180D01*
X81967Y148161D02*
Y148718D01*
X82755Y147374D02*
Y147931D01*
X83542Y146587D02*
Y147144D01*
X84330Y145800D02*
Y146357D01*
X85117Y145013D02*
Y145570D01*
X85904Y144765D02*
Y144783D01*
X87305Y146166D02*
X87027Y145888D01*
X82572Y150341*
X82850Y150619*
X87305Y146166*
X86457Y146457D02*
X87014D01*
X85670Y147244D02*
X86227D01*
X84882Y148031D02*
X85439D01*
X84094Y148819D02*
X84651D01*
X83306Y149606D02*
X83863D01*
X82625Y150394D02*
X83076D01*
X82572Y150341D02*
X82572D01*
X83359Y149554D02*
Y150110D01*
X84146Y148767D02*
Y149323D01*
X84934Y147980D02*
Y148536D01*
X85721Y147193D02*
Y147749D01*
X86509Y146406D02*
Y146962D01*
X87296Y146157D02*
Y146175D01*
X88697Y147558D02*
X88418Y147280D01*
X83963Y151733*
X84242Y152011*
X88697Y147558*
X87666Y148031D02*
X88223D01*
X86879Y148819D02*
X87436D01*
X86091Y149606D02*
X86648D01*
X85303Y150394D02*
X85860D01*
X84515Y151181D02*
X85072D01*
X84199Y151969D02*
X84285D01*
X83963Y151733D02*
X83963D01*
X84751Y150946D02*
Y151503D01*
X85538Y150159D02*
Y150716D01*
X86325Y149372D02*
Y149929D01*
X87113Y148585D02*
Y149141D01*
X87900Y147798D02*
Y148354D01*
X88688Y147549D02*
Y147567D01*
X90088Y148950D02*
X89810Y148672D01*
X85355Y153125*
X85633Y153404*
X90088Y148950*
X89663Y148819D02*
X89957D01*
X88875Y149606D02*
X89432D01*
X88088Y150394D02*
X88645D01*
X87300Y151181D02*
X87857D01*
X86512Y151969D02*
X87069D01*
X85724Y152756D02*
X86281D01*
X85355Y153125D02*
X85355D01*
X86142Y152338D02*
Y152895D01*
X86930Y151551D02*
Y152108D01*
X87717Y150764D02*
Y151321D01*
X88504Y149977D02*
Y150534D01*
X89292Y149190D02*
Y149747D01*
X90079Y148941D02*
Y148960D01*
X91480Y150343D02*
X91202Y150064D01*
X86746Y154518*
X87025Y154796*
X91480Y150343*
X90872Y150394D02*
X91429D01*
X90084Y151181D02*
X90641D01*
X89297Y151969D02*
X89854D01*
X88509Y152756D02*
X89066D01*
X87721Y153543D02*
X88278D01*
X86933Y154331D02*
X87490D01*
X86746Y154518D02*
X86746D01*
X87534Y153730D02*
Y154287D01*
X88321Y152943D02*
Y153500D01*
X89109Y152156D02*
Y152713D01*
X89896Y151369D02*
Y151926D01*
X90683Y150582D02*
Y151139D01*
X91471Y150334D02*
Y150352D01*
X92872Y151735D02*
X92593Y151457D01*
X88138Y155910*
X88416Y156188*
X92872Y151735*
X92081Y151969D02*
X92638D01*
X91293Y152756D02*
X91850D01*
X90506Y153543D02*
X91063D01*
X89718Y154331D02*
X90275D01*
X88930Y155118D02*
X89487D01*
X88142Y155906D02*
X88699D01*
X88138Y155910D02*
X88138D01*
X88926Y155123D02*
Y155679D01*
X89713Y154336D02*
Y154892D01*
X90500Y153549D02*
Y154105D01*
X91288Y152762D02*
Y153318D01*
X92075Y151975D02*
Y152531D01*
X92863Y151726D02*
Y151744D01*
X94263Y153127D02*
X93985Y152849D01*
X89530Y157302*
X89808Y157580*
X94263Y153127*
X93290Y153543D02*
X93847D01*
X92502Y154331D02*
X93059D01*
X91715Y155118D02*
X92272D01*
X90927Y155906D02*
X91484D01*
X90139Y156693D02*
X90696D01*
X89708Y157480D02*
X89908D01*
X89530Y157302D02*
X89530D01*
X90317Y156515D02*
Y157072D01*
X91105Y155728D02*
Y156285D01*
X91892Y154941D02*
Y155498D01*
X92679Y154154D02*
Y154710D01*
X93467Y153367D02*
Y153923D01*
X94254Y153118D02*
Y153136D01*
X95655Y154520D02*
X95377Y154241D01*
X90921Y158694*
X91200Y158973*
X95655Y154520*
X95287Y154331D02*
X95466D01*
X94499Y155118D02*
X95056D01*
X93711Y155906D02*
X94268D01*
X92924Y156693D02*
X93481D01*
X92136Y157480D02*
X92693D01*
X91348Y158268D02*
X91905D01*
X90921Y158694D02*
X90921D01*
X91709Y157907D02*
Y158464D01*
X92496Y157120D02*
Y157677D01*
X93284Y156333D02*
Y156890D01*
X94071Y155546D02*
Y156103D01*
X94858Y154759D02*
Y155316D01*
X95646Y154510D02*
Y154529D01*
X97047Y155912D02*
X96768Y155633D01*
X92313Y160087*
X92591Y160365*
X97047Y155912*
X96496Y155906D02*
X97040D01*
X95708Y156693D02*
X96265D01*
X94920Y157480D02*
X95477D01*
X94133Y158268D02*
X94690D01*
X93345Y159055D02*
X93902D01*
X92557Y159843D02*
X93114D01*
X92313Y160087D02*
X92313D01*
X93100Y159299D02*
Y159856D01*
X93888Y158512D02*
Y159069D01*
X94675Y157725D02*
Y158282D01*
X95463Y156938D02*
Y157495D01*
X96250Y156151D02*
Y156708D01*
X97037Y155903D02*
Y155921D01*
X98438Y157304D02*
X98160Y157026D01*
X93705Y161479*
X93983Y161757*
X98438Y157304*
X97705Y157480D02*
X98262D01*
X96917Y158268D02*
X97474D01*
X96129Y159055D02*
X96686D01*
X95342Y159843D02*
X95899D01*
X94554Y160630D02*
X95111D01*
X93766Y161417D02*
X94323D01*
X93705Y161479D02*
X93705D01*
X94492Y160692D02*
Y161248D01*
X95279Y159905D02*
Y160461D01*
X96067Y159118D02*
Y159674D01*
X96854Y158331D02*
Y158887D01*
X97642Y157544D02*
Y158100D01*
X98429Y157295D02*
Y157313D01*
X99830Y158696D02*
X99551Y158418D01*
X95096Y162871*
X95375Y163150*
X99830Y158696*
X98914Y159055D02*
X99471D01*
X98126Y159843D02*
X98683D01*
X97338Y160630D02*
X97895D01*
X96551Y161417D02*
X97108D01*
X95763Y162205D02*
X96320D01*
X95217Y162992D02*
X95532D01*
X95096Y162871D02*
X95096D01*
X95884Y162084D02*
Y162641D01*
X96671Y161297D02*
Y161854D01*
X97458Y160510D02*
Y161067D01*
X98246Y159723D02*
Y160280D01*
X99033Y158936D02*
Y159492D01*
X99821Y158687D02*
Y158705D01*
X101221Y160089D02*
X100943Y159810D01*
X96488Y164263*
X96766Y164542*
X101221Y160089*
X100911Y159843D02*
X100975D01*
X100123Y160630D02*
X100680D01*
X99335Y161417D02*
X99892D01*
X98547Y162205D02*
X99104D01*
X97760Y162992D02*
X98317D01*
X96972Y163780D02*
X97529D01*
X96488Y164263D02*
X96488D01*
X97275Y163476D02*
Y164033D01*
X98063Y162689D02*
Y163246D01*
X98850Y161902D02*
Y162459D01*
X99637Y161115D02*
Y161672D01*
X100425Y160328D02*
Y160885D01*
X101212Y160079D02*
Y160098D01*
X100940Y174565D02*
X101218Y174286D01*
X96765Y169831*
X96487Y170109*
X100940Y174565*
X96517Y170079D02*
X97012D01*
X97243Y170866D02*
X97800D01*
X98030Y171654D02*
X98587D01*
X98817Y172441D02*
X99374D01*
X99604Y173228D02*
X100161D01*
X100391Y174016D02*
X100948D01*
X96487Y170109D02*
X96487D01*
X97274Y170340D02*
Y170897D01*
X98061Y171128D02*
Y171685D01*
X98849Y171916D02*
Y172473D01*
X99636Y172704D02*
Y173261D01*
X100424Y173491D02*
Y174048D01*
X101211Y174279D02*
Y174294D01*
X99547Y175956D02*
X99826Y175678D01*
X95373Y171223*
X95094Y171501*
X99547Y175956*
X95247Y171654D02*
X95803D01*
X96034Y172441D02*
X96590D01*
X96821Y173228D02*
X97377D01*
X97608Y174016D02*
X98164D01*
X98395Y174803D02*
X98951D01*
X99182Y175591D02*
X99739D01*
X95094Y171501D02*
X95094D01*
X95882Y171732D02*
Y172289D01*
X96669Y172520D02*
Y173077D01*
X97456Y173307D02*
Y173864D01*
X98244Y174095D02*
Y174652D01*
X99031Y174883D02*
Y175440D01*
X99819Y175671D02*
Y175685D01*
X98155Y177348D02*
X98434Y177070D01*
X93980Y172614*
X93702Y172893*
X98155Y177348*
X94037Y173228D02*
X94594D01*
X94825Y174016D02*
X95381D01*
X95612Y174803D02*
X96168D01*
X96399Y175591D02*
X96955D01*
X97186Y176378D02*
X97742D01*
X97973Y177165D02*
X98338D01*
X93702Y172893D02*
X93702D01*
X94489Y173124D02*
Y173680D01*
X95277Y173911D02*
Y174468D01*
X96064Y174699D02*
Y175256D01*
X96852Y175487D02*
Y176044D01*
X97639Y176275D02*
Y176832D01*
X98426Y177062D02*
Y177077D01*
X96763Y178740D02*
X97041Y178461D01*
X92588Y174006*
X92310Y174284*
X96763Y178740*
X92578Y174016D02*
X92598D01*
X92828Y174803D02*
X93385D01*
X93615Y175591D02*
X94172D01*
X94402Y176378D02*
X94959D01*
X95189Y177165D02*
X95746D01*
X95977Y177953D02*
X96533D01*
X92310Y174284D02*
X92310D01*
X93097Y174515D02*
Y175072D01*
X93885Y175303D02*
Y175860D01*
X94672Y176091D02*
Y176648D01*
X95459Y176878D02*
Y177435D01*
X96247Y177666D02*
Y178223D01*
X97034Y178454D02*
Y178468D01*
X95371Y180131D02*
X95649Y179853D01*
X91196Y175398*
X90918Y175676*
X95371Y180131*
X91003Y175591D02*
X91389D01*
X91619Y176378D02*
X92176D01*
X92406Y177165D02*
X92963D01*
X93193Y177953D02*
X93750D01*
X93980Y178740D02*
X94537D01*
X94767Y179528D02*
X95324D01*
X90918Y175676D02*
X90918D01*
X91705Y175907D02*
Y176464D01*
X92492Y176695D02*
Y177252D01*
X93280Y177482D02*
Y178039D01*
X94067Y178270D02*
Y178827D01*
X94855Y179058D02*
Y179615D01*
X95642Y179846D02*
Y179860D01*
X93978Y181523D02*
X94257Y181245D01*
X89804Y176789*
X89525Y177068*
X93978Y181523*
X89623Y177165D02*
X90180D01*
X90410Y177953D02*
X90967D01*
X91197Y178740D02*
X91754D01*
X91984Y179528D02*
X92541D01*
X92771Y180315D02*
X93328D01*
X93558Y181102D02*
X94115D01*
X89525Y177068D02*
X89525D01*
X90313Y177298D02*
Y177855D01*
X91100Y178086D02*
Y178643D01*
X91887Y178874D02*
Y179431D01*
X92675Y179662D02*
Y180219D01*
X93462Y180449D02*
Y181006D01*
X94250Y181237D02*
Y181252D01*
X92586Y182914D02*
X92865Y182636D01*
X88411Y178181*
X88133Y178459*
X92586Y182914*
X88414Y178740D02*
X88970D01*
X89201Y179528D02*
X89757D01*
X89988Y180315D02*
X90545D01*
X90775Y181102D02*
X91332D01*
X91562Y181890D02*
X92119D01*
X92349Y182677D02*
X92824D01*
X88133Y178459D02*
X88133D01*
X88920Y178690D02*
Y179247D01*
X89708Y179478D02*
Y180035D01*
X90495Y180266D02*
Y180823D01*
X91283Y181053D02*
Y181610D01*
X92070Y181841D02*
Y182398D01*
X92857Y182629D02*
Y182643D01*
X91194Y184306D02*
X91472Y184028D01*
X87019Y179573*
X86741Y179851*
X91194Y184306*
X87205Y180315D02*
X87761D01*
X87992Y181102D02*
X88548D01*
X88779Y181890D02*
X89335D01*
X89566Y182677D02*
X90122D01*
X90353Y183465D02*
X90909D01*
X91140Y184252D02*
X91248D01*
X86741Y179851D02*
X86741D01*
X87528Y180082D02*
Y180639D01*
X88316Y180869D02*
Y181426D01*
X89103Y181657D02*
Y182214D01*
X89890Y182445D02*
Y183002D01*
X90678Y183233D02*
Y183790D01*
X91465Y184021D02*
Y184035D01*
X89802Y185698D02*
X90080Y185419D01*
X85627Y180964*
X85348Y181242*
X89802Y185698*
X85489Y181102D02*
X85765D01*
X85995Y181890D02*
X86552D01*
X86783Y182677D02*
X87339D01*
X87570Y183465D02*
X88126D01*
X88357Y184252D02*
X88913D01*
X89144Y185039D02*
X89700D01*
X85348Y181242D02*
X85348D01*
X86136Y181473D02*
Y182030D01*
X86923Y182261D02*
Y182818D01*
X87711Y183049D02*
Y183606D01*
X88498Y183837D02*
Y184394D01*
X89285Y184624D02*
Y185181D01*
X90073Y185412D02*
Y185427D01*
X88409Y187089D02*
X88688Y186811D01*
X84235Y182356*
X83956Y182634*
X88409Y187089*
X83999Y182677D02*
X84556D01*
X84786Y183465D02*
X85343D01*
X85573Y184252D02*
X86130D01*
X86360Y185039D02*
X86917D01*
X87147Y185827D02*
X87704D01*
X87934Y186614D02*
X88491D01*
X83956Y182634D02*
X83956D01*
X84744Y182865D02*
Y183422D01*
X85531Y183653D02*
Y184210D01*
X86318Y184440D02*
Y184997D01*
X87106Y185228D02*
Y185785D01*
X87893Y186016D02*
Y186573D01*
X88681Y186804D02*
Y186818D01*
X87017Y188481D02*
X87296Y188203D01*
X82842Y183747*
X82564Y184026*
X87017Y188481*
X82790Y184252D02*
X83347D01*
X83577Y185039D02*
X84134D01*
X84364Y185827D02*
X84921D01*
X85151Y186614D02*
X85708D01*
X85938Y187402D02*
X86495D01*
X86725Y188189D02*
X87282D01*
X82564Y184026D02*
X82564D01*
X83351Y184257D02*
Y184814D01*
X84139Y185044D02*
Y185601D01*
X84926Y185832D02*
Y186389D01*
X85714Y186620D02*
Y187177D01*
X86501Y187408D02*
Y187965D01*
X87288Y188195D02*
Y188210D01*
X85625Y189873D02*
X85903Y189594D01*
X81450Y185139*
X81172Y185417*
X85625Y189873*
X81581Y185827D02*
X82138D01*
X82368Y186614D02*
X82925D01*
X83155Y187402D02*
X83712D01*
X83942Y188189D02*
X84499D01*
X84729Y188976D02*
X85286D01*
X85516Y189764D02*
X85734D01*
X81172Y185417D02*
X81172D01*
X81959Y185648D02*
Y186205D01*
X82747Y186436D02*
Y186993D01*
X83534Y187224D02*
Y187781D01*
X84321Y188012D02*
Y188568D01*
X85109Y188799D02*
Y189356D01*
X85896Y189587D02*
Y189602D01*
X75882Y185416D02*
X75604Y185138D01*
X71149Y189591*
X71427Y189869*
X75882Y185416*
X74915Y185827D02*
X75472D01*
X74127Y186614D02*
X74684D01*
X73339Y187402D02*
X73896D01*
X72551Y188189D02*
X73108D01*
X71764Y188976D02*
X72320D01*
X71322Y189764D02*
X71533D01*
X71149Y189591D02*
X71149D01*
X71936Y188804D02*
Y189361D01*
X72724Y188017D02*
Y188573D01*
X73511Y187230D02*
Y187786D01*
X74298Y186443D02*
Y186999D01*
X75086Y185656D02*
Y186212D01*
X75873Y185407D02*
Y185425D01*
X74491Y184024D02*
X74212Y183745D01*
X69757Y188199*
X70035Y188477*
X74491Y184024*
X73706Y184252D02*
X74263D01*
X72918Y185039D02*
X73475D01*
X72130Y185827D02*
X72687D01*
X71342Y186614D02*
X71899D01*
X70555Y187402D02*
X71111D01*
X69767Y188189D02*
X70324D01*
X69757Y188199D02*
X69757D01*
X70545Y187412D02*
Y187968D01*
X71332Y186625D02*
Y187181D01*
X72119Y185838D02*
Y186394D01*
X72907Y185050D02*
Y185607D01*
X73694Y184263D02*
Y184820D01*
X74482Y184015D02*
Y184033D01*
X73099Y182632D02*
X72821Y182353D01*
X68366Y186806*
X68644Y187085*
X73099Y182632*
X72497Y182677D02*
X73054D01*
X71709Y183465D02*
X72266D01*
X70921Y184252D02*
X71478D01*
X70133Y185039D02*
X70690D01*
X69346Y185827D02*
X69902D01*
X68558Y186614D02*
X69115D01*
X68366Y186806D02*
X68366D01*
X69153Y186019D02*
Y186576D01*
X69940Y185232D02*
Y185789D01*
X70728Y184445D02*
Y185002D01*
X71515Y183658D02*
Y184215D01*
X72303Y182871D02*
Y183428D01*
X73090Y182623D02*
Y182641D01*
X71707Y181239D02*
X71429Y180961D01*
X66974Y185414*
X67252Y185693*
X71707Y181239*
X71288Y181102D02*
X71570D01*
X70500Y181890D02*
X71057D01*
X69712Y182677D02*
X70269D01*
X68924Y183465D02*
X69481D01*
X68137Y184252D02*
X68693D01*
X67349Y185039D02*
X67906D01*
X66974Y185414D02*
X66974D01*
X67761Y184627D02*
Y185184D01*
X68549Y183840D02*
Y184397D01*
X69336Y183053D02*
Y183610D01*
X70123Y182266D02*
Y182823D01*
X70911Y181479D02*
Y182036D01*
X71698Y181230D02*
Y181249D01*
X70316Y179847D02*
X70037Y179569D01*
X65582Y184022*
X65861Y184300*
X70316Y179847*
X69291Y180315D02*
X69848D01*
X68503Y181102D02*
X69060D01*
X67715Y181890D02*
X68272D01*
X66928Y182677D02*
X67484D01*
X66140Y183465D02*
X66697D01*
X65812Y184252D02*
X65909D01*
X65582Y184022D02*
X65582D01*
X66370Y183235D02*
Y183791D01*
X67157Y182448D02*
Y183004D01*
X67944Y181661D02*
Y182217D01*
X68732Y180874D02*
Y181430D01*
X69519Y180087D02*
Y180643D01*
X70307Y179838D02*
Y179856D01*
X68924Y178455D02*
X68646Y178176D01*
X64191Y182630*
X64469Y182908*
X68924Y178455*
X68082Y178740D02*
X68639D01*
X67294Y179528D02*
X67851D01*
X66506Y180315D02*
X67063D01*
X65719Y181102D02*
X66275D01*
X64931Y181890D02*
X65488D01*
X64238Y182677D02*
X64700D01*
X64191Y182630D02*
X64191D01*
X64978Y181843D02*
Y182399D01*
X65765Y181056D02*
Y181612D01*
X66553Y180268D02*
Y180825D01*
X67340Y179481D02*
Y180038D01*
X68128Y178694D02*
Y179251D01*
X68915Y178446D02*
Y178464D01*
X67533Y177063D02*
X67254Y176784D01*
X62799Y181237*
X63077Y181516*
X67533Y177063*
X66873Y177165D02*
X67430D01*
X66085Y177953D02*
X66642D01*
X65297Y178740D02*
X65854D01*
X64510Y179528D02*
X65066D01*
X63722Y180315D02*
X64279D01*
X62934Y181102D02*
X63491D01*
X62799Y181237D02*
X62799D01*
X63586Y180450D02*
Y181007D01*
X64374Y179663D02*
Y180220D01*
X65161Y178876D02*
Y179433D01*
X65949Y178089D02*
Y178646D01*
X66736Y177302D02*
Y177859D01*
X67523Y177053D02*
Y177072D01*
X66141Y175670D02*
X65863Y175392D01*
X61407Y179845*
X61686Y180124*
X66141Y175670*
X65664Y175591D02*
X66061D01*
X64876Y176378D02*
X65433D01*
X64088Y177165D02*
X64645D01*
X63301Y177953D02*
X63858D01*
X62513Y178740D02*
X63070D01*
X61725Y179528D02*
X62282D01*
X61407Y179845D02*
X61407D01*
X62195Y179058D02*
Y179615D01*
X62982Y178271D02*
Y178828D01*
X63770Y177484D02*
Y178041D01*
X64557Y176697D02*
Y177254D01*
X65344Y175910D02*
Y176467D01*
X66132Y175661D02*
Y175679D01*
X64749Y174278D02*
X64471Y174000D01*
X60016Y178453*
X60294Y178731*
X64749Y174278*
X64455Y174016D02*
X64487D01*
X63667Y174803D02*
X64224D01*
X62879Y175591D02*
X63436D01*
X62092Y176378D02*
X62648D01*
X61304Y177165D02*
X61861D01*
X60516Y177953D02*
X61073D01*
X60016Y178453D02*
X60016D01*
X60803Y177666D02*
Y178222D01*
X61591Y176879D02*
Y177435D01*
X62378Y176092D02*
Y176648D01*
X63165Y175305D02*
Y175861D01*
X63953Y174518D02*
Y175074D01*
X64740Y174269D02*
Y174287D01*
X63358Y172886D02*
X63079Y172607D01*
X58624Y177061*
X58902Y177339*
X63358Y172886*
X62458Y173228D02*
X63015D01*
X61670Y174016D02*
X62227D01*
X60883Y174803D02*
X61440D01*
X60095Y175591D02*
X60652D01*
X59307Y176378D02*
X59864D01*
X58729Y177165D02*
X59076D01*
X58624Y177061D02*
X58624D01*
X59412Y176274D02*
Y176830D01*
X60199Y175487D02*
Y176043D01*
X60986Y174699D02*
Y175256D01*
X61774Y173912D02*
Y174469D01*
X62561Y173125D02*
Y173682D01*
X63349Y172877D02*
Y172895D01*
X61966Y171494D02*
X61688Y171215D01*
X57233Y175668*
X57511Y175947*
X61966Y171494*
X61249Y171654D02*
X61806D01*
X60461Y172441D02*
X61018D01*
X59674Y173228D02*
X60231D01*
X58886Y174016D02*
X59443D01*
X58098Y174803D02*
X58655D01*
X57310Y175591D02*
X57867D01*
X57233Y175668D02*
X57233D01*
X58020Y174881D02*
Y175438D01*
X58807Y174094D02*
Y174651D01*
X59595Y173307D02*
Y173864D01*
X60382Y172520D02*
Y173077D01*
X61170Y171733D02*
Y172290D01*
X61957Y171484D02*
Y171503D01*
X60574Y170101D02*
X60296Y169823D01*
X55841Y174276*
X56119Y174555*
X60574Y170101*
X60040Y170079D02*
X60552D01*
X59252Y170866D02*
X59809D01*
X58465Y171654D02*
X59022D01*
X57677Y172441D02*
X58234D01*
X56889Y173228D02*
X57446D01*
X56101Y174016D02*
X56658D01*
X55841Y174276D02*
X55841D01*
X56628Y173489D02*
Y174046D01*
X57416Y172702D02*
Y173259D01*
X58203Y171915D02*
Y172472D01*
X58990Y171128D02*
Y171685D01*
X59778Y170341D02*
Y170898D01*
X60565Y170092D02*
Y170110D01*
X60297Y164533D02*
X60576Y164255D01*
X56123Y159800*
X55844Y160078*
X60297Y164533*
X56080Y159843D02*
X56165D01*
X56396Y160630D02*
X56952D01*
X57183Y161417D02*
X57739D01*
X57970Y162205D02*
X58526D01*
X58757Y162992D02*
X59313D01*
X59544Y163780D02*
X60100D01*
X55844Y160078D02*
X55844D01*
X56632Y160309D02*
Y160866D01*
X57419Y161097D02*
Y161654D01*
X58206Y161885D02*
Y162442D01*
X58994Y162672D02*
Y163229D01*
X59781Y163460D02*
Y164017D01*
X60569Y164248D02*
Y164262D01*
X61690Y163142D02*
X61968Y162864D01*
X57515Y158408*
X57236Y158687*
X61690Y163142*
X57605Y159055D02*
X58161D01*
X58392Y159843D02*
X58948D01*
X59179Y160630D02*
X59735D01*
X59966Y161417D02*
X60522D01*
X60753Y162205D02*
X61309D01*
X61540Y162992D02*
X61839D01*
X57236Y158687D02*
X57236D01*
X58024Y158918D02*
Y159474D01*
X58811Y159705D02*
Y160262D01*
X59599Y160493D02*
Y161050D01*
X60386Y161281D02*
Y161838D01*
X61173Y162069D02*
Y162625D01*
X61961Y162856D02*
Y162871D01*
X63082Y161750D02*
X63360Y161472D01*
X58907Y157017*
X58629Y157295*
X63082Y161750*
X58814Y157480D02*
X59370D01*
X59601Y158268D02*
X60158D01*
X60388Y159055D02*
X60945D01*
X61175Y159843D02*
X61732D01*
X61962Y160630D02*
X62519D01*
X62749Y161417D02*
X63306D01*
X58629Y157295D02*
X58629D01*
X59416Y157526D02*
Y158083D01*
X60203Y158314D02*
Y158871D01*
X60991Y159101D02*
Y159658D01*
X61778Y159889D02*
Y160446D01*
X62566Y160677D02*
Y161234D01*
X63353Y161465D02*
Y161479D01*
X64474Y160359D02*
X64753Y160080D01*
X60299Y155625*
X60021Y155903*
X64474Y160359*
X60023Y155906D02*
X60580D01*
X60810Y156693D02*
X61367D01*
X61597Y157480D02*
X62154D01*
X62384Y158268D02*
X62941D01*
X63171Y159055D02*
X63728D01*
X63958Y159843D02*
X64515D01*
X60021Y155903D02*
X60021D01*
X60808Y156134D02*
Y156691D01*
X61596Y156922D02*
Y157479D01*
X62383Y157710D02*
Y158267D01*
X63170Y158498D02*
Y159054D01*
X63958Y159285D02*
Y159842D01*
X64745Y160073D02*
Y160088D01*
X65866Y158967D02*
X66145Y158689D01*
X61692Y154233*
X61413Y154512*
X65866Y158967*
X61594Y154331D02*
X61789D01*
X62019Y155118D02*
X62576D01*
X62806Y155906D02*
X63363D01*
X63593Y156693D02*
X64150D01*
X64380Y157480D02*
X64937D01*
X65167Y158268D02*
X65724D01*
X61413Y154512D02*
X61413D01*
X62201Y154743D02*
Y155300D01*
X62988Y155530D02*
Y156087D01*
X63775Y156318D02*
Y156875D01*
X64563Y157106D02*
Y157663D01*
X65350Y157894D02*
Y158451D01*
X66138Y158681D02*
Y158696D01*
X67259Y157575D02*
X67537Y157297D01*
X63084Y152842*
X62805Y153120*
X67259Y157575*
X63228Y153543D02*
X63785D01*
X64015Y154331D02*
X64572D01*
X64802Y155118D02*
X65359D01*
X65590Y155906D02*
X66146D01*
X66377Y156693D02*
X66933D01*
X67164Y157480D02*
X67354D01*
X62805Y153120D02*
X62805D01*
X63593Y153351D02*
Y153908D01*
X64380Y154139D02*
Y154696D01*
X65168Y154927D02*
Y155483D01*
X65955Y155714D02*
Y156271D01*
X66742Y156502D02*
Y157059D01*
X67530Y157290D02*
Y157304D01*
X68651Y156184D02*
X68929Y155905D01*
X64476Y151450*
X64198Y151729*
X68651Y156184*
X64438Y151969D02*
X64994D01*
X65225Y152756D02*
X65781D01*
X66012Y153543D02*
X66568D01*
X66799Y154331D02*
X67355D01*
X67586Y155118D02*
X68142D01*
X68373Y155906D02*
X68929D01*
X64198Y151729D02*
X64198D01*
X64985Y151959D02*
Y152516D01*
X65772Y152747D02*
Y153304D01*
X66560Y153535D02*
Y154092D01*
X67347Y154323D02*
Y154880D01*
X68135Y155110D02*
Y155667D01*
X68922Y155898D02*
Y155913D01*
X70043Y154792D02*
X70322Y154514D01*
X65868Y150059*
X65590Y150337*
X70043Y154792*
X65647Y150394D02*
X66203D01*
X66434Y151181D02*
X66990D01*
X67221Y151969D02*
X67777D01*
X68008Y152756D02*
X68564D01*
X68795Y153543D02*
X69352D01*
X69582Y154331D02*
X70139D01*
X65590Y150337D02*
X65590D01*
X66377Y150568D02*
Y151125D01*
X67165Y151355D02*
Y151912D01*
X67952Y152143D02*
Y152700D01*
X68740Y152931D02*
Y153488D01*
X69527Y153719D02*
Y154276D01*
X70314Y154507D02*
Y154521D01*
X71435Y153400D02*
X71714Y153122D01*
X67261Y148667*
X66982Y148945*
X71435Y153400*
X67109Y148819D02*
X67413D01*
X67643Y149606D02*
X68200D01*
X68430Y150394D02*
X68987D01*
X69217Y151181D02*
X69774D01*
X70004Y151969D02*
X70561D01*
X70791Y152756D02*
X71348D01*
X66982Y148945D02*
X66982D01*
X67770Y149176D02*
Y149733D01*
X68557Y149964D02*
Y150521D01*
X69344Y150752D02*
Y151309D01*
X70132Y151539D02*
Y152096D01*
X70919Y152327D02*
Y152884D01*
X71707Y153115D02*
Y153129D01*
X72828Y152009D02*
X73106Y151731D01*
X68653Y147275*
X68374Y147554*
X72828Y152009*
X68852Y148031D02*
X69409D01*
X69639Y148819D02*
X70196D01*
X70426Y149606D02*
X70983D01*
X71213Y150394D02*
X71770D01*
X72000Y151181D02*
X72557D01*
X72787Y151969D02*
X72868D01*
X68374Y147554D02*
X68374D01*
X69162Y147784D02*
Y148341D01*
X69949Y148572D02*
Y149129D01*
X70737Y149360D02*
Y149917D01*
X71524Y150148D02*
Y150705D01*
X72311Y150936D02*
Y151492D01*
X73099Y151723D02*
Y151738D01*
X74220Y150617D02*
X74498Y150339D01*
X70045Y145884*
X69767Y146162*
X74220Y150617*
X70061Y146457D02*
X70618D01*
X70848Y147244D02*
X71405D01*
X71635Y148031D02*
X72192D01*
X72422Y148819D02*
X72979D01*
X73209Y149606D02*
X73766D01*
X73996Y150394D02*
X74444D01*
X69767Y146162D02*
X69767D01*
X70554Y146393D02*
Y146950D01*
X71341Y147181D02*
Y147738D01*
X72129Y147968D02*
Y148525D01*
X72916Y148756D02*
Y149313D01*
X73704Y149544D02*
Y150101D01*
X74491Y150332D02*
Y150346D01*
X75612Y149226D02*
X75891Y148947D01*
X71437Y144492*
X71159Y144770*
X75612Y149226*
X71270Y144882D02*
X71827D01*
X72057Y145669D02*
X72614D01*
X72844Y146457D02*
X73401D01*
X73632Y147244D02*
X74188D01*
X74419Y148031D02*
X74975D01*
X75206Y148819D02*
X75762D01*
X71159Y144770D02*
X71159D01*
X71946Y145001D02*
Y145558D01*
X72734Y145789D02*
Y146346D01*
X73521Y146577D02*
Y147134D01*
X74309Y147365D02*
Y147921D01*
X75096Y148152D02*
Y148709D01*
X75883Y148940D02*
Y148955D01*
X141157Y131646D02*
Y132472D01*
X146276*
Y131646*
X141157*
Y132283D02*
X146276D01*
X141732Y131646D02*
Y132472D01*
X142520Y131646D02*
Y132472D01*
X143307Y131646D02*
Y132472D01*
X144094Y131646D02*
Y132472D01*
X144882Y131646D02*
Y132472D01*
X145669Y131646D02*
Y132472D01*
X141157Y129087D02*
Y129913D01*
X146276*
Y129087*
X141157*
Y129134D02*
X146276D01*
X141732Y129087D02*
Y129913D01*
X142520Y129087D02*
Y129913D01*
X143307Y129087D02*
Y129913D01*
X144094Y129087D02*
Y129913D01*
X144882Y129087D02*
Y129913D01*
X145669Y129087D02*
Y129913D01*
X141157Y126528D02*
Y127354D01*
X146276*
Y126528*
X141157*
Y126772D02*
X146276D01*
X141732Y126528D02*
Y127354D01*
X142520Y126528D02*
Y127354D01*
X143307Y126528D02*
Y127354D01*
X144094Y126528D02*
Y127354D01*
X144882Y126528D02*
Y127354D01*
X145669Y126528D02*
Y127354D01*
X141157Y123969D02*
Y124795D01*
X146276*
Y123969*
X141157*
Y124409D02*
X146276D01*
X141732Y123969D02*
Y124795D01*
X142520Y123969D02*
Y124795D01*
X143307Y123969D02*
Y124795D01*
X144094Y123969D02*
Y124795D01*
X144882Y123969D02*
Y124795D01*
X145669Y123969D02*
Y124795D01*
X161945Y123969D02*
Y124795D01*
X167063*
Y123969*
X161945*
Y124409D02*
X167063D01*
X162205Y123969D02*
Y124795D01*
X162992Y123969D02*
Y124795D01*
X163780Y123969D02*
Y124795D01*
X164567Y123969D02*
Y124795D01*
X165354Y123969D02*
Y124795D01*
X166142Y123969D02*
Y124795D01*
X166929Y123969D02*
Y124795D01*
X161945Y126528D02*
Y127354D01*
X167063*
Y126528*
X161945*
Y126772D02*
X167063D01*
X162205Y126528D02*
Y127354D01*
X162992Y126528D02*
Y127354D01*
X163780Y126528D02*
Y127354D01*
X164567Y126528D02*
Y127354D01*
X165354Y126528D02*
Y127354D01*
X166142Y126528D02*
Y127354D01*
X166929Y126528D02*
Y127354D01*
X161945Y129087D02*
Y129913D01*
X167063*
Y129087*
X161945*
Y129134D02*
X167063D01*
X162205Y129087D02*
Y129913D01*
X162992Y129087D02*
Y129913D01*
X163780Y129087D02*
Y129913D01*
X164567Y129087D02*
Y129913D01*
X165354Y129087D02*
Y129913D01*
X166142Y129087D02*
Y129913D01*
X166929Y129087D02*
Y129913D01*
X161945Y131646D02*
Y132472D01*
X167063*
Y131646*
X161945*
Y132283D02*
X167063D01*
X162205Y131646D02*
Y132472D01*
X162992Y131646D02*
Y132472D01*
X163780Y131646D02*
Y132472D01*
X164567Y131646D02*
Y132472D01*
X165354Y131646D02*
Y132472D01*
X166142Y131646D02*
Y132472D01*
X166929Y131646D02*
Y132472D01*
X156768Y124972D02*
X151453D01*
Y131469*
X156768*
Y124972*
X151453Y125197D02*
X156768D01*
X151453Y125984D02*
X156768D01*
X151453Y126772D02*
X156768D01*
X151453Y127559D02*
X156768D01*
X151453Y128346D02*
X156768D01*
X151453Y129134D02*
X156768D01*
X151453Y129921D02*
X156768D01*
X151453Y130709D02*
X156768D01*
X151969Y124972D02*
Y131469D01*
X152756Y124972D02*
Y131469D01*
X153543Y124972D02*
Y131469D01*
X154331Y124972D02*
Y131469D01*
X155118Y124972D02*
Y131469D01*
X155906Y124972D02*
Y131469D01*
X156693Y124972D02*
Y131469D01*
X181638Y136520D02*
Y131795D01*
X171795*
Y136520*
X181638*
X171795Y132283D02*
X181638D01*
X171795Y133071D02*
X181638D01*
X171795Y133858D02*
X181638D01*
X171795Y134646D02*
X181638D01*
X171795Y135433D02*
X181638D01*
X171795Y136220D02*
X181638D01*
X172441Y131795D02*
Y136520D01*
X173228Y131795D02*
Y136520D01*
X174016Y131795D02*
Y136520D01*
X174803Y131795D02*
Y136520D01*
X175591Y131795D02*
Y136520D01*
X176378Y131795D02*
Y136520D01*
X177165Y131795D02*
Y136520D01*
X177953Y131795D02*
Y136520D01*
X178740Y131795D02*
Y136520D01*
X179528Y131795D02*
Y136520D01*
X180315Y131795D02*
Y136520D01*
X181102Y131795D02*
Y136520D01*
X181638Y146756D02*
Y142031D01*
X171795*
Y146756*
X181638*
X171795Y142520D02*
X181638D01*
X171795Y143307D02*
X181638D01*
X171795Y144094D02*
X181638D01*
X171795Y144882D02*
X181638D01*
X171795Y145669D02*
X181638D01*
X171795Y146457D02*
X181638D01*
X172441Y142031D02*
Y146756D01*
X173228Y142031D02*
Y146756D01*
X174016Y142031D02*
Y146756D01*
X174803Y142031D02*
Y146756D01*
X175591Y142031D02*
Y146756D01*
X176378Y142031D02*
Y146756D01*
X177165Y142031D02*
Y146756D01*
X177953Y142031D02*
Y146756D01*
X178740Y142031D02*
Y146756D01*
X179528Y142031D02*
Y146756D01*
X180315Y142031D02*
Y146756D01*
X181102Y142031D02*
Y146756D01*
G54D14*
X115709Y170559D02*
X115913Y171320D01*
X121541Y169808*
X121336Y169048*
X115709Y170559*
X120430Y169291D02*
X121402D01*
X118964Y169685D02*
X121507D01*
X117498Y170079D02*
X120534D01*
X116032Y170472D02*
X119068D01*
X115791Y170866D02*
X117602D01*
X115897Y171260D02*
X116136D01*
X115748Y170549D02*
Y170705D01*
X116142Y170443D02*
Y171258D01*
X116535Y170337D02*
Y171152D01*
X116929Y170231D02*
Y171047D01*
X117323Y170126D02*
Y170941D01*
X117717Y170020D02*
Y170835D01*
X118110Y169914D02*
Y170730D01*
X118504Y169809D02*
Y170624D01*
X118898Y169703D02*
Y170518D01*
X119291Y169597D02*
Y170412D01*
X119685Y169491D02*
Y170307D01*
X120079Y169386D02*
Y170201D01*
X120472Y169280D02*
Y170095D01*
X120866Y169174D02*
Y169990D01*
X121260Y169069D02*
Y169884D01*
X115198Y168658D02*
X115403Y169418D01*
X121030Y167907*
X120826Y167147*
X115198Y168658*
X120170Y167323D02*
X120873D01*
X118704Y167717D02*
X120979D01*
X117238Y168110D02*
X120274D01*
X115772Y168504D02*
X118808D01*
X115263Y168898D02*
X117342D01*
X115369Y169291D02*
X115876D01*
X115354Y168616D02*
Y169238D01*
X115748Y168510D02*
Y169326D01*
X116142Y168405D02*
Y169220D01*
X116535Y168299D02*
Y169114D01*
X116929Y168193D02*
Y169009D01*
X117323Y168087D02*
Y168903D01*
X117717Y167982D02*
Y168797D01*
X118110Y167876D02*
Y168691D01*
X118504Y167770D02*
Y168586D01*
X118898Y167665D02*
Y168480D01*
X119291Y167559D02*
Y168374D01*
X119685Y167453D02*
Y168268D01*
X120079Y167347D02*
Y168163D01*
X120472Y167242D02*
Y168057D01*
X120866Y167297D02*
Y167951D01*
X114688Y166757D02*
X114892Y167517D01*
X120520Y166006*
X120315Y165246*
X114688Y166757*
X119911Y165354D02*
X120345D01*
X118445Y165748D02*
X120450D01*
X116978Y166142D02*
X120015D01*
X115512Y166535D02*
X118548D01*
X114734Y166929D02*
X117082D01*
X114840Y167323D02*
X115616D01*
X114961Y166684D02*
Y167499D01*
X115354Y166578D02*
Y167393D01*
X115748Y166472D02*
Y167287D01*
X116142Y166366D02*
Y167182D01*
X116535Y166261D02*
Y167076D01*
X116929Y166155D02*
Y166970D01*
X117323Y166049D02*
Y166865D01*
X117717Y165944D02*
Y166759D01*
X118110Y165838D02*
Y166653D01*
X118504Y165732D02*
Y166547D01*
X118898Y165626D02*
Y166442D01*
X119291Y165521D02*
Y166336D01*
X119685Y165415D02*
Y166230D01*
X120079Y165309D02*
Y166125D01*
X120472Y165831D02*
Y166019D01*
X114177Y164856D02*
X114382Y165616D01*
X120009Y164105*
X119805Y163345*
X114177Y164856*
X119651Y163386D02*
X119816D01*
X118185Y163780D02*
X119922D01*
X116719Y164173D02*
X119755D01*
X115253Y164567D02*
X118289D01*
X114206Y164961D02*
X116823D01*
X114311Y165354D02*
X115356D01*
X114567Y164751D02*
Y165566D01*
X114961Y164645D02*
Y165461D01*
X115354Y164540D02*
Y165355D01*
X115748Y164434D02*
Y165249D01*
X116142Y164328D02*
Y165143D01*
X116535Y164222D02*
Y165038D01*
X116929Y164117D02*
Y164932D01*
X117323Y164011D02*
Y164826D01*
X117717Y163905D02*
Y164721D01*
X118110Y163800D02*
Y164615D01*
X118504Y163694D02*
Y164509D01*
X118898Y163588D02*
Y164403D01*
X119291Y163482D02*
Y164298D01*
X119685Y163377D02*
Y164192D01*
X113667Y162954D02*
X113871Y163715D01*
X119499Y162204*
X119294Y161443*
X113667Y162954*
X117925Y161811D02*
X119393D01*
X116459Y162205D02*
X119495D01*
X114993Y162598D02*
X118029D01*
X113677Y162992D02*
X116563D01*
X113783Y163386D02*
X115097D01*
X113780Y162924D02*
Y163374D01*
X114173Y162819D02*
Y163634D01*
X114567Y162713D02*
Y163528D01*
X114961Y162607D02*
Y163422D01*
X115354Y162501D02*
Y163317D01*
X115748Y162396D02*
Y163211D01*
X116142Y162290D02*
Y163105D01*
X116535Y162184D02*
Y163000D01*
X116929Y162078D02*
Y162894D01*
X117323Y161973D02*
Y162788D01*
X117717Y161867D02*
Y162682D01*
X118110Y161761D02*
Y162577D01*
X118504Y161656D02*
Y162471D01*
X118898Y161550D02*
Y162365D01*
X119291Y161444D02*
Y162259D01*
X131081Y158278D02*
X131286Y159039D01*
X136913Y157528*
X136709Y156767*
X131081Y158278*
X135519Y157087D02*
X136795D01*
X134053Y157480D02*
X136900D01*
X132587Y157874D02*
X135623D01*
X131120Y158268D02*
X134157D01*
X131184Y158661D02*
X132690D01*
X131102Y158273D02*
Y158356D01*
X131496Y158167D02*
Y158982D01*
X131890Y158061D02*
Y158876D01*
X132283Y157955D02*
Y158771D01*
X132677Y157850D02*
Y158665D01*
X133071Y157744D02*
Y158559D01*
X133465Y157638D02*
Y158454D01*
X133858Y157533D02*
Y158348D01*
X134252Y157427D02*
Y158242D01*
X134646Y157321D02*
Y158136D01*
X135039Y157215D02*
Y158031D01*
X135433Y157110D02*
Y157925D01*
X135827Y157004D02*
Y157819D01*
X136220Y156898D02*
Y157713D01*
X136614Y156792D02*
Y157608D01*
X131592Y160179D02*
X131796Y160940D01*
X137424Y159429*
X137219Y158668*
X131592Y160179*
X135779Y159055D02*
X137323D01*
X134312Y159449D02*
X137349D01*
X132846Y159843D02*
X135882D01*
X131607Y160236D02*
X134416D01*
X131713Y160630D02*
X132950D01*
X131890Y160099D02*
Y160915D01*
X132283Y159994D02*
Y160809D01*
X132677Y159888D02*
Y160703D01*
X133071Y159782D02*
Y160598D01*
X133465Y159676D02*
Y160492D01*
X133858Y159571D02*
Y160386D01*
X134252Y159465D02*
Y160280D01*
X134646Y159359D02*
Y160175D01*
X135039Y159254D02*
Y160069D01*
X135433Y159148D02*
Y159963D01*
X135827Y159042D02*
Y159857D01*
X136220Y158936D02*
Y159752D01*
X136614Y158831D02*
Y159646D01*
X137008Y158725D02*
Y159540D01*
X137402Y159347D02*
Y159435D01*
X132102Y162080D02*
X132307Y162841D01*
X137934Y161330*
X137730Y160569*
X132102Y162080*
X137504Y160630D02*
X137746D01*
X136038Y161024D02*
X137852D01*
X134572Y161417D02*
X137608D01*
X133106Y161811D02*
X136142D01*
X132136Y162205D02*
X134676D01*
X132242Y162598D02*
X133210D01*
X132283Y162032D02*
Y162754D01*
X132677Y161926D02*
Y162741D01*
X133071Y161820D02*
Y162636D01*
X133465Y161715D02*
Y162530D01*
X133858Y161609D02*
Y162424D01*
X134252Y161503D02*
Y162319D01*
X134646Y161398D02*
Y162213D01*
X135039Y161292D02*
Y162107D01*
X135433Y161186D02*
Y162001D01*
X135827Y161080D02*
Y161896D01*
X136220Y160975D02*
Y161790D01*
X136614Y160869D02*
Y161684D01*
X137008Y160763D02*
Y161579D01*
X137402Y160658D02*
Y161473D01*
X137795Y160813D02*
Y161367D01*
X132613Y163982D02*
X132817Y164742D01*
X138445Y163231*
X138240Y162471*
X132613Y163982*
X137764Y162598D02*
X138275D01*
X136298Y162992D02*
X138380D01*
X134832Y163386D02*
X137868D01*
X133366Y163780D02*
X136402D01*
X132664Y164173D02*
X134936D01*
X132770Y164567D02*
X133470D01*
X132677Y163964D02*
Y164221D01*
X133071Y163859D02*
Y164674D01*
X133465Y163753D02*
Y164568D01*
X133858Y163647D02*
Y164463D01*
X134252Y163542D02*
Y164357D01*
X134646Y163436D02*
Y164251D01*
X135039Y163330D02*
Y164145D01*
X135433Y163224D02*
Y164040D01*
X135827Y163119D02*
Y163934D01*
X136220Y163013D02*
Y163828D01*
X136614Y162907D02*
Y163722D01*
X137008Y162801D02*
Y163617D01*
X137402Y162696D02*
Y163511D01*
X137795Y162590D02*
Y163405D01*
X138189Y162484D02*
Y163300D01*
X133124Y165883D02*
X133328Y166643D01*
X138955Y165132*
X138751Y164372*
X133124Y165883*
X138024Y164567D02*
X138803D01*
X136558Y164961D02*
X138909D01*
X135091Y165354D02*
X138128D01*
X133625Y165748D02*
X136661D01*
X133193Y166142D02*
X135195D01*
X133299Y166535D02*
X133729D01*
X133465Y165791D02*
Y166606D01*
X133858Y165685D02*
Y166501D01*
X134252Y165580D02*
Y166395D01*
X134646Y165474D02*
Y166289D01*
X135039Y165368D02*
Y166184D01*
X135433Y165263D02*
Y166078D01*
X135827Y165157D02*
Y165972D01*
X136220Y165051D02*
Y165866D01*
X136614Y164945D02*
Y165761D01*
X137008Y164840D02*
Y165655D01*
X137402Y164734D02*
Y165549D01*
X137795Y164628D02*
Y165444D01*
X138189Y164523D02*
Y165338D01*
X138583Y164417D02*
Y165232D01*
G54D15*
X105734Y198474D03*
X113373Y196562D03*
X121011Y194650D03*
X128649Y192738D03*
X136288Y190826D03*
X143926Y188914D03*
G54D16*
X161733Y141124D02*
Y146324D01*
X166933*
Y141124*
X161733*
Y141600D02*
X166933D01*
X161733Y142400D02*
X166933D01*
X161733Y143200D02*
X166933D01*
X161733Y144000D02*
X166933D01*
X161733Y144800D02*
X166933D01*
X161733Y145600D02*
X166933D01*
X162400Y141124D02*
Y146324D01*
X163200Y141124D02*
Y146324D01*
X164000Y141124D02*
Y146324D01*
X164800Y141124D02*
Y146324D01*
X165600Y141124D02*
Y146324D01*
X166400Y141124D02*
Y146324D01*
X148233Y141124D02*
Y146324D01*
X153433*
Y141124*
X148233*
Y141600D02*
X153433D01*
X148233Y142400D02*
X153433D01*
X148233Y143200D02*
X153433D01*
X148233Y144000D02*
X153433D01*
X148233Y144800D02*
X153433D01*
X148233Y145600D02*
X153433D01*
X148800Y141124D02*
Y146324D01*
X149600Y141124D02*
Y146324D01*
X150400Y141124D02*
Y146324D01*
X151200Y141124D02*
Y146324D01*
X152000Y141124D02*
Y146324D01*
X152800Y141124D02*
Y146324D01*
G54D17*
X132658Y133940D02*
X137058D01*
Y128540*
X132658*
Y133940*
Y128800D02*
X137058D01*
X132658Y129400D02*
X137058D01*
X132658Y130000D02*
X137058D01*
X132658Y130600D02*
X137058D01*
X132658Y131200D02*
X137058D01*
X132658Y131800D02*
X137058D01*
X132658Y132400D02*
X137058D01*
X132658Y133000D02*
X137058D01*
X132658Y133600D02*
X137058D01*
X133000Y128540D02*
Y133940D01*
X133600Y128540D02*
Y133940D01*
X134200Y128540D02*
Y133940D01*
X134800Y128540D02*
Y133940D01*
X135400Y128540D02*
Y133940D01*
X136000Y128540D02*
Y133940D01*
X136600Y128540D02*
Y133940D01*
X132658Y142940D02*
X137058D01*
Y137540*
X132658*
Y142940*
Y137800D02*
X137058D01*
X132658Y138400D02*
X137058D01*
X132658Y139000D02*
X137058D01*
X132658Y139600D02*
X137058D01*
X132658Y140200D02*
X137058D01*
X132658Y140800D02*
X137058D01*
X132658Y141400D02*
X137058D01*
X132658Y142000D02*
X137058D01*
X132658Y142600D02*
X137058D01*
X133000Y137540D02*
Y142940D01*
X133600Y137540D02*
Y142940D01*
X134200Y137540D02*
Y142940D01*
X134800Y137540D02*
Y142940D01*
X135400Y137540D02*
Y142940D01*
X136000Y137540D02*
Y142940D01*
X136600Y137540D02*
Y142940D01*
G54D18*
X30400Y149000D03*
X22526D03*
X14652D03*
G54D19*
X58614Y122012D02*
X63214D01*
X66600Y125397*
Y128100*
X163738Y118531D02*
Y123616D01*
X164504Y124382*
X176530Y118870D02*
Y126941D01*
X184087*
X184720Y127575*
Y142083*
X16765Y125489D02*
Y136093D01*
X23164Y142493*
X34224*
X36588Y144858*
Y148460*
X42173Y154045*
X52873*
X56249Y157420*
X59602Y160775*
X16765Y125489D02*
X20753Y121500D01*
X36739*
X43530Y128291*
X18465Y126193D02*
Y135389D01*
X23597Y140521*
X35282*
X36400Y141639*
Y142265*
X38620Y144485*
Y148087*
X42869Y152337*
X53949*
X57641Y156029*
X60994Y159383*
X18465Y126193D02*
X21432Y123226D01*
X33465*
X38530Y128291*
X64150Y127000D02*
Y145834D01*
X65995Y147679*
X69348Y151034*
X58530Y128291D02*
X61895Y131656D01*
Y142597*
X134921Y129941D02*
X137921Y126941D01*
X143717*
X164504D02*
X176530D01*
Y118870*
X164504Y126941D02*
X184087D01*
X184720Y127575*
Y142083*
X164504Y124382D02*
X166574D01*
X171244Y120638*
X182728Y124197D02*
X182730Y124195D01*
Y118870*
X15065Y136797D02*
Y124785D01*
X20349Y119500*
X39739*
X48530Y128291*
X15065Y136797D02*
X22767Y144500D01*
X33827*
X34888Y145562*
Y149164*
X42224Y156500*
X51500*
X20165Y134685D02*
Y126897D01*
X22136Y124926*
X30165*
X33530Y128291*
X20165Y134685D02*
X24069Y138589D01*
X31500*
X23530Y133291D02*
X26896Y136657D01*
X35606*
X35791Y136472*
X36476*
X41094Y141091*
X31500Y138589D02*
Y138500D01*
X35665*
X38682Y141517*
Y142143*
X40604Y144065*
Y147668*
X43559Y150622*
X54780*
X57146Y152988*
X57385*
X59033Y154637*
X62387Y157992*
X31500Y138589D02*
X32315D01*
X38530Y133291D02*
X40511Y136069D01*
X43544Y139102*
Y142274*
X43530Y133291D02*
Y136684D01*
X45591Y138744*
Y143862*
X48530Y133291D02*
Y139774D01*
X50157Y141401*
Y146969*
X72929Y138476D02*
X73295Y138842D01*
X73541*
X69000Y139000D02*
X73384D01*
X73541Y138842*
X30400Y149000D02*
X35097Y153697D01*
X35803*
X41900Y159794*
Y159865*
X50819Y168783*
X56461*
X43138Y146937D02*
Y142681D01*
X43544Y142274*
X43138Y146937D02*
X43339D01*
X61895Y142597D02*
X56571Y147921D01*
X56654Y148890*
X53453Y148157D02*
Y143186D01*
X53530Y143108*
Y133291*
X65850Y144750D02*
Y128850D01*
X66600Y128100*
X65850Y144750D02*
X67387Y146287D01*
X70740Y149642*
X73525Y146859D02*
X74791Y145593D01*
X75091Y145256*
X76013Y145137*
X77923Y143229*
X73525Y146859D02*
X73525D01*
X69565Y142818D02*
Y145683D01*
X72133Y148250*
X69565Y142818D02*
X73541Y138842D01*
X73525Y146859D02*
X73525D01*
X78537Y151871*
X83547Y146861D02*
X78537Y151871D01*
X83547Y146861*
X78537Y151871D02*
X79346Y152681D01*
X176717Y144394D02*
X177244Y143866D01*
X44800Y159300D02*
X48425D01*
X49125Y160000*
X52000*
X56125Y160081*
X58210Y162167*
X96071Y159391D02*
X99426Y156038D01*
X99542*
X101445Y157941*
X117767*
X121767Y161940*
Y165264*
X94680Y157999D02*
X98035Y154646D01*
X99919Y152761*
X102921*
X98855Y162176D02*
X100120Y163442D01*
X102276Y165598*
X104106Y166285*
X112200Y165800*
X117093Y164480*
X111693Y162110D02*
X111852Y161847D01*
X66197Y169811D02*
X66343Y169957D01*
Y175189*
X58208Y172189D02*
X58209D01*
X62799Y167598*
X83441Y169594D02*
X86571Y172724D01*
X87708*
X90004Y175020*
X90539*
X93283Y177764*
X86642Y169220D02*
Y169252D01*
X90535Y173146*
X91195*
X93733Y175430*
X94676Y176373*
X94894Y164923D02*
Y163353D01*
X97463Y160784*
X94894Y164923D02*
X99371Y169400D01*
X100949Y171083*
X104236Y171839*
X113951Y169400*
X118114Y168283*
X91547Y170693D02*
X93852Y172893D01*
X96004Y175045*
X96068Y174981*
X98852Y172198D02*
X101701Y175055D01*
X104079Y173728*
X116191Y170837*
X118625Y170184*
X115170Y167035D02*
X117604Y166381D01*
X121767Y165264*
X127641Y171969D02*
Y188710D01*
X128649Y192738*
X127641Y171969D02*
X129630Y169980D01*
Y164049*
X130856Y162823*
X135018Y161705*
X136039Y165507D02*
X139425Y164634D01*
X141606Y165732*
X57636Y178326D02*
Y180073D01*
X58587Y181024*
X57636Y178326D02*
X60991Y174973D01*
X53759Y180369D02*
X55651Y178444D01*
Y177529*
X59599Y173581*
X49336Y176024D02*
X49621Y176305D01*
X52942Y176275*
X54121*
X58208Y172189*
X63774Y177758D02*
X66343Y175189D01*
X65166Y179150D02*
X68521Y175797D01*
X68795Y175522*
Y174661*
X66557Y180542D02*
X69912Y177189D01*
X70043Y177058*
Y176892*
X71354Y175581*
Y172693*
X67949Y181935D02*
X69377Y180507D01*
X72626Y177787*
X78445Y182413D02*
X83537Y187506D01*
X83538*
X82283Y175476D02*
X82713Y175047D01*
X84009*
X84012Y175050*
X84015Y175047*
X87579*
X91688Y179156*
X91891*
X84445Y177500D02*
Y177193D01*
X87146*
X90499Y180548*
X82327Y175091D02*
X82370Y175047D01*
X82713*
X89107Y181939D02*
X89966Y182799D01*
X93343Y185858*
X46906Y188009D02*
X46983Y187931D01*
Y178568*
X49336Y176024*
X46906Y188009D02*
X55446Y196549D01*
X55539Y189417D02*
X63250D01*
X69341Y183327*
X82271Y188772D02*
Y195319D01*
X83506*
X82271Y188772D02*
X83538Y187506D01*
X83538*
X84930Y186114D02*
X88283Y189469D01*
X89706Y190892*
Y195319*
X112364Y192534D02*
Y181489D01*
X126220Y167633*
Y162635*
X129835Y159021*
X133997Y157903*
X112364Y192534D02*
X113373Y196562D01*
X120003Y190622D02*
Y176784D01*
X127925Y168861*
Y163342*
X130345Y160922*
X134508Y159804*
X120003Y190622D02*
X121011Y194650D01*
X129437Y185402D02*
Y173791D01*
X131366Y171862*
Y164724*
X135529Y163606*
X129437Y185402D02*
X132726Y188691D01*
X136288Y190826*
X61082Y199132D02*
X64252Y196484D01*
X185146Y139398D02*
Y152618D01*
X172835*
X168830Y153063D02*
G75*
G03X172835Y152618I4005J17803D01*
G01X168830Y153063D02*
X157925D01*
Y140290*
X160454*
X161091Y140157D02*
G03X160454Y140290I-637J-1467D01*
G01X161091Y140157D02*
X162031D01*
Y138959*
X162054Y138690D02*
G03X162031Y138959I-1600J-0D01*
G01X162054Y138690D02*
Y136090D01*
X162031Y135820D02*
G03X162054Y136090I-1577J270D01*
G01X162031Y135820D02*
Y135228D01*
X167214*
Y137705*
X167543Y138774D02*
G03X167214Y137705I1571J-1069D01*
G01X167543Y138774D02*
Y139398D01*
X168252*
X169114Y139605D02*
G03X168252Y139398I0J-1900D01*
G01X169114Y139605D02*
X182780D01*
X183642Y139398D02*
G03X182780Y139605I-862J-1693D01*
G01X183642Y139398D02*
X185146D01*
X93550Y166267D02*
X95477Y168194D01*
X93995Y169676*
X89325Y169249D02*
G03X93995Y169676I2222J1444D01*
G01X89325Y169249D02*
X89292Y169215D01*
X84797Y167318D02*
G03X89292Y169215I1845J1902D01*
G01X83404Y172244D02*
G03X84797Y167318I37J-2650D01*
G01X83404Y172244D02*
X84307Y173147D01*
X84128*
X81802Y177688D02*
G03X84128Y173147I525J-2597D01*
G01X83645Y180026D02*
G03X81802Y177688I800J-2526D01*
G01X83645Y180026D02*
X78319Y185352D01*
X77345Y184378*
X77151Y184148D02*
G03X77345Y184378I-1269J1268D01*
G01X77151Y184148D02*
X76873Y183870D01*
X76641Y183674D02*
G03X76873Y183870I-1037J1464D01*
G01X76641Y183674D02*
X75955Y182988D01*
X75759Y182756D02*
G03X75955Y182988I-1268J1268D01*
G01X75759Y182756D02*
X75481Y182477D01*
X75247Y182281D02*
G03X75481Y182477I-1035J1464D01*
G01X75247Y182281D02*
X74565Y181598D01*
X74368Y181364D02*
G03X74565Y181598I-1269J1268D01*
G01X74368Y181364D02*
X74089Y181085D01*
X73854Y180887D02*
G03X74089Y181085I-1033J1466D01*
G01X73854Y180887D02*
X73314Y180347D01*
X73254Y175213D02*
G03X73314Y180347I-628J2574D01*
G01X73254Y175213D02*
Y174540D01*
X68793Y172011D02*
G03X73254Y174540I2561J682D01*
G01X68243Y172070D02*
G03X68793Y172011I552J2591D01*
G01X68243Y172070D02*
Y171495D01*
X63720Y170753D02*
G03X68243Y171495I2477J-942D01*
G01X63720Y170753D02*
X63444Y170477D01*
X63235Y170226D02*
G03X63444Y170477I-1269J1268D01*
G01X63235Y170226D02*
X62956Y169947D01*
X62704Y169737D02*
G03X62956Y169947I-1016J1478D01*
G01X62704Y169737D02*
X62054Y169087D01*
X61843Y168833D02*
G03X62054Y169087I-1269J1268D01*
G01X61843Y168833D02*
X61565Y168555D01*
X61310Y168344D02*
G03X61565Y168555I-1014J1479D01*
G01X61310Y168344D02*
X60187Y167220D01*
X78476Y148932*
X92994Y163449*
Y164923*
X93550Y166267D02*
G03X92994Y164923I1344J-1344D01*
G01X182780Y128841D02*
Y137498D01*
X169443*
Y135228*
X169114Y134159D02*
G03X169443Y135228I-1571J1069D01*
G01X169114Y134159D02*
Y128841D01*
X182780*
X188051Y114311D02*
Y152618D01*
X187046*
Y139398*
X186620Y138200D02*
G03X187046Y139398I-1474J1198D01*
G01X186620Y138200D02*
Y127575D01*
X186064Y126231D02*
G03X186620Y127575I-1344J1344D01*
G01X186064Y126231D02*
X185430Y125597D01*
X185117Y125345D02*
G03X185430Y125597I-1030J1596D01*
G01X184630Y122351D02*
G03X185117Y125345I-1902J1846D01*
G01X184630Y122351D02*
Y121758D01*
X186030Y120170D02*
G03X184630Y121758I-1600J0D01*
G01X186030Y120170D02*
Y117570D01*
X184430Y115970D02*
G03X186030Y117570I-0J1600D01*
G01X184430Y115970D02*
X181030D01*
X179630Y116795D02*
G03X181030Y115970I1400J775D01*
G01X178230D02*
G03X179630Y116795I-0J1600D01*
G01X178230Y115970D02*
X174830D01*
X173230Y117570D02*
G03X174830Y115970I1600J0D01*
G01X173230Y117570D02*
Y118883D01*
X168614Y120311D02*
G03X173230Y118883I2630J327D01*
G01X168614Y120311D02*
X166289Y122175D01*
X165638*
Y121419*
X167038Y119831D02*
G03X165638Y121419I-1600J0D01*
G01X167038Y119831D02*
Y117231D01*
X165438Y115631D02*
G03X167038Y117231I-0J1600D01*
G01X165438Y115631D02*
X162038D01*
X160638Y116457D02*
G03X162038Y115631I1400J774D01*
G01X159238D02*
G03X160638Y116457I-0J1600D01*
G01X159238Y115631D02*
X155838D01*
X154238Y117231D02*
G03X155838Y115631I1600J0D01*
G01X154238Y117231D02*
Y119831D01*
X155838Y121432D02*
G03X154238Y119831I-0J-1601D01*
G01X155838Y121432D02*
X159238D01*
X160638Y120606D02*
G03X159238Y121432I-1400J-775D01*
G01X161838Y121419D02*
G03X160638Y120606I200J-1588D01*
G01X161838Y121419D02*
Y122178D01*
X160151Y123969D02*
G03X161838Y122178I1794J-0D01*
G01X160151Y123969D02*
Y124795D01*
X160374Y125661D02*
G03X160151Y124795I1571J-866D01*
G01Y126528D02*
G03X160374Y125661I1794J-0D01*
G01X160151Y126528D02*
Y127354D01*
X160374Y128220D02*
G03X160151Y127354I1571J-866D01*
G01Y129087D02*
G03X160374Y128220I1794J-0D01*
G01X160151Y129087D02*
Y129913D01*
X160374Y130780D02*
G03X160151Y129913I1571J-867D01*
G01Y131646D02*
G03X160374Y130780I1794J-0D01*
G01X160151Y131646D02*
Y132472D01*
X160759Y133818D02*
G03X160151Y132472I1186J-1346D01*
G01X160131Y135228D02*
G03X160759Y133818I1900J0D01*
G01X160131Y135228D02*
Y138257D01*
X157925*
X156025Y140157D02*
G03X157925Y138257I1900J0D01*
G01X156025Y140157D02*
Y153063D01*
X157925Y154963D02*
G03X156025Y153063I0J-1900D01*
G01X157925Y154963D02*
X163886D01*
X156487Y162758D02*
G03X163886Y154963I16348J8108D01*
G01X156487Y162758D02*
Y162033D01*
X151687D02*
G03X156487I2400J-1124D01*
G01X151687D02*
Y162868D01*
X148579Y165976*
X148036Y166057D02*
G03X148579Y165976I623J2317D01*
G01X148036Y166057D02*
X147323Y166248D01*
X146071Y166067D02*
G03X147323Y166248I416J1545D01*
G01X146071Y166067D02*
X146071D01*
X145268Y166283*
X143162Y164177*
X141470Y163536D02*
G03X143162Y164177I136J2196D01*
G01X141470Y163536D02*
X140280Y162937D01*
X139987Y162819D02*
G03X140280Y162937I-562J1815D01*
G01X139987Y162817D02*
Y162819D01*
Y162817D02*
X139987D01*
X139783Y162056*
X139520Y161515D02*
G03X139783Y162056I-1280J956D01*
G01X139476Y160916D02*
G03X139520Y161515I-1542J414D01*
G01X139476Y160916D02*
X139476D01*
X139272Y160155*
X139010Y159614D02*
G03X139272Y160155I-1280J955D01*
G01X138966Y159015D02*
G03X139010Y159614I-1542J414D01*
G01X138966Y159015D02*
X138966D01*
X138762Y158254*
X138499Y157713D02*
G03X138762Y158254I-1280J955D01*
G01X138455Y157113D02*
G03X138499Y157713I-1542J415D01*
G01X138455Y157113D02*
X138455D01*
X138355Y156739*
X142809*
X145348Y152098D02*
G03X142809Y156739I-1415J2241D01*
G01X142605Y147600D02*
G03X145348Y152098I1123J2400D01*
G01X142605Y147600D02*
X126423D01*
X120087Y141264*
X118390Y140561D02*
G03X120087Y141264I-0J2400D01*
G01X118390Y140561D02*
X110336D01*
X131008Y128131D02*
G03X110336Y140561I-31082J-28288D01*
G01X130958Y128540D02*
G03X131008Y128131I1700J0D01*
G01X130958Y128540D02*
Y131539D01*
X125611Y136886*
X124761Y138937D02*
G03X125611Y136886I2900J0D01*
G01X124761Y138937D02*
Y143685D01*
X130561D02*
G03X124761I-2900J0D01*
G01X130561D02*
Y140138D01*
X130958Y139741*
Y142940*
X132658Y144640D02*
G03X130958Y142940I0J-1700D01*
G01X132658Y144640D02*
X137058D01*
X138758Y142940D02*
G03X137058Y144640I-1700J0D01*
G01X138758Y142940D02*
Y137540D01*
X137058Y135840D02*
G03X138758Y137540I0J1700D01*
G01X137058Y135840D02*
X134860D01*
X135059Y135640*
X137058*
X138758Y133940D02*
G03X137058Y135640I-1700J0D01*
G01X138758Y133940D02*
Y131600D01*
X139364*
Y131646D02*
G03Y131600I1793J-0D01*
G01Y131646D02*
Y132472D01*
X141157Y134266D02*
G03X139364Y132472I0J-1794D01*
G01X141157Y134266D02*
X146276D01*
X148069Y132472D02*
G03X146276Y134266I-1793J0D01*
G01X148069Y132472D02*
Y131646D01*
X147846Y130780D02*
G03X148069Y131646I-1570J866D01*
G01Y129913D02*
G03X147846Y130780I-1793J0D01*
G01X148069Y129913D02*
Y129087D01*
X147846Y128220D02*
G03X148069Y129087I-1570J867D01*
G01Y127354D02*
G03X147846Y128220I-1793J0D01*
G01X148069Y127354D02*
Y126528D01*
X147846Y125661D02*
G03X148069Y126528I-1570J867D01*
G01Y124795D02*
G03X147846Y125661I-1793J0D01*
G01X148069Y124795D02*
Y123969D01*
X146276Y122175D02*
G03X148069Y123969I-0J1794D01*
G01X146276Y122175D02*
X141157D01*
X139364Y123969D02*
G03X141157Y122175I1793J-0D01*
G01X139364Y123969D02*
Y124795D01*
X139381Y125041D02*
G03X139364Y124795I1776J-246D01*
G01X139381Y125041D02*
X137921D01*
X136578Y125597D02*
G03X137921Y125041I1343J1344D01*
G01X136578Y125597D02*
X135335Y126840D01*
X132658*
X132037Y126958D02*
G03X132658Y126840I621J1582D01*
G01X139385Y114311D02*
G03X132037Y126958I-39459J-14468D01*
G01X139385Y114311D02*
X188051D01*
X151271Y170072D02*
X155212Y166131D01*
X154587Y170866D02*
G03X155212Y166131I18248J0D01*
G01X154587Y170866D02*
Y192872D01*
G03X63664Y201419I-54587J-92800*
G01X64624Y199324*
X64708Y199095D02*
G03X64624Y199324I-1539J-437D01*
G01X61619Y196187D02*
G03X64708Y199095I2633J297D01*
G01X61619Y196187D02*
X60745Y195787D01*
X59128Y195954D02*
G03X60745Y195787I950J1288D01*
G01X58199Y194621D02*
G03X59128Y195954I-666J1454D01*
G01X58199Y194621D02*
X55108Y193204D01*
X54657Y193073D02*
G03X55108Y193204I-215J1586D01*
G01X54657Y193073D02*
X48883Y187299D01*
Y179554*
X50093Y179677D02*
G03X48883Y179554I-455J-1534D01*
G01X50513Y181247D02*
G03X50093Y179677I1122J-1142D01*
G01X50513Y181247D02*
X52939Y183630D01*
X55201Y183610D02*
G03X52939Y183630I-1141J-1122D01*
G01X55201Y183610D02*
X56348Y182442D01*
X61109Y181837D02*
G03X56348Y182442I-2522J-813D01*
G01X61530Y182505D02*
G03X61109Y181837I1269J-1268D01*
G01X61530Y182505D02*
X61809Y182784D01*
X62494Y183212D02*
G03X61809Y182784I583J-1696D01*
G01X62922Y183898D02*
G03X62494Y183212I1269J-1268D01*
G01X62922Y183898D02*
X63200Y184176D01*
X63886Y184604D02*
G03X63200Y184176I583J-1696D01*
G01X64314Y185290D02*
G03X63886Y184604I1268J-1268D01*
G01X64314Y185290D02*
X64502Y185478D01*
X62463Y187517*
X57387*
Y191317D02*
G03Y187517I-1848J-1900D01*
G01Y191317D02*
X63250D01*
X64594Y190761D02*
G03X63250Y191317I-1344J-1344D01*
G01X64594Y190761D02*
X67188Y188166D01*
X67375Y188353*
X68061Y188781D02*
G03X67375Y188353I583J-1696D01*
G01X68489Y189467D02*
G03X68061Y188781I1268J-1268D01*
G01X68489Y189467D02*
X68767Y189745D01*
X69452Y190173D02*
G03X68767Y189745I583J-1696D01*
G01X69880Y190859D02*
G03X69452Y190173I1269J-1268D01*
G01X69880Y190859D02*
X70158Y191137D01*
X72695Y191138D02*
G03X70158Y191137I-1268J-1269D01*
G01X72695Y191138D02*
X77060Y186775D01*
X79662Y186695D02*
G03X77060Y186775I-1343J-1343D01*
G01X79662Y186695D02*
X79793Y186565D01*
X79903Y186685D02*
G03X79793Y186565I1269J-1268D01*
G01X79903Y186685D02*
X80794Y187577D01*
X80371Y188772D02*
G03X80794Y187577I1900J-0D01*
G01X80371Y188772D02*
Y193312D01*
X80206Y194019D02*
G03X80371Y193312I1600J-0D01*
G01X80206Y194019D02*
Y196619D01*
X80750Y197821D02*
G03X80206Y196619I1056J-1202D01*
G01X80202Y199027D02*
G03X80750Y197821I1600J-0D01*
G01X80202Y199027D02*
Y201627D01*
X81802Y203227D02*
G03X80202Y201627I0J-1600D01*
G01X81802Y203227D02*
X85202D01*
X86602Y202401D02*
G03X85202Y203227I-1400J-774D01*
G01X88002D02*
G03X86602Y202401I0J-1600D01*
G01X88002Y203227D02*
X91402D01*
X93002Y201627D02*
G03X91402Y203227I-1600J-0D01*
G01X93002Y201627D02*
Y199027D01*
X92458Y197825D02*
G03X93002Y199027I-1056J1202D01*
G01X93006Y196619D02*
G03X92458Y197825I-1600J-0D01*
G01X93006Y196619D02*
Y194019D01*
X91406Y192419D02*
G03X93006Y194019I0J1600D01*
G01X91406Y192419D02*
X88006D01*
X86606Y193244D02*
G03X88006Y192419I1400J775D01*
G01X85206D02*
G03X86606Y193244I0J1600D01*
G01X85206Y192419D02*
X84171D01*
Y190955*
X84356Y191141*
X86893D02*
G03X84356I-1268J-1268D01*
G01X86893D02*
X87171Y190863D01*
X87600Y190177D02*
G03X87171Y190863I-1697J-583D01*
G01X88285Y189750D02*
G03X87600Y190177I-1268J-1269D01*
G01X88285Y189750D02*
X88564Y189471D01*
X88992Y188786D02*
G03X88564Y189471I-1696J-583D01*
G01X89677Y188358D02*
G03X88992Y188786I-1268J-1269D01*
G01X89677Y188358D02*
X89956Y188080D01*
X90384Y187394D02*
G03X89956Y188080I-1696J-583D01*
G01X90977Y187053D02*
G03X90384Y187394I-1175J-1355D01*
G01X94460Y183456D02*
G03X90977Y187053I-1117J2402D01*
G01X94561Y183219D02*
G03X94460Y183456I-1696J-583D01*
G01X95247Y182791D02*
G03X94561Y183219I-1269J-1268D01*
G01X95247Y182791D02*
X95525Y182513D01*
X95953Y181828D02*
G03X95525Y182513I-1696J-583D01*
G01X96639Y181400D02*
G03X95953Y181828I-1268J-1269D01*
G01X96639Y181400D02*
X96917Y181122D01*
X97345Y180436D02*
G03X96917Y181122I-1696J-583D01*
G01X98031Y180008D02*
G03X97345Y180436I-1268J-1268D01*
G01X98031Y180008D02*
X98309Y179730D01*
X98738Y179044D02*
G03X98309Y179730I-1697J-583D01*
G01X99423Y178617D02*
G03X98738Y179044I-1268J-1269D01*
G01X99423Y178617D02*
X99702Y178338D01*
X100130Y177653D02*
G03X99702Y178338I-1696J-583D01*
G01X100816Y177225D02*
G03X100130Y177653I-1269J-1269D01*
G01X100816Y177225D02*
X101094Y176947D01*
X101160Y176877D02*
G03X101094Y176947I-1334J-1199D01*
G01X102627Y176714D02*
G03X101160Y176877I-926J-1659D01*
G01X102627Y176714D02*
X104775Y175515D01*
X104775D02*
X115716Y172904D01*
X116327Y172862D02*
G03X115716Y172904I-414J-1542D01*
G01X116327Y172862D02*
X119030Y172136D01*
X111021Y180146*
X110464Y181489D02*
G03X111021Y180146I1900J0D01*
G01X110464Y181489D02*
Y192534D01*
X110521Y192995D02*
G03X110464Y192534I1843J-461D01*
G01X110521Y192995D02*
X110578Y193224D01*
X109103Y195717D02*
G03X110578Y193224I4270J845D01*
G01X110004Y199319D02*
G03X109103Y195717I-4270J-845D01*
G01X117643Y197407D02*
G03X110004Y199319I-4270J-845D01*
G01X125281Y195495D02*
G03X117643Y197407I-4270J-845D01*
G01X132919Y193583D02*
G03X125281Y195495I-4270J-845D01*
G01X140558Y191671D02*
G03X132919Y193583I-4270J-845D01*
G01X139656Y188069D02*
G03X140558Y191671I4270J845D01*
G01X133906Y187183D02*
G03X139656Y188069I2382J3643D01*
G01X133906Y187183D02*
X133904Y187181D01*
X131337Y184615*
Y174578*
X132710Y173206*
X133266Y171862D02*
G03X132710Y173206I-1900J0D01*
G01X133266Y171862D02*
Y168239D01*
X133742Y168185D02*
G03X133266Y168239I-414J-1542D01*
G01X133742Y168185D02*
X139293Y166695D01*
X139761Y166930*
X140051Y167288D02*
G03X139761Y166930I1555J-1556D01*
G01X140051Y167288D02*
X140389Y167626D01*
X140084Y167677D02*
G03X140389Y167626I415J1545D01*
G01X140084Y167677D02*
X140084D01*
X136801Y168560*
X135671Y170521D02*
G03X136801Y168560I1545J-416D01*
G01X135671Y170521D02*
X135671D01*
X136346Y173031*
X138307Y174161D02*
G03X136346Y173031I-416J-1545D01*
G01X138307Y174161D02*
X141590Y173278D01*
X142728Y172118D02*
G03X141590Y173278I-1553J-385D01*
G01X144294Y172551D02*
G03X142728Y172118I-415J-1545D01*
G01X144294Y172551D02*
X147577Y171668D01*
X148570Y170884D02*
G03X147577Y171668I-1408J-761D01*
G01X148570Y170884D02*
X148976Y170774D01*
X149574*
X151271Y170072D02*
G03X149574Y170774I-1697J-1698D01*
G01X76511Y139975D02*
X76511D01*
X76511*
X63257Y120112D02*
G03X60615Y114311I36817J-20269D01*
G01X63214Y120112D02*
G03X63257I0J1900D01*
G01X63214D02*
X60461D01*
Y123912D02*
G03Y120112I-1847J-1900D01*
G01Y123912D02*
X62427D01*
X63088Y124572*
X61564Y126419D02*
G03X63088Y124572I2586J581D01*
G01X56030Y125749D02*
G03X61564Y126419I2500J2542D01*
G01X51030Y125749D02*
G03X56030I2500J2542D01*
G01X47740Y124814D02*
G03X51030Y125749I790J3477D01*
G01X47740Y124814D02*
X41083Y118156D01*
X39739Y117600D02*
G03X41083Y118156I0J1900D01*
G01X39739Y117600D02*
X20349D01*
X19006Y118156D02*
G03X20349Y117600I1343J1344D01*
G01X19006Y118156D02*
X13721Y123441D01*
X13165Y124785D02*
G03X13721Y123441I1900J-0D01*
G01X13165Y124785D02*
Y136797D01*
X13721Y138141D02*
G03X13165Y136797I1344J-1344D01*
G01X13721Y138141D02*
X20504Y144924D01*
X18589Y146720D02*
G03X20504Y144924I3937J2280D01*
G01X11949Y145340D02*
G03X18589Y146720I2703J3660D01*
G01X11949Y145340D02*
Y114311D01*
X60615*
X56164Y171417D02*
G03X54613Y170683I297J-2634D01*
G01X56164Y171417D02*
X54573Y173007D01*
X54238Y173472D02*
G03X54573Y173007I1603J804D01*
G01X54238Y173472D02*
X53334Y174375D01*
X52942*
X52926D02*
G03X52942I16J1900D01*
G01X52926D02*
X51806Y174385D01*
X50156Y172764*
X47893Y172784D02*
G03X50156Y172764I1141J1121D01*
G01X47893Y172784D02*
X46071Y174639D01*
X46012Y176819D02*
G03X46071Y174639I1200J-1059D01*
G01X46012Y176819D02*
X45588Y177277D01*
X45413Y177496D02*
G03X45588Y177277I1570J1072D01*
G01X45413Y177496D02*
Y170866D01*
X44493Y165145D02*
G03X45413Y170866I-17328J5721D01*
G01X44493Y165145D02*
X49475Y170127D01*
X50819Y170683D02*
G03X49475Y170127I-0J-1900D01*
G01X50819Y170683D02*
X54613D01*
X56055Y177028D02*
X56159Y177132D01*
X55738Y178249D02*
G03X56159Y177132I1898J77D01*
G01X55738Y178249D02*
X55270Y177789D01*
X55465Y177619D02*
G03X55270Y177789I-1344J-1344D01*
G01X55465Y177619D02*
X56055Y177028D01*
X81929Y137752D02*
G03X68500Y127581I18145J-37909D01*
G01X81929Y137752D02*
X81000D01*
X79303Y138455D02*
G03X81000Y137752I1697J1697D01*
G01X79303Y138455D02*
X78163Y139595D01*
X77200Y139569D02*
G03X78163Y139595I441J1538D01*
G01X76795Y137995D02*
G03X77200Y139569I-1132J1131D01*
G01X76795Y137995D02*
X74392Y135590D01*
X72129Y135589D02*
G03X74392Y135590I1131J1132D01*
G01X72129Y135589D02*
X70290Y137426D01*
X70288Y139689D02*
G03X70290Y137426I1132J-1131D01*
G01X70288Y139689D02*
X72691Y142094D01*
X74264Y142502D02*
G03X72691Y142094I-441J-1538D01*
G01X74310Y143523D02*
G03X74264Y142502I1492J-578D01*
G01X73670Y143994D02*
G03X74310Y143523I1421J1262D01*
G01X73670Y143994D02*
X73579Y144097D01*
X72706Y143224*
X70169Y143223D02*
G03X72706Y143224I1268J1269D01*
G01X70169Y143223D02*
X69891Y143502D01*
X69463Y144187D02*
G03X69891Y143502I1696J583D01*
G01X68777Y144615D02*
G03X69463Y144187I1268J1269D01*
G01X68777Y144615D02*
X68589Y144803D01*
X67750Y143963*
Y129637*
X67943Y129444*
X68500Y128100D02*
G03X67943Y129444I-1900J0D01*
G01X68500Y128100D02*
Y127581D01*
X117396Y145361D02*
X122396Y150361D01*
X110337*
X109673Y149661D02*
G03X110337Y150361I-775J1400D01*
G01X110498Y148261D02*
G03X109673Y149661I-1600J0D01*
G01X110498Y148261D02*
Y145361D01*
X117396*
X126679Y156739D02*
X130658D01*
X130179Y156961D02*
G03X130658Y156739I902J1317D01*
G01X130179Y156961D02*
X129342Y157186D01*
X128491Y157677D02*
G03X129342Y157186I1344J1344D01*
G01X128491Y157677D02*
X124877Y161291D01*
X124320Y162635D02*
G03X124877Y161291I1900J-0D01*
G01X124320Y162635D02*
Y166846D01*
X122787Y168380*
X122616Y168093D02*
G03X122787Y168380I-1280J955D01*
G01X122572Y167493D02*
G03X122616Y168093I-1542J414D01*
G01X122572Y167493D02*
X122572D01*
X122450Y167037*
X123667Y165264D02*
G03X122450Y167037I-1900J-0D01*
G01X123667Y165264D02*
Y161940D01*
X123110Y160597D02*
G03X123667Y161940I-1343J1343D01*
G01X123110Y160597D02*
X119111Y156597D01*
X117767Y156041D02*
G03X119111Y156597I0J1900D01*
G01X117767Y156041D02*
X109154D01*
X110337Y155161D02*
G03X109154Y156041I-1439J-700D01*
G01X110337Y155161D02*
X124108D01*
X124982Y156036*
X126679Y156739D02*
G03X124982Y156036I0J-2400D01*
G01X116980Y159841D02*
X117430Y160291D01*
X113253Y161412*
X113253*
X112125Y163369D02*
G03X113253Y161412I1542J-415D01*
G01X112125Y163369D02*
X112125D01*
X112222Y163732*
X110034Y163823*
X109635Y164050D02*
G03X110034Y163823I420J272D01*
G01X109635Y164050D02*
X104395Y164364D01*
X103329Y163964*
X101606Y162241*
X102489Y161357*
X102998Y159841D02*
G03X102489Y161357I-1777J248D01*
G01X102998Y159841D02*
X116980D01*
X100847Y149661D02*
G03X100021Y148261I774J-1400D01*
G01X100034Y150861D02*
G03X100847Y149661I1587J200D01*
G01X100034Y150861D02*
X99919D01*
X98576Y151418D02*
G03X99919Y150861I1343J1343D01*
G01X98576Y151418D02*
X96833Y153161D01*
X96645Y152973*
X95960Y152545D02*
G03X96645Y152973I-583J1696D01*
G01X95532Y151859D02*
G03X95960Y152545I-1269J1268D01*
G01X95532Y151859D02*
X95254Y151581D01*
X94568Y151153D02*
G03X95254Y151581I-583J1696D01*
G01X94140Y150467D02*
G03X94568Y151153I-1268J1268D01*
G01X94140Y150467D02*
X93862Y150188D01*
X93177Y149760D02*
G03X93862Y150189I-584J1697D01*
G01X92749Y149075D02*
G03X93177Y149760I-1269J1268D01*
G01X92749Y149075D02*
X92470Y148796D01*
X91785Y148368D02*
G03X92470Y148796I-583J1696D01*
G01X91357Y147682D02*
G03X91785Y148368I-1269J1268D01*
G01X91357Y147682D02*
X91079Y147404D01*
X90393Y146976D02*
G03X91079Y147404I-583J1696D01*
G01X89965Y146290D02*
G03X90393Y146976I-1268J1268D01*
G01X89965Y146290D02*
X89687Y146012D01*
X89002Y145584D02*
G03X89687Y146012I-584J1696D01*
G01X88907Y145359D02*
G03X89002Y145584I-1602J807D01*
G01X89000Y145361D02*
G03X88907Y145359I0J-2400D01*
G01X89000Y145361D02*
X100021D01*
Y148261*
X157925Y152327D02*
X185146D01*
X157925Y151427D02*
X185146D01*
X157925Y150527D02*
X185146D01*
X157925Y149627D02*
X185146D01*
X157925Y148727D02*
X185146D01*
X157925Y147827D02*
X185146D01*
X157925Y146927D02*
X185146D01*
X157925Y146027D02*
X185146D01*
X157925Y145127D02*
X185146D01*
X157925Y144227D02*
X185146D01*
X157925Y143327D02*
X185146D01*
X157925Y142427D02*
X185146D01*
X157925Y141527D02*
X185146D01*
X157925Y140627D02*
X185146D01*
X162031Y139727D02*
X185146D01*
X162048Y138827D02*
X167543D01*
X162054Y137927D02*
X167227D01*
X162054Y137027D02*
X167214D01*
X162054Y136127D02*
X167214D01*
X88898Y167830D02*
X95114D01*
X93328Y168730D02*
X94941D01*
X87975Y166930D02*
X94214D01*
X93975Y169630D02*
X94041D01*
X61378Y166030D02*
X93350D01*
X62278Y165130D02*
X93005D01*
X63178Y164230D02*
X92994D01*
X64078Y163330D02*
X92875D01*
X64978Y162430D02*
X91975D01*
X65878Y161530D02*
X91075D01*
X66778Y160630D02*
X90175D01*
X89246Y168730D02*
X89767D01*
X67678Y159730D02*
X89275D01*
X68578Y158830D02*
X88375D01*
X69478Y157930D02*
X87475D01*
X70378Y157030D02*
X86575D01*
X71278Y156130D02*
X85675D01*
X60478Y166930D02*
X85309D01*
X72178Y155230D02*
X84775D01*
X73078Y154330D02*
X83875D01*
X73979Y172330D02*
X83490D01*
X73397Y180430D02*
X83241D01*
X73978Y153430D02*
X82975D01*
X74622Y179530D02*
X82742D01*
X74334Y181330D02*
X82341D01*
X74878Y152530D02*
X82075D01*
X75138Y178630D02*
X82048D01*
X75275Y177730D02*
X81805D01*
X73684Y171430D02*
X81530D01*
X67957Y167830D02*
X81464D01*
X75197Y182230D02*
X81441D01*
X75778Y151630D02*
X81175D01*
X72886Y170530D02*
X80962D01*
X68616Y168730D02*
X80936D01*
X68841Y169630D02*
X80791D01*
X76097Y183130D02*
X80541D01*
X73949Y173230D02*
X80440D01*
X75097Y176830D02*
X80328D01*
X76678Y150730D02*
X80275D01*
X73581Y174130D02*
X79857D01*
X74516Y175930D02*
X79813D01*
X73254Y175030D02*
X79677D01*
X77033Y184030D02*
X79641D01*
X77578Y149830D02*
X79375D01*
X77897Y184930D02*
X78741D01*
X68747Y170530D02*
X69823D01*
X68295Y171430D02*
X69024D01*
X60797Y167830D02*
X64436D01*
X61740Y168730D02*
X63777D01*
X63497Y170530D02*
X63646D01*
X62597Y169630D02*
X63553D01*
X169443Y136752D02*
X182780D01*
X169443Y135852D02*
X182780D01*
X169423Y134952D02*
X182780D01*
X169114Y134052D02*
X182780D01*
X169114Y133152D02*
X182780D01*
X169114Y132252D02*
X182780D01*
X169114Y131352D02*
X182780D01*
X169114Y130452D02*
X182780D01*
X169114Y129552D02*
X182780D01*
X93774Y150106D02*
X100338D01*
X92867Y149206D02*
X100330D01*
X91762Y148306D02*
X100022D01*
X91081Y147406D02*
X100021D01*
X90149Y146506D02*
X100021D01*
X89063Y145606D02*
X100021D01*
X94510Y151006D02*
X99193D01*
X95577Y151906D02*
X98088D01*
X96452Y152806D02*
X97188D01*
X103013Y160006D02*
X117145D01*
X102818Y160906D02*
X115139D01*
X102041Y161806D02*
X112558D01*
X102971Y163606D02*
X112188D01*
X102071Y162706D02*
X112090D01*
X119819Y157306D02*
X129016D01*
X120719Y158206D02*
X127962D01*
X121619Y159106D02*
X127062D01*
X122519Y160006D02*
X126162D01*
X118887Y156406D02*
X125460D01*
X123360Y160906D02*
X125262D01*
X123662Y161806D02*
X124511D01*
X110111Y155506D02*
X124452D01*
X123355Y166306D02*
X124320D01*
X123661Y165406D02*
X124320D01*
X123667Y164506D02*
X124320D01*
X123667Y163606D02*
X124320D01*
X123667Y162706D02*
X124320D01*
X122495Y167206D02*
X123961D01*
X122626Y168106D02*
X123061D01*
X110182Y150106D02*
X122141D01*
X110190Y149206D02*
X121241D01*
X110498Y148306D02*
X120341D01*
X110498Y147406D02*
X119441D01*
X110498Y146506D02*
X118541D01*
X110498Y145606D02*
X117641D01*
X76306Y137506D02*
X81424D01*
X75407Y136606D02*
X79707D01*
X77091Y138406D02*
X79353D01*
X77253Y139306D02*
X78452D01*
X74508Y135706D02*
X78161D01*
X67750Y134806D02*
X76752D01*
X67750Y133906D02*
X75456D01*
X67750Y133006D02*
X74257D01*
X72275Y142906D02*
X74202D01*
X73288Y143806D02*
X73863D01*
X67750Y132106D02*
X73140D01*
X67750Y142006D02*
X72603D01*
X67750Y131206D02*
X72097D01*
X67750Y135706D02*
X72012D01*
X67750Y141106D02*
X71704D01*
X67750Y130306D02*
X71120D01*
X67750Y136606D02*
X71111D01*
X67750Y140206D02*
X70805D01*
X67750Y142906D02*
X70600D01*
X67750Y137506D02*
X70215D01*
X67980Y129406D02*
X70202D01*
X67750Y139306D02*
X70006D01*
X67750Y138406D02*
X69828D01*
X67750Y143806D02*
X69647D01*
X68456Y128506D02*
X69337D01*
X68493Y144706D02*
X68686D01*
X68500Y127606D02*
X68522D01*
X55978Y177106D02*
X56133D01*
X55491Y178006D02*
X55763D01*
X45413Y171706D02*
X55875D01*
X49968Y172606D02*
X54975D01*
X45413Y170806D02*
X54748D01*
X50911Y173506D02*
X54204D01*
X45388Y169906D02*
X49254D01*
X45318Y169006D02*
X48354D01*
X45413Y172606D02*
X48101D01*
X45203Y168106D02*
X47454D01*
X45413Y173506D02*
X47184D01*
X45043Y167206D02*
X46554D01*
X45413Y174406D02*
X46300D01*
X45413Y177106D02*
X45747D01*
X45413Y175306D02*
X45678D01*
X45413Y176206D02*
X45676D01*
X44834Y166306D02*
X45654D01*
X44577Y165406D02*
X44754D01*
X59476Y119506D02*
X62930D01*
X59649Y124906D02*
X62526D01*
X60360Y124006D02*
X62521D01*
X41532Y118606D02*
X62467D01*
X40364Y117706D02*
X62031D01*
X61086Y125806D02*
X61784D01*
X11949Y116806D02*
X61621D01*
X11949Y115906D02*
X61237D01*
X11949Y115006D02*
X60877D01*
X42432Y119506D02*
X57753D01*
X54649Y124906D02*
X57411D01*
X46932Y124006D02*
X56869D01*
X43332Y120406D02*
X56506D01*
X46032Y123106D02*
X56200D01*
X44232Y121306D02*
X56060D01*
X45132Y122206D02*
X55971D01*
X49649Y124906D02*
X52411D01*
X16155Y144706D02*
X20286D01*
X11949Y117706D02*
X19724D01*
X17682Y145606D02*
X19496D01*
X11949Y143806D02*
X19386D01*
X18457Y146506D02*
X18721D01*
X11949Y118606D02*
X18556D01*
X11949Y142906D02*
X18486D01*
X11949Y119506D02*
X17656D01*
X11949Y142006D02*
X17586D01*
X11949Y120406D02*
X16756D01*
X11949Y141106D02*
X16686D01*
X11949Y121306D02*
X15856D01*
X11949Y140206D02*
X15786D01*
X11949Y122206D02*
X14956D01*
X11949Y139306D02*
X14886D01*
X11949Y123106D02*
X14056D01*
X11949Y138406D02*
X13986D01*
X11949Y124006D02*
X13332D01*
X11949Y137506D02*
X13302D01*
X11949Y136606D02*
X13165D01*
X11949Y135706D02*
X13165D01*
X11949Y134806D02*
X13165D01*
X11949Y133906D02*
X13165D01*
X11949Y133006D02*
X13165D01*
X11949Y132106D02*
X13165D01*
X11949Y131206D02*
X13165D01*
X11949Y130306D02*
X13165D01*
X11949Y129406D02*
X13165D01*
X11949Y128506D02*
X13165D01*
X11949Y127606D02*
X13165D01*
X11949Y126706D02*
X13165D01*
X11949Y125806D02*
X13165D01*
X11949Y124906D02*
X13165D01*
X11949Y144706D02*
X13149D01*
X155037Y166306D02*
X155166D01*
X154137Y167206D02*
X154957D01*
X153237Y168106D02*
X154797D01*
X152337Y169006D02*
X154682D01*
X151437Y169906D02*
X154612D01*
X148860Y170806D02*
X154587D01*
X146525Y192406D02*
X154587D01*
X147423Y191506D02*
X154587D01*
X147937Y190606D02*
X154587D01*
X148206Y189706D02*
X154587D01*
X148277Y188806D02*
X154587D01*
X148160Y187906D02*
X154587D01*
X147838Y187006D02*
X154587D01*
X147252Y186106D02*
X154587D01*
X146205Y185206D02*
X154587D01*
X131337Y184306D02*
X154587D01*
X131337Y183406D02*
X154587D01*
X131337Y182506D02*
X154587D01*
X131337Y181606D02*
X154587D01*
X131337Y180706D02*
X154587D01*
X131337Y179806D02*
X154587D01*
X131337Y178906D02*
X154587D01*
X131337Y178006D02*
X154587D01*
X131337Y177106D02*
X154587D01*
X131337Y176206D02*
X154587D01*
X131337Y175306D02*
X154587D01*
X131510Y174406D02*
X154587D01*
X140744Y173506D02*
X154587D01*
X143910Y172606D02*
X154587D01*
X147438Y171706D02*
X154587D01*
X139865Y193306D02*
X153843D01*
X139031Y194206D02*
X152253D01*
X137082Y195106D02*
X150598D01*
X131525Y196006D02*
X148870D01*
X129905Y196906D02*
X147062D01*
X124009Y197806D02*
X145163D01*
X142516Y172606D02*
X143847D01*
X122591Y198706D02*
X143162D01*
X131928Y185206D02*
X141647D01*
X140344Y192406D02*
X141327D01*
X116484Y199606D02*
X141044D01*
X132828Y186106D02*
X140600D01*
X138374Y187006D02*
X140014D01*
X137390Y167206D02*
X139973D01*
X139515Y187906D02*
X139692D01*
X115215Y200506D02*
X138790D01*
X134039Y168106D02*
X138490D01*
X132410Y173506D02*
X136561D01*
X108952Y201406D02*
X136374D01*
X133115Y172606D02*
X136232D01*
X133266Y169006D02*
X136054D01*
X133266Y171706D02*
X135990D01*
X133266Y170806D02*
X135748D01*
X133266Y169906D02*
X135629D01*
X132302Y195106D02*
X135493D01*
X133728Y187006D02*
X134202D01*
X107799Y202306D02*
X133761D01*
X132747Y194206D02*
X133545D01*
X91661Y203206D02*
X130903D01*
X72277Y204106D02*
X127723D01*
X124734Y196906D02*
X127393D01*
X125147Y196006D02*
X125774D01*
X75907Y205006D02*
X124093D01*
X80232Y205906D02*
X119768D01*
X117161Y198706D02*
X119430D01*
X117281Y172606D02*
X118561D01*
X117544Y197806D02*
X118013D01*
X113195Y173506D02*
X117661D01*
X109425Y174406D02*
X116761D01*
X105654Y175306D02*
X115861D01*
X103538Y176206D02*
X114961D01*
X85876Y206806D02*
X114124D01*
X100935Y177106D02*
X114061D01*
X99964Y178006D02*
X113161D01*
X99044Y178906D02*
X112261D01*
X109584Y200506D02*
X111530D01*
X98234Y179806D02*
X111361D01*
X97227Y180706D02*
X110633D01*
X92839Y193306D02*
X110484D01*
X84171Y192406D02*
X110464D01*
X86367Y191506D02*
X110464D01*
X87385Y190606D02*
X110464D01*
X88329Y189706D02*
X110464D01*
X88985Y188806D02*
X110464D01*
X95025Y187906D02*
X110464D01*
X95731Y187006D02*
X110464D01*
X95981Y186106D02*
X110464D01*
X95911Y185206D02*
X110464D01*
X95490Y184306D02*
X110464D01*
X94485Y183406D02*
X110464D01*
X95532Y182506D02*
X110464D01*
X96392Y181606D02*
X110464D01*
X109937Y199606D02*
X110261D01*
X106588Y194206D02*
X109713D01*
X108491Y195106D02*
X109271D01*
X93006Y194206D02*
X104880D01*
X92851Y202306D02*
X103669D01*
X93006Y195106D02*
X102977D01*
X97441Y207706D02*
X102559D01*
X93002Y201406D02*
X102517D01*
X93006Y196006D02*
X102149D01*
X93002Y200506D02*
X101885D01*
X92980Y196906D02*
X101674D01*
X93002Y199606D02*
X101531D01*
X92479Y197806D02*
X101433D01*
X92970Y198706D02*
X101388D01*
X90109Y187906D02*
X91660D01*
X85461Y203206D02*
X87744D01*
X84171Y191506D02*
X84883D01*
X69097Y203206D02*
X81544D01*
X66549Y197806D02*
X80733D01*
X75929Y187906D02*
X80580D01*
X55330Y193306D02*
X80371D01*
X53990Y192406D02*
X80371D01*
X72162Y191506D02*
X80371D01*
X73228Y190606D02*
X80371D01*
X74128Y189706D02*
X80371D01*
X75028Y188806D02*
X80371D01*
X66239Y202306D02*
X80354D01*
X65697Y198706D02*
X80235D01*
X66868Y196906D02*
X80232D01*
X79254Y187006D02*
X80223D01*
X66858Y196006D02*
X80206D01*
X66515Y195106D02*
X80206D01*
X65605Y194206D02*
X80206D01*
X63670Y201406D02*
X80202D01*
X64082Y200506D02*
X80202D01*
X64495Y199606D02*
X80202D01*
X76829Y187006D02*
X77384D01*
X57171Y191506D02*
X70693D01*
X64749Y190606D02*
X69670D01*
X65649Y189706D02*
X68727D01*
X66549Y188806D02*
X68069D01*
X48883Y185206D02*
X64235D01*
X48883Y186106D02*
X63875D01*
X48883Y184306D02*
X63345D01*
X56638Y187006D02*
X62975D01*
X57294Y194206D02*
X62899D01*
X59748Y183406D02*
X62574D01*
X58806Y195106D02*
X61989D01*
X61222Y196006D02*
X61646D01*
X60783Y182506D02*
X61531D01*
X55402Y183406D02*
X57426D01*
X56286Y182506D02*
X56390D01*
X48883Y187006D02*
X54441D01*
X53090Y191506D02*
X53908D01*
X49490Y187906D02*
X53363D01*
X52190Y190606D02*
X53171D01*
X50390Y188806D02*
X52961D01*
X51290Y189706D02*
X52905D01*
X48883Y183406D02*
X52711D01*
X48883Y182506D02*
X51795D01*
X48883Y181606D02*
X50879D01*
X48883Y180706D02*
X50152D01*
X48883Y179806D02*
X50063D01*
X187046Y151906D02*
X188051D01*
X187046Y151006D02*
X188051D01*
X187046Y150106D02*
X188051D01*
X187046Y149206D02*
X188051D01*
X187046Y148306D02*
X188051D01*
X187046Y147406D02*
X188051D01*
X187046Y146506D02*
X188051D01*
X187046Y145606D02*
X188051D01*
X187046Y144706D02*
X188051D01*
X187046Y143806D02*
X188051D01*
X187046Y142906D02*
X188051D01*
X187046Y142006D02*
X188051D01*
X187046Y141106D02*
X188051D01*
X187046Y140206D02*
X188051D01*
X187043Y139306D02*
X188051D01*
X186766Y138406D02*
X188051D01*
X186620Y137506D02*
X188051D01*
X186620Y136606D02*
X188051D01*
X186620Y135706D02*
X188051D01*
X186620Y134806D02*
X188051D01*
X186620Y133906D02*
X188051D01*
X186620Y133006D02*
X188051D01*
X186620Y132106D02*
X188051D01*
X186620Y131206D02*
X188051D01*
X186620Y130306D02*
X188051D01*
X186620Y129406D02*
X188051D01*
X186620Y128506D02*
X188051D01*
X186620Y127606D02*
X188051D01*
X186410Y126706D02*
X188051D01*
X185638Y125806D02*
X188051D01*
X185282Y124906D02*
X188051D01*
X185371Y124006D02*
X188051D01*
X185143Y123106D02*
X188051D01*
X184630Y122206D02*
X188051D01*
X185557Y121306D02*
X188051D01*
X186012Y120406D02*
X188051D01*
X186030Y119506D02*
X188051D01*
X186030Y118606D02*
X188051D01*
X186030Y117706D02*
X188051D01*
X185836Y116806D02*
X188051D01*
X166334Y115906D02*
X188051D01*
X139123Y115006D02*
X188051D01*
X166980Y116806D02*
X173424D01*
X172945Y118606D02*
X173230D01*
X167038Y117706D02*
X173230D01*
X167038Y118606D02*
X169543D01*
X167038Y119506D02*
X168848D01*
X166931Y120406D02*
X168496D01*
X166060Y121306D02*
X167373D01*
X146312Y155506D02*
X162983D01*
X145591Y156406D02*
X161704D01*
X146608Y122206D02*
X161613D01*
X159860Y121306D02*
X161416D01*
X160134Y115906D02*
X161142D01*
X147354Y133906D02*
X160667D01*
X138494Y157306D02*
X160624D01*
X147848Y123106D02*
X160372D01*
X147918Y125806D02*
X160303D01*
X147973Y128506D02*
X160248D01*
X147988Y133006D02*
X160232D01*
X148015Y131206D02*
X160206D01*
X148026Y130306D02*
X160195D01*
X138521Y134806D02*
X160179D01*
X148052Y127606D02*
X160169D01*
X148066Y124906D02*
X160155D01*
X148069Y132106D02*
X160151D01*
X148069Y129406D02*
X160151D01*
X148069Y126706D02*
X160151D01*
X148069Y124006D02*
X160151D01*
X138758Y137506D02*
X160131D01*
X138478Y136606D02*
X160131D01*
X134994Y135706D02*
X160131D01*
X138748Y158206D02*
X159693D01*
X156028Y159106D02*
X158882D01*
X156578Y160006D02*
X158170D01*
X156737Y160906D02*
X157545D01*
X138758Y138406D02*
X157189D01*
X156580Y161806D02*
X156995D01*
X146570Y154606D02*
X156816D01*
X156487Y162706D02*
X156513D01*
X138758Y139306D02*
X156227D01*
X146506Y153706D02*
X156137D01*
X146095Y152806D02*
X156025D01*
X145570Y151906D02*
X156025D01*
X146180Y151006D02*
X156025D01*
X146376Y150106D02*
X156025D01*
X146257Y149206D02*
X156025D01*
X145766Y148306D02*
X156025D01*
X144269Y147406D02*
X156025D01*
X128335Y146506D02*
X156025D01*
X129834Y145606D02*
X156025D01*
X130376Y144706D02*
X156025D01*
X138521Y143806D02*
X156025D01*
X138758Y142906D02*
X156025D01*
X138758Y142006D02*
X156025D01*
X138758Y141106D02*
X156025D01*
X138758Y140206D02*
X156025D01*
X136060Y121306D02*
X155216D01*
X138763Y115906D02*
X154942D01*
X136580Y120406D02*
X154344D01*
X138379Y116806D02*
X154295D01*
X137070Y119506D02*
X154238D01*
X137533Y118606D02*
X154238D01*
X137969Y117706D02*
X154238D01*
X138987Y159106D02*
X152145D01*
X139957Y162706D02*
X151687D01*
X139224Y160006D02*
X151595D01*
X139692Y161806D02*
X151593D01*
X139474Y160906D02*
X151437D01*
X142170Y163606D02*
X150949D01*
X143491Y164506D02*
X150049D01*
X144391Y165406D02*
X149149D01*
X126229Y147406D02*
X143187D01*
X135510Y122206D02*
X140825D01*
X138758Y133906D02*
X140079D01*
X134928Y123106D02*
X139585D01*
X138758Y133006D02*
X139445D01*
X133663Y124906D02*
X139367D01*
X138758Y132106D02*
X139364D01*
X134313Y124006D02*
X139364D01*
X132975Y125806D02*
X136369D01*
X132248Y126706D02*
X135469D01*
X130559Y143806D02*
X131195D01*
X130663Y128506D02*
X130959D01*
X130561Y142906D02*
X130958D01*
X130561Y142006D02*
X130958D01*
X130561Y141106D02*
X130958D01*
X130561Y140206D02*
X130958D01*
X127903Y131206D02*
X130958D01*
X128880Y130306D02*
X130958D01*
X129798Y129406D02*
X130958D01*
X126860Y132106D02*
X130391D01*
X125743Y133006D02*
X129491D01*
X124544Y133906D02*
X128591D01*
X123248Y134806D02*
X127691D01*
X125329Y146506D02*
X126988D01*
X121839Y135706D02*
X126791D01*
X120293Y136606D02*
X125891D01*
X124429Y145606D02*
X125489D01*
X118576Y137506D02*
X125139D01*
X123529Y144706D02*
X124947D01*
X116636Y138406D02*
X124810D01*
X122629Y143806D02*
X124764D01*
X121729Y142906D02*
X124761D01*
X120829Y142006D02*
X124761D01*
X119913Y141106D02*
X124761D01*
X111637Y140206D02*
X124761D01*
X114382Y139306D02*
X124761D01*
X143717Y122175D02*
Y123575D01*
X148069Y124382D02*
X146669D01*
X139364D02*
X140764D01*
X89702Y203227D02*
Y201827D01*
X93002Y200327D02*
X91602D01*
X130958Y140240D02*
X132358D01*
X134858Y135840D02*
Y137240D01*
X138758Y140240D02*
X137358D01*
X134858Y144640D02*
Y143240D01*
X157538Y115631D02*
Y117031D01*
Y121431D02*
Y120031D01*
X154238Y118531D02*
X155638D01*
X148069Y132059D02*
X146669D01*
X143717Y134266D02*
Y132866D01*
X139364Y132059D02*
X140764D01*
X138442Y168119D02*
X138806Y169471D01*
X139948Y173720D02*
X139585Y172368D01*
X136008Y171776D02*
X137360Y171412D01*
X116066Y160657D02*
X116430Y162009D01*
X112227Y163749D02*
X113579Y163386D01*
X68638Y144754D02*
X69628Y145744D01*
X88424Y189610D02*
X87435Y188620D01*
X96784Y153112D02*
X95794Y154102D01*
X110498Y146561D02*
X109098D01*
X100021D02*
X101421D01*
X51726Y182438D02*
X52707Y181439D01*
X56112Y182682D02*
X55114Y181701D01*
X55791Y178301D02*
X54810Y179300D01*
X75593Y136793D02*
X74603Y137782D01*
X71490Y140892D02*
X72480Y139902D01*
X71209Y136507D02*
X72199Y137498D01*
X89706Y192419D02*
Y193819D01*
X93006Y195319D02*
X91606D01*
X56103Y177076D02*
X57093Y176086D01*
X9449Y111811D02*
Y155118D01*
X27165*
G03X42913Y170866I0J15748*
G01Y194291*
X157068Y194302D02*
G03X42932I-57068J-94230D01*
G01X157087Y194291D02*
Y170866D01*
G03X172835Y155118I15748J0*
G01X190551*
Y111811*
X137598*
X137604Y111795D02*
G03X99995Y139370I-37678J-11952D01*
G01X100005D02*
G03X62396Y111795I69J-39527D01*
G01X62402Y111811D02*
X9449D01*
G54D20*
X134921Y129941D02*
Y129500D01*
X143717*
X134858Y131240D02*
X134921Y131177D01*
Y129941*
X143717Y124382D02*
X153886D01*
Y127996*
X154110Y128220*
X164504Y129500D02*
X169055D01*
G54D21*
X77923Y143229D02*
X81000Y140152D01*
X86000*
X89000Y142961*
X118390*
X125429Y150000*
X143728*
X107598Y152761D02*
X125102D01*
X126679Y154339*
X143933*
X145183Y169309D02*
X148659Y168374D01*
X149574*
X154087Y163862*
Y160909*
X83502Y200327D02*
X83506D01*
Y195319*
X89702Y200327D02*
X89744D01*
Y203783*
X89706Y195319D02*
Y200651D01*
X89673Y203783D02*
X89744D01*
G54D22*
X127661Y143685D02*
Y138937D01*
X134858Y131740*
Y131240*
G54D23*
X102921Y152761D02*
Y151661D01*
X107598*
Y152761*
X141606Y165732D02*
X145183Y169309D01*
X145183*
X53759Y180369D02*
Y179606D01*
G54D24*
X14000Y120000D03*
X27000Y115500D03*
X19000D03*
X35000D03*
X43000D03*
X51000D03*
X58614Y122012D03*
X59000Y115500D03*
X146000Y119000D03*
X153500Y115500D03*
X171244Y120638D03*
X171000Y115500D03*
X64150Y127000D03*
X158000Y132000D03*
X182728Y124197D03*
X187000Y126000D03*
X13000Y140000D03*
X41094Y141091D03*
X69000Y139000D03*
X144000Y138000D03*
X151000Y133000D03*
X43339Y146937D03*
X45591Y143862D03*
X50157Y146969D03*
X53453Y148157D03*
X56654Y148890D03*
X96000Y148000D03*
X116000D03*
X127661Y143685D03*
X143728Y150000D03*
X172035Y150098D03*
X44800Y159300D03*
X51500Y156500D03*
X105000Y162000D03*
X111693Y162110D03*
X124000Y159000D03*
X143933Y154339D03*
X154087Y160909D03*
X158700Y156200D03*
X56461Y168783D03*
X51600Y172100D03*
X66197Y169811D03*
X71354Y172693D03*
X83441Y169594D03*
X86642Y169220D03*
X91547Y170693D03*
X58587Y181024D03*
X68795Y174661D03*
X72626Y177787D03*
X84445Y177500D03*
X82327Y175091D03*
X140000Y176000D03*
X148000Y178000D03*
X55539Y189417D03*
X50945Y183028D03*
X61000Y186000D03*
X93343Y185858D03*
X106000Y189000D03*
X64252Y196484D03*
X74000Y202000D03*
Y194000D03*
X89673Y203783D03*
X103000Y206000D03*
G54D25*
X53530Y124726D02*
Y126126D01*
X14652Y144450D02*
Y145850D01*
X142869Y184692D02*
X143209Y186050D01*
X148148Y187857D02*
X146790Y188197D01*
X144983Y193137D02*
X144643Y191779D01*
G74*
X0Y0D02*
M02*
