*
*
G04 PADS 9.3.1 Build Number: 456998 generated Gerber (RS-274-X) file*
G04 PC Version=2.1*
*
%IN "avago_ssi_rev1.pcb"*%
*
%MOIN*%
*
%FSLAX35Y35*%
*
*
*
*
G04 PC Standard Apertures*
*
*
G04 Thermal Relief Aperture macro.*
%AMTER*
1,1,$1,0,0*
1,0,$1-$2,0,0*
21,0,$3,$4,0,0,45*
21,0,$3,$4,0,0,135*
%
*
*
G04 Annular Aperture macro.*
%AMANN*
1,1,$1,0,0*
1,0,$2,0,0*
%
*
*
G04 Odd Aperture macro.*
%AMODD*
1,1,$1,0,0*
1,0,$1-0.005,0,0*
%
*
*
G04 PC Custom Aperture Macros*
*
*
*
*
*
*
G04 PC Aperture Table*
*
%ADD010C,0.001*%
%ADD020C,0.014*%
%ADD023C,0.016*%
%ADD028C,0.05131*%
%ADD029C,0.012*%
%ADD030C,0.06706*%
%ADD031C,0.01587*%
%ADD032C,0.07099*%
%ADD033C,0.01194*%
%ADD034C,0.01627*%
*
*
*
*
G04 PC Circuitry*
G04 Layer Name avago_ssi_rev1.pcb - circuitry*
%LPD*%
*
*
G04 PC Custom Flashes*
G04 Layer Name avago_ssi_rev1.pcb - flashes*
%LPD*%
*
*
G04 PC Circuitry*
G04 Layer Name avago_ssi_rev1.pcb - circuitry*
%LPD*%
*
G54D10*
G54D20*
G01X132658Y133940D02*
X137058D01*
Y128540*
X132658*
Y133940*
Y129400D02*
X137058D01*
X132658Y130800D02*
X137058D01*
X132658Y132200D02*
X137058D01*
X132658Y133600D02*
X137058D01*
X133600Y128540D02*
Y133940D01*
X135000Y128540D02*
Y133940D01*
X136400Y128540D02*
Y133940D01*
X132658Y142940D02*
X137058D01*
Y137540*
X132658*
Y142940*
Y137800D02*
X137058D01*
X132658Y139200D02*
X137058D01*
X132658Y140600D02*
X137058D01*
X132658Y142000D02*
X137058D01*
X133600Y137540D02*
Y142940D01*
X135000Y137540D02*
Y142940D01*
X136400Y137540D02*
Y142940D01*
G54D23*
X161733Y141124D02*
Y146324D01*
X166933*
Y141124*
X161733*
Y141600D02*
X166933D01*
X161733Y143200D02*
X166933D01*
X161733Y144800D02*
X166933D01*
X162400Y141124D02*
Y146324D01*
X164000Y141124D02*
Y146324D01*
X165600Y141124D02*
Y146324D01*
X148233Y141124D02*
Y146324D01*
X153433*
Y141124*
X148233*
Y141600D02*
X153433D01*
X148233Y143200D02*
X153433D01*
X148233Y144800D02*
X153433D01*
X149600Y141124D02*
Y146324D01*
X151200Y141124D02*
Y146324D01*
X152800Y141124D02*
Y146324D01*
G54D28*
X58530Y133291D03*
Y128291D03*
X53530D03*
Y133291D03*
X48530Y128291D03*
Y133291D03*
X43530Y128291D03*
Y133291D03*
X38530Y128291D03*
Y133291D03*
X33530Y128291D03*
Y133291D03*
X28530Y128291D03*
Y133291D03*
X23530Y128291D03*
Y133291D03*
G54D29*
X77641Y141107D02*
X75802Y142945D01*
X78205Y145350*
X80044Y143513*
X77641Y141107*
X76748Y142000D02*
X78533D01*
X76057Y143200D02*
X79732D01*
X77256Y144400D02*
X79156D01*
X75802Y142945D02*
X75802D01*
X77002Y141746D02*
Y144146D01*
X78202Y141668D02*
Y145347D01*
X79402Y142870D02*
Y144154D01*
X73260Y136721D02*
X71420Y138558D01*
X73823Y140964*
X75663Y139126*
X73260Y136721*
X72780Y137200D02*
X73739D01*
X71579Y138400D02*
X74937D01*
X72461Y139600D02*
X75188D01*
X73660Y140800D02*
X73987D01*
X71420Y138558D02*
X71420D01*
X72620Y137359D02*
Y139759D01*
X73820Y137282D02*
Y140961D01*
X75020Y138483D02*
Y139768D01*
X85206Y196619D02*
Y194019D01*
X81806*
Y196619*
X85206*
X81806Y194800D02*
X85206D01*
X81806Y196000D02*
X85206D01*
X81806Y194019D02*
Y196619D01*
X83006Y194019D02*
Y196619D01*
X84206Y194019D02*
Y196619D01*
X91406D02*
Y194019D01*
X88006*
Y196619*
X91406*
X88006Y194800D02*
X91406D01*
X88006Y196000D02*
X91406D01*
X88006Y194019D02*
Y196619D01*
X89206Y194019D02*
Y196619D01*
X90406Y194019D02*
Y196619D01*
X49638Y178143D02*
X51460Y176288D01*
X49034Y173905*
X47212Y175760*
X49638Y178143*
X48549Y174400D02*
X49538D01*
X47370Y175600D02*
X50759D01*
X48271Y176800D02*
X50957D01*
X49492Y178000D02*
X49778D01*
X47212Y175760D02*
X47212D01*
X48412Y174539D02*
Y176939D01*
X49612Y174473D02*
Y178118D01*
X50812Y175652D02*
Y176947D01*
X54060Y182488D02*
X55882Y180634D01*
X53457Y178251*
X51635Y180105*
X54060Y182488*
X52524Y179200D02*
X54423D01*
X51935Y180400D02*
X55644D01*
X53156Y181600D02*
X54933D01*
X51635Y180105D02*
X51635D01*
X52835Y178884D02*
Y181284D01*
X54035Y178818D02*
Y182463D01*
X55235Y179997D02*
Y181293D01*
X85202Y201627D02*
Y199027D01*
X81802*
Y201627*
X85202*
X81802Y199600D02*
X85202D01*
X81802Y200800D02*
X85202D01*
X81802Y199027D02*
Y201627D01*
X83002Y199027D02*
Y201627D01*
X84202Y199027D02*
Y201627D01*
X91402D02*
Y199027D01*
X88002*
Y201627*
X91402*
X88002Y199600D02*
X91402D01*
X88002Y200800D02*
X91402D01*
X88002Y199027D02*
Y201627D01*
X89202Y199027D02*
Y201627D01*
X90402Y199027D02*
Y201627D01*
X104221Y151061D02*
X101621D01*
Y154461*
X104221*
Y151061*
X101621Y151600D02*
X104221D01*
X101621Y152800D02*
X104221D01*
X101621Y154000D02*
X104221D01*
X102400Y151061D02*
Y154461D01*
X103600Y151061D02*
Y154461D01*
X104221Y144861D02*
X101621D01*
Y148261*
X104221*
Y144861*
X101621Y145600D02*
X104221D01*
X101621Y146800D02*
X104221D01*
X101621Y148000D02*
X104221D01*
X102400Y144861D02*
Y148261D01*
X103600Y144861D02*
Y148261D01*
X108898Y151061D02*
X106298D01*
Y154461*
X108898*
Y151061*
X106298Y151600D02*
X108898D01*
X106298Y152800D02*
X108898D01*
X106298Y154000D02*
X108898D01*
X107200Y151061D02*
Y154461D01*
X108400Y151061D02*
Y154461D01*
X108898Y144861D02*
X106298D01*
Y148261*
X108898*
Y144861*
X106298Y145600D02*
X108898D01*
X106298Y146800D02*
X108898D01*
X106298Y148000D02*
X108898D01*
X107200Y144861D02*
Y148261D01*
X108400Y144861D02*
Y148261D01*
X143203Y168495D02*
X143879Y171006D01*
X147162Y170123*
X146487Y167612*
X143203Y168495*
X143558Y168400D02*
X146699D01*
X143500Y169600D02*
X147021D01*
X143823Y170800D02*
X144645D01*
X144400Y168173D02*
Y170866D01*
X145600Y167851D02*
Y170543D01*
X146800Y168777D02*
Y170221D01*
X137216Y170105D02*
X137891Y172616D01*
X141175Y171733*
X140499Y169222*
X137216Y170105*
X139095Y169600D02*
X140601D01*
X137403Y170800D02*
X140924D01*
X137726Y172000D02*
X140182D01*
X138400Y169787D02*
Y172479D01*
X139600Y169464D02*
Y172156D01*
X140800Y170340D02*
Y171834D01*
X162038Y117231D02*
Y119831D01*
X165438*
Y117231*
X162038*
Y118000D02*
X165438D01*
X162038Y119200D02*
X165438D01*
X162400Y117231D02*
Y119831D01*
X163600Y117231D02*
Y119831D01*
X164800Y117231D02*
Y119831D01*
X155838Y117231D02*
Y119831D01*
X159238*
Y117231*
X155838*
Y118000D02*
X159238D01*
X155838Y119200D02*
X159238D01*
X156400Y117231D02*
Y119831D01*
X157600Y117231D02*
Y119831D01*
X158800Y117231D02*
Y119831D01*
X163254Y136090D02*
Y138690D01*
X166654*
Y136090*
X163254*
Y137200D02*
X166654D01*
X163254Y138400D02*
X166654D01*
X163600Y136090D02*
Y138690D01*
X164800Y136090D02*
Y138690D01*
X166000Y136090D02*
Y138690D01*
X157054Y136090D02*
Y138690D01*
X160454*
Y136090*
X157054*
Y137200D02*
X160454D01*
X157054Y138400D02*
X160454D01*
X157600Y136090D02*
Y138690D01*
X158800Y136090D02*
Y138690D01*
X160000Y136090D02*
Y138690D01*
X54442Y194659D02*
X53359Y197022D01*
X56450Y198439*
X57533Y196075*
X54442Y194659*
X54377Y194800D02*
X54750D01*
X53827Y196000D02*
X57369D01*
X53746Y197200D02*
X57017D01*
X56365Y198400D02*
X56467D01*
X53359Y197022D02*
X53359D01*
X54559Y194712D02*
Y197572D01*
X55759Y195262D02*
Y198122D01*
X56959Y195812D02*
Y197328D01*
X60078Y197242D02*
X58995Y199605D01*
X62086Y201022*
X63169Y198658*
X60078Y197242*
X59547Y198400D02*
X62606D01*
X58997Y199600D02*
X62737D01*
X61603Y200800D02*
X62187D01*
X58995Y199605D02*
X58995D01*
X60195Y197295D02*
Y200155D01*
X61395Y197845D02*
Y200705D01*
X62595Y198395D02*
Y199911D01*
X174830Y117570D02*
Y120170D01*
X178230*
Y117570*
X174830*
Y118000D02*
X178230D01*
X174830Y119200D02*
X178230D01*
X175600Y117570D02*
Y120170D01*
X176800Y117570D02*
Y120170D01*
X178000Y117570D02*
Y120170D01*
X181030Y117570D02*
Y120170D01*
X184430*
Y117570*
X181030*
Y118000D02*
X184430D01*
X181030Y119200D02*
X184430D01*
X181600Y117570D02*
Y120170D01*
X182800Y117570D02*
Y120170D01*
X184000Y117570D02*
Y120170D01*
G54D30*
X105734Y198474D03*
X113373Y196562D03*
X121011Y194650D03*
X128649Y192738D03*
X136288Y190826D03*
X143926Y188914D03*
G54D31*
X156768Y124972D02*
X151453D01*
Y131469*
X156768*
Y124972*
X151453Y125398D02*
X156768D01*
X151453Y126986D02*
X156768D01*
X151453Y128573D02*
X156768D01*
X151453Y130161D02*
X156768D01*
X152384Y124972D02*
Y131469D01*
X153972Y124972D02*
Y131469D01*
X155559Y124972D02*
Y131469D01*
X85914Y144774D02*
X85635Y144495D01*
X81180Y148948*
X81458Y149227*
X85914Y144774*
X84095Y146035D02*
X84652D01*
X82507Y147622D02*
X83064D01*
X81441Y149209D02*
X81476D01*
X81180Y148948D02*
X81180D01*
X82767Y147362D02*
Y147918D01*
X84355Y145775D02*
Y146332D01*
X87305Y146166D02*
X87027Y145888D01*
X82572Y150341*
X82850Y150619*
X87305Y146166*
X86880Y146035D02*
X87174D01*
X85292Y147622D02*
X85848D01*
X83703Y149209D02*
X84260D01*
X82572Y150341D02*
X82572D01*
X84159Y148754D02*
Y149311D01*
X85746Y147167D02*
Y147724D01*
X88697Y147558D02*
X88418Y147280D01*
X83963Y151733*
X84242Y152011*
X88697Y147558*
X88076Y147622D02*
X88633D01*
X86488Y149209D02*
X87045D01*
X84900Y150797D02*
X85457D01*
X83963Y151733D02*
X83963D01*
X85551Y150146D02*
Y150703D01*
X87138Y148560D02*
Y149116D01*
X90088Y148950D02*
X89810Y148672D01*
X85355Y153125*
X85633Y153404*
X90088Y148950*
X89272Y149209D02*
X89829D01*
X87684Y150797D02*
X88241D01*
X86096Y152384D02*
X86653D01*
X85355Y153125D02*
X85355D01*
X86942Y151539D02*
Y152095D01*
X88530Y149952D02*
Y150509D01*
X91480Y150343D02*
X91202Y150064D01*
X86746Y154518*
X87025Y154796*
X91480Y150343*
X90469Y150797D02*
X91026D01*
X88881Y152384D02*
X89438D01*
X87293Y153972D02*
X87849D01*
X86746Y154518D02*
X86746D01*
X88334Y152931D02*
Y153487D01*
X89921Y151344D02*
Y151901D01*
X92872Y151735D02*
X92593Y151457D01*
X88138Y155910*
X88416Y156188*
X92872Y151735*
X91665Y152384D02*
X92222D01*
X90077Y153972D02*
X90634D01*
X88489Y155559D02*
X89046D01*
X88138Y155910D02*
X88138D01*
X89726Y154323D02*
Y154880D01*
X91313Y152736D02*
Y153293D01*
X94263Y153127D02*
X93985Y152849D01*
X89530Y157302*
X89808Y157580*
X94263Y153127*
X92862Y153972D02*
X93419D01*
X91273Y155559D02*
X91830D01*
X89685Y157146D02*
X90242D01*
X89530Y157302D02*
X89530D01*
X91117Y155715D02*
Y156272D01*
X92705Y154129D02*
Y154685D01*
X95655Y154520D02*
X95377Y154241D01*
X90921Y158694*
X91200Y158973*
X95655Y154520*
X94058Y155559D02*
X94615D01*
X92470Y157146D02*
X93027D01*
X90961Y158734D02*
X91439D01*
X90921Y158694D02*
X90921D01*
X92509Y157108D02*
Y157664D01*
X94096Y155521D02*
Y156078D01*
X97047Y155912D02*
X96768Y155633D01*
X92313Y160087*
X92591Y160365*
X97047Y155912*
X95254Y157146D02*
X95811D01*
X93666Y158734D02*
X94223D01*
X92548Y160321D02*
X92635D01*
X92313Y160087D02*
X92313D01*
X93900Y158500D02*
Y159057D01*
X95488Y156913D02*
Y157470D01*
X98438Y157304D02*
X98160Y157026D01*
X93705Y161479*
X93983Y161757*
X98438Y157304*
X98039Y157146D02*
X98281D01*
X96451Y158734D02*
X97008D01*
X94863Y160321D02*
X95420D01*
X93705Y161479D02*
X93705D01*
X95292Y159892D02*
Y160449D01*
X96879Y158305D02*
Y158862D01*
X99830Y158696D02*
X99551Y158418D01*
X95096Y162871*
X95375Y163150*
X99830Y158696*
X99235Y158734D02*
X99792D01*
X97647Y160321D02*
X98204D01*
X96059Y161909D02*
X96616D01*
X95096Y162871D02*
X95096D01*
X96684Y161284D02*
Y161841D01*
X98271Y159698D02*
Y160254D01*
X101221Y160089D02*
X100943Y159810D01*
X96488Y164263*
X96766Y164542*
X101221Y160089*
X100432Y160321D02*
X100989D01*
X98844Y161909D02*
X99400D01*
X97255Y163496D02*
X97812D01*
X96488Y164263D02*
X96488D01*
X98075Y162677D02*
Y163233D01*
X99663Y161090D02*
Y161647D01*
X100940Y174565D02*
X101218Y174286D01*
X96765Y169831*
X96487Y170109*
X100940Y174565*
X96750Y169846D02*
X96780D01*
X97810Y171433D02*
X98366D01*
X99396Y173020D02*
X99953D01*
X96487Y170109D02*
X96487D01*
X98074Y171141D02*
Y171698D01*
X99661Y172729D02*
Y173286D01*
X99547Y175956D02*
X99826Y175678D01*
X95373Y171223*
X95094Y171501*
X99547Y175956*
X95162Y171433D02*
X95583D01*
X96613Y173020D02*
X97170D01*
X98200Y174608D02*
X98756D01*
X95094Y171501D02*
X95094D01*
X96682Y172532D02*
Y173089D01*
X98269Y174120D02*
Y174677D01*
X98155Y177348D02*
X98434Y177070D01*
X93980Y172614*
X93702Y172893*
X98155Y177348*
X93830Y173020D02*
X94386D01*
X95416Y174608D02*
X95973D01*
X97003Y176195D02*
X97560D01*
X93702Y172893D02*
X93702D01*
X95289Y173924D02*
Y174481D01*
X96877Y175512D02*
Y176069D01*
X96763Y178740D02*
X97041Y178461D01*
X92588Y174006*
X92310Y174284*
X96763Y178740*
X92633Y174608D02*
X93190D01*
X94220Y176195D02*
X94776D01*
X95807Y177783D02*
X96363D01*
X92310Y174284D02*
X92310D01*
X93897Y175316D02*
Y175872D01*
X95485Y176904D02*
Y177461D01*
X95371Y180131D02*
X95649Y179853D01*
X91196Y175398*
X90918Y175676*
X95371Y180131*
X91437Y176195D02*
X91993D01*
X93023Y177783D02*
X93580D01*
X94610Y179370D02*
X95167D01*
X90918Y175676D02*
X90918D01*
X92505Y176707D02*
Y177264D01*
X94092Y178295D02*
Y178852D01*
X93978Y181523D02*
X94257Y181245D01*
X89804Y176789*
X89525Y177068*
X93978Y181523*
X90240Y177783D02*
X90797D01*
X91827Y179370D02*
X92383D01*
X93413Y180957D02*
X93970D01*
X89525Y177068D02*
X89525D01*
X91113Y178099D02*
Y178656D01*
X92700Y179687D02*
Y180244D01*
X92586Y182914D02*
X92865Y182636D01*
X88411Y178181*
X88133Y178459*
X92586Y182914*
X89043Y179370D02*
X89600D01*
X90630Y180957D02*
X91187D01*
X92217Y182545D02*
X92773D01*
X88133Y178459D02*
X88133D01*
X89720Y179490D02*
Y180047D01*
X91308Y181079D02*
Y181635D01*
X91194Y184306D02*
X91472Y184028D01*
X87019Y179573*
X86741Y179851*
X91194Y184306*
X87847Y180957D02*
X88404D01*
X89434Y182545D02*
X89990D01*
X91020Y184132D02*
X91368D01*
X86741Y179851D02*
X86741D01*
X88328Y180882D02*
Y181439D01*
X89916Y182470D02*
Y183027D01*
X89802Y185698D02*
X90080Y185419D01*
X85627Y180964*
X85348Y181242*
X89802Y185698*
X86650Y182545D02*
X87207D01*
X88237Y184132D02*
X88794D01*
X85348Y181242D02*
X85348D01*
X86936Y182274D02*
Y182831D01*
X88523Y183862D02*
Y184419D01*
X88409Y187089D02*
X88688Y186811D01*
X84235Y182356*
X83956Y182634*
X88409Y187089*
X84045Y182545D02*
X84424D01*
X85454Y184132D02*
X86010D01*
X87040Y185720D02*
X87597D01*
X83956Y182634D02*
X83956D01*
X85544Y183665D02*
Y184222D01*
X87131Y185253D02*
Y185810D01*
X87017Y188481D02*
X87296Y188203D01*
X82842Y183747*
X82564Y184026*
X87017Y188481*
X82670Y184132D02*
X83227D01*
X84257Y185720D02*
X84814D01*
X85844Y187307D02*
X86400D01*
X82564Y184026D02*
X82564D01*
X84151Y185057D02*
Y185614D01*
X85739Y186645D02*
Y187202D01*
X85625Y189873D02*
X85903Y189594D01*
X81450Y185139*
X81172Y185417*
X85625Y189873*
X81474Y185720D02*
X82031D01*
X83061Y187307D02*
X83617D01*
X84647Y188894D02*
X85204D01*
X81172Y185417D02*
X81172D01*
X82759Y186449D02*
Y187005D01*
X84347Y188037D02*
Y188594D01*
X75882Y185416D02*
X75604Y185138D01*
X71149Y189591*
X71427Y189869*
X75882Y185416*
X75022Y185720D02*
X75579D01*
X73434Y187307D02*
X73991D01*
X71846Y188894D02*
X72402D01*
X71149Y189591D02*
X71149D01*
X72736Y188004D02*
Y188561D01*
X74324Y186418D02*
Y186974D01*
X74491Y184024D02*
X74212Y183745D01*
X69757Y188199*
X70035Y188477*
X74491Y184024*
X73825Y184132D02*
X74382D01*
X72237Y185720D02*
X72794D01*
X70649Y187307D02*
X71206D01*
X69757Y188199D02*
X69757D01*
X71345Y186612D02*
Y187169D01*
X72932Y185025D02*
Y185582D01*
X73099Y182632D02*
X72821Y182353D01*
X68366Y186806*
X68644Y187085*
X73099Y182632*
X72629Y182545D02*
X73012D01*
X71041Y184132D02*
X71598D01*
X69453Y185720D02*
X70010D01*
X68366Y186806D02*
X68366D01*
X69953Y185220D02*
Y185776D01*
X71540Y183633D02*
Y184190D01*
X71707Y181239D02*
X71429Y180961D01*
X66974Y185414*
X67252Y185693*
X71707Y181239*
X69844Y182545D02*
X70401D01*
X68256Y184132D02*
X68813D01*
X66974Y185414D02*
X66974D01*
X68561Y183827D02*
Y184384D01*
X70149Y182241D02*
Y182797D01*
X70316Y179847D02*
X70037Y179569D01*
X65582Y184022*
X65861Y184300*
X70316Y179847*
X68648Y180957D02*
X69205D01*
X67060Y182545D02*
X67617D01*
X65693Y184132D02*
X66029D01*
X65582Y184022D02*
X65582D01*
X67170Y182435D02*
Y182992D01*
X68757Y180849D02*
Y181405D01*
X68924Y178455D02*
X68646Y178176D01*
X64191Y182630*
X64469Y182908*
X68924Y178455*
X67452Y179370D02*
X68009D01*
X65864Y180957D02*
X66420D01*
X64275Y182545D02*
X64832D01*
X64191Y182630D02*
X64191D01*
X65778Y181043D02*
Y181600D01*
X67365Y179456D02*
Y180013D01*
X67533Y177063D02*
X67254Y176784D01*
X62799Y181237*
X63077Y181516*
X67533Y177063*
X66255Y177783D02*
X66812D01*
X64667Y179370D02*
X65224D01*
X63079Y180957D02*
X63636D01*
X62799Y181237D02*
X62799D01*
X64386Y179651D02*
Y180207D01*
X65974Y178064D02*
Y178621D01*
X66141Y175670D02*
X65863Y175392D01*
X61407Y179845*
X61686Y180124*
X66141Y175670*
X65059Y176195D02*
X65616D01*
X63471Y177783D02*
X64028D01*
X61883Y179370D02*
X62440D01*
X61407Y179845D02*
X61407D01*
X62995Y178258D02*
Y178815D01*
X64582Y176672D02*
Y177228D01*
X64749Y174278D02*
X64471Y174000D01*
X60016Y178453*
X60294Y178731*
X64749Y174278*
X63862Y174608D02*
X64419D01*
X62274Y176195D02*
X62831D01*
X60686Y177783D02*
X61243D01*
X60016Y178453D02*
X60016D01*
X61603Y176866D02*
Y177423D01*
X63191Y175279D02*
Y175836D01*
X63358Y172886D02*
X63079Y172607D01*
X58624Y177061*
X58902Y177339*
X63358Y172886*
X62666Y173020D02*
X63223D01*
X61078Y174608D02*
X61635D01*
X59490Y176195D02*
X60047D01*
X58624Y177061D02*
X58624D01*
X60212Y175474D02*
Y176031D01*
X61799Y173887D02*
Y174444D01*
X61966Y171494D02*
X61688Y171215D01*
X57233Y175668*
X57511Y175947*
X61966Y171494*
X61470Y171433D02*
X61906D01*
X59882Y173020D02*
X60438D01*
X58293Y174608D02*
X58850D01*
X57233Y175668D02*
X57233D01*
X58820Y174082D02*
Y174638D01*
X60407Y172495D02*
Y173052D01*
X60574Y170101D02*
X60296Y169823D01*
X55841Y174276*
X56119Y174555*
X60574Y170101*
X60273Y169846D02*
X60319D01*
X58685Y171433D02*
X59242D01*
X57097Y173020D02*
X57654D01*
X55841Y174276D02*
X55841D01*
X57428Y172689D02*
Y173246D01*
X59016Y171103D02*
Y171659D01*
X60297Y164533D02*
X60576Y164255D01*
X56123Y159800*
X55844Y160078*
X60297Y164533*
X56087Y160321D02*
X56644D01*
X57674Y161909D02*
X58230D01*
X59260Y163496D02*
X59817D01*
X55844Y160078D02*
X55844D01*
X57432Y161109D02*
Y161666D01*
X59019Y162698D02*
Y163255D01*
X61690Y163142D02*
X61968Y162864D01*
X57515Y158408*
X57236Y158687*
X61690Y163142*
X57284Y158734D02*
X57840D01*
X58870Y160321D02*
X59427D01*
X60457Y161909D02*
X61014D01*
X57236Y158687D02*
X57236D01*
X58824Y159718D02*
Y160275D01*
X60411Y161306D02*
Y161863D01*
X63082Y161750D02*
X63360Y161472D01*
X58907Y157017*
X58629Y157295*
X63082Y161750*
X58777Y157146D02*
X59037D01*
X60067Y158734D02*
X60623D01*
X61653Y160321D02*
X62210D01*
X58629Y157295D02*
X58629D01*
X60216Y158326D02*
Y158883D01*
X61803Y159914D02*
Y160471D01*
X64474Y160359D02*
X64753Y160080D01*
X60299Y155625*
X60021Y155903*
X64474Y160359*
X61263Y157146D02*
X61820D01*
X62850Y158734D02*
X63407D01*
X64437Y160321D02*
X64511D01*
X60021Y155903D02*
X60021D01*
X61608Y156935D02*
Y157492D01*
X63196Y158523D02*
Y159080D01*
X65866Y158967D02*
X66145Y158689D01*
X61692Y154233*
X61413Y154512*
X65866Y158967*
X62460Y155559D02*
X63017D01*
X64047Y157146D02*
X64603D01*
X65633Y158734D02*
X66100D01*
X61413Y154512D02*
X61413D01*
X63001Y155543D02*
Y156100D01*
X64588Y157131D02*
Y157688D01*
X67259Y157575D02*
X67537Y157297D01*
X63084Y152842*
X62805Y153120*
X67259Y157575*
X63657Y153972D02*
X64213D01*
X65243Y155559D02*
X65800D01*
X66830Y157146D02*
X67387D01*
X62805Y153120D02*
X62805D01*
X64393Y154151D02*
Y154708D01*
X65980Y155739D02*
Y156296D01*
X68651Y156184D02*
X68929Y155905D01*
X64476Y151450*
X64198Y151729*
X68651Y156184*
X64853Y152384D02*
X65410D01*
X66440Y153972D02*
X66996D01*
X68026Y155559D02*
X68583D01*
X64198Y151729D02*
X64198D01*
X65785Y152760D02*
Y153317D01*
X67372Y154348D02*
Y154905D01*
X70043Y154792D02*
X70322Y154514D01*
X65868Y150059*
X65590Y150337*
X70043Y154792*
X66050Y150797D02*
X66606D01*
X67636Y152384D02*
X68193D01*
X69223Y153972D02*
X69780D01*
X65590Y150337D02*
X65590D01*
X67177Y151368D02*
Y151925D01*
X68765Y152956D02*
Y153513D01*
X71435Y153400D02*
X71714Y153122D01*
X67261Y148667*
X66982Y148945*
X71435Y153400*
X67246Y149209D02*
X67803D01*
X68833Y150797D02*
X69390D01*
X70420Y152384D02*
X70976D01*
X66982Y148945D02*
X66982D01*
X68570Y149976D02*
Y150533D01*
X70157Y151565D02*
Y152121D01*
X72828Y152009D02*
X73106Y151731D01*
X68653Y147275*
X68374Y147554*
X72828Y152009*
X68443Y147622D02*
X68999D01*
X70029Y149209D02*
X70586D01*
X71616Y150797D02*
X72173D01*
X68374Y147554D02*
X68374D01*
X69962Y148585D02*
Y149142D01*
X71549Y150173D02*
Y150730D01*
X74220Y150617D02*
X74498Y150339D01*
X70045Y145884*
X69767Y146162*
X74220Y150617*
X69894Y146035D02*
X70196D01*
X71226Y147622D02*
X71783D01*
X72813Y149209D02*
X73369D01*
X69767Y146162D02*
X69767D01*
X71354Y147193D02*
Y147750D01*
X72941Y148781D02*
Y149338D01*
X75612Y149226D02*
X75891Y148947D01*
X71437Y144492*
X71159Y144770*
X75612Y149226*
X72423Y146035D02*
X72979D01*
X74009Y147622D02*
X74566D01*
X75596Y149209D02*
X75628D01*
X71159Y144770D02*
X71159D01*
X72746Y145802D02*
Y146358D01*
X74334Y147390D02*
Y147947D01*
G54D32*
X30400Y149000D03*
X22526D03*
X14652D03*
G54D33*
X115709Y170559D02*
X115913Y171320D01*
X121541Y169808*
X121336Y169048*
X115709Y170559*
X120641Y169235D02*
X121387D01*
X116196Y170428D02*
X119232D01*
X116712Y170290D02*
Y171105D01*
X117906Y169969D02*
Y170785D01*
X119099Y169649D02*
Y170464D01*
X120293Y169328D02*
Y170143D01*
X121487Y169607D02*
Y169823D01*
X115198Y168658D02*
X115403Y169418D01*
X121030Y167907*
X120826Y167147*
X115198Y168658*
X117496Y168041D02*
X120532D01*
X115353Y169235D02*
X116087D01*
X115518Y168572D02*
Y169387D01*
X116712Y168252D02*
Y169067D01*
X117906Y167931D02*
Y168746D01*
X119099Y167610D02*
Y168426D01*
X120293Y167290D02*
Y168105D01*
X114688Y166757D02*
X114892Y167517D01*
X120520Y166006*
X120315Y165246*
X114688Y166757*
X118796Y165654D02*
X120425D01*
X114712Y166847D02*
X117387D01*
X115518Y166534D02*
Y167349D01*
X116712Y166213D02*
Y167029D01*
X117906Y165893D02*
Y166708D01*
X119099Y165572D02*
Y166388D01*
X120293Y165252D02*
Y166067D01*
X114177Y164856D02*
X114382Y165616D01*
X120009Y164105*
X119805Y163345*
X114177Y164856*
X115651Y164460D02*
X118688D01*
X114324Y164816D02*
Y165403D01*
X115518Y164496D02*
Y165311D01*
X116712Y164175D02*
Y164990D01*
X117906Y163855D02*
Y164670D01*
X119099Y163534D02*
Y164349D01*
X113667Y162954D02*
X113871Y163715D01*
X119499Y162204*
X119294Y161443*
X113667Y162954*
X116952Y162072D02*
X119463D01*
X113751Y163266D02*
X115542D01*
X114324Y162778D02*
Y163593D01*
X115518Y162457D02*
Y163273D01*
X116712Y162137D02*
Y162952D01*
X117906Y161816D02*
Y162632D01*
X119099Y161496D02*
Y162311D01*
X131081Y158278D02*
X131286Y159039D01*
X136913Y157528*
X136709Y156767*
X131081Y158278*
X134733Y157298D02*
X136851D01*
X131139Y158491D02*
X133324D01*
X132230Y157970D02*
Y158785D01*
X133424Y157649D02*
Y158465D01*
X134617Y157329D02*
Y158144D01*
X135811Y157008D02*
Y157823D01*
X131592Y160179D02*
X131796Y160940D01*
X137424Y159429*
X137219Y158668*
X131592Y160179*
X133433Y159685D02*
X136469D01*
X131780Y160879D02*
X132024D01*
X132230Y160008D02*
Y160823D01*
X133424Y159687D02*
Y160503D01*
X134617Y159367D02*
Y160182D01*
X135811Y159046D02*
Y159862D01*
X137005Y158726D02*
Y159541D01*
X132102Y162080D02*
X132307Y162841D01*
X137934Y161330*
X137730Y160569*
X132102Y162080*
X136578Y160879D02*
X137813D01*
X132132Y162072D02*
X135169D01*
X132230Y162046D02*
Y162555D01*
X133424Y161726D02*
Y162541D01*
X134617Y161405D02*
Y162220D01*
X135811Y161085D02*
Y161900D01*
X137005Y160764D02*
Y161579D01*
X132613Y163982D02*
X132817Y164742D01*
X138445Y163231*
X138240Y162471*
X132613Y163982*
X135277Y163266D02*
X138314D01*
X132741Y164460D02*
X133868D01*
X133424Y163764D02*
Y164579D01*
X134617Y163443D02*
Y164259D01*
X135811Y163123D02*
Y163938D01*
X137005Y162802D02*
Y163618D01*
X138198Y162482D02*
Y163297D01*
X133124Y165883D02*
X133328Y166643D01*
X138955Y165132*
X138751Y164372*
X133124Y165883*
X138423Y164460D02*
X138775D01*
X133977Y165654D02*
X137013D01*
X133424Y165802D02*
Y166617D01*
X134617Y165482D02*
Y166297D01*
X135811Y165161D02*
Y165976D01*
X137005Y164841D02*
Y165656D01*
X138198Y164520D02*
Y165335D01*
G54D34*
X141157Y131646D02*
Y132472D01*
X146276*
Y131646*
X141157*
X142296D02*
Y132472D01*
X143923Y131646D02*
Y132472D01*
X145550Y131646D02*
Y132472D01*
X141157Y129087D02*
Y129913D01*
X146276*
Y129087*
X141157*
Y129282D02*
X146276D01*
X142296Y129087D02*
Y129913D01*
X143923Y129087D02*
Y129913D01*
X145550Y129087D02*
Y129913D01*
X141157Y126528D02*
Y127354D01*
X146276*
Y126528*
X141157*
X142296D02*
Y127354D01*
X143923Y126528D02*
Y127354D01*
X145550Y126528D02*
Y127354D01*
X141157Y123969D02*
Y124795D01*
X146276*
Y123969*
X141157*
Y124402D02*
X146276D01*
X142296Y123969D02*
Y124795D01*
X143923Y123969D02*
Y124795D01*
X145550Y123969D02*
Y124795D01*
X161945Y123969D02*
Y124795D01*
X167063*
Y123969*
X161945*
Y124402D02*
X167063D01*
X163444Y123969D02*
Y124795D01*
X165071Y123969D02*
Y124795D01*
X166698Y123969D02*
Y124795D01*
X161945Y126528D02*
Y127354D01*
X167063*
Y126528*
X161945*
X163444D02*
Y127354D01*
X165071Y126528D02*
Y127354D01*
X166698Y126528D02*
Y127354D01*
X161945Y129087D02*
Y129913D01*
X167063*
Y129087*
X161945*
Y129282D02*
X167063D01*
X163444Y129087D02*
Y129913D01*
X165071Y129087D02*
Y129913D01*
X166698Y129087D02*
Y129913D01*
X161945Y131646D02*
Y132472D01*
X167063*
Y131646*
X161945*
X163444D02*
Y132472D01*
X165071Y131646D02*
Y132472D01*
X166698Y131646D02*
Y132472D01*
X181638Y136520D02*
Y131795D01*
X171795*
Y136520*
X181638*
X171795Y132535D02*
X181638D01*
X171795Y134162D02*
X181638D01*
X171795Y135789D02*
X181638D01*
X173205Y131795D02*
Y136520D01*
X174831Y131795D02*
Y136520D01*
X176458Y131795D02*
Y136520D01*
X178085Y131795D02*
Y136520D01*
X179712Y131795D02*
Y136520D01*
X181339Y131795D02*
Y136520D01*
X181638Y146756D02*
Y142031D01*
X171795*
Y146756*
X181638*
X171795Y142296D02*
X181638D01*
X171795Y143923D02*
X181638D01*
X171795Y145550D02*
X181638D01*
X173205Y142031D02*
Y146756D01*
X174831Y142031D02*
Y146756D01*
X176458Y142031D02*
Y146756D01*
X178085Y142031D02*
Y146756D01*
X179712Y142031D02*
Y146756D01*
X181339Y142031D02*
Y146756D01*
X0Y0D02*
M02*
