*
*
G04 PADS 9.3.1 Build Number: 456998 generated Gerber (RS-274-X) file*
G04 PC Version=2.1*
*
%IN "avago_ssi_rev1.pcb"*%
*
%MOIN*%
*
%FSLAX35Y35*%
*
*
*
*
G04 PC Standard Apertures*
*
*
G04 Thermal Relief Aperture macro.*
%AMTER*
1,1,$1,0,0*
1,0,$1-$2,0,0*
21,0,$3,$4,0,0,45*
21,0,$3,$4,0,0,135*
%
*
*
G04 Annular Aperture macro.*
%AMANN*
1,1,$1,0,0*
1,0,$2,0,0*
%
*
*
G04 Odd Aperture macro.*
%AMODD*
1,1,$1,0,0*
1,0,$1-0.005,0,0*
%
*
*
G04 PC Custom Aperture Macros*
*
*
*
*
*
*
G04 PC Aperture Table*
*
%ADD010C,0.001*%
%ADD013C,0.00787*%
%ADD019C,0.01*%
%ADD041C,0.005*%
*
*
*
*
G04 PC Circuitry*
G04 Layer Name avago_ssi_rev1.pcb - circuitry*
%LPD*%
*
*
G04 PC Custom Flashes*
G04 Layer Name avago_ssi_rev1.pcb - flashes*
%LPD*%
*
*
G04 PC Circuitry*
G04 Layer Name avago_ssi_rev1.pcb - circuitry*
%LPD*%
*
G54D10*
G54D13*
G01X20243Y124689D02*
Y136893D01*
X61817*
Y124689*
X20243*
X131854Y180921D02*
X128854D01*
X123929Y180843D02*
X126929D01*
X156500Y145898D02*
Y133898D01*
X151500*
Y145898*
X156500*
X174335Y123000D02*
Y126000D01*
X153504Y152957D02*
Y147957D01*
X162909Y136165D02*
X167909D01*
X58835Y191488D02*
Y194488D01*
X181126Y117185D02*
Y120185D01*
X92592Y189597D02*
X94785Y191644D01*
G54D19*
X59493Y138215D02*
G75*
G03X59493I-500J0D01*
G01X161500Y145898D02*
G03X161500I-500J0D01*
G54D41*
G01X155700Y144098D02*
G03X155700I-1000J0D01*
G01X66464Y127536D02*
X63964D01*
X63495Y127423*
X63339Y127309*
X63183Y127082*
Y126855*
X63339Y126627*
X63495Y126514*
X63964Y126400*
X64277*
X65839Y128559D02*
X65995Y128786D01*
X66464Y129127*
X63183*
X135442Y179745D02*
X132161D01*
X135442D02*
Y180768D01*
X135286Y181108*
X135129Y181222*
X134817Y181336*
X134504*
X134192Y181222*
X134036Y181108*
X133879Y180768*
Y179745*
Y180540D02*
X132161Y181336D01*
X134817Y182358D02*
X134973Y182586D01*
X135442Y182927*
X132161*
X119666Y183465D02*
X119354Y183579D01*
X119041Y183806*
X118885Y184033*
Y184488*
X119041Y184715*
X119354Y184943*
X119666Y185056*
X120135Y185170*
X120916*
X121385Y185056*
X121697Y184943*
X122010Y184715*
X122166Y184488*
Y184033*
X122010Y183806*
X121697Y183579*
X121385Y183465*
X118885Y180852D02*
X122166Y181988D01*
X118885Y182443D02*
Y180852D01*
X152173Y133387D02*
X154516D01*
X154985Y133273*
X155298Y133046*
X155454Y132705*
Y132477*
X155298Y132137*
X154985Y131909*
X154516Y131796*
X152173*
Y130546D02*
Y129296D01*
X153423Y129977*
Y129637*
X153579Y129409*
X153735Y129296*
X154204Y129182*
X154516*
X154985Y129296*
X155298Y129523*
X155454Y129864*
Y130205*
X155298Y130546*
X155141Y130659*
X154829Y130773*
X168830Y122875D02*
Y119594D01*
Y122875D02*
X167807D01*
X167466Y122719*
X167352Y122563*
X167239Y122250*
Y121938*
X167352Y121625*
X167466Y121469*
X167807Y121313*
X168830*
X168034D02*
X167239Y119594D01*
X165989Y122875D02*
X164739D01*
X165420Y121625*
X165080*
X164852Y121469*
X164739Y121313*
X164625Y120844*
Y120531*
X164739Y120063*
X164966Y119750*
X165307Y119594*
X165648*
X165989Y119750*
X166102Y119906*
X166216Y120219*
X162333Y151880D02*
X162021Y151993D01*
X161708Y152221*
X161552Y152448*
Y152902*
X161708Y153130*
X162021Y153357*
X162333Y153471*
X162802Y153584*
X163583*
X164052Y153471*
X164365Y153357*
X164677Y153130*
X164833Y152902*
Y152448*
X164677Y152221*
X164365Y151993*
X164052Y151880*
X162177Y150857D02*
X162021Y150630D01*
X161552Y150289*
X164833*
X162177Y149266D02*
X162021Y149039D01*
X161552Y148698*
X164833*
X165841Y125406D02*
X165955Y125719D01*
X166182Y126031*
X166409Y126187*
X166409D02*
X166864D01*
X166864D02*
X167091Y126031D01*
X167318Y125719*
X167432Y125406*
X167545Y124937*
X167545D02*
Y124156D01*
X167432Y123687*
X167432D02*
X167318Y123375D01*
X167091Y123062*
X167091D02*
X166864Y122906D01*
X166409*
X166182Y123062*
X166182D02*
X165955Y123375D01*
X165841Y123687*
X164818Y125562D02*
X164591Y125719D01*
X164250Y126187*
X164250D02*
Y122906D01*
X163114Y125406D02*
Y125562D01*
X163114D02*
X163000Y125875D01*
X162886Y126031*
X162659Y126187*
X162659D02*
X162205D01*
X162205D02*
X161977Y126031D01*
X161864Y125875*
X161750Y125562*
X161750D02*
Y125250D01*
X161864Y124937*
X161864D02*
X162091Y124469D01*
X163227Y122906*
X161636*
X67159Y190187D02*
Y186906D01*
Y190187D02*
X66136D01*
X66136D02*
X65795Y190031D01*
X65682Y189875*
X65568Y189562*
X65568D02*
Y189250D01*
X65682Y188937*
X65682D02*
X65795Y188781D01*
X66136Y188625*
X67159*
X66364D02*
X65568Y186906D01*
X63409Y190187D02*
X64545Y188000D01*
X62841*
X63409Y190187D02*
Y186906D01*
X170014Y116504D02*
Y119785D01*
Y116504D02*
X171037D01*
X171378Y116660*
X171491Y116816*
X171605Y117129*
Y117441*
X171491Y117754*
X171378Y117910*
X171037Y118066*
X170014*
X170809D02*
X171605Y119785D01*
X174105Y116504D02*
X172968D01*
X172855Y117910*
X172968Y117754*
X173309Y117598*
X173650*
X173991Y117754*
X174218Y118066*
X174332Y118535*
X174218Y118848*
X174105Y119316*
X173878Y119629*
X173537Y119785*
X173196*
X172855Y119629*
X172741Y119473*
X172628Y119160*
X84668Y197093D02*
X87068Y199331D01*
X84668Y197093D02*
X85366Y196345D01*
X85712Y196202*
X85904Y196226*
X86210Y196356*
X86439Y196569*
X86590Y196865*
X86627Y197055*
X86508Y197411*
X85811Y198159*
X86353Y197577D02*
X88153Y198167D01*
X87723Y194504D02*
X87417Y194374D01*
X87071Y194517*
X86916Y194683*
X86797Y195039*
X86985Y195525*
X87479Y196140*
X88050Y196673*
X88585Y197016*
X88969Y197063*
X89315Y196921*
X89393Y196837*
X89511Y196482*
X89438Y196102*
X89172Y195699*
X89058Y195593*
X88638Y195356*
X88254Y195309*
X87907Y195452*
X87830Y195535*
X87712Y195891*
X87785Y196271*
X88050Y196673*
G74*
X0Y0D02*
M02*
