*
*
G04 PADS 9.3.1 Build Number: 456998 generated Gerber (RS-274-X) file*
G04 PC Version=2.1*
*
%IN "avago_ssi_rev1.pcb"*%
*
%MOIN*%
*
%FSLAX35Y35*%
*
*
*
*
G04 PC Standard Apertures*
*
*
G04 Thermal Relief Aperture macro.*
%AMTER*
1,1,$1,0,0*
1,0,$1-$2,0,0*
21,0,$3,$4,0,0,45*
21,0,$3,$4,0,0,135*
%
*
*
G04 Annular Aperture macro.*
%AMANN*
1,1,$1,0,0*
1,0,$2,0,0*
%
*
*
G04 Odd Aperture macro.*
%AMODD*
1,1,$1,0,0*
1,0,$1-0.005,0,0*
%
*
*
G04 PC Custom Aperture Macros*
*
*
*
*
*
*
G04 PC Aperture Table*
*
%ADD010C,0.001*%
%ADD013C,0.00787*%
%ADD019C,0.01*%
%ADD039C,0.00787*%
%ADD040C,0.01024*%
%ADD041C,0.005*%
*
*
*
*
G04 PC Circuitry*
G04 Layer Name avago_ssi_rev1.pcb - circuitry*
%LPD*%
*
*
G04 PC Custom Flashes*
G04 Layer Name avago_ssi_rev1.pcb - flashes*
%LPD*%
*
*
G04 PC Circuitry*
G04 Layer Name avago_ssi_rev1.pcb - circuitry*
%LPD*%
*
G54D10*
G54D13*
G01X74699Y142123D02*
X76821Y140003D01*
X86567Y193819D02*
Y196819D01*
X52570Y177099D02*
X50468Y179239D01*
X86563Y198827D02*
Y201827D01*
X101421Y149701D02*
X104421D01*
X106098D02*
X109098D01*
X97462Y166630D02*
X97461Y167743D01*
X79084Y186113*
X77970*
X59601Y167735*
Y166621*
X77979Y148252*
X79092*
X97462Y166630*
X122885Y170263D02*
X123850Y170819D01*
X127296Y169894*
X127092Y169133*
X128185Y168840*
X128389Y169600*
X132595Y168470*
X129532Y157064*
X120027Y159616*
X122885Y170263*
X125807Y168344D02*
G75*
G03X125807I-787J0D01*
G01X142616Y171552D02*
X141838Y168655D01*
X148205Y132551D02*
X149780Y134126D01*
X160016*
Y122315*
X148205*
Y132551*
X149780Y134126*
X160016*
Y122315*
X148205*
Y132551*
X160677Y120031D02*
Y117031D01*
X161894Y138890D02*
Y135890D01*
X170811Y134157D02*
G03X171598Y133370I787J0D01*
G01X170811Y134157D02*
Y144394D01*
X171598Y145181D02*
G03X170811Y144394I0J-787D01*
G01X171598Y145181D02*
X181835D01*
X182622Y144394D02*
G03X181835Y145181I-787J-0D01*
G01X182622Y144394D02*
Y134157D01*
X181835Y133370D02*
G03X182622Y134157I-0J787D01*
G01X181835Y133370D02*
X171598D01*
X137358Y135740D02*
X132358D01*
X57675Y199220D02*
X58924Y196493D01*
X179669Y120370D02*
Y117370D01*
G54D19*
X80035Y152149D02*
G03X80035I-1500J0D01*
G01X84883Y142964D02*
G03X84883I-500J0D01*
G01X116218Y172717D02*
G03X116218I-500J0D01*
G01X102476Y185651D02*
G03X102476I-447J0D01*
G01X140043Y133732D02*
G03X140043I-500J0D01*
G01X157583Y146724D02*
Y140724D01*
X65624Y202716D02*
G03X65624I-500J0D01*
G01X188398Y120445D02*
G03X188398I-500J0D01*
G01X34337Y146047D02*
X33353Y145063D01*
X11699*
X10715Y146047*
Y151953*
X11699Y152937*
X33353*
X34337Y151953*
Y146047*
X30800Y143100D02*
G03X30800I-500J0D01*
G54D39*
G01X154432Y196025D02*
X154002Y196741D01*
X148273Y198175*
X147557Y197746*
X146744Y194499*
X105879Y204728*
X105877Y204721*
X99576Y206298*
X98859Y205869*
X94703Y189263*
X149317Y175592*
X154432Y196025*
G54D40*
X63543Y197661D02*
X64974Y198317D01*
X63006Y202612*
X61575Y201956*
X184354Y116508D02*
X185929D01*
Y121232*
X184354*
G54D41*
X68844Y136122D02*
X68543Y136263D01*
X68161Y136323*
X67890Y136273*
X67568Y135952*
X67518Y135680*
X67578Y135299*
X67719Y134997*
X67970Y134586*
X68523Y134033*
X68934Y133782*
X69236Y133642*
X69236D02*
X69617Y133581D01*
X69889Y133631*
X70210Y133953*
X70260Y134224*
X70200Y134606*
X70059Y134907*
X69457Y136956D02*
X69507Y137227D01*
X69416Y137800*
X71737Y135480*
X76045Y196906D02*
X75932Y197219D01*
X75705Y197531*
X75477Y197687*
X75477D02*
X75023D01*
X75023D02*
X74795Y197531D01*
X74568Y197219*
X74455Y196906*
X74341Y196437*
X74341D02*
Y195656D01*
X74455Y195187*
X74455D02*
X74568Y194875D01*
X74795Y194562*
X74795D02*
X75023Y194406D01*
X75477*
X75705Y194562*
X75705D02*
X75932Y194875D01*
X76045Y195187*
X77182Y196906D02*
Y197062D01*
X77182D02*
X77295Y197375D01*
X77409Y197531*
X77636Y197687*
X77636D02*
X78091D01*
X78091D02*
X78318Y197531D01*
X78432Y197375*
X78545Y197062*
X78545D02*
Y196750D01*
X78432Y196437*
X78432D02*
X78205Y195969D01*
X77068Y194406*
X78659*
X57397Y184340D02*
X57697Y184196D01*
X58078Y184132*
X58350Y184179*
X58675Y184497*
X58728Y184768*
X58672Y185150*
X58534Y185453*
X58287Y185868*
X57741Y186426*
X57332Y186681*
X57032Y186825*
X56651Y186889*
X56379Y186842*
X56054Y186524*
X56001Y186253*
X56057Y185871*
X56195Y185568*
X57051Y182907D02*
X56158Y182033D01*
X55770Y183403*
X55527Y183164*
X55255Y183117*
X55065Y183149*
X54655Y183405*
X54437Y183628*
X54190Y184042*
X54134Y184425*
X54268Y184775*
X54512Y185013*
X54864Y185140*
X54864D02*
X55055Y185108D01*
X55355Y184964*
X76261Y201094D02*
X76148Y201406D01*
X75920Y201719*
X75693Y201875*
X75239*
X75011Y201719*
X74784Y201406*
X74670Y201094*
X74557Y200625*
Y199844*
X74670Y199375*
X74784Y199063*
X74784D02*
X75011Y198750D01*
X75239Y198594*
X75693*
X75920Y198750*
X76148Y199063*
X76148D02*
X76261Y199375D01*
X78420Y201875D02*
X77284Y199688D01*
X77284D02*
X78989D01*
X78420Y201875D02*
Y198594D01*
X98406Y149261D02*
X98094Y149148D01*
X97781Y148920*
X97625Y148693*
Y148239*
X97781Y148011*
X98094Y147784*
X98406Y147670*
X98875Y147557*
X99656*
X100125Y147670*
X100437Y147784*
X100437D02*
X100750Y148011D01*
X100906Y148239*
Y148693*
X100750Y148920*
X100437Y149148*
X100437D02*
X100125Y149261D01*
X97625Y151761D02*
Y150625D01*
X99031Y150511*
X98875Y150625*
X98719Y150966*
Y151307*
X98875Y151648*
X99187Y151875*
X99187D02*
X99656Y151989D01*
X99969Y151875*
X100437Y151761*
X100437D02*
X100750Y151534D01*
X100906Y151193*
Y150852*
X100750Y150511*
X100594Y150398*
X100281Y150284*
X110906Y149375D02*
X110594Y149261D01*
X110281Y149034*
X110125Y148807*
Y148352*
X110281Y148125*
X110594Y147898*
X110906Y147784*
X111375Y147670*
X112156*
X112625Y147784*
X112937Y147898*
X112937D02*
X113250Y148125D01*
X113406Y148352*
Y148807*
X113250Y149034*
X112937Y149261*
X112937D02*
X112625Y149375D01*
X110594Y151761D02*
X110281Y151648D01*
X110125Y151307*
Y151080*
X110281Y150739*
X110750Y150511*
X111531Y150398*
X112312*
X112312D02*
X112937Y150511D01*
X112937D02*
X113250Y150739D01*
X113406Y151080*
Y151193*
X113250Y151534*
X112937Y151761*
X112937D02*
X112469Y151875D01*
X112312*
X112312D02*
X111844Y151761D01*
X111531Y151534*
X111375Y151193*
Y151080*
X111531Y150739*
X111844Y150511*
X112312Y150398*
X77822Y186528D02*
X79479Y188185D01*
X79730Y188597*
X79790Y188978*
X79660Y189330*
X79499Y189491*
X79147Y189621*
X78766Y189561*
X78354Y189310*
X76697Y187652*
X76446Y189008D02*
X76335Y188898D01*
X76034Y188757*
X75843Y188727*
X75572Y188777*
X75250Y189099*
X75200Y189370*
X75230Y189561*
X75371Y189862*
X75592Y190083*
X75893Y190224*
X76385Y190395*
X78294Y190696*
X77169Y191821*
X120002Y158903D02*
X119392Y156640D01*
X119379Y156158*
X119517Y155797*
X119806Y155557*
X120025Y155498*
X120395Y155560*
X120696Y155803*
X120928Y156226*
X121538Y158488*
X122363Y157619D02*
X122623Y157710D01*
X123074Y158074*
X122219Y154906*
X133509Y173901D02*
X133480Y174232D01*
X133342Y174593*
X133164Y174803*
X132725Y174922*
X132465Y174830*
X132164Y174588*
X131973Y174316*
X131741Y173893*
X131537Y173138*
X131525Y172656*
X131553Y172325*
X131691Y171964*
X131870Y171754*
X132309Y171635*
X132569Y171727*
X132870Y171970*
X133061Y172242*
X135248Y174241D02*
X134878Y174179D01*
X134687Y173907*
X134606Y173605*
X134634Y173274*
X134813Y173064*
X135211Y172794*
X135499Y172555*
X135637Y172194*
X135666Y171863*
X135544Y171410*
X135352Y171138*
X135202Y171017*
X134832Y170955*
X134393Y171073*
X134105Y171313*
X134036Y171493*
X134008Y171824*
X134130Y172277*
X134321Y172549*
X134622Y172792*
X134991Y172854*
X135471Y172886*
X135731Y172978*
X135922Y173250*
X136004Y173552*
X135975Y173883*
X135687Y174123*
X135248Y174241*
X94692Y204784D02*
X97117Y204175D01*
X97544Y203951*
X97668Y203803*
X97764Y203544*
X97709Y203324*
X97502Y203141*
X97322Y203069*
X96840Y203073*
X96537Y203149*
X95727Y205696D02*
X95575Y205734D01*
X95300Y205921*
X95176Y206069*
X95080Y206327*
X95191Y206768*
X95397Y206951*
X95577Y207023*
X95907Y207057*
X96211Y206981*
X96486Y206794*
X96885Y206460*
X98124Y204977*
X98511Y206520*
X148590Y121430D02*
Y119086D01*
X148704Y118618*
X148931Y118305*
X149272Y118149*
X149499*
X149840Y118305*
X150067Y118618*
X150181Y119086*
Y121430*
X152340D02*
X151204Y119243D01*
X152908*
X152340Y121430D02*
Y118149D01*
X171241Y120969D02*
X167959D01*
X171241D02*
Y119947D01*
X171084Y119606*
X170928Y119492*
X170616Y119378*
X170303*
X169991Y119492*
X169834Y119606*
X169678Y119947*
Y120969*
Y120174D02*
X167959Y119378D01*
X170459Y118242D02*
X170616D01*
X170928Y118128*
X171084Y118015*
X171241Y117788*
Y117333*
X171084Y117106*
X170928Y116992*
X170616Y116878*
X170303*
X169991Y116992*
X169522Y117219*
X167959Y118356*
Y116765*
X143778Y145074D02*
X143664Y145387D01*
X143437Y145699*
X143210Y145856*
X142755*
X142528Y145699*
X142301Y145387*
X142187Y145074*
X142074Y144606*
Y143824*
X142187Y143356*
X142301Y143043*
X142528Y142731*
X142755Y142574*
X143210*
X143437Y142731*
X143664Y143043*
X143778Y143356*
X146278Y144762D02*
X146164Y144293D01*
X145937Y143981*
X145596Y143824*
X145483*
X145142Y143981*
X144914Y144293*
X144801Y144762*
Y144918*
X144914Y145387*
X145142Y145699*
X145483Y145856*
X145596*
X145937Y145699*
X146164Y145387*
X146278Y144762*
Y143981*
X146164Y143199*
X145937Y142731*
X145596Y142574*
X145369*
X145028Y142731*
X144914Y143043*
X150895Y138790D02*
X150782Y139102D01*
X150554Y139415*
X150327Y139571*
X149873*
X149645Y139415*
X149418Y139102*
X149304Y138790*
X149191Y138321*
Y137540*
X149304Y137071*
X149418Y136759*
X149645Y136446*
X149873Y136290*
X150327*
X150554Y136446*
X150782Y136759*
X150895Y137071*
X151918Y138946D02*
X152145Y139102D01*
X152486Y139571*
Y136290*
X154191Y139571D02*
X153850Y139415D01*
X153623Y138946*
X153509Y138165*
Y137696*
X153623Y136915*
X153850Y136446*
X154191Y136290*
X154418*
X154759Y136446*
X154986Y136915*
X155100Y137696*
Y138165*
X154986Y138946*
X154759Y139415*
X154418Y139571*
X154191*
X183672Y134157D02*
X186953D01*
Y135521*
X184297Y136544D02*
X184140Y136771D01*
X183672Y137112*
X186953*
X133616Y146334D02*
X133502Y146646D01*
X133275Y146959*
X133048Y147115*
X132593*
X132366Y146959*
X132138Y146646*
X132025Y146334*
X131911Y145865*
Y145084*
X132025Y144615*
X132138Y144303*
X132366Y143990*
X132593Y143834*
X133048*
X133275Y143990*
X133502Y144303*
X133616Y144615*
X134638Y146490D02*
X134866Y146646D01*
X135207Y147115*
Y143834*
X136457Y147115D02*
X137707D01*
X137025Y145865*
X137366*
X137593Y145709*
X137707Y145553*
X137820Y145084*
Y144771*
X137707Y144303*
X137479Y143990*
X137138Y143834*
X136798*
X136457Y143990*
X136343Y144146*
X136229Y144459*
X66567Y198948D02*
X67933Y195964D01*
X66567Y198948D02*
X67290Y199279D01*
X67665*
X68002Y199089*
X68235Y198852*
X68534Y198473*
X68859Y197763*
X68951Y197289*
X68978Y196958*
X68901Y196579*
X68656Y196295*
X67933Y195964*
X69204Y199467D02*
X69345Y199704D01*
X69460Y200272*
X70826Y197289*
X175170Y124875D02*
Y121594D01*
Y124875D02*
X175966D01*
X176307Y124719*
X176534Y124406*
X176648Y124094*
X176761Y123625*
Y122844*
X176648Y122375*
X176534Y122063*
X176534D02*
X176307Y121750D01*
X175966Y121594*
X175170*
X177898Y124094D02*
Y124250D01*
X178011Y124563*
X178011D02*
X178125Y124719D01*
X178352Y124875*
X178807*
X179034Y124719*
X179148Y124563*
X179148D02*
X179261Y124250D01*
Y123938*
X179261D02*
X179148Y123625D01*
X178920Y123156*
X177784Y121594*
X179375*
X17125Y140034D02*
X19625D01*
X20094Y139920*
X20250Y139807*
X20406Y139580*
Y139352*
X20250Y139125*
X20094Y139011*
X19625Y138898*
X19313*
X17125Y141284D02*
Y142534D01*
X18375Y141852*
Y142193*
X18531Y142420*
X18688Y142534*
X18688D02*
X19156Y142648D01*
X19469*
X19938Y142534*
X19938D02*
X20250Y142307D01*
X20406Y141966*
Y141625*
X20250Y141284*
X20094Y141170*
X19781Y141057*
G74*
X0Y0D02*
M02*
