%
T1C.012F095S3
X0027Y01155
X0019Y01155
X0035Y01155
X0014Y012
X0013Y014
X005554Y018942
X0061Y0186
X005094Y018303
X005859Y018102
X00516Y01721
X005646Y016878
X00448Y01593
X00515Y01565
X005665Y014889
X005345Y014816
X005016Y014697
X004334Y014694
X004559Y014386
X004109Y014109
X005861Y012201
X0051Y01155
X0059Y01155
X0043Y01155
X006415Y0127
X0069Y0139
X008664Y016922
X008344Y016959
X00662Y016981
X007135Y017269
X00688Y017466
X008233Y017509
X008444Y01775
X007263Y017779
X0074Y0194
X006425Y019648
X0074Y0202
X0103Y0206
X008967Y020378
X0106Y0189
X009334Y018586
X009155Y017069
X011169Y016211
X0105Y0162
X0096Y0148
X01535Y01155
X0146Y0119
X0158Y0132
X0151Y0133
X0144Y0138
X012766Y014369
X0116Y0148
X014373Y015
X014393Y015434
X01587Y01562
X0124Y0159
X015409Y016091
X014Y0176
X0148Y0178
X017204Y01501
X0187Y0126
X018273Y01242
X017124Y012064
X0171Y01155
T2C.02756F197S55
X003353Y012829
X002853Y012829
X002353Y012829
X002853Y013329
X003353Y013329
X002353Y013329
X004353Y013329
X003853Y013329
X005853Y013329
X005353Y013329
X004853Y013329
X005853Y012829
X005353Y012829
X004353Y012829
X004853Y012829
X003853Y012829
T3C.0315F197S55
X010573Y019847
X011337Y019656
X012101Y019465
X012865Y019274
X013629Y019083
X014393Y018891
T4C.03228F197S55
X00304Y0149
X002253Y0149
X001465Y0149
M30
