*
*
G04 PADS 9.3.1 Build Number: 456998 generated Gerber (RS-274-X) file*
G04 PC Version=2.1*
*
%IN "air_ssi_rev2_1.pcb"*%
*
%MOIN*%
*
%FSLAX35Y35*%
*
*
*
*
G04 PC Standard Apertures*
*
*
G04 Thermal Relief Aperture macro.*
%AMTER*
1,1,$1,0,0*
1,0,$1-$2,0,0*
21,0,$3,$4,0,0,45*
21,0,$3,$4,0,0,135*
%
*
*
G04 Annular Aperture macro.*
%AMANN*
1,1,$1,0,0*
1,0,$2,0,0*
%
*
*
G04 Odd Aperture macro.*
%AMODD*
1,1,$1,0,0*
1,0,$1-0.005,0,0*
%
*
*
G04 PC Custom Aperture Macros*
*
*
*
*
*
*
G04 PC Aperture Table*
*
%ADD010C,0.001*%
%ADD013C,0.004*%
%ADD014C,0.006*%
%ADD015C,0.05906*%
%ADD016C,0.07874*%
%ADD017C,0.07087*%
%ADD018C,0.11811*%
%ADD019C,0.01*%
%ADD024C,0.016*%
%ADD025C,0.02*%
%ADD026C,0.03*%
%ADD028C,0.028*%
%ADD029C,0.015*%
%ADD030C,0.01181*%
%ADD031C,0.15*%
*
*
*
*
G04 PC Circuitry*
G04 Layer Name air_ssi_rev2_1.pcb - circuitry*
%LPD*%
*
*
G04 PC Custom Flashes*
G04 Layer Name air_ssi_rev2_1.pcb - flashes*
%LPD*%
*
*
G04 PC Circuitry*
G04 Layer Name air_ssi_rev2_1.pcb - circuitry*
%LPD*%
*
G54D10*
G54D13*
G01X220000Y127500D02*
X222600D01*
Y124100*
X220000*
Y127500*
Y124400D02*
X222600D01*
X220000Y124800D02*
X222600D01*
X220000Y125200D02*
X222600D01*
X220000Y125600D02*
X222600D01*
X220000Y126000D02*
X222600D01*
X220000Y126400D02*
X222600D01*
X220000Y126800D02*
X222600D01*
X220000Y127200D02*
X222600D01*
X220000Y124100D02*
Y127500D01*
X220400Y124100D02*
Y127500D01*
X220800Y124100D02*
Y127500D01*
X221200Y124100D02*
Y127500D01*
X221600Y124100D02*
Y127500D01*
X222000Y124100D02*
Y127500D01*
X222400Y124100D02*
Y127500D01*
X220000Y133700D02*
X222600D01*
Y130300*
X220000*
Y133700*
Y130400D02*
X222600D01*
X220000Y130800D02*
X222600D01*
X220000Y131200D02*
X222600D01*
X220000Y131600D02*
X222600D01*
X220000Y132000D02*
X222600D01*
X220000Y132400D02*
X222600D01*
X220000Y132800D02*
X222600D01*
X220000Y133200D02*
X222600D01*
X220000Y133600D02*
X222600D01*
X220000Y130300D02*
Y133700D01*
X220400Y130300D02*
Y133700D01*
X220800Y130300D02*
Y133700D01*
X221200Y130300D02*
Y133700D01*
X221600Y130300D02*
Y133700D01*
X222000Y130300D02*
Y133700D01*
X222400Y130300D02*
Y133700D01*
X138900Y117900D02*
Y120500D01*
X142300*
Y117900*
X138900*
Y118000D02*
X142300D01*
X138900Y118400D02*
X142300D01*
X138900Y118800D02*
X142300D01*
X138900Y119200D02*
X142300D01*
X138900Y119600D02*
X142300D01*
X138900Y120000D02*
X142300D01*
X138900Y120400D02*
X142300D01*
X139200Y117900D02*
Y120500D01*
X139600Y117900D02*
Y120500D01*
X140000Y117900D02*
Y120500D01*
X140400Y117900D02*
Y120500D01*
X140800Y117900D02*
Y120500D01*
X141200Y117900D02*
Y120500D01*
X141600Y117900D02*
Y120500D01*
X142000Y117900D02*
Y120500D01*
X132700Y117900D02*
Y120500D01*
X136100*
Y117900*
X132700*
Y118000D02*
X136100D01*
X132700Y118400D02*
X136100D01*
X132700Y118800D02*
X136100D01*
X132700Y119200D02*
X136100D01*
X132700Y119600D02*
X136100D01*
X132700Y120000D02*
X136100D01*
X132700Y120400D02*
X136100D01*
X132800Y117900D02*
Y120500D01*
X133200Y117900D02*
Y120500D01*
X133600Y117900D02*
Y120500D01*
X134000Y117900D02*
Y120500D01*
X134400Y117900D02*
Y120500D01*
X134800Y117900D02*
Y120500D01*
X135200Y117900D02*
Y120500D01*
X135600Y117900D02*
Y120500D01*
X136000Y117900D02*
Y120500D01*
X267900Y177400D02*
X270500D01*
Y174000*
X267900*
Y177400*
Y174000D02*
X270500D01*
X267900Y174400D02*
X270500D01*
X267900Y174800D02*
X270500D01*
X267900Y175200D02*
X270500D01*
X267900Y175600D02*
X270500D01*
X267900Y176000D02*
X270500D01*
X267900Y176400D02*
X270500D01*
X267900Y176800D02*
X270500D01*
X267900Y177200D02*
X270500D01*
X268000Y174000D02*
Y177400D01*
X268400Y174000D02*
Y177400D01*
X268800Y174000D02*
Y177400D01*
X269200Y174000D02*
Y177400D01*
X269600Y174000D02*
Y177400D01*
X270000Y174000D02*
Y177400D01*
X270400Y174000D02*
Y177400D01*
X267900Y183600D02*
X270500D01*
Y180200*
X267900*
Y183600*
Y180400D02*
X270500D01*
X267900Y180800D02*
X270500D01*
X267900Y181200D02*
X270500D01*
X267900Y181600D02*
X270500D01*
X267900Y182000D02*
X270500D01*
X267900Y182400D02*
X270500D01*
X267900Y182800D02*
X270500D01*
X267900Y183200D02*
X270500D01*
X267900Y183600D02*
X270500D01*
X268000Y180200D02*
Y183600D01*
X268400Y180200D02*
Y183600D01*
X268800Y180200D02*
Y183600D01*
X269200Y180200D02*
Y183600D01*
X269600Y180200D02*
Y183600D01*
X270000Y180200D02*
Y183600D01*
X270400Y180200D02*
Y183600D01*
X244700Y165300D02*
Y162700D01*
X241300*
Y165300*
X244700*
X241300Y162800D02*
X244700D01*
X241300Y163200D02*
X244700D01*
X241300Y163600D02*
X244700D01*
X241300Y164000D02*
X244700D01*
X241300Y164400D02*
X244700D01*
X241300Y164800D02*
X244700D01*
X241300Y165200D02*
X244700D01*
X241600Y162700D02*
Y165300D01*
X242000Y162700D02*
Y165300D01*
X242400Y162700D02*
Y165300D01*
X242800Y162700D02*
Y165300D01*
X243200Y162700D02*
Y165300D01*
X243600Y162700D02*
Y165300D01*
X244000Y162700D02*
Y165300D01*
X244400Y162700D02*
Y165300D01*
X250900D02*
Y162700D01*
X247500*
Y165300*
X250900*
X247500Y162800D02*
X250900D01*
X247500Y163200D02*
X250900D01*
X247500Y163600D02*
X250900D01*
X247500Y164000D02*
X250900D01*
X247500Y164400D02*
X250900D01*
X247500Y164800D02*
X250900D01*
X247500Y165200D02*
X250900D01*
X247600Y162700D02*
Y165300D01*
X248000Y162700D02*
Y165300D01*
X248400Y162700D02*
Y165300D01*
X248800Y162700D02*
Y165300D01*
X249200Y162700D02*
Y165300D01*
X249600Y162700D02*
Y165300D01*
X250000Y162700D02*
Y165300D01*
X250400Y162700D02*
Y165300D01*
X250800Y162700D02*
Y165300D01*
X240400Y174700D02*
Y177300D01*
X243800*
Y174700*
X240400*
Y174800D02*
X243800D01*
X240400Y175200D02*
X243800D01*
X240400Y175600D02*
X243800D01*
X240400Y176000D02*
X243800D01*
X240400Y176400D02*
X243800D01*
X240400Y176800D02*
X243800D01*
X240400Y177200D02*
X243800D01*
X240400Y174700D02*
Y177300D01*
X240800Y174700D02*
Y177300D01*
X241200Y174700D02*
Y177300D01*
X241600Y174700D02*
Y177300D01*
X242000Y174700D02*
Y177300D01*
X242400Y174700D02*
Y177300D01*
X242800Y174700D02*
Y177300D01*
X243200Y174700D02*
Y177300D01*
X243600Y174700D02*
Y177300D01*
X234200Y174700D02*
Y177300D01*
X237600*
Y174700*
X234200*
Y174800D02*
X237600D01*
X234200Y175200D02*
X237600D01*
X234200Y175600D02*
X237600D01*
X234200Y176000D02*
X237600D01*
X234200Y176400D02*
X237600D01*
X234200Y176800D02*
X237600D01*
X234200Y177200D02*
X237600D01*
X234400Y174700D02*
Y177300D01*
X234800Y174700D02*
Y177300D01*
X235200Y174700D02*
Y177300D01*
X235600Y174700D02*
Y177300D01*
X236000Y174700D02*
Y177300D01*
X236400Y174700D02*
Y177300D01*
X236800Y174700D02*
Y177300D01*
X237200Y174700D02*
Y177300D01*
X237600Y174700D02*
Y177300D01*
X232700Y187000D02*
X235300D01*
Y183600*
X232700*
Y187000*
Y183600D02*
X235300D01*
X232700Y184000D02*
X235300D01*
X232700Y184400D02*
X235300D01*
X232700Y184800D02*
X235300D01*
X232700Y185200D02*
X235300D01*
X232700Y185600D02*
X235300D01*
X232700Y186000D02*
X235300D01*
X232700Y186400D02*
X235300D01*
X232700Y186800D02*
X235300D01*
X232800Y183600D02*
Y187000D01*
X233200Y183600D02*
Y187000D01*
X233600Y183600D02*
Y187000D01*
X234000Y183600D02*
Y187000D01*
X234400Y183600D02*
Y187000D01*
X234800Y183600D02*
Y187000D01*
X235200Y183600D02*
Y187000D01*
X232700Y193200D02*
X235300D01*
Y189800*
X232700*
Y193200*
Y190000D02*
X235300D01*
X232700Y190400D02*
X235300D01*
X232700Y190800D02*
X235300D01*
X232700Y191200D02*
X235300D01*
X232700Y191600D02*
X235300D01*
X232700Y192000D02*
X235300D01*
X232700Y192400D02*
X235300D01*
X232700Y192800D02*
X235300D01*
X232700Y193200D02*
X235300D01*
X232800Y189800D02*
Y193200D01*
X233200Y189800D02*
Y193200D01*
X233600Y189800D02*
Y193200D01*
X234000Y189800D02*
Y193200D01*
X234400Y189800D02*
Y193200D01*
X234800Y189800D02*
Y193200D01*
X235200Y189800D02*
Y193200D01*
X274600Y159300D02*
Y161900D01*
X278000*
Y159300*
X274600*
Y159600D02*
X278000D01*
X274600Y160000D02*
X278000D01*
X274600Y160400D02*
X278000D01*
X274600Y160800D02*
X278000D01*
X274600Y161200D02*
X278000D01*
X274600Y161600D02*
X278000D01*
X274800Y159300D02*
Y161900D01*
X275200Y159300D02*
Y161900D01*
X275600Y159300D02*
Y161900D01*
X276000Y159300D02*
Y161900D01*
X276400Y159300D02*
Y161900D01*
X276800Y159300D02*
Y161900D01*
X277200Y159300D02*
Y161900D01*
X277600Y159300D02*
Y161900D01*
X278000Y159300D02*
Y161900D01*
X268400Y159300D02*
Y161900D01*
X271800*
Y159300*
X268400*
Y159600D02*
X271800D01*
X268400Y160000D02*
X271800D01*
X268400Y160400D02*
X271800D01*
X268400Y160800D02*
X271800D01*
X268400Y161200D02*
X271800D01*
X268400Y161600D02*
X271800D01*
X268400Y159300D02*
Y161900D01*
X268800Y159300D02*
Y161900D01*
X269200Y159300D02*
Y161900D01*
X269600Y159300D02*
Y161900D01*
X270000Y159300D02*
Y161900D01*
X270400Y159300D02*
Y161900D01*
X270800Y159300D02*
Y161900D01*
X271200Y159300D02*
Y161900D01*
X271600Y159300D02*
Y161900D01*
X271800Y156900D02*
Y154300D01*
X268400*
Y156900*
X271800*
X268400Y154400D02*
X271800D01*
X268400Y154800D02*
X271800D01*
X268400Y155200D02*
X271800D01*
X268400Y155600D02*
X271800D01*
X268400Y156000D02*
X271800D01*
X268400Y156400D02*
X271800D01*
X268400Y156800D02*
X271800D01*
X268400Y154300D02*
Y156900D01*
X268800Y154300D02*
Y156900D01*
X269200Y154300D02*
Y156900D01*
X269600Y154300D02*
Y156900D01*
X270000Y154300D02*
Y156900D01*
X270400Y154300D02*
Y156900D01*
X270800Y154300D02*
Y156900D01*
X271200Y154300D02*
Y156900D01*
X271600Y154300D02*
Y156900D01*
X278000D02*
Y154300D01*
X274600*
Y156900*
X278000*
X274600Y154400D02*
X278000D01*
X274600Y154800D02*
X278000D01*
X274600Y155200D02*
X278000D01*
X274600Y155600D02*
X278000D01*
X274600Y156000D02*
X278000D01*
X274600Y156400D02*
X278000D01*
X274600Y156800D02*
X278000D01*
X274800Y154300D02*
Y156900D01*
X275200Y154300D02*
Y156900D01*
X275600Y154300D02*
Y156900D01*
X276000Y154300D02*
Y156900D01*
X276400Y154300D02*
Y156900D01*
X276800Y154300D02*
Y156900D01*
X277200Y154300D02*
Y156900D01*
X277600Y154300D02*
Y156900D01*
X278000Y154300D02*
Y156900D01*
X217200Y130200D02*
X214600D01*
Y133600*
X217200*
Y130200*
X214600Y130400D02*
X217200D01*
X214600Y130800D02*
X217200D01*
X214600Y131200D02*
X217200D01*
X214600Y131600D02*
X217200D01*
X214600Y132000D02*
X217200D01*
X214600Y132400D02*
X217200D01*
X214600Y132800D02*
X217200D01*
X214600Y133200D02*
X217200D01*
X214600Y133600D02*
X217200D01*
X214800Y130200D02*
Y133600D01*
X215200Y130200D02*
Y133600D01*
X215600Y130200D02*
Y133600D01*
X216000Y130200D02*
Y133600D01*
X216400Y130200D02*
Y133600D01*
X216800Y130200D02*
Y133600D01*
X217200Y130200D02*
Y133600D01*
Y124000D02*
X214600D01*
Y127400*
X217200*
Y124000*
X214600D02*
X217200D01*
X214600Y124400D02*
X217200D01*
X214600Y124800D02*
X217200D01*
X214600Y125200D02*
X217200D01*
X214600Y125600D02*
X217200D01*
X214600Y126000D02*
X217200D01*
X214600Y126400D02*
X217200D01*
X214600Y126800D02*
X217200D01*
X214600Y127200D02*
X217200D01*
X214800Y124000D02*
Y127400D01*
X215200Y124000D02*
Y127400D01*
X215600Y124000D02*
Y127400D01*
X216000Y124000D02*
Y127400D01*
X216400Y124000D02*
Y127400D01*
X216800Y124000D02*
Y127400D01*
X217200Y124000D02*
Y127400D01*
X125200Y160400D02*
Y157800D01*
X121800*
Y160400*
X125200*
X121800Y158000D02*
X125200D01*
X121800Y158400D02*
X125200D01*
X121800Y158800D02*
X125200D01*
X121800Y159200D02*
X125200D01*
X121800Y159600D02*
X125200D01*
X121800Y160000D02*
X125200D01*
X121800Y160400D02*
X125200D01*
X122000Y157800D02*
Y160400D01*
X122400Y157800D02*
Y160400D01*
X122800Y157800D02*
Y160400D01*
X123200Y157800D02*
Y160400D01*
X123600Y157800D02*
Y160400D01*
X124000Y157800D02*
Y160400D01*
X124400Y157800D02*
Y160400D01*
X124800Y157800D02*
Y160400D01*
X125200Y157800D02*
Y160400D01*
X131400D02*
Y157800D01*
X128000*
Y160400*
X131400*
X128000Y158000D02*
X131400D01*
X128000Y158400D02*
X131400D01*
X128000Y158800D02*
X131400D01*
X128000Y159200D02*
X131400D01*
X128000Y159600D02*
X131400D01*
X128000Y160000D02*
X131400D01*
X128000Y160400D02*
X131400D01*
X128000Y157800D02*
Y160400D01*
X128400Y157800D02*
Y160400D01*
X128800Y157800D02*
Y160400D01*
X129200Y157800D02*
Y160400D01*
X129600Y157800D02*
Y160400D01*
X130000Y157800D02*
Y160400D01*
X130400Y157800D02*
Y160400D01*
X130800Y157800D02*
Y160400D01*
X131200Y157800D02*
Y160400D01*
X125200Y154300D02*
Y151700D01*
X121800*
Y154300*
X125200*
X121800Y152000D02*
X125200D01*
X121800Y152400D02*
X125200D01*
X121800Y152800D02*
X125200D01*
X121800Y153200D02*
X125200D01*
X121800Y153600D02*
X125200D01*
X121800Y154000D02*
X125200D01*
X122000Y151700D02*
Y154300D01*
X122400Y151700D02*
Y154300D01*
X122800Y151700D02*
Y154300D01*
X123200Y151700D02*
Y154300D01*
X123600Y151700D02*
Y154300D01*
X124000Y151700D02*
Y154300D01*
X124400Y151700D02*
Y154300D01*
X124800Y151700D02*
Y154300D01*
X125200Y151700D02*
Y154300D01*
X131400D02*
Y151700D01*
X128000*
Y154300*
X131400*
X128000Y152000D02*
X131400D01*
X128000Y152400D02*
X131400D01*
X128000Y152800D02*
X131400D01*
X128000Y153200D02*
X131400D01*
X128000Y153600D02*
X131400D01*
X128000Y154000D02*
X131400D01*
X128000Y151700D02*
Y154300D01*
X128400Y151700D02*
Y154300D01*
X128800Y151700D02*
Y154300D01*
X129200Y151700D02*
Y154300D01*
X129600Y151700D02*
Y154300D01*
X130000Y151700D02*
Y154300D01*
X130400Y151700D02*
Y154300D01*
X130800Y151700D02*
Y154300D01*
X131200Y151700D02*
Y154300D01*
X125100Y166600D02*
Y164000D01*
X121700*
Y166600*
X125100*
X121700Y164000D02*
X125100D01*
X121700Y164400D02*
X125100D01*
X121700Y164800D02*
X125100D01*
X121700Y165200D02*
X125100D01*
X121700Y165600D02*
X125100D01*
X121700Y166000D02*
X125100D01*
X121700Y166400D02*
X125100D01*
X122000Y164000D02*
Y166600D01*
X122400Y164000D02*
Y166600D01*
X122800Y164000D02*
Y166600D01*
X123200Y164000D02*
Y166600D01*
X123600Y164000D02*
Y166600D01*
X124000Y164000D02*
Y166600D01*
X124400Y164000D02*
Y166600D01*
X124800Y164000D02*
Y166600D01*
X131300D02*
Y164000D01*
X127900*
Y166600*
X131300*
X127900Y164000D02*
X131300D01*
X127900Y164400D02*
X131300D01*
X127900Y164800D02*
X131300D01*
X127900Y165200D02*
X131300D01*
X127900Y165600D02*
X131300D01*
X127900Y166000D02*
X131300D01*
X127900Y166400D02*
X131300D01*
X128000Y164000D02*
Y166600D01*
X128400Y164000D02*
Y166600D01*
X128800Y164000D02*
Y166600D01*
X129200Y164000D02*
Y166600D01*
X129600Y164000D02*
Y166600D01*
X130000Y164000D02*
Y166600D01*
X130400Y164000D02*
Y166600D01*
X130800Y164000D02*
Y166600D01*
X131200Y164000D02*
Y166600D01*
X125100Y171600D02*
Y169000D01*
X121700*
Y171600*
X125100*
X121700Y169200D02*
X125100D01*
X121700Y169600D02*
X125100D01*
X121700Y170000D02*
X125100D01*
X121700Y170400D02*
X125100D01*
X121700Y170800D02*
X125100D01*
X121700Y171200D02*
X125100D01*
X121700Y171600D02*
X125100D01*
X122000Y169000D02*
Y171600D01*
X122400Y169000D02*
Y171600D01*
X122800Y169000D02*
Y171600D01*
X123200Y169000D02*
Y171600D01*
X123600Y169000D02*
Y171600D01*
X124000Y169000D02*
Y171600D01*
X124400Y169000D02*
Y171600D01*
X124800Y169000D02*
Y171600D01*
X131300D02*
Y169000D01*
X127900*
Y171600*
X131300*
X127900Y169200D02*
X131300D01*
X127900Y169600D02*
X131300D01*
X127900Y170000D02*
X131300D01*
X127900Y170400D02*
X131300D01*
X127900Y170800D02*
X131300D01*
X127900Y171200D02*
X131300D01*
X127900Y171600D02*
X131300D01*
X128000Y169000D02*
Y171600D01*
X128400Y169000D02*
Y171600D01*
X128800Y169000D02*
Y171600D01*
X129200Y169000D02*
Y171600D01*
X129600Y169000D02*
Y171600D01*
X130000Y169000D02*
Y171600D01*
X130400Y169000D02*
Y171600D01*
X130800Y169000D02*
Y171600D01*
X131200Y169000D02*
Y171600D01*
X215100Y108900D02*
Y111500D01*
X218500*
Y108900*
X215100*
Y109200D02*
X218500D01*
X215100Y109600D02*
X218500D01*
X215100Y110000D02*
X218500D01*
X215100Y110400D02*
X218500D01*
X215100Y110800D02*
X218500D01*
X215100Y111200D02*
X218500D01*
X215200Y108900D02*
Y111500D01*
X215600Y108900D02*
Y111500D01*
X216000Y108900D02*
Y111500D01*
X216400Y108900D02*
Y111500D01*
X216800Y108900D02*
Y111500D01*
X217200Y108900D02*
Y111500D01*
X217600Y108900D02*
Y111500D01*
X218000Y108900D02*
Y111500D01*
X218400Y108900D02*
Y111500D01*
X208900Y108900D02*
Y111500D01*
X212300*
Y108900*
X208900*
Y109200D02*
X212300D01*
X208900Y109600D02*
X212300D01*
X208900Y110000D02*
X212300D01*
X208900Y110400D02*
X212300D01*
X208900Y110800D02*
X212300D01*
X208900Y111200D02*
X212300D01*
X209200Y108900D02*
Y111500D01*
X209600Y108900D02*
Y111500D01*
X210000Y108900D02*
Y111500D01*
X210400Y108900D02*
Y111500D01*
X210800Y108900D02*
Y111500D01*
X211200Y108900D02*
Y111500D01*
X211600Y108900D02*
Y111500D01*
X212000Y108900D02*
Y111500D01*
X142900Y125900D02*
Y123300D01*
X139500*
Y125900*
X142900*
X139500Y123600D02*
X142900D01*
X139500Y124000D02*
X142900D01*
X139500Y124400D02*
X142900D01*
X139500Y124800D02*
X142900D01*
X139500Y125200D02*
X142900D01*
X139500Y125600D02*
X142900D01*
X139600Y123300D02*
Y125900D01*
X140000Y123300D02*
Y125900D01*
X140400Y123300D02*
Y125900D01*
X140800Y123300D02*
Y125900D01*
X141200Y123300D02*
Y125900D01*
X141600Y123300D02*
Y125900D01*
X142000Y123300D02*
Y125900D01*
X142400Y123300D02*
Y125900D01*
X142800Y123300D02*
Y125900D01*
X149100D02*
Y123300D01*
X145700*
Y125900*
X149100*
X145700Y123600D02*
X149100D01*
X145700Y124000D02*
X149100D01*
X145700Y124400D02*
X149100D01*
X145700Y124800D02*
X149100D01*
X145700Y125200D02*
X149100D01*
X145700Y125600D02*
X149100D01*
X146000Y123300D02*
Y125900D01*
X146400Y123300D02*
Y125900D01*
X146800Y123300D02*
Y125900D01*
X147200Y123300D02*
Y125900D01*
X147600Y123300D02*
Y125900D01*
X148000Y123300D02*
Y125900D01*
X148400Y123300D02*
Y125900D01*
X148800Y123300D02*
Y125900D01*
G54D14*
X204800Y178200D02*
X209200D01*
Y172800*
X204800*
Y178200*
Y173200D02*
X209200D01*
X204800Y173800D02*
X209200D01*
X204800Y174400D02*
X209200D01*
X204800Y175000D02*
X209200D01*
X204800Y175600D02*
X209200D01*
X204800Y176200D02*
X209200D01*
X204800Y176800D02*
X209200D01*
X204800Y177400D02*
X209200D01*
X204800Y178000D02*
X209200D01*
X205000Y172800D02*
Y178200D01*
X205600Y172800D02*
Y178200D01*
X206200Y172800D02*
Y178200D01*
X206800Y172800D02*
Y178200D01*
X207400Y172800D02*
Y178200D01*
X208000Y172800D02*
Y178200D01*
X208600Y172800D02*
Y178200D01*
X209200Y172800D02*
Y178200D01*
X204800Y187200D02*
X209200D01*
Y181800*
X204800*
Y187200*
Y182200D02*
X209200D01*
X204800Y182800D02*
X209200D01*
X204800Y183400D02*
X209200D01*
X204800Y184000D02*
X209200D01*
X204800Y184600D02*
X209200D01*
X204800Y185200D02*
X209200D01*
X204800Y185800D02*
X209200D01*
X204800Y186400D02*
X209200D01*
X204800Y187000D02*
X209200D01*
X205000Y181800D02*
Y187200D01*
X205600Y181800D02*
Y187200D01*
X206200Y181800D02*
Y187200D01*
X206800Y181800D02*
Y187200D01*
X207400Y181800D02*
Y187200D01*
X208000Y181800D02*
Y187200D01*
X208600Y181800D02*
Y187200D01*
X209200Y181800D02*
Y187200D01*
X225800Y191200D02*
Y195600D01*
X231200*
Y191200*
X225800*
X231200*
X225800Y191800D02*
X231200D01*
X225800Y192400D02*
X231200D01*
X225800Y193000D02*
X231200D01*
X225800Y193600D02*
X231200D01*
X225800Y194200D02*
X231200D01*
X225800Y194800D02*
X231200D01*
X225800Y195400D02*
X231200D01*
X226000Y191200D02*
Y195600D01*
X226600Y191200D02*
Y195600D01*
X227200Y191200D02*
Y195600D01*
X227800Y191200D02*
Y195600D01*
X228400Y191200D02*
Y195600D01*
X229000Y191200D02*
Y195600D01*
X229600Y191200D02*
Y195600D01*
X230200Y191200D02*
Y195600D01*
X230800Y191200D02*
Y195600D01*
X216800Y191200D02*
Y195600D01*
X222200*
Y191200*
X216800*
X222200*
X216800Y191800D02*
X222200D01*
X216800Y192400D02*
X222200D01*
X216800Y193000D02*
X222200D01*
X216800Y193600D02*
X222200D01*
X216800Y194200D02*
X222200D01*
X216800Y194800D02*
X222200D01*
X216800Y195400D02*
X222200D01*
X217000Y191200D02*
Y195600D01*
X217600Y191200D02*
Y195600D01*
X218200Y191200D02*
Y195600D01*
X218800Y191200D02*
Y195600D01*
X219400Y191200D02*
Y195600D01*
X220000Y191200D02*
Y195600D01*
X220600Y191200D02*
Y195600D01*
X221200Y191200D02*
Y195600D01*
X221800Y191200D02*
Y195600D01*
G54D15*
X222100Y217200D03*
X214226D03*
X206352D03*
X158000Y112000D03*
X150126D03*
X142252D03*
X134378D03*
X287700Y169570D03*
Y161696D03*
Y153822D03*
Y145948D03*
Y138074D03*
Y130200D03*
G54D16*
X198084Y217200D03*
X230368D03*
G54D17*
X252094Y193992D03*
X263906D03*
G54D18*
X258000Y211000D03*
G54D19*
X221783Y178002D02*
X220028D01*
Y185900*
X221783*
Y178002*
X220500D02*
Y185900D01*
X221000Y178002D02*
Y185900D01*
X221500Y178002D02*
Y185900D01*
X224343Y171253D02*
X223848Y170758D01*
X217963*
X217469Y171253*
Y180091*
X217963Y180585*
X223848*
X224343Y180091*
Y171253*
X217500Y171221D02*
Y180122D01*
X218000Y170758D02*
Y180585D01*
X218500Y170758D02*
Y180585D01*
X219000Y170758D02*
Y180585D01*
X219500Y170758D02*
Y180585D01*
X220000Y170758D02*
Y180585D01*
X220500Y170758D02*
Y180585D01*
X221000Y170758D02*
Y180585D01*
X221500Y170758D02*
Y180585D01*
X222000Y170758D02*
Y180585D01*
X222500Y170758D02*
Y180585D01*
X223000Y170758D02*
Y180585D01*
X223500Y170758D02*
Y180585D01*
X224000Y170910D02*
Y180433D01*
X132391Y223100D02*
X132618Y223725D01*
X133073Y224350*
X133527Y224663*
X133527D02*
X134436D01*
X134436D02*
X134891Y224350D01*
X135345Y223725*
X135573Y223100*
X135800Y222163*
X135800D02*
Y220600D01*
X135573Y219663*
X135573D02*
X135345Y219038D01*
X135345D02*
X134891Y218413D01*
X134891D02*
X134436Y218100D01*
X133527*
X133073Y218413*
X133073D02*
X132618Y219038D01*
X132618D02*
X132391Y219663D01*
X128527Y224663D02*
X130345Y218100D01*
X128527Y224663D02*
X126709Y218100D01*
X129664Y220288D02*
X127391D01*
X124664Y224663D02*
Y218100D01*
X121482Y224663D02*
Y218100D01*
X124664Y221538D02*
X121482D01*
X134378Y112000D02*
Y119200D01*
X134400*
X150126Y112000D02*
Y121874D01*
X147400Y124600*
X184000Y118400D02*
X184100Y118500D01*
X183600Y119000*
X184000Y118400D02*
X167500D01*
X166900Y119000*
X208400Y114800D02*
X215400Y121800D01*
X225100*
X217400Y114800D02*
X219800Y117200D01*
X230100*
X213400Y114900D02*
X217400Y118900D01*
X232402*
X216800Y110200D02*
X216935D01*
X222500Y114600*
X241900Y113500D02*
X237802D01*
X232402Y118900*
X242977Y110900D02*
X254100Y122023D01*
Y126600*
X242977Y110900D02*
X236400D01*
X230100Y117200*
X141200Y119200D02*
Y124600D01*
X140600Y119200D02*
X140200D01*
X136100Y123300*
X131723*
X123500Y131523*
Y153000*
X140600Y119200D02*
X141200D01*
X145100Y119100D02*
Y119200D01*
X141200*
X180700Y127400D02*
X173700Y134400D01*
X173200*
X166200Y141400*
X188700Y127200D02*
X185523D01*
X171284Y141439*
Y141816*
X169400Y143700*
X185500Y130900D02*
X174000Y142400D01*
X226000Y131800D02*
Y146600D01*
X220400Y152200*
X256700Y138200D02*
Y142800D01*
X254900Y144600*
Y149300*
X129600Y148300D02*
Y153000D01*
X129700*
X123500D02*
Y159100D01*
X135100Y156400D02*
X131100Y158100D01*
X129700*
Y159100*
X270100Y155600D02*
Y160600D01*
X129600Y165300D02*
X130000D01*
X133000Y168300*
X135077*
X137400Y170623*
Y172777*
X123400Y165300D02*
Y170300D01*
X123500Y159100D02*
Y165300D01*
X123400*
X190400Y165100D02*
X192600Y167300D01*
Y176700*
X221200Y166000D02*
Y175000D01*
X220700Y175500*
X207000*
X243000Y164000D02*
X239200Y167800D01*
X235700*
X233500Y170000*
X263200Y164600D02*
Y181900D01*
X276300Y160496D02*
Y160600D01*
X129600Y170300D02*
Y171300D01*
X131000*
X134800Y171700*
X137400Y172777D02*
X135061Y175116D01*
X134884*
X132300Y177700*
X190500Y178600D02*
X190600Y178700D01*
X190000Y173300D02*
X178300D01*
X178100Y173500*
X166400*
X192600Y176700D02*
X190600Y178700D01*
X269200Y171600D02*
Y175700D01*
Y181900D02*
X263200D01*
Y184600*
X201500Y154093D02*
X201707Y154300D01*
X183900*
Y135187*
X184287Y134800*
X201500*
Y154093*
X223600Y190800D02*
Y195500D01*
X197500*
Y181000*
X210400*
Y183900*
X211114*
X212500Y184500D02*
G75*
G03X211114Y183900I0J-1900D01*
G01X212500Y184500D02*
X216400D01*
Y188900*
X216900Y190185D02*
G03X216400Y188900I1400J-1285D01*
G01X216900Y190185D02*
Y190300D01*
X217015*
X218300Y190800D02*
G03X217015Y190300I0J-1900D01*
G01X218300Y190800D02*
X223600D01*
X244600Y166900D02*
Y169372D01*
X244549Y169449D02*
G03X244600Y169372I2451J1551D01*
G01X244549Y169449D02*
X240899Y173100D01*
X240400*
X239000Y173925D02*
G03X240400Y173100I1400J775D01*
G01X237600D02*
G03X239000Y173925I0J1600D01*
G01X237600Y173100D02*
X234200D01*
X232600Y174700D02*
G03X234200Y173100I1600J0D01*
G01X232600Y174700D02*
Y175199D01*
X231949Y175849*
X231100Y177900D02*
G03X231949Y175849I2900J0D01*
G01X231100Y177900D02*
Y183000D01*
X228393*
X227598Y182835D02*
G03X228393Y183000I0J1990D01*
G01X227598Y182835D02*
X226024D01*
X225229Y183000D02*
G03X226024Y182835I795J1825D01*
G01X225229Y183000D02*
X223900D01*
Y188424*
X223600Y188400D02*
G03X223900Y188424I0J1900D01*
G01X223600Y188400D02*
X218800D01*
Y183900*
X218300Y182615D02*
G03X218800Y183900I-1400J1285D01*
G01X218300Y182615D02*
Y182600D01*
X218286*
X216900Y182000D02*
G03X218286Y182600I0J1900D01*
G01X216900Y182000D02*
X212500D01*
Y179100*
X211566*
X210400Y178700D02*
G03X211566Y179100I0J1900D01*
G01X210400Y178700D02*
X197500D01*
X196900Y178797D02*
G03X197500Y178700I600J1803D01*
G01X196900Y178797D02*
Y164900D01*
X239413*
X238413Y165900*
X235700*
X234356Y166456D02*
G03X235700Y165900I1344J1344D01*
G01X234356Y166456D02*
X233611Y167202D01*
X236298Y169889D02*
G03X233611Y167202I-2798J111D01*
G01X236298Y169889D02*
X236487Y169700D01*
X239200*
X240544Y169144D02*
G03X239200Y169700I-1344J-1344D01*
G01X240544Y169144D02*
X242787Y166900D01*
X244600*
X295500Y115831D02*
Y214169D01*
X282169Y227500D02*
G03X295500Y214169I5831J-7500D01*
G01X282169Y227500D02*
X136807D01*
X137500Y226412D02*
G03X136807Y227500I-1200J0D01*
G01X137500Y226412D02*
Y215412D01*
X136300Y214212D02*
G03X137500Y215412I0J1200D01*
G01X136300Y214212D02*
X120100D01*
Y171608*
X121700Y173200D02*
G03X120100Y171608I0J-1600D01*
G01X121700Y173200D02*
X125100D01*
X126500Y172375D02*
G03X125100Y173200I-1400J-775D01*
G01X127900D02*
G03X126500Y172375I0J-1600D01*
G01X127900Y173200D02*
X130900D01*
X132556Y173374*
X133269Y174044D02*
G03X132556Y173374I1531J-2344D01*
G01X133269Y174044D02*
X132411Y174902D01*
X135098Y177589D02*
G03X132411Y174902I-2798J111D01*
G01X135098Y177589D02*
X135836Y176851D01*
X136404Y176460D02*
G03X135836Y176851I-1343J-1344D01*
G01X136404Y176460D02*
X138744Y174120D01*
X139300Y172777D02*
G03X138744Y174120I-1900J-0D01*
G01X139300Y172777D02*
Y170623D01*
X138744Y169280D02*
G03X139300Y170623I-1344J1343D01*
G01X138744Y169280D02*
X136420Y166956D01*
X135077Y166400D02*
G03X136420Y166956I-0J1900D01*
G01X135077Y166400D02*
X133787D01*
X132900Y165513*
Y164000*
X131300Y162400D02*
G03X132900Y164000I0J1600D01*
G01X131300Y162400D02*
X127900D01*
X126500Y163225D02*
G03X127900Y162400I1400J775D01*
G01X125400Y162428D02*
G03X126500Y163225I-300J1572D01*
G01X125400Y162428D02*
Y161987D01*
X126600Y161175D02*
G03X125400Y161987I-1400J-775D01*
G01X128000Y162000D02*
G03X126600Y161175I0J-1600D01*
G01X128000Y162000D02*
X131400D01*
X133000Y160400D02*
G03X131400Y162000I-1600J0D01*
G01X133000Y160400D02*
Y159357D01*
X133950Y158953*
X132976Y154575D02*
G03X133950Y158953I2124J1825D01*
G01X133000Y154300D02*
G03X132976Y154575I-1600J0D01*
G01X133000Y154300D02*
Y151700D01*
X131718Y150132D02*
G03X133000Y151700I-318J1568D01*
G01X127519Y150174D02*
G03X131718Y150132I2081J-1874D01*
G01X126600Y150925D02*
G03X127519Y150174I1400J775D01*
G01X125400Y150113D02*
G03X126600Y150925I-200J1587D01*
G01X125400Y150113D02*
Y132310D01*
X132510Y125200*
X136100*
X137444Y124644D02*
G03X136100Y125200I-1344J-1344D01*
G01X137444Y124644D02*
X137900Y124187D01*
Y125900*
X139500Y127500D02*
G03X137900Y125900I0J-1600D01*
G01X139500Y127500D02*
X142900D01*
X144300Y126675D02*
G03X142900Y127500I-1400J-775D01*
G01X145700D02*
G03X144300Y126675I0J-1600D01*
G01X145700Y127500D02*
X149100D01*
X150700Y125900D02*
G03X149100Y127500I-1600J0D01*
G01X150700Y125900D02*
Y123987D01*
X151470Y123218*
X152026Y121874D02*
G03X151469Y123218I-1900J0D01*
G01X152026Y121874D02*
Y115916D01*
X154063Y113857D02*
G03X152026Y115916I-3937J-1857D01*
G01X154063Y110143D02*
G03Y113857I3937J1857D01*
G01X146189Y110143D02*
G03X154063I3937J1857D01*
G01X138315D02*
G03X146189I3937J1857D01*
G01X132478Y115916D02*
G03X138315Y110143I1900J-3916D01*
G01X132478Y115916D02*
Y116315D01*
X131100Y117900D02*
G03X132478Y116315I1600J0D01*
G01X131100Y117900D02*
Y120500D01*
X131397Y121428D02*
G03X131100Y120500I1303J-928D01*
G01X130380Y121956D02*
G03X131397Y121428I1343J1344D01*
G01X130380Y121956D02*
X122156Y130180D01*
X121600Y131523D02*
G03X122156Y130180I1900J0D01*
G01X121600Y131523D02*
Y150113D01*
X120200Y151700D02*
G03X121600Y150113I1600J0D01*
G01X120200Y151700D02*
Y154300D01*
X121600Y155887D02*
G03X120200Y154300I200J-1587D01*
G01X121600Y155887D02*
Y156213D01*
X120200Y157800D02*
G03X121600Y156213I1600J0D01*
G01X120200Y157800D02*
Y160400D01*
X121600Y161987D02*
G03X120200Y160400I200J-1587D01*
G01X121600Y161987D02*
Y162403D01*
X120100Y163992D02*
G03X121600Y162403I1600J8D01*
G01X120100Y163992D02*
Y102500D01*
X282169*
X295500Y115831D02*
G03X282169Y102500I-7500J-5831D01*
G01X210625Y113100D02*
X211255D01*
X210925Y113590D02*
G03X211255Y113100I2475J1310D01*
G01X210625D02*
G03X210925Y113590I-2225J1700D01*
G01X289557Y165633D02*
G03X285843I-1857J3937D01*
G01X289557Y157759D02*
G03Y165633I-1857J3937D01*
G01Y149885D02*
G03Y157759I-1857J3937D01*
G01Y142011D02*
G03Y149885I-1857J3937D01*
G01Y134137D02*
G03Y142011I-1857J3937D01*
G01X285843Y134137D02*
G03X289557I1857J-3937D01*
G01X285843Y142011D02*
G03Y134137I1857J-3937D01*
G01Y149885D02*
G03Y142011I1857J-3937D01*
G01X284069Y151422D02*
G03X285843Y149885I3631J2400D01*
G01X284069Y151422D02*
X282363D01*
X280666Y152125D02*
G03X282363Y151422I1697J1697D01*
G01X280666Y152125D02*
X279591Y153200D01*
X279162*
X278000Y152700D02*
G03X279162Y153200I0J1600D01*
G01X278000Y152700D02*
X276700D01*
X276300*
X274600*
X273200Y153525D02*
G03X274600Y152700I1400J775D01*
G01X271800D02*
G03X273200Y153525I0J1600D01*
G01X271800Y152700D02*
X268400D01*
X266800Y154300D02*
G03X268400Y152700I1600J0D01*
G01X266800Y154300D02*
Y156900D01*
X267342Y158100D02*
G03X266800Y156900I1058J-1200D01*
G01Y159300D02*
G03X267342Y158100I1600J0D01*
G01X266800Y159300D02*
Y161900D01*
X268400Y163500D02*
G03X266800Y161900I0J-1600D01*
G01X268400Y163500D02*
X271800D01*
X273200Y162675D02*
G03X271800Y163500I-1400J-775D01*
G01X274600D02*
G03X273200Y162675I0J-1600D01*
G01X274600Y163500D02*
X278000D01*
X279162Y163000D02*
G03X278000Y163500I-1162J-1100D01*
G01X279162Y163000D02*
X279906D01*
X280299Y163393*
X281996Y164096D02*
G03X280299Y163393I0J-2400D01*
G01X281996Y164096D02*
X284069D01*
X285843Y165633D02*
G03X284069Y164096I1857J-3937D01*
G01X272100Y183600D02*
Y180200D01*
X271275Y178800D02*
G03X272100Y180200I-775J1400D01*
G01Y177400D02*
G03X271275Y178800I-1600J0D01*
G01X272100Y177400D02*
Y174000D01*
X271673Y172912D02*
G03X272100Y174000I-1173J1088D01*
G01X266727Y172912D02*
G03X271673I2473J-1312D01*
G01X266300Y174000D02*
G03X266727Y172912I1600J0D01*
G01X266300Y174000D02*
Y177400D01*
X267125Y178800D02*
G03X266300Y177400I775J-1400D01*
G01X266313Y180000D02*
G03X267125Y178800I1587J200D01*
G01X266313Y180000D02*
X265100D01*
Y166657*
X261300D02*
G03X265100I1900J-2057D01*
G01X261300D02*
Y181900D01*
Y182543*
X265883Y183800D02*
G03X261300Y182543I-2683J800D01*
G01X265883Y183800D02*
X266313D01*
X267900Y185200D02*
G03X266313Y183800I0J-1600D01*
G01X267900Y185200D02*
X270500D01*
X272100Y183600D02*
G03X270500Y185200I-1600J0D01*
G01X256000Y124543D02*
G03X252200I-1900J2057D01*
G01X256000D02*
Y122023D01*
X255444Y120680D02*
G03X256000Y122023I-1344J1343D01*
G01X255444Y120680D02*
X244320Y109556D01*
X242977Y109000D02*
G03X244320Y109556I-0J1900D01*
G01X242977Y109000D02*
X236400D01*
X235056Y109556D02*
G03X236400Y109000I1344J1344D01*
G01X235056Y109556D02*
X229313Y115300D01*
X225211*
X222065Y111834D02*
G03X225211Y115300I435J2766D01*
G01X222065Y111834D02*
X220100Y110280D01*
Y108900*
X218500Y107300D02*
G03X220100Y108900I0J1600D01*
G01X218500Y107300D02*
X215100D01*
X213700Y108125D02*
G03X215100Y107300I1400J775D01*
G01X212300D02*
G03X213700Y108125I0J1600D01*
G01X212300Y107300D02*
X208900D01*
X207300Y108900D02*
G03X208900Y107300I1600J0D01*
G01X207300Y108900D02*
Y111500D01*
X207446Y112168D02*
G03X207300Y111500I1454J-668D01*
G01X208511Y117598D02*
G03X207446Y112168I-111J-2798D01*
G01X208511Y117598D02*
X213636Y122723D01*
X213000Y124000D02*
G03X213636Y122723I1600J0D01*
G01X213000Y124000D02*
Y127400D01*
X213825Y128800D02*
G03X213000Y127400I775J-1400D01*
G01X213091Y129668D02*
G03X213825Y128800I1509J532D01*
G01X213091Y134132D02*
G03Y129668I-1691J-2232D01*
G01X214600Y135200D02*
G03X213091Y134132I0J-1600D01*
G01X214600Y135200D02*
X217200D01*
X218572Y134423D02*
G03X217200Y135200I-1372J-823D01*
G01X220000Y135300D02*
G03X218572Y134423I0J-1600D01*
G01X220000Y135300D02*
X222600D01*
X224100Y134257D02*
G03X222600Y135300I-1500J-557D01*
G01X224100Y134257D02*
Y145813D01*
X220511Y149402*
X223198Y152089D02*
G03X220511Y149402I-2798J111D01*
G01X223198Y152089D02*
X227344Y147944D01*
X227900Y146600D02*
G03X227344Y147944I-1900J0D01*
G01X227900Y146600D02*
Y133857D01*
X226834Y129127D02*
G03X227900Y133857I-834J2673D01*
G01X227108Y123751D02*
G03X226834Y129127I-908J2649D01*
G01X227715Y120800D02*
G03X227108Y123751I-2615J1000D01*
G01X227715Y120800D02*
X232402D01*
X233746Y120244D02*
G03X232402Y120800I-1344J-1344D01*
G01X233746Y120244D02*
X238589Y115400D01*
X239843*
X244312Y114922D02*
G03X239843Y115400I-2412J-1422D01*
G01X244312Y114922D02*
X252200Y122810D01*
Y124543*
X254800Y140257D02*
G03X258600I1900J-2057D01*
G01X254800D02*
Y142013D01*
X253556Y143256*
X253000Y144600D02*
G03X253556Y143256I1900J0D01*
G01X253000Y144600D02*
Y147243D01*
X256800D02*
G03X253000I-1900J2057D01*
G01X256800D02*
Y145387D01*
X258044Y144144*
X258600Y142800D02*
G03X258044Y144144I-1900J0D01*
G01X258600Y142800D02*
Y140257D01*
X259024Y194772D02*
G03X263125Y198874I4882J-780D01*
G01X259024Y194772D02*
X255496Y198300D01*
X237646*
X235595Y199149D02*
G03X237646Y198300I2051J2051D01*
G01X235595Y199149D02*
X221892Y212852D01*
X218163Y215343D02*
G03X221892Y212852I3937J1857D01*
G01X210289Y215343D02*
G03X218163I3937J1857D01*
G01X202795Y214691D02*
G03X210289Y215343I3557J2509D01*
G01X202795Y219709D02*
G03Y214691I-4711J-2509D01*
G01X210289Y219057D02*
G03X202795Y219709I-3937J-1857D01*
G01X218163Y219057D02*
G03X210289I-3937J-1857D01*
G01X225657Y219709D02*
G03X218163Y219057I-3557J-2509D01*
G01X231041Y211906D02*
G03X225657Y219709I-673J5294D01*
G01X231041Y211906D02*
X238847Y204100D01*
X255452*
X258251Y203649D02*
G03X255452Y204100I-251J7351D01*
G01X258748Y203251D02*
G03X258251Y203649I-2050J-2051D01*
G01X258748Y203251D02*
X263125Y198874D01*
X252500Y165300D02*
Y162700D01*
X250900Y161100D02*
G03X252500Y162700I0J1600D01*
G01X250900Y161100D02*
X247500D01*
X246100Y161925D02*
G03X247500Y161100I1400J775D01*
G01X244700D02*
G03X246100Y161925I0J1600D01*
G01X244700Y161100D02*
X241300D01*
X239700Y162700D02*
G03X241300Y161100I1600J0D01*
G01X239700Y162700D02*
Y163000D01*
X209001*
X202800Y156799*
Y155854*
X203400Y153437D02*
G03X202800Y155854I-1693J863D01*
G01X203400Y153437D02*
Y134800D01*
X201500Y132900D02*
G03X203400Y134800I0J1900D01*
G01X201500Y132900D02*
X192594D01*
X193497Y131997*
X194200Y130300D02*
G03X193497Y131997I-2400J0D01*
G01X194200Y130300D02*
Y125500D01*
X193497Y123803D02*
G03X194200Y125500I-1697J1697D01*
G01X193497Y123803D02*
X190600Y120906D01*
Y119942*
X186150Y116593D02*
G03X190600Y119942I2050J1907D01*
G01X182140Y116500D02*
G03X186150Y116593I1960J2000D01*
G01X182140Y116500D02*
X168161D01*
X169380Y120300D02*
G03X168161Y116500I-2480J-1300D01*
G01X169380Y120300D02*
X181955D01*
X185800Y120725D02*
G03X181955Y120300I-1700J-2225D01*
G01X185800Y120725D02*
Y121900D01*
X186503Y123597D02*
G03X185800Y121900I1697J-1697D01*
G01X186503Y123597D02*
X187552Y124646D01*
X186643Y125300D02*
G03X187552Y124646I2057J1900D01*
G01X186643Y125300D02*
X185523D01*
X184180Y125856D02*
G03X185523Y125300I1343J1344D01*
G01X184180Y125856D02*
X183395Y126641D01*
X177902Y127511D02*
G03X183395Y126641I2798J-111D01*
G01X177902Y127511D02*
X172887Y132526D01*
X171856Y133056D02*
G03X172887Y132526I1344J1344D01*
G01X171856Y133056D02*
X166311Y138602D01*
X166639Y144165D02*
G03X166311Y138602I-439J-2765D01*
G01X172097Y144454D02*
G03X166639Y144165I-2697J-754D01*
G01X176798Y142289D02*
G03X172097Y144454I-2798J111D01*
G01X176798Y142289D02*
X182000Y137087D01*
Y154300*
X183900Y156200D02*
G03X182000Y154300I0J-1900D01*
G01X183900Y156200D02*
X197000D01*
Y158000*
X197849Y160051D02*
G03X197000Y158000I2051J-2051D01*
G01X197849Y160051D02*
X200799Y163000D01*
X196900*
X195000Y164900D02*
G03X196900Y163000I1900J0D01*
G01X195000Y164900D02*
Y179100D01*
X196900Y181000D02*
G03X195000Y179100I0J-1900D01*
G01X196900Y181000D02*
X210600D01*
Y182600*
X212500Y184500D02*
G03X210600Y182600I0J-1900D01*
G01X212500Y184500D02*
X216400D01*
Y188900*
X218300Y190800D02*
G03X216400Y188900I0J-1900D01*
G01X218300Y190800D02*
X223900D01*
X223911D02*
G03X223900I-11J-1900D01*
G01X223911D02*
Y193111D01*
X224100Y194141D02*
G03X223911Y193111I2711J-1030D01*
G01X224100Y194141D02*
Y195600D01*
X225800Y197300D02*
G03X224100Y195600I0J-1700D01*
G01X225800Y197300D02*
X231200D01*
X232784Y196218D02*
G03X231200Y197300I-1584J-618D01*
G01X234151Y195451D02*
G03X232784Y196218I-2051J-2051D01*
G01X234151Y195451D02*
X234801Y194800D01*
X235300*
X236900Y193200D02*
G03X235300Y194800I-1600J0D01*
G01X236900Y193200D02*
Y189800D01*
X236075Y188400D02*
G03X236900Y189800I-775J1400D01*
G01Y187000D02*
G03X236075Y188400I-1600J0D01*
G01X236900Y187000D02*
Y185300D01*
Y184900*
X244600*
X246500Y183000D02*
G03X244600Y184900I-1900J0D01*
G01X246500Y183000D02*
Y175701D01*
X249051Y173151*
X249900Y171100D02*
G03X249051Y173151I-2900J0D01*
G01X249900Y171100D02*
Y171000D01*
X246500Y168143D02*
G03X249900Y171000I500J2857D01*
G01X246500Y168143D02*
Y166549D01*
X247500Y166900D02*
G03X246500Y166549I0J-1600D01*
G01X247500Y166900D02*
X250900D01*
X252500Y165300D02*
G03X250900Y166900I-1600J0D01*
G01X194500Y176700D02*
Y167300D01*
X193944Y165956D02*
G03X194500Y167300I-1344J1344D01*
G01X193944Y165956D02*
X193198Y165211D01*
X190511Y167898D02*
G03X193198Y165211I-111J-2798D01*
G01X190511Y167898D02*
X190700Y168087D01*
Y170589*
X187943Y171400D02*
G03X190700Y170589I2057J1900D01*
G01X187943Y171400D02*
X178300D01*
X177451Y171600D02*
G03X178300Y171400I849J1700D01*
G01X177451Y171600D02*
X168457D01*
Y175400D02*
G03Y171600I-2057J-1900D01*
G01Y175400D02*
X178100D01*
X178949Y175200D02*
G03X178100Y175400I-849J-1700D01*
G01X178949Y175200D02*
X187943D01*
X189385Y176032D02*
G03X187943Y175200I615J-2732D01*
G01X193299Y178688D02*
G03X189385Y176032I-2799J-88D01*
G01X193299Y178688D02*
X193944Y178044D01*
X194500Y176700D02*
G03X193944Y178044I-1900J0D01*
G01X183900Y153699D02*
X201500D01*
X183900Y152799D02*
X201500D01*
X183900Y151899D02*
X201500D01*
X183900Y150999D02*
X201500D01*
X183900Y150099D02*
X201500D01*
X183900Y149199D02*
X201500D01*
X183900Y148299D02*
X201500D01*
X183900Y147399D02*
X201500D01*
X183900Y146499D02*
X201500D01*
X183900Y145599D02*
X201500D01*
X183900Y144699D02*
X201500D01*
X183900Y143799D02*
X201500D01*
X183900Y142899D02*
X201500D01*
X183900Y141999D02*
X201500D01*
X183900Y141099D02*
X201500D01*
X183900Y140199D02*
X201500D01*
X183900Y139299D02*
X201500D01*
X183900Y138399D02*
X201500D01*
X183900Y137499D02*
X201500D01*
X183900Y136599D02*
X201500D01*
X183900Y135699D02*
X201500D01*
X197500Y194999D02*
X223600D01*
X197500Y194099D02*
X223600D01*
X197500Y193199D02*
X223600D01*
X197500Y192299D02*
X223600D01*
X197500Y191399D02*
X223600D01*
X197500Y190499D02*
X217273D01*
X197500Y189599D02*
X216533D01*
X197500Y188699D02*
X216400D01*
X197500Y187799D02*
X216400D01*
X197500Y186899D02*
X216400D01*
X197500Y185999D02*
X216400D01*
X197500Y185099D02*
X216400D01*
X197500Y184199D02*
X211473D01*
X197500Y183299D02*
X210400D01*
X197500Y182399D02*
X210400D01*
X197500Y181499D02*
X210400D01*
X241188Y168499D02*
X244600D01*
X242088Y167599D02*
X244600D01*
X240227Y169399D02*
X244582D01*
X236284Y170299D02*
X243700D01*
X236030Y171199D02*
X242800D01*
X235354Y172099D02*
X241900D01*
X196900Y172999D02*
X241000D01*
X238985Y173899D02*
X239015D01*
X196900Y165799D02*
X238514D01*
X196900Y166699D02*
X234114D01*
X196900Y173899D02*
X232815D01*
X196900Y174799D02*
X232600D01*
X196900Y175699D02*
X232100D01*
X196900Y167599D02*
X232060D01*
X196900Y172099D02*
X231646D01*
X196900Y176599D02*
X231408D01*
X196900Y168499D02*
X231136D01*
X196900Y177499D02*
X231128D01*
X228099Y182899D02*
X231100D01*
X212500Y181999D02*
X231100D01*
X212500Y181099D02*
X231100D01*
X212500Y180199D02*
X231100D01*
X212500Y179299D02*
X231100D01*
X196900Y178399D02*
X231100D01*
X196900Y171199D02*
X230970D01*
X196900Y169399D02*
X230765D01*
X196900Y170299D02*
X230716D01*
X218515Y182899D02*
X225523D01*
X218800Y188299D02*
X223900D01*
X218800Y187399D02*
X223900D01*
X218800Y186499D02*
X223900D01*
X218800Y185599D02*
X223900D01*
X218800Y184699D02*
X223900D01*
X218797Y183799D02*
X223900D01*
X295282Y213899D02*
X295500D01*
X294421Y212999D02*
X295500D01*
X293274Y212099D02*
X295500D01*
X291576Y211199D02*
X295500D01*
X265322Y210299D02*
X295500D01*
X265179Y209399D02*
X295500D01*
X264917Y208499D02*
X295500D01*
X264522Y207599D02*
X295500D01*
X263967Y206699D02*
X295500D01*
X263201Y205799D02*
X295500D01*
X262108Y204899D02*
X295500D01*
X260255Y203999D02*
X295500D01*
X258900Y203099D02*
X295500D01*
X259800Y202199D02*
X295500D01*
X260700Y201299D02*
X295500D01*
X261600Y200399D02*
X295500D01*
X262500Y199499D02*
X295500D01*
X265699Y198599D02*
X295500D01*
X267176Y197699D02*
X295500D01*
X267975Y196799D02*
X295500D01*
X268466Y195899D02*
X295500D01*
X268745Y194999D02*
X295500D01*
X268848Y194099D02*
X295500D01*
X268785Y193199D02*
X295500D01*
X268550Y192299D02*
X295500D01*
X268114Y191399D02*
X295500D01*
X267403Y190499D02*
X295500D01*
X266171Y189599D02*
X295500D01*
X236461Y188699D02*
X295500D01*
X236686Y187799D02*
X295500D01*
X264799Y186899D02*
X295500D01*
X265626Y185999D02*
X295500D01*
X271060Y185099D02*
X295500D01*
X271984Y184199D02*
X295500D01*
X272100Y183299D02*
X295500D01*
X272100Y182399D02*
X295500D01*
X272100Y181499D02*
X295500D01*
X272100Y180599D02*
X295500D01*
X272019Y179699D02*
X295500D01*
X271277Y178799D02*
X295500D01*
X272020Y177899D02*
X295500D01*
X272100Y176999D02*
X295500D01*
X272100Y176099D02*
X295500D01*
X272100Y175199D02*
X295500D01*
X272100Y174299D02*
X295500D01*
X289771Y173399D02*
X295500D01*
X290920Y172499D02*
X295500D01*
X291551Y171599D02*
X295500D01*
X291904Y170699D02*
X295500D01*
X292047Y169799D02*
X295500D01*
X292001Y168899D02*
X295500D01*
X291759Y167999D02*
X295500D01*
X291283Y167099D02*
X295500D01*
X290453Y166199D02*
X295500D01*
X290143Y165299D02*
X295500D01*
X291112Y164399D02*
X295500D01*
X291662Y163499D02*
X295500D01*
X291958Y162599D02*
X295500D01*
X292053Y161699D02*
X295500D01*
X291959Y160799D02*
X295500D01*
X291664Y159899D02*
X295500D01*
X291116Y158999D02*
X295500D01*
X290151Y158099D02*
X295500D01*
X290447Y157199D02*
X295500D01*
X291280Y156299D02*
X295500D01*
X291757Y155399D02*
X295500D01*
X292000Y154499D02*
X295500D01*
X292047Y153599D02*
X295500D01*
X291905Y152699D02*
X295500D01*
X291554Y151799D02*
X295500D01*
X290925Y150899D02*
X295500D01*
X289781Y149999D02*
X295500D01*
X290703Y149099D02*
X295500D01*
X291426Y148199D02*
X295500D01*
X291838Y147299D02*
X295500D01*
X292029Y146399D02*
X295500D01*
X292030Y145499D02*
X295500D01*
X291838Y144599D02*
X295500D01*
X291427Y143699D02*
X295500D01*
X290705Y142799D02*
X295500D01*
X289778Y141899D02*
X295500D01*
X290924Y140999D02*
X295500D01*
X291553Y140099D02*
X295500D01*
X291905Y139199D02*
X295500D01*
X292047Y138299D02*
X295500D01*
X292000Y137399D02*
X295500D01*
X291758Y136499D02*
X295500D01*
X291280Y135599D02*
X295500D01*
X290448Y134699D02*
X295500D01*
X290149Y133799D02*
X295500D01*
X291115Y132899D02*
X295500D01*
X291664Y131999D02*
X295500D01*
X291959Y131099D02*
X295500D01*
X292053Y130199D02*
X295500D01*
X291958Y129299D02*
X295500D01*
X291663Y128399D02*
X295500D01*
X291113Y127499D02*
X295500D01*
X290145Y126599D02*
X295500D01*
X256751Y125699D02*
X295500D01*
X256244Y124799D02*
X295500D01*
X256000Y123899D02*
X295500D01*
X256000Y122999D02*
X295500D01*
X256000Y122099D02*
X295500D01*
X255812Y121199D02*
X295500D01*
X255063Y120299D02*
X295500D01*
X289384Y119399D02*
X295500D01*
X292245Y118499D02*
X295500D01*
X293702Y117599D02*
X295500D01*
X294736Y116699D02*
X295500D01*
X254163Y119399D02*
X286616D01*
X271983Y173399D02*
X285629D01*
X258600Y141899D02*
X285622D01*
X257611Y149999D02*
X285619D01*
X265911Y165299D02*
X285257D01*
X256900Y126599D02*
X285255D01*
X227961Y133799D02*
X285251D01*
X227900Y134699D02*
X284952D01*
X265499Y166199D02*
X284947D01*
X257693Y149099D02*
X284697D01*
X258600Y142799D02*
X284695D01*
X271852Y172499D02*
X284480D01*
X258600Y140999D02*
X284476D01*
X257199Y150899D02*
X284475D01*
X265353Y211199D02*
X284424D01*
X265993Y164399D02*
X284288D01*
X256752Y127499D02*
X284287D01*
X228575Y132899D02*
X284285D01*
X257736Y135599D02*
X284120D01*
X265100Y167099D02*
X284117D01*
X257474Y148199D02*
X283974D01*
X258374Y143699D02*
X283973D01*
X272000Y171599D02*
X283849D01*
X258758Y140099D02*
X283847D01*
X253263Y118499D02*
X283755D01*
X256246Y128399D02*
X283737D01*
X228793Y131999D02*
X283736D01*
X258924Y136499D02*
X283642D01*
X265100Y167999D02*
X283641D01*
X256858Y147299D02*
X283562D01*
X257588Y144599D02*
X283562D01*
X271851Y170699D02*
X283496D01*
X259316Y139199D02*
X283495D01*
X254846Y129299D02*
X283442D01*
X228711Y131099D02*
X283441D01*
X259383Y137399D02*
X283400D01*
X269937Y168899D02*
X283399D01*
X256800Y146399D02*
X283371D01*
X256800Y145499D02*
X283370D01*
X271344Y169799D02*
X283353D01*
X259498Y138299D02*
X283353D01*
X228297Y130199D02*
X283347D01*
X265273Y212099D02*
X282726D01*
X252363Y117599D02*
X282298D01*
X136984Y227399D02*
X282041D01*
X265079Y212999D02*
X281579D01*
X120100Y103199D02*
X281367D01*
X251463Y116699D02*
X281264D01*
X256164Y151799D02*
X281072D01*
X137497Y226499D02*
X281071D01*
X264760Y213899D02*
X280718D01*
X120100Y104099D02*
X280555D01*
X250563Y115799D02*
X280475D01*
X278065Y163499D02*
X280412D01*
X137500Y225599D02*
X280325D01*
X223155Y152699D02*
X280092D01*
X264299Y214799D02*
X280050D01*
X120100Y104999D02*
X279923D01*
X249663Y114899D02*
X279860D01*
X137500Y224699D02*
X279743D01*
X263659Y215699D02*
X279530D01*
X120100Y105899D02*
X279431D01*
X248763Y113999D02*
X279383D01*
X137500Y223799D02*
X279293D01*
X262771Y216599D02*
X279130D01*
X120100Y106799D02*
X279056D01*
X247863Y113099D02*
X279020D01*
X137500Y222899D02*
X278953D01*
X261445Y217499D02*
X278835D01*
X219557Y107699D02*
X278783D01*
X246963Y112199D02*
X278758D01*
X232704Y221999D02*
X278713D01*
X235568Y218399D02*
X278636D01*
X220071Y108599D02*
X278604D01*
X246063Y111299D02*
X278589D01*
X234012Y221099D02*
X278564D01*
X235275Y219299D02*
X278526D01*
X244260Y109499D02*
X278513D01*
X245163Y110399D02*
X278508D01*
X234783Y220199D02*
X278502D01*
X271865Y163499D02*
X274535D01*
X265100Y168899D02*
X268463D01*
X265774Y163499D02*
X268335D01*
X204100Y158099D02*
X267340D01*
X265955Y185099D02*
X267340D01*
X265100Y178799D02*
X267123D01*
X265100Y169799D02*
X267056D01*
X222826Y153599D02*
X266962D01*
X265158Y162599D02*
X266961D01*
X205000Y158999D02*
X266829D01*
X203200Y157199D02*
X266828D01*
X252148Y161699D02*
X266800D01*
X206800Y160799D02*
X266800D01*
X205900Y159899D02*
X266800D01*
X202800Y156299D02*
X266800D01*
X203257Y155399D02*
X266800D01*
X221999Y154499D02*
X266800D01*
X265100Y170699D02*
X266549D01*
X265100Y172499D02*
X266548D01*
X265100Y173399D02*
X266417D01*
X265971Y184199D02*
X266416D01*
X265100Y171599D02*
X266400D01*
X265100Y179699D02*
X266381D01*
X265100Y177899D02*
X266380D01*
X265100Y176999D02*
X266300D01*
X265100Y176099D02*
X266300D01*
X265100Y175199D02*
X266300D01*
X265100Y174299D02*
X266300D01*
X236887Y189599D02*
X261640D01*
X236900Y186899D02*
X261601D01*
X246500Y182399D02*
X261300D01*
X246500Y181499D02*
X261300D01*
X246500Y180599D02*
X261300D01*
X246500Y179699D02*
X261300D01*
X246500Y178799D02*
X261300D01*
X246500Y177899D02*
X261300D01*
X246500Y176999D02*
X261300D01*
X246500Y176099D02*
X261300D01*
X247003Y175199D02*
X261300D01*
X247903Y174299D02*
X261300D01*
X248803Y173399D02*
X261300D01*
X249540Y172499D02*
X261300D01*
X249857Y171599D02*
X261300D01*
X249884Y170699D02*
X261300D01*
X249640Y169799D02*
X261300D01*
X248999Y168899D02*
X261300D01*
X246500Y167999D02*
X261300D01*
X246500Y167099D02*
X261300D01*
X252497Y162599D02*
X261242D01*
X252224Y166199D02*
X260901D01*
X236900Y185999D02*
X260774D01*
X246476Y183299D02*
X260721D01*
X252500Y163499D02*
X260626D01*
X252500Y165299D02*
X260489D01*
X236900Y185099D02*
X260445D01*
X246074Y184199D02*
X260429D01*
X236900Y190499D02*
X260408D01*
X252500Y164399D02*
X260407D01*
X236900Y191399D02*
X259697D01*
X236900Y192299D02*
X259261D01*
X236900Y193199D02*
X259026D01*
X236624Y194099D02*
X258963D01*
X234603Y194999D02*
X258798D01*
X233572Y195899D02*
X257898D01*
X232405Y196799D02*
X256998D01*
X120100Y197699D02*
X256098D01*
X227900Y135599D02*
X255664D01*
X227900Y141899D02*
X254800D01*
X227900Y140999D02*
X254800D01*
X227900Y140099D02*
X254642D01*
X235696Y217499D02*
X254555D01*
X227900Y136499D02*
X254476D01*
X227900Y139199D02*
X254084D01*
X227900Y137399D02*
X254017D01*
X227900Y142799D02*
X254014D01*
X227900Y138299D02*
X253902D01*
X238048Y204899D02*
X253892D01*
X223488Y151799D02*
X253636D01*
X227258Y129299D02*
X253354D01*
X235671Y216599D02*
X253229D01*
X227900Y143699D02*
X253227D01*
X227900Y146399D02*
X253000D01*
X227900Y145499D02*
X253000D01*
X227900Y144599D02*
X253000D01*
X227767Y147299D02*
X252942D01*
X237148Y205799D02*
X252799D01*
X224388Y150899D02*
X252601D01*
X235489Y215699D02*
X252341D01*
X227088Y148199D02*
X252326D01*
X227458Y123899D02*
X252200D01*
X227630Y122999D02*
X252200D01*
X225288Y149999D02*
X252189D01*
X226188Y149099D02*
X252107D01*
X236248Y206699D02*
X252033D01*
X228497Y124799D02*
X251956D01*
X228161Y128399D02*
X251954D01*
X235134Y214799D02*
X251701D01*
X227884Y122099D02*
X251489D01*
X235348Y207599D02*
X251478D01*
X228911Y125699D02*
X251449D01*
X228775Y127499D02*
X251448D01*
X228993Y126599D02*
X251300D01*
X234561Y213899D02*
X251240D01*
X234448Y208499D02*
X251083D01*
X233659Y212999D02*
X250921D01*
X233548Y209399D02*
X250821D01*
X231936Y212099D02*
X250727D01*
X232648Y210299D02*
X250678D01*
X231748Y211199D02*
X250647D01*
X227835Y121199D02*
X250589D01*
X233688Y120299D02*
X249689D01*
X234590Y119399D02*
X248789D01*
X235490Y118499D02*
X247889D01*
X236390Y117599D02*
X246989D01*
X245948Y161699D02*
X246252D01*
X237290Y116699D02*
X246089D01*
X243499Y115799D02*
X245189D01*
X238190D02*
X240301D01*
X207700Y161699D02*
X240052D01*
X208600Y162599D02*
X239703D01*
X120100Y198599D02*
X236364D01*
X120100Y199499D02*
X235246D01*
X220100Y109499D02*
X235117D01*
X120100Y200399D02*
X234346D01*
X220250Y110399D02*
X234214D01*
X120100Y201299D02*
X233446D01*
X221388Y111299D02*
X233314D01*
X120100Y202199D02*
X232546D01*
X223940Y112199D02*
X232414D01*
X120100Y203099D02*
X231646D01*
X224864Y113099D02*
X231514D01*
X120100Y203999D02*
X230746D01*
X225235Y113999D02*
X230614D01*
X120100Y204899D02*
X229846D01*
X225284Y114899D02*
X229714D01*
X120100Y205799D02*
X228946D01*
X120100Y206699D02*
X228046D01*
X200420Y221999D02*
X228032D01*
X120100Y207599D02*
X227146D01*
X224036Y221099D02*
X226723D01*
X120100Y208499D02*
X226246D01*
X225255Y220199D02*
X225953D01*
X120100Y209399D02*
X225346D01*
X120100Y196799D02*
X224595D01*
X120100Y210299D02*
X224446D01*
X120100Y195899D02*
X224126D01*
X120100Y194999D02*
X224100D01*
X203400Y145499D02*
X224100D01*
X203400Y144599D02*
X224100D01*
X203400Y143699D02*
X224100D01*
X203400Y142799D02*
X224100D01*
X203400Y141899D02*
X224100D01*
X203400Y140999D02*
X224100D01*
X203400Y140099D02*
X224100D01*
X203400Y139199D02*
X224100D01*
X203400Y138299D02*
X224100D01*
X203400Y137399D02*
X224100D01*
X203400Y136499D02*
X224100D01*
X203400Y135599D02*
X224100D01*
X223850Y134699D02*
X224100D01*
X120100Y194099D02*
X224084D01*
X120100Y193199D02*
X223912D01*
X120100Y192299D02*
X223911D01*
X120100Y191399D02*
X223911D01*
X120100Y211199D02*
X223546D01*
X203400Y146399D02*
X223514D01*
X199653Y212099D02*
X222646D01*
X203400Y147299D02*
X222614D01*
X203400Y148199D02*
X221714D01*
X215364Y212999D02*
X220962D01*
X203400Y149099D02*
X220814D01*
X216162Y221099D02*
X220164D01*
X217063Y213899D02*
X219263D01*
X217381Y220199D02*
X218945D01*
X203597Y154499D02*
X218801D01*
X218363Y134699D02*
X218750D01*
X203400Y149999D02*
X218670D01*
X217856Y214799D02*
X218470D01*
X218039Y219299D02*
X218287D01*
X203473Y153599D02*
X217974D01*
X203400Y150899D02*
X217921D01*
X203400Y152699D02*
X217645D01*
X203400Y151799D02*
X217629D01*
X120100Y190499D02*
X217273D01*
X120100Y189599D02*
X216533D01*
X120100Y188699D02*
X216400D01*
X120100Y187799D02*
X216400D01*
X120100Y186899D02*
X216400D01*
X120100Y185999D02*
X216400D01*
X120100Y185099D02*
X216400D01*
X213357Y107699D02*
X214043D01*
X211486Y134699D02*
X213437D01*
X192693Y122999D02*
X213352D01*
X194200Y128399D02*
X213350D01*
X212436Y129299D02*
X213278D01*
X207490Y212999D02*
X213088D01*
X191793Y122099D02*
X213012D01*
X193588Y123899D02*
X213003D01*
X194200Y127499D02*
X213003D01*
X194200Y126599D02*
X213000D01*
X194200Y125699D02*
X213000D01*
X194095Y124799D02*
X213000D01*
X208288Y221099D02*
X212290D01*
X190893Y121199D02*
X212112D01*
X120100Y184199D02*
X211473D01*
X209189Y213899D02*
X211389D01*
X203397Y134699D02*
X211314D01*
X190600Y120299D02*
X211212D01*
X209507Y220199D02*
X211071D01*
X120100Y183299D02*
X210733D01*
X120100Y182399D02*
X210600D01*
X120100Y181499D02*
X210600D01*
X209982Y214799D02*
X210596D01*
X210165Y219299D02*
X210413D01*
X194200Y129299D02*
X210364D01*
X190852Y119399D02*
X210312D01*
X191000Y118499D02*
X209412D01*
X203115Y133799D02*
X209342D01*
X194200Y130199D02*
X209176D01*
X192595Y132899D02*
X208784D01*
X194063Y131099D02*
X208717D01*
X193495Y131999D02*
X208602D01*
X208486Y117599D02*
X208512D01*
X190851D02*
X208314D01*
X158667Y107699D02*
X207843D01*
X162348Y112199D02*
X207364D01*
X160716Y108599D02*
X207329D01*
X162296Y111299D02*
X207300D01*
X162048Y110399D02*
X207300D01*
X161562Y109499D02*
X207300D01*
X190344Y116699D02*
X206342D01*
X162212Y113099D02*
X206176D01*
X188937Y115799D02*
X205784D01*
X161867Y113999D02*
X205717D01*
X161247Y114899D02*
X205602D01*
X201376Y212999D02*
X205214D01*
X201729Y221099D02*
X204416D01*
X202278Y213899D02*
X203515D01*
X202499Y220199D02*
X203197D01*
X191658Y162599D02*
X200397D01*
X132335Y161699D02*
X199497D01*
X132950Y160799D02*
X198597D01*
X133000Y159899D02*
X197708D01*
X136143Y158999D02*
X197177D01*
X137326Y158099D02*
X197002D01*
X137784Y157199D02*
X197000D01*
X137898Y156299D02*
X197000D01*
X120100Y212099D02*
X196516D01*
X137500Y221999D02*
X195748D01*
X192461Y180599D02*
X195732D01*
X192697Y163499D02*
X195617D01*
X193075Y179699D02*
X195097D01*
X193111Y164399D02*
X195067D01*
X193293Y178799D02*
X195000D01*
X194074Y177899D02*
X195000D01*
X194476Y176999D02*
X195000D01*
X194500Y176099D02*
X195000D01*
X194500Y175199D02*
X195000D01*
X194500Y174299D02*
X195000D01*
X194500Y173399D02*
X195000D01*
X194500Y172499D02*
X195000D01*
X194500Y171599D02*
X195000D01*
X194500Y170699D02*
X195000D01*
X194500Y169799D02*
X195000D01*
X194500Y168899D02*
X195000D01*
X194500Y167999D02*
X195000D01*
X194489Y167099D02*
X195000D01*
X194148Y166199D02*
X195000D01*
X193286Y165299D02*
X195000D01*
X120100Y212999D02*
X194793D01*
X137500Y221099D02*
X194440D01*
X120100Y213899D02*
X193891D01*
X137500Y220199D02*
X193669D01*
X137331Y214799D02*
X193318D01*
X137500Y219299D02*
X193177D01*
X137500Y215699D02*
X192963D01*
X137500Y218399D02*
X192884D01*
X137500Y216599D02*
X192781D01*
X137500Y217499D02*
X192756D01*
X139112Y169799D02*
X190700D01*
X138363Y168899D02*
X190700D01*
X137463Y167999D02*
X190612D01*
X167443Y176099D02*
X189242D01*
X132072Y162599D02*
X189142D01*
X139300Y170699D02*
X188964D01*
X120100Y180599D02*
X188539D01*
X136563Y167099D02*
X188439D01*
X135688Y176999D02*
X188203D01*
X132819Y163499D02*
X188103D01*
X134261Y179699D02*
X187925D01*
X133586Y166199D02*
X187825D01*
X135093Y177899D02*
X187789D01*
X134875Y178799D02*
X187707D01*
X132900Y164399D02*
X187689D01*
X132900Y165299D02*
X187607D01*
X184837Y115799D02*
X187463D01*
X181736Y124799D02*
X187260D01*
X150788Y123899D02*
X186805D01*
X151657Y122999D02*
X186066D01*
X152013Y122099D02*
X185808D01*
X184846Y121199D02*
X185800D01*
X182924Y125699D02*
X184359D01*
X183383Y126599D02*
X183437D01*
X160125Y115799D02*
X183363D01*
X168634Y121199D02*
X183354D01*
X137715Y155399D02*
X182350D01*
X137156Y154499D02*
X182010D01*
X133000Y153599D02*
X182000D01*
X133000Y152699D02*
X182000D01*
X133000Y151799D02*
X182000D01*
X132785Y150899D02*
X182000D01*
X131826Y149999D02*
X182000D01*
X132284Y149099D02*
X182000D01*
X132398Y148199D02*
X182000D01*
X132215Y147299D02*
X182000D01*
X170146Y146399D02*
X182000D01*
X171546Y145499D02*
X182000D01*
X175734Y144599D02*
X182000D01*
X176481Y143699D02*
X182000D01*
X176771Y142799D02*
X182000D01*
X177188Y141899D02*
X182000D01*
X178088Y140999D02*
X182000D01*
X178988Y140099D02*
X182000D01*
X179888Y139199D02*
X182000D01*
X180788Y138299D02*
X182000D01*
X181688Y137399D02*
X182000D01*
X150700Y124799D02*
X179664D01*
X150700Y125699D02*
X178476D01*
X150539Y126599D02*
X178017D01*
X149165Y127499D02*
X177902D01*
X168456Y171599D02*
X177454D01*
X129311Y128399D02*
X177014D01*
X128411Y129299D02*
X176114D01*
X127511Y130199D02*
X175214D01*
X126611Y131099D02*
X174314D01*
X125711Y131999D02*
X173414D01*
X172052Y144599D02*
X172266D01*
X125400Y132899D02*
X172035D01*
X125400Y133799D02*
X171114D01*
X125400Y134699D02*
X170214D01*
X125400Y135599D02*
X169314D01*
X131656Y146399D02*
X168654D01*
X125400Y136499D02*
X168414D01*
X125400Y137399D02*
X167514D01*
X125400Y145499D02*
X167254D01*
X125400Y144599D02*
X166748D01*
X125400Y138299D02*
X166614D01*
X136765Y176099D02*
X165357D01*
X152026Y116699D02*
X165305D01*
X152026Y121199D02*
X165166D01*
X125400Y143699D02*
X164601D01*
X152026Y117599D02*
X164476D01*
X125400Y139199D02*
X164470D01*
X152026Y120299D02*
X164419D01*
X139300Y171599D02*
X164344D01*
X137665Y175199D02*
X164174D01*
X152026Y118499D02*
X164145D01*
X152026Y119399D02*
X164129D01*
X139300Y172499D02*
X163785D01*
X125400Y142799D02*
X163774D01*
X125400Y140099D02*
X163721D01*
X138565Y174299D02*
X163716D01*
X139195Y173399D02*
X163602D01*
X125400Y141899D02*
X163445D01*
X125400Y140999D02*
X163429D01*
X150793Y107699D02*
X157333D01*
X152251Y115799D02*
X155875D01*
X152842Y108599D02*
X155284D01*
X153373Y114899D02*
X154753D01*
X153688Y109499D02*
X154438D01*
X153993Y113999D02*
X154133D01*
X142919Y107699D02*
X149459D01*
X144968Y108599D02*
X147410D01*
X145814Y109499D02*
X146564D01*
X142965Y127499D02*
X145635D01*
X135045Y107699D02*
X141585D01*
X137094Y108599D02*
X139536D01*
X130211Y127499D02*
X139435D01*
X137940Y109499D02*
X138690D01*
X131111Y126599D02*
X138061D01*
X132011Y125699D02*
X137900D01*
X137268Y124799D02*
X137900D01*
X133843Y158999D02*
X134057D01*
X120100Y107699D02*
X133711D01*
X132988Y154499D02*
X133044D01*
X120100Y174299D02*
X133014D01*
X120100Y173399D02*
X132574D01*
X120100Y115799D02*
X132253D01*
X120100Y108599D02*
X131662D01*
X120100Y116699D02*
X131643D01*
X120100Y121199D02*
X131261D01*
X120100Y114899D02*
X131131D01*
X120100Y117599D02*
X131129D01*
X120100Y120299D02*
X131100D01*
X120100Y119399D02*
X131100D01*
X120100Y118499D02*
X131100D01*
X120100Y175199D02*
X131042D01*
X120100Y109499D02*
X130816D01*
X120100Y113999D02*
X130511D01*
X120100Y179699D02*
X130339D01*
X120100Y110399D02*
X130330D01*
X120100Y122099D02*
X130237D01*
X120100Y113099D02*
X130166D01*
X120100Y111299D02*
X130082D01*
X120100Y112199D02*
X130030D01*
X120100Y176099D02*
X130003D01*
X120100Y178799D02*
X129725D01*
X120100Y176999D02*
X129589D01*
X120100Y177899D02*
X129507D01*
X120100Y122999D02*
X129337D01*
X120100Y123899D02*
X128437D01*
X125400Y146399D02*
X127544D01*
X120100Y124799D02*
X127537D01*
X125400Y149999D02*
X127374D01*
X125872Y162599D02*
X127128D01*
X126135Y161699D02*
X127065D01*
X125400Y147299D02*
X126985D01*
X125400Y149099D02*
X126916D01*
X125400Y148199D02*
X126802D01*
X120100Y125699D02*
X126637D01*
X126585Y150899D02*
X126615D01*
X126424Y172499D02*
X126576D01*
X120100Y126599D02*
X125737D01*
X120100Y127499D02*
X124837D01*
X120100Y128399D02*
X123937D01*
X120100Y129299D02*
X123037D01*
X120100Y130199D02*
X122138D01*
X120100Y131099D02*
X121648D01*
X120100Y149999D02*
X121600D01*
X120100Y149099D02*
X121600D01*
X120100Y148199D02*
X121600D01*
X120100Y147299D02*
X121600D01*
X120100Y146399D02*
X121600D01*
X120100Y145499D02*
X121600D01*
X120100Y144599D02*
X121600D01*
X120100Y143699D02*
X121600D01*
X120100Y142799D02*
X121600D01*
X120100Y141899D02*
X121600D01*
X120100Y140999D02*
X121600D01*
X120100Y140099D02*
X121600D01*
X120100Y139199D02*
X121600D01*
X120100Y138299D02*
X121600D01*
X120100Y137399D02*
X121600D01*
X120100Y136499D02*
X121600D01*
X120100Y135599D02*
X121600D01*
X120100Y134699D02*
X121600D01*
X120100Y133799D02*
X121600D01*
X120100Y132899D02*
X121600D01*
X120100Y131999D02*
X121600D01*
X120100Y156299D02*
X121247D01*
X120100Y162599D02*
X120928D01*
X120100Y161699D02*
X120865D01*
X120100Y155399D02*
X120637D01*
X120100Y150899D02*
X120415D01*
X120100Y172499D02*
X120376D01*
X120100Y157199D02*
X120317D01*
X120100Y160799D02*
X120250D01*
X120100Y154499D02*
X120212D01*
X120100Y159899D02*
X120200D01*
X120100Y158999D02*
X120200D01*
X120100Y158099D02*
X120200D01*
X120100Y153599D02*
X120200D01*
X120100Y152699D02*
X120200D01*
X120100Y151799D02*
X120200D01*
X120100Y163499D02*
X120181D01*
X210600Y113100D02*
Y111700D01*
Y107300D02*
Y108700D01*
X207300Y110200D02*
X208700D01*
X249200Y161100D02*
Y162500D01*
Y166900D02*
Y165500D01*
X252500Y164000D02*
X251100D01*
X221300Y135300D02*
Y133900D01*
G54D24*
X215900Y125700D02*
X221300D01*
Y125800*
Y126031*
X226200*
Y126400*
X211400Y131900D02*
X215900D01*
G54D25*
X188200Y118500D02*
Y121900D01*
X191800Y125500*
Y130300*
X189100Y133000*
Y137900*
X287700Y153822D02*
X282363D01*
X280585Y155600*
X276300*
Y160600D02*
X280900D01*
X281996Y161696*
X287700*
G54D26*
X189300Y142100D02*
X191100D01*
X200000Y151000*
X199900Y151100*
Y158000*
X207900Y166000*
Y176400*
X276300Y155600D02*
X276700D01*
X276300Y160600D02*
X276700D01*
X235900Y176000D02*
X234000Y177900D01*
Y185300*
X247000Y171000D02*
Y171100D01*
X242100Y176000*
X226811Y186400D02*
Y193111D01*
X227100Y193400*
X228500*
X234000Y191500D02*
X232100Y193400D01*
X228500*
X263906Y193992D02*
X256698Y201200D01*
X237646*
X221873Y216973*
X222100Y217200*
G54D28*
X142500Y105000D03*
X155000D03*
X231600Y105400D03*
X253800Y107200D03*
X125000Y110000D03*
X188200Y118500D03*
X184100D03*
X208400Y114800D03*
X222500Y114600D03*
X217400Y114800D03*
X213400Y114900D03*
X241900Y113500D03*
X241000Y117700D03*
X262500Y112500D03*
X253800Y112200D03*
X125000Y120000D03*
X131300Y127400D03*
X145100Y119100D03*
X166900Y119000D03*
X180700Y127400D03*
X180600Y122500D03*
X188700Y127200D03*
X225100Y121800D03*
X226200Y126400D03*
X254100Y126600D03*
X155000Y130000D03*
X185500Y130900D03*
X189100Y137900D03*
X211400Y131900D03*
X205500Y137600D03*
X226000Y131800D03*
X262500Y130000D03*
X256700Y138200D03*
X260900Y138900D03*
X129600Y148300D03*
X166200Y141400D03*
X169400Y143700D03*
X174000Y142400D03*
X189300Y142100D03*
X135100Y156400D03*
X177500Y157500D03*
X179600Y150100D03*
X217500Y155000D03*
X220400Y152200D03*
X223700Y154500D03*
X242500Y150000D03*
X254900Y149300D03*
X270600Y149200D03*
X145000Y160000D03*
X165000D03*
X177500Y167500D03*
X190400Y165100D03*
X193000Y160700D03*
X221200Y166000D03*
X263200Y164600D03*
X132300Y177700D03*
X134800Y171700D03*
X145000Y175000D03*
X166400Y173500D03*
X178700Y177200D03*
X190500Y178600D03*
X190000Y173300D03*
X233500Y170000D03*
X247000Y171000D03*
X269200Y171600D03*
X125000Y180000D03*
X160000D03*
X263200Y184600D03*
X280000Y195000D03*
X292500D03*
X181000Y208000D03*
X204000Y199000D03*
X125000Y210000D03*
X145000D03*
X140000Y225000D03*
X150000D03*
X160000D03*
X202500D03*
X260000D03*
X270000D03*
G54D29*
X283347Y130200D02*
X284747D01*
X287700Y125847D02*
Y127247D01*
X292053Y130200D02*
X290653D01*
X142252Y107647D02*
Y109047D01*
G54D30*
X214213Y187975D02*
X215787D01*
Y184825*
X214213*
Y187975*
Y185039D02*
X215787D01*
X214213Y186220D02*
X215787D01*
X214213Y187402D02*
X215787D01*
X214567Y184825D02*
Y187975D01*
X215748Y184825D02*
Y187975D01*
X220118D02*
X221693D01*
Y184825*
X220118*
Y187975*
Y185039D02*
X221693D01*
X220118Y186220D02*
X221693D01*
X220118Y187402D02*
X221693D01*
X220472Y184825D02*
Y187975D01*
X221654Y184825D02*
Y187975D01*
X226024D02*
X227598D01*
Y184825*
X226024*
Y187975*
Y185039D02*
X227598D01*
X226024Y186220D02*
X227598D01*
X226024Y187402D02*
X227598D01*
X226378Y184825D02*
Y187975D01*
X227559Y184825D02*
Y187975D01*
G54D31*
X109500Y219600D03*
X288000Y220000D03*
X110000Y110000D03*
X288000D03*
G74*
X0Y0D02*
M02*
