%
T1C.015F095S3
X0125Y011
X0125Y012
X01313Y01274
X01296Y01483
X01323Y01777
X0125Y018
X0125Y021
X014Y0225
X015Y0225
X0145Y021
X0145Y0175
X01348Y01717
X0145Y016
X01351Y01564
X0155Y013
X01451Y01191
X0155Y0105
X01425Y0105
X01841Y01185
X01669Y0119
X01806Y01225
X01807Y01274
X01662Y01414
X0174Y01424
X01694Y01437
X01796Y01501
X01775Y01575
X0165Y016
X01775Y01675
X01664Y01735
X01787Y01772
X016Y018
X0181Y0208
X016Y0225
X02025Y0225
X0204Y0199
X01905Y01786
X019Y01733
X01904Y01651
X0193Y01607
X01893Y01421
X01891Y01379
X02055Y01376
X01855Y01309
X01887Y01272
X01882Y01185
X02084Y01148
X02316Y01054
X02225Y01146
X02174Y01148
X02134Y01149
X02251Y01218
X02262Y01264
X0226Y01318
X02114Y01319
X02204Y01522
X02237Y01545
X02175Y0155
X02212Y0166
X02335Y017
X0247Y0171
X02425Y015
X02549Y01493
X02567Y01382
X02541Y01266
X0241Y01177
X02419Y01135
X02538Y01122
X02538Y01072
X02625Y01125
X02625Y013
X02609Y01389
X02706Y01492
X02632Y01646
X02692Y01716
X02632Y01846
X028Y0195
X026Y0225
X027Y0225
X02925Y0195
T2C.0315F197S55
X013438Y0112
X0158Y0112
X015013Y0112
X014225Y0112
X020635Y02172
X021423Y02172
X02221Y02172
X02877Y01302
X02877Y013807
X02877Y014595
X02877Y015382
X02877Y01617
X02877Y016957
T3C.04016F139S55
X025209Y019399
X026391Y019399
T4C.05906F107S55
X019808Y02172
X023037Y02172
T5C.08661F074S55
X011Y011
X01095Y02196
X0288Y022
X0288Y011
T6C.11811F069S658
X0258Y0211
M30
