*
*
G04 PADS 9.3.1 Build Number: 456998 generated Gerber (RS-274-X) file*
G04 PC Version=2.1*
*
%IN "air_ssi_rev2_1.pcb"*%
*
%MOIN*%
*
%FSLAX35Y35*%
*
*
*
*
G04 PC Standard Apertures*
*
*
G04 Thermal Relief Aperture macro.*
%AMTER*
1,1,$1,0,0*
1,0,$1-$2,0,0*
21,0,$3,$4,0,0,45*
21,0,$3,$4,0,0,135*
%
*
*
G04 Annular Aperture macro.*
%AMANN*
1,1,$1,0,0*
1,0,$2,0,0*
%
*
*
G04 Odd Aperture macro.*
%AMODD*
1,1,$1,0,0*
1,0,$1-0.005,0,0*
%
*
*
G04 PC Custom Aperture Macros*
*
*
*
*
*
*
G04 PC Aperture Table*
*
%ADD010C,0.001*%
%ADD019C,0.01*%
%ADD020C,0.008*%
%ADD021C,0.00787*%
%ADD046C,0.005*%
%ADD047C,0.00787*%
%ADD048C,0.01969*%
%ADD049C,0.00984*%
%ADD050C,0.01024*%
%ADD051C,0.00591*%
*
*
*
*
G04 PC Circuitry*
G04 Layer Name air_ssi_rev2_1.pcb - circuitry*
%LPD*%
*
G54D10*
G01X152283Y218056D02*
X150823D01*
Y213050*
X152283*
Y218056*
X150191Y196773D02*
X147429D01*
X147390Y196854*
X147711Y197256*
X147720Y197265*
X148040Y197505*
X148521Y197906*
X149161Y198465*
X149559Y198944*
X149795Y199259*
X149952Y199651*
X150110Y200282*
X150033Y200901*
X149646Y201365*
X149098Y201678*
X148390Y201835*
X147685Y201757*
X147141Y201446*
X146752Y200900*
X146607Y200322*
X147228Y200253*
X147299Y200610*
X147308Y200630*
X147549Y200951*
X147559Y200961*
X147881Y201203*
X147881D02*
X147902Y201212D01*
X148385Y201292*
X148403*
X148804Y201212*
X148825Y201203*
X148825D02*
X149146Y200961D01*
X149151Y200957*
X149392Y200716*
X149406Y200690*
X149487Y200288*
Y200269*
X149406Y199867*
X149400Y199851*
X149159Y199449*
X149154Y199442*
X148672Y198880*
X148667Y198875*
X147943Y198232*
X147384Y197753*
X146749Y196958*
X146593Y196569*
X146523Y196150*
X150191*
Y196773*
X149871Y214701D02*
X149803Y215042D01*
X149664Y215389*
X149461Y215728*
X148770Y216073*
X148491Y216143*
X148488Y216144*
X148063Y216286*
X147569Y216427*
X147286Y216498*
X147276Y216501*
X147134Y216572*
X147109Y216601*
X147038Y216814*
X147040Y216852*
X147182Y217136*
X147208Y217160*
X147563Y217302*
X147597Y217303*
X148023Y217161*
X148052Y217136*
X148194Y216852*
X148197Y216842*
X148258Y216598*
X149714Y216664*
X149523Y217302*
X149110Y217782*
X148561Y218057*
X147653Y218127*
X146953Y218057*
X146465Y217918*
X146053Y217712*
X145781Y217372*
X145644Y217028*
X145576Y216689*
X145713Y216141*
X145985Y215734*
X146256Y215598*
X146260Y215596*
X146611Y215385*
X146956Y215247*
X147447Y215177*
X147459Y215174*
X147956Y214961*
X147959Y214960*
X148242Y214818*
X148255Y214808*
X148397Y214667*
X148412Y214631*
Y214418*
X148406Y214396*
X148337Y214257*
X148267Y214048*
X148248Y214022*
X148035Y213880*
X148007Y213872*
X147723*
X147714Y213873*
X147359Y213944*
X147339Y213953*
X147055Y214166*
X147044Y214178*
X146902Y214391*
X146894Y214409*
X146832Y214721*
X145373Y214655*
X145501Y214014*
X145915Y213461*
X146187Y213258*
X146603Y213119*
X147092Y212979*
X147650*
X148353Y213049*
X148909Y213188*
X149320Y213463*
X149596Y213807*
X149803Y214221*
X149871Y214701*
X143120Y196773D02*
X142496D01*
Y196150*
X143120*
Y196773*
X141573Y200229D02*
X140876D01*
X140083Y197692*
X140082Y197689*
X139923Y197291*
X139844Y196894*
X139748Y196886*
X139426Y197770*
Y197772*
X138633Y200229*
X137938*
X139428Y196150*
X140161*
X141573Y200229*
X144765Y214701D02*
X144697Y215042D01*
X144558Y215389*
X144355Y215728*
X143663Y216073*
X143385Y216143*
X143381Y216144*
X142957Y216286*
X142462Y216427*
X142179Y216498*
X142169Y216501*
X142027Y216572*
X142002Y216601*
X141931Y216814*
X141934Y216852*
X142076Y217136*
X142102Y217160*
X142457Y217302*
X142491Y217303*
X142917Y217161*
X142945Y217136*
X143087Y216852*
X143091Y216842*
X143152Y216598*
X144607Y216664*
X144416Y217302*
X144004Y217782*
X143454Y218057*
X142547Y218127*
X141846Y218057*
X141359Y217918*
X140947Y217712*
X140675Y217372*
X140537Y217028*
X140470Y216689*
X140607Y216141*
X140878Y215734*
X141150Y215598*
X141153Y215596*
X141505Y215385*
X141850Y215247*
X142340Y215177*
X142353Y215174*
X142849Y214961*
X142852Y214960*
X143136Y214818*
X143149Y214808*
X143291Y214667*
X143305Y214631*
Y214418*
X143300Y214396*
X143231Y214257*
X143161Y214048*
X143141Y214022*
X142928Y213880*
X142901Y213872*
X142617*
X142607Y213873*
X142253Y213944*
X142232Y213953*
X141949Y214166*
X141937Y214178*
X141795Y214391*
X141788Y214409*
X141725Y214721*
X140266Y214655*
X140394Y214014*
X140809Y213461*
X141080Y213258*
X141497Y213119*
X141986Y212979*
X142544*
X143247Y213049*
X143802Y213188*
X144214Y213463*
X144490Y213807*
X144696Y214221*
X144765Y214701*
X137414Y198185D02*
X137256Y199056D01*
X136864Y199762*
X136319Y200151*
X135536Y200308*
X134751Y200151*
X134127Y199761*
X133735Y199056*
X133578Y198189*
X133735Y197243*
X134126Y196618*
X134751Y196228*
X135538Y196070*
X136246Y196149*
X136793Y196383*
X137181Y196771*
X137392Y197263*
X136764Y197333*
X136540Y197034*
X136535Y197029*
X136294Y196788*
X136281Y196778*
X135960Y196618*
X135938Y196613*
X135938D02*
X135616D01*
X135616D02*
X135609D01*
X135047Y196693*
X135047D02*
X135028Y196700D01*
X134626Y196941*
X134607Y196962*
X134366Y197444*
X134363Y197452*
X134202Y198015*
X134250Y198079*
X137414*
Y198185*
X136741Y198621D02*
X134250D01*
X134201Y198681*
X134281Y199083*
X134295Y199109*
X134616Y199430*
X134626Y199438*
X135028Y199679*
X135045Y199685*
X135527Y199765*
X135544*
X136026Y199685*
X136044Y199679*
X136445Y199438*
X136460Y199425*
X136701Y199103*
X136710Y199083*
X136790Y198681*
X136741Y198621*
X140140Y216519D02*
X139837Y216640D01*
X139498Y216708*
X139227Y216640*
X139027Y216573*
X138830Y216376*
X138692Y216031*
X138595Y216050*
Y216638*
X137348*
Y213050*
X138666*
Y214206*
X138667Y214211*
X138737Y214920*
X138739Y214929*
X138881Y215425*
X138901Y215453*
X139114Y215595*
X139126Y215601*
X139339Y215672*
X139363Y215673*
X139750Y215609*
X140140Y216519*
X136397Y216638D02*
X135078D01*
Y213050*
X136397*
Y216638*
Y218056D02*
X135078D01*
Y217163*
X136397*
Y218056*
X134620Y211456D02*
X132653D01*
X131882Y208374*
X131785*
X131014Y211456*
X129046*
Y206450*
X130223*
Y210301*
X130322Y210313*
X131305Y206450*
X132362*
X133345Y210313*
X133444Y210301*
Y206450*
X134620*
Y211456*
X133037Y196150D02*
X132120Y197679D01*
X131802Y198076*
X131484Y198393*
X131085Y198713*
X131104Y198800*
X131736Y198958*
X132205Y199349*
X132515Y199737*
X132592Y200278*
X132514Y200747*
X132358Y201138*
X132127Y201446*
X131741Y201678*
X131349Y201756*
X130631Y201836*
X128193*
Y196150*
X128896*
Y198671*
X128946Y198721*
X130232*
X130255Y198716*
X130255D02*
X130576Y198555D01*
X130589Y198546*
X130750Y198385*
X130756Y198378*
X130916Y198138*
X131156Y197818*
X131156D02*
X131158Y197815D01*
X131479Y197333*
X131480Y197331*
X132189Y196150*
X133037*
X131887Y200263D02*
X131726Y199781D01*
X131714Y199761*
X131312Y199359*
X131289Y199346*
X130967Y199266*
X130955Y199264*
X128946*
X128896Y199314*
Y201243*
X128946Y201293*
X130714*
X130723Y201292*
X131205Y201212*
X131215Y201209*
X131617Y201048*
X131643Y201024*
X131804Y200703*
X131808Y200690*
X131888Y200288*
X131887Y200263*
X134461Y213050D02*
X132653Y218056D01*
X130809*
X129070Y213050*
X130595*
X130867Y213867*
X130915Y213901*
X132617*
X132664Y213867*
X132937Y213050*
X134461*
X132262Y214865D02*
X131199D01*
X131149Y214915*
X131151Y214930*
X131718Y216774*
X131814Y216772*
X132311Y214928*
X132262Y214865*
X134201Y219050D02*
X133460Y220465D01*
X133251Y220813*
X132977Y221087*
X132843Y221154*
X132838Y221157*
X132625Y221299*
X132640Y221389*
X132922Y221459*
X133125Y221527*
X133397Y221731*
X133601Y222003*
X133739Y222348*
X133807Y222689*
X133739Y223171*
X133603Y223511*
X133334Y223780*
X132994Y223916*
X132575Y223986*
X131941Y224056*
X129369*
Y219050*
X130829*
Y221128*
X130879Y221178*
X131021*
X131040Y221174*
X131394Y221032*
X131411Y221021*
X131553Y220879*
X131559Y220872*
X131701Y220659*
X131703Y220656*
X132611Y219050*
X134201*
X132348Y222830D02*
Y222617D01*
X132346Y222605*
X132275Y222321*
X132249Y222289*
X131966Y222147*
X131955Y222143*
X131672Y222072*
X131660Y222071*
X130879*
X130829Y222121*
Y223113*
X130879Y223163*
X131589*
X131598*
X131953Y223092*
X131959Y223090*
X132172Y223019*
X132191Y223007*
X132333Y222865*
X132348Y222830*
X128489Y220227D02*
X126057D01*
X126007Y220277*
Y224056*
X124546*
Y219050*
X128489*
Y220227*
X124600Y219050D02*
Y224056D01*
X124700Y219050D02*
Y224056D01*
X124800Y219050D02*
Y224056D01*
X124900Y219050D02*
Y224056D01*
X125000Y219050D02*
Y224056D01*
X125100Y219050D02*
Y224056D01*
X125200Y219050D02*
Y224056D01*
X125300Y219050D02*
Y224056D01*
X125400Y219050D02*
Y224056D01*
X125500Y219050D02*
Y224056D01*
X125600Y219050D02*
Y224056D01*
X125700Y219050D02*
Y224056D01*
X125800Y219050D02*
Y224056D01*
X125900Y219050D02*
Y224056D01*
X126000Y219050D02*
Y224056D01*
X126100Y219050D02*
Y220227D01*
X126200Y219050D02*
Y220227D01*
X126300Y219050D02*
Y220227D01*
X126400Y219050D02*
Y220227D01*
X126500Y219050D02*
Y220227D01*
X126600Y219050D02*
Y220227D01*
X126700Y219050D02*
Y220227D01*
X126800Y219050D02*
Y220227D01*
X126900Y219050D02*
Y220227D01*
X127000Y219050D02*
Y220227D01*
X127100Y219050D02*
Y220227D01*
X127200Y219050D02*
Y220227D01*
X127300Y219050D02*
Y220227D01*
X127400Y219050D02*
Y220227D01*
X127500Y219050D02*
Y220227D01*
X127600Y219050D02*
Y220227D01*
X127700Y219050D02*
Y220227D01*
X127800Y219050D02*
Y220227D01*
X127900Y219050D02*
Y220227D01*
X128000Y219050D02*
Y220227D01*
X128100Y219050D02*
Y220227D01*
X128200Y196150D02*
Y201836D01*
Y219050D02*
Y220227D01*
X128300Y196150D02*
Y201836D01*
Y219050D02*
Y220227D01*
X128400Y196150D02*
Y201836D01*
Y219050D02*
Y220227D01*
X128500Y196150D02*
Y201836D01*
X128600Y196150D02*
Y201836D01*
X128700Y196150D02*
Y201836D01*
X128800Y196150D02*
Y201836D01*
X128900Y198690D02*
Y199296D01*
Y201261D02*
Y201836D01*
X129000Y198721D02*
Y199264D01*
Y201293D02*
Y201836D01*
X129100Y198721D02*
Y199264D01*
Y201293D02*
Y201836D01*
Y206450D02*
Y211456D01*
Y213050D02*
Y213136D01*
X129200Y198721D02*
Y199264D01*
Y201293D02*
Y201836D01*
Y206450D02*
Y211456D01*
Y213050D02*
Y213424D01*
X129300Y198721D02*
Y199264D01*
Y201293D02*
Y201836D01*
Y206450D02*
Y211456D01*
Y213050D02*
Y213712D01*
X129400Y198721D02*
Y199264D01*
Y201293D02*
Y201836D01*
Y206450D02*
Y211456D01*
Y213050D02*
Y214000D01*
Y219050D02*
Y224056D01*
X129500Y198721D02*
Y199264D01*
Y201293D02*
Y201836D01*
Y206450D02*
Y211456D01*
Y213050D02*
Y214288D01*
Y219050D02*
Y224056D01*
X129600Y198721D02*
Y199264D01*
Y201293D02*
Y201836D01*
Y206450D02*
Y211456D01*
Y213050D02*
Y214576D01*
Y219050D02*
Y224056D01*
X129700Y198721D02*
Y199264D01*
Y201293D02*
Y201836D01*
Y206450D02*
Y211456D01*
Y213050D02*
Y214864D01*
Y219050D02*
Y224056D01*
X129800Y198721D02*
Y199264D01*
Y201293D02*
Y201836D01*
Y206450D02*
Y211456D01*
Y213050D02*
Y215152D01*
Y219050D02*
Y224056D01*
X129900Y198721D02*
Y199264D01*
Y201293D02*
Y201836D01*
Y206450D02*
Y211456D01*
Y213050D02*
Y215440D01*
Y219050D02*
Y224056D01*
X130000Y198721D02*
Y199264D01*
Y201293D02*
Y201836D01*
Y206450D02*
Y211456D01*
Y213050D02*
Y215728D01*
Y219050D02*
Y224056D01*
X130100Y198721D02*
Y199264D01*
Y201293D02*
Y201836D01*
Y206450D02*
Y211456D01*
Y213050D02*
Y216016D01*
Y219050D02*
Y224056D01*
X130200Y198721D02*
Y199264D01*
Y201293D02*
Y201836D01*
Y206450D02*
Y211456D01*
Y213050D02*
Y216304D01*
Y219050D02*
Y224056D01*
X130300Y198693D02*
Y199264D01*
Y201293D02*
Y201836D01*
Y210343D02*
Y211456D01*
Y213050D02*
Y216592D01*
Y219050D02*
Y224056D01*
X130400Y198643D02*
Y199264D01*
Y201293D02*
Y201836D01*
Y210005D02*
Y211456D01*
Y213050D02*
Y216880D01*
Y219050D02*
Y224056D01*
X130500Y198593D02*
Y199264D01*
Y201293D02*
Y201836D01*
Y209612D02*
Y211456D01*
Y213050D02*
Y217168D01*
Y219050D02*
Y224056D01*
X130600Y198535D02*
Y199264D01*
Y201293D02*
Y201836D01*
Y209219D02*
Y211456D01*
Y213064D02*
Y217456D01*
Y219050D02*
Y224056D01*
X130700Y198435D02*
Y199264D01*
Y201293D02*
Y201828D01*
Y208826D02*
Y211456D01*
Y213364D02*
Y217744D01*
Y219050D02*
Y224056D01*
X130800Y198312D02*
Y199264D01*
Y201279D02*
Y201817D01*
Y208433D02*
Y211456D01*
Y213664D02*
Y218032D01*
Y219050D02*
Y224056D01*
X130900Y198162D02*
Y199264D01*
Y201263D02*
Y201806D01*
Y208040D02*
Y211456D01*
Y213899D02*
Y218056D01*
Y221178D02*
Y222071D01*
Y223163D02*
Y224056D01*
X131000Y198026D02*
Y199274D01*
Y201246D02*
Y201795D01*
Y207648D02*
Y211456D01*
Y213901D02*
Y218056D01*
Y221178D02*
Y222071D01*
Y223163D02*
Y224056D01*
X131100Y197892D02*
Y198701D01*
Y198799D02*
Y199299D01*
Y201229D02*
Y201784D01*
Y207255D02*
Y211113D01*
Y213901D02*
Y218056D01*
Y221150D02*
Y222071D01*
Y223163D02*
Y224056D01*
X131200Y197752D02*
Y198621D01*
Y198824D02*
Y199324D01*
Y201213D02*
Y201773D01*
Y206862D02*
Y210713D01*
Y213901D02*
Y214865D01*
Y215090D02*
Y218056D01*
Y221110D02*
Y222071D01*
Y223163D02*
Y224056D01*
X131300Y197602D02*
Y198541D01*
Y198849D02*
Y199350D01*
Y201175D02*
Y201761D01*
Y206469D02*
Y210313D01*
Y213901D02*
Y214865D01*
Y215415D02*
Y218056D01*
Y221070D02*
Y222071D01*
Y223163D02*
Y224056D01*
X131400Y197452D02*
Y198461D01*
Y198874D02*
Y199447D01*
Y201135D02*
Y201746D01*
Y206450D02*
Y209913D01*
Y213901D02*
Y214865D01*
Y215740D02*
Y218056D01*
Y221030D02*
Y222071D01*
Y223163D02*
Y224056D01*
X131500Y197298D02*
Y198378D01*
Y198899D02*
Y199547D01*
Y201095D02*
Y201726D01*
Y206450D02*
Y209513D01*
Y213901D02*
Y214865D01*
Y216065D02*
Y218056D01*
Y220932D02*
Y222071D01*
Y223163D02*
Y224056D01*
X131600Y197132D02*
Y198278D01*
Y198924D02*
Y199647D01*
Y201055D02*
Y201706D01*
Y206450D02*
Y209113D01*
Y213901D02*
Y214865D01*
Y216390D02*
Y218056D01*
Y220811D02*
Y222071D01*
Y223162D02*
Y224056D01*
X131700Y196965D02*
Y198178D01*
Y198949D02*
Y199747D01*
Y200910D02*
Y201686D01*
Y206450D02*
Y208713D01*
Y213901D02*
Y214865D01*
Y216715D02*
Y218056D01*
Y220661D02*
Y222079D01*
Y223142D02*
Y224056D01*
X131800Y196798D02*
Y198078D01*
Y199012D02*
Y200003D01*
Y200710D02*
Y201642D01*
Y206450D02*
Y208349D01*
Y213901D02*
Y214865D01*
Y216795D02*
Y218056D01*
Y220484D02*
Y222104D01*
Y223122D02*
Y224056D01*
X131900Y196632D02*
Y197953D01*
Y199095D02*
Y201582D01*
Y206450D02*
Y208446D01*
Y213901D02*
Y214865D01*
Y216453D02*
Y218056D01*
Y220307D02*
Y222129D01*
Y223102D02*
Y224056D01*
X132000Y196465D02*
Y197828D01*
Y199178D02*
Y201522D01*
Y206450D02*
Y208846D01*
Y213901D02*
Y214865D01*
Y216082D02*
Y218056D01*
Y220131D02*
Y222164D01*
Y223076D02*
Y224050D01*
X132100Y196298D02*
Y197703D01*
Y199262D02*
Y201462D01*
Y206450D02*
Y209246D01*
Y213901D02*
Y214865D01*
Y215710D02*
Y218056D01*
Y219954D02*
Y222214D01*
Y223043D02*
Y224039D01*
X132200Y196150D02*
Y197544D01*
Y199345D02*
Y201348D01*
Y206450D02*
Y209646D01*
Y213901D02*
Y214865D01*
Y215339D02*
Y218056D01*
Y219777D02*
Y222264D01*
Y222998D02*
Y224028D01*
X132300Y196150D02*
Y197378D01*
Y199468D02*
Y201215D01*
Y206450D02*
Y210046D01*
Y213901D02*
Y214882D01*
Y214968D02*
Y218056D01*
Y219600D02*
Y222419D01*
Y222898D02*
Y224016D01*
X132400Y196150D02*
Y197211D01*
Y199593D02*
Y201032D01*
Y206600D02*
Y210446D01*
Y213901D02*
Y218056D01*
Y219423D02*
Y224005D01*
X132500Y196150D02*
Y197044D01*
Y199718D02*
Y200782D01*
Y206993D02*
Y210846D01*
Y213901D02*
Y218056D01*
Y219246D02*
Y223994D01*
X132600Y196150D02*
Y196878D01*
Y207386D02*
Y211246D01*
Y213901D02*
Y218056D01*
Y219069D02*
Y223982D01*
X132700Y196150D02*
Y196711D01*
Y207778D02*
Y211456D01*
Y213760D02*
Y217926D01*
Y219050D02*
Y221249D01*
Y221404D02*
Y223965D01*
X132800Y196150D02*
Y196544D01*
Y208171D02*
Y211456D01*
Y213460D02*
Y217649D01*
Y219050D02*
Y221182D01*
Y221429D02*
Y223948D01*
X132900Y196150D02*
Y196378D01*
Y208564D02*
Y211456D01*
Y213160D02*
Y217372D01*
Y219050D02*
Y221125D01*
Y221454D02*
Y223932D01*
X133000Y196150D02*
Y196211D01*
Y208957D02*
Y211456D01*
Y213050D02*
Y217095D01*
Y219050D02*
Y221064D01*
Y221485D02*
Y223914D01*
X133100Y209350D02*
Y211456D01*
Y213050D02*
Y216818D01*
Y219050D02*
Y220964D01*
Y221519D02*
Y223874D01*
X133200Y209743D02*
Y211456D01*
Y213050D02*
Y216541D01*
Y219050D02*
Y220864D01*
Y221583D02*
Y223834D01*
X133300Y210136D02*
Y211456D01*
Y213050D02*
Y216264D01*
Y219050D02*
Y220731D01*
Y221658D02*
Y223794D01*
X133400Y210350D02*
Y211456D01*
Y213050D02*
Y215987D01*
Y219050D02*
Y220565D01*
Y221735D02*
Y223714D01*
X133500Y206450D02*
Y211456D01*
Y213050D02*
Y215710D01*
Y219050D02*
Y220388D01*
Y221868D02*
Y223614D01*
X133600Y198054D02*
Y198312D01*
Y206450D02*
Y211456D01*
Y213050D02*
Y215433D01*
Y219050D02*
Y220197D01*
Y222002D02*
Y223514D01*
X133700Y197454D02*
Y198862D01*
Y206450D02*
Y211456D01*
Y213050D02*
Y215157D01*
Y219050D02*
Y220007D01*
Y222250D02*
Y223268D01*
X133800Y197139D02*
Y199173D01*
Y206450D02*
Y211456D01*
Y213050D02*
Y214880D01*
Y219050D02*
Y219816D01*
Y222652D02*
Y222741D01*
X133900Y196979D02*
Y199353D01*
Y206450D02*
Y211456D01*
Y213050D02*
Y214603D01*
Y219050D02*
Y219625D01*
X134000Y196819D02*
Y199533D01*
Y206450D02*
Y211456D01*
Y213050D02*
Y214326D01*
Y219050D02*
Y219434D01*
X134100Y196659D02*
Y199713D01*
Y206450D02*
Y211456D01*
Y213050D02*
Y214049D01*
Y219050D02*
Y219243D01*
X134200Y196572D02*
Y198029D01*
Y198671*
Y199807*
Y206450D02*
Y211456D01*
Y213050D02*
Y213772D01*
Y219050D02*
Y219052D01*
X134300Y196509D02*
Y197672D01*
Y198079D02*
Y198621D01*
Y199114D02*
Y199869D01*
Y206450D02*
Y211456D01*
Y213050D02*
Y213495D01*
X134400Y196447D02*
Y197376D01*
Y198079D02*
Y198621D01*
Y199214D02*
Y199932D01*
Y206450D02*
Y211456D01*
Y213050D02*
Y213218D01*
X134500Y196384D02*
Y197176D01*
Y198079D02*
Y198621D01*
Y199314D02*
Y199994D01*
Y206450D02*
Y211456D01*
X134600Y196322D02*
Y196976D01*
Y198079D02*
Y198621D01*
Y199414D02*
Y200057D01*
Y206450D02*
Y211456D01*
X134700Y196259D02*
Y196897D01*
Y198079D02*
Y198621D01*
Y199482D02*
Y200119D01*
X134800Y196218D02*
Y196837D01*
Y198079D02*
Y198621D01*
Y199542D02*
Y200161D01*
X134900Y196198D02*
Y196777D01*
Y198079D02*
Y198621D01*
Y199602D02*
Y200181D01*
X135000Y196178D02*
Y196717D01*
Y198079D02*
Y198621D01*
Y199662D02*
Y200201D01*
X135100Y196158D02*
Y196686D01*
Y198079D02*
Y198621D01*
Y199694D02*
Y200221D01*
Y213050D02*
Y216638D01*
Y217163D02*
Y218056D01*
X135200Y196138D02*
Y196671D01*
Y198079D02*
Y198621D01*
Y199711D02*
Y200241D01*
Y213050D02*
Y216638D01*
Y217163D02*
Y218056D01*
X135300Y196118D02*
Y196657D01*
Y198079D02*
Y198621D01*
Y199727D02*
Y200261D01*
Y213050D02*
Y216638D01*
Y217163D02*
Y218056D01*
X135400Y196098D02*
Y196643D01*
Y198079D02*
Y198621D01*
Y199744D02*
Y200281D01*
Y213050D02*
Y216638D01*
Y217163D02*
Y218056D01*
X135500Y196078D02*
Y196629D01*
Y198079D02*
Y198621D01*
Y199761D02*
Y200301D01*
Y213050D02*
Y216638D01*
Y217163D02*
Y218056D01*
X135600Y196077D02*
Y196614D01*
Y198079D02*
Y198621D01*
Y199756D02*
Y200295D01*
Y213050D02*
Y216638D01*
Y217163D02*
Y218056D01*
X135700Y196088D02*
Y196613D01*
Y198079D02*
Y198621D01*
Y199739D02*
Y200275D01*
Y213050D02*
Y216638D01*
Y217163D02*
Y218056D01*
X135800Y196099D02*
Y196613D01*
Y198079D02*
Y198621D01*
Y199723D02*
Y200255D01*
Y213050D02*
Y216638D01*
Y217163D02*
Y218056D01*
X135900Y196110D02*
Y196613D01*
Y198079D02*
Y198621D01*
Y199706D02*
Y200235D01*
Y213050D02*
Y216638D01*
Y217163D02*
Y218056D01*
X136000Y196122D02*
Y196638D01*
Y198079D02*
Y198621D01*
Y199689D02*
Y200215D01*
Y213050D02*
Y216638D01*
Y217163D02*
Y218056D01*
X136100Y196133D02*
Y196688D01*
Y198079D02*
Y198621D01*
Y199645D02*
Y200195D01*
Y213050D02*
Y216638D01*
Y217163D02*
Y218056D01*
X136200Y196144D02*
Y196738D01*
Y198079D02*
Y198621D01*
Y199585D02*
Y200175D01*
Y213050D02*
Y216638D01*
Y217163D02*
Y218056D01*
X136300Y196172D02*
Y196794D01*
Y198079D02*
Y198621D01*
Y199525D02*
Y200155D01*
Y213050D02*
Y216638D01*
Y217163D02*
Y218056D01*
X136400Y196215D02*
Y196894D01*
Y198079D02*
Y198621D01*
Y199465D02*
Y200093D01*
X136500Y196258D02*
Y196994D01*
Y198079D02*
Y198621D01*
Y199371D02*
Y200022D01*
X136600Y196301D02*
Y197114D01*
Y198079D02*
Y198621D01*
Y199238D02*
Y199951D01*
X136700Y196343D02*
Y197248D01*
Y198079D02*
Y198621D01*
Y199104D02*
Y199879D01*
X136800Y196390D02*
Y197329D01*
Y198079D02*
Y199808D01*
X136900Y196490D02*
Y197318D01*
Y198079D02*
Y199697D01*
X137000Y196590D02*
Y197307D01*
Y198079D02*
Y199517D01*
X137100Y196690D02*
Y197296D01*
Y198079D02*
Y199337D01*
X137200Y196816D02*
Y197284D01*
Y198079D02*
Y199157D01*
X137300Y197049D02*
Y197273D01*
Y198079D02*
Y198813D01*
X137400Y198079D02*
Y198263D01*
Y213050D02*
Y216638D01*
X137500Y213050D02*
Y216638D01*
X137600Y213050D02*
Y216638D01*
X137700Y213050D02*
Y216638D01*
X137800Y213050D02*
Y216638D01*
X137900Y213050D02*
Y216638D01*
X138000Y200058D02*
Y200229D01*
Y213050D02*
Y216638D01*
X138100Y199784D02*
Y200229D01*
Y213050D02*
Y216638D01*
X138200Y199510D02*
Y200229D01*
Y213050D02*
Y216638D01*
X138300Y199237D02*
Y200229D01*
Y213050D02*
Y216638D01*
X138400Y198963D02*
Y200229D01*
Y213050D02*
Y216638D01*
X138500Y198689D02*
Y200229D01*
Y213050D02*
Y216638D01*
X138600Y198416D02*
Y200229D01*
Y213050D02*
Y216029D01*
X138700Y198142D02*
Y200022D01*
Y214545D02*
Y216052D01*
X138800Y197868D02*
Y199712D01*
Y215142D02*
Y216302D01*
X138900Y197595D02*
Y199402D01*
Y215452D02*
Y216446D01*
X139000Y197321D02*
Y199092D01*
Y215519D02*
Y216546D01*
X139100Y197047D02*
Y198782D01*
Y215585D02*
Y216598D01*
X139200Y196774D02*
Y198472D01*
Y215625D02*
Y216631D01*
X139300Y196500D02*
Y198162D01*
Y215659D02*
Y216658D01*
X139400Y196226D02*
Y197852D01*
Y215667D02*
Y216683D01*
X139500Y196150D02*
Y197568D01*
Y215651D02*
Y216707D01*
X139600Y196150D02*
Y197293D01*
Y215634D02*
Y216687D01*
X139700Y196150D02*
Y197018D01*
Y215617D02*
Y216667D01*
X139800Y196150D02*
Y196854D01*
Y215726D02*
Y216647D01*
X139900Y196150D02*
Y197175D01*
Y215960D02*
Y216615D01*
X140000Y196150D02*
Y197483D01*
Y216193D02*
Y216575D01*
X140100Y196150D02*
Y197745D01*
Y216426D02*
Y216535D01*
X140200Y196263D02*
Y198065D01*
X140300Y196552D02*
Y198385D01*
Y214485D02*
Y214656D01*
X140400Y196841D02*
Y198705D01*
Y214006D02*
Y214661D01*
X140500Y197130D02*
Y199025D01*
Y213873D02*
Y214665D01*
Y216568D02*
Y216841D01*
X140600Y197419D02*
Y199345D01*
Y213740D02*
Y214670D01*
Y216168D02*
Y217185D01*
X140700Y197708D02*
Y199665D01*
Y213606D02*
Y214675D01*
Y216001D02*
Y217403D01*
X140800Y197997D02*
Y199985D01*
Y213473D02*
Y214679D01*
Y215851D02*
Y217528D01*
X140900Y198285D02*
Y200229D01*
Y213393D02*
Y214684D01*
Y215723D02*
Y217653D01*
X141000Y198574D02*
Y200229D01*
Y213318D02*
Y214688D01*
Y215673D02*
Y217738D01*
X141100Y198863D02*
Y200229D01*
Y213251D02*
Y214693D01*
Y215623D02*
Y217788D01*
X141200Y199152D02*
Y200229D01*
Y213218D02*
Y214697D01*
Y215568D02*
Y217838D01*
X141300Y199441D02*
Y200229D01*
Y213184D02*
Y214702D01*
Y215508D02*
Y217888D01*
X141400Y199730D02*
Y200229D01*
Y213151D02*
Y214706D01*
Y215448D02*
Y217930D01*
X141500Y200019D02*
Y200229D01*
Y213118D02*
Y214711D01*
Y215388D02*
Y217958D01*
X141600Y213089D02*
Y214715D01*
Y215347D02*
Y217987D01*
X141700Y213061D02*
Y214720D01*
Y215307D02*
Y218015D01*
X141800Y213032D02*
Y214384D01*
Y215267D02*
Y218044D01*
X141900Y213004D02*
Y214234D01*
Y215240D02*
Y218062D01*
X142000Y212979D02*
Y214127D01*
Y215226D02*
Y216608D01*
Y216984D02*
Y218072D01*
X142100Y212979D02*
Y214052D01*
Y215212D02*
Y216536D01*
Y217159D02*
Y218082D01*
X142200Y212979D02*
Y213977D01*
Y215197D02*
Y216492D01*
Y217199D02*
Y218092D01*
X142300Y212979D02*
Y213934D01*
Y215183D02*
Y216467D01*
Y217239D02*
Y218102D01*
X142400Y212979D02*
Y213914D01*
Y215153D02*
Y216442D01*
Y217279D02*
Y218112D01*
X142500Y196150D02*
Y196773D01*
Y212979D02*
Y213894D01*
Y215111D02*
Y216416D01*
Y217300D02*
Y218122D01*
X142600Y196150D02*
Y196773D01*
Y212985D02*
Y213874D01*
Y215068D02*
Y216388D01*
Y217266D02*
Y218123D01*
X142700Y196150D02*
Y196773D01*
Y212995D02*
Y213872D01*
Y215025D02*
Y216359D01*
Y217233D02*
Y218115D01*
X142800Y196150D02*
Y196773D01*
Y213005D02*
Y213872D01*
Y214982D02*
Y216330D01*
Y217200D02*
Y218108D01*
X142900Y196150D02*
Y196773D01*
Y213015D02*
Y213872D01*
Y214936D02*
Y216302D01*
Y217166D02*
Y218100D01*
X143000Y196150D02*
Y196773D01*
Y213025D02*
Y213928D01*
Y214886D02*
Y216271D01*
Y217027D02*
Y218092D01*
X143100Y196150D02*
Y196773D01*
Y213035D02*
Y213995D01*
Y214836D02*
Y216238D01*
Y216806D02*
Y218085D01*
X143200Y213045D02*
Y214165D01*
Y214757D02*
Y216205D01*
Y216600D02*
Y218077D01*
X143300Y213063D02*
Y214396D01*
Y214654D02*
Y216171D01*
Y216605D02*
Y218069D01*
X143400Y213088D02*
Y216139D01*
Y216609D02*
Y218061D01*
X143500Y213113D02*
Y216114D01*
Y216614D02*
Y218035D01*
X143600Y213138D02*
Y216089D01*
Y216618D02*
Y217985D01*
X143700Y213163D02*
Y216055D01*
Y216623D02*
Y217935D01*
X143800Y213188D02*
Y216005D01*
Y216627D02*
Y217885D01*
X143900Y213253D02*
Y215955D01*
Y216632D02*
Y217835D01*
X144000Y213320D02*
Y215905D01*
Y216636D02*
Y217785D01*
X144100Y213387D02*
Y215855D01*
Y216641D02*
Y217671D01*
X144200Y213453D02*
Y215805D01*
Y216646D02*
Y217554D01*
X144300Y213570D02*
Y215755D01*
Y216650D02*
Y217437D01*
X144400Y213695D02*
Y215652D01*
Y216655D02*
Y217321D01*
X144500Y213828D02*
Y215486D01*
Y216659D02*
Y217022D01*
X144600Y214028D02*
Y215284D01*
Y216664D02*
Y216689D01*
X144700Y214246D02*
Y215025D01*
X145400Y214517D02*
Y214656D01*
X145500Y214017D02*
Y214661D01*
X145600Y213881D02*
Y214665D01*
Y216593D02*
Y216809D01*
X145700Y213748D02*
Y214670D01*
Y216193D02*
Y217169D01*
X145800Y213615D02*
Y214674D01*
Y216011D02*
Y217395D01*
X145900Y213481D02*
Y214679D01*
Y215861D02*
Y217520D01*
X146000Y213398D02*
Y214683D01*
Y215726D02*
Y217645D01*
X146100Y213323D02*
Y214688D01*
Y215676D02*
Y217735D01*
X146200Y213253D02*
Y214692D01*
Y215626D02*
Y217785D01*
X146300Y213220D02*
Y214697D01*
Y215572D02*
Y217835D01*
X146400Y213187D02*
Y214702D01*
Y215512D02*
Y217885D01*
X146500Y213153D02*
Y214706D01*
Y215452D02*
Y217928D01*
X146600Y196150D02*
Y196586D01*
Y213120D02*
Y214711D01*
Y215392D02*
Y217956D01*
X146700Y196150D02*
Y196836D01*
Y200312D02*
Y200694D01*
Y213091D02*
Y214715D01*
Y215350D02*
Y217985D01*
X146800Y196150D02*
Y197022D01*
Y200301D02*
Y200968D01*
Y213063D02*
Y214720D01*
Y215310D02*
Y218013D01*
X146900Y196150D02*
Y197147D01*
Y200289D02*
Y201108D01*
Y213034D02*
Y214393D01*
Y215270D02*
Y218042D01*
X147000Y196150D02*
Y197272D01*
Y200278D02*
Y201248D01*
Y213005D02*
Y214243D01*
Y215241D02*
Y218062D01*
X147100Y196150D02*
Y197397D01*
Y200267D02*
Y201388D01*
Y212979D02*
Y214132D01*
Y215227D02*
Y216627D01*
Y216971D02*
Y218072D01*
X147200Y196150D02*
Y197522D01*
Y200256D02*
Y201479D01*
Y212979D02*
Y214057D01*
Y215212D02*
Y216539D01*
Y217156D02*
Y218082D01*
X147300Y196150D02*
Y197647D01*
Y200613D02*
Y201537D01*
Y212979D02*
Y213982D01*
Y215198D02*
Y216494D01*
Y217197D02*
Y218092D01*
X147400Y196150D02*
Y196782D01*
Y196868D02*
Y197766D01*
Y200752D02*
Y201594D01*
Y212979D02*
Y213936D01*
Y215184D02*
Y216469D01*
Y217237D02*
Y218102D01*
X147500Y196150D02*
Y196773D01*
Y196993D02*
Y197852D01*
Y200886D02*
Y201651D01*
Y212979D02*
Y213916D01*
Y215156D02*
Y216444D01*
Y217277D02*
Y218112D01*
X147600Y196150D02*
Y196773D01*
Y197118D02*
Y197937D01*
Y200992D02*
Y201708D01*
Y212979D02*
Y213896D01*
Y215113D02*
Y216418D01*
Y217302D02*
Y218122D01*
X147700Y196150D02*
Y196773D01*
Y197243D02*
Y198023D01*
Y201067D02*
Y201758D01*
Y212984D02*
Y213876D01*
Y215071D02*
Y216389D01*
Y217269D02*
Y218124D01*
X147800Y196150D02*
Y196773D01*
Y197325D02*
Y198109D01*
Y201142D02*
Y201770D01*
Y212994D02*
Y213872D01*
Y215028D02*
Y216361D01*
Y217235D02*
Y218116D01*
X147900Y196150D02*
Y196773D01*
Y197400D02*
Y198195D01*
Y201211D02*
Y201781D01*
Y213004D02*
Y213872D01*
Y214985D02*
Y216332D01*
Y217202D02*
Y218108D01*
X148000Y196150D02*
Y196773D01*
Y197475D02*
Y198282D01*
Y201228D02*
Y201792D01*
Y213014D02*
Y213872D01*
Y214939D02*
Y216304D01*
Y217169D02*
Y218100D01*
X148100Y196150D02*
Y196773D01*
Y197555D02*
Y198371D01*
Y201245D02*
Y201803D01*
Y213024D02*
Y213924D01*
Y214889D02*
Y216273D01*
Y217039D02*
Y218093D01*
X148200Y196150D02*
Y196773D01*
Y197638D02*
Y198460D01*
Y201261D02*
Y201814D01*
Y213034D02*
Y213990D01*
Y214839D02*
Y216240D01*
Y216832D02*
Y218085D01*
X148300Y196150D02*
Y196773D01*
Y197722D02*
Y198549D01*
Y201278D02*
Y201825D01*
Y213044D02*
Y214146D01*
Y214764D02*
Y216207D01*
Y216600D02*
Y218077D01*
X148400Y196150D02*
Y196773D01*
Y197805D02*
Y198638D01*
Y201292D02*
Y201833D01*
Y213061D02*
Y214383D01*
Y214663D02*
Y216173D01*
Y216604D02*
Y218070D01*
X148500Y196150D02*
Y196773D01*
Y197888D02*
Y198727D01*
Y201272D02*
Y201811D01*
Y213086D02*
Y216141D01*
Y216609D02*
Y218062D01*
X148600Y196150D02*
Y196773D01*
Y197975D02*
Y198815D01*
Y201252D02*
Y201788D01*
Y213111D02*
Y216116D01*
Y216613D02*
Y218038D01*
X148700Y196150D02*
Y196773D01*
Y198062D02*
Y198913D01*
Y201232D02*
Y201766D01*
Y213136D02*
Y216091D01*
Y216618D02*
Y217988D01*
X148800Y196150D02*
Y196773D01*
Y198150D02*
Y199029D01*
Y201212D02*
Y201744D01*
Y213161D02*
Y216058D01*
Y216623D02*
Y217938D01*
X148900Y196150D02*
Y196773D01*
Y198237D02*
Y199146D01*
Y201146D02*
Y201722D01*
Y213186D02*
Y216008D01*
Y216627D02*
Y217888D01*
X149000Y196150D02*
Y196773D01*
Y198325D02*
Y199263D01*
Y201071D02*
Y201700D01*
Y213249D02*
Y215958D01*
Y216632D02*
Y217838D01*
X149100Y196150D02*
Y196773D01*
Y198412D02*
Y199379D01*
Y200996D02*
Y201677D01*
Y213316D02*
Y215908D01*
Y216636D02*
Y217788D01*
X149200Y196150D02*
Y196773D01*
Y198513D02*
Y199518D01*
Y200908D02*
Y201619D01*
Y213383D02*
Y215858D01*
Y216641D02*
Y217678D01*
X149300Y196150D02*
Y196773D01*
Y198633D02*
Y199684D01*
Y200808D02*
Y201562D01*
Y213449D02*
Y215808D01*
Y216645D02*
Y217561D01*
X149400Y196150D02*
Y196773D01*
Y198753D02*
Y199851D01*
Y200706D02*
Y201505D01*
Y213562D02*
Y215758D01*
Y216650D02*
Y217445D01*
X149500Y196150D02*
Y196773D01*
Y198873D02*
Y201448D01*
Y213687D02*
Y215663D01*
Y216654D02*
Y217328D01*
X149600Y196150D02*
Y196773D01*
Y198998D02*
Y201391D01*
Y213815D02*
Y215496D01*
Y216659D02*
Y217043D01*
X149700Y196150D02*
Y196773D01*
Y199132D02*
Y201300D01*
Y214015D02*
Y215300D01*
Y216663D02*
Y216710D01*
X149800Y196150D02*
Y196773D01*
Y199270D02*
Y201180D01*
Y214215D02*
Y215050D01*
X149900Y196150D02*
Y196773D01*
Y199520D02*
Y201060D01*
X150000Y196150D02*
Y196773D01*
Y199842D02*
Y200940D01*
X150100Y196150D02*
Y196773D01*
Y200242D02*
Y200361D01*
X150900Y213050D02*
Y218056D01*
X151000Y213050D02*
Y218056D01*
X151100Y213050D02*
Y218056D01*
X151200Y213050D02*
Y218056D01*
X151300Y213050D02*
Y218056D01*
X151400Y213050D02*
Y218056D01*
X151500Y213050D02*
Y218056D01*
X151600Y213050D02*
Y218056D01*
X151700Y213050D02*
Y218056D01*
X151800Y213050D02*
Y218056D01*
X151900Y213050D02*
Y218056D01*
X152000Y213050D02*
Y218056D01*
X152100Y213050D02*
Y218056D01*
X152200Y213050D02*
Y218056D01*
*
G04 PC Custom Flashes*
G04 Layer Name air_ssi_rev2_1.pcb - flashes*
%LPD*%
*
*
G04 PC Circuitry*
G04 Layer Name air_ssi_rev2_1.pcb - circuitry*
%LPD*%
*
G54D10*
G54D19*
X225949Y116951D02*
G75*
G03X225949I-1500J0D01*
G01X238335Y113408D02*
G03X238335I-500J0D01*
G01X159124Y125339D02*
G03X159124I-447J0D01*
G01X266713Y186799D02*
G03X266713I-500J0D01*
G01X243000Y165331D02*
Y156669D01*
X217633Y184699D02*
G03X217633I-500J0D01*
G01X220000Y188000D02*
Y194000D01*
X274808Y170050D02*
G03X274808I-447J0D01*
G01X257401Y152713D02*
G03X257401I-500J0D01*
G01X165232Y200425D02*
G03X165232I-500J0D01*
G01X220000Y196000D02*
Y202000D01*
X118563Y132063D02*
G03X118563I-500J0D01*
G01X161382Y216725D02*
X160927Y217350D01*
X160245Y217663*
X160245D02*
X159336D01*
X159336D02*
X158655Y217350D01*
X158200Y216725*
Y216100*
X158427Y215475*
X158655Y215163*
X158655D02*
X159109Y214850D01*
X160473Y214225*
X160927Y213913*
X160927D02*
X161155Y213600D01*
X161382Y212975*
Y212038*
X161382D02*
X160927Y211413D01*
X160927D02*
X160245Y211100D01*
X159336*
X158655Y211413*
X158655D02*
X158200Y212038D01*
X165018Y217663D02*
Y211100D01*
X163427Y217663D02*
X166609D01*
X170473D02*
X168655Y211100D01*
X170473Y217663D02*
X172291Y211100D01*
X169336Y213288D02*
X171609D01*
X175927Y217663D02*
Y211100D01*
X174336Y217663D02*
X177518D01*
X179564D02*
Y212975D01*
X179791Y212038*
X179791D02*
X180245Y211413D01*
X180245D02*
X180927Y211100D01*
X181382*
X182064Y211413*
X182064D02*
X182518Y212038D01*
X182518D02*
X182745Y212975D01*
Y217663*
X187973Y216725D02*
X187518Y217350D01*
X186836Y217663*
X186836D02*
X185927D01*
X185927D02*
X185245Y217350D01*
X184791Y216725*
Y216100*
X185018Y215475*
X185245Y215163*
X185245D02*
X185700Y214850D01*
X187064Y214225*
X187518Y213913*
X187518D02*
X187745Y213600D01*
X187973Y212975*
Y212038*
X187973D02*
X187518Y211413D01*
X187518D02*
X186836Y211100D01*
X185927*
X185245Y211413*
X185245D02*
X184791Y212038D01*
X169400Y109663D02*
Y103100D01*
Y109663D02*
X171445D01*
X171445D02*
X172127Y109350D01*
X172355Y109038*
X172355D02*
X172582Y108413D01*
X172582D02*
Y107475D01*
X172355Y106850*
X172127Y106538*
X172127D02*
X171445Y106225D01*
X169400*
X174627Y109663D02*
Y103100D01*
Y109663D02*
X176673D01*
X176673D02*
X177355Y109350D01*
X177582Y109038*
X177582D02*
X177809Y108413D01*
X177809D02*
Y107788D01*
X177809D02*
X177582Y107163D01*
X177582D02*
X177355Y106850D01*
X176673Y106538*
X176673D02*
X174627D01*
X176218D02*
X177809Y103100D01*
X181218Y109663D02*
X180764Y109350D01*
X180309Y108725*
X180082Y108100*
X179855Y107163*
X179855D02*
Y105600D01*
X180082Y104663*
X180082D02*
X180309Y104038D01*
X180309D02*
X180764Y103413D01*
X180764D02*
X181218Y103100D01*
X182127*
X182582Y103413*
X182582D02*
X183036Y104038D01*
X183036D02*
X183264Y104663D01*
X183264D02*
X183491Y105600D01*
Y107163*
X183491D02*
X183264Y108100D01*
X183036Y108725*
X182582Y109350*
X182127Y109663*
X182127D02*
X181218D01*
X188945Y108100D02*
X188718Y108725D01*
X188264Y109350*
X187809Y109663*
X187809D02*
X186900D01*
X186900D02*
X186445Y109350D01*
X185991Y108725*
X185764Y108100*
X185536Y107163*
X185536D02*
Y105600D01*
X185764Y104663*
X185764D02*
X185991Y104038D01*
X185991D02*
X186445Y103413D01*
X186445D02*
X186900Y103100D01*
X187809*
X188264Y103413*
X188264D02*
X188718Y104038D01*
X188718D02*
X188945Y104663D01*
X188945D02*
Y105600D01*
X187809D02*
X188945D01*
X280882Y185825D02*
X280427Y186450D01*
X279745Y186763*
X279745D02*
X278836D01*
X278836D02*
X278155Y186450D01*
X277700Y185825*
Y185200*
X277927Y184575*
X278155Y184263*
X278155D02*
X278609Y183950D01*
X279973Y183325*
X280427Y183013*
X280427D02*
X280655Y182700D01*
X280882Y182075*
Y181138*
X280882D02*
X280427Y180513D01*
X280427D02*
X279745Y180200D01*
X278836*
X278155Y180513*
X278155D02*
X277700Y181138D01*
X286109Y185825D02*
X285655Y186450D01*
X284973Y186763*
X284973D02*
X284064D01*
X284064D02*
X283382Y186450D01*
X282927Y185825*
Y185200*
X283155Y184575*
X283382Y184263*
X283382D02*
X283836Y183950D01*
X285200Y183325*
X285655Y183013*
X285655D02*
X285882Y182700D01*
X286109Y182075*
Y181138*
X286109D02*
X285655Y180513D01*
X285655D02*
X284973Y180200D01*
X284064*
X283382Y180513*
X283382D02*
X282927Y181138D01*
X288155Y186763D02*
Y180200D01*
X168900Y227363D02*
Y220800D01*
Y227363D02*
X170945D01*
X170945D02*
X171627Y227050D01*
X171855Y226738*
X171855D02*
X172082Y226113D01*
X172082D02*
Y225175D01*
X171855Y224550*
X171627Y224238*
X171627D02*
X170945Y223925D01*
X168900*
X175491Y227363D02*
X175036Y227050D01*
X174582Y226425*
X174355Y225800*
X174127Y224863*
X174127D02*
Y223300D01*
X174355Y222363*
X174355D02*
X174582Y221738D01*
X174582D02*
X175036Y221113D01*
X175036D02*
X175491Y220800D01*
X176400*
X176855Y221113*
X176855D02*
X177309Y221738D01*
X177309D02*
X177536Y222363D01*
X177536D02*
X177764Y223300D01*
Y224863*
X177764D02*
X177536Y225800D01*
X177309Y226425*
X176855Y227050*
X176400Y227363*
X176400D02*
X175491D01*
X179809D02*
X180945Y220800D01*
X182082Y227363D02*
X180945Y220800D01*
X182082Y227363D02*
X183218Y220800D01*
X184355Y227363D02*
X183218Y220800D01*
X186400Y227363D02*
Y220800D01*
Y227363D02*
X189355D01*
X186400Y224238D02*
X188218D01*
X186400Y220800D02*
X189355D01*
X191400Y227363D02*
Y220800D01*
Y227363D02*
X193445D01*
X193445D02*
X194127Y227050D01*
X194355Y226738*
X194355D02*
X194582Y226113D01*
X194582D02*
Y225488D01*
X194582D02*
X194355Y224863D01*
X194355D02*
X194127Y224550D01*
X193445Y224238*
X193445D02*
X191400D01*
X192991D02*
X194582Y220800D01*
G54D20*
X200527Y161900D02*
X200345Y162400D01*
X199982Y162900*
X199618Y163150*
X198891*
X198527Y162900*
X198164Y162400*
X197982Y161900*
X197800Y161150*
Y159900*
X197982Y159150*
X198164Y158650*
X198527Y158150*
X198891Y157900*
X199618*
X199982Y158150*
X200345Y158650*
X200527Y159150*
X202345Y158400D02*
X202164Y158150D01*
X202345Y157900*
X202527Y158150*
X202345Y158400*
X208345Y163150D02*
Y157900D01*
X210891Y163150D02*
Y157900D01*
X208345Y160650D02*
X210891D01*
X212709Y161400D02*
X213800Y157900D01*
X214891Y161400D02*
X213800Y157900D01*
X213436Y156900*
X213073Y156400*
X212709Y156150*
X212527*
X216527Y161400D02*
Y157900D01*
Y160400D02*
X217073Y161150D01*
X217436Y161400*
X217982*
X218345Y161150*
X218527Y160400*
Y157900*
Y160400D02*
X219073Y161150D01*
X219436Y161400*
X219982*
X220345Y161150*
X220527Y160400*
Y157900*
X224345Y161400D02*
Y157900D01*
Y160650D02*
X223982Y161150D01*
X223618Y161400*
X223073*
X222709Y161150*
X222345Y160650*
X222164Y159900*
Y159400*
X222345Y158650*
X222709Y158150*
X223073Y157900*
X223618*
X223982Y158150*
X224345Y158650*
X225982Y161400D02*
Y157900D01*
Y160400D02*
X226527Y161150D01*
X226891Y161400*
X227436*
X227800Y161150*
X227982Y160400*
Y157900*
X281682Y205400D02*
Y205650D01*
X281864Y206150*
X282045Y206400*
X282409Y206650*
X283136*
X283500Y206400*
X283682Y206150*
X283864Y205650*
Y205150*
X283682Y204650*
X283318Y203900*
X281500Y201400*
X284045*
X286773Y206650D02*
X286227Y206400D01*
X285864Y205650*
X285682Y204400*
Y203650*
X285864Y202400*
X286227Y201650*
X286773Y201400*
X287136*
X287682Y201650*
X288045Y202400*
X288227Y203650*
Y204400*
X288045Y205650*
X287682Y206400*
X287136Y206650*
X286773*
X289864Y205650D02*
X290227Y205900D01*
X290773Y206650*
Y201400*
X292773Y206650D02*
X294773D01*
X293682Y204650*
X294227*
X294591Y204400*
X294773Y204150*
X294955Y203400*
Y202900*
X294773Y202150*
X294409Y201650*
X293864Y201400*
X293318*
X292773Y201650*
X292591Y201900*
X292409Y202400*
G54D21*
X227402Y138802D02*
X202598D01*
Y113998*
X227402*
Y138802*
X200500Y147261D02*
X197500D01*
X234839Y110600D02*
Y107600D01*
X195500Y149600D02*
X190500D01*
X172761Y127700D02*
Y130700D01*
X172861Y122300D02*
Y125300D01*
X239400Y124839D02*
X242400D01*
X268181Y178256D02*
Y182862D01*
X273693Y182075D02*
Y186406D01*
X268181*
Y185736*
X273693Y178925D02*
Y174201D01*
X268181*
Y174949*
X260906Y182118D02*
G03X260118Y182906I-788J0D01*
G01X260906Y182118D02*
Y171882D01*
X260118Y171094D02*
G03X260906Y171882I0J788D01*
G01X260118Y171094D02*
X249882D01*
X249094Y171882D02*
G03X249882Y171094I788J-0D01*
G01X249094Y171882D02*
Y182118D01*
X249882Y182906D02*
G03X249094Y182118I-0J-788D01*
G01X249882Y182906D02*
X260118D01*
X197039Y206500D02*
Y203500D01*
X240139Y171500D02*
Y168500D01*
X225794Y183518D02*
X227369Y185093D01*
X237606*
Y173282*
X225794*
Y183518*
X227369Y185093*
X237606*
Y173282*
X225794*
Y183518*
X252901Y105074D02*
X265499D01*
Y139326*
X252901*
Y105074*
X263961Y141200D02*
Y144200D01*
X196961Y197500D02*
Y200500D01*
X265444Y154681D02*
X260838D01*
X261625Y160193D02*
X257294D01*
Y154681*
X257964*
X264775Y160193D02*
X269499D01*
Y154681*
X268751*
X262561Y147700D02*
Y150700D01*
X172961Y200500D02*
Y203500D01*
Y206500D02*
Y209500D01*
X176039Y119900D02*
Y116900D01*
X160600Y203161D02*
X157600D01*
G54D46*
X237934Y114983D02*
X237778Y115210D01*
X237309Y115551*
X240591*
X237309Y137204D02*
X237466Y136863D01*
X237778Y136750*
X238091*
X238403Y136863*
X238559Y137091*
X238716Y137545*
X238872Y137886*
X239184Y138113*
X239497Y138227*
X239966*
X240278Y138113*
X240434Y138000*
X240591Y137659*
Y137204*
X240434Y136863*
X240278Y136750*
X239966Y136636*
X239497*
X239184Y136750*
X238872Y136977*
X238716Y137318*
X238559Y137773*
X238403Y138000*
X238091Y138113*
X237778*
X237466Y138000*
X237309Y137659*
Y137204*
X225334Y149803D02*
X225447Y150272D01*
X225675Y150584*
X226016Y150741*
X226129*
X226470Y150584*
X226697Y150272*
X226811Y149803*
Y149647*
X226697Y149178*
X226470Y148866*
X226129Y148709*
X226016*
X225675Y148866*
X225447Y149178*
X225334Y149803*
Y150584*
X225447Y151366*
X225675Y151834*
X226016Y151991*
X226243*
X226584Y151834*
X226697Y151522*
X205551Y149334D02*
X205324Y149178D01*
X204983Y148709*
Y151991*
X202597Y149178D02*
X202710Y148866D01*
X203051Y148709*
X203278*
X203619Y148866*
X203847Y149334*
X203960Y150116*
Y150897*
X203847Y151522*
X203619Y151834*
X203278Y151991*
X203165*
X202824Y151834*
X202597Y151522*
X202483Y151053*
Y150897*
X202597Y150428*
X202824Y150116*
X203165Y149959*
X203278*
X203619Y150116*
X203847Y150428*
X203960Y150897*
X192066Y138998D02*
X192222Y138771D01*
X192691Y138430*
X189409*
X192691Y135817D02*
X189409Y136953D01*
X192691Y137408D02*
Y135817D01*
X191909Y117625D02*
X192066D01*
X192378Y117511*
X192534Y117398*
X192691Y117170*
Y116716*
X192534Y116489*
X192378Y116375*
X192066Y116261*
X191753*
X191441Y116375*
X190972Y116602*
X189409Y117739*
Y116148*
X192691Y113989D02*
X190503Y115125D01*
Y113420*
X192691Y113989D02*
X189409D01*
X201728Y103703D02*
Y103859D01*
X201841Y104172*
X201955Y104328*
X202182Y104484*
X202637*
X202864Y104328*
X202978Y104172*
X203091Y103859*
Y103547*
X202978Y103234*
X202751Y102766*
X201614Y101203*
X203205*
X205705Y104484D02*
X204569D01*
X204455Y103078*
X204569Y103234*
X204910Y103391*
X205251*
X205591Y103234*
X205819Y102922*
X205932Y102453*
X205819Y102141*
X205705Y101672*
X205478Y101359*
X205137Y101203*
X204796*
X204455Y101359*
X204341Y101516*
X204228Y101828*
X224282Y104484D02*
X225532D01*
X224851Y103234*
X225191*
X225419Y103078*
X225532Y102922*
X225646Y102453*
Y102141*
X225532Y101672*
X225305Y101359*
X224964Y101203*
X224623*
X224282Y101359*
X224169Y101516*
X224055Y101828*
X226782Y103703D02*
Y103859D01*
X226896Y104172*
X227010Y104328*
X227237Y104484*
X227691*
X227919Y104328*
X228032Y104172*
X228146Y103859*
Y103547*
X228032Y103234*
X227805Y102766*
X226669Y101203*
X228260*
X230294Y143699D02*
Y141356D01*
X230407Y140887*
X230635Y140574*
X230976Y140418*
X231203*
X231544Y140574*
X231771Y140887*
X231885Y141356*
Y143699*
X232907Y143074D02*
X233135Y143231D01*
X233476Y143699*
Y140418*
X198248Y154825D02*
X198135Y155138D01*
X198135D02*
X197907Y155450D01*
X197680Y155606*
X197226*
X196998Y155450*
X196771Y155138*
X196771D02*
X196657Y154825D01*
X196544Y154356*
Y153575*
X196657Y153106*
X196771Y152794*
X196998Y152481*
X197226Y152325*
X197680*
X197907Y152481*
X198135Y152794*
X198248Y153106*
X199271Y154981D02*
X199498Y155138D01*
X199498D02*
X199839Y155606D01*
Y152325*
X244406Y109455D02*
X244719Y109568D01*
X245031Y109795*
X245187Y110023*
X245187D02*
Y110477D01*
X245187D02*
X245031Y110705D01*
X244719Y110932*
X244406Y111045*
X243937Y111159*
X243937D02*
X243156D01*
X242687Y111045*
X242687D02*
X242375Y110932D01*
X242062Y110705*
X242062D02*
X241906Y110477D01*
Y110023*
X242062Y109795*
X242062D02*
X242375Y109568D01*
X242687Y109455*
X244406Y108318D02*
X244562D01*
X244562D02*
X244875Y108205D01*
X245031Y108091*
X245187Y107864*
X245187D02*
Y107409D01*
X245187D02*
X245031Y107182D01*
X244875Y107068*
X244562Y106955*
X244562D02*
X244250D01*
X243937Y107068*
X243937D02*
X243469Y107295D01*
X241906Y108432*
Y106841*
X192118Y140694D02*
X192005Y141006D01*
X191777Y141319*
X191550Y141475*
X191095*
X190868Y141319*
X190641Y141006*
X190527Y140694*
X190414Y140225*
Y139444*
X190527Y138975*
X190641Y138663*
X190641D02*
X190868Y138350D01*
X191095Y138194*
X191550*
X191777Y138350*
X192005Y138663*
X192005D02*
X192118Y138975D01*
X193368Y141475D02*
X194618D01*
X193936Y140225*
X194277*
X194505Y140069*
X194618Y139913*
X194618D02*
X194732Y139444D01*
Y139131*
X194618Y138663*
X194618D02*
X194391Y138350D01*
X194050Y138194*
X193709*
X193368Y138350*
X193255Y138506*
X193141Y138819*
X161761Y130594D02*
X161648Y130906D01*
X161420Y131219*
X161193Y131375*
X160739*
X160511Y131219*
X160284Y130906*
X160170Y130594*
X160057Y130125*
Y129344*
X160170Y128875*
X160284Y128563*
X160284D02*
X160511Y128250D01*
X160739Y128094*
X161193*
X161420Y128250*
X161648Y128563*
X161648D02*
X161761Y128875D01*
X163920Y131375D02*
X162784Y129188D01*
X162784D02*
X164489D01*
X163920Y131375D02*
Y128094D01*
X161961Y126294D02*
X161848Y126606D01*
X161620Y126919*
X161393Y127075*
X160939*
X160711Y126919*
X160484Y126606*
X160370Y126294*
X160257Y125825*
Y125044*
X160370Y124575*
X160484Y124263*
X160484D02*
X160711Y123950D01*
X160939Y123794*
X161393*
X161620Y123950*
X161848Y124263*
X161848D02*
X161961Y124575D01*
X164461Y127075D02*
X163325D01*
X163211Y125669*
X163325Y125825*
X163666Y125981*
X164007*
X164348Y125825*
X164575Y125513*
X164575D02*
X164689Y125044D01*
X164575Y124731*
X164461Y124263*
X164461D02*
X164234Y123950D01*
X163893Y123794*
X163552*
X163211Y123950*
X163098Y124106*
X162984Y124419*
X239552Y134830D02*
X239438Y135142D01*
X239211Y135455*
X238984Y135611*
X238529*
X238302Y135455*
X238074Y135142*
X237961Y134830*
X237847Y134361*
Y133580*
X237961Y133111*
X238074Y132798*
X238302Y132486*
X238529Y132330*
X238984*
X239211Y132486*
X239438Y132798*
X239552Y133111*
X241938Y135142D02*
X241824Y135455D01*
X241484Y135611*
X241256*
X240915Y135455*
X240688Y134986*
X240574Y134205*
Y133423*
X240688Y132798*
X240915Y132486*
X241256Y132330*
X241370*
X241711Y132486*
X241938Y132798*
X242052Y133267*
Y133423*
X241938Y133892*
X241711Y134205*
X241370Y134361*
X241256*
X240915Y134205*
X240688Y133892*
X240574Y133423*
X194409Y211219D02*
X194182Y211531D01*
X193841Y211687*
X193841D02*
X193386D01*
X193386D02*
X193045Y211531D01*
X192818Y211219*
Y210906*
X192932Y210594*
X193045Y210437*
X193045D02*
X193273Y210281D01*
X193955Y209969*
X194182Y209812*
X194182D02*
X194295Y209656D01*
X194409Y209344*
Y208875*
X194182Y208562*
X194182D02*
X193841Y208406D01*
X193386*
X193045Y208562*
X193045D02*
X192818Y208875D01*
X195432Y211062D02*
X195659Y211219D01*
X196000Y211687*
X196000D02*
Y208406D01*
X241239Y192687D02*
Y190187D01*
X241239D02*
X241125Y189719D01*
X241011Y189562*
X241011D02*
X240784Y189406D01*
X240557*
X240330Y189562*
X240330D02*
X240216Y189719D01*
X240102Y190187*
X240102D02*
Y190500D01*
X242489Y192687D02*
X243739D01*
X243739D02*
X243057Y191437D01*
X243057D02*
X243398D01*
X243398D02*
X243625Y191281D01*
X243739Y191125*
X243852Y190656*
Y190344*
X243739Y189875*
X243511Y189562*
X243511D02*
X243170Y189406D01*
X242830*
X242489Y189562*
X242489D02*
X242375Y189719D01*
X242261Y190031*
X170927Y116966D02*
X168427D01*
X167958Y117080*
X167802Y117193*
X167646Y117421*
Y117648*
X167802Y117875*
X167958Y117989*
X168427Y118102*
X168739*
X170302Y115943D02*
X170458Y115716D01*
X170927Y115375*
X167646*
X276614Y175688D02*
X276386Y175531D01*
X276159Y175219*
X276045Y174906*
X275932Y174438*
X275932D02*
Y173656D01*
X276045Y173188*
X276045D02*
X276159Y172875D01*
X276386Y172563*
X276386D02*
X276614Y172406D01*
X277068*
X277295Y172563*
X277295D02*
X277523Y172875D01*
X277636Y173188*
X277636D02*
X277750Y173656D01*
Y174438*
X277750D02*
X277636Y174906D01*
X277523Y175219*
X277295Y175531*
X277068Y175688*
X277068D02*
X276614D01*
X276955Y173031D02*
X277636Y172094D01*
X278773Y175063D02*
X279000Y175219D01*
X279341Y175688*
X279341D02*
Y172406D01*
X235811Y153830D02*
X235697Y154142D01*
X235470Y154455*
X235243Y154611*
X234788*
X234561Y154455*
X234334Y154142*
X234220Y153830*
X234106Y153361*
Y152580*
X234220Y152111*
X234334Y151798*
X234561Y151486*
X234788Y151330*
X235243*
X235470Y151486*
X235697Y151798*
X235811Y152111*
X236834Y153986D02*
X237061Y154142D01*
X237402Y154611*
Y151330*
X238424Y153986D02*
X238652Y154142D01*
X238993Y154611*
Y151330*
X248045Y182118D02*
X244764D01*
Y180754*
X248045Y178595D02*
X245858Y179732D01*
Y178027*
X248045Y178595D02*
X244764D01*
X185570Y206675D02*
Y203394D01*
Y206675D02*
X186593D01*
X186934Y206519*
X187048Y206363*
X187048D02*
X187161Y206050D01*
Y205738*
X187161D02*
X187048Y205425D01*
X186934Y205269*
X186593Y205113*
X186593D02*
X185570D01*
X186366D02*
X187161Y203394D01*
X188752Y206675D02*
X188411Y206519D01*
X188298Y206206*
Y205894*
X188411Y205581*
X188639Y205425*
X189093Y205269*
X189434Y205113*
X189434D02*
X189661Y204800D01*
X189775Y204488*
X189775D02*
Y204019D01*
X189661Y203706*
X189548Y203550*
X189207Y203394*
X188752*
X188411Y203550*
X188298Y203706*
X188184Y204019*
Y204488*
X188184D02*
X188298Y204800D01*
X188525Y205113*
X188525D02*
X188866Y205269D01*
X189320Y205425*
X189548Y205581*
X189661Y205894*
Y206206*
X189548Y206519*
X189207Y206675*
X188752*
X247070Y171475D02*
Y168194D01*
Y171475D02*
X248093D01*
X248434Y171319*
X248548Y171163*
X248548D02*
X248661Y170850D01*
Y170538*
X248661D02*
X248548Y170225D01*
X248434Y170069*
X248093Y169913*
X248093D02*
X247070D01*
X247866D02*
X248661Y168194D01*
X249798Y170694D02*
Y170850D01*
X249911Y171163*
X249911D02*
X250025Y171319D01*
X250252Y171475*
X250707*
X250934Y171319*
X251048Y171163*
X251048D02*
X251161Y170850D01*
Y170538*
X251161D02*
X251048Y170225D01*
X250820Y169756*
X249684Y168194*
X251275*
X216813Y173262D02*
Y170919D01*
X216926Y170450*
X217154Y170137*
X217495Y169981*
X217722*
X218063Y170137*
X218290Y170450*
X218404Y170919*
Y173262*
X220563D02*
X219426Y171075D01*
X221131*
X220563Y173262D02*
Y169981D01*
X231659Y190906D02*
X231545Y191219D01*
X231318Y191531*
X231091Y191688*
X231091D02*
X230636D01*
X230636D02*
X230409Y191531D01*
X230182Y191219*
X230068Y190906*
X229955Y190438*
X229955D02*
Y189656D01*
X230068Y189188*
X230068D02*
X230182Y188875D01*
X230409Y188563*
X230409D02*
X230636Y188406D01*
X231091*
X231318Y188563*
X231318D02*
X231545Y188875D01*
X231659Y189188*
X232682Y191063D02*
X232909Y191219D01*
X233250Y191688*
X233250D02*
Y188406D01*
X234386Y190906D02*
Y191063D01*
X234386D02*
X234500Y191375D01*
X234614Y191531*
X234841Y191688*
X234841D02*
X235295D01*
X235295D02*
X235523Y191531D01*
X235636Y191375*
X235750Y191063*
X235750D02*
Y190750D01*
X235636Y190438*
X235636D02*
X235409Y189969D01*
X234273Y188406*
X235864*
X275334Y119375D02*
Y116875D01*
X275220Y116406*
X275107Y116250*
X274880Y116094*
X274652*
X274425Y116250*
X274311Y116406*
X274198Y116875*
Y117188*
X276470Y118594D02*
Y118750D01*
X276584Y119063*
X276584D02*
X276698Y119219D01*
X276925Y119375*
X277380*
X277607Y119219*
X277720Y119063*
X277720D02*
X277834Y118750D01*
Y118438*
X277834D02*
X277720Y118125D01*
X277493Y117656*
X276357Y116094*
X277948*
X273261Y145379D02*
X273574Y145493D01*
X273886Y145720*
X274043Y145947*
Y146402*
X273886Y146629*
X273574Y146856*
X273261Y146970*
X272793Y147084*
X272011*
X271543Y146970*
X271230Y146856*
X270918Y146629*
X270761Y146402*
Y145947*
X270918Y145720*
X271230Y145493*
X271543Y145379*
X273418Y144356D02*
X273574Y144129D01*
X274043Y143788*
X270761*
X274043Y141288D02*
Y142424D01*
X272636Y142538*
X272793Y142424*
X272949Y142084*
Y141743*
X272793Y141402*
X272480Y141174*
X272011Y141061*
X271699Y141174*
X271230Y141288*
X270918Y141515*
X270761Y141856*
Y142197*
X270918Y142538*
X271074Y142652*
X271386Y142765*
X185427Y200875D02*
Y197594D01*
Y200875D02*
X186450D01*
X186791Y200719*
X186905Y200563*
X186905D02*
X187018Y200250D01*
Y199938*
X187018D02*
X186905Y199625D01*
X186791Y199469*
X186450Y199313*
X186450D02*
X185427D01*
X186223D02*
X187018Y197594D01*
X189518Y199781D02*
X189405Y199313D01*
X189405D02*
X189177Y199000D01*
X188836Y198844*
X188723*
X188382Y199000*
X188155Y199313*
X188155D02*
X188041Y199781D01*
Y199938*
X188041D02*
X188155Y200406D01*
X188382Y200719*
X188723Y200875*
X188836*
X189177Y200719*
X189405Y200406*
X189518Y199781*
Y199000*
X189405Y198219*
X189177Y197750*
X188836Y197594*
X188609*
X188268Y197750*
X188155Y198063*
X257239Y163875D02*
X257011Y163719D01*
X256784Y163406*
X256670Y163094*
X256557Y162625*
Y161844*
X256670Y161375*
X256784Y161063*
X256784D02*
X257011Y160750D01*
X257239Y160594*
X257693*
X257920Y160750*
X258148Y161063*
X258148D02*
X258261Y161375D01*
X258375Y161844*
Y162625*
X258261Y163094*
X258148Y163406*
X257920Y163719*
X257693Y163875*
X257239*
X257580Y161219D02*
X258261Y160281D01*
X259511Y163094D02*
Y163250D01*
X259625Y163563*
X259625D02*
X259739Y163719D01*
X259966Y163875*
X260420*
X260648Y163719*
X260761Y163563*
X260761D02*
X260875Y163250D01*
Y162938*
X260875D02*
X260761Y162625D01*
X260534Y162156*
X259398Y160594*
X260989*
X247170Y150875D02*
Y147594D01*
Y150875D02*
X248193D01*
X248534Y150719*
X248648Y150563*
X248648D02*
X248761Y150250D01*
Y149938*
X248761D02*
X248648Y149625D01*
X248534Y149469*
X248193Y149313*
X248193D02*
X247170D01*
X247966D02*
X248761Y147594D01*
X251375Y150875D02*
X250239Y147594D01*
X249784Y150875D02*
X251375D01*
X182663Y203494D02*
X179382D01*
X182663D02*
Y202698D01*
X182507Y202357*
X182194Y202130*
X181882Y202016*
X181413Y201903*
X180632*
X180163Y202016*
X179851Y202130*
X179538Y202357*
X179382Y202698*
Y203494*
X182038Y200880D02*
X182194Y200653D01*
X182663Y200312*
X179382*
X185506Y211244D02*
X182225D01*
X185506D02*
Y210221D01*
X185350Y209880*
X185194Y209766*
X184881Y209653*
X184569*
X184256Y209766*
X184100Y209880*
X183944Y210221*
Y211244*
Y210448D02*
X182225Y209653D01*
X184881Y208630D02*
X185038Y208403D01*
X185038D02*
X185506Y208062D01*
X182225*
X185506Y206357D02*
X185350Y206698D01*
X184881Y206926*
X184100Y207039*
X183631*
X182850Y206926*
X182381Y206698*
X182225Y206357*
Y206130*
X182381Y205789*
X182850Y205562*
X183631Y205448*
X184100*
X184881Y205562*
X185350Y205789*
X185506Y206130*
Y206357*
X232045Y199906D02*
X231932Y200219D01*
X231705Y200531*
X231477Y200688*
X231477D02*
X231023D01*
X231023D02*
X230795Y200531D01*
X230568Y200219*
X230455Y199906*
X230341Y199438*
X230341D02*
Y198656D01*
X230455Y198188*
X230455D02*
X230568Y197875D01*
X230795Y197563*
X230795D02*
X231023Y197406D01*
X231477*
X231705Y197563*
X231705D02*
X231932Y197875D01*
X232045Y198188*
X233636Y200688D02*
X233295Y200531D01*
X233182Y200219*
Y199906*
X233295Y199594*
X233523Y199438*
X233523D02*
X233977Y199281D01*
X234318Y199125*
X234545Y198813*
X234545D02*
X234659Y198500D01*
Y198031*
X234545Y197719*
X234432Y197563*
X234432D02*
X234091Y197406D01*
X233636*
X233295Y197563*
X233295D02*
X233182Y197719D01*
X233068Y198031*
Y198500*
X233182Y198813*
X233182D02*
X233409Y199125D01*
X233750Y199281*
X234205Y199438*
X234205D02*
X234432Y199594D01*
X234545Y199906*
Y200219*
X234432Y200531*
X234091Y200688*
X234091D02*
X233636D01*
X173995Y116275D02*
Y112994D01*
X175359*
X176382Y115650D02*
X176609Y115806D01*
X176950Y116275*
Y112994*
X180670Y193875D02*
Y191531D01*
X180784Y191063*
X180784D02*
X181011Y190750D01*
X181352Y190594*
X181580*
X181920Y190750*
X182148Y191063*
X182148D02*
X182261Y191531D01*
Y193875*
X183398Y193094D02*
Y193250D01*
X183511Y193563*
X183511D02*
X183625Y193719D01*
X183852Y193875*
X184307*
X184534Y193719*
X184648Y193563*
X184648D02*
X184761Y193250D01*
Y192938*
X184761D02*
X184648Y192625D01*
X184420Y192156*
X183284Y190594*
X184875*
X164875Y209114D02*
X161594D01*
X164875D02*
Y208091D01*
X164719Y207750*
X164563Y207636*
X164563D02*
X164250Y207523D01*
X163938*
X163938D02*
X163625Y207636D01*
X163469Y207750*
X163313Y208091*
X163313D02*
Y209114D01*
Y208318D02*
X161594Y207523D01*
X164250Y206500D02*
X164406Y206273D01*
X164875Y205932*
X161594*
X164250Y204909D02*
X164406Y204682D01*
X164875Y204341*
X161594*
G54D47*
X231155Y212476D02*
Y208735D01*
X197297*
Y212476*
X231155Y221924D02*
Y225665D01*
X197297*
Y221728*
X277961Y193992D02*
X238039D01*
Y229110*
X277961*
Y193992*
X263906Y222024D02*
X252094D01*
Y229110*
X263906*
Y222024*
X125913Y102551D02*
X126504Y101961D01*
X132409*
X133000Y102551*
Y105898*
X159378*
Y102551*
X159969Y101961*
X165874*
X166465Y102551*
Y123614*
X125913*
Y102551*
X297149Y121735D02*
X297739Y122326D01*
Y128231*
X297149Y128822*
X293802*
Y170948*
X297149*
X297739Y171539*
Y177444*
X297149Y178035*
X276086*
Y121735*
X297149*
G54D48*
X257822Y135389D02*
G03X257822I-984J0D01*
G54D49*
G01X247881Y140310D02*
G03X247881I-492J0D01*
G54D50*
G01X168276Y204362D02*
X166701D01*
Y199638*
X168276*
G54D51*
X248962Y144273D02*
Y141505D01*
X249096Y140952*
X249364Y140582*
X249767Y140398*
X250035*
X250438Y140582*
X250706Y140952*
X250841Y141505*
Y144273*
X253659Y143720D02*
X253525Y144089D01*
X253122Y144273*
X252854*
X252451Y144089*
X252183Y143535*
X252049Y142612*
Y141690*
X252183Y140952*
X252451Y140582*
X252854Y140398*
X252988*
X253391Y140582*
X253659Y140952*
X253793Y141505*
Y141690*
X253659Y142243*
X253391Y142612*
X252988Y142797*
X252854*
X252451Y142612*
X252183Y142243*
X252049Y141690*
X257631Y107879D02*
X261507D01*
X258185Y110966D02*
X257816Y110698D01*
X257631Y110295*
Y109758*
X257816Y109356*
X258185Y109087*
X258554*
X258923Y109221*
X259108Y109356*
X259292Y109624*
X259661Y110429*
X259846Y110698*
X260030Y110832*
X260400Y110966*
X260953*
X261322Y110698*
X261507Y110295*
Y109758*
X261322Y109356*
X260953Y109087*
X257631Y112174D02*
X261507D01*
Y113785*
X257631Y115664D02*
X257816Y115261D01*
X258185Y115127*
X258554*
X258923Y115261*
X259108Y115529*
X259292Y116066*
X259477Y116469*
X259846Y116737*
X260215Y116872*
X260769*
X261138Y116737*
X261322Y116603*
X261507Y116201*
Y115664*
X261322Y115261*
X261138Y115127*
X260769Y114993*
X260215*
X259846Y115127*
X259477Y115395*
X259292Y115798*
X259108Y116335*
X258923Y116603*
X258554Y116737*
X258185*
X257816Y116603*
X257631Y116201*
Y115664*
Y118348D02*
Y119824D01*
X259108Y119019*
Y119422*
X259292Y119690*
X259477Y119824*
X260030Y119959*
X260400*
X260953Y119824*
X261322Y119556*
X261507Y119153*
Y118751*
X261322Y118348*
X261138Y118214*
X260769Y118080*
X257631Y122509D02*
X260215Y121167D01*
Y123180*
X257631Y122509D02*
X261507D01*
X258923Y126133D02*
X259477Y125998D01*
X259846Y125730*
X260030Y125327*
Y125193*
X259846Y124790*
X259477Y124522*
X258923Y124388*
X258739*
X258185Y124522*
X257816Y124790*
X257631Y125193*
Y125327*
X257816Y125730*
X258185Y125998*
X258923Y126133*
X259846*
X260769Y125998*
X261322Y125730*
X261507Y125327*
Y125059*
X261322Y124656*
X260953Y124522*
X258370Y127340D02*
X258185Y127609D01*
X257631Y128012*
X261507*
X257631Y129220D02*
X261507D01*
X257631Y130427D02*
X261507D01*
X257631D02*
Y131635D01*
X257816Y132038*
X258000Y132172*
X258370Y132306*
X258739*
X259108Y132172*
X259292Y132038*
X259477Y131635*
Y130427D02*
Y131635D01*
X259661Y132038*
X259846Y132172*
X260215Y132306*
X260769*
X261138Y132172*
X261322Y132038*
X261507Y131635*
Y130427*
X257631Y135393D02*
X261507Y133514D01*
X257631D02*
Y135393D01*
X261507Y133514D02*
Y135393D01*
G74*
X0Y0D02*
M02*
