*
*
G04 PADS 9.3.1 Build Number: 456998 generated Gerber (RS-274-X) file*
G04 PC Version=2.1*
*
%IN "air_ssi_rev2_1.pcb"*%
*
%MOIN*%
*
%FSLAX35Y35*%
*
*
*
*
G04 PC Standard Apertures*
*
*
G04 Thermal Relief Aperture macro.*
%AMTER*
1,1,$1,0,0*
1,0,$1-$2,0,0*
21,0,$3,$4,0,0,45*
21,0,$3,$4,0,0,135*
%
*
*
G04 Annular Aperture macro.*
%AMANN*
1,1,$1,0,0*
1,0,$2,0,0*
%
*
*
G04 Odd Aperture macro.*
%AMODD*
1,1,$1,0,0*
1,0,$1-0.005,0,0*
%
*
*
G04 PC Custom Aperture Macros*
*
*
*
*
*
*
G04 PC Aperture Table*
*
%ADD010C,0.001*%
%ADD019C,0.01*%
%ADD020C,0.008*%
%ADD021C,0.00787*%
%ADD046C,0.005*%
*
*
*
*
G04 PC Circuitry*
G04 Layer Name air_ssi_rev2_1.pcb - circuitry*
%LPD*%
*
*
G04 PC Custom Flashes*
G04 Layer Name air_ssi_rev2_1.pcb - flashes*
%LPD*%
*
*
G04 PC Circuitry*
G04 Layer Name air_ssi_rev2_1.pcb - circuitry*
%LPD*%
*
G54D10*
G54D19*
G01X216575Y173408D02*
X211850D01*
Y183644*
X218937*
X222874D02*
X229961D01*
Y173408*
X225236*
G54D20*
X162900Y164250D02*
Y159000D01*
Y164250D02*
X161627D01*
X161082Y164000*
X160718Y163500*
X160536Y163000*
X160355Y162250*
Y161000*
X160536Y160250*
X160718Y159750*
X161082Y159250*
X161627Y159000*
X162900*
X158718Y164250D02*
Y159000D01*
Y164250D02*
X156355D01*
X158718Y161750D02*
X157264D01*
X154718Y164250D02*
Y159000D01*
X152536*
X149627Y164250D02*
Y159000D01*
X150900Y164250D02*
X148355D01*
X167200Y150550D02*
Y145300D01*
Y150550D02*
X165745Y145300D01*
X164291Y150550D02*
X165745Y145300D01*
X164291Y150550D02*
Y145300D01*
X161200Y150550D02*
X162655Y145300D01*
X161200Y150550D02*
X159745Y145300D01*
X162109Y147050D02*
X160291D01*
X155564Y149800D02*
X155927Y150300D01*
X156473Y150550*
X157200*
X157745Y150300*
X158109Y149800*
Y149300*
X157927Y148800*
X157745Y148550*
X157382Y148300*
X156291Y147800*
X155927Y147550*
X155745Y147300*
X155564Y146800*
Y146050*
X155927Y145550*
X156473Y145300*
X157200*
X157745Y145550*
X158109Y146050*
X152655Y150550D02*
Y145300D01*
X153927Y150550D02*
X151382D01*
X149745D02*
Y145300D01*
Y150550D02*
X147382D01*
X149745Y148050D02*
X148291D01*
X149745Y145300D02*
X147382D01*
X145745Y150550D02*
Y145300D01*
Y150550D02*
X144109D01*
X143564Y150300*
X143382Y150050*
X143200Y149550*
Y149050*
X143382Y148550*
X143564Y148300*
X144109Y148050*
X145745*
X144473D02*
X143200Y145300D01*
X161745Y170550D02*
X163200Y165300D01*
X161745Y170550D02*
X160291Y165300D01*
X162655Y167050D02*
X160836D01*
X158655Y170550D02*
Y166800D01*
X158473Y166050*
X158109Y165550*
X157564Y165300*
X157200*
X156655Y165550*
X156291Y166050*
X156109Y166800*
Y170550*
X153200D02*
Y165300D01*
X154473Y170550D02*
X151927D01*
X149200D02*
X149564Y170300D01*
X149927Y169800*
X150109Y169300*
X150291Y168550*
Y167300*
X150109Y166550*
X149927Y166050*
X149564Y165550*
X149200Y165300*
X148473*
X148109Y165550*
X147745Y166050*
X147564Y166550*
X147382Y167300*
Y168550*
X147564Y169300*
X147745Y169800*
X148109Y170300*
X148473Y170550*
X149200*
X163100Y157550D02*
Y152300D01*
Y157550D02*
X161464D01*
X160918Y157300*
X160736Y157050*
X160555Y156550*
Y156050*
X160736Y155550*
X160918Y155300*
X161464Y155050*
X163100D02*
X161464D01*
X160918Y154800*
X160736Y154550*
X160555Y154050*
Y153300*
X160736Y152800*
X160918Y152550*
X161464Y152300*
X163100*
X157464Y157550D02*
X158918Y152300D01*
X157464Y157550D02*
X156009Y152300D01*
X158373Y154050D02*
X156555D01*
X154373Y157550D02*
Y153800D01*
X154191Y153050*
X153827Y152550*
X153282Y152300*
X152918*
X152373Y152550*
X152009Y153050*
X151827Y153800*
Y157550*
X150191D02*
Y152300D01*
Y157550D02*
X148918D01*
X148373Y157300*
X148009Y156800*
X147827Y156300*
X147645Y155550*
Y154300*
X147827Y153550*
X148009Y153050*
X148373Y152550*
X148918Y152300*
X150191*
G54D21*
X219800Y128861D02*
X222800D01*
X137539Y117700D02*
Y120700D01*
X267700Y178761D02*
X270700D01*
X246061Y165500D02*
Y162500D01*
X212044Y186006D02*
G75*
G03X212044I-194J0D01*
G01X215591Y180888D02*
G03X215591I-1378J0D01*
G01X239039Y174500D02*
Y177500D01*
X232500Y188361D02*
X235500D01*
X273239Y159100D02*
Y162100D01*
X273161Y157100D02*
Y154100D01*
X217400Y128839D02*
X214400D01*
X126561Y160600D02*
Y157600D01*
Y154500D02*
Y151500D01*
X126461Y166800D02*
Y163800D01*
Y171800D02*
Y168800D01*
X204500Y180000D02*
X209500D01*
X224000Y190900D02*
Y195900D01*
X213739Y108700D02*
Y111700D01*
X144261Y126100D02*
Y123100D01*
G54D46*
X219938Y118714D02*
X219824Y118401D01*
X219597Y118089*
X219370Y117932*
X218915*
X218688Y118089*
X218461Y118401*
X218347Y118714*
X218234Y119182*
Y119964*
X218347Y120432*
X218461Y120745*
X218688Y121057*
X218915Y121214*
X219370*
X219597Y121057*
X219824Y120745*
X219938Y120432*
X222552Y117932D02*
X221415Y121214D01*
X220961Y117932D02*
X222552D01*
X131318Y120588D02*
Y117306D01*
Y120588D02*
X130295D01*
X130295D02*
X129955Y120431D01*
X129841Y120275*
X129727Y119963*
X129727D02*
Y119650D01*
X129841Y119338*
X129841D02*
X129955Y119181D01*
X130295Y119025*
X131318*
X130523D02*
X129727Y117306D01*
X127341Y120119D02*
X127455Y120431D01*
X127795Y120588*
X127795D02*
X128023D01*
X128023D02*
X128364Y120431D01*
X128591Y119963*
X128591D02*
X128705Y119181D01*
Y118400*
X128591Y117775*
X128364Y117463*
X128364D02*
X128023Y117306D01*
X127909*
X127568Y117463*
X127568D02*
X127341Y117775D01*
X127227Y118244*
Y118400*
X127341Y118869*
X127568Y119181*
X127909Y119338*
X127909D02*
X128023D01*
X128023D02*
X128364Y119181D01*
X128591Y118869*
X128705Y118400*
X271543Y188463D02*
Y185182D01*
Y188463D02*
X270520D01*
X270179Y188307*
X270065Y188151*
X269952Y187838*
Y187526*
X270065Y187213*
X270179Y187057*
X270520Y186901*
X271543*
X270747D02*
X269952Y185182D01*
X268929Y187838D02*
X268702Y187994D01*
X268361Y188463*
Y185182*
X257059Y166181D02*
Y162900D01*
Y166181D02*
X256036D01*
X255695Y166025*
X255582Y165869*
X255468Y165556*
Y165244*
X255582Y164931*
X255695Y164775*
X256036Y164619*
X257059*
X256264D02*
X255468Y162900D01*
X254218Y166181D02*
X252968D01*
X253650Y164931*
X253309*
X253082Y164775*
X252968Y164619*
X252855Y164150*
Y163838*
X252855D02*
X252968Y163369D01*
X253195Y163056*
X253536Y162900*
X253877*
X254218Y163056*
X254332Y163213*
X254332D02*
X254445Y163525D01*
X230594Y171895D02*
Y169551D01*
X230480Y169082*
X230253Y168770*
X229912Y168614*
X229685*
X229344Y168770*
X229116Y169082*
X229003Y169551*
Y171895*
X226503D02*
X227639D01*
X227753Y170489*
X227639Y170645*
X227298Y170801*
X226957*
X226616Y170645*
X226389Y170332*
X226276Y169864*
X226389Y169551*
X226503Y169082*
X226730Y168770*
X227071Y168614*
X227412*
X227753Y168770*
X227866Y168926*
X227980Y169239*
X241773Y181875D02*
Y178594D01*
X240409*
X237909Y181875D02*
X239045D01*
X239159Y180469*
X239045Y180625*
X238705Y180781*
X238364*
X238023Y180625*
X237795Y180313*
X237795D02*
X237682Y179844D01*
X237795Y179531*
X237909Y179063*
X237909D02*
X238136Y178750D01*
X238477Y178594*
X238818*
X239159Y178750*
X239273Y178906*
X239386Y179219*
X231925Y181286D02*
X235206D01*
X231925D02*
Y180264D01*
X232081Y179923*
X232237Y179809*
X232237D02*
X232550Y179695D01*
X232862*
X232862D02*
X233175Y179809D01*
X233331Y179923*
X233487Y180264*
X233487D02*
Y181286D01*
Y180491D02*
X235206Y179695D01*
X231925Y177536D02*
X234112Y178673D01*
X234112D02*
Y176968D01*
X231925Y177536D02*
X235206D01*
X267359Y162188D02*
Y158906D01*
Y162188D02*
X266336D01*
X266336D02*
X265995Y162031D01*
X265882Y161875*
X265768Y161563*
X265768D02*
Y161250D01*
X265882Y160938*
X265882D02*
X265995Y160781D01*
X266336Y160625*
X267359*
X266564D02*
X265768Y158906D01*
X263268Y162188D02*
X264405D01*
X264405D02*
X264518Y160781D01*
X264405Y160938*
X264405D02*
X264064Y161094D01*
X263723*
X263382Y160938*
X263382D02*
X263155Y160625D01*
X263041Y160156*
X263155Y159844*
X263268Y159375*
X263495Y159063*
X263495D02*
X263836Y158906D01*
X264177*
X264518Y159063*
X264518D02*
X264632Y159219D01*
X264745Y159531*
X264720Y156394D02*
X264834Y156706D01*
X265061Y157019*
X265289Y157175*
X265743*
X265970Y157019*
X266198Y156706*
X266311Y156394*
X266425Y155925*
Y155144*
X266311Y154675*
X266198Y154363*
X266198D02*
X265970Y154050D01*
X265743Y153894*
X265289*
X265061Y154050*
X264834Y154363*
X264834D02*
X264720Y154675D01*
X263698Y156550D02*
X263470Y156706D01*
X263130Y157175*
Y153894*
X260743Y156706D02*
X260857Y157019D01*
X261198Y157175*
X261425*
X261766Y157019*
X261993Y156550*
X262107Y155769*
Y154988*
X262107D02*
X261993Y154363D01*
X261993D02*
X261766Y154050D01*
X261425Y153894*
X261311*
X260970Y154050*
X260743Y154363*
X260743D02*
X260630Y154831D01*
Y154988*
X260630D02*
X260743Y155456D01*
X260970Y155769*
X261311Y155925*
X261425*
X261766Y155769*
X261993Y155456*
X262107Y154988*
X217116Y121975D02*
Y118694D01*
X215752*
X214616Y121194D02*
Y121350D01*
X214502Y121663*
X214502D02*
X214389Y121819D01*
X214161Y121975*
X213707*
X213480Y121819*
X213366Y121663*
X213366D02*
X213252Y121350D01*
Y121038*
X213252D02*
X213366Y120725D01*
X213593Y120256*
X214730Y118694*
X213139*
X118625Y160875D02*
Y157594D01*
Y160875D02*
X117602D01*
X117261Y160719*
X117148Y160563*
X117148D02*
X117034Y160250D01*
Y159938*
X117034D02*
X117148Y159625D01*
X117261Y159469*
X117602Y159313*
X117602D02*
X118625D01*
X117830D02*
X117034Y157594D01*
X116011Y160250D02*
X115784Y160406D01*
X115443Y160875*
Y157594*
X114307Y160094D02*
Y160250D01*
X114193Y160563*
X114193D02*
X114080Y160719D01*
X113852Y160875*
X113398*
X113170Y160719*
X113057Y160563*
X113057D02*
X112943Y160250D01*
Y159938*
X112943D02*
X113057Y159625D01*
X113284Y159156*
X114420Y157594*
X112830*
X118625Y154875D02*
Y151594D01*
Y154875D02*
X117602D01*
X117261Y154719*
X117148Y154563*
X117148D02*
X117034Y154250D01*
Y153938*
X117034D02*
X117148Y153625D01*
X117261Y153469*
X117602Y153313*
X117602D02*
X118625D01*
X117830D02*
X117034Y151594D01*
X116011Y154250D02*
X115784Y154406D01*
X115443Y154875*
Y151594*
X114193Y154875D02*
X112943D01*
X113625Y153625*
X113284*
X113057Y153469*
X112943Y153313*
X112943D02*
X112830Y152844D01*
Y152531*
X112943Y152063*
X112943D02*
X113170Y151750D01*
X113511Y151594*
X113852*
X114193Y151750*
X114307Y151906*
X114420Y152219*
X118682Y166875D02*
Y163594D01*
Y166875D02*
X117659D01*
X117318Y166719*
X117205Y166563*
X117205D02*
X117091Y166250D01*
Y165938*
X117091D02*
X117205Y165625D01*
X117318Y165469*
X117659Y165313*
X117659D02*
X118682D01*
X117886D02*
X117091Y163594D01*
X116068Y166250D02*
X115841Y166406D01*
X115500Y166875*
Y163594*
X113341Y166875D02*
X114477Y164688D01*
X114477D02*
X112773D01*
X113341Y166875D02*
Y163594D01*
X118682Y171875D02*
Y168594D01*
Y171875D02*
X117659D01*
X117318Y171719*
X117205Y171563*
X117205D02*
X117091Y171250D01*
Y170938*
X117091D02*
X117205Y170625D01*
X117318Y170469*
X117659Y170313*
X117659D02*
X118682D01*
X117886D02*
X117091Y168594D01*
X116068Y171250D02*
X115841Y171406D01*
X115500Y171875*
Y168594*
X113000Y171875D02*
X114136D01*
X114250Y170469*
X114136Y170625*
X113795Y170781*
X113455*
X113114Y170625*
X112886Y170313*
X112886D02*
X112773Y169844D01*
X112886Y169531*
X113000Y169063*
X113000D02*
X113227Y168750D01*
X113568Y168594*
X113909*
X114250Y168750*
X114364Y168906*
X114477Y169219*
X202094Y183023D02*
X202406Y182909D01*
X202719Y182682*
X202875Y182455*
Y182000*
X202719Y181773*
X202406Y181545*
X202094Y181432*
X201625Y181318*
X200844*
X200375Y181432*
X200063Y181545*
X199750Y181773*
X199594Y182000*
Y182455*
X199750Y182682*
X200063Y182909*
X200375Y183023*
X202250Y184045D02*
X202406Y184273D01*
X202875Y184614*
X199594*
X202875Y185864D02*
Y187114D01*
X201625Y186432*
Y186773*
X201469Y187000*
X201313Y187114*
X200844Y187227*
X200531*
X200063Y187114*
X199750Y186886*
X199594Y186545*
Y186205*
X199750Y185864*
X199906Y185750*
X200219Y185636*
X214034Y194094D02*
X214148Y194406D01*
X214375Y194719*
X214602Y194875*
X215057*
X215284Y194719*
X215511Y194406*
X215625Y194094*
X215739Y193625*
Y192844*
X215625Y192375*
X215511Y192063*
X215284Y191750*
X215057Y191594*
X214602*
X214375Y191750*
X214148Y192063*
X214034Y192375*
X213011Y194250D02*
X212784Y194406D01*
X212443Y194875*
Y191594*
X210284Y194875D02*
X211420Y192688D01*
X209716*
X210284Y194875D02*
Y191594D01*
X201264Y108019D02*
Y111300D01*
Y108019D02*
X202286D01*
X202627Y108175*
X202741Y108331*
X202855Y108644*
Y108956*
X202741Y109269*
X202627Y109425*
X202286Y109581*
X201264*
X202059D02*
X202855Y111300D01*
X203877Y108644D02*
X204105Y108487D01*
X204105D02*
X204445Y108019D01*
Y111300*
X206832Y108487D02*
X206718Y108175D01*
X206377Y108019*
X206150*
X205809Y108175*
X205582Y108644*
X205468Y109425*
Y110206*
X205582Y110831*
X205809Y111144*
X206150Y111300*
X206264*
X206605Y111144*
X206832Y110831*
X206945Y110362*
X206945D02*
Y110206D01*
X206832Y109737*
X206832D02*
X206605Y109425D01*
X206264Y109269*
X206150*
X205809Y109425*
X205582Y109737*
X205582D02*
X205468Y110206D01*
X156850Y126781D02*
Y123500D01*
Y126781D02*
X155827D01*
X155486Y126625*
X155373Y126469*
X155259Y126156*
Y125844*
X155373Y125531*
X155486Y125375*
X155827Y125219*
X156850*
X156055D02*
X155259Y123500D01*
X154236Y126156D02*
X154009Y126313D01*
X154009D02*
X153668Y126781D01*
Y123500*
X151055Y126781D02*
X152191Y123500D01*
X152645Y126781D02*
X151055D01*
G74*
X0Y0D02*
M02*
