*
*
G04 PADS 9.3.1 Build Number: 456998 generated Gerber (RS-274-X) file*
G04 PC Version=2.1*
*
%IN "air_ssi_rev2_1.pcb"*%
*
%MOIN*%
*
%FSLAX35Y35*%
*
*
*
*
G04 PC Standard Apertures*
*
*
G04 Thermal Relief Aperture macro.*
%AMTER*
1,1,$1,0,0*
1,0,$1-$2,0,0*
21,0,$3,$4,0,0,45*
21,0,$3,$4,0,0,135*
%
*
*
G04 Annular Aperture macro.*
%AMANN*
1,1,$1,0,0*
1,0,$2,0,0*
%
*
*
G04 Odd Aperture macro.*
%AMODD*
1,1,$1,0,0*
1,0,$1-0.005,0,0*
%
*
*
G04 PC Custom Aperture Macros*
*
*
*
*
*
*
G04 PC Aperture Table*
*
%ADD010C,0.001*%
%ADD024C,0.016*%
%ADD025C,0.02*%
%ADD032C,0.014*%
%ADD033C,0.06906*%
%ADD034C,0.08874*%
%ADD035C,0.08087*%
%ADD036C,0.12811*%
%ADD037C,0.018*%
%ADD038C,0.01787*%
%ADD039C,0.12024*%
%ADD040O,0.09071X0.02969*%
%ADD041O,0.02969X0.09071*%
%ADD042C,0.01827*%
%ADD043R,0.06315X0.03165*%
*
*
*
*
G04 PC Circuitry*
G04 Layer Name air_ssi_rev2_1.pcb - circuitry*
%LPD*%
*
*
G04 PC Custom Flashes*
G04 Layer Name air_ssi_rev2_1.pcb - flashes*
%LPD*%
*
*
G04 PC Circuitry*
G04 Layer Name air_ssi_rev2_1.pcb - circuitry*
%LPD*%
*
G54D10*
G54D24*
G01X190800Y147800D02*
X195200D01*
Y142400*
X190800*
Y147800*
Y143200D02*
X195200D01*
X190800Y144800D02*
X195200D01*
X190800Y146400D02*
X195200D01*
X191200Y142400D02*
Y147800D01*
X192800Y142400D02*
Y147800D01*
X194400Y142400D02*
Y147800D01*
X190800Y156800D02*
X195200D01*
Y151400*
X190800*
Y156800*
Y152800D02*
X195200D01*
X190800Y154400D02*
X195200D01*
X190800Y156000D02*
X195200D01*
X191200Y151400D02*
Y156800D01*
X192800Y151400D02*
Y156800D01*
X194400Y151400D02*
Y156800D01*
G54D25*
X265750Y183740D02*
Y184740D01*
X268250*
Y183740*
X265750*
Y184000D02*
X268250D01*
X266000Y183740D02*
Y184740D01*
X268000Y183740D02*
Y184740D01*
X265750Y176260D02*
Y177260D01*
X268250*
Y176260*
X265750*
X266000D02*
Y177260D01*
X268000Y176260D02*
Y177260D01*
X273624Y180000D02*
Y181000D01*
X276124*
Y180000*
X273624*
X276124*
X274000D02*
Y181000D01*
X276000Y180000D02*
Y181000D01*
X259960Y152250D02*
X258960D01*
Y154750*
X259960*
Y152250*
X258960Y154000D02*
X259960D01*
X267440Y152250D02*
X266440D01*
Y154750*
X267440*
Y152250*
X266440Y154000D02*
X267440D01*
X263700Y160124D02*
X262700D01*
Y162624*
X263700*
Y160124*
X262700Y162000D02*
X263700D01*
G54D32*
X197700Y145900D02*
X200300D01*
Y142500*
X197700*
Y145900*
Y143400D02*
X200300D01*
X197700Y144800D02*
X200300D01*
X198000Y142500D02*
Y145900D01*
X199400Y142500D02*
Y145900D01*
X197700Y152100D02*
X200300D01*
Y148700*
X197700*
Y152100*
Y149000D02*
X200300D01*
X197700Y150400D02*
X200300D01*
X197700Y151800D02*
X200300D01*
X198000Y148700D02*
Y152100D01*
X199400Y148700D02*
Y152100D01*
X236200Y107800D02*
Y110400D01*
X239600*
Y107800*
X236200*
Y108400D02*
X239600D01*
X236200Y109800D02*
X239600D01*
X237200Y107800D02*
Y110400D01*
X238600Y107800D02*
Y110400D01*
X230000Y107800D02*
Y110400D01*
X233400*
Y107800*
X230000*
Y108400D02*
X233400D01*
X230000Y109800D02*
X233400D01*
X230200Y107800D02*
Y110400D01*
X231600Y107800D02*
Y110400D01*
X233000Y107800D02*
Y110400D01*
X171400Y130500D02*
Y127900D01*
X168000*
Y130500*
X171400*
X168000Y128000D02*
X171400D01*
X168000Y129400D02*
X171400D01*
X168600Y127900D02*
Y130500D01*
X170000Y127900D02*
Y130500D01*
X171400Y127900D02*
Y130500D01*
X177600D02*
Y127900D01*
X174200*
Y130500*
X177600*
X174200Y128000D02*
X177600D01*
X174200Y129400D02*
X177600D01*
X174200Y127900D02*
Y130500D01*
X175600Y127900D02*
Y130500D01*
X177000Y127900D02*
Y130500D01*
X171500Y125100D02*
Y122500D01*
X168100*
Y125100*
X171500*
X168100Y123800D02*
X171500D01*
X168600Y122500D02*
Y125100D01*
X170000Y122500D02*
Y125100D01*
X171400Y122500D02*
Y125100D01*
X177700D02*
Y122500D01*
X174300*
Y125100*
X177700*
X174300Y123800D02*
X177700D01*
X175600Y122500D02*
Y125100D01*
X177000Y122500D02*
Y125100D01*
X242200Y126200D02*
X239600D01*
Y129600*
X242200*
Y126200*
X239600Y126600D02*
X242200D01*
X239600Y128000D02*
X242200D01*
X239600Y129400D02*
X242200D01*
X240000Y126200D02*
Y129600D01*
X241400Y126200D02*
Y129600D01*
X242200Y120000D02*
X239600D01*
Y123400*
X242200*
Y120000*
X239600Y121000D02*
X242200D01*
X239600Y122400D02*
X242200D01*
X240000Y120000D02*
Y123400D01*
X241400Y120000D02*
Y123400D01*
X198400Y203700D02*
Y206300D01*
X201800*
Y203700*
X198400*
Y205000D02*
X201800D01*
X199400Y203700D02*
Y206300D01*
X200800Y203700D02*
Y206300D01*
X192200Y203700D02*
Y206300D01*
X195600*
Y203700*
X192200*
Y205000D02*
X195600D01*
X192400Y203700D02*
Y206300D01*
X193800Y203700D02*
Y206300D01*
X195200Y203700D02*
Y206300D01*
X241500Y168700D02*
Y171300D01*
X244900*
Y168700*
X241500*
Y170000D02*
X244900D01*
X242800Y168700D02*
Y171300D01*
X244200Y168700D02*
Y171300D01*
X235300Y168700D02*
Y171300D01*
X238700*
Y168700*
X235300*
Y170000D02*
X238700D01*
X235800Y168700D02*
Y171300D01*
X237200Y168700D02*
Y171300D01*
X238600Y168700D02*
Y171300D01*
X262600Y144000D02*
Y141400D01*
X259200*
Y144000*
X262600*
X259200Y142000D02*
X262600D01*
X259200Y143400D02*
X262600D01*
X259600Y141400D02*
Y144000D01*
X261000Y141400D02*
Y144000D01*
X262400Y141400D02*
Y144000D01*
X268800D02*
Y141400D01*
X265400*
Y144000*
X268800*
X265400Y142000D02*
X268800D01*
X265400Y143400D02*
X268800D01*
X266600Y141400D02*
Y144000D01*
X268000Y141400D02*
Y144000D01*
X195600Y200300D02*
Y197700D01*
X192200*
Y200300*
X195600*
X192200Y198000D02*
X195600D01*
X192200Y199400D02*
X195600D01*
X192400Y197700D02*
Y200300D01*
X193800Y197700D02*
Y200300D01*
X195200Y197700D02*
Y200300D01*
X201800D02*
Y197700D01*
X198400*
Y200300*
X201800*
X198400Y198000D02*
X201800D01*
X198400Y199400D02*
X201800D01*
X199400Y197700D02*
Y200300D01*
X200800Y197700D02*
Y200300D01*
X261200Y150500D02*
Y147900D01*
X257800*
Y150500*
X261200*
X257800Y149000D02*
X261200D01*
X257800Y150400D02*
X261200D01*
X258200Y147900D02*
Y150500D01*
X259600Y147900D02*
Y150500D01*
X261000Y147900D02*
Y150500D01*
X267400D02*
Y147900D01*
X264000*
Y150500*
X267400*
X264000Y149000D02*
X267400D01*
X264000Y150400D02*
X267400D01*
X265200Y147900D02*
Y150500D01*
X266600Y147900D02*
Y150500D01*
X177800Y203300D02*
Y200700D01*
X174400*
Y203300*
X177800*
X174400Y200800D02*
X177800D01*
X174400Y202200D02*
X177800D01*
X175600Y200700D02*
Y203300D01*
X177000Y200700D02*
Y203300D01*
X171600D02*
Y200700D01*
X168200*
Y203300*
X171600*
X168200Y200800D02*
X171600D01*
X168200Y202200D02*
X171600D01*
X168600Y200700D02*
Y203300D01*
X170000Y200700D02*
Y203300D01*
X171400Y200700D02*
Y203300D01*
X171600Y209300D02*
Y206700D01*
X168200*
Y209300*
X171600*
X168200Y207800D02*
X171600D01*
X168200Y209200D02*
X171600D01*
X168600Y206700D02*
Y209300D01*
X170000Y206700D02*
Y209300D01*
X171400Y206700D02*
Y209300D01*
X177800D02*
Y206700D01*
X174400*
Y209300*
X177800*
X174400Y207800D02*
X177800D01*
X174400Y209200D02*
X177800D01*
X175600Y206700D02*
Y209300D01*
X177000Y206700D02*
Y209300D01*
X177400Y117100D02*
Y119700D01*
X180800*
Y117100*
X177400*
Y118200D02*
X180800D01*
X177400Y119600D02*
X180800D01*
X178400Y117100D02*
Y119700D01*
X179800Y117100D02*
Y119700D01*
X171200Y117100D02*
Y119700D01*
X174600*
Y117100*
X171200*
Y118200D02*
X174600D01*
X171200Y119600D02*
X174600D01*
X171400Y117100D02*
Y119700D01*
X172800Y117100D02*
Y119700D01*
X174200Y117100D02*
Y119700D01*
X157800Y201800D02*
X160400D01*
Y198400*
X157800*
Y201800*
Y199400D02*
X160400D01*
X157800Y200800D02*
X160400D01*
X158800Y198400D02*
Y201800D01*
X160200Y198400D02*
Y201800D01*
X157800Y208000D02*
X160400D01*
Y204600*
X157800*
Y208000*
Y205000D02*
X160400D01*
X157800Y206400D02*
X160400D01*
X157800Y207800D02*
X160400D01*
X158800Y204600D02*
Y208000D01*
X160200Y204600D02*
Y208000D01*
G54D33*
X222100Y217200D03*
X214226D03*
X206352D03*
X158000Y112000D03*
X150126D03*
X142252D03*
X134378D03*
X287700Y169570D03*
Y161696D03*
Y153822D03*
Y145948D03*
Y138074D03*
Y130200D03*
G54D34*
X198084Y217200D03*
X230368D03*
G54D35*
X252094Y193992D03*
X263906D03*
G54D36*
X258000Y211000D03*
G54D37*
X252350Y156400D02*
X247150D01*
Y165600*
X252350*
Y156400*
X247150Y157600D02*
X252350D01*
X247150Y159400D02*
X252350D01*
X247150Y161200D02*
X252350D01*
X247150Y163000D02*
X252350D01*
X247150Y164800D02*
X252350D01*
X247600Y156400D02*
Y165600D01*
X249400Y156400D02*
Y165600D01*
X251200Y156400D02*
Y165600D01*
X238850Y156400D02*
X233650D01*
Y165600*
X238850*
Y156400*
X233650Y157600D02*
X238850D01*
X233650Y159400D02*
X238850D01*
X233650Y161200D02*
X238850D01*
X233650Y163000D02*
X238850D01*
X233650Y164800D02*
X238850D01*
X235000Y156400D02*
Y165600D01*
X236800Y156400D02*
Y165600D01*
X238600Y156400D02*
Y165600D01*
X210650Y188400D02*
Y193600D01*
X215850*
Y188400*
X210650*
Y190000D02*
X215850D01*
X210650Y191800D02*
X215850D01*
X210650Y193600D02*
X215850D01*
X211600Y188400D02*
Y193600D01*
X213400Y188400D02*
Y193600D01*
X215200Y188400D02*
Y193600D01*
X224150Y188400D02*
Y193600D01*
X229350*
Y188400*
X224150*
Y190000D02*
X229350D01*
X224150Y191800D02*
X229350D01*
X224150Y193600D02*
X229350D01*
X224200Y188400D02*
Y193600D01*
X226000Y188400D02*
Y193600D01*
X227800Y188400D02*
Y193600D01*
X210650Y196400D02*
Y201600D01*
X215850*
Y196400*
X210650*
Y197200D02*
X215850D01*
X210650Y199000D02*
X215850D01*
X210650Y200800D02*
X215850D01*
X211600Y196400D02*
Y201600D01*
X213400Y196400D02*
Y201600D01*
X215200Y196400D02*
Y201600D01*
X224150Y196400D02*
Y201600D01*
X229350*
Y196400*
X224150*
Y197200D02*
X229350D01*
X224150Y199000D02*
X229350D01*
X224150Y200800D02*
X229350D01*
X224200Y196400D02*
Y201600D01*
X226000Y196400D02*
Y201600D01*
X227800Y196400D02*
Y201600D01*
G54D38*
X234357Y175939D02*
X229043D01*
Y182435*
X234357*
Y175939*
X229043Y176858D02*
X234357D01*
X229043Y178646D02*
X234357D01*
X229043Y180433D02*
X234357D01*
X229043Y182220D02*
X234357D01*
X230480Y175939D02*
Y182435D01*
X232268Y175939D02*
Y182435D01*
X234055Y175939D02*
Y182435D01*
X123181Y133835D02*
X120819D01*
Y138165*
X123181*
Y133835*
X120819Y133961D02*
X123181D01*
X120819Y135748D02*
X123181D01*
X120819Y137535D02*
X123181D01*
X121449Y133835D02*
Y138165D01*
X127906Y133835D02*
X125543D01*
Y138165*
X127906*
Y133835*
X125543Y133961D02*
X127906D01*
X125543Y135748D02*
X127906D01*
X125543Y137535D02*
X127906D01*
X126811Y133835D02*
Y138165D01*
X132630Y133835D02*
X130268D01*
Y138165*
X132630*
Y133835*
X130268Y133961D02*
X132630D01*
X130268Y135748D02*
X132630D01*
X130268Y137535D02*
X132630D01*
X130386Y133835D02*
Y138165D01*
X132173Y133835D02*
Y138165D01*
X137354Y133835D02*
X134992D01*
Y138165*
X137354*
Y133835*
X134992Y133961D02*
X137354D01*
X134992Y135748D02*
X137354D01*
X134992Y137535D02*
X137354D01*
X135748Y133835D02*
Y138165D01*
X142079Y133835D02*
X139717D01*
Y138165*
X142079*
Y133835*
X139717Y133961D02*
X142079D01*
X139717Y135748D02*
X142079D01*
X139717Y137535D02*
X142079D01*
X141110Y133835D02*
Y138165D01*
X146803Y133835D02*
X144441D01*
Y138165*
X146803*
Y133835*
X144441Y133961D02*
X146803D01*
X144441Y135748D02*
X146803D01*
X144441Y137535D02*
X146803D01*
X144685Y133835D02*
Y138165D01*
X146472Y133835D02*
Y138165D01*
X151528Y133835D02*
X149165D01*
Y138165*
X151528*
Y133835*
X149165Y133961D02*
X151528D01*
X149165Y135748D02*
X151528D01*
X149165Y137535D02*
X151528D01*
X150047Y133835D02*
Y138165D01*
X156252Y133835D02*
X153890D01*
Y138165*
X156252*
Y133835*
X153890Y133961D02*
X156252D01*
X153890Y135748D02*
X156252D01*
X153890Y137535D02*
X156252D01*
X155409Y133835D02*
Y138165D01*
X160976Y133835D02*
X158614D01*
Y138165*
X160976*
Y133835*
X158614Y133961D02*
X160976D01*
X158614Y135748D02*
X160976D01*
X158614Y137535D02*
X160976D01*
X158984Y133835D02*
Y138165D01*
X160772Y133835D02*
Y138165D01*
X165701Y133835D02*
X163339D01*
Y138165*
X165701*
Y133835*
X163339Y133961D02*
X165701D01*
X163339Y135748D02*
X165701D01*
X163339Y137535D02*
X165701D01*
X164346Y133835D02*
Y138165D01*
X170425Y133835D02*
X168063D01*
Y138165*
X170425*
Y133835*
X168063Y133961D02*
X170425D01*
X168063Y135748D02*
X170425D01*
X168063Y137535D02*
X170425D01*
X169709Y133835D02*
Y138165D01*
X175150Y133835D02*
X172787D01*
Y138165*
X175150*
Y133835*
X172787Y133961D02*
X175150D01*
X172787Y135748D02*
X175150D01*
X172787Y137535D02*
X175150D01*
X173283Y133835D02*
Y138165D01*
X175071Y133835D02*
Y138165D01*
X175150Y186591D02*
X172787D01*
Y190921*
X175150*
Y186591*
X172787Y187583D02*
X175150D01*
X172787Y189370D02*
X175150D01*
X173283Y186591D02*
Y190921D01*
X175071Y186591D02*
Y190921D01*
X170425Y186591D02*
X168063D01*
Y190921*
X170425*
Y186591*
X168063Y187583D02*
X170425D01*
X168063Y189370D02*
X170425D01*
X169709Y186591D02*
Y190921D01*
X165701Y186591D02*
X163339D01*
Y190921*
X165701*
Y186591*
X163339Y187583D02*
X165701D01*
X163339Y189370D02*
X165701D01*
X164346Y186591D02*
Y190921D01*
X160976Y186591D02*
X158614D01*
Y190921*
X160976*
Y186591*
X158614Y187583D02*
X160976D01*
X158614Y189370D02*
X160976D01*
X158984Y186591D02*
Y190921D01*
X160772Y186591D02*
Y190921D01*
X156252Y186591D02*
X153890D01*
Y190921*
X156252*
Y186591*
X153890Y187583D02*
X156252D01*
X153890Y189370D02*
X156252D01*
X155409Y186591D02*
Y190921D01*
X151528Y186591D02*
X149165D01*
Y190921*
X151528*
Y186591*
X149165Y187583D02*
X151528D01*
X149165Y189370D02*
X151528D01*
X150047Y186591D02*
Y190921D01*
X146803Y186591D02*
X144441D01*
Y190921*
X146803*
Y186591*
X144441Y187583D02*
X146803D01*
X144441Y189370D02*
X146803D01*
X144685Y186591D02*
Y190921D01*
X146472Y186591D02*
Y190921D01*
X142079Y186591D02*
X139717D01*
Y190921*
X142079*
Y186591*
X139717Y187583D02*
X142079D01*
X139717Y189370D02*
X142079D01*
X141110Y186591D02*
Y190921D01*
X137354Y186591D02*
X134992D01*
Y190921*
X137354*
Y186591*
X134992Y187583D02*
X137354D01*
X134992Y189370D02*
X137354D01*
X135748Y186591D02*
Y190921D01*
X132630Y186591D02*
X130268D01*
Y190921*
X132630*
Y186591*
X130268Y187583D02*
X132630D01*
X130268Y189370D02*
X132630D01*
X130386Y186591D02*
Y190921D01*
X132173Y186591D02*
Y190921D01*
X127906Y186591D02*
X125543D01*
Y190921*
X127906*
Y186591*
X125543Y187583D02*
X127906D01*
X125543Y189370D02*
X127906D01*
X126811Y186591D02*
Y190921D01*
X123181Y186591D02*
X120819D01*
Y190921*
X123181*
Y186591*
X120819Y187583D02*
X123181D01*
X120819Y189370D02*
X123181D01*
X121449Y186591D02*
Y190921D01*
X187157Y147024D02*
Y144661D01*
X182827*
Y147024*
X187157*
X182827Y144685D02*
X187157D01*
X182827Y146472D02*
X187157D01*
X184008Y144661D02*
Y147024D01*
X185795Y144661D02*
Y147024D01*
X187157Y151354D02*
Y148992D01*
X182827*
Y151354*
X187157*
X182827Y150047D02*
X187157D01*
X184008Y148992D02*
Y151354D01*
X185795Y148992D02*
Y151354D01*
X187157Y156472D02*
Y154110D01*
X182827*
Y156472*
X187157*
X182827Y155409D02*
X187157D01*
X184008Y154110D02*
Y156472D01*
X185795Y154110D02*
Y156472D01*
X187157Y161197D02*
Y158835D01*
X182827*
Y161197*
X187157*
X182827Y158984D02*
X187157D01*
X182827Y160772D02*
X187157D01*
X184008Y158835D02*
Y161197D01*
X185795Y158835D02*
Y161197D01*
X187157Y165921D02*
Y163559D01*
X182827*
Y165921*
X187157*
X182827Y164346D02*
X187157D01*
X184008Y163559D02*
Y165921D01*
X185795Y163559D02*
Y165921D01*
X187157Y170646D02*
Y168283D01*
X182827*
Y170646*
X187157*
X182827Y169709D02*
X187157D01*
X184008Y168283D02*
Y170646D01*
X185795Y168283D02*
Y170646D01*
X187157Y175764D02*
Y173402D01*
X182827*
Y175764*
X187157*
X182827Y175071D02*
X187157D01*
X184008Y173402D02*
Y175764D01*
X185795Y173402D02*
Y175764D01*
X187157Y179701D02*
Y177339D01*
X182827*
Y179701*
X187157*
X182827Y178646D02*
X187157D01*
X184008Y177339D02*
Y179701D01*
X185795Y177339D02*
Y179701D01*
X183811Y136394D02*
X180661D01*
Y142693*
X183811*
Y136394*
X180661Y137535D02*
X183811D01*
X180661Y139323D02*
X183811D01*
X180661Y141110D02*
X183811D01*
X182220Y136394D02*
Y142693D01*
X109008Y182063D02*
X105858D01*
Y188362*
X109008*
Y182063*
X105858Y182220D02*
X109008D01*
X105858Y184008D02*
X109008D01*
X105858Y185795D02*
X109008D01*
X105858Y187583D02*
X109008D01*
X107150Y182063D02*
Y188362D01*
X108937Y182063D02*
Y188362D01*
X183811Y182063D02*
X180661D01*
Y188362*
X183811*
Y182063*
X180661Y182220D02*
X183811D01*
X180661Y184008D02*
X183811D01*
X180661Y185795D02*
X183811D01*
X180661Y187583D02*
X183811D01*
X182220Y182063D02*
Y188362D01*
X109008Y136394D02*
X105858D01*
Y142693*
X109008*
Y136394*
X105858Y137535D02*
X109008D01*
X105858Y139323D02*
X109008D01*
X105858Y141110D02*
X109008D01*
X107150Y136394D02*
Y142693D01*
X108937Y136394D02*
Y142693D01*
G54D39*
X109500Y219600D03*
X288000Y220000D03*
X110000Y110000D03*
X288000D03*
G54D40*
X232717Y115376D03*
Y118526D03*
Y121676D03*
Y124825D03*
Y127975D03*
Y131124D03*
Y134274D03*
Y137424D03*
X197283D03*
Y134274D03*
Y131124D03*
Y127975D03*
Y124825D03*
Y121676D03*
Y118526D03*
Y115376D03*
G54D41*
X226024Y144117D03*
X222874D03*
X219724D03*
X216575D03*
X213425D03*
X210276D03*
X207126D03*
X203976D03*
Y108683D03*
X207126D03*
X210276D03*
X213425D03*
X216575D03*
X219724D03*
X222874D03*
X226024D03*
G54D42*
X250079Y179756D02*
Y184480D01*
X259921*
Y179756*
X250079*
Y180378D02*
X259921D01*
X250079Y182205D02*
X259921D01*
X250079Y184031D02*
X259921D01*
X251622Y179756D02*
Y184480D01*
X253449Y179756D02*
Y184480D01*
X255276Y179756D02*
Y184480D01*
X257102Y179756D02*
Y184480D01*
X258929Y179756D02*
Y184480D01*
X250079Y169520D02*
Y174244D01*
X259921*
Y169520*
X250079*
Y171244D02*
X259921D01*
X250079Y173071D02*
X259921D01*
X251622Y169520D02*
Y174244D01*
X253449Y169520D02*
Y174244D01*
X255276Y169520D02*
Y174244D01*
X257102Y169520D02*
Y174244D01*
X258929Y169520D02*
Y174244D01*
X218747Y182613D02*
Y183439D01*
X223865*
Y182613*
X218747*
X220567D02*
Y183439D01*
X222394Y182613D02*
Y183439D01*
X218747Y180054D02*
Y180880D01*
X223865*
Y180054*
X218747*
Y180378D02*
X223865D01*
X220567Y180054D02*
Y180880D01*
X222394Y180054D02*
Y180880D01*
X218747Y177494D02*
Y178321D01*
X223865*
Y177494*
X218747*
X220567D02*
Y178321D01*
X222394Y177494D02*
Y178321D01*
X218747Y174935D02*
Y175762D01*
X223865*
Y174935*
X218747*
X220567D02*
Y175762D01*
X222394Y174935D02*
Y175762D01*
X239535Y174935D02*
Y175762D01*
X244653*
Y174935*
X239535*
X240661D02*
Y175762D01*
X242488Y174935D02*
Y175762D01*
X244315Y174935D02*
Y175762D01*
X239535Y177494D02*
Y178321D01*
X244653*
Y177494*
X239535*
X240661D02*
Y178321D01*
X242488Y177494D02*
Y178321D01*
X244315Y177494D02*
Y178321D01*
X239535Y180054D02*
Y180880D01*
X244653*
Y180054*
X239535*
Y180378D02*
X244653D01*
X240661Y180054D02*
Y180880D01*
X242488Y180054D02*
Y180880D01*
X244315Y180054D02*
Y180880D01*
X239535Y182613D02*
Y183439D01*
X244653*
Y182613*
X239535*
X240661D02*
Y183439D01*
X242488Y182613D02*
Y183439D01*
X244315Y182613D02*
Y183439D01*
G54D43*
X248964Y137200D03*
Y132200D03*
Y127200D03*
Y122200D03*
Y117200D03*
Y112200D03*
Y107200D03*
X269436D03*
Y112200D03*
Y117200D03*
Y122200D03*
Y127200D03*
Y132200D03*
Y137200D03*
X0Y0D02*
M02*
