*
*
G04 PADS 9.3.1 Build Number: 456998 generated Gerber (RS-274-X) file*
G04 PC Version=2.1*
*
%IN "air_ssi_1101_00_RELEASE"*%
*
%MOIN*%
*
%FSLAX35Y35*%
*
*
*
*
G04 PC Standard Apertures*
*
*
G04 Thermal Relief Aperture macro.*
%AMTER*
1,1,$1,0,0*
1,0,$1-$2,0,0*
21,0,$3,$4,0,0,45*
21,0,$3,$4,0,0,135*
%
*
*
G04 Annular Aperture macro.*
%AMANN*
1,1,$1,0,0*
1,0,$2,0,0*
%
*
*
G04 Odd Aperture macro.*
%AMODD*
1,1,$1,0,0*
1,0,$1-0.005,0,0*
%
*
*
G04 PC Custom Aperture Macros*
*
*
*
*
*
*
G04 PC Aperture Table*
*
%ADD010C,0.001*%
%ADD011C,0.004*%
%ADD015C,0.06299*%
%ADD016C,0.15*%
%ADD018C,0.05906*%
%ADD019C,0.07087*%
%ADD020C,0.11811*%
%ADD021C,0.00787*%
%ADD022C,0.01*%
%ADD023C,0.03*%
%ADD024C,0.02*%
%ADD025C,0.016*%
%ADD026C,0.028*%
%ADD027C,0.015*%
%ADD028C,0.01969*%
%ADD029C,0.008*%
%ADD030C,0.009*%
%ADD031C,0.025*%
*
*
*
*
G04 PC Circuitry*
G04 Layer Name air_ssi_1101_00_RELEASE - circuitry*
%LPD*%
*
*
G04 PC Custom Flashes*
G04 Layer Name air_ssi_1101_00_RELEASE - flashes*
%LPD*%
*
*
G04 PC Circuitry*
G04 Layer Name air_ssi_1101_00_RELEASE - circuitry*
%LPD*%
*
G54D10*
G54D11*
G01X258200Y178100D02*
Y175500D01*
X254800*
Y178100*
X258200*
X254800Y175600D02*
X258200D01*
X254800Y176000D02*
X258200D01*
X254800Y176400D02*
X258200D01*
X254800Y176800D02*
X258200D01*
X254800Y177200D02*
X258200D01*
X254800Y177600D02*
X258200D01*
X254800Y178000D02*
X258200D01*
X254800Y175500D02*
Y178100D01*
X255200Y175500D02*
Y178100D01*
X255600Y175500D02*
Y178100D01*
X256000Y175500D02*
Y178100D01*
X256400Y175500D02*
Y178100D01*
X256800Y175500D02*
Y178100D01*
X257200Y175500D02*
Y178100D01*
X257600Y175500D02*
Y178100D01*
X258000Y175500D02*
Y178100D01*
X264400D02*
Y175500D01*
X261000*
Y178100*
X264400*
X261000Y175600D02*
X264400D01*
X261000Y176000D02*
X264400D01*
X261000Y176400D02*
X264400D01*
X261000Y176800D02*
X264400D01*
X261000Y177200D02*
X264400D01*
X261000Y177600D02*
X264400D01*
X261000Y178000D02*
X264400D01*
X261200Y175500D02*
Y178100D01*
X261600Y175500D02*
Y178100D01*
X262000Y175500D02*
Y178100D01*
X262400Y175500D02*
Y178100D01*
X262800Y175500D02*
Y178100D01*
X263200Y175500D02*
Y178100D01*
X263600Y175500D02*
Y178100D01*
X264000Y175500D02*
Y178100D01*
X264400Y175500D02*
Y178100D01*
X226900Y144300D02*
Y141700D01*
X223500*
Y144300*
X226900*
X223500Y142000D02*
X226900D01*
X223500Y142400D02*
X226900D01*
X223500Y142800D02*
X226900D01*
X223500Y143200D02*
X226900D01*
X223500Y143600D02*
X226900D01*
X223500Y144000D02*
X226900D01*
X223600Y141700D02*
Y144300D01*
X224000Y141700D02*
Y144300D01*
X224400Y141700D02*
Y144300D01*
X224800Y141700D02*
Y144300D01*
X225200Y141700D02*
Y144300D01*
X225600Y141700D02*
Y144300D01*
X226000Y141700D02*
Y144300D01*
X226400Y141700D02*
Y144300D01*
X226800Y141700D02*
Y144300D01*
X233100D02*
Y141700D01*
X229700*
Y144300*
X233100*
X229700Y142000D02*
X233100D01*
X229700Y142400D02*
X233100D01*
X229700Y142800D02*
X233100D01*
X229700Y143200D02*
X233100D01*
X229700Y143600D02*
X233100D01*
X229700Y144000D02*
X233100D01*
X230000Y141700D02*
Y144300D01*
X230400Y141700D02*
Y144300D01*
X230800Y141700D02*
Y144300D01*
X231200Y141700D02*
Y144300D01*
X231600Y141700D02*
Y144300D01*
X232000Y141700D02*
Y144300D01*
X232400Y141700D02*
Y144300D01*
X232800Y141700D02*
Y144300D01*
X236600Y139200D02*
Y136600D01*
X233200*
Y139200*
X236600*
X233200Y136800D02*
X236600D01*
X233200Y137200D02*
X236600D01*
X233200Y137600D02*
X236600D01*
X233200Y138000D02*
X236600D01*
X233200Y138400D02*
X236600D01*
X233200Y138800D02*
X236600D01*
X233200Y139200D02*
X236600D01*
X233200Y136600D02*
Y139200D01*
X233600Y136600D02*
Y139200D01*
X234000Y136600D02*
Y139200D01*
X234400Y136600D02*
Y139200D01*
X234800Y136600D02*
Y139200D01*
X235200Y136600D02*
Y139200D01*
X235600Y136600D02*
Y139200D01*
X236000Y136600D02*
Y139200D01*
X236400Y136600D02*
Y139200D01*
X242800D02*
Y136600D01*
X239400*
Y139200*
X242800*
X239400Y136800D02*
X242800D01*
X239400Y137200D02*
X242800D01*
X239400Y137600D02*
X242800D01*
X239400Y138000D02*
X242800D01*
X239400Y138400D02*
X242800D01*
X239400Y138800D02*
X242800D01*
X239400Y139200D02*
X242800D01*
X239600Y136600D02*
Y139200D01*
X240000Y136600D02*
Y139200D01*
X240400Y136600D02*
Y139200D01*
X240800Y136600D02*
Y139200D01*
X241200Y136600D02*
Y139200D01*
X241600Y136600D02*
Y139200D01*
X242000Y136600D02*
Y139200D01*
X242400Y136600D02*
Y139200D01*
X242800Y136600D02*
Y139200D01*
X275700Y179900D02*
Y182500D01*
X279100*
Y179900*
X275700*
Y180000D02*
X279100D01*
X275700Y180400D02*
X279100D01*
X275700Y180800D02*
X279100D01*
X275700Y181200D02*
X279100D01*
X275700Y181600D02*
X279100D01*
X275700Y182000D02*
X279100D01*
X275700Y182400D02*
X279100D01*
X276000Y179900D02*
Y182500D01*
X276400Y179900D02*
Y182500D01*
X276800Y179900D02*
Y182500D01*
X277200Y179900D02*
Y182500D01*
X277600Y179900D02*
Y182500D01*
X278000Y179900D02*
Y182500D01*
X278400Y179900D02*
Y182500D01*
X278800Y179900D02*
Y182500D01*
X269500Y179900D02*
Y182500D01*
X272900*
Y179900*
X269500*
Y180000D02*
X272900D01*
X269500Y180400D02*
X272900D01*
X269500Y180800D02*
X272900D01*
X269500Y181200D02*
X272900D01*
X269500Y181600D02*
X272900D01*
X269500Y182000D02*
X272900D01*
X269500Y182400D02*
X272900D01*
X269600Y179900D02*
Y182500D01*
X270000Y179900D02*
Y182500D01*
X270400Y179900D02*
Y182500D01*
X270800Y179900D02*
Y182500D01*
X271200Y179900D02*
Y182500D01*
X271600Y179900D02*
Y182500D01*
X272000Y179900D02*
Y182500D01*
X272400Y179900D02*
Y182500D01*
X272800Y179900D02*
Y182500D01*
X272900Y177400D02*
Y174800D01*
X269500*
Y177400*
X272900*
X269500Y174800D02*
X272900D01*
X269500Y175200D02*
X272900D01*
X269500Y175600D02*
X272900D01*
X269500Y176000D02*
X272900D01*
X269500Y176400D02*
X272900D01*
X269500Y176800D02*
X272900D01*
X269500Y177200D02*
X272900D01*
X269600Y174800D02*
Y177400D01*
X270000Y174800D02*
Y177400D01*
X270400Y174800D02*
Y177400D01*
X270800Y174800D02*
Y177400D01*
X271200Y174800D02*
Y177400D01*
X271600Y174800D02*
Y177400D01*
X272000Y174800D02*
Y177400D01*
X272400Y174800D02*
Y177400D01*
X272800Y174800D02*
Y177400D01*
X279100D02*
Y174800D01*
X275700*
Y177400*
X279100*
X275700Y174800D02*
X279100D01*
X275700Y175200D02*
X279100D01*
X275700Y175600D02*
X279100D01*
X275700Y176000D02*
X279100D01*
X275700Y176400D02*
X279100D01*
X275700Y176800D02*
X279100D01*
X275700Y177200D02*
X279100D01*
X276000Y174800D02*
Y177400D01*
X276400Y174800D02*
Y177400D01*
X276800Y174800D02*
Y177400D01*
X277200Y174800D02*
Y177400D01*
X277600Y174800D02*
Y177400D01*
X278000Y174800D02*
Y177400D01*
X278400Y174800D02*
Y177400D01*
X278800Y174800D02*
Y177400D01*
X270900Y155400D02*
Y158000D01*
X274300*
Y155400*
X270900*
Y155600D02*
X274300D01*
X270900Y156000D02*
X274300D01*
X270900Y156400D02*
X274300D01*
X270900Y156800D02*
X274300D01*
X270900Y157200D02*
X274300D01*
X270900Y157600D02*
X274300D01*
X270900Y158000D02*
X274300D01*
X271200Y155400D02*
Y158000D01*
X271600Y155400D02*
Y158000D01*
X272000Y155400D02*
Y158000D01*
X272400Y155400D02*
Y158000D01*
X272800Y155400D02*
Y158000D01*
X273200Y155400D02*
Y158000D01*
X273600Y155400D02*
Y158000D01*
X274000Y155400D02*
Y158000D01*
X264700Y155400D02*
Y158000D01*
X268100*
Y155400*
X264700*
Y155600D02*
X268100D01*
X264700Y156000D02*
X268100D01*
X264700Y156400D02*
X268100D01*
X264700Y156800D02*
X268100D01*
X264700Y157200D02*
X268100D01*
X264700Y157600D02*
X268100D01*
X264700Y158000D02*
X268100D01*
X264800Y155400D02*
Y158000D01*
X265200Y155400D02*
Y158000D01*
X265600Y155400D02*
Y158000D01*
X266000Y155400D02*
Y158000D01*
X266400Y155400D02*
Y158000D01*
X266800Y155400D02*
Y158000D01*
X267200Y155400D02*
Y158000D01*
X267600Y155400D02*
Y158000D01*
X268000Y155400D02*
Y158000D01*
X196300Y126800D02*
Y129400D01*
X199700*
Y126800*
X196300*
X199700*
X196300Y127200D02*
X199700D01*
X196300Y127600D02*
X199700D01*
X196300Y128000D02*
X199700D01*
X196300Y128400D02*
X199700D01*
X196300Y128800D02*
X199700D01*
X196300Y129200D02*
X199700D01*
X196400Y126800D02*
Y129400D01*
X196800Y126800D02*
Y129400D01*
X197200Y126800D02*
Y129400D01*
X197600Y126800D02*
Y129400D01*
X198000Y126800D02*
Y129400D01*
X198400Y126800D02*
Y129400D01*
X198800Y126800D02*
Y129400D01*
X199200Y126800D02*
Y129400D01*
X199600Y126800D02*
Y129400D01*
X190100Y126800D02*
Y129400D01*
X193500*
Y126800*
X190100*
X193500*
X190100Y127200D02*
X193500D01*
X190100Y127600D02*
X193500D01*
X190100Y128000D02*
X193500D01*
X190100Y128400D02*
X193500D01*
X190100Y128800D02*
X193500D01*
X190100Y129200D02*
X193500D01*
X190400Y126800D02*
Y129400D01*
X190800Y126800D02*
Y129400D01*
X191200Y126800D02*
Y129400D01*
X191600Y126800D02*
Y129400D01*
X192000Y126800D02*
Y129400D01*
X192400Y126800D02*
Y129400D01*
X192800Y126800D02*
Y129400D01*
X193200Y126800D02*
Y129400D01*
X170700Y135100D02*
Y137700D01*
X174100*
Y135100*
X170700*
Y135200D02*
X174100D01*
X170700Y135600D02*
X174100D01*
X170700Y136000D02*
X174100D01*
X170700Y136400D02*
X174100D01*
X170700Y136800D02*
X174100D01*
X170700Y137200D02*
X174100D01*
X170700Y137600D02*
X174100D01*
X170800Y135100D02*
Y137700D01*
X171200Y135100D02*
Y137700D01*
X171600Y135100D02*
Y137700D01*
X172000Y135100D02*
Y137700D01*
X172400Y135100D02*
Y137700D01*
X172800Y135100D02*
Y137700D01*
X173200Y135100D02*
Y137700D01*
X173600Y135100D02*
Y137700D01*
X174000Y135100D02*
Y137700D01*
X164500Y135100D02*
Y137700D01*
X167900*
Y135100*
X164500*
Y135200D02*
X167900D01*
X164500Y135600D02*
X167900D01*
X164500Y136000D02*
X167900D01*
X164500Y136400D02*
X167900D01*
X164500Y136800D02*
X167900D01*
X164500Y137200D02*
X167900D01*
X164500Y137600D02*
X167900D01*
X164800Y135100D02*
Y137700D01*
X165200Y135100D02*
Y137700D01*
X165600Y135100D02*
Y137700D01*
X166000Y135100D02*
Y137700D01*
X166400Y135100D02*
Y137700D01*
X166800Y135100D02*
Y137700D01*
X167200Y135100D02*
Y137700D01*
X167600Y135100D02*
Y137700D01*
X163400Y185900D02*
Y183300D01*
X160000*
Y185900*
X163400*
X160000Y183600D02*
X163400D01*
X160000Y184000D02*
X163400D01*
X160000Y184400D02*
X163400D01*
X160000Y184800D02*
X163400D01*
X160000Y185200D02*
X163400D01*
X160000Y185600D02*
X163400D01*
X160000Y183300D02*
Y185900D01*
X160400Y183300D02*
Y185900D01*
X160800Y183300D02*
Y185900D01*
X161200Y183300D02*
Y185900D01*
X161600Y183300D02*
Y185900D01*
X162000Y183300D02*
Y185900D01*
X162400Y183300D02*
Y185900D01*
X162800Y183300D02*
Y185900D01*
X163200Y183300D02*
Y185900D01*
X169600D02*
Y183300D01*
X166200*
Y185900*
X169600*
X166200Y183600D02*
X169600D01*
X166200Y184000D02*
X169600D01*
X166200Y184400D02*
X169600D01*
X166200Y184800D02*
X169600D01*
X166200Y185200D02*
X169600D01*
X166200Y185600D02*
X169600D01*
X166400Y183300D02*
Y185900D01*
X166800Y183300D02*
Y185900D01*
X167200Y183300D02*
Y185900D01*
X167600Y183300D02*
Y185900D01*
X168000Y183300D02*
Y185900D01*
X168400Y183300D02*
Y185900D01*
X168800Y183300D02*
Y185900D01*
X169200Y183300D02*
Y185900D01*
X169600Y183300D02*
Y185900D01*
G54D15*
X183100Y107800D03*
X190974D03*
X198848D03*
X168000Y193000D03*
X160126D03*
X152252D03*
G54D16*
X112500Y112500D03*
X232500D03*
Y187500D03*
G54D18*
X284900Y190170D03*
Y182296D03*
Y174422D03*
Y166548D03*
Y158674D03*
Y150800D03*
G54D19*
X262092Y126406D03*
Y114594D03*
G54D20*
X279100Y120500D03*
G54D21*
X224679Y148120D02*
Y152844D01*
X234521*
Y148120*
X224679*
Y148819D02*
X234521D01*
X224679Y149606D02*
X234521D01*
X224679Y150394D02*
X234521D01*
X224679Y151181D02*
X234521D01*
X224679Y151969D02*
X234521D01*
X224679Y152756D02*
X234521D01*
X225197Y148120D02*
Y152844D01*
X225984Y148120D02*
Y152844D01*
X226772Y148120D02*
Y152844D01*
X227559Y148120D02*
Y152844D01*
X228346Y148120D02*
Y152844D01*
X229134Y148120D02*
Y152844D01*
X229921Y148120D02*
Y152844D01*
X230709Y148120D02*
Y152844D01*
X231496Y148120D02*
Y152844D01*
X232283Y148120D02*
Y152844D01*
X233071Y148120D02*
Y152844D01*
X233858Y148120D02*
Y152844D01*
X224679Y158356D02*
Y163080D01*
X234521*
Y158356*
X224679*
Y159055D02*
X234521D01*
X224679Y159843D02*
X234521D01*
X224679Y160630D02*
X234521D01*
X224679Y161417D02*
X234521D01*
X224679Y162205D02*
X234521D01*
X224679Y162992D02*
X234521D01*
X225197Y158356D02*
Y163080D01*
X225984Y158356D02*
Y163080D01*
X226772Y158356D02*
Y163080D01*
X227559Y158356D02*
Y163080D01*
X228346Y158356D02*
Y163080D01*
X229134Y158356D02*
Y163080D01*
X229921Y158356D02*
Y163080D01*
X230709Y158356D02*
Y163080D01*
X231496Y158356D02*
Y163080D01*
X232283Y158356D02*
Y163080D01*
X233071Y158356D02*
Y163080D01*
X233858Y158356D02*
Y163080D01*
X263753Y152052D02*
Y151225D01*
X258635*
Y152052*
X263753*
X258635Y151969D02*
X263753D01*
X259055Y151225D02*
Y152052D01*
X259843Y151225D02*
Y152052D01*
X260630Y151225D02*
Y152052D01*
X261417Y151225D02*
Y152052D01*
X262205Y151225D02*
Y152052D01*
X262992Y151225D02*
Y152052D01*
X263753Y149493D02*
Y148666D01*
X258635*
Y149493*
X263753*
X258635Y148819D02*
X263753D01*
X259055Y148666D02*
Y149493D01*
X259843Y148666D02*
Y149493D01*
X260630Y148666D02*
Y149493D01*
X261417Y148666D02*
Y149493D01*
X262205Y148666D02*
Y149493D01*
X262992Y148666D02*
Y149493D01*
X263753Y146934D02*
Y146107D01*
X258635*
Y146934*
X263753*
X258635Y146457D02*
X263753D01*
X259055Y146107D02*
Y146934D01*
X259843Y146107D02*
Y146934D01*
X260630Y146107D02*
Y146934D01*
X261417Y146107D02*
Y146934D01*
X262205Y146107D02*
Y146934D01*
X262992Y146107D02*
Y146934D01*
X263753Y144375D02*
Y143548D01*
X258635*
Y144375*
X263753*
X258635Y144094D02*
X263753D01*
X259055Y143548D02*
Y144375D01*
X259843Y143548D02*
Y144375D01*
X260630Y143548D02*
Y144375D01*
X261417Y143548D02*
Y144375D01*
X262205Y143548D02*
Y144375D01*
X262992Y143548D02*
Y144375D01*
X242965D02*
Y143548D01*
X237847*
Y144375*
X242965*
X237847Y144094D02*
X242965D01*
X238583Y143548D02*
Y144375D01*
X239370Y143548D02*
Y144375D01*
X240157Y143548D02*
Y144375D01*
X240945Y143548D02*
Y144375D01*
X241732Y143548D02*
Y144375D01*
X242520Y143548D02*
Y144375D01*
X242965Y146934D02*
Y146107D01*
X237847*
Y146934*
X242965*
X237847Y146457D02*
X242965D01*
X238583Y146107D02*
Y146934D01*
X239370Y146107D02*
Y146934D01*
X240157Y146107D02*
Y146934D01*
X240945Y146107D02*
Y146934D01*
X241732Y146107D02*
Y146934D01*
X242520Y146107D02*
Y146934D01*
X242965Y149493D02*
Y148666D01*
X237847*
Y149493*
X242965*
X237847Y148819D02*
X242965D01*
X238583Y148666D02*
Y149493D01*
X239370Y148666D02*
Y149493D01*
X240157Y148666D02*
Y149493D01*
X240945Y148666D02*
Y149493D01*
X241732Y148666D02*
Y149493D01*
X242520Y148666D02*
Y149493D01*
X242965Y152052D02*
Y151225D01*
X237847*
Y152052*
X242965*
X237847Y151969D02*
X242965D01*
X238583Y151225D02*
Y152052D01*
X239370Y151225D02*
Y152052D01*
X240157Y151225D02*
Y152052D01*
X240945Y151225D02*
Y152052D01*
X241732Y151225D02*
Y152052D01*
X242520Y151225D02*
Y152052D01*
X253457Y144552D02*
X248143D01*
Y151048*
X253457*
Y144552*
X248143Y144882D02*
X253457D01*
X248143Y145669D02*
X253457D01*
X248143Y146457D02*
X253457D01*
X248143Y147244D02*
X253457D01*
X248143Y148031D02*
X253457D01*
X248143Y148819D02*
X253457D01*
X248143Y149606D02*
X253457D01*
X248143Y150394D02*
X253457D01*
X248819Y144552D02*
Y151048D01*
X249606Y144552D02*
Y151048D01*
X250394Y144552D02*
Y151048D01*
X251181Y144552D02*
Y151048D01*
X251969Y144552D02*
Y151048D01*
X252756Y144552D02*
Y151048D01*
G54D22*
X264240Y181050D02*
X263240D01*
Y183550*
X264240*
Y181050*
X263240Y182000D02*
X264240D01*
X263240Y183000D02*
X264240D01*
X264000Y181050D02*
Y183550D01*
X256760Y181050D02*
X255760D01*
Y183550*
X256760*
Y181050*
X255760Y182000D02*
X256760D01*
X255760Y183000D02*
X256760D01*
X256000Y181050D02*
Y183550D01*
X260500Y188924D02*
X259500D01*
Y191424*
X260500*
Y188924*
X259500Y189000D02*
X260500D01*
X259500Y190000D02*
X260500D01*
X259500Y191000D02*
X260500D01*
X260000Y188924D02*
Y191424D01*
X274240Y161250D02*
X273240D01*
Y163750*
X274240*
Y161250*
X273240Y162000D02*
X274240D01*
X273240Y163000D02*
X274240D01*
X274000Y161250D02*
Y163750D01*
X266760Y161250D02*
X265760D01*
Y163750*
X266760*
Y161250*
X265760Y162000D02*
X266760D01*
X265760Y163000D02*
X266760D01*
X266000Y161250D02*
Y163750D01*
X270500Y169124D02*
X269500D01*
Y171624*
X270500*
Y169124*
X269500Y170000D02*
X270500D01*
X269500Y171000D02*
X270500D01*
X270000Y169124D02*
Y171624D01*
X190974Y107800D02*
X181674Y117100D01*
X177800*
X171000Y123900*
X183100Y107800D02*
Y113270D01*
X181410Y114960*
X177536*
X169000Y123496*
Y129200*
X171000Y123900D02*
Y126800D01*
X173000Y128800*
X198100Y123900D02*
Y128100D01*
X198000*
X210000Y127000D02*
X240000D01*
X166200Y136400D02*
Y143600D01*
X170200Y147600*
X173000Y128800D02*
Y132200D01*
X172400Y132800*
Y136400*
X234900Y137900D02*
X235000Y138000D01*
Y143000*
X138400Y145000D02*
X140300Y146900D01*
Y158600*
X141500Y159800*
Y167500*
X142100Y144800D02*
Y157800D01*
X143200Y158900*
Y171900*
X143700*
X220000Y146000D02*
X221600D01*
X225200*
X221600D02*
Y155100D01*
X226900Y160400*
X229282*
X229600Y160718*
X225200Y146000D02*
X225100Y146100D01*
X235780*
X236200Y146520*
X240406*
X231400Y143000D02*
X235000D01*
X225200D02*
Y146000D01*
X235000Y143000D02*
X236100D01*
X237100Y144000*
X240368*
X240406Y143961*
X272600Y156700D02*
X272640Y156740D01*
Y158500*
X273740Y159600*
Y162500*
X141500Y167500D02*
X137900D01*
X137600Y167800*
X133200*
X273740Y162500D02*
Y165100D01*
X272640Y166200*
X266000*
X260200Y172000*
X258500Y172100*
X238100Y171100D02*
X228800D01*
X212900Y187000*
X270000Y170374D02*
X268400D01*
X265374Y173400*
Y174126*
X262700Y176800*
X156600Y179500D02*
X161700Y184600D01*
X167900D02*
X168000Y184700D01*
Y193000*
X267035Y126406D02*
G75*
G03X267035I-4943J0D01*
G01X245300Y156400D02*
Y166700D01*
X245139*
X245150Y166500D02*
G03X245139Y166700I-1800J0D01*
G01X245150Y166500D02*
Y157300D01*
X244909Y156400D02*
G03X245150Y157300I-1559J900D01*
G01X244909Y156400D02*
X245300D01*
X224307Y157000D02*
X236375D01*
X236350Y157300D02*
G03X236375Y157000I1800J0D01*
G01X236350Y157300D02*
Y166500D01*
X236361Y166700D02*
G03X236350Y166500I1789J-200D01*
G01X236361Y166700D02*
X221900D01*
Y156400*
X222920*
X222964Y156444*
X224307Y157000D02*
G03X222964Y156444I0J-1900D01*
G01X243100Y149393D02*
X243148Y149441D01*
X242965Y149431D02*
G03X243148Y149441I0J1794D01*
G01X242965Y149431D02*
X237847D01*
X236903Y149700D02*
G03X237847Y149431I944J1525D01*
G01X236903Y149700D02*
X236400D01*
Y150166*
X236054Y151225D02*
G03X236400Y150166I1793J0D01*
G01X236054Y151225D02*
Y152052D01*
X236400Y153112D02*
G03X236054Y152052I1447J-1060D01*
G01X236400Y153112D02*
Y154500D01*
X223707*
X223500Y154293*
Y147900*
X224492*
X225100Y148000D02*
G03X224492Y147900I0J-1900D01*
G01X225100Y148000D02*
X235008D01*
X236200Y148420D02*
G03X235008Y148000I0J-1900D01*
G01X236200Y148420D02*
X236844D01*
X237847Y148728D02*
G03X236844Y148420I0J-1794D01*
G01X237847Y148728D02*
X242965D01*
X243100Y148723D02*
G03X242965Y148728I-135J-1789D01*
G01X243100Y148723D02*
Y149393D01*
X292100Y186700D02*
Y197500D01*
X250300*
Y186700*
X282272*
X287528D02*
G03X282272I-2628J3470D01*
G01X287528D02*
X292100D01*
X295000Y111848D02*
Y197500D01*
X294000*
Y186700*
X292100Y184800D02*
G03X294000Y186700I0J1900D01*
G01X292100Y184800D02*
X288460D01*
X286757Y178359D02*
G03X288460Y184800I-1857J3937D01*
G01X286757Y170485D02*
G03Y178359I-1857J3937D01*
G01Y162611D02*
G03Y170485I-1857J3937D01*
G01Y154737D02*
G03Y162611I-1857J3937D01*
G01X283043Y154737D02*
G03X286757I1857J-3937D01*
G01X283043Y162611D02*
G03Y154737I1857J-3937D01*
G01Y170485D02*
G03Y162611I1857J-3937D01*
G01X280608Y173700D02*
G03X283043Y170485I4292J722D01*
G01X280608Y173700D02*
X280262D01*
X279100Y173200D02*
G03X280262Y173700I0J1600D01*
G01X279100Y173200D02*
X275700D01*
X274300Y174025D02*
G03X275700Y173200I1400J775D01*
G01X272900D02*
G03X274300Y174025I0J1600D01*
G01X272900Y173200D02*
X271561D01*
X272400Y171624D02*
G03X271561Y173200I-1900J0D01*
G01X272400Y171624D02*
Y169124D01*
X272100Y168100D02*
G03X272400Y169124I-1600J1024D01*
G01X272100Y168100D02*
X272640D01*
X273984Y167544D02*
G03X272640Y168100I-1344J-1344D01*
G01X273984Y167544D02*
X275084Y166444D01*
X275640Y165100D02*
G03X275084Y166444I-1900J0D01*
G01X275640Y165100D02*
Y165035D01*
X276140Y163750D02*
G03X275640Y165035I-1900J0D01*
G01X276140Y163750D02*
Y161250D01*
X275640Y159965D02*
G03X276140Y161250I-1400J1285D01*
G01X275640Y159965D02*
Y159600D01*
X275545Y159005D02*
G03X275640Y159600I-1805J595D01*
G01X275900Y158000D02*
G03X275545Y159005I-1600J0D01*
G01X275900Y158000D02*
Y155400D01*
X274300Y153800D02*
G03X275900Y155400I0J1600D01*
G01X274300Y153800D02*
X270900D01*
X269500Y154625D02*
G03X270900Y153800I1400J775D01*
G01X268100D02*
G03X269500Y154625I0J1600D01*
G01X268100Y153800D02*
X264700D01*
X263100Y155400D02*
G03X264700Y153800I1600J0D01*
G01X263100Y155400D02*
Y158000D01*
X264700Y159600D02*
G03X263100Y158000I0J-1600D01*
G01X264700Y159600D02*
X264818D01*
X263860Y161250D02*
G03X264818Y159600I1900J0D01*
G01X263860Y161250D02*
Y163750D01*
X264418Y165095D02*
G03X263860Y163750I1342J-1345D01*
G01X264418Y165095D02*
X259860Y169653D01*
X255708Y172306D02*
G03X259860Y169653I2792J-206D01*
G01X255708Y172306D02*
X252308Y168907D01*
X251365Y168277D02*
G03X252308Y168907I-1107J2681D01*
G01X251650Y168300D02*
G03X251365Y168277I0J-1800D01*
G01X251650Y168300D02*
X256850D01*
X258650Y166500D02*
G03X256850Y168300I-1800J0D01*
G01X258650Y166500D02*
Y157300D01*
X256850Y155500D02*
G03X258650Y157300I0J1800D01*
G01X256850Y155500D02*
X251650D01*
X249850Y157300D02*
G03X251650Y155500I1800J0D01*
G01X249850Y157300D02*
Y166500D01*
X250873Y168123D02*
G03X249850Y166500I777J-1623D01*
G01X250258Y168058D02*
G03X250873Y168123I-0J2900D01*
G01X250258Y168058D02*
X246629D01*
X247200Y166700D02*
G03X246629Y168058I-1900J0D01*
G01X247200Y166700D02*
Y156400D01*
X245300Y154500D02*
G03X247200Y156400I0J1900D01*
G01X245300Y154500D02*
X238300D01*
Y153846*
X242965*
X244759Y152052D02*
G03X242965Y153846I-1794J-0D01*
G01X244759Y152052D02*
Y151225D01*
X244750Y151044D02*
G03X244759Y151225I-1785J181D01*
G01X245000Y148664D02*
G03X244750Y151044I-1593J1036D01*
G01X245000Y148664D02*
Y148200D01*
X244734Y147231D02*
G03X245000Y148200I-1634J969D01*
G01X244759Y146934D02*
G03X244734Y147231I-1794J-0D01*
G01X244759Y146934D02*
Y146107D01*
X244536Y145241D02*
G03X244759Y146107I-1571J866D01*
G01Y144375D02*
G03X244536Y145241I-1794J-0D01*
G01X244759Y144375D02*
Y143548D01*
X242965Y141754D02*
G03X244759Y143548I0J1794D01*
G01X242965Y141754D02*
X237847D01*
X237564Y141777D02*
G03X237847Y141754I283J1771D01*
G01X237564Y141777D02*
X237444Y141656D01*
X236900Y141277D02*
G03X237444Y141656I-800J1723D01*
G01X236900Y141277D02*
Y140772D01*
X238000Y139975D02*
G03X236900Y140772I-1400J-775D01*
G01X239400Y140800D02*
G03X238000Y139975I0J-1600D01*
G01X239400Y140800D02*
X242800D01*
X244400Y139200D02*
G03X242800Y140800I-1600J0D01*
G01X244400Y139200D02*
Y136600D01*
X242800Y135000D02*
G03X244400Y136600I0J1600D01*
G01X242800Y135000D02*
X239400D01*
X238000Y135825D02*
G03X239400Y135000I1400J775D01*
G01X236600D02*
G03X238000Y135825I0J1600D01*
G01X236600Y135000D02*
X233200D01*
X231600Y136600D02*
G03X233200Y135000I1600J0D01*
G01X231600Y136600D02*
Y139200D01*
X231877Y140100D02*
G03X231600Y139200I1323J-900D01*
G01X231877Y140100D02*
X229700D01*
X228300Y140925D02*
G03X229700Y140100I1400J775D01*
G01X226900D02*
G03X228300Y140925I0J1600D01*
G01X226900Y140100D02*
X224001D01*
X227051Y137051*
X227893Y134798D02*
G03X227051Y137051I-2893J202D01*
G01X225202Y132107D02*
G03X227893Y134798I2798J-107D01*
G01X222949Y132949D02*
G03X225202Y132107I2051J2051D01*
G01X222949Y132949D02*
X217949Y137949D01*
X217100Y140000D02*
G03X217949Y137949I2900J0D01*
G01X217100Y140000D02*
Y146000D01*
Y155000*
X217949Y157051D02*
G03X217100Y155000I2051J-2051D01*
G01X217949Y157051D02*
X220000Y159101D01*
Y166700*
X221900Y168600D02*
G03X220000Y166700I0J-1900D01*
G01X221900Y168600D02*
X236839D01*
X236043Y169200D02*
G03X236839Y168600I2057J1900D01*
G01X236043Y169200D02*
X228800D01*
X227456Y169756D02*
G03X228800Y169200I1344J1344D01*
G01X227456Y169756D02*
X213011Y184202D01*
X215698Y186889D02*
G03X213011Y184202I-2798J111D01*
G01X215698Y186889D02*
X220844Y181743D01*
X224193Y197500D02*
G03X220844Y181743I8307J-10000D01*
G01X224193Y197500D02*
X168670D01*
X169900Y188866D02*
G03X168670Y197500I-1900J4134D01*
G01X169900Y188866D02*
Y187472D01*
X171200Y185900D02*
G03X169900Y187472I-1600J0D01*
G01X171200Y185900D02*
Y183300D01*
X169600Y181700D02*
G03X171200Y183300I0J1600D01*
G01X169600Y181700D02*
X166200D01*
X164800Y182525D02*
G03X166200Y181700I1400J775D01*
G01X163400D02*
G03X164800Y182525I0J1600D01*
G01X163400Y181700D02*
X161487D01*
X159500Y179713*
X158651Y177649D02*
G03X159500Y179713I-2051J2051D01*
G01X158651Y177649D02*
X148900Y167899D01*
Y140500*
X143100D02*
G03X148900I2900J0D01*
G01X143100D02*
Y142185D01*
X140137Y142804D02*
G03X143100Y142185I1963J1996D01*
G01X138400Y147800D02*
G03X140137Y142804I0J-2800D01*
G01X138400Y147800D02*
Y158600D01*
X138956Y159944D02*
G03X138400Y158600I1344J-1344D01*
G01X138956Y159944D02*
X139600Y160587D01*
Y165600*
X137900*
X136875Y165900D02*
G03X137900Y165600I1025J1600D01*
G01X136875Y165900D02*
X135257D01*
Y169700D02*
G03Y165900I-2057J-1900D01*
G01Y169700D02*
X137600D01*
X138625Y169400D02*
G03X137600Y169700I-1025J-1600D01*
G01X138625Y169400D02*
X141300D01*
Y170458*
X146115Y173317D02*
G03X141300Y170458I-2415J-1417D01*
G01X146115Y173317D02*
X154549Y181751D01*
X156987Y182574D02*
G03X154549Y181751I-387J-2874D01*
G01X156987Y182574D02*
X158400Y183987D01*
Y185900*
X160000Y187500D02*
G03X158400Y185900I0J-1600D01*
G01X160000Y187500D02*
X163400D01*
X164800Y186675D02*
G03X163400Y187500I-1400J-775D01*
G01X166100Y187497D02*
G03X164800Y186675I100J-1597D01*
G01X166100Y187497D02*
Y188866D01*
X164063Y190720D02*
G03X166100Y188866I3937J2280D01*
G01X156189Y190720D02*
G03X164063I3937J2280D01*
G01X151582Y197500D02*
G03X156189Y190720I670J-4500D01*
G01X151582Y197500D02*
X125500D01*
Y112523*
Y112477D02*
G03Y112523I-13000J23D01*
G01Y112477D02*
Y102500D01*
X224193*
X229300Y125100D02*
G03X224193Y102500I3200J-12600D01*
G01X229300Y125100D02*
X212057D01*
Y128900D02*
G03Y125100I-2057J-1900D01*
G01Y128900D02*
X237943D01*
Y125100D02*
G03Y128900I2057J1900D01*
G01Y125100D02*
X235700D01*
X240807Y102500D02*
G03X235700Y125100I-8307J10000D01*
G01X240807Y102500D02*
X268827D01*
Y110781*
X270027Y111981D02*
G03X268827Y110781I0J-1200D01*
G01X270027Y111981D02*
X294450D01*
X295000Y111848D02*
G03X294450Y111981I-550J-1067D01*
G01X271297Y159844D02*
X271655Y160202D01*
X271340Y161250D02*
G03X271655Y160202I1900J0D01*
G01X271340Y161250D02*
Y163750D01*
X271421Y164300D02*
G03X271340Y163750I1819J-550D01*
G01X271421Y164300D02*
X268579D01*
X268660Y163750D02*
G03X268579Y164300I-1900J0D01*
G01X268660Y163750D02*
Y161250D01*
X267702Y159600D02*
G03X268660Y161250I-942J1650D01*
G01X267702Y159600D02*
X268100D01*
X269500Y158775D02*
G03X268100Y159600I-1400J-775D01*
G01X270900D02*
G03X269500Y158775I0J-1600D01*
G01X270900Y159600D02*
X271091D01*
X271297Y159844D02*
G03X271091Y159600I1343J-1344D01*
G01X271753Y120154D02*
G03X272900Y124458I7347J346D01*
G01X271753Y120154D02*
X266974Y115375D01*
X262872Y119476D02*
G03X266974Y115375I-780J-4882D01*
G01X262872Y119476D02*
X267100Y123704D01*
Y130349*
X264949Y132500*
X262050*
X260250Y134300D02*
G03X262050Y132500I1800J0D01*
G01X260250Y134300D02*
Y139500D01*
X262050Y141300D02*
G03X260250Y139500I0J-1800D01*
G01X262050Y141300D02*
X264800D01*
Y144320*
X263912*
X263753Y144313D02*
G03X263912Y144320I-0J1794D01*
G01X263753Y144313D02*
X258635D01*
X256841Y146107D02*
G03X258635Y144313I1794J0D01*
G01X256841Y146107D02*
Y146934D01*
X257064Y147800D02*
G03X256841Y146934I1571J-866D01*
G01Y148666D02*
G03X257064Y147800I1794J0D01*
G01X256841Y148666D02*
Y149493D01*
X258635Y151287D02*
G03X256841Y149493I-0J-1794D01*
G01X258635Y151287D02*
X260972D01*
X261214Y151300D02*
G03X260972Y151287I0J-2200D01*
G01X261214Y151300D02*
X266100D01*
X267656Y150656D02*
G03X266100Y151300I-1556J-1556D01*
G01X267656Y150656D02*
X268077Y150234D01*
X269600Y148000D02*
G03X268077Y150234I-2400J0D01*
G01X269600Y148000D02*
Y146520D01*
Y139450*
X269050Y137921D02*
G03X269600Y139450I-1850J1529D01*
G01X269050Y137921D02*
Y136601D01*
X272051Y133601*
X272900Y131550D02*
G03X272051Y133601I-2900J0D01*
G01X272900Y131550D02*
Y124458D01*
X194911Y105520D02*
G03Y110080I3937J2280D01*
G01X187037Y105520D02*
G03X194911I3937J2280D01*
G01X181200Y111934D02*
G03X187037Y105520I1900J-4134D01*
G01X181200Y111934D02*
Y112483D01*
X180623Y113060*
X177536*
X176192Y113617D02*
G03X177536Y113060I1344J1343D01*
G01X176192Y113617D02*
X167656Y122152D01*
X167100Y123496D02*
G03X167656Y122152I1900J-0D01*
G01X167100Y123496D02*
Y127143D01*
X171100Y131052D02*
G03X167100Y127143I-2100J-1852D01*
G01X171100Y131052D02*
Y131413D01*
X171056Y131456*
X170500Y132800D02*
G03X171056Y131456I1900J0D01*
G01X170500Y132800D02*
Y133513D01*
X169300Y134325D02*
G03X170500Y133513I1400J775D01*
G01X167900Y133500D02*
G03X169300Y134325I0J1600D01*
G01X167900Y133500D02*
X164500D01*
X162900Y135100D02*
G03X164500Y133500I1600J0D01*
G01X162900Y135100D02*
Y137700D01*
X164300Y139287D02*
G03X162900Y137700I200J-1587D01*
G01X164300Y139287D02*
Y143600D01*
X164856Y144944D02*
G03X164300Y143600I1344J-1344D01*
G01X164856Y144944D02*
X167402Y147489D01*
X170089Y144802D02*
G03X167402Y147489I111J2798D01*
G01X170089Y144802D02*
X168100Y142813D01*
Y139287*
X169300Y138475D02*
G03X168100Y139287I-1400J-775D01*
G01X170700Y139300D02*
G03X169300Y138475I0J-1600D01*
G01X170700Y139300D02*
X174100D01*
X175700Y137700D02*
G03X174100Y139300I-1600J0D01*
G01X175700Y137700D02*
Y135100D01*
X174365Y133522D02*
G03X175700Y135100I-265J1578D01*
G01X174900Y132200D02*
G03X174365Y133522I-1900J0D01*
G01X174900Y132200D02*
Y130857D01*
X172900Y126002D02*
G03X174900Y130857I100J2798D01*
G01X172900Y126002D02*
Y124687D01*
X178587Y119000*
X181674*
X183018Y118444D02*
G03X181674Y119000I-1344J-1344D01*
G01X183018Y118444D02*
X189394Y112067D01*
X194911Y110080D02*
G03X189394Y112067I-3937J-2280D01*
G01X201300Y129400D02*
Y126800D01*
X200467Y125396D02*
G03X201300Y126800I-767J1404D01*
G01X195688Y125322D02*
G03X200467Y125396I2412J-1422D01*
G01X194900Y126025D02*
G03X195688Y125322I1400J775D01*
G01X193500Y125200D02*
G03X194900Y126025I0J1600D01*
G01X193500Y125200D02*
X190100D01*
X188500Y126800D02*
G03X190100Y125200I1600J0D01*
G01X188500Y126800D02*
Y129400D01*
X190100Y131000D02*
G03X188500Y129400I0J-1600D01*
G01X190100Y131000D02*
X193500D01*
X194900Y130175D02*
G03X193500Y131000I-1400J-775D01*
G01X196300D02*
G03X194900Y130175I0J-1600D01*
G01X196300Y131000D02*
X199700D01*
X201300Y129400D02*
G03X199700Y131000I-1600J0D01*
G01X267035Y126406D02*
G03X267035I-4943J0D01*
G01X221900Y166299D02*
X236350D01*
X221900Y165399D02*
X236350D01*
X221900Y164499D02*
X236350D01*
X221900Y163599D02*
X236350D01*
X221900Y162699D02*
X236350D01*
X221900Y161799D02*
X236350D01*
X221900Y160899D02*
X236350D01*
X221900Y159999D02*
X236350D01*
X221900Y159099D02*
X236350D01*
X221900Y158199D02*
X236350D01*
X221900Y157299D02*
X236350D01*
X245150Y166299D02*
X245300D01*
X245150Y165399D02*
X245300D01*
X245150Y164499D02*
X245300D01*
X245150Y163599D02*
X245300D01*
X245150Y162699D02*
X245300D01*
X245150Y161799D02*
X245300D01*
X245150Y160899D02*
X245300D01*
X245150Y159999D02*
X245300D01*
X245150Y159099D02*
X245300D01*
X245150Y158199D02*
X245300D01*
X245150Y157299D02*
X245300D01*
X223500Y149299D02*
X243100D01*
X223500Y153799D02*
X236400D01*
X223500Y150199D02*
X236376D01*
X223500Y152899D02*
X236266D01*
X223500Y151099D02*
X236058D01*
X223500Y151999D02*
X236054D01*
X223500Y148399D02*
X235913D01*
X250300Y197499D02*
X292100D01*
X250300Y196599D02*
X292100D01*
X250300Y195699D02*
X292100D01*
X250300Y194799D02*
X292100D01*
X287146Y193899D02*
X292100D01*
X288208Y192999D02*
X292100D01*
X288802Y192099D02*
X292100D01*
X289129Y191199D02*
X292100D01*
X289251Y190299D02*
X292100D01*
X289184Y189399D02*
X292100D01*
X288919Y188499D02*
X292100D01*
X288412Y187599D02*
X292100D01*
X250300Y193899D02*
X282654D01*
X250300Y192999D02*
X281592D01*
X250300Y187599D02*
X281388D01*
X250300Y192099D02*
X280998D01*
X250300Y188499D02*
X280881D01*
X250300Y191199D02*
X280671D01*
X250300Y189399D02*
X280616D01*
X250300Y190299D02*
X280549D01*
X268605Y160799D02*
X271395D01*
X268096Y159899D02*
X271352D01*
X268660Y163499D02*
X271340D01*
X268660Y162599D02*
X271340D01*
X268660Y161699D02*
X271340D01*
X269350Y158999D02*
X269650D01*
X294000Y196799D02*
X295000D01*
X294000Y195899D02*
X295000D01*
X294000Y194999D02*
X295000D01*
X294000Y194099D02*
X295000D01*
X294000Y193199D02*
X295000D01*
X294000Y192299D02*
X295000D01*
X294000Y191399D02*
X295000D01*
X294000Y190499D02*
X295000D01*
X294000Y189599D02*
X295000D01*
X294000Y188699D02*
X295000D01*
X294000Y187799D02*
X295000D01*
X294000Y186899D02*
X295000D01*
X293866Y185999D02*
X295000D01*
X293123Y185099D02*
X295000D01*
X288815Y184199D02*
X295000D01*
X289136Y183299D02*
X295000D01*
X289252Y182399D02*
X295000D01*
X289179Y181499D02*
X295000D01*
X288908Y180599D02*
X295000D01*
X288393Y179699D02*
X295000D01*
X287491Y178799D02*
X295000D01*
X287519Y177899D02*
X295000D01*
X288408Y176999D02*
X295000D01*
X288917Y176099D02*
X295000D01*
X289183Y175199D02*
X295000D01*
X289251Y174299D02*
X295000D01*
X289131Y173399D02*
X295000D01*
X288805Y172499D02*
X295000D01*
X288213Y171599D02*
X295000D01*
X287155Y170699D02*
X295000D01*
X287795Y169799D02*
X295000D01*
X288563Y168899D02*
X295000D01*
X289004Y167999D02*
X295000D01*
X289218Y167099D02*
X295000D01*
X289239Y166199D02*
X295000D01*
X289070Y165299D02*
X295000D01*
X288685Y164399D02*
X295000D01*
X288006Y163499D02*
X295000D01*
X286782Y162599D02*
X295000D01*
X288030Y161699D02*
X295000D01*
X288699Y160799D02*
X295000D01*
X289077Y159899D02*
X295000D01*
X289241Y158999D02*
X295000D01*
X289215Y158099D02*
X295000D01*
X288995Y157199D02*
X295000D01*
X288548Y156299D02*
X295000D01*
X287767Y155399D02*
X295000D01*
X287195Y154499D02*
X295000D01*
X288234Y153599D02*
X295000D01*
X288817Y152699D02*
X295000D01*
X289137Y151799D02*
X295000D01*
X289252Y150899D02*
X295000D01*
X289178Y149999D02*
X295000D01*
X288907Y149099D02*
X295000D01*
X288390Y148199D02*
X295000D01*
X287486Y147299D02*
X295000D01*
X269600Y146399D02*
X295000D01*
X269600Y145499D02*
X295000D01*
X269600Y144599D02*
X295000D01*
X269600Y143699D02*
X295000D01*
X269600Y142799D02*
X295000D01*
X269600Y141899D02*
X295000D01*
X269600Y140999D02*
X295000D01*
X269600Y140099D02*
X295000D01*
X269587Y139199D02*
X295000D01*
X269306Y138299D02*
X295000D01*
X269050Y137399D02*
X295000D01*
X269153Y136499D02*
X295000D01*
X270053Y135599D02*
X295000D01*
X270953Y134699D02*
X295000D01*
X271853Y133799D02*
X295000D01*
X272567Y132899D02*
X295000D01*
X272865Y131999D02*
X295000D01*
X272900Y131099D02*
X295000D01*
X272900Y130199D02*
X295000D01*
X272900Y129299D02*
X295000D01*
X272900Y128399D02*
X295000D01*
X281363Y127499D02*
X295000D01*
X283212Y126599D02*
X295000D01*
X284304Y125699D02*
X295000D01*
X285069Y124799D02*
X295000D01*
X285623Y123899D02*
X295000D01*
X286018Y122999D02*
X295000D01*
X286280Y122099D02*
X295000D01*
X286422Y121199D02*
X295000D01*
X286453Y120299D02*
X295000D01*
X286373Y119399D02*
X295000D01*
X286178Y118499D02*
X295000D01*
X285859Y117599D02*
X295000D01*
X285397Y116699D02*
X295000D01*
X284757Y115799D02*
X295000D01*
X283868Y114899D02*
X295000D01*
X282540Y113999D02*
X295000D01*
X266804Y113099D02*
X295000D01*
X266416Y112199D02*
X295000D01*
X276140Y162599D02*
X283018D01*
X272400Y170699D02*
X282645D01*
X275622Y154499D02*
X282605D01*
X269600Y147299D02*
X282314D01*
X275900Y155399D02*
X282033D01*
X272400Y169799D02*
X282005D01*
X276140Y163499D02*
X281794D01*
X276140Y161699D02*
X281770D01*
X272400Y171599D02*
X281587D01*
X243874Y153599D02*
X281566D01*
X269592Y148199D02*
X281410D01*
X275900Y156299D02*
X281252D01*
X272387Y168899D02*
X281237D01*
X276026Y164399D02*
X281115D01*
X276086Y160799D02*
X281101D01*
X272187Y172499D02*
X280995D01*
X244638Y152699D02*
X280983D01*
X269334Y149099D02*
X280893D01*
X275900Y157199D02*
X280805D01*
X273252Y167999D02*
X280796D01*
X275630Y165299D02*
X280730D01*
X275640Y159899D02*
X280723D01*
X279872Y173399D02*
X280669D01*
X244759Y151799D02*
X280663D01*
X268529Y149999D02*
X280622D01*
X275897Y158099D02*
X280585D01*
X274429Y167099D02*
X280582D01*
X275290Y166199D02*
X280561D01*
X275550Y158999D02*
X280559D01*
X267367Y150899D02*
X280548D01*
X272900Y127499D02*
X276837D01*
X266999Y113999D02*
X275660D01*
X272900Y126599D02*
X274988D01*
X273672Y173399D02*
X274928D01*
X267026Y114899D02*
X274332D01*
X272900Y125699D02*
X273896D01*
X267398Y115799D02*
X273443D01*
X272900Y124799D02*
X273131D01*
X268298Y116699D02*
X272803D01*
X269198Y117599D02*
X272341D01*
X270098Y118499D02*
X272022D01*
X270998Y119399D02*
X271827D01*
X269422Y154499D02*
X269578D01*
X265776Y111299D02*
X268945D01*
X264706Y110399D02*
X268827D01*
X245149Y109499D02*
X268827D01*
X244901Y108599D02*
X268827D01*
X244581Y107699D02*
X268827D01*
X244183Y106799D02*
X268827D01*
X243699Y105899D02*
X268827D01*
X243117Y104999D02*
X268827D01*
X242421Y104099D02*
X268827D01*
X241582Y103199D02*
X268827D01*
X265262Y130199D02*
X267100D01*
X266100Y129299D02*
X267100D01*
X266616Y128399D02*
X267100D01*
X266913Y127499D02*
X267100D01*
X267032Y126599D02*
X267100D01*
X266985Y125699D02*
X267100D01*
X266767Y124799D02*
X267100D01*
X266353Y123899D02*
X267100D01*
X265674Y122999D02*
X266395D01*
X263645Y131099D02*
X266350D01*
X264519Y122099D02*
X265495D01*
X230800Y131999D02*
X265450D01*
X244759Y143699D02*
X264800D01*
X244595Y142799D02*
X264800D01*
X243670Y141899D02*
X264800D01*
X242161Y121199D02*
X264595D01*
X258650Y159899D02*
X264424D01*
X258650Y165299D02*
X264214D01*
X258650Y164399D02*
X263974D01*
X258650Y160799D02*
X263914D01*
X258650Y163499D02*
X263860D01*
X258650Y162599D02*
X263860D01*
X258650Y161699D02*
X263860D01*
X242901Y120299D02*
X263695D01*
X258650Y158999D02*
X263450D01*
X238300Y154499D02*
X263378D01*
X258650Y166199D02*
X263314D01*
X258650Y158099D02*
X263103D01*
X258647Y157199D02*
X263100D01*
X258346Y156299D02*
X263100D01*
X246915Y155399D02*
X263100D01*
X258548Y167099D02*
X262414D01*
X257847Y167999D02*
X261514D01*
X236900Y140999D02*
X261053D01*
X243519Y119399D02*
X260928D01*
X230652Y132899D02*
X260920D01*
X252300Y168899D02*
X260614D01*
X230651Y131099D02*
X260540D01*
X244124Y140099D02*
X260352D01*
X230146Y133799D02*
X260321D01*
X244400Y139199D02*
X260250D01*
X244400Y138299D02*
X260250D01*
X244400Y137399D02*
X260250D01*
X244397Y136499D02*
X260250D01*
X244048Y135599D02*
X260250D01*
X228746Y134699D02*
X260250D01*
X241267Y122099D02*
X259666D01*
X245329Y110399D02*
X259478D01*
X244033Y118499D02*
X259060D01*
X230144Y130199D02*
X258922D01*
X240167Y122999D02*
X258510D01*
X245444Y111299D02*
X258408D01*
X244458Y117599D02*
X258166D01*
X241599Y129299D02*
X258084D01*
X238751Y123899D02*
X257832D01*
X245497Y112199D02*
X257768D01*
X244745Y144599D02*
X257664D01*
X244803Y116699D02*
X257619D01*
X242426Y128399D02*
X257568D01*
X244881Y150899D02*
X257521D01*
X241730Y124799D02*
X257417D01*
X245486Y113099D02*
X257381D01*
X245075Y115799D02*
X257298D01*
X242755Y127499D02*
X257271D01*
X242479Y125699D02*
X257200D01*
X245413Y113999D02*
X257185D01*
X245277Y114899D02*
X257158D01*
X242771Y126599D02*
X257153D01*
X244653Y145499D02*
X256947D01*
X245283Y149999D02*
X256914D01*
X253200Y169799D02*
X256905D01*
X245000Y148199D02*
X256903D01*
X244773Y147299D02*
X256878D01*
X245209Y149099D02*
X256841D01*
X244759Y146399D02*
X256841D01*
X254100Y170699D02*
X256076D01*
X255000Y171599D02*
X255745D01*
X246687Y167999D02*
X250653D01*
X247197Y156299D02*
X250154D01*
X247158Y167099D02*
X249952D01*
X247200Y157199D02*
X249853D01*
X247200Y166199D02*
X249850D01*
X247200Y165299D02*
X249850D01*
X247200Y164399D02*
X249850D01*
X247200Y163499D02*
X249850D01*
X247200Y162599D02*
X249850D01*
X247200Y161699D02*
X249850D01*
X247200Y160799D02*
X249850D01*
X247200Y159899D02*
X249850D01*
X247200Y158999D02*
X249850D01*
X247200Y158099D02*
X249850D01*
X228737Y129299D02*
X238401D01*
X236712Y124799D02*
X238270D01*
X237848Y135599D02*
X238152D01*
X237924Y140099D02*
X238076D01*
X149900Y168899D02*
X236370D01*
X227838Y135599D02*
X231952D01*
X224003Y140099D02*
X231876D01*
X227483Y136499D02*
X231603D01*
X224903Y139199D02*
X231600D01*
X225803Y138299D02*
X231600D01*
X226703Y137399D02*
X231600D01*
X211730Y124799D02*
X228288D01*
X150800Y169799D02*
X227414D01*
X211599Y129299D02*
X227263D01*
X151700Y170699D02*
X226514D01*
X200900Y123899D02*
X226249D01*
X201086Y130199D02*
X225856D01*
X152600Y171599D02*
X225614D01*
X174900Y131099D02*
X225349D01*
X174900Y131999D02*
X225200D01*
X200751Y122999D02*
X224833D01*
X153500Y172499D02*
X224714D01*
X154400Y173399D02*
X223814D01*
X200244Y122099D02*
X223733D01*
X125500Y103199D02*
X223418D01*
X170504Y196799D02*
X223415D01*
X174767Y132899D02*
X223001D01*
X155300Y174299D02*
X222914D01*
X198837Y121199D02*
X222839D01*
X201494Y104099D02*
X222579D01*
X171507Y195899D02*
X222577D01*
X175031Y133799D02*
X222100D01*
X177288Y120299D02*
X222099D01*
X156200Y175199D02*
X222014D01*
X202433Y104999D02*
X221883D01*
X172087Y194999D02*
X221881D01*
X178188Y119399D02*
X221481D01*
X202981Y105899D02*
X221301D01*
X172415Y194099D02*
X221299D01*
X175649Y134699D02*
X221200D01*
X157100Y176099D02*
X221114D01*
X182960Y118499D02*
X220967D01*
X203286Y106799D02*
X220817D01*
X172545Y193199D02*
X220816D01*
X220188Y182399D02*
X220543D01*
X183862Y117599D02*
X220542D01*
X149000Y167999D02*
X220513D01*
X203397Y107699D02*
X220419D01*
X172495Y192299D02*
X220418D01*
X175700Y135599D02*
X220300D01*
X158000Y176999D02*
X220214D01*
X219288Y183299D02*
X220198D01*
X184762Y116699D02*
X220197D01*
X203327Y108599D02*
X220099D01*
X172259Y191399D02*
X220098D01*
X148900Y167099D02*
X220042D01*
X148900Y166199D02*
X220000D01*
X148900Y165299D02*
X220000D01*
X148900Y164399D02*
X220000D01*
X148900Y163499D02*
X220000D01*
X148900Y162599D02*
X220000D01*
X148900Y161699D02*
X220000D01*
X148900Y160799D02*
X220000D01*
X148900Y159899D02*
X220000D01*
X218388Y184199D02*
X219926D01*
X185662Y115799D02*
X219925D01*
X148900Y158999D02*
X219897D01*
X203069Y109499D02*
X219851D01*
X171800Y190499D02*
X219851D01*
X217488Y185099D02*
X219724D01*
X186562Y114899D02*
X219723D01*
X202582Y110399D02*
X219671D01*
X213943Y189599D02*
X219671D01*
X216588Y185999D02*
X219587D01*
X187462Y113999D02*
X219587D01*
X201756Y111299D02*
X219556D01*
X215126Y188699D02*
X219555D01*
X215698Y186899D02*
X219514D01*
X188362Y113099D02*
X219514D01*
X200010Y112199D02*
X219503D01*
X215584Y187799D02*
X219503D01*
X175700Y136499D02*
X219400D01*
X158873Y177899D02*
X219314D01*
X148900Y158099D02*
X218997D01*
X175700Y137399D02*
X218500D01*
X159356Y178799D02*
X218414D01*
X148900Y157199D02*
X218097D01*
X175584Y138299D02*
X217651D01*
X159500Y179699D02*
X217514D01*
X148900Y156299D02*
X217407D01*
X174660Y139199D02*
X217213D01*
X148900Y155399D02*
X217128D01*
X148900Y154499D02*
X217100D01*
X148900Y153599D02*
X217100D01*
X148900Y152699D02*
X217100D01*
X148900Y151799D02*
X217100D01*
X148900Y150899D02*
X217100D01*
X171644Y149999D02*
X217100D01*
X172565Y149099D02*
X217100D01*
X172935Y148199D02*
X217100D01*
X172984Y147299D02*
X217100D01*
X172729Y146399D02*
X217100D01*
X172051Y145499D02*
X217100D01*
X169886Y144599D02*
X217100D01*
X168986Y143699D02*
X217100D01*
X168100Y142799D02*
X217100D01*
X168100Y141899D02*
X217100D01*
X168100Y140999D02*
X217100D01*
X168100Y140099D02*
X217100D01*
X160386Y180599D02*
X216614D01*
X161286Y181499D02*
X215714D01*
X170922Y182399D02*
X214814D01*
X171200Y183299D02*
X213914D01*
X171200Y184199D02*
X213014D01*
X171022Y189599D02*
X211857D01*
X171200Y185099D02*
X210844D01*
X169900Y188699D02*
X210674D01*
X171197Y185999D02*
X210285D01*
X169900Y187799D02*
X210216D01*
X170850Y186899D02*
X210102D01*
X201300Y129299D02*
X208401D01*
X200752Y124799D02*
X208270D01*
X201300Y128399D02*
X207574D01*
X200861Y125699D02*
X207521D01*
X201300Y127499D02*
X207245D01*
X201287Y126599D02*
X207229D01*
X192136Y112199D02*
X197686D01*
X176388Y121199D02*
X197363D01*
X193620Y104099D02*
X196202D01*
X175488Y122099D02*
X195956D01*
X193882Y111299D02*
X195940D01*
X174588Y122999D02*
X195449D01*
X172900Y124799D02*
X195448D01*
X173688Y123899D02*
X195300D01*
X194559Y104999D02*
X195263D01*
X194661Y125699D02*
X195139D01*
X194708Y110399D02*
X195114D01*
X194886Y130199D02*
X194914D01*
X189262Y112199D02*
X189812D01*
X172900Y125699D02*
X188939D01*
X175426Y130199D02*
X188714D01*
X174730Y126599D02*
X188513D01*
X175755Y129299D02*
X188500D01*
X175771Y128399D02*
X188500D01*
X175479Y127499D02*
X188500D01*
X185746Y104099D02*
X188328D01*
X186685Y104999D02*
X187389D01*
X125500Y112199D02*
X181200D01*
X125500Y104099D02*
X180454D01*
X125500Y111299D02*
X180192D01*
X125500Y104999D02*
X179515D01*
X125500Y110399D02*
X179366D01*
X125500Y105899D02*
X178967D01*
X125500Y109499D02*
X178879D01*
X125500Y106799D02*
X178662D01*
X125500Y108599D02*
X178621D01*
X125500Y107699D02*
X178552D01*
X125500Y113099D02*
X177155D01*
X125500Y113999D02*
X175810D01*
X125500Y114899D02*
X174910D01*
X125500Y115799D02*
X174010D01*
X125500Y116699D02*
X173110D01*
X125500Y117599D02*
X172210D01*
X125500Y118499D02*
X171310D01*
X171058Y131099D02*
X171100D01*
X169086Y131999D02*
X170677D01*
X125500Y132899D02*
X170500D01*
X125500Y119399D02*
X170410D01*
X168460Y139199D02*
X170140D01*
X168831Y133799D02*
X169769D01*
X125500Y120299D02*
X169510D01*
X125500Y131999D02*
X168914D01*
X148900Y149999D02*
X168756D01*
X125500Y121199D02*
X168610D01*
X148900Y149099D02*
X167835D01*
X125500Y122099D02*
X167710D01*
X148900Y148199D02*
X167465D01*
X148900Y147299D02*
X167212D01*
X125500Y122999D02*
X167166D01*
X125500Y126599D02*
X167100D01*
X125500Y125699D02*
X167100D01*
X125500Y124799D02*
X167100D01*
X125500Y123899D02*
X167100D01*
X125500Y131099D02*
X166942D01*
X125500Y127499D02*
X166776D01*
X125500Y130199D02*
X166384D01*
X125500Y128399D02*
X166317D01*
X148900Y146399D02*
X166312D01*
X125500Y129299D02*
X166202D01*
X161608Y188699D02*
X166100D01*
X125500Y187799D02*
X166100D01*
X148900Y145499D02*
X165412D01*
X163148Y189599D02*
X164978D01*
X164650Y186899D02*
X164950D01*
X164722Y182399D02*
X164878D01*
X148900Y144599D02*
X164584D01*
X148900Y143699D02*
X164303D01*
X148900Y142799D02*
X164300D01*
X148900Y141899D02*
X164300D01*
X148900Y140999D02*
X164300D01*
X148872Y140099D02*
X164300D01*
X163926Y190499D02*
X164200D01*
X148592Y139199D02*
X163940D01*
X125500Y133799D02*
X163569D01*
X147888Y138299D02*
X163016D01*
X125500Y134699D02*
X162951D01*
X125500Y137399D02*
X162900D01*
X125500Y136499D02*
X162900D01*
X125500Y135599D02*
X162900D01*
X125500Y186899D02*
X158750D01*
X153734Y188699D02*
X158643D01*
X125500Y185999D02*
X158403D01*
X125500Y185099D02*
X158400D01*
X125500Y184199D02*
X158400D01*
X125500Y183299D02*
X157712D01*
X155274Y189599D02*
X157104D01*
X156052Y190499D02*
X156326D01*
X125500Y182399D02*
X155538D01*
X125500Y181499D02*
X154297D01*
X125500Y180599D02*
X153397D01*
X125500Y179699D02*
X152497D01*
X125500Y178799D02*
X151597D01*
X125500Y188699D02*
X150769D01*
X125500Y177899D02*
X150697D01*
X125500Y176999D02*
X149797D01*
X125500Y196799D02*
X149748D01*
X125500Y189599D02*
X149230D01*
X125500Y176099D02*
X148897D01*
X125500Y195899D02*
X148745D01*
X125500Y190499D02*
X148452D01*
X125500Y194999D02*
X148165D01*
X125500Y175199D02*
X147997D01*
X125500Y191399D02*
X147993D01*
X125500Y194099D02*
X147837D01*
X125500Y192299D02*
X147757D01*
X125500Y193199D02*
X147707D01*
X145144Y174299D02*
X147097D01*
X146065Y173399D02*
X146197D01*
X125500Y138299D02*
X144112D01*
X125500Y139199D02*
X143408D01*
X125500Y140099D02*
X143128D01*
X125500Y141899D02*
X143100D01*
X125500Y140999D02*
X143100D01*
X125500Y174299D02*
X142256D01*
X125500Y173399D02*
X141335D01*
X135161Y169799D02*
X141300D01*
X125500Y170699D02*
X141171D01*
X125500Y172499D02*
X140965D01*
X125500Y171599D02*
X140916D01*
X140130Y142799D02*
X140142D01*
X134458Y165299D02*
X139600D01*
X125500Y164399D02*
X139600D01*
X125500Y163499D02*
X139600D01*
X125500Y162599D02*
X139600D01*
X125500Y161699D02*
X139600D01*
X125500Y160799D02*
X139600D01*
X125500Y159899D02*
X138913D01*
X125500Y158999D02*
X138442D01*
X125500Y158099D02*
X138400D01*
X125500Y157199D02*
X138400D01*
X125500Y156299D02*
X138400D01*
X125500Y155399D02*
X138400D01*
X125500Y154499D02*
X138400D01*
X125500Y153599D02*
X138400D01*
X125500Y152699D02*
X138400D01*
X125500Y151799D02*
X138400D01*
X125500Y150899D02*
X138400D01*
X125500Y149999D02*
X138400D01*
X125500Y149099D02*
X138400D01*
X125500Y148199D02*
X138400D01*
X125500Y147299D02*
X136801D01*
X125500Y142799D02*
X136670D01*
X125500Y146399D02*
X135974D01*
X125500Y143699D02*
X135921D01*
X125500Y145499D02*
X135645D01*
X125500Y144599D02*
X135629D01*
X125500Y165299D02*
X131942D01*
X125500Y169799D02*
X131239D01*
X125500Y166199D02*
X130903D01*
X125500Y168899D02*
X130625D01*
X125500Y167099D02*
X130489D01*
X125500Y167999D02*
X130407D01*
X249850Y161900D02*
X251250D01*
X254250Y168300D02*
Y166900D01*
X258650Y161900D02*
X257250D01*
X254250Y155500D02*
Y156900D01*
X191800Y131000D02*
Y129600D01*
Y125200D02*
Y126600D01*
X188500Y128100D02*
X189900D01*
X266400Y153800D02*
Y155200D01*
X263100Y156700D02*
X264500D01*
X263860Y162500D02*
X265260D01*
X268660D02*
X267260D01*
X241100Y135000D02*
Y136400D01*
Y140800D02*
Y139400D01*
X244400Y137900D02*
X243000D01*
X236350Y161900D02*
X237750D01*
X245150D02*
X243750D01*
G54D23*
X262092Y114594D02*
X270000Y122502D01*
Y131550*
X225000Y135000D02*
X220000Y140000D01*
Y146000*
X270000Y131550D02*
X264650Y136900D01*
X146000Y140500D02*
Y169100D01*
X156600Y179700*
X220000Y146000D02*
Y155000D01*
X226000Y161000*
X229318*
X229600Y160718*
X243200Y164500D02*
Y168850D01*
X245308Y170958*
X250258*
X256100Y176800*
X243293Y165610D02*
X243200Y164500D01*
Y168850*
X245308Y170958*
X250258*
X256100Y176800*
X256500*
X256100D02*
X256500D01*
G54D24*
X264650Y136900D02*
X267200Y139450D01*
Y146520*
Y148000*
X271200Y176100D02*
Y181200D01*
X284900Y174422D02*
X283222Y176100D01*
X277400*
X156600Y179500D02*
Y179700D01*
X277400Y181200D02*
X283804D01*
X284900Y182296*
G54D25*
X261194Y143961D02*
X256539D01*
X256500Y144000*
X261194Y146520D02*
X267200D01*
Y148000D02*
X266100Y149100D01*
X255900Y151600D02*
X255939Y151639D01*
X261194*
Y149080D02*
X261214Y149100D01*
X266100*
X262700Y176800D02*
Y179160D01*
X262600Y179260*
X263740Y180400*
Y182300*
G54D26*
X125500Y104000D03*
X132000D03*
X177000D03*
X208000D03*
X215000D03*
X247000D03*
X255000D03*
X263000D03*
X127000Y116000D03*
X129000Y111000D03*
X132000Y116000D03*
X211000Y110000D03*
X251000D03*
X271000Y114000D03*
X292000Y116000D03*
X176000Y126000D03*
X198100Y123900D03*
X210000Y127000D03*
X240000D03*
X251000D03*
X292000Y124000D03*
X169000Y129200D03*
X173000Y128800D03*
X228000Y132000D03*
X225000Y135000D03*
X276000Y133000D03*
X285000D03*
X292000Y132000D03*
X133200Y138500D03*
X138400Y145000D03*
X142100Y144800D03*
X146000Y140500D03*
X170200Y147600D03*
X276000Y141000D03*
X285000D03*
X292000Y139000D03*
Y147000D03*
X131500Y157500D03*
X150300Y152900D03*
X216400Y154800D03*
X253000Y155000D03*
X276000Y149000D03*
X292000Y155000D03*
X131000Y165000D03*
X133200Y167800D03*
X216000Y159000D03*
X292000Y163000D03*
X131500Y173500D03*
X143700Y171900D03*
X238100Y171100D03*
X258500Y172100D03*
X255600Y169300D03*
X292000Y171000D03*
X140000Y186500D03*
X156600Y179700D03*
X212900Y187000D03*
X292000Y180000D03*
X139100Y192100D03*
X180000Y196000D03*
X188000D03*
X187200Y191500D03*
X195000Y196000D03*
X211000D03*
X209000Y191000D03*
X203000Y196000D03*
X218000D03*
G54D27*
X284900Y194523D02*
Y193123D01*
X280547Y190170D02*
X281947D01*
X289253D02*
X287853D01*
X203398Y107800D02*
X201998D01*
X198848Y112350D02*
Y110950D01*
Y103250D02*
Y104650D01*
X280547Y150800D02*
X281947D01*
X284900Y146447D02*
Y147847D01*
X289253Y150800D02*
X287853D01*
X147702Y193000D02*
X149102D01*
X152252Y188450D02*
Y189850D01*
G54D28*
X262092Y131349D02*
Y129949D01*
X257149Y126406D02*
X258549D01*
X262092Y121462D02*
Y122862D01*
G54D29*
X262050Y134300D02*
Y139500D01*
X267250*
Y134300*
X262050*
Y134400D02*
X267250D01*
X262050Y135200D02*
X267250D01*
X262050Y136000D02*
X267250D01*
X262050Y136800D02*
X267250D01*
X262050Y137600D02*
X267250D01*
X262050Y138400D02*
X267250D01*
X262050Y139200D02*
X267250D01*
X262400Y134300D02*
Y139500D01*
X263200Y134300D02*
Y139500D01*
X264000Y134300D02*
Y139500D01*
X264800Y134300D02*
Y139500D01*
X265600Y134300D02*
Y139500D01*
X266400Y134300D02*
Y139500D01*
X267200Y134300D02*
Y139500D01*
X248550Y134300D02*
Y139500D01*
X253750*
Y134300*
X248550*
Y134400D02*
X253750D01*
X248550Y135200D02*
X253750D01*
X248550Y136000D02*
X253750D01*
X248550Y136800D02*
X253750D01*
X248550Y137600D02*
X253750D01*
X248550Y138400D02*
X253750D01*
X248550Y139200D02*
X253750D01*
X248800Y134300D02*
Y139500D01*
X249600Y134300D02*
Y139500D01*
X250400Y134300D02*
Y139500D01*
X251200Y134300D02*
Y139500D01*
X252000Y134300D02*
Y139500D01*
X252800Y134300D02*
Y139500D01*
X253600Y134300D02*
Y139500D01*
X243350Y157300D02*
X238150D01*
Y166500*
X243350*
Y157300*
X238150Y157600D02*
X243350D01*
X238150Y158400D02*
X243350D01*
X238150Y159200D02*
X243350D01*
X238150Y160000D02*
X243350D01*
X238150Y160800D02*
X243350D01*
X238150Y161600D02*
X243350D01*
X238150Y162400D02*
X243350D01*
X238150Y163200D02*
X243350D01*
X238150Y164000D02*
X243350D01*
X238150Y164800D02*
X243350D01*
X238150Y165600D02*
X243350D01*
X238150Y166400D02*
X243350D01*
X238400Y157300D02*
Y166500D01*
X239200Y157300D02*
Y166500D01*
X240000Y157300D02*
Y166500D01*
X240800Y157300D02*
Y166500D01*
X241600Y157300D02*
Y166500D01*
X242400Y157300D02*
Y166500D01*
X243200Y157300D02*
Y166500D01*
X256850Y157300D02*
X251650D01*
Y166500*
X256850*
Y157300*
X251650Y157600D02*
X256850D01*
X251650Y158400D02*
X256850D01*
X251650Y159200D02*
X256850D01*
X251650Y160000D02*
X256850D01*
X251650Y160800D02*
X256850D01*
X251650Y161600D02*
X256850D01*
X251650Y162400D02*
X256850D01*
X251650Y163200D02*
X256850D01*
X251650Y164000D02*
X256850D01*
X251650Y164800D02*
X256850D01*
X251650Y165600D02*
X256850D01*
X251650Y166400D02*
X256850D01*
X252000Y157300D02*
Y166500D01*
X252800Y157300D02*
Y166500D01*
X253600Y157300D02*
Y166500D01*
X254400Y157300D02*
Y166500D01*
X255200Y157300D02*
Y166500D01*
X256000Y157300D02*
Y166500D01*
X256800Y157300D02*
Y166500D01*
G54D30*
X290932Y107800D02*
X291136Y108363D01*
X291136D02*
X291545Y108925D01*
X291955Y109206*
X292773*
X293182Y108925*
X293591Y108363*
X293591D02*
X293795Y107800D01*
X294000Y106956*
Y105550*
X293795Y104706*
X293591Y104144*
X293182Y103581*
X292773Y103300*
X291955*
X291545Y103581*
X291136Y104144*
X290932Y104706*
X287455Y109206D02*
X289091Y103300D01*
X287455Y109206D02*
X285818Y103300D01*
X288477Y105269D02*
X286432D01*
X283977Y109206D02*
Y103300D01*
X281114Y109206D02*
Y103300D01*
X283977Y106394D02*
X281114D01*
X279273Y109206D02*
Y107238D01*
X277023Y108081D02*
X276614Y108363D01*
X276614D02*
X276000Y109206D01*
Y103300*
X273750Y109206D02*
X271500D01*
X272727Y106956*
X272114*
X271705Y106675*
X271500Y106394*
X271295Y105550*
Y104988*
X271295D02*
X271500Y104144D01*
X271909Y103581*
X272523Y103300*
X273136*
X273750Y103581*
X273955Y103863*
X273955D02*
X274159Y104425D01*
G54D31*
X256500Y176800D02*
Y182060D01*
X256260Y182300*
G74*
X0Y0D02*
M02*
