*
*
G04 PADS 9.3.1 Build Number: 456998 generated Gerber (RS-274-X) file*
G04 PC Version=2.1*
*
%IN "air_ssi_1101_00_RELEASE"*%
*
%MOIN*%
*
%FSLAX35Y35*%
*
*
*
*
G04 PC Standard Apertures*
*
*
G04 Thermal Relief Aperture macro.*
%AMTER*
1,1,$1,0,0*
1,0,$1-$2,0,0*
21,0,$3,$4,0,0,45*
21,0,$3,$4,0,0,135*
%
*
*
G04 Annular Aperture macro.*
%AMANN*
1,1,$1,0,0*
1,0,$2,0,0*
%
*
*
G04 Odd Aperture macro.*
%AMODD*
1,1,$1,0,0*
1,0,$1-0.005,0,0*
%
*
*
G04 PC Custom Aperture Macros*
*
*
*
*
*
*
G04 PC Aperture Table*
*
%ADD010C,0.001*%
%ADD021C,0.00787*%
%ADD022C,0.01*%
%ADD028C,0.01969*%
%ADD030C,0.009*%
%ADD046C,0.00787*%
%ADD047C,0.005*%
%ADD048C,0.00984*%
%ADD049C,0.00591*%
*
*
*
*
G04 PC Circuitry*
G04 Layer Name air_ssi_1101_00_RELEASE - circuitry*
%LPD*%
*
G54D10*
G01X120737Y196546D02*
X118975D01*
X118283Y193775*
X118186*
X117493Y196546*
X115731*
Y192050*
X116780*
Y195511*
X116878Y195523*
X117762Y192050*
X118706*
X119590Y195523*
X119688Y195511*
Y192050*
X120737*
Y196546*
X115163Y192050D02*
X113539Y196546D01*
X111887*
X110326Y192050*
X111687*
X111931Y192782*
X111979Y192816*
X113511*
X113558Y192782*
X113802Y192050*
X115163*
X113191Y193673D02*
X112234D01*
X112184Y193723*
X112186Y193738*
X112697Y195398*
X112793Y195396*
X113240Y193736*
X113191Y193673*
X110173Y192050D02*
X109510Y193316D01*
X109322Y193629*
X109077Y193874*
X108956Y193934*
X108951Y193937*
X108759Y194065*
X108759D02*
X108775Y194155D01*
X109029Y194218*
X109211Y194279*
X109454Y194461*
X109637Y194706*
X109760Y195014*
X109822Y195321*
X109760Y195753*
X109638Y196057*
X109397Y196298*
X109093Y196420*
X108716Y196482*
X108146Y196546*
X105837*
Y192050*
X107141*
Y193915*
X107191Y193965*
X107319*
X107338Y193961*
X107657Y193834*
X107674Y193823*
X107801Y193695*
X107808Y193687*
X107935Y193496*
X107937Y193493*
X108753Y192050*
X110173*
X108518Y195447D02*
Y195255D01*
X108517Y195243*
X108453Y194988*
X108427Y194955*
X108171Y194828*
X108161Y194824*
X107906Y194760*
X107894Y194759*
X107191*
X107141Y194809*
Y195702*
X107191Y195752*
X107830*
X107840Y195751*
X108159Y195687*
X108165Y195686*
X108356Y195622*
X108376Y195610*
X108503Y195482*
X108518Y195447*
X105035Y193099D02*
X102851D01*
X102801Y193149*
Y196546*
X101497*
Y192050*
X105035*
Y193099*
X101500Y192050D02*
Y196546D01*
X101600Y192050D02*
Y196546D01*
X101700Y192050D02*
Y196546D01*
X101800Y192050D02*
Y196546D01*
X101900Y192050D02*
Y196546D01*
X102000Y192050D02*
Y196546D01*
X102100Y192050D02*
Y196546D01*
X102200Y192050D02*
Y196546D01*
X102300Y192050D02*
Y196546D01*
X102400Y192050D02*
Y196546D01*
X102500Y192050D02*
Y196546D01*
X102600Y192050D02*
Y196546D01*
X102700Y192050D02*
Y196546D01*
X102800Y192050D02*
Y196546D01*
X102900Y192050D02*
Y193099D01*
X103000Y192050D02*
Y193099D01*
X103100Y192050D02*
Y193099D01*
X103200Y192050D02*
Y193099D01*
X103300Y192050D02*
Y193099D01*
X103400Y192050D02*
Y193099D01*
X103500Y192050D02*
Y193099D01*
X103600Y192050D02*
Y193099D01*
X103700Y192050D02*
Y193099D01*
X103800Y192050D02*
Y193099D01*
X103900Y192050D02*
Y193099D01*
X104000Y192050D02*
Y193099D01*
X104100Y192050D02*
Y193099D01*
X104200Y192050D02*
Y193099D01*
X104300Y192050D02*
Y193099D01*
X104400Y192050D02*
Y193099D01*
X104500Y192050D02*
Y193099D01*
X104600Y192050D02*
Y193099D01*
X104700Y192050D02*
Y193099D01*
X104800Y192050D02*
Y193099D01*
X104900Y192050D02*
Y193099D01*
X105000Y192050D02*
Y193099D01*
X105900Y192050D02*
Y196546D01*
X106000Y192050D02*
Y196546D01*
X106100Y192050D02*
Y196546D01*
X106200Y192050D02*
Y196546D01*
X106300Y192050D02*
Y196546D01*
X106400Y192050D02*
Y196546D01*
X106500Y192050D02*
Y196546D01*
X106600Y192050D02*
Y196546D01*
X106700Y192050D02*
Y196546D01*
X106800Y192050D02*
Y196546D01*
X106900Y192050D02*
Y196546D01*
X107000Y192050D02*
Y196546D01*
X107100Y192050D02*
Y196546D01*
X107200Y193965D02*
Y194759D01*
Y195752D02*
Y196546D01*
X107300Y193965D02*
Y194759D01*
Y195752D02*
Y196546D01*
X107400Y193936D02*
Y194759D01*
Y195752D02*
Y196546D01*
X107500Y193896D02*
Y194759D01*
Y195752D02*
Y196546D01*
X107600Y193856D02*
Y194759D01*
Y195752D02*
Y196546D01*
X107700Y193796D02*
Y194759D01*
Y195752D02*
Y196546D01*
X107800Y193696D02*
Y194759D01*
Y195752D02*
Y196546D01*
X107900Y193549D02*
Y194759D01*
Y195739D02*
Y196546D01*
X108000Y193381D02*
Y194784D01*
Y195719D02*
Y196546D01*
X108100Y193205D02*
Y194809D01*
Y195699D02*
Y196546D01*
X108200Y193028D02*
Y194842D01*
Y195674D02*
Y196540D01*
X108300Y192851D02*
Y194892D01*
Y195641D02*
Y196529D01*
X108400Y192674D02*
Y194942D01*
Y195586D02*
Y196518D01*
X108500Y192497D02*
Y195177D01*
Y195486D02*
Y196506D01*
X108600Y192320D02*
Y196495D01*
X108700Y192143D02*
Y196484D01*
X108800Y192050D02*
Y194038D01*
Y194161D02*
Y196468D01*
X108900Y192050D02*
Y193971D01*
Y194186D02*
Y196452D01*
X109000Y192050D02*
Y193912D01*
Y194211D02*
Y196435D01*
X109100Y192050D02*
Y193851D01*
Y194242D02*
Y196417D01*
X109200Y192050D02*
Y193751D01*
Y194275D02*
Y196377D01*
X109300Y192050D02*
Y193651D01*
Y194346D02*
Y196337D01*
X109400Y192050D02*
Y193499D01*
Y194421D02*
Y196295D01*
X109500Y192050D02*
Y193332D01*
Y194523D02*
Y196195D01*
X109600Y192050D02*
Y193143D01*
Y194656D02*
Y196095D01*
X109700Y192050D02*
Y192952D01*
Y194863D02*
Y195903D01*
X109800Y192050D02*
Y192761D01*
Y195212D02*
Y195472D01*
X109900Y192050D02*
Y192571D01*
X110000Y192050D02*
Y192380D01*
X110100Y192050D02*
Y192189D01*
X110400Y192050D02*
Y192264D01*
X110500Y192050D02*
Y192552D01*
X110600Y192050D02*
Y192840D01*
X110700Y192050D02*
Y193128D01*
X110800Y192050D02*
Y193416D01*
X110900Y192050D02*
Y193704D01*
X111000Y192050D02*
Y193992D01*
X111100Y192050D02*
Y194280D01*
X111200Y192050D02*
Y194568D01*
X111300Y192050D02*
Y194856D01*
X111400Y192050D02*
Y195144D01*
X111500Y192050D02*
Y195432D01*
X111600Y192050D02*
Y195720D01*
X111700Y192088D02*
Y196008D01*
X111800Y192388D02*
Y196296D01*
X111900Y192688D02*
Y196546D01*
X112000Y192816D02*
Y196546D01*
X112100Y192816D02*
Y196546D01*
X112200Y192816D02*
Y193687D01*
Y193783D02*
Y196546D01*
X112300Y192816D02*
Y193673D01*
Y194108D02*
Y196546D01*
X112400Y192816D02*
Y193673D01*
Y194433D02*
Y196546D01*
X112500Y192816D02*
Y193673D01*
Y194758D02*
Y196546D01*
X112600Y192816D02*
Y193673D01*
Y195083D02*
Y196546D01*
X112700Y192816D02*
Y193673D01*
Y195405D02*
Y196546D01*
X112800Y192816D02*
Y193673D01*
Y195370D02*
Y196546D01*
X112900Y192816D02*
Y193673D01*
Y194998D02*
Y196546D01*
X113000Y192816D02*
Y193673D01*
Y194627D02*
Y196546D01*
X113100Y192816D02*
Y193673D01*
Y194256D02*
Y196546D01*
X113200Y192816D02*
Y193674D01*
Y193884D02*
Y196546D01*
X113300Y192816D02*
Y196546D01*
X113400Y192816D02*
Y196546D01*
X113500Y192816D02*
Y196546D01*
X113600Y192656D02*
Y196378D01*
X113700Y192356D02*
Y196101D01*
X113800Y192056D02*
Y195824D01*
X113900Y192050D02*
Y195547D01*
X114000Y192050D02*
Y195270D01*
X114100Y192050D02*
Y194993D01*
X114200Y192050D02*
Y194716D01*
X114300Y192050D02*
Y194439D01*
X114400Y192050D02*
Y194162D01*
X114500Y192050D02*
Y193886D01*
X114600Y192050D02*
Y193609D01*
X114700Y192050D02*
Y193332D01*
X114800Y192050D02*
Y193055D01*
X114900Y192050D02*
Y192778D01*
X115000Y192050D02*
Y192501D01*
X115100Y192050D02*
Y192224D01*
X115800Y192050D02*
Y196546D01*
X115900Y192050D02*
Y196546D01*
X116000Y192050D02*
Y196546D01*
X116100Y192050D02*
Y196546D01*
X116200Y192050D02*
Y196546D01*
X116300Y192050D02*
Y196546D01*
X116400Y192050D02*
Y196546D01*
X116500Y192050D02*
Y196546D01*
X116600Y192050D02*
Y196546D01*
X116700Y192050D02*
Y196546D01*
X116800Y195551D02*
Y196546D01*
X116900Y195437D02*
Y196546D01*
X117000Y195045D02*
Y196546D01*
X117100Y194652D02*
Y196546D01*
X117200Y194259D02*
Y196546D01*
X117300Y193866D02*
Y196546D01*
X117400Y193473D02*
Y196546D01*
X117500Y193080D02*
Y196517D01*
X117600Y192687D02*
Y196117D01*
X117700Y192295D02*
Y195717D01*
X117800Y192050D02*
Y195317D01*
X117900Y192050D02*
Y194917D01*
X118000Y192050D02*
Y194517D01*
X118100Y192050D02*
Y194117D01*
X118200Y192050D02*
Y193751D01*
X118300Y192050D02*
Y193845D01*
X118400Y192050D02*
Y194245D01*
X118500Y192050D02*
Y194645D01*
X118600Y192050D02*
Y195045D01*
X118700Y192050D02*
Y195445D01*
X118800Y192420D02*
Y195845D01*
X118900Y192813D02*
Y196245D01*
X119000Y193206D02*
Y196546D01*
X119100Y193599D02*
Y196546D01*
X119200Y193991D02*
Y196546D01*
X119300Y194384D02*
Y196546D01*
X119400Y194777D02*
Y196546D01*
X119500Y195170D02*
Y196546D01*
X119600Y195543D02*
Y196546D01*
X119700Y192050D02*
Y196546D01*
X119800Y192050D02*
Y196546D01*
X119900Y192050D02*
Y196546D01*
X120000Y192050D02*
Y196546D01*
X120100Y192050D02*
Y196546D01*
X120200Y192050D02*
Y196546D01*
X120300Y192050D02*
Y196546D01*
X120400Y192050D02*
Y196546D01*
X120500Y192050D02*
Y196546D01*
X120600Y192050D02*
Y196546D01*
X120700Y192050D02*
Y196546D01*
*
G04 PC Custom Flashes*
G04 Layer Name air_ssi_1101_00_RELEASE - flashes*
%LPD*%
*
*
G04 PC Circuitry*
G04 Layer Name air_ssi_1101_00_RELEASE - circuitry*
%LPD*%
*
G54D10*
G54D21*
X129761Y191600D02*
Y194600D01*
Y187600D02*
Y190600D01*
X148800Y180561D02*
X145800D01*
X129961Y140800D02*
Y143800D01*
X150800Y180639D02*
X153800D01*
X231000Y152161D02*
X228000D01*
X180161Y190200D02*
Y193200D01*
X215800Y166739D02*
X218800D01*
X155300Y151361D02*
X152300D01*
X220900Y155800D02*
X225900D01*
X183439Y129300D02*
Y126300D01*
Y125000D02*
Y122000D01*
X191000Y123939D02*
X194000D01*
X131544Y121694D02*
G75*
G03X131544I-194J0D01*
G01X135091Y126812D02*
G03X135091I-1378J0D01*
G01X125900Y124239D02*
X128900D01*
X140439Y116700D02*
Y113700D01*
Y106700D02*
Y103700D01*
X140361Y108700D02*
Y111700D01*
X251401Y146574D02*
X263999D01*
Y180826*
X252188*
X251401Y180039*
Y146574*
X258361Y182900D02*
Y185900D01*
X262092Y100539D02*
Y140461D01*
X297210*
Y100539*
X262092*
X290124Y114594D02*
Y126406D01*
X297210*
Y114594*
X290124*
X201239Y128900D02*
Y125900D01*
G54D22*
X200961Y144736D02*
G03X200961I-1197J0D01*
G01X215126Y142358D02*
G03X215126I-500J0D01*
G01X179163Y110753D02*
X180147Y111737D01*
X201801*
X202785Y110753*
Y104847*
X201801Y103863*
X180147*
X179163Y104847*
Y110753*
X183700Y113700D02*
G03X183700I-500J0D01*
G01X136075Y134292D02*
X131350D01*
Y124056*
X138437*
X142374D02*
X149461D01*
Y134292*
X144736*
X272008Y190650D02*
G03X272008I-447J0D01*
G01X171937Y190047D02*
X170953Y189063D01*
X149299*
X148315Y190047*
Y195953*
X149299Y196937*
X170953*
X171937Y195953*
Y190047*
X168400Y187100D02*
G03X168400I-500J0D01*
G01X105730Y156202D02*
G03X105730I-1500J0D01*
G01X103269Y144187D02*
G03X103269I-500J0D01*
G54D28*
G01X256322Y176889D02*
G03X256322I-984J0D01*
G54D30*
G01X102636Y140906D02*
X101000Y135000D01*
X102636Y140906D02*
X104273Y135000D01*
X101614Y136969D02*
X103659D01*
X106114Y140906D02*
Y135000D01*
X107955Y140906D02*
Y135000D01*
Y140906D02*
X109795D01*
X110409Y140625*
X110614Y140344*
X110818Y139781*
Y139219*
X110614Y138656*
X110409Y138375*
X109795Y138094*
X107955*
X109386D02*
X110818Y135000D01*
X115523Y140063D02*
X115114Y140625D01*
X114500Y140906*
X113682*
X113068Y140625*
X112659Y140063*
X112659D02*
Y139500D01*
X112864Y138938*
X112864D02*
X113068Y138656D01*
X113477Y138375*
X114705Y137813*
X114705D02*
X115114Y137531D01*
X115318Y137250*
X115523Y136688*
X115523D02*
Y135844D01*
X115114Y135281*
X114500Y135000*
X113682*
X113068Y135281*
X112659Y135844*
X120227Y140063D02*
X119818Y140625D01*
X119205Y140906*
X118386*
X117773Y140625*
X117364Y140063*
X117364D02*
Y139500D01*
X117568Y138938*
X117568D02*
X117773Y138656D01*
X118182Y138375*
X119409Y137813*
X119409D02*
X119818Y137531D01*
X120023Y137250*
X120227Y136688*
X120227D02*
Y135844D01*
X119818Y135281*
X119205Y135000*
X118386*
X117773Y135281*
X117364Y135844*
X122068Y140906D02*
Y135000D01*
X104000Y132906D02*
Y127000D01*
Y132906D02*
X105841D01*
X106455Y132625*
X106659Y132344*
X106864Y131781*
Y131219*
X106659Y130656*
X106455Y130375*
X105841Y130094*
X104000*
X105432D02*
X106864Y127000D01*
X108705Y129250D02*
X111159D01*
Y129813*
X111159D02*
X110955Y130375D01*
X110750Y130656*
X110341Y130938*
X110341D02*
X109727D01*
X109727D02*
X109318Y130656D01*
X108909Y130094*
X108705Y129250*
Y128688*
X108705D02*
X108909Y127844D01*
X109318Y127281*
X109727Y127000*
X110341*
X110750Y127281*
X111159Y127844*
X113000Y130938D02*
X114227Y127000D01*
X115455Y130938D02*
X114227Y127000D01*
X117500Y127563D02*
X117295Y127281D01*
X117500Y127000*
X117705Y127281*
X117500Y127563*
X119545Y131781D02*
X119955Y132063D01*
X119955D02*
X120568Y132906D01*
Y127000*
G54D46*
X202717Y176217D02*
X201717Y177217D01*
X168283*
X167283Y176217*
Y142783*
X168283Y141783*
X201717*
X202717Y142783*
Y176217*
X294349Y142335D02*
X294939Y142926D01*
Y148831*
X294349Y149422*
X291002*
Y191548*
X294349*
X294939Y192139*
Y198044*
X294349Y198635*
X273286*
Y142335*
X294349*
G54D47*
X213840Y143752D02*
X213684Y143979D01*
X213215Y144320*
X216496*
X213840Y174264D02*
X213684Y174491D01*
X213215Y174832*
X216496*
X213840Y175855D02*
X213684Y176082D01*
X213215Y176423*
X216496*
X202717Y188340D02*
X202489Y188184D01*
X202148Y187715*
Y190996*
X201012Y188496D02*
Y188340D01*
X200898Y188027*
X200785Y187871*
X200557Y187715*
X200103*
X199876Y187871*
X199762Y188027*
X199648Y188340*
Y188652*
X199762Y188965*
X199989Y189434*
X201126Y190996*
X199535*
X156004Y177103D02*
X156160D01*
X156473Y176989*
X156629Y176876*
X156785Y176648*
Y176194*
X156629Y175967*
X156473Y175853*
X156160Y175739*
X155848*
X155535Y175853*
X155066Y176080*
X153504Y177217*
Y175626*
X156785Y174376D02*
Y173126D01*
X155535Y173807*
Y173467*
X155379Y173239*
X155223Y173126*
X154754Y173012*
X154441*
X153973Y173126*
X153660Y173353*
X153504Y173694*
Y174035*
X153660Y174376*
X153816Y174489*
X154129Y174603*
X171107Y188496D02*
Y188340D01*
X170993Y188027*
X170880Y187871*
X170652Y187715*
X170198*
X169970Y187871*
X169857Y188027*
X169743Y188340*
Y188652*
X169857Y188965*
X170084Y189434*
X171220Y190996*
X169630*
X168493Y188496D02*
Y188340D01*
X168380Y188027*
X168266Y187871*
X168039Y187715*
X167584*
X167357Y187871*
X167243Y188027*
X167130Y188340*
Y188652*
X167243Y188965*
X167470Y189434*
X168607Y190996*
X167016*
X156785Y146477D02*
Y145227D01*
X155535Y145909*
Y145568*
X155379Y145341*
X155223Y145227*
X154754Y145114*
X154441*
X153973Y145227*
X153660Y145455*
X153504Y145796*
Y146137*
X153660Y146477*
X153816Y146591*
X154129Y146705*
X156785Y143864D02*
Y142614D01*
X155535Y143296*
Y142955*
X155379Y142727*
X155223Y142614*
X154754Y142500*
X154441*
X153973Y142614*
X153660Y142841*
X153504Y143182*
Y143523*
X153660Y143864*
X153816Y143977*
X154129Y144091*
X167511Y131285D02*
X168761D01*
X168079Y130035*
X168420*
X168647Y129879*
X168761Y129723*
X168874Y129254*
Y128941*
X168761Y128473*
X168533Y128160*
X168193Y128004*
X167852*
X167511Y128160*
X167397Y128316*
X167283Y128629*
X171033Y131285D02*
X169897Y129098D01*
X171602*
X171033Y131285D02*
Y128004D01*
X199916Y131285D02*
X198780Y129098D01*
X200484*
X199916Y131285D02*
Y128004D01*
X202643Y131285D02*
X201507Y129098D01*
X203211*
X202643Y131285D02*
Y128004D01*
X137361Y194875D02*
X137247Y195188D01*
X137020Y195500*
X136793Y195656*
X136338*
X136111Y195500*
X135884Y195188*
X135770Y194875*
X135656Y194406*
Y193625*
X135770Y193156*
X135884Y192844*
X136111Y192531*
X136338Y192375*
X136793*
X137020Y192531*
X137247Y192844*
X137361Y193156*
X138384Y195031D02*
X138611Y195188D01*
X138952Y195656*
Y192375*
X136818Y190094D02*
X136705Y190406D01*
X136477Y190719*
X136250Y190875*
X135795*
X135568Y190719*
X135341Y190406*
X135227Y190094*
X135114Y189625*
Y188844*
X135227Y188375*
X135341Y188063*
X135568Y187750*
X135795Y187594*
X136250*
X136477Y187750*
X136705Y188063*
X136818Y188375*
X137955Y190094D02*
Y190250D01*
X138068Y190563*
X138182Y190719*
X138409Y190875*
X138864*
X139091Y190719*
X139205Y190563*
X139318Y190250*
Y189938*
X139205Y189625*
X138977Y189156*
X137841Y187594*
X139432*
X146426Y188314D02*
X146312Y188626D01*
X146085Y188939*
X145857Y189095*
X145403*
X145176Y188939*
X144948Y188626*
X144835Y188314*
X144721Y187845*
Y187064*
X144835Y186595*
X144948Y186282*
X145176Y185970*
X145403Y185814*
X145857*
X146085Y185970*
X146312Y186282*
X146426Y186595*
X147676Y189095D02*
X148926D01*
X148244Y187845*
X148585*
X148812Y187689*
X148926Y187532*
X149039Y187064*
Y186751*
X148926Y186282*
X148698Y185970*
X148357Y185814*
X148016*
X147676Y185970*
X147562Y186126*
X147448Y186439*
X139482Y140900D02*
X139595Y140587D01*
X139595D02*
X139823Y140275D01*
X140050Y140119*
X140505*
X140732Y140275*
X140959Y140587*
X140959D02*
X141073Y140900D01*
X141186Y141369*
Y142150*
X141073Y142619*
X140959Y142931*
X140732Y143244*
X140505Y143400*
X140050*
X139823Y143244*
X139595Y142931*
X139482Y142619*
X137323Y140119D02*
X138459Y142306D01*
X136755*
X137323Y140119D02*
Y143400D01*
X150595Y190975D02*
Y187694D01*
X151959*
X152982Y190350D02*
X153209Y190506D01*
X153550Y190975*
Y187694*
X231681Y162932D02*
X228400D01*
Y161568*
X230900Y160432D02*
X231056D01*
X231369Y160318*
X231525Y160205*
X231681Y159977*
Y159523*
X231525Y159295*
X231369Y159182*
X231056Y159068*
X230744*
X230431Y159182*
X229963Y159409*
X229963D02*
X228400Y160545D01*
Y158955*
X171957Y194488D02*
X172269Y194602D01*
X172582Y194829*
X172738Y195056*
Y195511*
X172582Y195738*
X172269Y195965*
X171957Y196079*
X171488Y196193*
X170707*
X170238Y196079*
X169926Y195965*
X169613Y195738*
X169457Y195511*
Y195056*
X169613Y194829*
X169926Y194602*
X170238Y194488*
X172738Y191988D02*
Y193124D01*
X171332Y193238*
X171488Y193124*
X171644Y192784*
Y192443*
X171488Y192102*
X171176Y191874*
X170707Y191761*
X170394Y191874*
X169926Y191988*
X169613Y192215*
X169457Y192556*
Y192897*
X169613Y193238*
X169769Y193352*
X170082Y193465*
X221352Y171830D02*
X221238Y172142D01*
X221011Y172455*
X220784Y172611*
X220329*
X220102Y172455*
X219874Y172142*
X219761Y171830*
X219647Y171361*
Y170580*
X219761Y170111*
X219874Y169798*
X220102Y169486*
X220329Y169330*
X220784*
X221011Y169486*
X221238Y169798*
X221352Y170111*
X223738Y172142D02*
X223624Y172455D01*
X223284Y172611*
X223056*
X222715Y172455*
X222488Y171986*
X222374Y171205*
Y170423*
X222488Y169798*
X222715Y169486*
X223056Y169330*
X223170*
X223511Y169486*
X223738Y169798*
X223852Y170267*
Y170423*
X223738Y170892*
X223511Y171205*
X223170Y171361*
X223056*
X222715Y171205*
X222488Y170892*
X222374Y170423*
X155200Y160768D02*
X155513Y160882D01*
X155513D02*
X155825Y161109D01*
X155981Y161336*
Y161791*
X155825Y162018*
X155513Y162245*
X155513D02*
X155200Y162359D01*
X154731Y162473*
X153950*
X153481Y162359*
X153169Y162245*
X152856Y162018*
X152700Y161791*
Y161336*
X152856Y161109*
X153169Y160882*
X153481Y160768*
X155981Y158155D02*
X152700Y159291D01*
X155981Y159745D02*
Y158155D01*
X216238Y151886D02*
X216124Y152199D01*
X215897Y152511*
X215670Y152668*
X215215*
X214988Y152511*
X214761Y152199*
X214647Y151886*
X214534Y151418*
Y150636*
X214647Y150168*
X214761Y149855*
X214988Y149543*
X215215Y149386*
X215670*
X215897Y149543*
X216124Y149855*
X216238Y150168*
X217829Y152668D02*
X217488Y152511D01*
X217374Y152199*
Y151886*
X217488Y151574*
X217715Y151418*
X218170Y151261*
X218511Y151105*
X218738Y150793*
X218852Y150480*
Y150011*
X218738Y149699*
X218624Y149543*
X218284Y149386*
X217829*
X217488Y149543*
X217374Y149699*
X217261Y150011*
Y150480*
X217374Y150793*
X217602Y151105*
X217943Y151261*
X218397Y151418*
X218624Y151574*
X218738Y151886*
Y152199*
X218624Y152511*
X218284Y152668*
X217829*
X174145Y129200D02*
X174032Y129513D01*
X174032D02*
X173805Y129825D01*
X173577Y129981*
X173123*
X172895Y129825*
X172668Y129513*
X172668D02*
X172555Y129200D01*
X172441Y128731*
Y127950*
X172555Y127481*
X172668Y127169*
X172895Y126856*
X173123Y126700*
X173577*
X173805Y126856*
X174032Y127169*
X174145Y127481*
X176645Y128888D02*
X176532Y128419D01*
X176305Y128106*
X175964Y127950*
X175850*
X175509Y128106*
X175282Y128419*
X175168Y128888*
X175168D02*
Y129044D01*
X175282Y129513*
X175282D02*
X175509Y129825D01*
X175850Y129981*
X175964*
X176305Y129825*
X176532Y129513*
X176532D02*
X176645Y128888D01*
X176645D02*
Y128106D01*
X176532Y127325*
X176305Y126856*
X175964Y126700*
X175736*
X175395Y126856*
X175282Y127169*
X172441Y124900D02*
X172327Y125213D01*
X172327D02*
X172100Y125525D01*
X171873Y125681*
X171418*
X171191Y125525*
X170964Y125213*
X170964D02*
X170850Y124900D01*
X170736Y124431*
Y123650*
X170850Y123181*
X170964Y122869*
X171191Y122556*
X171418Y122400*
X171873*
X172100Y122556*
X172327Y122869*
X172441Y123181*
X173464Y125056D02*
X173691Y125213D01*
X173691D02*
X174032Y125681D01*
Y122400*
X175736Y125681D02*
X175395Y125525D01*
X175168Y125056*
X175055Y124275*
Y123806*
X175168Y123025*
X175395Y122556*
X175736Y122400*
X175964*
X176305Y122556*
X176532Y123025*
X176645Y123806*
Y124275*
X176532Y125056*
X176305Y125525*
X175964Y125681*
X175736*
X189884Y118475D02*
Y115194D01*
X191248*
X192498Y118475D02*
X193748D01*
X193066Y117225*
X193407*
X193634Y117069*
X193748Y116913*
X193748D02*
X193861Y116444D01*
Y116131*
X193748Y115663*
X193748D02*
X193520Y115350D01*
X193180Y115194*
X192839*
X192498Y115350*
X192384Y115506*
X192270Y115819*
X176070Y109828D02*
Y112328D01*
X176184Y112797*
X176297Y112953*
X176524Y113109*
X176752*
X176979Y112953*
X177093Y112797*
X177206Y112328*
Y112015*
X175047Y110453D02*
X174820Y110297D01*
X174479Y109828*
Y113109*
X146094Y138968D02*
Y136624D01*
X146207Y136155*
X146435Y135843*
X146776Y135686*
X147003*
X147344Y135843*
X147571Y136155*
X147685Y136624*
Y138968*
X150185D02*
X149048D01*
X148935Y137561*
X149048Y137718*
X149389Y137874*
X149730*
X150071Y137718*
X150298Y137405*
X150412Y136936*
X150298Y136624*
X150185Y136155*
X149957Y135843*
X149616Y135686*
X149276*
X148935Y135843*
X148821Y135999*
X148707Y136311*
X126335Y117118D02*
X126221Y117431D01*
X125994Y117743*
X125766Y117899*
X125312*
X125085Y117743*
X124857Y117431*
X124744Y117118*
X124630Y116649*
Y115868*
X124744Y115399*
X124857Y115087*
X125085Y114774*
X125312Y114618*
X125766*
X125994Y114774*
X126221Y115087*
X126335Y115399*
X127357Y117274D02*
X127585Y117431D01*
X127926Y117899*
Y114618*
X129176Y117899D02*
X130426D01*
X129744Y116649*
X130085*
X130312Y116493*
X130426Y116337*
X130539Y115868*
Y115556*
X130426Y115087*
X130198Y114774*
X129857Y114618*
X129516*
X129176Y114774*
X129062Y114931*
X128948Y115243*
X148366Y116294D02*
X148252Y116606D01*
X148025Y116919*
X147798Y117075*
X147343*
X147116Y116919*
X146889Y116606*
X146775Y116294*
X146661Y115825*
Y115044*
X146775Y114575*
X146889Y114263*
X146889D02*
X147116Y113950D01*
X147343Y113794*
X147798*
X148025Y113950*
X148252Y114263*
X148252D02*
X148366Y114575D01*
X149389Y116450D02*
X149616Y116606D01*
X149957Y117075*
Y113794*
X152116Y117075D02*
X150980Y114888D01*
X150980D02*
X152684D01*
X152116Y117075D02*
Y113794D01*
X129555Y107381D02*
Y104100D01*
X130918*
X133418Y107381D02*
X132282D01*
X132168Y105975*
X132282Y106131*
X132623Y106288*
X132623D02*
X132964D01*
X132964D02*
X133305Y106131D01*
X133532Y105819*
X133645Y105350*
X133532Y105038*
X133532D02*
X133418Y104569D01*
X133191Y104256*
X132850Y104100*
X132509*
X132168Y104256*
X132055Y104413*
X132055D02*
X131941Y104725D01*
X129041Y111787D02*
Y108506D01*
Y111787D02*
X130064D01*
X130064D02*
X130405Y111631D01*
X130518Y111475*
X130632Y111162*
X130632D02*
Y110850D01*
X130518Y110537*
X130518D02*
X130405Y110381D01*
X130064Y110225*
X129041*
X129836D02*
X130632Y108506D01*
X132791Y111787D02*
X131655Y109600D01*
X133359*
X132791Y111787D02*
Y108506D01*
X269416Y142530D02*
X271916D01*
X272385Y142416*
X272541Y142303*
X272698Y142076*
Y141848*
X272541Y141621*
X272385Y141507*
X271916Y141394*
X271604*
X270198Y143666D02*
X270041D01*
X269729Y143780*
X269573Y143894*
X269416Y144121*
Y144576*
X269573Y144803*
X269729Y144916*
X270041Y145030*
X270354*
X270666Y144916*
X271135Y144689*
X272698Y143553*
Y145144*
X266366Y185494D02*
X266252Y185806D01*
X266025Y186119*
X265798Y186275*
X265343*
X265116Y186119*
X264889Y185806*
X264775Y185494*
X264661Y185025*
Y184244*
X264775Y183775*
X264889Y183463*
X265116Y183150*
X265343Y182994*
X265798*
X266025Y183150*
X266252Y183463*
X266366Y183775*
X267389Y185650D02*
X267616Y185806D01*
X267957Y186275*
Y182994*
X270457Y186275D02*
X269320D01*
X269207Y184869*
X269320Y185025*
X269661Y185181*
X270002*
X270343Y185025*
X270570Y184713*
X270684Y184244*
X270570Y183931*
X270457Y183463*
X270230Y183150*
X269889Y182994*
X269548*
X269207Y183150*
X269093Y183306*
X268980Y183619*
X261375Y133466D02*
X258875D01*
X258406Y133580*
X258250Y133693*
X258094Y133920*
Y134148*
X258250Y134375*
X258406Y134489*
X258875Y134602*
X259188*
X261375Y132216D02*
Y130966D01*
X260125Y131648*
Y131307*
X259969Y131080*
X259813Y130966*
X259813D02*
X259344Y130852D01*
X259031*
X258563Y130966*
X258563D02*
X258250Y131193D01*
X258094Y131534*
Y131875*
X258250Y132216*
X258406Y132330*
X258719Y132443*
X190241Y129581D02*
Y126300D01*
Y129581D02*
X191264D01*
X191605Y129425*
X191718Y129269*
X191832Y128956*
Y128644*
X191718Y128331*
X191605Y128175*
X191264Y128019*
X190241*
X191036D02*
X191832Y126300D01*
X193423Y129581D02*
X193082Y129425D01*
X192968Y129113*
X192968D02*
Y128800D01*
X193082Y128488*
X193082D02*
X193309Y128331D01*
X193764Y128175*
X194105Y128019*
X194332Y127706*
X194445Y127394*
Y126925*
X194332Y126613*
X194332D02*
X194218Y126456D01*
X193877Y126300*
X193423*
X193082Y126456*
X192968Y126613*
X192968D02*
X192855Y126925D01*
Y127394*
X192968Y127706*
X193195Y128019*
X193536Y128175*
X193991Y128331*
X194218Y128488*
X194218D02*
X194332Y128800D01*
Y129113*
X194332D02*
X194218Y129425D01*
X193877Y129581*
X193423*
X165157Y184878D02*
Y187378D01*
X165271Y187847*
X165385Y188003*
X165612Y188159*
X165839*
X166066Y188003*
X166180Y187847*
X166294Y187378*
Y187065*
X162998Y184878D02*
X164135Y187065D01*
X162430*
X162998Y184878D02*
Y188159D01*
X141913Y168418D02*
X144256D01*
X144725Y168532*
X145038Y168759*
X145038D02*
X145194Y169100D01*
Y169327*
X145038Y169668*
X145038D02*
X144725Y169895D01*
X144256Y170009*
X141913*
X142538Y171032D02*
X142381Y171259D01*
X141913Y171600*
X141913D02*
X145194D01*
G54D48*
X246381Y181810D02*
G03X246381I-492J0D01*
G54D49*
G01X246111Y185815D02*
Y183046D01*
X246245Y182493*
X246514Y182124*
X246916Y181939*
X247185*
X247587Y182124*
X247856Y182493*
X247990Y183046*
Y185815*
X250809Y185261D02*
X250674Y185630D01*
X250272Y185815*
X250003*
X249601Y185630*
X249332Y185076*
X249198Y184154*
Y183231*
X249332Y182493*
X249601Y182124*
X250003Y181939*
X250137*
X250540Y182124*
X250809Y182493*
X250943Y183046*
Y183231*
X250809Y183785*
X250540Y184154*
X250137Y184338*
X250003*
X249601Y184154*
X249332Y183785*
X249198Y183231*
G74*
X0Y0D02*
M02*
