*
*
G04 PADS 9.3.1 Build Number: 456998 generated Gerber (RS-274-X) file*
G04 PC Version=2.1*
*
%IN "air_ssi_1101_00_RELEASE"*%
*
%MOIN*%
*
%FSLAX35Y35*%
*
*
*
*
G04 PC Standard Apertures*
*
*
G04 Thermal Relief Aperture macro.*
%AMTER*
1,1,$1,0,0*
1,0,$1-$2,0,0*
21,0,$3,$4,0,0,45*
21,0,$3,$4,0,0,135*
%
*
*
G04 Annular Aperture macro.*
%AMANN*
1,1,$1,0,0*
1,0,$2,0,0*
%
*
*
G04 Odd Aperture macro.*
%AMODD*
1,1,$1,0,0*
1,0,$1-0.005,0,0*
%
*
*
G04 PC Custom Aperture Macros*
*
*
*
*
*
*
G04 PC Aperture Table*
*
%ADD010C,0.001*%
%ADD021C,0.00787*%
%ADD022C,0.01*%
%ADD047C,0.005*%
*
*
*
*
G04 PC Circuitry*
G04 Layer Name air_ssi_1101_00_RELEASE - circuitry*
%LPD*%
*
*
G04 PC Custom Flashes*
G04 Layer Name air_ssi_1101_00_RELEASE - flashes*
%LPD*%
*
*
G04 PC Circuitry*
G04 Layer Name air_ssi_1101_00_RELEASE - circuitry*
%LPD*%
*
G54D10*
G54D21*
G01X257756Y183481D02*
X262362D01*
X261575Y188993D02*
X265906D01*
Y183481*
X265236*
X258425Y188993D02*
X253701D01*
Y183481*
X254449*
X259561Y178300D02*
Y175300D01*
X234718Y149694D02*
G75*
G03X235506Y150482I0J788D01*
G01Y160718*
G03X234718Y161506I-788J0*
G01X224482*
G03X223694Y160718I-0J-788*
G01Y150482*
G03X224482Y149694I788J-0*
G01X234718*
X228261Y144500D02*
Y141500D01*
X237961Y139400D02*
Y136400D01*
X256706Y152131D02*
X255131Y153706D01*
X244894*
Y141894*
X256706*
Y152131*
X255131Y153706*
X244894*
Y141894*
X256706*
Y152131*
X274339Y179700D02*
Y182700D01*
X274261Y177600D02*
Y174600D01*
X267756Y163681D02*
X272362D01*
X271575Y169193D02*
X275906D01*
Y163681*
X275236*
X268425Y169193D02*
X263701D01*
Y163681*
X264449*
X269539Y155200D02*
Y158200D01*
X194939Y126600D02*
Y129600D01*
X169339Y134900D02*
Y137900D01*
X164761Y186100D02*
Y183100D01*
G54D22*
X266799Y181513D02*
G03X266799I-500J0D01*
G01X265867Y153312D02*
G03X265867I-500J0D01*
G01X257900Y133900D02*
Y139900D01*
X276799Y161713D02*
G03X276799I-500J0D01*
G01X247500Y166231D02*
Y157569D01*
G54D47*
X249619Y190400D02*
X251962D01*
X251962D02*
X252431Y190286D01*
X252744Y190059*
X252900Y189718*
Y189491*
X252744Y189150*
X252431Y188923*
X251962Y188809*
X251962D02*
X249619D01*
Y187559D02*
Y186309D01*
X250869Y186991*
Y186650*
X251025Y186423*
X251181Y186309*
X251650Y186195*
X251962*
X251962D02*
X252431Y186309D01*
X252744Y186536*
X252900Y186877*
Y187218*
X252744Y187559*
X252587Y187673*
X252587D02*
X252275Y187786D01*
X269536Y178981D02*
Y175700D01*
Y178981D02*
X268514D01*
X268173Y178825*
X268059Y178669*
X267945Y178356*
Y178044*
X268059Y177731*
X268173Y177575*
X268514Y177419*
X269536*
X268741D02*
X267945Y175700D01*
X266923Y178356D02*
X266695Y178513D01*
X266695D02*
X266355Y178981D01*
Y175700*
X238875Y153527D02*
X235594D01*
Y154891*
X238875Y157050D02*
X236688Y155914D01*
X236688D02*
Y157618D01*
X238875Y157050D02*
X235594D01*
X229389Y140187D02*
Y136906D01*
Y140187D02*
X228366D01*
X228366D02*
X228025Y140031D01*
X227911Y139875*
X227798Y139562*
X227798D02*
Y139250D01*
X227911Y138937*
X227911D02*
X228025Y138781D01*
X228366Y138625*
X229389*
X228593D02*
X227798Y136906D01*
X226661Y139406D02*
Y139562D01*
X226661D02*
X226548Y139875D01*
X226434Y140031*
X226207Y140187*
X226207D02*
X225752D01*
X225752D02*
X225525Y140031D01*
X225411Y139875*
X225298Y139562*
X225298D02*
Y139250D01*
X225411Y138937*
X225411D02*
X225639Y138469D01*
X226775Y136906*
X225184*
X241630Y135775D02*
Y132494D01*
Y135775D02*
X240607D01*
X240266Y135619*
X240152Y135463*
X240152D02*
X240039Y135150D01*
Y134838*
X240039D02*
X240152Y134525D01*
X240266Y134369*
X240607Y134213*
X240607D02*
X241630D01*
X240834D02*
X240039Y132494D01*
X238789Y135775D02*
X237539D01*
X238220Y134525*
X237880*
X237652Y134369*
X237539Y134213*
X237539D02*
X237425Y133744D01*
Y133431*
X237539Y132963*
X237539D02*
X237766Y132650D01*
X238107Y132494*
X238448*
X238789Y132650*
X238902Y132806*
X239016Y133119*
X252814Y157487D02*
Y155144D01*
X252700Y154675*
X252473Y154362*
X252473D02*
X252132Y154206D01*
X251905*
X251564Y154362*
X251564D02*
X251336Y154675D01*
X251223Y155144*
Y157487*
X249064D02*
X250200Y155300D01*
X248495*
X249064Y157487D02*
Y154206D01*
X272106Y135259D02*
X272419Y135145D01*
X272731Y134918*
X272887Y134691*
X272887D02*
Y134236D01*
X272887D02*
X272731Y134009D01*
X272419Y133782*
X272106Y133668*
X271637Y133555*
X271637D02*
X270856D01*
X270387Y133668*
X270387D02*
X270075Y133782D01*
X269762Y134009*
X269762D02*
X269606Y134236D01*
Y134691*
X269762Y134918*
X269762D02*
X270075Y135145D01*
X270387Y135259*
X272262Y136282D02*
X272419Y136509D01*
X272887Y136850*
X272887D02*
X269606D01*
X272106Y137986D02*
X272262D01*
X272262D02*
X272575Y138100D01*
X272731Y138214*
X272887Y138441*
X272887D02*
Y138895D01*
X272887D02*
X272731Y139123D01*
X272575Y139236*
X272262Y139350*
X272262D02*
X271950D01*
X271637Y139236*
X271637D02*
X271169Y139009D01*
X269606Y137873*
Y139464*
X263227Y179019D02*
Y182300D01*
Y179019D02*
X264250D01*
X264591Y179175*
X264705Y179331*
X264818Y179644*
Y179956*
X264705Y180269*
X264591Y180425*
X264250Y180581*
X263227*
X264023D02*
X264818Y182300D01*
X267318Y179019D02*
X266182D01*
X266068Y180425*
X266182Y180269*
X266523Y180112*
X266523D02*
X266864D01*
X266864D02*
X267205Y180269D01*
X267432Y180581*
X267545Y181050*
X267432Y181362*
X267432D02*
X267318Y181831D01*
X267091Y182144*
X266750Y182300*
X266409*
X266068Y182144*
X265955Y181987*
X265955D02*
X265841Y181675D01*
X285145Y177500D02*
X285259Y177813D01*
X285259D02*
X285486Y178125D01*
X285714Y178281*
X286168*
X286395Y178125*
X286623Y177813*
X286623D02*
X286736Y177500D01*
X286850Y177031*
Y176250*
X286736Y175781*
X286623Y175469*
X286395Y175156*
X286168Y175000*
X285714*
X285486Y175156*
X285259Y175469*
X285145Y175781*
X284123Y177656D02*
X283895Y177813D01*
X283895D02*
X283555Y178281D01*
Y175000*
X281168Y177813D02*
X281282Y178125D01*
X281623Y178281*
X281850*
X282191Y178125*
X282418Y177656*
X282532Y176875*
Y176094*
X282418Y175469*
X282191Y175156*
X281850Y175000*
X281736*
X281395Y175156*
X281168Y175469*
X281055Y175938*
X281055D02*
Y176094D01*
X281168Y176563*
X281168D02*
X281395Y176875D01*
X281736Y177031*
X281850*
X282191Y176875*
X282418Y176563*
X282418D02*
X282532Y176094D01*
X259619Y170600D02*
X261962D01*
X261962D02*
X262431Y170486D01*
X262744Y170259*
X262900Y169918*
Y169691*
X262744Y169350*
X262431Y169123*
X261962Y169009*
X261962D02*
X259619D01*
Y166395D02*
X262900Y167532D01*
X259619Y167986D02*
Y166395D01*
X258541Y154519D02*
Y157800D01*
Y154519D02*
X259564D01*
X259905Y154675*
X260018Y154831*
X260132Y155144*
Y155456*
X260018Y155769*
X259905Y155925*
X259564Y156081*
X258541*
X259336D02*
X260132Y157800D01*
X262745Y154519D02*
X261609Y157800D01*
X261155Y154519D02*
X262745D01*
X184055Y125919D02*
Y129200D01*
Y125919D02*
X185077D01*
X185418Y126075*
X185532Y126231*
X185645Y126544*
Y126856*
X185532Y127169*
X185418Y127325*
X185077Y127481*
X184055*
X184850D02*
X185645Y129200D01*
X188145Y127012D02*
X188032Y127481D01*
X187805Y127794*
X187464Y127950*
X187350*
X187009Y127794*
X186782Y127481*
X186668Y127012*
X186668D02*
Y126856D01*
X186782Y126387*
X186782D02*
X187009Y126075D01*
X187350Y125919*
X187464*
X187805Y126075*
X188032Y126387*
X188032D02*
X188145Y127012D01*
X188145D02*
Y127794D01*
X188032Y128575*
X187805Y129044*
X187464Y129200*
X187236*
X186895Y129044*
X186782Y128731*
X156750Y134219D02*
Y137500D01*
Y134219D02*
X157773D01*
X158114Y134375*
X158227Y134531*
X158341Y134844*
Y135156*
X158227Y135469*
X158114Y135625*
X157773Y135781*
X156750*
X157545D02*
X158341Y137500D01*
X159364Y134844D02*
X159591Y134687D01*
X159591D02*
X159932Y134219D01*
Y137500*
X161636Y134219D02*
X161295Y134375D01*
X161068Y134844*
X160955Y135625*
Y136094*
X161068Y136875*
X161295Y137344*
X161636Y137500*
X161864*
X162205Y137344*
X162432Y136875*
X162545Y136094*
Y135625*
X162432Y134844*
X162205Y134375*
X161864Y134219*
X161636*
X258330Y160357D02*
X258642Y160244D01*
X258955Y160016*
X259111Y159789*
Y159335*
X258955Y159107*
X258642Y158880*
X258330Y158766*
X257861Y158653*
X257080*
X256611Y158766*
X256298Y158880*
X255986Y159107*
X255830Y159335*
Y159789*
X255986Y160016*
X256298Y160244*
X256611Y160357*
X258486Y161380D02*
X258642Y161607D01*
X259111Y161948*
X255830*
X258486Y162971D02*
X258642Y163198D01*
X259111Y163539*
X255830*
X175645Y186781D02*
Y183500D01*
Y186781D02*
X174623D01*
X174282Y186625*
X174168Y186469*
X174055Y186156*
Y185844*
X174168Y185531*
X174282Y185375*
X174623Y185219*
X175645*
X174850D02*
X174055Y183500D01*
X171668Y186313D02*
X171782Y186625D01*
X172123Y186781*
X172350*
X172691Y186625*
X172918Y186156*
X173032Y185375*
Y184594*
X172918Y183969*
X172691Y183656*
X172350Y183500*
X172236*
X171895Y183656*
X171668Y183969*
X171555Y184438*
X171555D02*
Y184594D01*
X171668Y185063*
X171668D02*
X171895Y185375D01*
X172236Y185531*
X172350*
X172691Y185375*
X172918Y185063*
X172918D02*
X173032Y184594D01*
G74*
X0Y0D02*
M02*
