*
*
G04 PADS 9.3.1 Build Number: 456998 generated Gerber (RS-274-X) file*
G04 PC Version=2.1*
*
%IN "air_ssi_1101_00_RELEASE"*%
*
%MOIN*%
*
%FSLAX35Y35*%
*
*
*
*
G04 PC Standard Apertures*
*
*
G04 Thermal Relief Aperture macro.*
%AMTER*
1,1,$1,0,0*
1,0,$1-$2,0,0*
21,0,$3,$4,0,0,45*
21,0,$3,$4,0,0,135*
%
*
*
G04 Annular Aperture macro.*
%AMANN*
1,1,$1,0,0*
1,0,$2,0,0*
%
*
*
G04 Odd Aperture macro.*
%AMODD*
1,1,$1,0,0*
1,0,$1-0.005,0,0*
%
*
*
G04 PC Custom Aperture Macros*
*
*
*
*
*
*
G04 PC Aperture Table*
*
%ADD010C,0.001*%
%ADD011C,0.004*%
%ADD012O,0.07874X0.01772*%
%ADD013O,0.01772X0.07874*%
%ADD014C,0.006*%
%ADD015C,0.06299*%
%ADD016C,0.15*%
%ADD017C,0.01181*%
%ADD018C,0.05906*%
%ADD019C,0.07087*%
%ADD020C,0.11811*%
%ADD021C,0.00787*%
%ADD022C,0.01*%
%ADD023C,0.03*%
%ADD024C,0.02*%
%ADD025C,0.016*%
%ADD026C,0.028*%
%ADD027C,0.015*%
%ADD028C,0.01969*%
*
*
*
*
G04 PC Circuitry*
G04 Layer Name air_ssi_1101_00_RELEASE - circuitry*
%LPD*%
*
*
G04 PC Custom Flashes*
G04 Layer Name air_ssi_1101_00_RELEASE - flashes*
%LPD*%
*
*
G04 PC Circuitry*
G04 Layer Name air_ssi_1101_00_RELEASE - circuitry*
%LPD*%
*
G54D10*
G54D11*
G01X128400Y194400D02*
Y191800D01*
X125000*
Y194400*
X128400*
X125000Y192000D02*
X128400D01*
X125000Y192400D02*
X128400D01*
X125000Y192800D02*
X128400D01*
X125000Y193200D02*
X128400D01*
X125000Y193600D02*
X128400D01*
X125000Y194000D02*
X128400D01*
X125000Y194400D02*
X128400D01*
X125200Y191800D02*
Y194400D01*
X125600Y191800D02*
Y194400D01*
X126000Y191800D02*
Y194400D01*
X126400Y191800D02*
Y194400D01*
X126800Y191800D02*
Y194400D01*
X127200Y191800D02*
Y194400D01*
X127600Y191800D02*
Y194400D01*
X128000Y191800D02*
Y194400D01*
X128400Y191800D02*
Y194400D01*
X134600D02*
Y191800D01*
X131200*
Y194400*
X134600*
X131200Y192000D02*
X134600D01*
X131200Y192400D02*
X134600D01*
X131200Y192800D02*
X134600D01*
X131200Y193200D02*
X134600D01*
X131200Y193600D02*
X134600D01*
X131200Y194000D02*
X134600D01*
X131200Y194400D02*
X134600D01*
X131200Y191800D02*
Y194400D01*
X131600Y191800D02*
Y194400D01*
X132000Y191800D02*
Y194400D01*
X132400Y191800D02*
Y194400D01*
X132800Y191800D02*
Y194400D01*
X133200Y191800D02*
Y194400D01*
X133600Y191800D02*
Y194400D01*
X134000Y191800D02*
Y194400D01*
X134400Y191800D02*
Y194400D01*
X128400Y190400D02*
Y187800D01*
X125000*
Y190400*
X128400*
X125000Y188000D02*
X128400D01*
X125000Y188400D02*
X128400D01*
X125000Y188800D02*
X128400D01*
X125000Y189200D02*
X128400D01*
X125000Y189600D02*
X128400D01*
X125000Y190000D02*
X128400D01*
X125000Y190400D02*
X128400D01*
X125200Y187800D02*
Y190400D01*
X125600Y187800D02*
Y190400D01*
X126000Y187800D02*
Y190400D01*
X126400Y187800D02*
Y190400D01*
X126800Y187800D02*
Y190400D01*
X127200Y187800D02*
Y190400D01*
X127600Y187800D02*
Y190400D01*
X128000Y187800D02*
Y190400D01*
X128400Y187800D02*
Y190400D01*
X134600D02*
Y187800D01*
X131200*
Y190400*
X134600*
X131200Y188000D02*
X134600D01*
X131200Y188400D02*
X134600D01*
X131200Y188800D02*
X134600D01*
X131200Y189200D02*
X134600D01*
X131200Y189600D02*
X134600D01*
X131200Y190000D02*
X134600D01*
X131200Y190400D02*
X134600D01*
X131200Y187800D02*
Y190400D01*
X131600Y187800D02*
Y190400D01*
X132000Y187800D02*
Y190400D01*
X132400Y187800D02*
Y190400D01*
X132800Y187800D02*
Y190400D01*
X133200Y187800D02*
Y190400D01*
X133600Y187800D02*
Y190400D01*
X134000Y187800D02*
Y190400D01*
X134400Y187800D02*
Y190400D01*
X146000Y179200D02*
X148600D01*
Y175800*
X146000*
Y179200*
Y176000D02*
X148600D01*
X146000Y176400D02*
X148600D01*
X146000Y176800D02*
X148600D01*
X146000Y177200D02*
X148600D01*
X146000Y177600D02*
X148600D01*
X146000Y178000D02*
X148600D01*
X146000Y178400D02*
X148600D01*
X146000Y178800D02*
X148600D01*
X146000Y179200D02*
X148600D01*
X146000Y175800D02*
Y179200D01*
X146400Y175800D02*
Y179200D01*
X146800Y175800D02*
Y179200D01*
X147200Y175800D02*
Y179200D01*
X147600Y175800D02*
Y179200D01*
X148000Y175800D02*
Y179200D01*
X148400Y175800D02*
Y179200D01*
X146000Y185400D02*
X148600D01*
Y182000*
X146000*
Y185400*
Y182000D02*
X148600D01*
X146000Y182400D02*
X148600D01*
X146000Y182800D02*
X148600D01*
X146000Y183200D02*
X148600D01*
X146000Y183600D02*
X148600D01*
X146000Y184000D02*
X148600D01*
X146000Y184400D02*
X148600D01*
X146000Y184800D02*
X148600D01*
X146000Y185200D02*
X148600D01*
X146000Y182000D02*
Y185400D01*
X146400Y182000D02*
Y185400D01*
X146800Y182000D02*
Y185400D01*
X147200Y182000D02*
Y185400D01*
X147600Y182000D02*
Y185400D01*
X148000Y182000D02*
Y185400D01*
X148400Y182000D02*
Y185400D01*
X128600Y143600D02*
Y141000D01*
X125200*
Y143600*
X128600*
X125200Y141200D02*
X128600D01*
X125200Y141600D02*
X128600D01*
X125200Y142000D02*
X128600D01*
X125200Y142400D02*
X128600D01*
X125200Y142800D02*
X128600D01*
X125200Y143200D02*
X128600D01*
X125200Y143600D02*
X128600D01*
X125200Y141000D02*
Y143600D01*
X125600Y141000D02*
Y143600D01*
X126000Y141000D02*
Y143600D01*
X126400Y141000D02*
Y143600D01*
X126800Y141000D02*
Y143600D01*
X127200Y141000D02*
Y143600D01*
X127600Y141000D02*
Y143600D01*
X128000Y141000D02*
Y143600D01*
X128400Y141000D02*
Y143600D01*
X134800D02*
Y141000D01*
X131400*
Y143600*
X134800*
X131400Y141200D02*
X134800D01*
X131400Y141600D02*
X134800D01*
X131400Y142000D02*
X134800D01*
X131400Y142400D02*
X134800D01*
X131400Y142800D02*
X134800D01*
X131400Y143200D02*
X134800D01*
X131400Y143600D02*
X134800D01*
X131600Y141000D02*
Y143600D01*
X132000Y141000D02*
Y143600D01*
X132400Y141000D02*
Y143600D01*
X132800Y141000D02*
Y143600D01*
X133200Y141000D02*
Y143600D01*
X133600Y141000D02*
Y143600D01*
X134000Y141000D02*
Y143600D01*
X134400Y141000D02*
Y143600D01*
X134800Y141000D02*
Y143600D01*
X153600Y182000D02*
X151000D01*
Y185400*
X153600*
Y182000*
X151000D02*
X153600D01*
X151000Y182400D02*
X153600D01*
X151000Y182800D02*
X153600D01*
X151000Y183200D02*
X153600D01*
X151000Y183600D02*
X153600D01*
X151000Y184000D02*
X153600D01*
X151000Y184400D02*
X153600D01*
X151000Y184800D02*
X153600D01*
X151000Y185200D02*
X153600D01*
X151200Y182000D02*
Y185400D01*
X151600Y182000D02*
Y185400D01*
X152000Y182000D02*
Y185400D01*
X152400Y182000D02*
Y185400D01*
X152800Y182000D02*
Y185400D01*
X153200Y182000D02*
Y185400D01*
X153600Y182000D02*
Y185400D01*
Y175800D02*
X151000D01*
Y179200*
X153600*
Y175800*
X151000Y176000D02*
X153600D01*
X151000Y176400D02*
X153600D01*
X151000Y176800D02*
X153600D01*
X151000Y177200D02*
X153600D01*
X151000Y177600D02*
X153600D01*
X151000Y178000D02*
X153600D01*
X151000Y178400D02*
X153600D01*
X151000Y178800D02*
X153600D01*
X151000Y179200D02*
X153600D01*
X151200Y175800D02*
Y179200D01*
X151600Y175800D02*
Y179200D01*
X152000Y175800D02*
Y179200D01*
X152400Y175800D02*
Y179200D01*
X152800Y175800D02*
Y179200D01*
X153200Y175800D02*
Y179200D01*
X153600Y175800D02*
Y179200D01*
X228200Y150800D02*
X230800D01*
Y147400*
X228200*
Y150800*
Y147600D02*
X230800D01*
X228200Y148000D02*
X230800D01*
X228200Y148400D02*
X230800D01*
X228200Y148800D02*
X230800D01*
X228200Y149200D02*
X230800D01*
X228200Y149600D02*
X230800D01*
X228200Y150000D02*
X230800D01*
X228200Y150400D02*
X230800D01*
X228200Y150800D02*
X230800D01*
X228400Y147400D02*
Y150800D01*
X228800Y147400D02*
Y150800D01*
X229200Y147400D02*
Y150800D01*
X229600Y147400D02*
Y150800D01*
X230000Y147400D02*
Y150800D01*
X230400Y147400D02*
Y150800D01*
X230800Y147400D02*
Y150800D01*
X228200Y157000D02*
X230800D01*
Y153600*
X228200*
Y157000*
Y153600D02*
X230800D01*
X228200Y154000D02*
X230800D01*
X228200Y154400D02*
X230800D01*
X228200Y154800D02*
X230800D01*
X228200Y155200D02*
X230800D01*
X228200Y155600D02*
X230800D01*
X228200Y156000D02*
X230800D01*
X228200Y156400D02*
X230800D01*
X228200Y156800D02*
X230800D01*
X228400Y153600D02*
Y157000D01*
X228800Y153600D02*
Y157000D01*
X229200Y153600D02*
Y157000D01*
X229600Y153600D02*
Y157000D01*
X230000Y153600D02*
Y157000D01*
X230400Y153600D02*
Y157000D01*
X230800Y153600D02*
Y157000D01*
X178800Y193000D02*
Y190400D01*
X175400*
Y193000*
X178800*
X175400Y190400D02*
X178800D01*
X175400Y190800D02*
X178800D01*
X175400Y191200D02*
X178800D01*
X175400Y191600D02*
X178800D01*
X175400Y192000D02*
X178800D01*
X175400Y192400D02*
X178800D01*
X175400Y192800D02*
X178800D01*
X175600Y190400D02*
Y193000D01*
X176000Y190400D02*
Y193000D01*
X176400Y190400D02*
Y193000D01*
X176800Y190400D02*
Y193000D01*
X177200Y190400D02*
Y193000D01*
X177600Y190400D02*
Y193000D01*
X178000Y190400D02*
Y193000D01*
X178400Y190400D02*
Y193000D01*
X178800Y190400D02*
Y193000D01*
X185000D02*
Y190400D01*
X181600*
Y193000*
X185000*
X181600Y190400D02*
X185000D01*
X181600Y190800D02*
X185000D01*
X181600Y191200D02*
X185000D01*
X181600Y191600D02*
X185000D01*
X181600Y192000D02*
X185000D01*
X181600Y192400D02*
X185000D01*
X181600Y192800D02*
X185000D01*
X181600Y190400D02*
Y193000D01*
X182000Y190400D02*
Y193000D01*
X182400Y190400D02*
Y193000D01*
X182800Y190400D02*
Y193000D01*
X183200Y190400D02*
Y193000D01*
X183600Y190400D02*
Y193000D01*
X184000Y190400D02*
Y193000D01*
X184400Y190400D02*
Y193000D01*
X184800Y190400D02*
Y193000D01*
X218600Y168100D02*
X216000D01*
Y171500*
X218600*
Y168100*
X216000Y168400D02*
X218600D01*
X216000Y168800D02*
X218600D01*
X216000Y169200D02*
X218600D01*
X216000Y169600D02*
X218600D01*
X216000Y170000D02*
X218600D01*
X216000Y170400D02*
X218600D01*
X216000Y170800D02*
X218600D01*
X216000Y171200D02*
X218600D01*
X216000Y168100D02*
Y171500D01*
X216400Y168100D02*
Y171500D01*
X216800Y168100D02*
Y171500D01*
X217200Y168100D02*
Y171500D01*
X217600Y168100D02*
Y171500D01*
X218000Y168100D02*
Y171500D01*
X218400Y168100D02*
Y171500D01*
X218600Y161900D02*
X216000D01*
Y165300*
X218600*
Y161900*
X216000Y162000D02*
X218600D01*
X216000Y162400D02*
X218600D01*
X216000Y162800D02*
X218600D01*
X216000Y163200D02*
X218600D01*
X216000Y163600D02*
X218600D01*
X216000Y164000D02*
X218600D01*
X216000Y164400D02*
X218600D01*
X216000Y164800D02*
X218600D01*
X216000Y165200D02*
X218600D01*
X216000Y161900D02*
Y165300D01*
X216400Y161900D02*
Y165300D01*
X216800Y161900D02*
Y165300D01*
X217200Y161900D02*
Y165300D01*
X217600Y161900D02*
Y165300D01*
X218000Y161900D02*
Y165300D01*
X218400Y161900D02*
Y165300D01*
X152500Y150000D02*
X155100D01*
Y146600*
X152500*
Y150000*
Y146800D02*
X155100D01*
X152500Y147200D02*
X155100D01*
X152500Y147600D02*
X155100D01*
X152500Y148000D02*
X155100D01*
X152500Y148400D02*
X155100D01*
X152500Y148800D02*
X155100D01*
X152500Y149200D02*
X155100D01*
X152500Y149600D02*
X155100D01*
X152500Y150000D02*
X155100D01*
X152800Y146600D02*
Y150000D01*
X153200Y146600D02*
Y150000D01*
X153600Y146600D02*
Y150000D01*
X154000Y146600D02*
Y150000D01*
X154400Y146600D02*
Y150000D01*
X154800Y146600D02*
Y150000D01*
X152500Y156200D02*
X155100D01*
Y152800*
X152500*
Y156200*
Y152800D02*
X155100D01*
X152500Y153200D02*
X155100D01*
X152500Y153600D02*
X155100D01*
X152500Y154000D02*
X155100D01*
X152500Y154400D02*
X155100D01*
X152500Y154800D02*
X155100D01*
X152500Y155200D02*
X155100D01*
X152500Y155600D02*
X155100D01*
X152500Y156000D02*
X155100D01*
X152800Y152800D02*
Y156200D01*
X153200Y152800D02*
Y156200D01*
X153600Y152800D02*
Y156200D01*
X154000Y152800D02*
Y156200D01*
X154400Y152800D02*
Y156200D01*
X154800Y152800D02*
Y156200D01*
X184800Y126500D02*
Y129100D01*
X188200*
Y126500*
X184800*
Y126800D02*
X188200D01*
X184800Y127200D02*
X188200D01*
X184800Y127600D02*
X188200D01*
X184800Y128000D02*
X188200D01*
X184800Y128400D02*
X188200D01*
X184800Y128800D02*
X188200D01*
X184800Y126500D02*
Y129100D01*
X185200Y126500D02*
Y129100D01*
X185600Y126500D02*
Y129100D01*
X186000Y126500D02*
Y129100D01*
X186400Y126500D02*
Y129100D01*
X186800Y126500D02*
Y129100D01*
X187200Y126500D02*
Y129100D01*
X187600Y126500D02*
Y129100D01*
X188000Y126500D02*
Y129100D01*
X178600Y126500D02*
Y129100D01*
X182000*
Y126500*
X178600*
Y126800D02*
X182000D01*
X178600Y127200D02*
X182000D01*
X178600Y127600D02*
X182000D01*
X178600Y128000D02*
X182000D01*
X178600Y128400D02*
X182000D01*
X178600Y128800D02*
X182000D01*
X178800Y126500D02*
Y129100D01*
X179200Y126500D02*
Y129100D01*
X179600Y126500D02*
Y129100D01*
X180000Y126500D02*
Y129100D01*
X180400Y126500D02*
Y129100D01*
X180800Y126500D02*
Y129100D01*
X181200Y126500D02*
Y129100D01*
X181600Y126500D02*
Y129100D01*
X182000Y126500D02*
Y129100D01*
X184800Y122200D02*
Y124800D01*
X188200*
Y122200*
X184800*
Y122400D02*
X188200D01*
X184800Y122800D02*
X188200D01*
X184800Y123200D02*
X188200D01*
X184800Y123600D02*
X188200D01*
X184800Y124000D02*
X188200D01*
X184800Y124400D02*
X188200D01*
X184800Y124800D02*
X188200D01*
X184800Y122200D02*
Y124800D01*
X185200Y122200D02*
Y124800D01*
X185600Y122200D02*
Y124800D01*
X186000Y122200D02*
Y124800D01*
X186400Y122200D02*
Y124800D01*
X186800Y122200D02*
Y124800D01*
X187200Y122200D02*
Y124800D01*
X187600Y122200D02*
Y124800D01*
X188000Y122200D02*
Y124800D01*
X178600Y122200D02*
Y124800D01*
X182000*
Y122200*
X178600*
Y122400D02*
X182000D01*
X178600Y122800D02*
X182000D01*
X178600Y123200D02*
X182000D01*
X178600Y123600D02*
X182000D01*
X178600Y124000D02*
X182000D01*
X178600Y124400D02*
X182000D01*
X178600Y124800D02*
X182000D01*
X178800Y122200D02*
Y124800D01*
X179200Y122200D02*
Y124800D01*
X179600Y122200D02*
Y124800D01*
X180000Y122200D02*
Y124800D01*
X180400Y122200D02*
Y124800D01*
X180800Y122200D02*
Y124800D01*
X181200Y122200D02*
Y124800D01*
X181600Y122200D02*
Y124800D01*
X182000Y122200D02*
Y124800D01*
X193800Y125300D02*
X191200D01*
Y128700*
X193800*
Y125300*
X191200Y125600D02*
X193800D01*
X191200Y126000D02*
X193800D01*
X191200Y126400D02*
X193800D01*
X191200Y126800D02*
X193800D01*
X191200Y127200D02*
X193800D01*
X191200Y127600D02*
X193800D01*
X191200Y128000D02*
X193800D01*
X191200Y128400D02*
X193800D01*
X191200Y125300D02*
Y128700D01*
X191600Y125300D02*
Y128700D01*
X192000Y125300D02*
Y128700D01*
X192400Y125300D02*
Y128700D01*
X192800Y125300D02*
Y128700D01*
X193200Y125300D02*
Y128700D01*
X193600Y125300D02*
Y128700D01*
X193800Y119100D02*
X191200D01*
Y122500*
X193800*
Y119100*
X191200Y119200D02*
X193800D01*
X191200Y119600D02*
X193800D01*
X191200Y120000D02*
X193800D01*
X191200Y120400D02*
X193800D01*
X191200Y120800D02*
X193800D01*
X191200Y121200D02*
X193800D01*
X191200Y121600D02*
X193800D01*
X191200Y122000D02*
X193800D01*
X191200Y122400D02*
X193800D01*
X191200Y119100D02*
Y122500D01*
X191600Y119100D02*
Y122500D01*
X192000Y119100D02*
Y122500D01*
X192400Y119100D02*
Y122500D01*
X192800Y119100D02*
Y122500D01*
X193200Y119100D02*
Y122500D01*
X193600Y119100D02*
Y122500D01*
X128700Y125600D02*
X126100D01*
Y129000*
X128700*
Y125600*
X126100D02*
X128700D01*
X126100Y126000D02*
X128700D01*
X126100Y126400D02*
X128700D01*
X126100Y126800D02*
X128700D01*
X126100Y127200D02*
X128700D01*
X126100Y127600D02*
X128700D01*
X126100Y128000D02*
X128700D01*
X126100Y128400D02*
X128700D01*
X126100Y128800D02*
X128700D01*
X126400Y125600D02*
Y129000D01*
X126800Y125600D02*
Y129000D01*
X127200Y125600D02*
Y129000D01*
X127600Y125600D02*
Y129000D01*
X128000Y125600D02*
Y129000D01*
X128400Y125600D02*
Y129000D01*
X128700Y119400D02*
X126100D01*
Y122800*
X128700*
Y119400*
X126100Y119600D02*
X128700D01*
X126100Y120000D02*
X128700D01*
X126100Y120400D02*
X128700D01*
X126100Y120800D02*
X128700D01*
X126100Y121200D02*
X128700D01*
X126100Y121600D02*
X128700D01*
X126100Y122000D02*
X128700D01*
X126100Y122400D02*
X128700D01*
X126100Y122800D02*
X128700D01*
X126400Y119400D02*
Y122800D01*
X126800Y119400D02*
Y122800D01*
X127200Y119400D02*
Y122800D01*
X127600Y119400D02*
Y122800D01*
X128000Y119400D02*
Y122800D01*
X128400Y119400D02*
Y122800D01*
X141800Y113900D02*
Y116500D01*
X145200*
Y113900*
X141800*
Y114000D02*
X145200D01*
X141800Y114400D02*
X145200D01*
X141800Y114800D02*
X145200D01*
X141800Y115200D02*
X145200D01*
X141800Y115600D02*
X145200D01*
X141800Y116000D02*
X145200D01*
X141800Y116400D02*
X145200D01*
X142000Y113900D02*
Y116500D01*
X142400Y113900D02*
Y116500D01*
X142800Y113900D02*
Y116500D01*
X143200Y113900D02*
Y116500D01*
X143600Y113900D02*
Y116500D01*
X144000Y113900D02*
Y116500D01*
X144400Y113900D02*
Y116500D01*
X144800Y113900D02*
Y116500D01*
X145200Y113900D02*
Y116500D01*
X135600Y113900D02*
Y116500D01*
X139000*
Y113900*
X135600*
Y114000D02*
X139000D01*
X135600Y114400D02*
X139000D01*
X135600Y114800D02*
X139000D01*
X135600Y115200D02*
X139000D01*
X135600Y115600D02*
X139000D01*
X135600Y116000D02*
X139000D01*
X135600Y116400D02*
X139000D01*
X135600Y113900D02*
Y116500D01*
X136000Y113900D02*
Y116500D01*
X136400Y113900D02*
Y116500D01*
X136800Y113900D02*
Y116500D01*
X137200Y113900D02*
Y116500D01*
X137600Y113900D02*
Y116500D01*
X138000Y113900D02*
Y116500D01*
X138400Y113900D02*
Y116500D01*
X138800Y113900D02*
Y116500D01*
X141800Y103900D02*
Y106500D01*
X145200*
Y103900*
X141800*
Y104000D02*
X145200D01*
X141800Y104400D02*
X145200D01*
X141800Y104800D02*
X145200D01*
X141800Y105200D02*
X145200D01*
X141800Y105600D02*
X145200D01*
X141800Y106000D02*
X145200D01*
X141800Y106400D02*
X145200D01*
X142000Y103900D02*
Y106500D01*
X142400Y103900D02*
Y106500D01*
X142800Y103900D02*
Y106500D01*
X143200Y103900D02*
Y106500D01*
X143600Y103900D02*
Y106500D01*
X144000Y103900D02*
Y106500D01*
X144400Y103900D02*
Y106500D01*
X144800Y103900D02*
Y106500D01*
X145200Y103900D02*
Y106500D01*
X135600Y103900D02*
Y106500D01*
X139000*
Y103900*
X135600*
Y104000D02*
X139000D01*
X135600Y104400D02*
X139000D01*
X135600Y104800D02*
X139000D01*
X135600Y105200D02*
X139000D01*
X135600Y105600D02*
X139000D01*
X135600Y106000D02*
X139000D01*
X135600Y106400D02*
X139000D01*
X135600Y103900D02*
Y106500D01*
X136000Y103900D02*
Y106500D01*
X136400Y103900D02*
Y106500D01*
X136800Y103900D02*
Y106500D01*
X137200Y103900D02*
Y106500D01*
X137600Y103900D02*
Y106500D01*
X138000Y103900D02*
Y106500D01*
X138400Y103900D02*
Y106500D01*
X138800Y103900D02*
Y106500D01*
X139000Y111500D02*
Y108900D01*
X135600*
Y111500*
X139000*
X135600Y109200D02*
X139000D01*
X135600Y109600D02*
X139000D01*
X135600Y110000D02*
X139000D01*
X135600Y110400D02*
X139000D01*
X135600Y110800D02*
X139000D01*
X135600Y111200D02*
X139000D01*
X135600Y108900D02*
Y111500D01*
X136000Y108900D02*
Y111500D01*
X136400Y108900D02*
Y111500D01*
X136800Y108900D02*
Y111500D01*
X137200Y108900D02*
Y111500D01*
X137600Y108900D02*
Y111500D01*
X138000Y108900D02*
Y111500D01*
X138400Y108900D02*
Y111500D01*
X138800Y108900D02*
Y111500D01*
X145200D02*
Y108900D01*
X141800*
Y111500*
X145200*
X141800Y109200D02*
X145200D01*
X141800Y109600D02*
X145200D01*
X141800Y110000D02*
X145200D01*
X141800Y110400D02*
X145200D01*
X141800Y110800D02*
X145200D01*
X141800Y111200D02*
X145200D01*
X142000Y108900D02*
Y111500D01*
X142400Y108900D02*
Y111500D01*
X142800Y108900D02*
Y111500D01*
X143200Y108900D02*
Y111500D01*
X143600Y108900D02*
Y111500D01*
X144000Y108900D02*
Y111500D01*
X144400Y108900D02*
Y111500D01*
X144800Y108900D02*
Y111500D01*
X145200Y108900D02*
Y111500D01*
X257000Y185700D02*
Y183100D01*
X253600*
Y185700*
X257000*
X253600Y183200D02*
X257000D01*
X253600Y183600D02*
X257000D01*
X253600Y184000D02*
X257000D01*
X253600Y184400D02*
X257000D01*
X253600Y184800D02*
X257000D01*
X253600Y185200D02*
X257000D01*
X253600Y185600D02*
X257000D01*
X253600Y183100D02*
Y185700D01*
X254000Y183100D02*
Y185700D01*
X254400Y183100D02*
Y185700D01*
X254800Y183100D02*
Y185700D01*
X255200Y183100D02*
Y185700D01*
X255600Y183100D02*
Y185700D01*
X256000Y183100D02*
Y185700D01*
X256400Y183100D02*
Y185700D01*
X256800Y183100D02*
Y185700D01*
X263200D02*
Y183100D01*
X259800*
Y185700*
X263200*
X259800Y183200D02*
X263200D01*
X259800Y183600D02*
X263200D01*
X259800Y184000D02*
X263200D01*
X259800Y184400D02*
X263200D01*
X259800Y184800D02*
X263200D01*
X259800Y185200D02*
X263200D01*
X259800Y185600D02*
X263200D01*
X260000Y183100D02*
Y185700D01*
X260400Y183100D02*
Y185700D01*
X260800Y183100D02*
Y185700D01*
X261200Y183100D02*
Y185700D01*
X261600Y183100D02*
Y185700D01*
X262000Y183100D02*
Y185700D01*
X262400Y183100D02*
Y185700D01*
X262800Y183100D02*
Y185700D01*
X263200Y183100D02*
Y185700D01*
X202600Y126100D02*
Y128700D01*
X206000*
Y126100*
X202600*
Y126400D02*
X206000D01*
X202600Y126800D02*
X206000D01*
X202600Y127200D02*
X206000D01*
X202600Y127600D02*
X206000D01*
X202600Y128000D02*
X206000D01*
X202600Y128400D02*
X206000D01*
X202800Y126100D02*
Y128700D01*
X203200Y126100D02*
Y128700D01*
X203600Y126100D02*
Y128700D01*
X204000Y126100D02*
Y128700D01*
X204400Y126100D02*
Y128700D01*
X204800Y126100D02*
Y128700D01*
X205200Y126100D02*
Y128700D01*
X205600Y126100D02*
Y128700D01*
X206000Y126100D02*
Y128700D01*
X196400Y126100D02*
Y128700D01*
X199800*
Y126100*
X196400*
Y126400D02*
X199800D01*
X196400Y126800D02*
X199800D01*
X196400Y127200D02*
X199800D01*
X196400Y127600D02*
X199800D01*
X196400Y128000D02*
X199800D01*
X196400Y128400D02*
X199800D01*
X196400Y126100D02*
Y128700D01*
X196800Y126100D02*
Y128700D01*
X197200Y126100D02*
Y128700D01*
X197600Y126100D02*
Y128700D01*
X198000Y126100D02*
Y128700D01*
X198400Y126100D02*
Y128700D01*
X198800Y126100D02*
Y128700D01*
X199200Y126100D02*
Y128700D01*
X199600Y126100D02*
Y128700D01*
G54D12*
X208622Y143752D03*
Y146902D03*
Y150051D03*
Y153201D03*
Y156350D03*
Y159500D03*
Y162650D03*
Y165799D03*
Y168949D03*
Y172098D03*
Y175248D03*
X161378D03*
Y172098D03*
Y168949D03*
Y165799D03*
Y162650D03*
Y159500D03*
Y156350D03*
Y153201D03*
Y150051D03*
Y146902D03*
Y143752D03*
G54D13*
X200748Y183122D03*
X197598D03*
X194449D03*
X191299D03*
X188150D03*
X185000D03*
X181850D03*
X178701D03*
X175551D03*
X172402D03*
X169252D03*
Y135878D03*
X172402D03*
X175551D03*
X178701D03*
X181850D03*
X185000D03*
X188150D03*
X191299D03*
X194449D03*
X197598D03*
X200748D03*
G54D14*
X225600Y157600D02*
X221200D01*
Y163000*
X225600*
Y157600*
X221200D02*
X225600D01*
X221200Y158200D02*
X225600D01*
X221200Y158800D02*
X225600D01*
X221200Y159400D02*
X225600D01*
X221200Y160000D02*
X225600D01*
X221200Y160600D02*
X225600D01*
X221200Y161200D02*
X225600D01*
X221200Y161800D02*
X225600D01*
X221200Y162400D02*
X225600D01*
X221200Y163000D02*
X225600D01*
X221200Y157600D02*
Y163000D01*
X221800Y157600D02*
Y163000D01*
X222400Y157600D02*
Y163000D01*
X223000Y157600D02*
Y163000D01*
X223600Y157600D02*
Y163000D01*
X224200Y157600D02*
Y163000D01*
X224800Y157600D02*
Y163000D01*
X225400Y157600D02*
Y163000D01*
X225600Y148600D02*
X221200D01*
Y154000*
X225600*
Y148600*
X221200D02*
X225600D01*
X221200Y149200D02*
X225600D01*
X221200Y149800D02*
X225600D01*
X221200Y150400D02*
X225600D01*
X221200Y151000D02*
X225600D01*
X221200Y151600D02*
X225600D01*
X221200Y152200D02*
X225600D01*
X221200Y152800D02*
X225600D01*
X221200Y153400D02*
X225600D01*
X221200Y154000D02*
X225600D01*
X221200Y148600D02*
Y154000D01*
X221800Y148600D02*
Y154000D01*
X222400Y148600D02*
Y154000D01*
X223000Y148600D02*
Y154000D01*
X223600Y148600D02*
Y154000D01*
X224200Y148600D02*
Y154000D01*
X224800Y148600D02*
Y154000D01*
X225400Y148600D02*
Y154000D01*
G54D15*
X183100Y107800D03*
X190974D03*
X198848D03*
X168000Y193000D03*
X160126D03*
X152252D03*
G54D16*
X112500Y112500D03*
X232500D03*
Y187500D03*
G54D17*
X135287Y119725D02*
X133713D01*
Y122875*
X135287*
Y119725*
X133713Y120079D02*
X135287D01*
X133713Y121260D02*
X135287D01*
X133713Y122441D02*
X135287D01*
X134252Y119725D02*
Y122875D01*
X141193Y119725D02*
X139618D01*
Y122875*
X141193*
Y119725*
X139618Y120079D02*
X141193D01*
X139618Y121260D02*
X141193D01*
X139618Y122441D02*
X141193D01*
X140157Y119725D02*
Y122875D01*
X147098Y119725D02*
X145524D01*
Y122875*
X147098*
Y119725*
X145524Y120079D02*
X147098D01*
X145524Y121260D02*
X147098D01*
X145524Y122441D02*
X147098D01*
X146063Y119725D02*
Y122875D01*
X245397Y178208D02*
Y179192D01*
X249531*
Y178208*
X245397*
Y179134D02*
X249531D01*
X246457Y178208D02*
Y179192D01*
X247638Y178208D02*
Y179192D01*
X248819Y178208D02*
Y179192D01*
X245397Y173208D02*
Y174192D01*
X249531*
Y173208*
X245397*
Y173228D02*
X249531D01*
X246457Y173208D02*
Y174192D01*
X247638Y173208D02*
Y174192D01*
X248819Y173208D02*
Y174192D01*
X245397Y168208D02*
Y169192D01*
X249531*
Y168208*
X245397*
Y168504D02*
X249531D01*
X246457Y168208D02*
Y169192D01*
X247638Y168208D02*
Y169192D01*
X248819Y168208D02*
Y169192D01*
X245397Y163208D02*
Y164192D01*
X249531*
Y163208*
X245397*
Y163780D02*
X249531D01*
X246457Y163208D02*
Y164192D01*
X247638Y163208D02*
Y164192D01*
X248819Y163208D02*
Y164192D01*
X245397Y158208D02*
Y159192D01*
X249531*
Y158208*
X245397*
Y159055D02*
X249531D01*
X246457Y158208D02*
Y159192D01*
X247638Y158208D02*
Y159192D01*
X248819Y158208D02*
Y159192D01*
X245397Y153208D02*
Y154192D01*
X249531*
Y153208*
X245397*
X246457D02*
Y154192D01*
X247638Y153208D02*
Y154192D01*
X248819Y153208D02*
Y154192D01*
X245397Y148208D02*
Y149192D01*
X249531*
Y148208*
X245397*
Y148425D02*
X249531D01*
X246457Y148208D02*
Y149192D01*
X247638Y148208D02*
Y149192D01*
X248819Y148208D02*
Y149192D01*
X265869Y148208D02*
Y149192D01*
X270003*
Y148208*
X265869*
Y148425D02*
X270003D01*
X266535Y148208D02*
Y149192D01*
X267717Y148208D02*
Y149192D01*
X268898Y148208D02*
Y149192D01*
X265869Y153208D02*
Y154192D01*
X270003*
Y153208*
X265869*
X266535D02*
Y154192D01*
X267717Y153208D02*
Y154192D01*
X268898Y153208D02*
Y154192D01*
X265869Y158208D02*
Y159192D01*
X270003*
Y158208*
X265869*
Y159055D02*
X270003D01*
X266535Y158208D02*
Y159192D01*
X267717Y158208D02*
Y159192D01*
X268898Y158208D02*
Y159192D01*
X265869Y163208D02*
Y164192D01*
X270003*
Y163208*
X265869*
Y163780D02*
X270003D01*
X266535Y163208D02*
Y164192D01*
X267717Y163208D02*
Y164192D01*
X268898Y163208D02*
Y164192D01*
X265869Y168208D02*
Y169192D01*
X270003*
Y168208*
X265869*
Y168504D02*
X270003D01*
X266535Y168208D02*
Y169192D01*
X267717Y168208D02*
Y169192D01*
X268898Y168208D02*
Y169192D01*
X265869Y173208D02*
Y174192D01*
X270003*
Y173208*
X265869*
Y173228D02*
X270003D01*
X266535Y173208D02*
Y174192D01*
X267717Y173208D02*
Y174192D01*
X268898Y173208D02*
Y174192D01*
X265869Y178208D02*
Y179192D01*
X270003*
Y178208*
X265869*
Y179134D02*
X270003D01*
X266535Y178208D02*
Y179192D01*
X267717Y178208D02*
Y179192D01*
X268898Y178208D02*
Y179192D01*
X105210Y147094D02*
X103990D01*
Y151819*
X105210*
Y147094*
X103990Y147244D02*
X105210D01*
X103990Y148425D02*
X105210D01*
X103990Y149606D02*
X105210D01*
X103990Y150787D02*
X105210D01*
X104724Y147094D02*
Y151819D01*
X109147Y147094D02*
X107927D01*
Y151819*
X109147*
Y147094*
X107927Y147244D02*
X109147D01*
X107927Y148425D02*
X109147D01*
X107927Y149606D02*
X109147D01*
X107927Y150787D02*
X109147D01*
X108268Y147094D02*
Y151819D01*
X113084Y147094D02*
X111864D01*
Y151819*
X113084*
Y147094*
X111864Y147244D02*
X113084D01*
X111864Y148425D02*
X113084D01*
X111864Y149606D02*
X113084D01*
X111864Y150787D02*
X113084D01*
X112992Y147094D02*
Y151819D01*
X117021Y147094D02*
X115801D01*
Y151819*
X117021*
Y147094*
X115801Y147244D02*
X117021D01*
X115801Y148425D02*
X117021D01*
X115801Y149606D02*
X117021D01*
X115801Y150787D02*
X117021D01*
X116535Y147094D02*
Y151819D01*
X120958Y147094D02*
X119738D01*
Y151819*
X120958*
Y147094*
X119738Y147244D02*
X120958D01*
X119738Y148425D02*
X120958D01*
X119738Y149606D02*
X120958D01*
X119738Y150787D02*
X120958D01*
X120079Y147094D02*
Y151819D01*
X124895Y147094D02*
X123675D01*
Y151819*
X124895*
Y147094*
X123675Y147244D02*
X124895D01*
X123675Y148425D02*
X124895D01*
X123675Y149606D02*
X124895D01*
X123675Y150787D02*
X124895D01*
X124803Y147094D02*
Y151819D01*
X128832Y147094D02*
X127612D01*
Y151819*
X128832*
Y147094*
X127612Y147244D02*
X128832D01*
X127612Y148425D02*
X128832D01*
X127612Y149606D02*
X128832D01*
X127612Y150787D02*
X128832D01*
X128346Y147094D02*
Y151819D01*
X132769Y147094D02*
X131549D01*
Y151819*
X132769*
Y147094*
X131549Y147244D02*
X132769D01*
X131549Y148425D02*
X132769D01*
X131549Y149606D02*
X132769D01*
X131549Y150787D02*
X132769D01*
X131890Y147094D02*
Y151819D01*
X140820Y152468D02*
Y151248D01*
X136096*
Y152468*
X140820*
X136096Y151969D02*
X140820D01*
X136614Y151248D02*
Y152468D01*
X137795Y151248D02*
Y152468D01*
X138976Y151248D02*
Y152468D01*
X140157Y151248D02*
Y152468D01*
X140820Y156405D02*
Y155185D01*
X136096*
Y156405*
X140820*
X136096Y155512D02*
X140820D01*
X136614Y155185D02*
Y156405D01*
X137795Y155185D02*
Y156405D01*
X138976Y155185D02*
Y156405D01*
X140157Y155185D02*
Y156405D01*
X140820Y160342D02*
Y159122D01*
X136096*
Y160342*
X140820*
X136096Y160236D02*
X140820D01*
X136614Y159122D02*
Y160342D01*
X137795Y159122D02*
Y160342D01*
X138976Y159122D02*
Y160342D01*
X140157Y159122D02*
Y160342D01*
X140820Y164279D02*
Y163059D01*
X136096*
Y164279*
X140820*
X136096Y163780D02*
X140820D01*
X136614Y163059D02*
Y164279D01*
X137795Y163059D02*
Y164279D01*
X138976Y163059D02*
Y164279D01*
X140157Y163059D02*
Y164279D01*
X140820Y168216D02*
Y166996D01*
X136096*
Y168216*
X140820*
X136096Y167323D02*
X140820D01*
X136614Y166996D02*
Y168216D01*
X137795Y166996D02*
Y168216D01*
X138976Y166996D02*
Y168216D01*
X140157Y166996D02*
Y168216D01*
X140820Y172153D02*
Y170933D01*
X136096*
Y172153*
X140820*
X136096Y172047D02*
X140820D01*
X136614Y170933D02*
Y172153D01*
X137795Y170933D02*
Y172153D01*
X138976Y170933D02*
Y172153D01*
X140157Y170933D02*
Y172153D01*
X140820Y176090D02*
Y174870D01*
X136096*
Y176090*
X140820*
X136096Y175591D02*
X140820D01*
X136614Y174870D02*
Y176090D01*
X137795Y174870D02*
Y176090D01*
X138976Y174870D02*
Y176090D01*
X140157Y174870D02*
Y176090D01*
X140820Y180027D02*
Y178807D01*
X136096*
Y180027*
X140820*
X136096Y179134D02*
X140820D01*
X136614Y178807D02*
Y180027D01*
X137795Y178807D02*
Y180027D01*
X138976Y178807D02*
Y180027D01*
X140157Y178807D02*
Y180027D01*
X132769Y179385D02*
X131549D01*
Y184110*
X132769*
Y179385*
X131549Y180315D02*
X132769D01*
X131549Y181496D02*
X132769D01*
X131549Y182677D02*
X132769D01*
X131549Y183858D02*
X132769D01*
X131890Y179385D02*
Y184110D01*
X128832Y179385D02*
X127612D01*
Y184110*
X128832*
Y179385*
X127612Y180315D02*
X128832D01*
X127612Y181496D02*
X128832D01*
X127612Y182677D02*
X128832D01*
X127612Y183858D02*
X128832D01*
X128346Y179385D02*
Y184110D01*
X124895Y179385D02*
X123675D01*
Y184110*
X124895*
Y179385*
X123675Y180315D02*
X124895D01*
X123675Y181496D02*
X124895D01*
X123675Y182677D02*
X124895D01*
X123675Y183858D02*
X124895D01*
X124803Y179385D02*
Y184110D01*
X120958Y179385D02*
X119738D01*
Y184110*
X120958*
Y179385*
X119738Y180315D02*
X120958D01*
X119738Y181496D02*
X120958D01*
X119738Y182677D02*
X120958D01*
X119738Y183858D02*
X120958D01*
X120079Y179385D02*
Y184110D01*
X117021Y179385D02*
X115801D01*
Y184110*
X117021*
Y179385*
X115801Y180315D02*
X117021D01*
X115801Y181496D02*
X117021D01*
X115801Y182677D02*
X117021D01*
X115801Y183858D02*
X117021D01*
X116535Y179385D02*
Y184110D01*
X113084Y179385D02*
X111864D01*
Y184110*
X113084*
Y179385*
X111864Y180315D02*
X113084D01*
X111864Y181496D02*
X113084D01*
X111864Y182677D02*
X113084D01*
X111864Y183858D02*
X113084D01*
X112992Y179385D02*
Y184110D01*
X109147Y179385D02*
X107927D01*
Y184110*
X109147*
Y179385*
X107927Y180315D02*
X109147D01*
X107927Y181496D02*
X109147D01*
X107927Y182677D02*
X109147D01*
X107927Y183858D02*
X109147D01*
X108268Y179385D02*
Y184110D01*
X105210Y179385D02*
X103990D01*
Y184110*
X105210*
Y179385*
X103990Y180315D02*
X105210D01*
X103990Y181496D02*
X105210D01*
X103990Y182677D02*
X105210D01*
X103990Y183858D02*
X105210D01*
X104724Y179385D02*
Y184110D01*
G54D18*
X284900Y190170D03*
Y182296D03*
Y174422D03*
Y166548D03*
Y158674D03*
Y150800D03*
G54D19*
X262092Y126406D03*
Y114594D03*
G54D20*
X279100Y120500D03*
G54D21*
X111096Y160126D02*
X107946D01*
Y163275*
X111096*
Y160126*
X107946Y160630D02*
X111096D01*
X107946Y161417D02*
X111096D01*
X107946Y162205D02*
X111096D01*
X107946Y162992D02*
X111096D01*
X108661Y160126D02*
Y163275D01*
X109449Y160126D02*
Y163275D01*
X110236Y160126D02*
Y163275D01*
X111024Y160126D02*
Y163275D01*
X111096Y167925D02*
X107946D01*
Y171074*
X111096*
Y167925*
X107946Y168504D02*
X111096D01*
X107946Y169291D02*
X111096D01*
X107946Y170079D02*
X111096D01*
X107946Y170866D02*
X111096D01*
X108661Y167925D02*
Y171074D01*
X109449Y167925D02*
Y171074D01*
X110236Y167925D02*
Y171074D01*
X111024Y167925D02*
Y171074D01*
G54D22*
X141283Y129698D02*
X139528D01*
Y121800*
X141283*
Y129698*
X140000Y121800D02*
Y129698D01*
X140500Y121800D02*
Y129698D01*
X141000Y121800D02*
Y129698D01*
X143843Y136447D02*
X143348Y136942D01*
X137463*
X136969Y136447*
Y127609*
X137463Y127115*
X143348*
X143843Y127609*
Y136447*
X137000Y127578D02*
Y136479D01*
X137500Y127115D02*
Y136942D01*
X138000Y127115D02*
Y136942D01*
X138500Y127115D02*
Y136942D01*
X139000Y127115D02*
Y136942D01*
X139500Y127115D02*
Y136942D01*
X140000Y127115D02*
Y136942D01*
X140500Y127115D02*
Y136942D01*
X141000Y127115D02*
Y136942D01*
X141500Y127115D02*
Y136942D01*
X142000Y127115D02*
Y136942D01*
X142500Y127115D02*
Y136942D01*
X143000Y127115D02*
Y136942D01*
X143500Y127267D02*
Y136790D01*
X198100Y123900D02*
Y127400D01*
X204300D02*
X209600D01*
X210000Y127000*
X240000D02*
X242200Y124800D01*
Y125600*
X253000Y114800*
X261887*
X262092Y114594*
X169000Y129200D02*
X169252Y132827D01*
Y135878*
X172402D02*
Y132827D01*
X173000Y128800*
X194400Y135829D02*
X194449Y135878D01*
Y130651*
X197700Y127400*
X198100*
X138400Y145000D02*
X138268Y144868D01*
X140936Y142200*
X143600*
X144500Y143100*
X151700*
X151900Y142900*
X156364*
X158391Y143552*
X159013Y143752*
X161378*
X142100Y144800D02*
X156225D01*
X158327Y146902*
X161378*
X138458Y155795D02*
X144800D01*
X154805Y165800*
X161377*
X161378Y165799*
X138458Y151858D02*
X144900D01*
X155700Y162658*
X161370*
X161378Y162650*
X267936Y153700D02*
X279926D01*
X284900Y158674*
X133200Y167800D02*
Y167638D01*
X138458*
Y167606*
Y163669D02*
X143900D01*
X152231Y172000*
X161280*
X161378Y172098*
X138458Y159732D02*
X144800D01*
X154068Y169000*
X161327*
X161378Y168949*
X247464Y163700D02*
X249039D01*
X251321Y161417*
X267936Y163700D02*
X269511D01*
X280233Y174422*
X267936Y158700D02*
X277052D01*
X284900Y166548*
X138458Y171543D02*
Y171603D01*
X143700*
Y171900*
X208622Y175248D02*
X219660D01*
X228108Y166800*
X237800*
X245900Y158700*
X247464*
X208622Y172098D02*
X213959D01*
X214761Y172900*
X219603*
X227503Y165000*
X237196*
X241714Y160482*
Y159358*
X244773Y156300*
X250155*
X251321Y157466*
Y161417*
X238100Y171100D02*
X252500D01*
X253500Y172100*
X258500*
X267936Y168700D02*
X272107D01*
X277300Y173893*
Y174696*
X284900Y182296*
X280168Y174422D02*
X280233D01*
X284900*
X191299Y183122D02*
Y188159D01*
X192140Y189000*
X204600*
X206600Y187000*
X212900*
X194449Y183122D02*
Y180071D01*
X196820Y177700*
X219769*
X228969Y168500*
X241342*
X241542Y168700*
X247464*
X200748Y183122D02*
X217622D01*
X227044Y173700*
X247464*
X160126Y193000D02*
Y183252D01*
X161378Y182000*
Y175248*
X168000Y193000D02*
X169252Y191748D01*
Y183122*
X286456Y120500D02*
G75*
G03X286456I-7356J0D01*
G01X267035Y126406D02*
G03X267035I-4943J0D01*
G01X236900Y142607D02*
Y152500D01*
X231962*
X231575Y152200D02*
G03X231962Y152500I-775J1400D01*
G01X232400Y150800D02*
G03X231575Y152200I-1600J0D01*
G01X232400Y150800D02*
Y147400D01*
X230800Y145800D02*
G03X232400Y147400I0J1600D01*
G01X230800Y145800D02*
X228200D01*
X226609Y147232D02*
G03X228200Y145800I1591J168D01*
G01X225600Y146900D02*
G03X226609Y147232I0J1700D01*
G01X225600Y146900D02*
X221200D01*
X219500Y148600D02*
G03X221200Y146900I1700J0D01*
G01X219500Y148600D02*
Y151744D01*
X218826Y152400*
X217842*
X214803Y152500D02*
G03X217842Y152400I1597J2300D01*
G01X214803Y152500D02*
X213849D01*
X213330Y151626D02*
G03X213849Y152500I-1657J1575D01*
G01X213330Y148476D02*
G03Y151626I-1657J1575D01*
G01Y145327D02*
G03Y148476I-1657J1575D01*
G01X211673Y141466D02*
G03X213330Y145327I0J2286D01*
G01X211673Y141466D02*
X206900D01*
Y130023*
X207483Y129300D02*
G03X206900Y130023I-1483J-600D01*
G01X207483Y129300D02*
X208403D01*
X207636Y125500D02*
G03X208403Y129300I2364J1500D01*
G01X207636Y125500D02*
X207483D01*
X206900Y124777D02*
G03X207483Y125500I-900J1323D01*
G01X206900Y124777D02*
Y123000D01*
X200751*
X195449D02*
G03X200751I2651J900D01*
G01X195449D02*
X190500D01*
Y120200*
X164200*
Y116100*
X207808*
X223888Y132011*
X222949Y132949*
X227051Y137051D02*
G03X222949Y132949I-2051J-2051D01*
G01X227051Y137051D02*
X229197Y134904D01*
X236900Y142607*
X135600Y118100D02*
X136277D01*
X136100Y118900D02*
G03X136277Y118100I1900J0D01*
G01X136100Y118900D02*
Y122700D01*
X130300*
Y119400*
X128700Y117800D02*
G03X130300Y119400I0J1600D01*
G01X128700Y117800D02*
X126100D01*
X124500Y119400D02*
G03X126100Y117800I1600J0D01*
G01X124500Y119400D02*
Y122700D01*
X124000*
Y118562*
Y106438D02*
G03Y118562I-11500J6062D01*
G01Y106438D02*
Y102500D01*
X133300*
Y113300*
X134117*
X134000Y113900D02*
G03X134117Y113300I1600J0D01*
G01X134000Y113900D02*
Y116500D01*
X135600Y118100D02*
G03X134000Y116500I0J-1600D01*
G01X203100Y141900D02*
Y175800D01*
X196820*
X195476Y176356D02*
G03X196820Y175800I1344J1344D01*
G01X195476Y176356D02*
X194233Y177600D01*
X166200*
Y176693*
Y173803D02*
G03Y176693I-1771J1445D01*
G01Y173803D02*
Y173544D01*
Y170653D02*
G03Y173544I-1771J1445D01*
G01Y170653D02*
Y170394D01*
Y167503D02*
G03Y170394I-1771J1446D01*
G01Y167503D02*
Y167245D01*
Y164354D02*
G03Y167245I-1771J1445D01*
G01Y164354D02*
Y164095D01*
Y161204D02*
G03Y164095I-1771J1446D01*
G01Y161204D02*
Y160945D01*
Y158055D02*
G03Y160945I-1771J1445D01*
G01Y158055D02*
Y157796D01*
Y154905D02*
G03Y157796I-1771J1445D01*
G01Y154905D02*
Y154646D01*
Y151755D02*
G03Y154646I-1771J1446D01*
G01Y151755D02*
Y151497D01*
Y148606D02*
G03Y151497I-1771J1445D01*
G01Y148606D02*
Y148347D01*
Y145456D02*
G03Y148347I-1771J1446D01*
G01Y145456D02*
Y145197D01*
X166646Y143194D02*
G03X166200Y145197I-2217J558D01*
G01X168303Y141900D02*
G03X166646Y143194I-1803J-600D01*
G01X168303Y141900D02*
X203100D01*
X270800Y181016D02*
Y186500D01*
X264586*
X264800Y185700D02*
G03X264586Y186500I-1600J0D01*
G01X264800Y185700D02*
Y183100D01*
X263200Y181500D02*
G03X264800Y183100I0J1600D01*
G01X263200Y181500D02*
X260400D01*
Y174157*
X261284Y171800D02*
G03X260400Y174157I-2784J300D01*
G01X261284Y171800D02*
X264462D01*
X263879Y173208D02*
G03X264462Y171800I1990J-0D01*
G01X263879Y173208D02*
Y174192D01*
X265869Y176183D02*
G03X263879Y174192I0J-1991D01*
G01X265869Y176183D02*
X270003D01*
X270800Y176016D02*
G03X270003Y176183I-797J-1824D01*
G01X270800Y176016D02*
Y176384D01*
X270003Y176217D02*
G03X270800Y176384I0J1991D01*
G01X270003Y176217D02*
X265869D01*
X263879Y178208D02*
G03X265869Y176217I1990J-0D01*
G01X263879Y178208D02*
Y179192D01*
X265869Y181183D02*
G03X263879Y179192I0J-1991D01*
G01X265869Y181183D02*
X270003D01*
X270800Y181016D02*
G03X270003Y181183I-797J-1824D01*
G01X166500Y130461D02*
Y140000D01*
X166200*
X164397Y141300D02*
G03X166200Y140000I1803J600D01*
G01X164397Y141300D02*
X157595D01*
X156946Y141091*
X156364Y141000D02*
G03X156946Y141091I0J1900D01*
G01X156364Y141000D02*
X151900D01*
X151051Y141200D02*
G03X151900Y141000I849J1700D01*
G01X151051Y141200D02*
X145287D01*
X144944Y140856*
X144300Y140434D02*
G03X144944Y140856I-700J1766D01*
G01X144300Y140434D02*
Y139000D01*
X135955*
X130445D02*
G03X135955I2755J-500D01*
G01X130445D02*
X123800D01*
Y125689*
X124000Y125700D02*
G03X123800Y125689I0J-1900D01*
G01X124000Y125700D02*
X124500D01*
Y129000*
X126100Y130600D02*
G03X124500Y129000I0J-1600D01*
G01X126100Y130600D02*
X128700D01*
X130300Y129000D02*
G03X128700Y130600I-1600J0D01*
G01X130300Y129000D02*
Y125700D01*
X136400*
X138300Y123800D02*
G03X136400Y125700I-1900J0D01*
G01X138300Y123800D02*
Y118900D01*
X142900*
Y124900*
X150900*
Y114000*
X150933*
X152184Y115251*
X154235Y116100D02*
G03X152184Y115251I-0J-2900D01*
G01X154235Y116100D02*
X166500D01*
Y127939*
Y130461D02*
G03Y127939I2500J-1261D01*
G01X295000Y102500D02*
Y197500D01*
X240807*
X237734Y175600D02*
G03X240807Y197500I-5234J11900D01*
G01X237734Y175600D02*
X243990D01*
X245397Y176183D02*
G03X243990Y175600I-0J-1991D01*
G01X245397Y176183D02*
X249531D01*
X251521Y174192D02*
G03X249531Y176183I-1990J0D01*
G01X251521Y174192D02*
Y173208D01*
X251510Y173000D02*
G03X251521Y173208I-1979J208D01*
G01X251510Y173000D02*
X251713D01*
X252156Y173444*
X253500Y174000D02*
G03X252156Y173444I0J-1900D01*
G01X253500Y174000D02*
X256443D01*
X258500Y174900D02*
G03X256443Y174000I0J-2800D01*
G01X258500Y174900D02*
Y182167D01*
X258400Y182325D02*
G03X258500Y182167I1400J775D01*
G01X257000Y181500D02*
G03X258400Y182325I0J1600D01*
G01X257000Y181500D02*
X253600D01*
X252000Y183100D02*
G03X253600Y181500I1600J0D01*
G01X252000Y183100D02*
Y185700D01*
X253600Y187300D02*
G03X252000Y185700I0J-1600D01*
G01X253600Y187300D02*
X257000D01*
X258400Y186475D02*
G03X257000Y187300I-1400J-775D01*
G01X258505Y186640D02*
G03X258400Y186475I1295J-940D01*
G01X260400Y188400D02*
G03X258505Y186640I0J-1900D01*
G01X260400Y188400D02*
X270800D01*
X272700Y186500D02*
G03X270800Y188400I-1900J0D01*
G01X272700Y186500D02*
Y171980D01*
X275400Y174680*
Y174696*
X275956Y176040D02*
G03X275400Y174696I1344J-1344D01*
G01X275956Y176040D02*
X280787Y180870D01*
X283043Y186233D02*
G03X280787Y180870I1857J-3937D01*
G01X286757Y186233D02*
G03X283043I-1857J3937D01*
G01X286757Y178359D02*
G03Y186233I-1857J3937D01*
G01Y170485D02*
G03Y178359I-1857J3937D01*
G01Y162611D02*
G03Y170485I-1857J3937D01*
G01Y154737D02*
G03Y162611I-1857J3937D01*
G01X280707Y151968D02*
G03X286757Y154737I4193J-1168D01*
G01X279926Y151800D02*
G03X280707Y151968I-0J1900D01*
G01X279926Y151800D02*
X271410D01*
X270003Y151217D02*
G03X271410Y151800I0J1991D01*
G01X270003Y151217D02*
X265869D01*
X263879Y153208D02*
G03X265869Y151217I1990J-0D01*
G01X263879Y153208D02*
Y154192D01*
X265869Y156183D02*
G03X263879Y154192I0J-1991D01*
G01X265869Y156183D02*
X270003D01*
X271410Y155600D02*
G03X270003Y156183I-1407J-1408D01*
G01X271410Y155600D02*
X279139D01*
X280787Y157248*
X280649Y159610D02*
G03X280787Y157248I4251J-936D01*
G01X280649Y159610D02*
X278395Y157356D01*
X277052Y156800D02*
G03X278395Y157356I-0J1900D01*
G01X277052Y156800D02*
X271410D01*
X270003Y156217D02*
G03X271410Y156800I0J1991D01*
G01X270003Y156217D02*
X265869D01*
X264000Y157524D02*
G03X265869Y156217I1869J684D01*
G01X264000Y157524D02*
Y157038D01*
X263297Y155341D02*
G03X264000Y157038I-1697J1697D01*
G01X263297Y155341D02*
X252159Y144203D01*
X250462Y143500D02*
G03X252159Y144203I0J2400D01*
G01X250462Y143500D02*
X238800D01*
Y142607*
X238244Y141264D02*
G03X238800Y142607I-1344J1343D01*
G01X238244Y141264D02*
X230481Y133501D01*
X230040Y129939D02*
G03X230481Y133501I-2040J2061D01*
G01X230040Y129939D02*
X211040Y111139D01*
X209000Y110300D02*
G03X211040Y111139I0J2900D01*
G01X209000Y110300D02*
X202649D01*
X194911Y105520D02*
G03X202649Y110300I3937J2280D01*
G01X187037Y105520D02*
G03X194911I3937J2280D01*
G01X179299Y110300D02*
G03X187037Y105520I3801J-2500D01*
G01X179299Y110300D02*
X155436D01*
X149551Y104415*
X148462Y103730D02*
G03X149551Y104415I-962J2735D01*
G01X148462Y103730D02*
X146563Y103062D01*
X145975Y102500D02*
G03X146563Y103062I-775J1400D01*
G01X145975Y102500D02*
X224193D01*
X240807D02*
G03X224193I-8307J10000D01*
G01X240807D02*
X295000D01*
X224193Y197500D02*
G03X220232Y183199I8307J-10000D01*
G01X224193Y197500D02*
X168670D01*
X171152Y189719D02*
G03X168670Y197500I-3152J3281D01*
G01X171152Y189719D02*
Y188087D01*
X173976Y187830D02*
G03X171152Y188087I-1574J-1657D01*
G01X176501Y188253D02*
G03X173976Y187830I-950J-2080D01*
G01X176501Y188253D02*
Y188800D01*
X175400*
X173800Y190400D02*
G03X175400Y188800I1600J0D01*
G01X173800Y190400D02*
Y193000D01*
X175400Y194600D02*
G03X173800Y193000I0J-1600D01*
G01X175400Y194600D02*
X178800D01*
X180200Y193775D02*
G03X178800Y194600I-1400J-775D01*
G01X181600D02*
G03X180200Y193775I0J-1600D01*
G01X181600Y194600D02*
X185000D01*
X186600Y193000D02*
G03X185000Y194600I-1600J0D01*
G01X186600Y193000D02*
Y190400D01*
X185000Y188800D02*
G03X186600Y190400I0J1600D01*
G01X185000Y188800D02*
X181600D01*
X180901Y188961D02*
G03X181600Y188800I699J1439D01*
G01X180901Y188961D02*
Y188253D01*
X183425Y187830D02*
G03X180901Y188253I-1575J-1657D01*
G01X186575Y187830D02*
G03X183425I-1575J-1657D01*
G01X189399Y188087D02*
G03X186575Y187830I-1249J-1914D01*
G01X189399Y188087D02*
Y188159D01*
X189956Y189503D02*
G03X189399Y188159I1343J-1344D01*
G01X189956Y189503D02*
X190797Y190344D01*
X192140Y190900D02*
G03X190797Y190344I0J-1900D01*
G01X192140Y190900D02*
X204600D01*
X205944Y190344D02*
G03X204600Y190900I-1344J-1344D01*
G01X205944Y190344D02*
X207387Y188900D01*
X210843*
X214882Y185022D02*
G03X210843Y188900I-1982J1978D01*
G01X214882Y185022D02*
X217622D01*
X218966Y184466D02*
G03X217622Y185022I-1344J-1344D01*
G01X218966Y184466D02*
X220232Y183199D01*
X159478Y177534D02*
Y181213D01*
X158782Y181908*
X158226Y183252D02*
G03X158782Y181908I1900J-0D01*
G01X158226Y183252D02*
Y188866D01*
X156189Y190720D02*
G03X158226Y188866I3937J2280D01*
G01X151640Y188492D02*
G03X156189Y190720I612J4508D01*
G01X151640Y188492D02*
X153131Y187000D01*
X153600*
X155200Y185400D02*
G03X153600Y187000I-1600J0D01*
G01X155200Y185400D02*
Y182125D01*
X158374Y177534D02*
G03X155200Y182125I-1774J2166D01*
G01X158374Y177534D02*
X159478D01*
X146000Y187000D02*
X146343D01*
X139443Y193900*
X136200*
Y191800*
X136039Y191100D02*
G03X136200Y191800I-1439J700D01*
G01Y190400D02*
G03X136039Y191100I-1600J0D01*
G01X136200Y190400D02*
Y187800D01*
X134600Y186200D02*
G03X136200Y187800I0J1600D01*
G01X134600Y186200D02*
X131200D01*
X130697Y186281D02*
G03X131200Y186200I503J1519D01*
G01X130622Y185793D02*
G03X130697Y186281I-2322J607D01*
G01X130622Y185793D02*
Y184981D01*
X130823Y184110D02*
G03X130622Y184981I-1991J-0D01*
G01X130823Y184110D02*
Y179385D01*
X130500Y178299D02*
G03X130823Y179385I-1668J1086D01*
G01X130500Y178299D02*
Y168542D01*
X134171Y170426D02*
G03X130500Y168542I-971J-2626D01*
G01X134105Y170933D02*
G03X134171Y170426I1991J-0D01*
G01X134105Y170933D02*
Y172153D01*
X134641Y173511D02*
G03X134105Y172153I1455J-1358D01*
G01Y174870D02*
G03X134641Y173511I1991J-0D01*
G01X134105Y174870D02*
Y176090D01*
X134641Y177448D02*
G03X134105Y176090I1455J-1358D01*
G01Y178807D02*
G03X134641Y177448I1991J-0D01*
G01X134105Y178807D02*
Y180027D01*
X136096Y182018D02*
G03X134105Y180027I0J-1991D01*
G01X136096Y182018D02*
X140820D01*
X142811Y180027D02*
G03X140820Y182018I-1991J0D01*
G01X142811Y180027D02*
Y178807D01*
X142582Y177880D02*
G03X142811Y178807I-1762J927D01*
G01X142582Y177880D02*
X142907D01*
X144400Y178355*
Y179200*
X145225Y180600D02*
G03X144400Y179200I775J-1400D01*
G01Y182000D02*
G03X145225Y180600I1600J0D01*
G01X144400Y182000D02*
Y185400D01*
X146000Y187000D02*
G03X144400Y185400I0J-1600D01*
G01X151582Y197500D02*
G03X147744Y192388I670J-4500D01*
G01X151582Y197500D02*
X142631D01*
X147744Y192388*
X135600Y118100D02*
X136277D01*
X136100Y118900D02*
G03X136277Y118100I1900J0D01*
G01X136100Y118900D02*
Y122700D01*
X130500*
Y102500*
X134825*
X134000Y103900D02*
G03X134825Y102500I1600J0D01*
G01X134000Y103900D02*
Y106500D01*
X134542Y107700D02*
G03X134000Y106500I1058J-1200D01*
G01Y108900D02*
G03X134542Y107700I1600J0D01*
G01X134000Y108900D02*
Y111500D01*
X134542Y112700D02*
G03X134000Y111500I1058J-1200D01*
G01Y113900D02*
G03X134542Y112700I1600J0D01*
G01X134000Y113900D02*
Y116500D01*
X135600Y118100D02*
G03X134000Y116500I0J-1600D01*
G01X151725Y151400D02*
G03X150900Y150000I775J-1400D01*
G01Y152800D02*
G03X151725Y151400I1600J0D01*
G01X150900Y152800D02*
Y155171D01*
X146244Y150514*
X144900Y149958D02*
G03X146244Y150514I0J1900D01*
G01X144900Y149958D02*
X142337D01*
X140820Y149257D02*
G03X142337Y149958I0J1991D01*
G01X140820Y149257D02*
X136096D01*
X134105Y151248D02*
G03X136096Y149257I1991J-0D01*
G01X134105Y151248D02*
Y152468D01*
X134641Y153826D02*
G03X134105Y152468I1455J-1358D01*
G01Y155185D02*
G03X134641Y153826I1991J-0D01*
G01X134105Y155185D02*
Y156405D01*
X134641Y157763D02*
G03X134105Y156405I1455J-1358D01*
G01Y159122D02*
G03X134641Y157763I1991J-0D01*
G01X134105Y159122D02*
Y160342D01*
X134641Y161700D02*
G03X134105Y160342I1455J-1358D01*
G01Y163059D02*
G03X134641Y161700I1991J-0D01*
G01X134105Y163059D02*
Y164279D01*
X134359Y165251D02*
G03X134105Y164279I1737J-972D01*
G01X130500Y167058D02*
G03X134359Y165251I2700J742D01*
G01X130500Y167058D02*
Y152905D01*
X130823Y151819D02*
G03X130500Y152905I-1991J-0D01*
G01X130823Y151819D02*
Y147094D01*
X130600Y146179D02*
G03X130823Y147094I-1768J915D01*
G01X130600Y146179D02*
Y146100D01*
X130583Y145811D02*
G03X130600Y146100I-2383J289D01*
G01X130583Y145811D02*
X130500Y145130D01*
Y140900*
X139548*
X138244Y142204*
X140363Y146996D02*
G03X138244Y142204I-1963J-1996D01*
G01X144157Y146700D02*
G03X140363Y146996I-2057J-1900D01*
G01X144157Y146700D02*
X150900D01*
Y150000*
X178102Y130621D02*
G03X177000Y129100I498J-1521D01*
G01X177126Y131170D02*
G03X178102Y130621I1575J1657D01*
G01X175167Y130573D02*
G03X177126Y131170I384J2254D01*
G01X170806Y127060D02*
G03X175167Y130573I2194J1740D01*
G01X168400Y126465D02*
G03X170806Y127060I600J2735D01*
G01X168400Y126465D02*
Y122100D01*
X177003*
X177000Y122200D02*
G03X177003Y122100I1600J0D01*
G01X177000Y122200D02*
Y124800D01*
X177244Y125650D02*
G03X177000Y124800I1356J-850D01*
G01Y126500D02*
G03X177244Y125650I1600J0D01*
G01X177000Y126500D02*
Y129100D01*
X259200Y158032D02*
Y169389D01*
X256443Y170200D02*
G03X259200Y169389I2057J1900D01*
G01X256443Y170200D02*
X254287D01*
X253844Y169756*
X252500Y169200D02*
G03X253844Y169756I0J1900D01*
G01X252500Y169200D02*
X251521D01*
Y169192D02*
G03Y169200I-1990J0D01*
G01Y169192D02*
Y168208D01*
X249531Y166217D02*
G03X251521Y168208I-0J1991D01*
G01X249531Y166217D02*
X245397D01*
X243990Y166800D02*
G03X245397Y166217I1407J1408D01*
G01X243990Y166800D02*
X242190D01*
X241342Y166600D02*
G03X242190Y166800I-0J1900D01*
G01X241342Y166600D02*
X240687D01*
X243406Y163881*
Y164192*
X245397Y166183D02*
G03X243406Y164192I-0J-1991D01*
G01X245397Y166183D02*
X249531D01*
X251521Y164192D02*
G03X249531Y166183I-1990J0D01*
G01X251521Y164192D02*
Y163904D01*
X252665Y162761*
X253221Y161417D02*
G03X252665Y162761I-1900J0D01*
G01X253221Y161417D02*
Y157466D01*
X252665Y156123D02*
G03X253221Y157466I-1344J1343D01*
G01X252665Y156123D02*
X251499Y154956D01*
X251403Y154867D02*
G03X251499Y154956I-1248J1433D01*
G01X251521Y154192D02*
G03X251403Y154867I-1990J0D01*
G01X251521Y154192D02*
Y153208D01*
X249531Y151217D02*
G03X251521Y153208I-0J1991D01*
G01X249531Y151217D02*
X245397D01*
X243406Y153208D02*
G03X245397Y151217I1991J-0D01*
G01X243406Y153208D02*
Y154192D01*
X243524Y154867D02*
G03X243406Y154192I1873J-675D01*
G01X243429Y154956D02*
G03X243524Y154867I1344J1344D01*
G01X243429Y154956D02*
X240371Y158015D01*
X239814Y159358D02*
G03X240371Y158015I1900J0D01*
G01X239814Y159358D02*
Y159695D01*
X236409Y163100*
X227503*
X227296Y163111D02*
G03X227503Y163100I207J1889D01*
G01X227300Y163000D02*
G03X227296Y163111I-1700J0D01*
G01X227300Y163000D02*
Y160094D01*
X228794Y158600*
X230800*
X232400Y157000D02*
G03X230800Y158600I-1600J0D01*
G01X232400Y157000D02*
Y154400D01*
X236900*
X238800Y152500D02*
G03X236900Y154400I-1900J0D01*
G01X238800Y152500D02*
Y148300D01*
X243406*
Y149192*
X245397Y151183D02*
G03X243406Y149192I-0J-1991D01*
G01X245397Y151183D02*
X249531D01*
X251290Y150122D02*
G03X249531Y151183I-1759J-930D01*
G01X251290Y150122D02*
X259200Y158032D01*
X286456Y120500D02*
G03X286456I-7356J0D01*
G01X257448Y112900D02*
G03X257620Y116700I4644J1694D01*
G01X257448Y112900D02*
X253000D01*
X251656Y113456D02*
G03X253000Y112900I1344J1344D01*
G01X251656Y113456D02*
X242213Y122900D01*
X240856Y123456D02*
G03X242213Y122900I1344J1344D01*
G01X240856Y123456D02*
X240111Y124202D01*
X242769Y127413D02*
G03X240111Y124202I-2769J-413D01*
G01X243544Y126944D02*
G03X242769Y127413I-1344J-1344D01*
G01X243544Y126944D02*
X253787Y116700D01*
X257620*
X267035Y126406D02*
G03X267035I-4943J0D01*
G01X271994Y149192D02*
Y148208D01*
X270003Y146217D02*
G03X271994Y148208I0J1991D01*
G01X270003Y146217D02*
X265869D01*
X263879Y148208D02*
G03X265869Y146217I1990J-0D01*
G01X263879Y148208D02*
Y149192D01*
X265869Y151183D02*
G03X263879Y149192I0J-1991D01*
G01X265869Y151183D02*
X270003D01*
X271994Y149192D02*
G03X270003Y151183I-1991J0D01*
G01X251521Y179192D02*
Y178208D01*
X249531Y176217D02*
G03X251521Y178208I-0J1991D01*
G01X249531Y176217D02*
X245397D01*
X243406Y178208D02*
G03X245397Y176217I1991J-0D01*
G01X243406Y178208D02*
Y179192D01*
X245397Y181183D02*
G03X243406Y179192I-0J-1991D01*
G01X245397Y181183D02*
X249531D01*
X251521Y179192D02*
G03X249531Y181183I-1990J0D01*
G01X231735Y152099D02*
X236900D01*
X232350Y151199D02*
X236900D01*
X232400Y150299D02*
X236900D01*
X232400Y149399D02*
X236900D01*
X232400Y148499D02*
X236900D01*
X232400Y147599D02*
X236900D01*
X232238Y146699D02*
X236900D01*
X213675Y145799D02*
X236900D01*
X213651Y144899D02*
X236900D01*
X213946Y143999D02*
X236900D01*
X213864Y143099D02*
X236900D01*
X213350Y142199D02*
X236492D01*
X206900Y141299D02*
X235592D01*
X206900Y140399D02*
X234692D01*
X206900Y139499D02*
X233792D01*
X206900Y138599D02*
X232892D01*
X226062Y137699D02*
X231992D01*
X227303Y136799D02*
X231092D01*
X228203Y135899D02*
X230192D01*
X229103Y134999D02*
X229292D01*
X213950Y146699D02*
X226762D01*
X206900Y137699D02*
X223938D01*
X206900Y132299D02*
X223600D01*
X206900Y131399D02*
X223269D01*
X206900Y133199D02*
X222727D01*
X206900Y136799D02*
X222725D01*
X206900Y130499D02*
X222360D01*
X206900Y134099D02*
X222244D01*
X206900Y135899D02*
X222243D01*
X206900Y134999D02*
X222100D01*
X211043Y129599D02*
X221450D01*
X212226Y128699D02*
X220540D01*
X213850Y147599D02*
X219826D01*
X212684Y127799D02*
X219631D01*
X213351Y148499D02*
X219503D01*
X213650Y151199D02*
X219500D01*
X213946Y150299D02*
X219500D01*
X213864Y149399D02*
X219500D01*
X217137Y152099D02*
X219136D01*
X212798Y126899D02*
X218721D01*
X212615Y125999D02*
X217812D01*
X212056Y125099D02*
X216902D01*
X206900Y124199D02*
X215993D01*
X213676Y152099D02*
X215663D01*
X206900Y123299D02*
X215083D01*
X200464Y122399D02*
X214173D01*
X199540Y121499D02*
X213264D01*
X190500Y120599D02*
X212354D01*
X164200Y119699D02*
X211445D01*
X164200Y118799D02*
X210535D01*
X164200Y117899D02*
X209626D01*
X207324Y129599D02*
X208957D01*
X164200Y116999D02*
X208716D01*
X207248Y125099D02*
X207944D01*
X190500Y121499D02*
X196660D01*
X190500Y122399D02*
X195736D01*
X130300Y122499D02*
X136100D01*
X130300Y121599D02*
X136100D01*
X130300Y120699D02*
X136100D01*
X130300Y119799D02*
X136100D01*
X130219Y118899D02*
X136100D01*
X129472Y117999D02*
X135040D01*
X124659Y117099D02*
X134116D01*
X125462Y113499D02*
X134051D01*
X124963Y116199D02*
X134000D01*
X125195Y115299D02*
X134000D01*
X125361Y114399D02*
X134000D01*
X125500Y112599D02*
X133300D01*
X125475Y111699D02*
X133300D01*
X125388Y110799D02*
X133300D01*
X125237Y109899D02*
X133300D01*
X125020Y108999D02*
X133300D01*
X124732Y108099D02*
X133300D01*
X124370Y107199D02*
X133300D01*
X124000Y106299D02*
X133300D01*
X124000Y105399D02*
X133300D01*
X124000Y104499D02*
X133300D01*
X124000Y103599D02*
X133300D01*
X124000Y102699D02*
X133300D01*
X124280Y117999D02*
X125328D01*
X124000Y118899D02*
X124581D01*
X124000Y122499D02*
X124500D01*
X124000Y121599D02*
X124500D01*
X124000Y120699D02*
X124500D01*
X124000Y119799D02*
X124500D01*
X166714Y175199D02*
X203100D01*
X166509Y174299D02*
X203100D01*
X166309Y173399D02*
X203100D01*
X166680Y172499D02*
X203100D01*
X166660Y171599D02*
X203100D01*
X166236Y170699D02*
X203100D01*
X166551Y169799D02*
X203100D01*
X166714Y168899D02*
X203100D01*
X166508Y167999D02*
X203100D01*
X166310Y167099D02*
X203100D01*
X166680Y166199D02*
X203100D01*
X166660Y165299D02*
X203100D01*
X166236Y164399D02*
X203100D01*
X166551Y163499D02*
X203100D01*
X166714Y162599D02*
X203100D01*
X166508Y161699D02*
X203100D01*
X166310Y160799D02*
X203100D01*
X166680Y159899D02*
X203100D01*
X166659Y158999D02*
X203100D01*
X166235Y158099D02*
X203100D01*
X166552Y157199D02*
X203100D01*
X166714Y156299D02*
X203100D01*
X166507Y155399D02*
X203100D01*
X166311Y154499D02*
X203100D01*
X166680Y153599D02*
X203100D01*
X166659Y152699D02*
X203100D01*
X166234Y151799D02*
X203100D01*
X166552Y150899D02*
X203100D01*
X166714Y149999D02*
X203100D01*
X166507Y149099D02*
X203100D01*
X166311Y148199D02*
X203100D01*
X166680Y147299D02*
X203100D01*
X166659Y146399D02*
X203100D01*
X166234Y145499D02*
X203100D01*
X166552Y144599D02*
X203100D01*
X166714Y143699D02*
X203100D01*
X167668Y142799D02*
X203100D01*
X166551Y176099D02*
X195797D01*
X166200Y176999D02*
X194834D01*
X264720Y186199D02*
X270800D01*
X264800Y185299D02*
X270800D01*
X264800Y184399D02*
X270800D01*
X264800Y183499D02*
X270800D01*
X264719Y182599D02*
X270800D01*
X263972Y181699D02*
X270800D01*
X270567Y176299D02*
X270800D01*
X260400D02*
X265306D01*
X260400Y180799D02*
X264694D01*
X260400Y175399D02*
X264286D01*
X260400Y177199D02*
X264154D01*
X260400Y179899D02*
X264008D01*
X261235Y172699D02*
X263945D01*
X260400Y174499D02*
X263902D01*
X260400Y178099D02*
X263882D01*
X260400Y178999D02*
X263879D01*
X260865Y173599D02*
X263879D01*
X144300Y139199D02*
X166500D01*
X135993Y138299D02*
X166500D01*
X135774Y137399D02*
X166500D01*
X135158Y136499D02*
X166500D01*
X123800Y135599D02*
X166500D01*
X123800Y134699D02*
X166500D01*
X123800Y133799D02*
X166500D01*
X123800Y132899D02*
X166500D01*
X123800Y131999D02*
X166500D01*
X123800Y131099D02*
X166500D01*
X130300Y127499D02*
X166500D01*
X130300Y126599D02*
X166500D01*
X136471Y125699D02*
X166500D01*
X150900Y124799D02*
X166500D01*
X150900Y123899D02*
X166500D01*
X150900Y122999D02*
X166500D01*
X150900Y122099D02*
X166500D01*
X150900Y121199D02*
X166500D01*
X150900Y120299D02*
X166500D01*
X150900Y119399D02*
X166500D01*
X150900Y118499D02*
X166500D01*
X150900Y117599D02*
X166500D01*
X150900Y116699D02*
X166500D01*
X129760Y130199D02*
X166384D01*
X130300Y128399D02*
X166317D01*
X130272Y129299D02*
X166202D01*
X144300Y140099D02*
X165596D01*
X145086Y140999D02*
X164527D01*
X150900Y115799D02*
X152947D01*
X150900Y114899D02*
X151832D01*
X138016Y124799D02*
X142900D01*
X138297Y123899D02*
X142900D01*
X138300Y122999D02*
X142900D01*
X138300Y122099D02*
X142900D01*
X138300Y121199D02*
X142900D01*
X138300Y120299D02*
X142900D01*
X138300Y119399D02*
X142900D01*
X123800Y136499D02*
X131242D01*
X123800Y137399D02*
X130626D01*
X123800Y138299D02*
X130407D01*
X123800Y130199D02*
X125040D01*
X123800Y129299D02*
X124528D01*
X123800Y128399D02*
X124500D01*
X123800Y127499D02*
X124500D01*
X123800Y126599D02*
X124500D01*
X123800Y125699D02*
X123929D01*
X251521Y168899D02*
X259200D01*
X251510Y167999D02*
X259200D01*
X251184Y167099D02*
X259200D01*
X241088Y166199D02*
X259200D01*
X251185Y165299D02*
X259200D01*
X251511Y164399D02*
X259200D01*
X251927Y163499D02*
X259200D01*
X252809Y162599D02*
X259200D01*
X253200Y161699D02*
X259200D01*
X253221Y160799D02*
X259200D01*
X253221Y159899D02*
X259200D01*
X253221Y158999D02*
X259200D01*
X253221Y158099D02*
X259200D01*
X253202Y157199D02*
X258367D01*
X252820Y156299D02*
X257467D01*
X253886Y169799D02*
X256905D01*
X251941Y155399D02*
X256567D01*
X251498Y154499D02*
X255667D01*
X251521Y153599D02*
X254767D01*
X251455Y152699D02*
X253867D01*
X250937Y151799D02*
X252967D01*
X250555Y150899D02*
X252067D01*
X238800D02*
X244372D01*
X238800Y151799D02*
X243991D01*
X241988Y165299D02*
X243742D01*
X238800Y149999D02*
X243577D01*
X238790Y152699D02*
X243473D01*
X232400Y154499D02*
X243430D01*
X242888Y164399D02*
X243417D01*
X238450Y153599D02*
X243406D01*
X238800Y149099D02*
X243406D01*
X232400Y155399D02*
X242987D01*
X232400Y156299D02*
X242087D01*
X232388Y157199D02*
X241187D01*
X231963Y158099D02*
X240292D01*
X228395Y158999D02*
X239849D01*
X227495Y159899D02*
X239610D01*
X227300Y160799D02*
X238710D01*
X227300Y161699D02*
X237810D01*
X227300Y162599D02*
X236910D01*
X175426Y130199D02*
X177437D01*
X168400Y125699D02*
X177215D01*
X177047Y131099D02*
X177205D01*
X175755Y129299D02*
X177012D01*
X175771Y128399D02*
X177000D01*
X175479Y127499D02*
X177000D01*
X174730Y126599D02*
X177000D01*
X168400Y124799D02*
X177000D01*
X168400Y123899D02*
X177000D01*
X168400Y122999D02*
X177000D01*
X170036Y126599D02*
X171270D01*
X147528Y151799D02*
X151252D01*
X146628Y150899D02*
X151176D01*
X148428Y152699D02*
X150903D01*
X150228Y154499D02*
X150900D01*
X149328Y153599D02*
X150900D01*
X145292Y149999D02*
X150900D01*
X130823Y149099D02*
X150900D01*
X130823Y148199D02*
X150900D01*
X143364Y147299D02*
X150900D01*
X139999D02*
X140836D01*
X130500Y140999D02*
X139450D01*
X130500Y141899D02*
X138550D01*
X130823Y147299D02*
X136801D01*
X130500Y142799D02*
X136670D01*
X130697Y146399D02*
X135974D01*
X130500Y143699D02*
X135921D01*
X130545Y145499D02*
X135645D01*
X130500Y144599D02*
X135629D01*
X130500Y161699D02*
X134639D01*
X130823Y149999D02*
X134546D01*
X130500Y153599D02*
X134458D01*
X130500Y158099D02*
X134388D01*
X130500Y157199D02*
X134271D01*
X130500Y154499D02*
X134227D01*
X130500Y162599D02*
X134159D01*
X130500Y160799D02*
X134159D01*
X130823Y150899D02*
X134136D01*
X130618Y152699D02*
X134119D01*
X130500Y158999D02*
X134109D01*
X130500Y164399D02*
X134109D01*
X130500Y163499D02*
X134105D01*
X130500Y159899D02*
X134105D01*
X130500Y156299D02*
X134105D01*
X130500Y155399D02*
X134105D01*
X130823Y151799D02*
X134105D01*
X130500Y165299D02*
X131942D01*
X130500Y166199D02*
X130903D01*
X130500Y118499D02*
X136143D01*
X130500Y122099D02*
X136100D01*
X130500Y121199D02*
X136100D01*
X130500Y120299D02*
X136100D01*
X130500Y119399D02*
X136100D01*
X130500Y107699D02*
X134540D01*
X130500Y117599D02*
X134437D01*
X130500Y113099D02*
X134215D01*
X130500Y103199D02*
X134162D01*
X130500Y112199D02*
X134161D01*
X130500Y108599D02*
X134029D01*
X130500Y106799D02*
X134028D01*
X130500Y116699D02*
X134012D01*
X130500Y115799D02*
X134000D01*
X130500Y114899D02*
X134000D01*
X130500Y113999D02*
X134000D01*
X130500Y111299D02*
X134000D01*
X130500Y110399D02*
X134000D01*
X130500Y109499D02*
X134000D01*
X130500Y105899D02*
X134000D01*
X130500Y104999D02*
X134000D01*
X130500Y104099D02*
X134000D01*
X143333Y196799D02*
X149748D01*
X144233Y195899D02*
X148745D01*
X145133Y194999D02*
X148165D01*
X146033Y194099D02*
X147837D01*
X146933Y193199D02*
X147707D01*
X136200Y187799D02*
X145544D01*
X135922Y186899D02*
X145440D01*
X142727Y180599D02*
X145223D01*
X136200Y188699D02*
X144644D01*
X130666Y185999D02*
X144516D01*
X142161Y181499D02*
X144481D01*
X142811Y179699D02*
X144480D01*
X130622Y185099D02*
X144400D01*
X130821Y184199D02*
X144400D01*
X130823Y183299D02*
X144400D01*
X130823Y182399D02*
X144400D01*
X142811Y178799D02*
X144400D01*
X136200Y189599D02*
X143744D01*
X142592Y177899D02*
X142966D01*
X136197Y190499D02*
X142844D01*
X136149Y191399D02*
X141944D01*
X136200Y192299D02*
X141044D01*
X136200Y193199D02*
X140144D01*
X130823Y181499D02*
X134756D01*
X130500Y173399D02*
X134543D01*
X130500Y176999D02*
X134325D01*
X130500Y177899D02*
X134325D01*
X130823Y180599D02*
X134189D01*
X130500Y174299D02*
X134189D01*
X130500Y172499D02*
X134136D01*
X130500Y170699D02*
X134119D01*
X130500Y176099D02*
X134106D01*
X130734Y178799D02*
X134106D01*
X130823Y179699D02*
X134105D01*
X130500Y175199D02*
X134105D01*
X130500Y171599D02*
X134105D01*
X130500Y169799D02*
X131239D01*
X130500Y168899D02*
X130625D01*
X159252Y180599D02*
X159478D01*
X159400Y179699D02*
X159478D01*
X159251Y178799D02*
X159478D01*
X158744Y177899D02*
X159478D01*
X158746Y181499D02*
X159192D01*
X157346Y182399D02*
X158428D01*
X153734Y188699D02*
X158226D01*
X152333Y187799D02*
X158226D01*
X154160Y186899D02*
X158226D01*
X155084Y185999D02*
X158226D01*
X155200Y185099D02*
X158226D01*
X155200Y184199D02*
X158226D01*
X155200Y183299D02*
X158226D01*
X155274Y189599D02*
X157104D01*
X156052Y190499D02*
X156326D01*
X155200Y182399D02*
X155854D01*
X170504Y196799D02*
X223415D01*
X171507Y195899D02*
X222577D01*
X172087Y194999D02*
X221881D01*
X186163Y194099D02*
X221299D01*
X186588Y193199D02*
X220816D01*
X186600Y192299D02*
X220418D01*
X220132Y183299D02*
X220198D01*
X186600Y191399D02*
X220098D01*
X219232Y184199D02*
X219926D01*
X205768Y190499D02*
X219851D01*
X214956Y185099D02*
X219724D01*
X213943Y189599D02*
X219671D01*
X215515Y185999D02*
X219587D01*
X215126Y188699D02*
X219555D01*
X215698Y186899D02*
X219514D01*
X215584Y187799D02*
X219503D01*
X206688Y189599D02*
X211857D01*
X186600Y190499D02*
X190972D01*
X186385Y189599D02*
X190052D01*
X180901Y188699D02*
X189477D01*
X179963Y194099D02*
X180437D01*
X171152Y188699D02*
X176501D01*
X172415Y194099D02*
X174237D01*
X171152Y189599D02*
X174015D01*
X172545Y193199D02*
X173812D01*
X172495Y192299D02*
X173800D01*
X172259Y191399D02*
X173800D01*
X171800Y190499D02*
X173800D01*
X241585Y196799D02*
X295000D01*
X242423Y195899D02*
X295000D01*
X243119Y194999D02*
X295000D01*
X286774Y194099D02*
X295000D01*
X288026Y193199D02*
X295000D01*
X288697Y192299D02*
X295000D01*
X289076Y191399D02*
X295000D01*
X289240Y190499D02*
X295000D01*
X289215Y189599D02*
X295000D01*
X288997Y188699D02*
X295000D01*
X288550Y187799D02*
X295000D01*
X287771Y186899D02*
X295000D01*
X287189Y185999D02*
X295000D01*
X288230Y185099D02*
X295000D01*
X288815Y184199D02*
X295000D01*
X289136Y183299D02*
X295000D01*
X289252Y182399D02*
X295000D01*
X289179Y181499D02*
X295000D01*
X288908Y180599D02*
X295000D01*
X288393Y179699D02*
X295000D01*
X287491Y178799D02*
X295000D01*
X287519Y177899D02*
X295000D01*
X288408Y176999D02*
X295000D01*
X288917Y176099D02*
X295000D01*
X289183Y175199D02*
X295000D01*
X289251Y174299D02*
X295000D01*
X289131Y173399D02*
X295000D01*
X288805Y172499D02*
X295000D01*
X288213Y171599D02*
X295000D01*
X287155Y170699D02*
X295000D01*
X287795Y169799D02*
X295000D01*
X288563Y168899D02*
X295000D01*
X289004Y167999D02*
X295000D01*
X289218Y167099D02*
X295000D01*
X289239Y166199D02*
X295000D01*
X289070Y165299D02*
X295000D01*
X288685Y164399D02*
X295000D01*
X288006Y163499D02*
X295000D01*
X286782Y162599D02*
X295000D01*
X288030Y161699D02*
X295000D01*
X288699Y160799D02*
X295000D01*
X289077Y159899D02*
X295000D01*
X289241Y158999D02*
X295000D01*
X289215Y158099D02*
X295000D01*
X288995Y157199D02*
X295000D01*
X288548Y156299D02*
X295000D01*
X287767Y155399D02*
X295000D01*
X287195Y154499D02*
X295000D01*
X288234Y153599D02*
X295000D01*
X288817Y152699D02*
X295000D01*
X289137Y151799D02*
X295000D01*
X289252Y150899D02*
X295000D01*
X289178Y149999D02*
X295000D01*
X288907Y149099D02*
X295000D01*
X288390Y148199D02*
X295000D01*
X287486Y147299D02*
X295000D01*
X270833Y146399D02*
X295000D01*
X253455Y145499D02*
X295000D01*
X252555Y144599D02*
X295000D01*
X251418Y143699D02*
X295000D01*
X238800Y142799D02*
X295000D01*
X238663Y141899D02*
X295000D01*
X237979Y140999D02*
X295000D01*
X237079Y140099D02*
X295000D01*
X236179Y139199D02*
X295000D01*
X235279Y138299D02*
X295000D01*
X234379Y137399D02*
X295000D01*
X233479Y136499D02*
X295000D01*
X232579Y135599D02*
X295000D01*
X231679Y134699D02*
X295000D01*
X230779Y133799D02*
X295000D01*
X230757Y132899D02*
X295000D01*
X230900Y131999D02*
X295000D01*
X263645Y131099D02*
X295000D01*
X265262Y130199D02*
X295000D01*
X266100Y129299D02*
X295000D01*
X266616Y128399D02*
X295000D01*
X281363Y127499D02*
X295000D01*
X283212Y126599D02*
X295000D01*
X284304Y125699D02*
X295000D01*
X285069Y124799D02*
X295000D01*
X285623Y123899D02*
X295000D01*
X286018Y122999D02*
X295000D01*
X286280Y122099D02*
X295000D01*
X286422Y121199D02*
X295000D01*
X286453Y120299D02*
X295000D01*
X286373Y119399D02*
X295000D01*
X286178Y118499D02*
X295000D01*
X285859Y117599D02*
X295000D01*
X285397Y116699D02*
X295000D01*
X284757Y115799D02*
X295000D01*
X283868Y114899D02*
X295000D01*
X282540Y113999D02*
X295000D01*
X266804Y113099D02*
X295000D01*
X266416Y112199D02*
X295000D01*
X265776Y111299D02*
X295000D01*
X264706Y110399D02*
X295000D01*
X245149Y109499D02*
X295000D01*
X244901Y108599D02*
X295000D01*
X244581Y107699D02*
X295000D01*
X244183Y106799D02*
X295000D01*
X243699Y105899D02*
X295000D01*
X243117Y104999D02*
X295000D01*
X242421Y104099D02*
X295000D01*
X241582Y103199D02*
X295000D01*
X243701Y194099D02*
X283026D01*
X272700Y185999D02*
X282611D01*
X271774Y147299D02*
X282314D01*
X272658Y186899D02*
X282029D01*
X244184Y193199D02*
X281774D01*
X272700Y185099D02*
X281570D01*
X271994Y148199D02*
X281410D01*
X272187Y187799D02*
X281250D01*
X244582Y192299D02*
X281103D01*
X272700Y184199D02*
X280985D01*
X271994Y149099D02*
X280893D01*
X245445Y188699D02*
X280803D01*
X278217Y157199D02*
X280738D01*
X244902Y191399D02*
X280724D01*
X272700Y183299D02*
X280664D01*
X271409Y151799D02*
X280663D01*
X271823Y149999D02*
X280622D01*
X272700Y181499D02*
X280621D01*
X279138Y158099D02*
X280585D01*
X245329Y189599D02*
X280585D01*
X245149Y190499D02*
X280560D01*
X280038Y158999D02*
X280559D01*
X272700Y182399D02*
X280548D01*
X271028Y150899D02*
X280548D01*
X272700Y180599D02*
X280516D01*
X270567Y156299D02*
X279838D01*
X272700Y179699D02*
X279616D01*
X272700Y178799D02*
X278716D01*
X272700Y177899D02*
X277816D01*
X272700Y176999D02*
X276916D01*
X266913Y127499D02*
X276837D01*
X272700Y176099D02*
X276016D01*
X266999Y113999D02*
X275660D01*
X272700Y175199D02*
X275468D01*
X272700Y174299D02*
X275019D01*
X267032Y126599D02*
X274988D01*
X267026Y114899D02*
X274332D01*
X272700Y173399D02*
X274119D01*
X266985Y125699D02*
X273896D01*
X266887Y115799D02*
X273443D01*
X272700Y172499D02*
X273219D01*
X266767Y124799D02*
X273131D01*
X266565Y116699D02*
X272803D01*
X266353Y123899D02*
X272577D01*
X266018Y117599D02*
X272341D01*
X265674Y122999D02*
X272182D01*
X265124Y118499D02*
X272022D01*
X264519Y122099D02*
X271920D01*
X263257Y119399D02*
X271827D01*
X249288Y121199D02*
X271778D01*
X250188Y120299D02*
X271747D01*
X263883Y156299D02*
X265306D01*
X254355Y146399D02*
X265039D01*
X258855Y150899D02*
X264845D01*
X259755Y151799D02*
X264463D01*
X263353Y155399D02*
X264286D01*
X264000Y157199D02*
X264154D01*
X255255Y147299D02*
X264098D01*
X257955Y149999D02*
X264049D01*
X260655Y152699D02*
X263945D01*
X262455Y154499D02*
X263902D01*
X256155Y148199D02*
X263879D01*
X261555Y153599D02*
X263879D01*
X257055Y149099D02*
X263879D01*
X251088Y119399D02*
X260928D01*
X230756Y131099D02*
X260540D01*
X248388Y122099D02*
X259666D01*
X245329Y110399D02*
X259478D01*
X251988Y118499D02*
X259060D01*
X245497Y187799D02*
X259013D01*
X230273Y130199D02*
X258922D01*
X258060Y186899D02*
X258542D01*
X247488Y122999D02*
X258510D01*
X244032Y181499D02*
X258500D01*
X250939Y180599D02*
X258500D01*
X251456Y179699D02*
X258500D01*
X251521Y178799D02*
X258500D01*
X251497Y177899D02*
X258500D01*
X251112Y176999D02*
X258500D01*
X250103Y176099D02*
X258500D01*
X251248Y175199D02*
X258500D01*
X245444Y111299D02*
X258408D01*
X252888Y117599D02*
X258166D01*
X241599Y129299D02*
X258084D01*
X246588Y123899D02*
X257832D01*
X245497Y112199D02*
X257768D01*
X242426Y128399D02*
X257568D01*
X245688Y124799D02*
X257417D01*
X242755Y127499D02*
X257271D01*
X244788Y125699D02*
X257200D01*
X243888Y126599D02*
X257153D01*
X251518Y174299D02*
X256766D01*
X245486Y186899D02*
X252540D01*
X244457Y182399D02*
X252162D01*
X245486Y113099D02*
X252154D01*
X251521Y173399D02*
X252112D01*
X245413Y185999D02*
X252028D01*
X245276Y185099D02*
X252000D01*
X245074Y184199D02*
X252000D01*
X244802Y183299D02*
X252000D01*
X245413Y113999D02*
X251114D01*
X245277Y114899D02*
X250214D01*
X245075Y115799D02*
X249314D01*
X244803Y116699D02*
X248414D01*
X244458Y117599D02*
X247514D01*
X244033Y118499D02*
X246614D01*
X243519Y119399D02*
X245714D01*
X238746Y176099D02*
X244825D01*
X242901Y120299D02*
X244814D01*
X243517Y180599D02*
X243988D01*
X242161Y121199D02*
X243914D01*
X240163Y176999D02*
X243816D01*
X242899Y179699D02*
X243472D01*
X241264Y177899D02*
X243430D01*
X242159Y178799D02*
X243406D01*
X241267Y122099D02*
X243014D01*
X240167Y122999D02*
X241596D01*
X238751Y123899D02*
X240414D01*
X229393Y129299D02*
X238401D01*
X236712Y124799D02*
X238270D01*
X228483Y128399D02*
X237574D01*
X225755Y125699D02*
X237521D01*
X227574Y127499D02*
X237245D01*
X226664Y126599D02*
X237229D01*
X224845Y124799D02*
X228288D01*
X223936Y123899D02*
X226249D01*
X223026Y122999D02*
X224833D01*
X222116Y122099D02*
X223733D01*
X146951Y103199D02*
X223418D01*
X221207Y121199D02*
X222839D01*
X201494Y104099D02*
X222579D01*
X220297Y120299D02*
X222099D01*
X202433Y104999D02*
X221883D01*
X219388Y119399D02*
X221481D01*
X202981Y105899D02*
X221301D01*
X218478Y118499D02*
X220967D01*
X203286Y106799D02*
X220817D01*
X217569Y117599D02*
X220542D01*
X203397Y107699D02*
X220419D01*
X216659Y116699D02*
X220197D01*
X203327Y108599D02*
X220099D01*
X215749Y115799D02*
X219925D01*
X203069Y109499D02*
X219851D01*
X214840Y114899D02*
X219723D01*
X209750Y110399D02*
X219671D01*
X213930Y113999D02*
X219587D01*
X211202Y111299D02*
X219556D01*
X213021Y113099D02*
X219514D01*
X212111Y112199D02*
X219503D01*
X193620Y104099D02*
X196202D01*
X194559Y104999D02*
X195263D01*
X185746Y104099D02*
X188328D01*
X186685Y104999D02*
X187389D01*
X149176Y104099D02*
X180454D01*
X150134Y104999D02*
X179515D01*
X151034Y105899D02*
X178967D01*
X154634Y109499D02*
X178879D01*
X151934Y106799D02*
X178662D01*
X153734Y108599D02*
X178621D01*
X152834Y107699D02*
X178552D01*
X130300Y127300D02*
X128900D01*
X127400Y130600D02*
Y129200D01*
X124500Y127300D02*
X125900D01*
X229500Y145800D02*
Y147200D01*
X232400Y149100D02*
X231000D01*
X130300Y121100D02*
X128900D01*
X124500D02*
X125900D01*
X127400Y117800D02*
Y119200D01*
X134000Y115200D02*
X135400D01*
X267936Y176183D02*
Y174783D01*
X263879Y173700D02*
X265279D01*
X261500Y181500D02*
Y182900D01*
X264800Y184400D02*
X263400D01*
X267936Y176217D02*
Y177617D01*
Y181183D02*
Y179783D01*
X263879Y178700D02*
X265279D01*
X132900Y186200D02*
Y187600D01*
X136200Y189100D02*
X134800D01*
X255300Y187300D02*
Y185900D01*
X252000Y184400D02*
X253400D01*
X255300Y181500D02*
Y182900D01*
X247464Y151183D02*
Y149783D01*
X243406Y148700D02*
X244806D01*
X247464Y151217D02*
Y152617D01*
X251521Y153700D02*
X250121D01*
X243406D02*
X244806D01*
X177000Y123500D02*
X178400D01*
X150900Y154500D02*
X152300D01*
X177000Y127800D02*
X178400D01*
X144400Y183700D02*
X145800D01*
X136200Y193100D02*
X134800D01*
X183300Y194600D02*
Y193200D01*
Y188800D02*
Y190200D01*
X186600Y191700D02*
X185200D01*
X181850Y188459D02*
Y187059D01*
X100000Y100000D02*
X297500D01*
Y200000*
X100000*
Y100000*
G54D23*
X137300Y105200D02*
X137700D01*
Y110200*
X143500Y105200D02*
X143900D01*
X147500Y106465*
X154235Y113200*
X209000*
X228000Y132000*
X137300Y110200D02*
X137700D01*
X143500D02*
X143100D01*
Y115200*
X143500*
X146311Y118011*
Y121300*
X225000Y135000D02*
X228000Y132000D01*
G54D24*
X180300Y126000D02*
Y127797D01*
X180400Y127897*
X176000Y126000D02*
X180300D01*
Y123500*
X126900Y142300D02*
X127739D01*
X128200Y146100*
Y149434*
X128222Y149456*
X235700Y145900D02*
X250462D01*
X261600Y157038*
X216400Y154800D02*
X219800D01*
X223400Y151300*
X208622Y165799D02*
X215101D01*
X217300Y163600*
X216000Y159000D02*
X217300D01*
Y163600*
X223400Y160300D02*
X223700D01*
X228700Y155300*
X229500*
X138458Y175480D02*
X143280D01*
X147300Y176759*
Y177500*
X152300D02*
X154400D01*
X156600Y179700*
X202500Y168900D02*
X202549Y168949D01*
X208622*
X214000*
X214441Y169390*
X217300*
X218310*
X223400Y164300*
Y160300*
X261500Y177100D02*
X261600Y177000D01*
Y157038*
X128222Y181748D02*
Y186322D01*
X128300Y186400*
X152300Y183700D02*
X152469D01*
X126700Y189100D02*
X128300Y187500D01*
Y186400*
X126700Y189100D02*
Y193100D01*
X129900Y196300*
X140437*
X152469Y184269*
Y183700*
G54D25*
X180400Y127897D02*
X181850Y129300D01*
Y135878*
X180300Y127800D02*
X180400Y127897D01*
X186500Y123500D02*
Y127800D01*
X191700*
X192500Y127000*
X185000Y135878D02*
Y129600D01*
X186500Y128100*
Y127800*
X133100Y142300D02*
X133200Y142200D01*
Y138500*
X153800Y148300D02*
X155500Y150000D01*
X161327*
X161378Y150051*
X150300Y152900D02*
X150550Y152650D01*
X151101Y153201*
X161378*
X153800Y154500D02*
X155100Y153200D01*
X161377*
X161378Y153201*
Y150051D02*
X168649D01*
X178701Y175699D02*
Y183122D01*
X217300Y169390D02*
Y169800D01*
X181850Y183122D02*
Y190250D01*
X183300Y191700*
X177100D02*
X178701Y190099D01*
Y183122*
X183300Y191700D02*
X187200D01*
Y191500*
G54D26*
X125500Y104000D03*
X132000D03*
X177000D03*
X208000D03*
X215000D03*
X247000D03*
X255000D03*
X263000D03*
X127000Y116000D03*
X129000Y111000D03*
X132000Y116000D03*
X211000Y110000D03*
X251000D03*
X271000Y114000D03*
X292000Y116000D03*
X176000Y126000D03*
X198100Y123900D03*
X210000Y127000D03*
X240000D03*
X251000D03*
X292000Y124000D03*
X169000Y129200D03*
X173000Y128800D03*
X228000Y132000D03*
X225000Y135000D03*
X276000Y133000D03*
X285000D03*
X292000Y132000D03*
X133200Y138500D03*
X138400Y145000D03*
X142100Y144800D03*
X146000Y140500D03*
X170200Y147600D03*
X276000Y141000D03*
X285000D03*
X292000Y139000D03*
Y147000D03*
X131500Y157500D03*
X150300Y152900D03*
X216400Y154800D03*
X253000Y155000D03*
X276000Y149000D03*
X292000Y155000D03*
X131000Y165000D03*
X133200Y167800D03*
X216000Y159000D03*
X292000Y163000D03*
X131500Y173500D03*
X143700Y171900D03*
X238100Y171100D03*
X258500Y172100D03*
X255600Y169300D03*
X292000Y171000D03*
X140000Y186500D03*
X156600Y179700D03*
X212900Y187000D03*
X292000Y180000D03*
X139100Y192100D03*
X180000Y196000D03*
X188000D03*
X187200Y191500D03*
X195000Y196000D03*
X211000D03*
X209000Y191000D03*
X203000Y196000D03*
X218000D03*
G54D27*
X203398Y107800D02*
X201998D01*
X198848Y103250D02*
Y104650D01*
X280547Y150800D02*
X281947D01*
X284900Y146447D02*
Y147847D01*
X289253Y150800D02*
X287853D01*
X147702Y193000D02*
X149102D01*
X152252Y188450D02*
Y189850D01*
G54D28*
X262092Y131349D02*
Y129949D01*
X257149Y126406D02*
X258549D01*
X262092Y121462D02*
Y122862D01*
X267035Y126406D02*
X265635D01*
G74*
X0Y0D02*
M02*
