*
*
G04 PADS 9.3.1 Build Number: 456998 generated Gerber (RS-274-X) file*
G04 PC Version=2.1*
*
%IN "air_ssi_1101_00_RELEASE"*%
*
%MOIN*%
*
%FSLAX35Y35*%
*
*
*
*
G04 PC Standard Apertures*
*
*
G04 Thermal Relief Aperture macro.*
%AMTER*
1,1,$1,0,0*
1,0,$1-$2,0,0*
21,0,$3,$4,0,0,45*
21,0,$3,$4,0,0,135*
%
*
*
G04 Annular Aperture macro.*
%AMANN*
1,1,$1,0,0*
1,0,$2,0,0*
%
*
*
G04 Odd Aperture macro.*
%AMODD*
1,1,$1,0,0*
1,0,$1-0.005,0,0*
%
*
*
G04 PC Custom Aperture Macros*
*
*
*
*
*
*
G04 PC Aperture Table*
*
%ADD010C,0.001*%
%ADD022C,0.01*%
%ADD032C,0.012*%
%ADD033C,0.014*%
%ADD034C,0.07099*%
%ADD035C,0.158*%
%ADD036C,0.01981*%
%ADD037C,0.06706*%
%ADD038C,0.07887*%
%ADD039C,0.12611*%
%ADD040C,0.01587*%
%ADD041O,0.09068X0.02965*%
%ADD042O,0.02965X0.09068*%
%ADD043R,0.06115X0.02965*%
*
*
*
*
G04 PC Circuitry*
G04 Layer Name air_ssi_1101_00_RELEASE - circuitry*
%LPD*%
*
*
G04 PC Custom Flashes*
G04 Layer Name air_ssi_1101_00_RELEASE - flashes*
%LPD*%
*
*
G04 PC Circuitry*
G04 Layer Name air_ssi_1101_00_RELEASE - circuitry*
%LPD*%
*
G54D10*
G54D22*
G01X141683Y130098D02*
X139128D01*
Y121400*
X141683*
Y130098*
X139500Y121400D02*
Y130098D01*
X140000Y121400D02*
Y130098D01*
X140500Y121400D02*
Y130098D01*
X141000Y121400D02*
Y130098D01*
X141500Y121400D02*
Y130098D01*
X144243Y136613D02*
X143514Y137342D01*
X137297*
X136569Y136613*
Y127444*
X137297Y126715*
X143514*
X144243Y127444*
Y136613*
X137000Y127012D02*
Y137044D01*
X137500Y126715D02*
Y137342D01*
X138000Y126715D02*
Y137342D01*
X138500Y126715D02*
Y137342D01*
X139000Y126715D02*
Y137342D01*
X139500Y126715D02*
Y137342D01*
X140000Y126715D02*
Y137342D01*
X140500Y126715D02*
Y137342D01*
X141000Y126715D02*
Y137342D01*
X141500Y126715D02*
Y137342D01*
X142000Y126715D02*
Y137342D01*
X142500Y126715D02*
Y137342D01*
X143000Y126715D02*
Y137342D01*
X143500Y126715D02*
Y137342D01*
X144000Y127201D02*
Y136855D01*
G54D32*
X128400Y194400D02*
Y191800D01*
X125000*
Y194400*
X128400*
X125000Y192400D02*
X128400D01*
X125000Y193600D02*
X128400D01*
X125200Y191800D02*
Y194400D01*
X126400Y191800D02*
Y194400D01*
X127600Y191800D02*
Y194400D01*
X134600D02*
Y191800D01*
X131200*
Y194400*
X134600*
X131200Y192400D02*
X134600D01*
X131200Y193600D02*
X134600D01*
X131200Y191800D02*
Y194400D01*
X132400Y191800D02*
Y194400D01*
X133600Y191800D02*
Y194400D01*
X128400Y190400D02*
Y187800D01*
X125000*
Y190400*
X128400*
X125000Y188800D02*
X128400D01*
X125000Y190000D02*
X128400D01*
X125200Y187800D02*
Y190400D01*
X126400Y187800D02*
Y190400D01*
X127600Y187800D02*
Y190400D01*
X134600D02*
Y187800D01*
X131200*
Y190400*
X134600*
X131200Y188800D02*
X134600D01*
X131200Y190000D02*
X134600D01*
X131200Y187800D02*
Y190400D01*
X132400Y187800D02*
Y190400D01*
X133600Y187800D02*
Y190400D01*
X146000Y179200D02*
X148600D01*
Y175800*
X146000*
Y179200*
Y176800D02*
X148600D01*
X146000Y178000D02*
X148600D01*
X146000Y179200D02*
X148600D01*
X146800Y175800D02*
Y179200D01*
X148000Y175800D02*
Y179200D01*
X146000Y185400D02*
X148600D01*
Y182000*
X146000*
Y185400*
Y182800D02*
X148600D01*
X146000Y184000D02*
X148600D01*
X146000Y185200D02*
X148600D01*
X146800Y182000D02*
Y185400D01*
X148000Y182000D02*
Y185400D01*
X128600Y143600D02*
Y141000D01*
X125200*
Y143600*
X128600*
X125200Y142000D02*
X128600D01*
X125200Y143200D02*
X128600D01*
X125200Y141000D02*
Y143600D01*
X126400Y141000D02*
Y143600D01*
X127600Y141000D02*
Y143600D01*
X134800D02*
Y141000D01*
X131400*
Y143600*
X134800*
X131400Y142000D02*
X134800D01*
X131400Y143200D02*
X134800D01*
X132400Y141000D02*
Y143600D01*
X133600Y141000D02*
Y143600D01*
X134800Y141000D02*
Y143600D01*
X153600Y182000D02*
X151000D01*
Y185400*
X153600*
Y182000*
X151000Y182800D02*
X153600D01*
X151000Y184000D02*
X153600D01*
X151000Y185200D02*
X153600D01*
X151600Y182000D02*
Y185400D01*
X152800Y182000D02*
Y185400D01*
X153600Y175800D02*
X151000D01*
Y179200*
X153600*
Y175800*
X151000Y176800D02*
X153600D01*
X151000Y178000D02*
X153600D01*
X151000Y179200D02*
X153600D01*
X151600Y175800D02*
Y179200D01*
X152800Y175800D02*
Y179200D01*
X228200Y150800D02*
X230800D01*
Y147400*
X228200*
Y150800*
Y148000D02*
X230800D01*
X228200Y149200D02*
X230800D01*
X228200Y150400D02*
X230800D01*
X228400Y147400D02*
Y150800D01*
X229600Y147400D02*
Y150800D01*
X230800Y147400D02*
Y150800D01*
X228200Y157000D02*
X230800D01*
Y153600*
X228200*
Y157000*
Y154000D02*
X230800D01*
X228200Y155200D02*
X230800D01*
X228200Y156400D02*
X230800D01*
X228400Y153600D02*
Y157000D01*
X229600Y153600D02*
Y157000D01*
X230800Y153600D02*
Y157000D01*
X178800Y193000D02*
Y190400D01*
X175400*
Y193000*
X178800*
X175400Y191200D02*
X178800D01*
X175400Y192400D02*
X178800D01*
X175600Y190400D02*
Y193000D01*
X176800Y190400D02*
Y193000D01*
X178000Y190400D02*
Y193000D01*
X185000D02*
Y190400D01*
X181600*
Y193000*
X185000*
X181600Y191200D02*
X185000D01*
X181600Y192400D02*
X185000D01*
X181600Y190400D02*
Y193000D01*
X182800Y190400D02*
Y193000D01*
X184000Y190400D02*
Y193000D01*
X218600Y168100D02*
X216000D01*
Y171500*
X218600*
Y168100*
X216000Y168400D02*
X218600D01*
X216000Y169600D02*
X218600D01*
X216000Y170800D02*
X218600D01*
X216400Y168100D02*
Y171500D01*
X217600Y168100D02*
Y171500D01*
X218600Y161900D02*
X216000D01*
Y165300*
X218600*
Y161900*
X216000Y162400D02*
X218600D01*
X216000Y163600D02*
X218600D01*
X216000Y164800D02*
X218600D01*
X216400Y161900D02*
Y165300D01*
X217600Y161900D02*
Y165300D01*
X152500Y150000D02*
X155100D01*
Y146600*
X152500*
Y150000*
Y146800D02*
X155100D01*
X152500Y148000D02*
X155100D01*
X152500Y149200D02*
X155100D01*
X152800Y146600D02*
Y150000D01*
X154000Y146600D02*
Y150000D01*
X152500Y156200D02*
X155100D01*
Y152800*
X152500*
Y156200*
Y152800D02*
X155100D01*
X152500Y154000D02*
X155100D01*
X152500Y155200D02*
X155100D01*
X152800Y152800D02*
Y156200D01*
X154000Y152800D02*
Y156200D01*
X184800Y126500D02*
Y129100D01*
X188200*
Y126500*
X184800*
Y127600D02*
X188200D01*
X184800Y128800D02*
X188200D01*
X185200Y126500D02*
Y129100D01*
X186400Y126500D02*
Y129100D01*
X187600Y126500D02*
Y129100D01*
X178600Y126500D02*
Y129100D01*
X182000*
Y126500*
X178600*
Y127600D02*
X182000D01*
X178600Y128800D02*
X182000D01*
X179200Y126500D02*
Y129100D01*
X180400Y126500D02*
Y129100D01*
X181600Y126500D02*
Y129100D01*
X184800Y122200D02*
Y124800D01*
X188200*
Y122200*
X184800*
Y122800D02*
X188200D01*
X184800Y124000D02*
X188200D01*
X185200Y122200D02*
Y124800D01*
X186400Y122200D02*
Y124800D01*
X187600Y122200D02*
Y124800D01*
X178600Y122200D02*
Y124800D01*
X182000*
Y122200*
X178600*
Y122800D02*
X182000D01*
X178600Y124000D02*
X182000D01*
X179200Y122200D02*
Y124800D01*
X180400Y122200D02*
Y124800D01*
X181600Y122200D02*
Y124800D01*
X193800Y125300D02*
X191200D01*
Y128700*
X193800*
Y125300*
X191200Y126400D02*
X193800D01*
X191200Y127600D02*
X193800D01*
X191200Y125300D02*
Y128700D01*
X192400Y125300D02*
Y128700D01*
X193600Y125300D02*
Y128700D01*
X193800Y119100D02*
X191200D01*
Y122500*
X193800*
Y119100*
X191200Y119200D02*
X193800D01*
X191200Y120400D02*
X193800D01*
X191200Y121600D02*
X193800D01*
X191200Y119100D02*
Y122500D01*
X192400Y119100D02*
Y122500D01*
X193600Y119100D02*
Y122500D01*
X128700Y125600D02*
X126100D01*
Y129000*
X128700*
Y125600*
X126100Y126400D02*
X128700D01*
X126100Y127600D02*
X128700D01*
X126100Y128800D02*
X128700D01*
X126400Y125600D02*
Y129000D01*
X127600Y125600D02*
Y129000D01*
X128700Y119400D02*
X126100D01*
Y122800*
X128700*
Y119400*
X126100Y120400D02*
X128700D01*
X126100Y121600D02*
X128700D01*
X126100Y122800D02*
X128700D01*
X126400Y119400D02*
Y122800D01*
X127600Y119400D02*
Y122800D01*
X141800Y113900D02*
Y116500D01*
X145200*
Y113900*
X141800*
Y114400D02*
X145200D01*
X141800Y115600D02*
X145200D01*
X142000Y113900D02*
Y116500D01*
X143200Y113900D02*
Y116500D01*
X144400Y113900D02*
Y116500D01*
X135600Y113900D02*
Y116500D01*
X139000*
Y113900*
X135600*
Y114400D02*
X139000D01*
X135600Y115600D02*
X139000D01*
X136000Y113900D02*
Y116500D01*
X137200Y113900D02*
Y116500D01*
X138400Y113900D02*
Y116500D01*
X141800Y103900D02*
Y106500D01*
X145200*
Y103900*
X141800*
Y104800D02*
X145200D01*
X141800Y106000D02*
X145200D01*
X142000Y103900D02*
Y106500D01*
X143200Y103900D02*
Y106500D01*
X144400Y103900D02*
Y106500D01*
X135600Y103900D02*
Y106500D01*
X139000*
Y103900*
X135600*
Y104800D02*
X139000D01*
X135600Y106000D02*
X139000D01*
X136000Y103900D02*
Y106500D01*
X137200Y103900D02*
Y106500D01*
X138400Y103900D02*
Y106500D01*
X139000Y111500D02*
Y108900D01*
X135600*
Y111500*
X139000*
X135600Y109600D02*
X139000D01*
X135600Y110800D02*
X139000D01*
X136000Y108900D02*
Y111500D01*
X137200Y108900D02*
Y111500D01*
X138400Y108900D02*
Y111500D01*
X145200D02*
Y108900D01*
X141800*
Y111500*
X145200*
X141800Y109600D02*
X145200D01*
X141800Y110800D02*
X145200D01*
X142000Y108900D02*
Y111500D01*
X143200Y108900D02*
Y111500D01*
X144400Y108900D02*
Y111500D01*
X257000Y185700D02*
Y183100D01*
X253600*
Y185700*
X257000*
X253600Y184000D02*
X257000D01*
X253600Y185200D02*
X257000D01*
X253600Y183100D02*
Y185700D01*
X254800Y183100D02*
Y185700D01*
X256000Y183100D02*
Y185700D01*
X263200D02*
Y183100D01*
X259800*
Y185700*
X263200*
X259800Y184000D02*
X263200D01*
X259800Y185200D02*
X263200D01*
X260800Y183100D02*
Y185700D01*
X262000Y183100D02*
Y185700D01*
X263200Y183100D02*
Y185700D01*
X202600Y126100D02*
Y128700D01*
X206000*
Y126100*
X202600*
Y126400D02*
X206000D01*
X202600Y127600D02*
X206000D01*
X203200Y126100D02*
Y128700D01*
X204400Y126100D02*
Y128700D01*
X205600Y126100D02*
Y128700D01*
X196400Y126100D02*
Y128700D01*
X199800*
Y126100*
X196400*
Y126400D02*
X199800D01*
X196400Y127600D02*
X199800D01*
X197200Y126100D02*
Y128700D01*
X198400Y126100D02*
Y128700D01*
X199600Y126100D02*
Y128700D01*
G54D33*
X225600Y157600D02*
X221200D01*
Y163000*
X225600*
Y157600*
X221200Y158800D02*
X225600D01*
X221200Y160200D02*
X225600D01*
X221200Y161600D02*
X225600D01*
X221200Y163000D02*
X225600D01*
X221800Y157600D02*
Y163000D01*
X223200Y157600D02*
Y163000D01*
X224600Y157600D02*
Y163000D01*
X225600Y148600D02*
X221200D01*
Y154000*
X225600*
Y148600*
X221200Y149000D02*
X225600D01*
X221200Y150400D02*
X225600D01*
X221200Y151800D02*
X225600D01*
X221200Y153200D02*
X225600D01*
X221800Y148600D02*
Y154000D01*
X223200Y148600D02*
Y154000D01*
X224600Y148600D02*
Y154000D01*
G54D34*
X183100Y107800D03*
X190974D03*
X198848D03*
X168000Y193000D03*
X160126D03*
X152252D03*
G54D35*
X112500Y112500D03*
X232500D03*
Y187500D03*
G54D36*
X135287Y119725D02*
X133713D01*
Y122875*
X135287*
Y119725*
X133713Y119811D02*
X135287D01*
X133713Y121792D02*
X135287D01*
X141193Y119725D02*
X139618D01*
Y122875*
X141193*
Y119725*
X139618Y119811D02*
X141193D01*
X139618Y121792D02*
X141193D01*
X139622Y119725D02*
Y122875D01*
X147098Y119725D02*
X145524D01*
Y122875*
X147098*
Y119725*
X145524Y119811D02*
X147098D01*
X145524Y121792D02*
X147098D01*
X145565Y119725D02*
Y122875D01*
X105210Y147094D02*
X103990D01*
Y151819*
X105210*
Y147094*
X103990Y147546D02*
X105210D01*
X103990Y149528D02*
X105210D01*
X103990Y151509D02*
X105210D01*
X109147Y147094D02*
X107927D01*
Y151819*
X109147*
Y147094*
X107927Y147546D02*
X109147D01*
X107927Y149528D02*
X109147D01*
X107927Y151509D02*
X109147D01*
X113084Y147094D02*
X111864D01*
Y151819*
X113084*
Y147094*
X111864Y147546D02*
X113084D01*
X111864Y149528D02*
X113084D01*
X111864Y151509D02*
X113084D01*
X111887Y147094D02*
Y151819D01*
X117021Y147094D02*
X115801D01*
Y151819*
X117021*
Y147094*
X115801Y147546D02*
X117021D01*
X115801Y149528D02*
X117021D01*
X115801Y151509D02*
X117021D01*
X115849Y147094D02*
Y151819D01*
X120958Y147094D02*
X119738D01*
Y151819*
X120958*
Y147094*
X119738Y147546D02*
X120958D01*
X119738Y149528D02*
X120958D01*
X119738Y151509D02*
X120958D01*
X119811Y147094D02*
Y151819D01*
X124895Y147094D02*
X123675D01*
Y151819*
X124895*
Y147094*
X123675Y147546D02*
X124895D01*
X123675Y149528D02*
X124895D01*
X123675Y151509D02*
X124895D01*
X123773Y147094D02*
Y151819D01*
X128832Y147094D02*
X127612D01*
Y151819*
X128832*
Y147094*
X127612Y147546D02*
X128832D01*
X127612Y149528D02*
X128832D01*
X127612Y151509D02*
X128832D01*
X127735Y147094D02*
Y151819D01*
X132769Y147094D02*
X131549D01*
Y151819*
X132769*
Y147094*
X131549Y147546D02*
X132769D01*
X131549Y149528D02*
X132769D01*
X131549Y151509D02*
X132769D01*
X131698Y147094D02*
Y151819D01*
X140820Y152468D02*
Y151248D01*
X136096*
Y152468*
X140820*
X136096Y151509D02*
X140820D01*
X137641Y151248D02*
Y152468D01*
X139622Y151248D02*
Y152468D01*
X140820Y156405D02*
Y155185D01*
X136096*
Y156405*
X140820*
X136096Y155471D02*
X140820D01*
X137641Y155185D02*
Y156405D01*
X139622Y155185D02*
Y156405D01*
X140820Y160342D02*
Y159122D01*
X136096*
Y160342*
X140820*
X136096Y159433D02*
X140820D01*
X137641Y159122D02*
Y160342D01*
X139622Y159122D02*
Y160342D01*
X140820Y164279D02*
Y163059D01*
X136096*
Y164279*
X140820*
X136096Y163395D02*
X140820D01*
X137641Y163059D02*
Y164279D01*
X139622Y163059D02*
Y164279D01*
X140820Y168216D02*
Y166996D01*
X136096*
Y168216*
X140820*
X136096Y167357D02*
X140820D01*
X137641Y166996D02*
Y168216D01*
X139622Y166996D02*
Y168216D01*
X140820Y172153D02*
Y170933D01*
X136096*
Y172153*
X140820*
X136096Y171320D02*
X140820D01*
X137641Y170933D02*
Y172153D01*
X139622Y170933D02*
Y172153D01*
X140820Y176090D02*
Y174870D01*
X136096*
Y176090*
X140820*
X136096Y175282D02*
X140820D01*
X137641Y174870D02*
Y176090D01*
X139622Y174870D02*
Y176090D01*
X140820Y180027D02*
Y178807D01*
X136096*
Y180027*
X140820*
X136096Y179244D02*
X140820D01*
X137641Y178807D02*
Y180027D01*
X139622Y178807D02*
Y180027D01*
X132769Y179385D02*
X131549D01*
Y184110*
X132769*
Y179385*
X131549Y181225D02*
X132769D01*
X131549Y183206D02*
X132769D01*
X131698Y179385D02*
Y184110D01*
X128832Y179385D02*
X127612D01*
Y184110*
X128832*
Y179385*
X127612Y181225D02*
X128832D01*
X127612Y183206D02*
X128832D01*
X127735Y179385D02*
Y184110D01*
X124895Y179385D02*
X123675D01*
Y184110*
X124895*
Y179385*
X123675Y181225D02*
X124895D01*
X123675Y183206D02*
X124895D01*
X123773Y179385D02*
Y184110D01*
X120958Y179385D02*
X119738D01*
Y184110*
X120958*
Y179385*
X119738Y181225D02*
X120958D01*
X119738Y183206D02*
X120958D01*
X119811Y179385D02*
Y184110D01*
X117021Y179385D02*
X115801D01*
Y184110*
X117021*
Y179385*
X115801Y181225D02*
X117021D01*
X115801Y183206D02*
X117021D01*
X115849Y179385D02*
Y184110D01*
X113084Y179385D02*
X111864D01*
Y184110*
X113084*
Y179385*
X111864Y181225D02*
X113084D01*
X111864Y183206D02*
X113084D01*
X111887Y179385D02*
Y184110D01*
X109147Y179385D02*
X107927D01*
Y184110*
X109147*
Y179385*
X107927Y181225D02*
X109147D01*
X107927Y183206D02*
X109147D01*
X105210Y179385D02*
X103990D01*
Y184110*
X105210*
Y179385*
X103990Y181225D02*
X105210D01*
X103990Y183206D02*
X105210D01*
G54D37*
X284900Y190170D03*
Y182296D03*
Y174422D03*
Y166548D03*
Y158674D03*
Y150800D03*
G54D38*
X262092Y126406D03*
Y114594D03*
G54D39*
X279100Y120500D03*
G54D40*
X111096Y160126D02*
X107946D01*
Y163275*
X111096*
Y160126*
X107946Y160321D02*
X111096D01*
X107946Y161909D02*
X111096D01*
X109524Y160126D02*
Y163275D01*
X111096Y167925D02*
X107946D01*
Y171074*
X111096*
Y167925*
X107946Y168258D02*
X111096D01*
X107946Y169846D02*
X111096D01*
X109524Y167925D02*
Y171074D01*
G54D41*
X208622Y143752D03*
Y146902D03*
Y150051D03*
Y153201D03*
Y156350D03*
Y159500D03*
Y162650D03*
Y165799D03*
Y168949D03*
Y172098D03*
Y175248D03*
X161378D03*
Y172098D03*
Y168949D03*
Y165799D03*
Y162650D03*
Y159500D03*
Y156350D03*
Y153201D03*
Y150051D03*
Y146902D03*
Y143752D03*
G54D42*
X200748Y183122D03*
X197598D03*
X194449D03*
X191299D03*
X188150D03*
X185000D03*
X181850D03*
X178701D03*
X175551D03*
X172402D03*
X169252D03*
Y135878D03*
X172402D03*
X175551D03*
X178701D03*
X181850D03*
X185000D03*
X188150D03*
X191299D03*
X194449D03*
X197598D03*
X200748D03*
G54D43*
X247464Y178700D03*
Y173700D03*
Y168700D03*
Y163700D03*
Y158700D03*
Y153700D03*
Y148700D03*
X267936D03*
Y153700D03*
Y158700D03*
Y163700D03*
Y168700D03*
Y173700D03*
Y178700D03*
X0Y0D02*
M02*
