%
T1C.015F095S3
X0132Y0104
X01255Y0104
X0129Y0111
X0127Y0116
X0132Y0116
X01332Y01385
X01315Y01575
X0131Y0165
X01332Y01678
X01315Y01735
X01391Y01921
X014Y01865
X01566Y01797
X01437Y01719
X01503Y01529
X01384Y0145
X01421Y01448
X0146Y01405
X0177Y0104
X0176Y0126
X0173Y01288
X0169Y01292
X01702Y01476
X01872Y01915
X018Y0196
X0188Y0196
X0195Y0196
X0211Y0196
X0203Y0196
X0209Y0191
X021Y0127
X01981Y01239
X0211Y011
X0208Y0104
X0215Y0104
X0228Y0132
X0225Y0135
X02164Y01548
X0216Y0159
X02129Y0187
X0218Y0196
X02585Y01721
X02381Y01711
X02556Y01693
X0253Y0155
X0251Y0127
X024Y0127
X0251Y011
X0255Y0104
X0247Y0104
X0263Y0104
X0271Y0114
X0285Y0133
X0276Y0133
X0285Y0141
X0276Y0141
X0276Y0149
X0292Y018
X0292Y0171
X0292Y0163
X0292Y0155
X0292Y0147
X0292Y0139
X0292Y0132
X0292Y0124
X0292Y0116
T2C.0315F197S55
X02849Y01508
X02849Y015867
X02849Y016655
X02849Y017442
X02849Y01823
X02849Y019017
T3C.03228F197S55
X016013Y0193
X015225Y0193
X0168Y0193
X01831Y01078
X019885Y01078
X019097Y01078
T4C.04016F139S55
X026209Y011459
X026209Y012641
T5C.116F069S658
X01125Y01125
X02325Y01875
X02325Y01125
T6C.11811F069S658
X02791Y01205
M30
