*
*
G04 PADS 9.3.1 Build Number: 456998 generated Gerber (RS-274-X) file*
G04 PC Version=2.1*
*
%IN "accumulatron_rev1.pcb"*%
*
%MOIN*%
*
%FSLAX35Y35*%
*
*
*
*
G04 PC Standard Apertures*
*
*
G04 Thermal Relief Aperture macro.*
%AMTER*
1,1,$1,0,0*
1,0,$1-$2,0,0*
21,0,$3,$4,0,0,45*
21,0,$3,$4,0,0,135*
%
*
*
G04 Annular Aperture macro.*
%AMANN*
1,1,$1,0,0*
1,0,$2,0,0*
%
*
*
G04 Odd Aperture macro.*
%AMODD*
1,1,$1,0,0*
1,0,$1-0.005,0,0*
%
*
*
G04 PC Custom Aperture Macros*
*
*
*
*
*
*
G04 PC Aperture Table*
*
%ADD010C,0.001*%
%ADD032C,0.012*%
%ADD037C,0.018*%
%ADD048C,0.103*%
%ADD049C,0.07099*%
%ADD050C,0.07*%
%ADD051C,0.158*%
%ADD052C,0.06706*%
%ADD063O,0.02099X0.06627*%
*
*
*
*
G04 PC Circuitry*
G04 Layer Name accumulatron_rev1.pcb - circuitry*
%LPD*%
*
*
G04 PC Custom Flashes*
G04 Layer Name accumulatron_rev1.pcb - flashes*
%LPD*%
*
*
G04 PC Circuitry*
G04 Layer Name accumulatron_rev1.pcb - circuitry*
%LPD*%
*
G54D10*
G54D32*
G01X191000Y135700D02*
Y133100D01*
X187600*
Y135700*
X191000*
X187600Y133600D02*
X191000D01*
X187600Y134800D02*
X191000D01*
X187600Y133100D02*
Y135700D01*
X188800Y133100D02*
Y135700D01*
X190000Y133100D02*
Y135700D01*
X197200D02*
Y133100D01*
X193800*
Y135700*
X197200*
X193800Y133600D02*
X197200D01*
X193800Y134800D02*
X197200D01*
X194800Y133100D02*
Y135700D01*
X196000Y133100D02*
Y135700D01*
X197200Y133100D02*
Y135700D01*
X254000Y177100D02*
X251400D01*
Y180500*
X254000*
Y177100*
X251400Y178000D02*
X254000D01*
X251400Y179200D02*
X254000D01*
X251400Y180400D02*
X254000D01*
X252400Y177100D02*
Y180500D01*
X253600Y177100D02*
Y180500D01*
X254000Y170900D02*
X251400D01*
Y174300*
X254000*
Y170900*
X251400Y172000D02*
X254000D01*
X251400Y173200D02*
X254000D01*
X252400Y170900D02*
Y174300D01*
X253600Y170900D02*
Y174300D01*
X236900Y159600D02*
X239500D01*
Y156200*
X236900*
Y159600*
Y156400D02*
X239500D01*
X236900Y157600D02*
X239500D01*
X236900Y158800D02*
X239500D01*
X238000Y156200D02*
Y159600D01*
X239200Y156200D02*
Y159600D01*
X236900Y165800D02*
X239500D01*
Y162400*
X236900*
Y165800*
Y162400D02*
X239500D01*
X236900Y163600D02*
X239500D01*
X236900Y164800D02*
X239500D01*
X238000Y162400D02*
Y165800D01*
X239200Y162400D02*
Y165800D01*
X376800Y349800D02*
Y352400D01*
X380200*
Y349800*
X376800*
Y350800D02*
X380200D01*
X376800Y352000D02*
X380200D01*
X377200Y349800D02*
Y352400D01*
X378400Y349800D02*
Y352400D01*
X379600Y349800D02*
Y352400D01*
X370600Y349800D02*
Y352400D01*
X374000*
Y349800*
X370600*
Y350800D02*
X374000D01*
X370600Y352000D02*
X374000D01*
X371200Y349800D02*
Y352400D01*
X372400Y349800D02*
Y352400D01*
X373600Y349800D02*
Y352400D01*
X374000Y347400D02*
Y344800D01*
X370600*
Y347400*
X374000*
X370600Y344800D02*
X374000D01*
X370600Y346000D02*
X374000D01*
X370600Y347200D02*
X374000D01*
X371200Y344800D02*
Y347400D01*
X372400Y344800D02*
Y347400D01*
X373600Y344800D02*
Y347400D01*
X380200D02*
Y344800D01*
X376800*
Y347400*
X380200*
X376800Y344800D02*
X380200D01*
X376800Y346000D02*
X380200D01*
X376800Y347200D02*
X380200D01*
X377200Y344800D02*
Y347400D01*
X378400Y344800D02*
Y347400D01*
X379600Y344800D02*
Y347400D01*
X376400Y288700D02*
Y291300D01*
X379800*
Y288700*
X376400*
Y289600D02*
X379800D01*
X376400Y290800D02*
X379800D01*
X377200Y288700D02*
Y291300D01*
X378400Y288700D02*
Y291300D01*
X379600Y288700D02*
Y291300D01*
X370200Y288700D02*
Y291300D01*
X373600*
Y288700*
X370200*
Y289600D02*
X373600D01*
X370200Y290800D02*
X373600D01*
X371200Y288700D02*
Y291300D01*
X372400Y288700D02*
Y291300D01*
X373600Y288700D02*
Y291300D01*
Y286300D02*
Y283700D01*
X370200*
Y286300*
X373600*
X370200Y284800D02*
X373600D01*
X370200Y286000D02*
X373600D01*
X371200Y283700D02*
Y286300D01*
X372400Y283700D02*
Y286300D01*
X373600Y283700D02*
Y286300D01*
X379800D02*
Y283700D01*
X376400*
Y286300*
X379800*
X376400Y284800D02*
X379800D01*
X376400Y286000D02*
X379800D01*
X377200Y283700D02*
Y286300D01*
X378400Y283700D02*
Y286300D01*
X379600Y283700D02*
Y286300D01*
X377400Y230700D02*
Y233300D01*
X380800*
Y230700*
X377400*
Y230800D02*
X380800D01*
X377400Y232000D02*
X380800D01*
X377400Y233200D02*
X380800D01*
X378400Y230700D02*
Y233300D01*
X379600Y230700D02*
Y233300D01*
X380800Y230700D02*
Y233300D01*
X371200Y230700D02*
Y233300D01*
X374600*
Y230700*
X371200*
Y230800D02*
X374600D01*
X371200Y232000D02*
X374600D01*
X371200Y233200D02*
X374600D01*
X371200Y230700D02*
Y233300D01*
X372400Y230700D02*
Y233300D01*
X373600Y230700D02*
Y233300D01*
X374600Y228300D02*
Y225700D01*
X371200*
Y228300*
X374600*
X371200Y226000D02*
X374600D01*
X371200Y227200D02*
X374600D01*
X371200Y225700D02*
Y228300D01*
X372400Y225700D02*
Y228300D01*
X373600Y225700D02*
Y228300D01*
X380800D02*
Y225700D01*
X377400*
Y228300*
X380800*
X377400Y226000D02*
X380800D01*
X377400Y227200D02*
X380800D01*
X378400Y225700D02*
Y228300D01*
X379600Y225700D02*
Y228300D01*
X380800Y225700D02*
Y228300D01*
X377400Y171700D02*
Y174300D01*
X380800*
Y171700*
X377400*
Y172000D02*
X380800D01*
X377400Y173200D02*
X380800D01*
X378400Y171700D02*
Y174300D01*
X379600Y171700D02*
Y174300D01*
X380800Y171700D02*
Y174300D01*
X371200Y171700D02*
Y174300D01*
X374600*
Y171700*
X371200*
Y172000D02*
X374600D01*
X371200Y173200D02*
X374600D01*
X371200Y171700D02*
Y174300D01*
X372400Y171700D02*
Y174300D01*
X373600Y171700D02*
Y174300D01*
X374600Y169300D02*
Y166700D01*
X371200*
Y169300*
X374600*
X371200Y167200D02*
X374600D01*
X371200Y168400D02*
X374600D01*
X371200Y166700D02*
Y169300D01*
X372400Y166700D02*
Y169300D01*
X373600Y166700D02*
Y169300D01*
X380800D02*
Y166700D01*
X377400*
Y169300*
X380800*
X377400Y167200D02*
X380800D01*
X377400Y168400D02*
X380800D01*
X378400Y166700D02*
Y169300D01*
X379600Y166700D02*
Y169300D01*
X380800Y166700D02*
Y169300D01*
X347100Y123000D02*
X349700D01*
Y119600*
X347100*
Y123000*
Y120400D02*
X349700D01*
X347100Y121600D02*
X349700D01*
X347100Y122800D02*
X349700D01*
X347200Y119600D02*
Y123000D01*
X348400Y119600D02*
Y123000D01*
X349600Y119600D02*
Y123000D01*
X347100Y129200D02*
X349700D01*
Y125800*
X347100*
Y129200*
Y126400D02*
X349700D01*
X347100Y127600D02*
X349700D01*
X347100Y128800D02*
X349700D01*
X347200Y125800D02*
Y129200D01*
X348400Y125800D02*
Y129200D01*
X349600Y125800D02*
Y129200D01*
X344700Y125800D02*
X342100D01*
Y129200*
X344700*
Y125800*
X342100Y126400D02*
X344700D01*
X342100Y127600D02*
X344700D01*
X342100Y128800D02*
X344700D01*
X342400Y125800D02*
Y129200D01*
X343600Y125800D02*
Y129200D01*
X344700Y119600D02*
X342100D01*
Y123000*
X344700*
Y119600*
X342100Y120400D02*
X344700D01*
X342100Y121600D02*
X344700D01*
X342100Y122800D02*
X344700D01*
X342400Y119600D02*
Y123000D01*
X343600Y119600D02*
Y123000D01*
G54D37*
X248050Y179540D02*
Y178540D01*
X245550*
Y179540*
X248050*
X245550Y179200D02*
X248050D01*
X245800Y178540D02*
Y179540D01*
X247600Y178540D02*
Y179540D01*
X248050Y172060D02*
Y171060D01*
X245550*
Y172060*
X248050*
X245550Y172000D02*
X248050D01*
X245800Y171060D02*
Y172060D01*
X247600Y171060D02*
Y172060D01*
X240176Y175800D02*
Y174800D01*
X237676*
Y175800*
X240176*
X237676Y175600D02*
X240176D01*
X238600Y174800D02*
Y175800D01*
G54D48*
X157000Y203000D03*
X178700D03*
G54D49*
X112400Y302500D03*
Y310374D03*
Y318248D03*
Y326122D03*
G54D50*
X286700Y131800D03*
X282700Y138800D03*
X278700Y131800D03*
X274700Y138800D03*
X270700Y131800D03*
X266700Y138800D03*
X262700Y131800D03*
X258700Y138800D03*
X299700Y157800D03*
X290700D03*
X254700Y157878D03*
X245700Y157800D03*
G54D51*
X297700Y121800D03*
X247700D03*
X115000Y115000D03*
Y385000D03*
X385000Y115000D03*
Y385000D03*
G54D52*
X388000Y360370D03*
Y352496D03*
Y344622D03*
Y336748D03*
Y328874D03*
Y321000D03*
Y300370D03*
Y292496D03*
Y284622D03*
Y276748D03*
Y268874D03*
Y261000D03*
Y241370D03*
Y233496D03*
Y225622D03*
Y217748D03*
Y209874D03*
Y202000D03*
Y182370D03*
Y174496D03*
Y166622D03*
Y158748D03*
Y150874D03*
Y143000D03*
X358770Y111400D03*
X350896D03*
X343022D03*
X335148D03*
X327274D03*
X319400D03*
X336000Y314000D03*
Y306126D03*
X327000Y187000D03*
X319126D03*
X326000Y213000D03*
X318126D03*
X204500Y331700D03*
X196626D03*
X188752D03*
X180878D03*
G54D63*
X224855Y175265D03*
X227414D03*
X229973D03*
X232532D03*
Y157548D03*
X229973D03*
X227414D03*
X224855D03*
X0Y0D02*
M02*
