*
*
G04 PADS 9.3.1 Build Number: 456998 generated Gerber (RS-274-X) file*
G04 PC Version=2.1*
*
%IN "accumulatron_rev1.pcb"*%
*
%MOIN*%
*
%FSLAX35Y35*%
*
*
*
*
G04 PC Standard Apertures*
*
*
G04 Thermal Relief Aperture macro.*
%AMTER*
1,1,$1,0,0*
1,0,$1-$2,0,0*
21,0,$3,$4,0,0,45*
21,0,$3,$4,0,0,135*
%
*
*
G04 Annular Aperture macro.*
%AMANN*
1,1,$1,0,0*
1,0,$2,0,0*
%
*
*
G04 Odd Aperture macro.*
%AMODD*
1,1,$1,0,0*
1,0,$1-0.005,0,0*
%
*
*
G04 PC Custom Aperture Macros*
*
*
*
*
*
*
G04 PC Aperture Table*
*
%ADD010C,0.001*%
%ADD012C,0.00787*%
%ADD014C,0.008*%
%ADD020C,0.01*%
%ADD042C,0.015*%
%ADD064C,0.005*%
%ADD065C,0.01024*%
%ADD066C,0.00984*%
%ADD067C,0.00787*%
%ADD068C,0.00787*%
%ADD069C,0.00591*%
*
*
*
*
G04 PC Circuitry*
G04 Layer Name accumulatron_rev1.pcb - circuitry*
%LPD*%
*
*
G04 PC Custom Flashes*
G04 Layer Name accumulatron_rev1.pcb - flashes*
%LPD*%
*
*
G04 PC Circuitry*
G04 Layer Name accumulatron_rev1.pcb - circuitry*
%LPD*%
*
G54D10*
G54D12*
G01X274500Y344339D02*
X277500D01*
X269400D02*
X272400D01*
X259861Y326400D02*
Y329400D01*
X220500Y343139D02*
X223500D01*
X279600Y344339D02*
X282600D01*
X152382Y256044D02*
X151398Y257028D01*
Y261556*
X163602*
Y256044*
X152382*
X266598Y290229D02*
X264629Y292198D01*
X230771*
X228802Y290229*
Y256371*
X230771Y254402*
X264629*
X266598Y256371*
Y290229*
X259500Y305687D02*
Y304113D01*
X221800Y252013D02*
Y253587D01*
X264700Y242813D02*
Y244387D01*
X225613Y299000D02*
X227187D01*
X273587Y249400D02*
X272013D01*
X220339Y249100D02*
Y246100D01*
X281087Y282300D02*
X279513D01*
X283300Y282539D02*
X286300D01*
X152961Y116500D02*
Y119500D01*
X343500Y254961D02*
X340500D01*
X335500D02*
X332500D01*
X189660Y136321D02*
X197140D01*
Y126479*
X189660*
Y136321*
X182570Y136912D02*
G75*
G03X182570I-194J0D01*
G01X193593Y135731D02*
G03X193593I-193J0D01*
G01X209239Y118700D02*
Y115700D01*
X201332Y124585D02*
Y121585D01*
X171300Y161939D02*
X174300D01*
X183206Y116559D02*
Y119559D01*
Y121674D02*
Y124674D01*
X214504Y120784D02*
Y123784D01*
X213143Y131345D02*
X210143D01*
X218143D02*
X215143D01*
X172259Y129799D02*
X175259D01*
X274761Y208600D02*
Y211600D01*
X200998Y150692D02*
Y174708D01*
X225802Y151381D02*
Y175397D01*
X152961Y110500D02*
Y113500D01*
X284800Y338239D02*
X287800D01*
X299839Y324200D02*
Y321200D01*
X281761Y316200D02*
Y319200D01*
X294661Y316200D02*
Y319200D01*
X136094Y323858D02*
X147906D01*
Y306142*
X136094*
Y323858*
X155600Y312039D02*
X158600D01*
X152276Y163709D02*
Y178276D01*
X121862*
X111724Y168138*
Y163709*
X152276Y152291D02*
Y137724D01*
X121862*
X111724Y147862*
Y152291*
X298343Y250145D02*
X297555Y249357D01*
X278657*
Y269043*
X298343*
Y250145*
X299713Y259600D02*
X301287D01*
X120200Y310239D02*
X123200D01*
X160961Y281500D02*
Y284500D01*
X161039Y289500D02*
Y286500D01*
X193200Y206661D02*
X190200D01*
X198300Y214061D02*
X195300D01*
X349500Y254961D02*
X346500D01*
X329500D02*
X326500D01*
X137772Y337500D02*
X135272Y335000D01*
X128347*
Y336250*
X125653*
Y335000*
X116228*
Y355000*
X137772*
Y337500*
X274639Y172000D02*
Y169000D01*
X229900Y143239D02*
X232900D01*
X249761Y167500D02*
Y170500D01*
X295061Y167200D02*
Y170200D01*
X157439Y341400D02*
Y338400D01*
Y346500D02*
Y343500D01*
X350858Y350000D02*
X356232D01*
Y348750*
X357768*
Y350000*
X363142*
Y330000*
X350858*
Y350000*
X356961Y352500D02*
Y355500D01*
X350858Y292000D02*
X356232D01*
Y290750*
X357768*
Y292000*
X363142*
Y272000*
X350858*
Y292000*
X356961Y294500D02*
Y297500D01*
X350858Y232000D02*
X356232D01*
Y230750*
X357768*
Y232000*
X363142*
Y212000*
X350858*
Y232000*
X356961Y234500D02*
Y237500D01*
X351858Y184000D02*
X357232D01*
Y182750*
X358768*
Y184000*
X364142*
Y164000*
X351858*
Y184000*
X357961Y186500D02*
Y189500D01*
X349400Y147542D02*
Y142168D01*
X348150*
Y140632*
X349400*
Y135258*
X329400*
Y147542*
X349400*
X351900Y141439D02*
X354900D01*
X288600Y190339D02*
X291600D01*
X284700Y196442D02*
Y191068D01*
X283450*
Y189532*
X284700*
Y184158*
X264700*
Y196442*
X284700*
X197737Y181588D02*
Y192612D01*
X196950Y181588D02*
Y192612D01*
X196162Y181588D02*
Y192612D01*
X194981Y187100D02*
X190650Y183163D01*
Y191037*
X194981Y187100*
X195375Y181588D02*
Y192612D01*
X207186Y183163D02*
Y191037D01*
X202855Y182376D02*
Y181194D01*
X184745*
Y182376*
Y191824D02*
Y193006D01*
X202855*
Y191824*
X291044Y329094D02*
G03X291044I-194J0D01*
G01X294591Y334212D02*
G03X294591I-1378J0D01*
G01X225715Y216843D02*
X226424D01*
Y209757*
X225518*
X215085D02*
X214376D01*
Y216843*
X215085*
X226105Y221174D02*
G03X226105I-193J0D01*
G01X225217Y214875D02*
G03X225217I-880J0D01*
G01X228800Y218139D02*
X231800D01*
X217800Y197800D02*
Y202800D01*
X229100Y191200D02*
Y186200D01*
X251906Y205418D02*
G03X251118Y206206I-788J0D01*
G01X251906Y205418D02*
Y195182D01*
X251118Y194394D02*
G03X251906Y195182I0J788D01*
G01X251118Y194394D02*
X240882D01*
X240094Y195182D02*
G03X240882Y194394I788J-0D01*
G01X240094Y195182D02*
Y205418D01*
X240882Y206206D02*
G03X240094Y205418I-0J-788D01*
G01X240882Y206206D02*
X251118D01*
X218739Y231200D02*
Y228200D01*
X218661Y223200D02*
Y226200D01*
G54D14*
X117000Y225250D02*
Y220000D01*
Y225250D02*
X118636D01*
X119182Y225000*
X119364Y224750*
X119545Y224250*
Y223500*
X119364Y223000*
X119182Y222750*
X118636Y222500*
X117000*
X121182Y225250D02*
X122091Y220000D01*
X123000Y225250D02*
X122091Y220000D01*
X123000Y225250D02*
X123909Y220000D01*
X124818Y225250D02*
X123909Y220000D01*
X126455Y225250D02*
Y220000D01*
Y225250D02*
X128091D01*
X128636Y225000*
X128818Y224750*
X129000Y224250*
Y223750*
X128818Y223250*
X128636Y223000*
X128091Y222750*
X126455*
X127727D02*
X129000Y220000D01*
X148000Y244250D02*
Y240500D01*
X148182Y239750*
X148545Y239250*
X149091Y239000*
X149455*
X150000Y239250*
X150364Y239750*
X150545Y240500*
Y244250*
X154727Y243500D02*
X154364Y244000D01*
X153818Y244250*
X153091*
X152545Y244000*
X152182Y243500*
Y243000*
X152364Y242500*
X152545Y242250*
X152909Y242000*
X154000Y241500*
X154364Y241250*
X154545Y241000*
X154727Y240500*
Y239750*
X154364Y239250*
X153818Y239000*
X153091*
X152545Y239250*
X152182Y239750*
X156364Y244250D02*
Y239000D01*
Y244250D02*
X158000D01*
X158545Y244000*
X158727Y243750*
X158909Y243250*
Y242750*
X158727Y242250*
X158545Y242000*
X158000Y241750*
X156364D02*
X158000D01*
X158545Y241500*
X158727Y241250*
X158909Y240750*
Y240000*
X158727Y239500*
X158545Y239250*
X158000Y239000*
X156364*
X167250Y320000D02*
X162000D01*
X167250D02*
Y318364D01*
X167000Y317818*
X166750Y317636*
X166250Y317455*
X165750*
X165250Y317636*
X165000Y317818*
X164750Y318364*
Y320000*
Y318727D02*
X162000Y317455D01*
X166500Y313273D02*
X167000Y313636D01*
X167250Y314182*
Y314909*
X167000Y315455*
X166500Y315818*
X166000*
X165500Y315636*
X165250Y315455*
X165000Y315091*
X164500Y314000*
X164250Y313636*
X164000Y313455*
X163500Y313273*
X162750*
X162250Y313636*
X162000Y314182*
Y314909*
X162250Y315455*
X162750Y315818*
X167250Y310364D02*
X162000D01*
X167250Y311636D02*
Y309091D01*
X117400Y365350D02*
Y360100D01*
Y365350D02*
X119036D01*
X119582Y365100*
X119764Y364850*
X119945Y364350*
Y363850*
X119764Y363350*
X119582Y363100*
X119036Y362850*
X117400D02*
X119036D01*
X119582Y362600*
X119764Y362350*
X119945Y361850*
Y361100*
X119764Y360600*
X119582Y360350*
X119036Y360100*
X117400*
X122673Y365350D02*
X122309Y365100D01*
X121945Y364600*
X121764Y364100*
X121582Y363350*
Y362100*
X121764Y361350*
X121945Y360850*
X122309Y360350*
X122673Y360100*
X123400*
X123764Y360350*
X124127Y360850*
X124309Y361350*
X124491Y362100*
Y363350*
X124309Y364100*
X124127Y364600*
X123764Y365100*
X123400Y365350*
X122673*
X127218D02*
X126855Y365100D01*
X126491Y364600*
X126309Y364100*
X126127Y363350*
Y362100*
X126309Y361350*
X126491Y360850*
X126855Y360350*
X127218Y360100*
X127945*
X128309Y360350*
X128673Y360850*
X128855Y361350*
X129036Y362100*
Y363350*
X128855Y364100*
X128673Y364600*
X128309Y365100*
X127945Y365350*
X127218*
X131945D02*
Y360100D01*
X130673Y365350D02*
X133218D01*
X120545Y329500D02*
X120182Y330000D01*
X119636Y330250*
X118909*
X118364Y330000*
X118000Y329500*
Y329000*
X118182Y328500*
X118364Y328250*
X118727Y328000*
X119818Y327500*
X120182Y327250*
X120364Y327000*
X120545Y326500*
Y325750*
X120182Y325250*
X119636Y325000*
X118909*
X118364Y325250*
X118000Y325750*
X122182Y330250D02*
X123091Y325000D01*
X124000Y330250D02*
X123091Y325000D01*
X124000Y330250D02*
X124909Y325000D01*
X125818Y330250D02*
X124909Y325000D01*
X127455Y330250D02*
Y325000D01*
Y330250D02*
X128727D01*
X129273Y330000*
X129636Y329500*
X129818Y329000*
X130000Y328250*
Y327000*
X129818Y326250*
X129636Y325750*
X129273Y325250*
X128727Y325000*
X127455*
X148000Y127250D02*
Y122000D01*
Y127250D02*
X149636D01*
X150182Y127000*
X150364Y126750*
X150545Y126250*
Y125500*
X150364Y125000*
X150182Y124750*
X149636Y124500*
X148000*
X152182Y127250D02*
X153091Y122000D01*
X154000Y127250D02*
X153091Y122000D01*
X154000Y127250D02*
X154909Y122000D01*
X155818Y127250D02*
X154909Y122000D01*
X157455Y127250D02*
Y122000D01*
Y127250D02*
X159091D01*
X159636Y127000*
X159818Y126750*
X160000Y126250*
Y125750*
X159818Y125250*
X159636Y125000*
X159091Y124750*
X157455*
X158727D02*
X160000Y122000D01*
X331455Y247250D02*
X330000Y242000D01*
X331455Y247250D02*
X332909Y242000D01*
X330545Y243750D02*
X332364D01*
X345000Y247250D02*
Y242000D01*
Y247250D02*
X346636D01*
X347182Y247000*
X347364Y246750*
X347545Y246250*
Y245750*
X347364Y245250*
X347182Y245000*
X346636Y244750*
X345000D02*
X346636D01*
X347182Y244500*
X347364Y244250*
X347545Y243750*
Y243000*
X347364Y242500*
X347182Y242250*
X346636Y242000*
X345000*
X371000Y321273D02*
X371500Y321455D01*
X372000Y321818*
X372250Y322182*
Y322909*
X372000Y323273*
X371500Y323636*
X371000Y323818*
X370250Y324000*
X369000*
X368250Y323818*
X367750Y323636*
X367250Y323273*
X367000Y322909*
Y322182*
X367250Y321818*
X367750Y321455*
X368250Y321273*
X372250Y319636D02*
X367000D01*
X372250Y317091D02*
X367000D01*
X369750Y319636D02*
Y317091D01*
X371250Y315455D02*
X371500Y315091D01*
X372250Y314545*
X367000*
X371000Y263273D02*
X371500Y263455D01*
X372000Y263818*
X372250Y264182*
Y264909*
X372000Y265273*
X371500Y265636*
X371000Y265818*
X370250Y266000*
X369000*
X368250Y265818*
X367750Y265636*
X367250Y265273*
X367000Y264909*
Y264182*
X367250Y263818*
X367750Y263455*
X368250Y263273*
X372250Y261636D02*
X367000D01*
X372250Y259091D02*
X367000D01*
X369750Y261636D02*
Y259091D01*
X371000Y257273D02*
X371250D01*
X371750Y257091*
X372000Y256909*
X372250Y256545*
Y255818*
X372000Y255455*
X371750Y255273*
X371250Y255091*
X370750*
X370250Y255273*
X369500Y255636*
X367000Y257455*
Y254909*
X371000Y205273D02*
X371500Y205455D01*
X372000Y205818*
X372250Y206182*
Y206909*
X372000Y207273*
X371500Y207636*
X371000Y207818*
X370250Y208000*
X369000*
X368250Y207818*
X367750Y207636*
X367250Y207273*
X367000Y206909*
Y206182*
X367250Y205818*
X367750Y205455*
X368250Y205273*
X372250Y203636D02*
X367000D01*
X372250Y201091D02*
X367000D01*
X369750Y203636D02*
Y201091D01*
X372250Y199091D02*
Y197091D01*
X370250Y198182*
Y197636*
X370000Y197273*
X369750Y197091*
X369000Y196909*
X368500*
X367750Y197091*
X367250Y197455*
X367000Y198000*
Y198545*
X367250Y199091*
X367500Y199273*
X368000Y199455*
X371000Y147273D02*
X371500Y147455D01*
X372000Y147818*
X372250Y148182*
Y148909*
X372000Y149273*
X371500Y149636*
X371000Y149818*
X370250Y150000*
X369000*
X368250Y149818*
X367750Y149636*
X367250Y149273*
X367000Y148909*
Y148182*
X367250Y147818*
X367750Y147455*
X368250Y147273*
X372250Y145636D02*
X367000D01*
X372250Y143091D02*
X367000D01*
X369750Y145636D02*
Y143091D01*
X372250Y139636D02*
X368750Y141455D01*
Y138727*
X372250Y139636D02*
X367000D01*
X353727Y132000D02*
X353545Y132500D01*
X353182Y133000*
X352818Y133250*
X352091*
X351727Y133000*
X351364Y132500*
X351182Y132000*
X351000Y131250*
Y130000*
X351182Y129250*
X351364Y128750*
X351727Y128250*
X352091Y128000*
X352818*
X353182Y128250*
X353545Y128750*
X353727Y129250*
X355364Y133250D02*
Y128000D01*
X357909Y133250D02*
Y128000D01*
X355364Y130750D02*
X357909D01*
X361909Y133250D02*
X360091D01*
X359909Y131000*
X360091Y131250*
X360636Y131500*
X361182*
X361727Y131250*
X362091Y130750*
X362273Y130000*
X362091Y129500*
X361909Y128750*
X361545Y128250*
X361000Y128000*
X360455*
X359909Y128250*
X359727Y128500*
X359545Y129000*
X235000Y121273D02*
X235500Y121455D01*
X236000Y121818*
X236250Y122182*
Y122909*
X236000Y123273*
X235500Y123636*
X235000Y123818*
X234250Y124000*
X233000*
X232250Y123818*
X231750Y123636*
X231250Y123273*
X231000Y122909*
Y122182*
X231250Y121818*
X231750Y121455*
X232250Y121273*
X236250Y118182D02*
X231000Y119636D01*
X236250Y118182D02*
X231000Y116727D01*
X232750Y119091D02*
Y117273D01*
X236250Y115091D02*
X231000D01*
X236250D02*
X231000Y112545D01*
X236250D02*
X231000D01*
G54D20*
X142793Y265368D02*
G03X142793I-500J0D01*
G01X152291Y251123D02*
G03X152291I-500J0D01*
G01X264554Y257946D02*
G03X264554I-1500J0D01*
G01X274972Y256765D02*
G03X274972I-500J0D01*
G01X145232Y116425D02*
G03X145232I-500J0D01*
G01X344075Y246732D02*
G03X344075I-500J0D01*
G01X336075D02*
G03X336075I-500J0D01*
G01X209514Y145900D02*
Y140900D01*
X205612Y146700D02*
Y146904D01*
X194590*
Y146700*
X205613Y140100D02*
Y139896D01*
X194589*
Y140100*
X203184Y146822D02*
Y140078D01*
X208357Y147454D02*
G03X208357I-500J0D01*
G01X179400Y139069D02*
Y147731D01*
X189069Y161400D02*
X197731D01*
X177069D02*
X185731D01*
X101000Y213500D02*
Y192500D01*
X151000*
Y213500*
X101000*
X110100Y200500D02*
Y205800D01*
X300369Y254178D02*
G03X300369I-500J0D01*
G01X169100Y271600D02*
Y271100D01*
X159200*
Y271600*
Y277500D02*
Y278200D01*
X169200*
Y277700*
X167200Y271100D02*
Y278200D01*
X166300Y271200D02*
Y278000D01*
X109447Y298563D02*
X108463Y299547D01*
Y329075*
X109447Y330059*
X115353*
X116337Y329075*
Y299547*
X115353Y298563*
X109447*
X107000Y302600D02*
G03X107000I-500J0D01*
G01X148050Y335100D02*
G03X148050I-500J0D01*
G01X344000Y350100D02*
G03X344000I-500J0D01*
G01X354800Y347500D02*
G03X354800I-1500J0D01*
G01X375108Y360850D02*
G03X375108I-447J0D01*
G01X344000Y292100D02*
G03X344000I-500J0D01*
G01X354800Y289500D02*
G03X354800I-1500J0D01*
G01X375108Y300850D02*
G03X375108I-447J0D01*
G01X344000Y232100D02*
G03X344000I-500J0D01*
G01X354800Y229500D02*
G03X354800I-1500J0D01*
G01X375108Y241850D02*
G03X375108I-447J0D01*
G01X345000Y184100D02*
G03X345000I-500J0D01*
G01X355800Y181500D02*
G03X355800I-1500J0D01*
G01X375108Y182850D02*
G03X375108I-447J0D01*
G01X350000Y154900D02*
G03X350000I-500J0D01*
G01X348400Y145100D02*
G03X348400I-1500J0D01*
G01X359697Y124739D02*
G03X359697I-447J0D01*
G01X238602Y371070D02*
G03X238602I-1500J0D01*
G01X225587Y372531D02*
G03X225587I-500J0D01*
G01X285300Y203800D02*
G03X285300I-500J0D01*
G01X283700Y194000D02*
G03X283700I-1500J0D01*
G01X205324Y181194D02*
G03X205324I-500J0D01*
G01X295575Y341692D02*
X290850D01*
Y331456*
X297937*
X301874D02*
X308961D01*
Y341692*
X304236*
X234800Y207200D02*
X235300D01*
Y197300*
X234800*
X228900D02*
X228200D01*
Y207300*
X228700*
X235300Y205300D02*
X228200D01*
X235200Y204400D02*
X228400D01*
X323311Y314591D02*
G03X323311I-500J0D01*
G01X328091Y200189D02*
G03X328091I-500J0D01*
G01X327091Y226189D02*
G03X327091I-500J0D01*
G01X205624Y345039D02*
G03X205624I-447J0D01*
G01X281545Y387663D02*
X279727Y381100D01*
X281545Y387663D02*
X283364Y381100D01*
X280409Y383288D02*
X282682D01*
X288136Y384538D02*
X287682Y385163D01*
X287682D02*
X287227Y385475D01*
X286545*
X286091Y385163*
X286091D02*
X285636Y384538D01*
X285636D02*
X285409Y383600D01*
Y382975*
X285636Y382038*
X285636D02*
X286091Y381413D01*
X286091D02*
X286545Y381100D01*
X287227*
X287682Y381413*
X287682D02*
X288136Y382038D01*
X292909Y384538D02*
X292455Y385163D01*
X292455D02*
X292000Y385475D01*
X291318*
X290864Y385163*
X290864D02*
X290409Y384538D01*
X290409D02*
X290182Y383600D01*
Y382975*
X290409Y382038*
X290409D02*
X290864Y381413D01*
X290864D02*
X291318Y381100D01*
X292000*
X292455Y381413*
X292455D02*
X292909Y382038D01*
X294955Y385475D02*
Y382350D01*
X295182Y381413*
X295182D02*
X295636Y381100D01*
X296318*
X296773Y381413*
X296773D02*
X297455Y382350D01*
Y385475D02*
Y381100D01*
X299500Y385475D02*
Y381100D01*
Y384225D02*
X300182Y385163D01*
X300182D02*
X300636Y385475D01*
X301318*
X301773Y385163*
X301773D02*
X302000Y384225D01*
Y381100*
Y384225D02*
X302682Y385163D01*
X302682D02*
X303136Y385475D01*
X303818*
X304273Y385163*
X304273D02*
X304500Y384225D01*
Y381100*
X306545Y385475D02*
Y382350D01*
X306773Y381413*
X306773D02*
X307227Y381100D01*
X307909*
X308364Y381413*
X308364D02*
X309045Y382350D01*
Y385475D02*
Y381100D01*
X311091Y387663D02*
Y381100D01*
X315864Y385475D02*
Y381100D01*
Y384538D02*
X315409Y385163D01*
X315409D02*
X314955Y385475D01*
X314273*
X313818Y385163*
X313818D02*
X313364Y384538D01*
X313364D02*
X313136Y383600D01*
Y382975*
X313364Y382038*
X313364D02*
X313818Y381413D01*
X313818D02*
X314273Y381100D01*
X314955*
X315409Y381413*
X315409D02*
X315864Y382038D01*
X318591Y387663D02*
Y382350D01*
X318818Y381413*
X318818D02*
X319273Y381100D01*
X319727*
X317909Y385475D02*
X319500D01*
X321773D02*
Y381100D01*
Y383600D02*
X322000Y384538D01*
X322000D02*
X322455Y385163D01*
X322455D02*
X322909Y385475D01*
X323591*
X326773D02*
X326318Y385163D01*
X326318D02*
X325864Y384538D01*
X325864D02*
X325636Y383600D01*
Y382975*
X325864Y382038*
X325864D02*
X326318Y381413D01*
X326318D02*
X326773Y381100D01*
X327455*
X327909Y381413*
X327909D02*
X328364Y382038D01*
X328364D02*
X328591Y382975D01*
Y383600*
X328364Y384538*
X328364D02*
X327909Y385163D01*
X327909D02*
X327455Y385475D01*
X326773*
X330636D02*
Y381100D01*
Y384225D02*
X331318Y385163D01*
X331318D02*
X331773Y385475D01*
X332455*
X332909Y385163*
X332909D02*
X333136Y384225D01*
Y381100*
X289614Y377063D02*
Y370500D01*
Y377063D02*
X291659D01*
X291659D02*
X292341Y376750D01*
X292568Y376438*
X292568D02*
X292795Y375813D01*
X292795D02*
Y375188D01*
X292795D02*
X292568Y374563D01*
X292568D02*
X292341Y374250D01*
X291659Y373938*
X291659D02*
X289614D01*
X291205D02*
X292795Y370500D01*
X294841Y373000D02*
X297568D01*
Y373625*
X297341Y374250*
X297114Y374563*
X297114D02*
X296659Y374875D01*
X295977*
X295523Y374563*
X295523D02*
X295068Y373938D01*
X295068D02*
X294841Y373000D01*
Y372375*
X295068Y371438*
X295068D02*
X295523Y370813D01*
X295523D02*
X295977Y370500D01*
X296659*
X297114Y370813*
X297114D02*
X297568Y371438D01*
X299614Y374875D02*
X300977Y370500D01*
X302341Y374875D02*
X300977Y370500D01*
X309614Y375813D02*
X310068Y376125D01*
X310750Y377063*
X310750D02*
Y370500D01*
X313023Y371125D02*
X312795Y370813D01*
X312795D02*
X313023Y370500D01*
X313250Y370813*
X313250D02*
X313023Y371125D01*
X316659Y377063D02*
X315977Y376750D01*
X315523Y375813*
X315523D02*
X315295Y374250D01*
Y373313*
X315295D02*
X315523Y371750D01*
X315977Y370813*
X315977D02*
X316659Y370500D01*
X317114*
X317795Y370813*
X317795D02*
X318250Y371750D01*
X318477Y373313*
X318477D02*
Y374250D01*
X318250Y375813*
X318250D02*
X317795Y376750D01*
X317114Y377063*
X317114D02*
X316659D01*
X146091Y396950D02*
X145727Y396700D01*
X145364Y396200*
X145182Y395700*
X145000Y394950*
Y393700*
X145182Y392950*
X145364Y392450*
X145727Y391950*
X146091Y391700*
X146818*
X147182Y391950*
X147545Y392450*
X147727Y392950*
X147909Y393700*
Y394950*
X147727Y395700*
X147545Y396200*
X147182Y396700*
X146818Y396950*
X146091*
X149545Y395200D02*
Y391700D01*
Y393700D02*
X149727Y394450D01*
X150091Y394950*
X150455Y395200*
X151000*
X152636Y393700D02*
X154818D01*
Y394200*
X154636Y394700*
X154455Y394950*
X154091Y395200*
X153545*
X153182Y394950*
X152818Y394450*
X152636Y393700*
Y393200*
X152818Y392450*
X153182Y391950*
X153545Y391700*
X154091*
X154455Y391950*
X154818Y392450*
X158636Y395200D02*
Y391200D01*
X158455Y390450*
X158273Y390200*
X157909Y389950*
X157364*
X157000Y390200*
X158636Y394450D02*
X158273Y394950D01*
X157909Y395200*
X157364*
X157000Y394950*
X156636Y394450*
X156455Y393700*
Y393200*
X156636Y392450*
X157000Y391950*
X157364Y391700*
X157909*
X158273Y391950*
X158636Y392450*
X161182Y395200D02*
X160818Y394950D01*
X160455Y394450*
X160273Y393700*
Y393200*
X160455Y392450*
X160818Y391950*
X161182Y391700*
X161727*
X162091Y391950*
X162455Y392450*
X162636Y393200*
Y393700*
X162455Y394450*
X162091Y394950*
X161727Y395200*
X161182*
X164273D02*
Y391700D01*
Y394200D02*
X164818Y394950D01*
X165182Y395200*
X165727*
X166091Y394950*
X166273Y394200*
Y391700*
X174636Y396200D02*
X174273Y396700D01*
X173727Y396950*
X173000*
X172455Y396700*
X172091Y396200*
Y395700*
X172273Y395200*
X172455Y394950*
X172818Y394700*
X173909Y394200*
X174273Y393950*
X174455Y393700*
X174636Y393200*
Y392450*
X174273Y391950*
X173727Y391700*
X173000*
X172455Y391950*
X172091Y392450*
X176818Y396950D02*
Y392700D01*
X177000Y391950*
X177364Y391700*
X177727*
X176273Y395200D02*
X177545D01*
X181545D02*
Y391700D01*
Y394450D02*
X181182Y394950D01*
X180818Y395200*
X180273*
X179909Y394950*
X179545Y394450*
X179364Y393700*
Y393200*
X179545Y392450*
X179909Y391950*
X180273Y391700*
X180818*
X181182Y391950*
X181545Y392450*
X183727Y396950D02*
Y392700D01*
X183909Y391950*
X184273Y391700*
X184636*
X183182Y395200D02*
X184455D01*
X186273Y393700D02*
X188455D01*
Y394200*
X188273Y394700*
X188091Y394950*
X187727Y395200*
X187182*
X186818Y394950*
X186455Y394450*
X186273Y393700*
Y393200*
X186455Y392450*
X186818Y391950*
X187182Y391700*
X187727*
X188091Y391950*
X188455Y392450*
X194273Y396950D02*
Y393200D01*
X194455Y392450*
X194818Y391950*
X195364Y391700*
X195727*
X196273Y391950*
X196636Y392450*
X196818Y393200*
Y396950*
X198455Y395200D02*
Y391700D01*
Y394200D02*
X199000Y394950D01*
X199364Y395200*
X199909*
X200273Y394950*
X200455Y394200*
Y391700*
X202091Y396950D02*
X202273Y396700D01*
X202455Y396950*
X202273Y397200*
X202091Y396950*
X202273Y395200D02*
Y391700D01*
X204091Y395200D02*
X205182Y391700D01*
X206273Y395200D02*
X205182Y391700D01*
X207909Y393700D02*
X210091D01*
Y394200*
X209909Y394700*
X209727Y394950*
X209364Y395200*
X208818*
X208455Y394950*
X208091Y394450*
X207909Y393700*
Y393200*
X208091Y392450*
X208455Y391950*
X208818Y391700*
X209364*
X209727Y391950*
X210091Y392450*
X211727Y395200D02*
Y391700D01*
Y393700D02*
X211909Y394450D01*
X212273Y394950*
X212636Y395200*
X213182*
X216818Y394450D02*
X216636Y394950D01*
X216091Y395200*
X215545*
X215000Y394950*
X214818Y394450*
X215000Y393950*
X215364Y393700*
X216273Y393450*
X216636Y393200*
X216818Y392700*
Y392450*
X216636Y391950*
X216091Y391700*
X215545*
X215000Y391950*
X214818Y392450*
X218455Y396950D02*
X218636Y396700D01*
X218818Y396950*
X218636Y397200*
X218455Y396950*
X218636Y395200D02*
Y391700D01*
X221000Y396950D02*
Y392700D01*
X221182Y391950*
X221545Y391700*
X221909*
X220455Y395200D02*
X221727D01*
X223727D02*
X224818Y391700D01*
X225909Y395200D02*
X224818Y391700D01*
X224455Y390700*
X224091Y390200*
X223727Y389950*
X223545*
X167000Y387663D02*
Y381100D01*
Y387663D02*
X169045D01*
X169045D02*
X169727Y387350D01*
X169955Y387038*
X169955D02*
X170182Y386413D01*
X170182D02*
Y385788D01*
X170182D02*
X169955Y385163D01*
X169955D02*
X169727Y384850D01*
X169045Y384538*
X169045D02*
X167000D01*
X168591D02*
X170182Y381100D01*
X173364Y385475D02*
X172909Y385163D01*
X172909D02*
X172455Y384538D01*
X172455D02*
X172227Y383600D01*
Y382975*
X172455Y382038*
X172455D02*
X172909Y381413D01*
X172909D02*
X173364Y381100D01*
X174045*
X174500Y381413*
X174500D02*
X174955Y382038D01*
X174955D02*
X175182Y382975D01*
Y383600*
X174955Y384538*
X174955D02*
X174500Y385163D01*
X174500D02*
X174045Y385475D01*
X173364*
X177227Y387663D02*
Y381100D01*
Y384538D02*
X177682Y385163D01*
X177682D02*
X178136Y385475D01*
X178818*
X179273Y385163*
X179273D02*
X179727Y384538D01*
X179727D02*
X179955Y383600D01*
Y382975*
X179727Y382038*
X179727D02*
X179273Y381413D01*
X179273D02*
X178818Y381100D01*
X178136*
X177682Y381413*
X177682D02*
X177227Y382038D01*
X183136Y385475D02*
X182682Y385163D01*
X182682D02*
X182227Y384538D01*
X182227D02*
X182000Y383600D01*
Y382975*
X182227Y382038*
X182227D02*
X182682Y381413D01*
X182682D02*
X183136Y381100D01*
X183818*
X184273Y381413*
X184273D02*
X184727Y382038D01*
X184727D02*
X184955Y382975D01*
Y383600*
X184727Y384538*
X184727D02*
X184273Y385163D01*
X184273D02*
X183818Y385475D01*
X183136*
X187682Y387663D02*
Y382350D01*
X187909Y381413*
X187909D02*
X188364Y381100D01*
X188818*
X187000Y385475D02*
X188591D01*
X190864Y387663D02*
X191091Y387350D01*
X191318Y387663*
X191318D02*
X191091Y387975D01*
X190864Y387663*
X191091Y385475D02*
Y381100D01*
X196091Y384538D02*
X195636Y385163D01*
X195636D02*
X195182Y385475D01*
X194500*
X194045Y385163*
X194045D02*
X193591Y384538D01*
X193591D02*
X193364Y383600D01*
Y382975*
X193591Y382038*
X193591D02*
X194045Y381413D01*
X194045D02*
X194500Y381100D01*
X195182*
X195636Y381413*
X195636D02*
X196091Y382038D01*
X200636Y384538D02*
X200409Y385163D01*
X200409D02*
X199727Y385475D01*
X199045*
X198364Y385163*
X198364D02*
X198136Y384538D01*
X198136D02*
X198364Y383913D01*
X198364D02*
X198818Y383600D01*
X199955Y383288*
X199955D02*
X200409Y382975D01*
X200636Y382350*
Y382038*
X200636D02*
X200409Y381413D01*
X200409D02*
X199727Y381100D01*
X199045*
X198364Y381413*
X198364D02*
X198136Y382038D01*
X212455Y384850D02*
Y385163D01*
X212455D02*
X212227Y385475D01*
X212000*
X211773Y385163*
X211773D02*
X211545Y384538D01*
X211545D02*
X211091Y382975D01*
X210636Y382038*
X210636D02*
X210182Y381413D01*
X210182D02*
X209727Y381100D01*
X208818*
X208364Y381413*
X208364D02*
X208136Y381725D01*
X207909Y382350*
Y382975*
X208136Y383600*
X208364Y383913*
X208364D02*
X209955Y385163D01*
X209955D02*
X210182Y385475D01*
X210409Y386100*
Y386725*
X210182Y387350*
X209727Y387663*
X209727D02*
X209273Y387350D01*
X209045Y386725*
Y386100*
X209273Y385163*
X209273D02*
X209727Y384225D01*
X210864Y382038*
X210864D02*
X211318Y381413D01*
X211318D02*
X211773Y381100D01*
X212227*
X212455Y381413*
X212455D02*
Y381725D01*
X168818Y379663D02*
X167000Y373100D01*
X168818Y379663D02*
X170636Y373100D01*
X167682Y375288D02*
X169955D01*
X172682Y377475D02*
Y370912D01*
Y376538D02*
X173136Y377163D01*
X173136D02*
X173591Y377475D01*
X174273*
X174727Y377163*
X174727D02*
X175182Y376538D01*
X175182D02*
X175409Y375600D01*
Y374975*
X175182Y374038*
X175182D02*
X174727Y373413D01*
X174727D02*
X174273Y373100D01*
X173591*
X173136Y373413*
X173136D02*
X172682Y374038D01*
X177455Y377475D02*
Y370912D01*
Y376538D02*
X177909Y377163D01*
X177909D02*
X178364Y377475D01*
X179045*
X179500Y377163*
X179500D02*
X179955Y376538D01*
X179955D02*
X180182Y375600D01*
Y374975*
X179955Y374038*
X179955D02*
X179500Y373413D01*
X179500D02*
X179045Y373100D01*
X178364*
X177909Y373413*
X177909D02*
X177455Y374038D01*
X182227Y379663D02*
Y373100D01*
X184273Y379663D02*
X184500Y379350D01*
X184727Y379663*
X184727D02*
X184500Y379975D01*
X184273Y379663*
X184500Y377475D02*
Y373100D01*
X186773Y375600D02*
X189500D01*
Y376225*
X189273Y376850*
X189045Y377163*
X189045D02*
X188591Y377475D01*
X187909*
X187455Y377163*
X187455D02*
X187000Y376538D01*
X187000D02*
X186773Y375600D01*
Y374975*
X187000Y374038*
X187000D02*
X187455Y373413D01*
X187455D02*
X187909Y373100D01*
X188591*
X189045Y373413*
X189045D02*
X189500Y374038D01*
X194273Y379663D02*
Y373100D01*
Y376538D02*
X193818Y377163D01*
X193818D02*
X193364Y377475D01*
X192682*
X192227Y377163*
X192227D02*
X191773Y376538D01*
X191773D02*
X191545Y375600D01*
Y374975*
X191773Y374038*
X191773D02*
X192227Y373413D01*
X192227D02*
X192682Y373100D01*
X193364*
X193818Y373413*
X193818D02*
X194273Y374038D01*
X159682Y387663D02*
Y381100D01*
X162409*
X167000Y371663D02*
Y365100D01*
Y371663D02*
X168818Y365100D01*
X170636Y371663D02*
X168818Y365100D01*
X170636Y371663D02*
Y365100D01*
X172682Y367600D02*
X175409D01*
Y368225*
X175182Y368850*
X174955Y369163*
X174955D02*
X174500Y369475D01*
X173818*
X173364Y369163*
X173364D02*
X172909Y368538D01*
X172909D02*
X172682Y367600D01*
Y366975*
X172909Y366038*
X172909D02*
X173364Y365413D01*
X173364D02*
X173818Y365100D01*
X174500*
X174955Y365413*
X174955D02*
X175409Y366038D01*
X180182Y368538D02*
X179727Y369163D01*
X179727D02*
X179273Y369475D01*
X178591*
X178136Y369163*
X178136D02*
X177682Y368538D01*
X177682D02*
X177455Y367600D01*
Y366975*
X177682Y366038*
X177682D02*
X178136Y365413D01*
X178136D02*
X178591Y365100D01*
X179273*
X179727Y365413*
X179727D02*
X180182Y366038D01*
X182227Y371663D02*
Y365100D01*
Y368225D02*
X182909Y369163D01*
X182909D02*
X183364Y369475D01*
X184045*
X184500Y369163*
X184500D02*
X184727Y368225D01*
Y365100*
X189500Y369475D02*
Y365100D01*
Y368538D02*
X189045Y369163D01*
X189045D02*
X188591Y369475D01*
X187909*
X187455Y369163*
X187455D02*
X187000Y368538D01*
X187000D02*
X186773Y367600D01*
Y366975*
X187000Y366038*
X187000D02*
X187455Y365413D01*
X187455D02*
X187909Y365100D01*
X188591*
X189045Y365413*
X189045D02*
X189500Y366038D01*
X191545Y369475D02*
Y365100D01*
Y368225D02*
X192227Y369163D01*
X192227D02*
X192682Y369475D01*
X193364*
X193818Y369163*
X193818D02*
X194045Y368225D01*
Y365100*
X196091Y371663D02*
X196318Y371350D01*
X196545Y371663*
X196545D02*
X196318Y371975D01*
X196091Y371663*
X196318Y369475D02*
Y365100D01*
X201318Y368538D02*
X200864Y369163D01*
X200864D02*
X200409Y369475D01*
X199727*
X199273Y369163*
X199273D02*
X198818Y368538D01*
X198818D02*
X198591Y367600D01*
Y366975*
X198818Y366038*
X198818D02*
X199273Y365413D01*
X199273D02*
X199727Y365100D01*
X200409*
X200864Y365413*
X200864D02*
X201318Y366038D01*
X205864Y368538D02*
X205636Y369163D01*
X205636D02*
X204955Y369475D01*
X204273*
X203591Y369163*
X203591D02*
X203364Y368538D01*
X203364D02*
X203591Y367913D01*
X203591D02*
X204045Y367600D01*
X205182Y367288*
X205182D02*
X205636Y366975D01*
X205864Y366350*
Y366038*
X205864D02*
X205636Y365413D01*
X205636D02*
X204955Y365100D01*
X204273*
X203591Y365413*
X203591D02*
X203364Y366038D01*
X162409Y379475D02*
Y375100D01*
Y378538D02*
X161955Y379163D01*
X161955D02*
X161500Y379475D01*
X160818*
X160364Y379163*
X160364D02*
X159909Y378538D01*
X159909D02*
X159682Y377600D01*
Y376975*
X159909Y376038*
X159909D02*
X160364Y375413D01*
X160364D02*
X160818Y375100D01*
X161500*
X161955Y375413*
X161955D02*
X162409Y376038D01*
X159682Y374663D02*
Y368100D01*
Y371538D02*
X160136Y372163D01*
X160136D02*
X160591Y372475D01*
X161273*
X161727Y372163*
X161727D02*
X162182Y371538D01*
X162182D02*
X162409Y370600D01*
Y369975*
X162182Y369038*
X162182D02*
X161727Y368413D01*
X161727D02*
X161273Y368100D01*
X160591*
X160136Y368413*
X160136D02*
X159682Y369038D01*
X154623Y368463D02*
X154168D01*
X154168D02*
X153714Y368150D01*
X153486Y367213*
X153486D02*
Y361900D01*
X152805Y366275D02*
X154395D01*
X157805D02*
X157350Y365963D01*
X157350D02*
X156895Y365338D01*
X156895D02*
X156668Y364400D01*
Y363775*
X156895Y362838*
X156895D02*
X157350Y362213D01*
X157350D02*
X157805Y361900D01*
X158486*
X158941Y362213*
X158941D02*
X159395Y362838D01*
X159395D02*
X159623Y363775D01*
Y364400*
X159395Y365338*
X159395D02*
X158941Y365963D01*
X158941D02*
X158486Y366275D01*
X157805*
X161668D02*
Y361900D01*
Y364400D02*
X161895Y365338D01*
X161895D02*
X162350Y365963D01*
X162350D02*
X162805Y366275D01*
X163486*
X169623Y351963D02*
Y345400D01*
X173032Y351963D02*
X172577Y351650D01*
X172123Y351025*
X171895Y350400*
X171668Y349463*
X171668D02*
Y347900D01*
X171895Y346963*
X171895D02*
X172123Y346338D01*
X172123D02*
X172577Y345713D01*
X172577D02*
X173032Y345400D01*
X173941*
X174395Y345713*
X174395D02*
X174850Y346338D01*
X174850D02*
X175077Y346963D01*
X175077D02*
X175305Y347900D01*
Y349463*
X175305D02*
X175077Y350400D01*
X174850Y351025*
X174395Y351650*
X173941Y351963*
X173941D02*
X173032D01*
X183032D02*
X185532D01*
X185532D02*
X184168Y349463D01*
X184168D02*
X184850D01*
X184850D02*
X185305Y349150D01*
X185532Y348838*
X185532D02*
X185759Y347900D01*
Y347275*
X185532Y346338*
X185532D02*
X185077Y345713D01*
X185077D02*
X184395Y345400D01*
X183714*
X183032Y345713*
X183032D02*
X182805Y346025D01*
X182577Y346650*
X188259Y345713D02*
X188032Y345400D01*
X187805Y345713*
X187805D02*
X188032Y346025D01*
X188259Y345713*
X188259D02*
Y345087D01*
X188259D02*
X188032Y344462D01*
X188032D02*
X187805Y344150D01*
X192577Y351963D02*
X190305Y347588D01*
X190305D02*
X193714D01*
X192577Y351963D02*
Y345400D01*
X196214Y345713D02*
X195986Y345400D01*
X195759Y345713*
X195759D02*
X195986Y346025D01*
X196214Y345713*
X196214D02*
Y345087D01*
X196214D02*
X195986Y344462D01*
X195986D02*
X195759Y344150D01*
X201214Y351963D02*
X198941D01*
X198941D02*
X198714Y349150D01*
X198941Y349463*
X198941D02*
X199623Y349775D01*
X200305*
X200986Y349463*
X200986D02*
X201441Y348838D01*
X201441D02*
X201668Y347900D01*
X201441Y347275*
X201214Y346338*
X201214D02*
X200759Y345713D01*
X200759D02*
X200077Y345400D01*
X199395*
X198714Y345713*
X198714D02*
X198486Y346025D01*
X198259Y346650*
X346377Y317163D02*
Y310600D01*
X349786Y317163D02*
X349332Y316850D01*
X348877Y316225*
X348650Y315600*
X348423Y314663*
X348423D02*
Y313100D01*
X348650Y312163*
X348650D02*
X348877Y311538D01*
X348877D02*
X349332Y310913D01*
X349332D02*
X349786Y310600D01*
X350695*
X351150Y310913*
X351150D02*
X351605Y311538D01*
X351605D02*
X351832Y312163D01*
X351832D02*
X352059Y313100D01*
Y314663*
X352059D02*
X351832Y315600D01*
X351605Y316225*
X351150Y316850*
X350695Y317163*
X350695D02*
X349786D01*
X360695D02*
X360014Y316850D01*
X359559Y315913*
X359559D02*
X359332Y314350D01*
Y313413*
X359332D02*
X359559Y311850D01*
X360014Y310913*
X360014D02*
X360695Y310600D01*
X361150*
X361832Y310913*
X361832D02*
X362286Y311850D01*
X362514Y313413*
X362514D02*
Y314350D01*
X362286Y315913*
X362286D02*
X361832Y316850D01*
X361150Y317163*
X361150D02*
X360695D01*
X293377Y225563D02*
Y219000D01*
X296786Y225563D02*
X296332Y225250D01*
X295877Y224625*
X295650Y224000*
X295423Y223063*
X295423D02*
Y221500D01*
X295650Y220563*
X295650D02*
X295877Y219938D01*
X295877D02*
X296332Y219313D01*
X296332D02*
X296786Y219000D01*
X297695*
X298150Y219313*
X298150D02*
X298605Y219938D01*
X298605D02*
X298832Y220563D01*
X298832D02*
X299059Y221500D01*
Y223063*
X299059D02*
X298832Y224000D01*
X298605Y224625*
X298150Y225250*
X297695Y225563*
X297695D02*
X296786D01*
X306559Y224000D02*
Y224313D01*
X306559D02*
X306786Y224938D01*
X306786D02*
X307014Y225250D01*
X307468Y225563*
X307468D02*
X308377D01*
X308377D02*
X308832Y225250D01*
X309059Y224938*
X309059D02*
X309286Y224313D01*
X309286D02*
Y223688D01*
X309286D02*
X309059Y223063D01*
X309059D02*
X308605Y222125D01*
X306332Y219000*
X309514*
X316400Y176663D02*
Y170100D01*
X319809Y176663D02*
X319355Y176350D01*
X318900Y175725*
X318673Y175100*
X318445Y174163*
X318445D02*
Y172600D01*
X318673Y171663*
X318673D02*
X318900Y171038D01*
X318900D02*
X319355Y170413D01*
X319355D02*
X319809Y170100D01*
X320718*
X321173Y170413*
X321173D02*
X321627Y171038D01*
X321627D02*
X321855Y171663D01*
X321855D02*
X322082Y172600D01*
Y174163*
X322082D02*
X321855Y175100D01*
X321627Y175725*
X321173Y176350*
X320718Y176663*
X320718D02*
X319809D01*
X329355Y175413D02*
X329809Y175725D01*
X330491Y176663*
X330491D02*
Y170100D01*
G54D42*
X213400Y361600D02*
X166000D01*
Y388100*
G54D64*
X119222Y272257D02*
X130009D01*
X119261Y241943D02*
X129931D01*
X277094Y355670D02*
X277406Y355784D01*
X277719Y356011*
X277875Y356239*
Y356693*
X277719Y356920*
X277406Y357148*
X277094Y357261*
X276625Y357375*
X275844*
X275375Y357261*
X275063Y357148*
X275063D02*
X274750Y356920D01*
X274594Y356693*
Y356239*
X274750Y356011*
X275063Y355784*
X275063D02*
X275375Y355670D01*
X277250Y354648D02*
X277406Y354420D01*
X277875Y354080*
X274594*
X271906Y355955D02*
X272219Y356068D01*
X272531Y356295*
X272687Y356523*
X272687D02*
Y356977D01*
X272687D02*
X272531Y357205D01*
X272219Y357432*
X271906Y357545*
X271437Y357659*
X271437D02*
X270656D01*
X270187Y357545*
X270187D02*
X269875Y357432D01*
X269562Y357205*
X269562D02*
X269406Y356977D01*
Y356523*
X269562Y356295*
X269562D02*
X269875Y356068D01*
X270187Y355955*
X271906Y354818D02*
X272062D01*
X272062D02*
X272375Y354705D01*
X272531Y354591*
X272687Y354364*
X272687D02*
Y353909D01*
X272687D02*
X272531Y353682D01*
X272375Y353568*
X272062Y353455*
X272062D02*
X271750D01*
X271437Y353568*
X271437D02*
X270969Y353795D01*
X269406Y354932*
Y353341*
X267045Y328906D02*
X266932Y329219D01*
X266705Y329531*
X266477Y329688*
X266477D02*
X266023D01*
X266023D02*
X265795Y329531D01*
X265568Y329219*
X265455Y328906*
X265341Y328438*
X265341D02*
Y327656D01*
X265455Y327188*
X265455D02*
X265568Y326875D01*
X265795Y326563*
X265795D02*
X266023Y326406D01*
X266477*
X266705Y326563*
X266705D02*
X266932Y326875D01*
X267045Y327188*
X268295Y329688D02*
X269545D01*
X269545D02*
X268864Y328438D01*
X268864D02*
X269205D01*
X269205D02*
X269432Y328281D01*
X269545Y328125*
X269659Y327656*
Y327344*
X269545Y326875*
X269318Y326563*
X269318D02*
X268977Y326406D01*
X268636*
X268295Y326563*
X268295D02*
X268182Y326719D01*
X268068Y327031*
X221261Y335594D02*
X221148Y335906D01*
X220920Y336219*
X220693Y336375*
X220239*
X220011Y336219*
X219784Y335906*
X219670Y335594*
X219557Y335125*
Y334344*
X219670Y333875*
X219784Y333563*
X219784D02*
X220011Y333250D01*
X220239Y333094*
X220693*
X220920Y333250*
X221148Y333563*
X221148D02*
X221261Y333875D01*
X223420Y336375D02*
X222284Y334188D01*
X222284D02*
X223989D01*
X223420Y336375D02*
Y333094D01*
X283687Y357614D02*
X280406D01*
Y356250*
X283062Y355227D02*
X283219Y355000D01*
X283687Y354659*
X283687D02*
X280406D01*
X120236Y283281D02*
Y280781D01*
X120123Y280313*
X120123D02*
X120009Y280156D01*
X119782Y280000*
X119555*
X119327Y280156*
X119214Y280313*
X119214D02*
X119100Y280781D01*
Y281094*
X121259Y282656D02*
X121486Y282813D01*
X121486D02*
X121827Y283281D01*
Y280000*
X167687Y256182D02*
X164406D01*
X167687D02*
Y255386D01*
X167687D02*
X167531Y255045D01*
X167219Y254818*
X166906Y254705*
X166437Y254591*
X166437D02*
X165656D01*
X165187Y254705*
X165187D02*
X164875Y254818D01*
X164562Y255045*
X164562D02*
X164406Y255386D01*
Y256182*
X167062Y253568D02*
X167219Y253341D01*
X167687Y253000*
X167687D02*
X164406D01*
X265330Y251687D02*
Y249344D01*
X265443Y248875*
X265670Y248562*
X265670D02*
X266011Y248406D01*
X266239*
X266580Y248562*
X266580D02*
X266807Y248875D01*
X266920Y249344*
Y251687*
X268170D02*
X269420D01*
X269420D02*
X268739Y250437D01*
X268739D02*
X269080D01*
X269080D02*
X269307Y250281D01*
X269420Y250125*
X269534Y249656*
Y249344*
X269420Y248875*
X269193Y248562*
X269193D02*
X268852Y248406D01*
X268511*
X268170Y248562*
X268170D02*
X268057Y248719D01*
X267943Y249031*
X265875Y304906D02*
X265761Y305219D01*
X265534Y305531*
X265307Y305688*
X265307D02*
X264852D01*
X264852D02*
X264625Y305531D01*
X264398Y305219*
X264284Y304906*
X264170Y304438*
X264170D02*
Y303656D01*
X264284Y303188*
X264284D02*
X264398Y302875D01*
X264625Y302563*
X264625D02*
X264852Y302406D01*
X265307*
X265534Y302563*
X265534D02*
X265761Y302875D01*
X265875Y303188*
X268375Y305688D02*
X267239D01*
X267239D02*
X267125Y304281D01*
X267239Y304438*
X267239D02*
X267580Y304594D01*
X267920*
X268261Y304438*
X268261D02*
X268489Y304125D01*
X268602Y303656*
X268489Y303344*
X268375Y302875*
X268148Y302563*
X268148D02*
X267807Y302406D01*
X267466*
X267125Y302563*
X267125D02*
X267011Y302719D01*
X266898Y303031*
X213875Y255094D02*
X213761Y255406D01*
X213534Y255719*
X213307Y255875*
X212852*
X212625Y255719*
X212398Y255406*
X212284Y255094*
X212170Y254625*
Y253844*
X212284Y253375*
X212398Y253063*
X212398D02*
X212625Y252750D01*
X212852Y252594*
X213307*
X213534Y252750*
X213761Y253063*
X213761D02*
X213875Y253375D01*
X216261Y255406D02*
X216148Y255719D01*
X215807Y255875*
X215580*
X215239Y255719*
X215011Y255250*
X214898Y254469*
Y253688*
X214898D02*
X215011Y253063D01*
X215011D02*
X215239Y252750D01*
X215580Y252594*
X215693*
X216034Y252750*
X216261Y253063*
X216261D02*
X216375Y253531D01*
Y253688*
X216375D02*
X216261Y254156D01*
X216034Y254469*
X215693Y254625*
X215580*
X215239Y254469*
X215011Y254156*
X214898Y253688*
X268818Y241094D02*
X268705Y241406D01*
X268477Y241719*
X268250Y241875*
X267795*
X267568Y241719*
X267341Y241406*
X267227Y241094*
X267114Y240625*
Y239844*
X267227Y239375*
X267341Y239063*
X267341D02*
X267568Y238750D01*
X267795Y238594*
X268250*
X268477Y238750*
X268705Y239063*
X268705D02*
X268818Y239375D01*
X271432Y241875D02*
X270295Y238594D01*
X269841Y241875D02*
X271432D01*
X226026Y306114D02*
X225912Y306426D01*
X225685Y306739*
X225457Y306895*
X225003*
X224776Y306739*
X224548Y306426*
X224435Y306114*
X224321Y305645*
Y304864*
X224435Y304395*
X224548Y304082*
X224776Y303770*
X225003Y303614*
X225457*
X225685Y303770*
X225912Y304082*
X226026Y304395*
X227616Y306895D02*
X227276Y306739D01*
X227162Y306426*
Y306114*
X227276Y305801*
X227503Y305645*
X227957Y305489*
X228298Y305332*
X228526Y305020*
X228639Y304707*
Y304239*
X228526Y303926*
X228412Y303770*
X228071Y303614*
X227616*
X227276Y303770*
X227162Y303926*
X227048Y304239*
Y304707*
X227162Y305020*
X227389Y305332*
X227730Y305489*
X228185Y305645*
X228412Y305801*
X228526Y306114*
Y306426*
X228412Y306739*
X228071Y306895*
X227616*
X277906Y247784D02*
X278219Y247898D01*
X278531Y248125*
X278687Y248352*
X278687D02*
Y248807D01*
X278687D02*
X278531Y249034D01*
X278219Y249261*
X277906Y249375*
X277437Y249489*
X277437D02*
X276656D01*
X276187Y249375*
X276187D02*
X275875Y249261D01*
X275562Y249034*
X275562D02*
X275406Y248807D01*
Y248352*
X275562Y248125*
X275562D02*
X275875Y247898D01*
X276187Y247784*
X277594Y245284D02*
X277125Y245398D01*
X276812Y245625*
X276812D02*
X276656Y245966D01*
Y246080*
X276812Y246420*
X276812D02*
X277125Y246648D01*
X277594Y246761*
X277750*
X278219Y246648*
X278531Y246420*
X278687Y246080*
X278687D02*
Y245966D01*
X278687D02*
X278531Y245625D01*
X278219Y245398*
X277594Y245284*
X276812*
X276812D02*
X276031Y245398D01*
X275562Y245625*
X275562D02*
X275406Y245966D01*
Y246193*
X275562Y246534*
X275562D02*
X275875Y246648D01*
X209023Y251094D02*
X208909Y251406D01*
X208682Y251719*
X208455Y251875*
X208000*
X207773Y251719*
X207545Y251406*
X207432Y251094*
X207318Y250625*
Y249844*
X207432Y249375*
X207545Y249063*
X207545D02*
X207773Y248750D01*
X208000Y248594*
X208455*
X208682Y248750*
X208909Y249063*
X208909D02*
X209023Y249375D01*
X210045Y251250D02*
X210273Y251406D01*
X210614Y251875*
Y248594*
X212318Y251875D02*
X211977Y251719D01*
X211750Y251250*
X211636Y250469*
Y250000*
X211750Y249219*
X211977Y248750*
X212318Y248594*
X212545*
X212886Y248750*
X213114Y249219*
X213227Y250000*
Y250469*
X213114Y251250*
X212886Y251719*
X212545Y251875*
X212318*
X280906Y291807D02*
X281219Y291920D01*
X281531Y292148*
X281687Y292375*
X281687D02*
Y292830D01*
X281687D02*
X281531Y293057D01*
X281219Y293284*
X280906Y293398*
X280437Y293511*
X280437D02*
X279656D01*
X279187Y293398*
X279187D02*
X278875Y293284D01*
X278562Y293057*
X278562D02*
X278406Y292830D01*
Y292375*
X278562Y292148*
X278562D02*
X278875Y291920D01*
X279187Y291807*
X281062Y290784D02*
X281219Y290557D01*
X281687Y290216*
X281687D02*
X278406D01*
X281062Y289193D02*
X281219Y288966D01*
X281687Y288625*
X281687D02*
X278406D01*
X289906Y288341D02*
X290219Y288455D01*
X290531Y288682*
X290687Y288909*
X290687D02*
Y289364D01*
X290687D02*
X290531Y289591D01*
X290219Y289818*
X289906Y289932*
X289437Y290045*
X289437D02*
X288656D01*
X288187Y289932*
X288187D02*
X287875Y289818D01*
X287562Y289591*
X287562D02*
X287406Y289364D01*
Y288909*
X287562Y288682*
X287562D02*
X287875Y288455D01*
X288187Y288341*
X290062Y287318D02*
X290219Y287091D01*
X290687Y286750*
X290687D02*
X287406D01*
X289906Y285614D02*
X290062D01*
X290062D02*
X290375Y285500D01*
X290531Y285386*
X290687Y285159*
X290687D02*
Y284705D01*
X290687D02*
X290531Y284477D01*
X290375Y284364*
X290062Y284250*
X290062D02*
X289750D01*
X289437Y284364*
X289437D02*
X288969Y284591D01*
X287406Y285727*
Y284136*
X159330Y119688D02*
Y116406D01*
Y119688D02*
X160125D01*
X160125D02*
X160466Y119531D01*
X160693Y119219*
X160807Y118906*
X160920Y118438*
X160920D02*
Y117656D01*
X160807Y117188*
X160807D02*
X160693Y116875D01*
X160466Y116563*
X160466D02*
X160125Y116406D01*
X159330*
X162057Y118906D02*
Y119063D01*
X162057D02*
X162170Y119375D01*
X162284Y119531*
X162511Y119688*
X162511D02*
X162966D01*
X162966D02*
X163193Y119531D01*
X163307Y119375*
X163420Y119063*
X163420D02*
Y118750D01*
X163307Y118438*
X163307D02*
X163080Y117969D01*
X161943Y116406*
X163534*
X339594Y264611D02*
Y261330D01*
Y264611D02*
X340389D01*
X340730Y264455*
X340957Y264142*
X341071Y263830*
X341185Y263361*
Y262580*
X341071Y262111*
X340957Y261798*
X340730Y261486*
X340389Y261330*
X339594*
X342435Y264611D02*
X343685D01*
X343003Y263361*
X343344*
X343571Y263205*
X343685Y263048*
X343798Y262580*
Y262267*
X343685Y261798*
X343457Y261486*
X343116Y261330*
X342776*
X342435Y261486*
X342321Y261642*
X342207Y261955*
X331594Y264668D02*
Y261386D01*
Y264668D02*
X332389D01*
X332730Y264511*
X332957Y264199*
X333071Y263886*
X333185Y263418*
Y262636*
X333071Y262168*
X332957Y261855*
X332730Y261543*
X332389Y261386*
X331594*
X335344Y264668D02*
X334207Y262480D01*
X335912*
X335344Y264668D02*
Y261386D01*
X190614Y125875D02*
Y123531D01*
X190727Y123063*
X190727D02*
X190955Y122750D01*
X191295Y122594*
X191523*
X191864Y122750*
X192091Y123063*
X192091D02*
X192205Y123531D01*
Y125875*
X194364D02*
X193227Y123688D01*
X193227D02*
X194932D01*
X194364Y125875D02*
Y122594D01*
X210494Y148368D02*
Y145086D01*
Y148368D02*
X211289D01*
X211630Y148211*
X211857Y147899*
X211971Y147586*
X212085Y147118*
Y146336*
X211971Y145868*
X211857Y145555*
X211630Y145243*
X211289Y145086*
X210494*
X214585Y148368D02*
X213448D01*
X213335Y146961*
X213448Y147118*
X213789Y147274*
X214130*
X214471Y147118*
X214698Y146805*
X214812Y146336*
X214698Y146024*
X214585Y145555*
X214357Y145243*
X214016Y145086*
X213676*
X213335Y145243*
X213221Y145399*
X213107Y145711*
X216682Y118875D02*
Y115594D01*
Y118875D02*
X217705D01*
X218045Y118719*
X218159Y118563*
X218159D02*
X218273Y118250D01*
Y117938*
X218273D02*
X218159Y117625D01*
X218045Y117469*
X217705Y117313*
X217705D02*
X216682D01*
X217477D02*
X218273Y115594D01*
X219295Y118250D02*
X219523Y118406D01*
X219864Y118875*
Y115594*
X198170Y120875D02*
Y117594D01*
Y120875D02*
X199193D01*
X199534Y120719*
X199648Y120563*
X199648D02*
X199761Y120250D01*
Y119938*
X199761D02*
X199648Y119625D01*
X199534Y119469*
X199193Y119313*
X199193D02*
X198170D01*
X198966D02*
X199761Y117594D01*
X200898Y120094D02*
Y120250D01*
X201011Y120563*
X201011D02*
X201125Y120719D01*
X201352Y120875*
X201807*
X202034Y120719*
X202148Y120563*
X202148D02*
X202261Y120250D01*
Y119938*
X202261D02*
X202148Y119625D01*
X201920Y119156*
X200784Y117594*
X202375*
X170721Y171661D02*
X170607Y171974D01*
X170380Y172286*
X170153Y172443*
X169698*
X169471Y172286*
X169244Y171974*
X169130Y171661*
X169016Y171193*
Y170411*
X169130Y169943*
X169244Y169630*
X169471Y169318*
X169698Y169161*
X170153*
X170380Y169318*
X170607Y169630*
X170721Y169943*
X171744Y171818D02*
X171971Y171974D01*
X172312Y172443*
Y169161*
X174471Y172443D02*
X173335Y170255D01*
X175039*
X174471Y172443D02*
Y169161D01*
X175966Y114094D02*
X175852Y114406D01*
X175625Y114719*
X175398Y114875*
X174943*
X174716Y114719*
X174489Y114406*
X174375Y114094*
X174261Y113625*
Y112844*
X174375Y112375*
X174489Y112063*
X174489D02*
X174716Y111750D01*
X174943Y111594*
X175398*
X175625Y111750*
X175852Y112063*
X175852D02*
X175966Y112375D01*
X176989Y114250D02*
X177216Y114406D01*
X177557Y114875*
Y111594*
X180057Y114875D02*
X178920D01*
X178807Y113469*
X178920Y113625*
X179261Y113781*
X179602*
X179943Y113625*
X180170Y113313*
X180170D02*
X180284Y112844D01*
X180170Y112531*
X180057Y112063*
X180057D02*
X179830Y111750D01*
X179489Y111594*
X179148*
X178807Y111750*
X178693Y111906*
X178580Y112219*
X170935Y123452D02*
Y120170D01*
Y123452D02*
X171957D01*
X172298Y123295*
X172412Y123139*
X172526Y122827*
Y122514*
X172412Y122202*
X172298Y122045*
X171957Y121889*
X170935*
X171730D02*
X172526Y120170D01*
X173776Y123452D02*
X175026D01*
X174344Y122202*
X174685*
X174912Y122045*
X175026Y121889*
X175139Y121420*
Y121108*
X175026Y120639*
X174798Y120327*
X174457Y120170*
X174116*
X173776Y120327*
X173662Y120483*
X173548Y120795*
X222795Y124879D02*
X219514D01*
X222795D02*
Y123856D01*
X222639Y123515*
X222482Y123402*
X222170Y123288*
X221857*
X221545Y123402*
X221389Y123515*
X221232Y123856*
Y124879*
Y124084D02*
X219514Y123288D01*
X222795Y121129D02*
X220607Y122265D01*
Y120561*
X222795Y121129D02*
X219514D01*
X213043Y142230D02*
X213356Y142343D01*
X213668Y142571*
X213824Y142798*
Y143252*
X213668Y143480*
X213356Y143707*
X213043Y143821*
X212574Y143934*
X211793*
X211324Y143821*
X211012Y143707*
X210699Y143480*
X210543Y143252*
Y142798*
X210699Y142571*
X211012Y142343*
X211324Y142230*
X213199Y141207D02*
X213356Y140980D01*
X213824Y140639*
X210543*
X213356Y138252D02*
X213668Y138366D01*
X213824Y138707*
Y138934*
X213668Y139275*
X213199Y139502*
X212418Y139616*
X211637*
X211012Y139502*
X210699Y139275*
X210543Y138934*
Y138821*
X210699Y138480*
X211012Y138252*
X211481Y138139*
X211637*
X212106Y138252*
X212418Y138480*
X212574Y138821*
Y138934*
X212418Y139275*
X212106Y139502*
X211637Y139616*
X218043Y142343D02*
X218356Y142457D01*
X218668Y142684*
X218824Y142912*
Y143366*
X218668Y143593*
X218356Y143821*
X218043Y143934*
X217574Y144048*
X216793*
X216324Y143934*
X216012Y143821*
X215699Y143593*
X215543Y143366*
Y142912*
X215699Y142684*
X216012Y142457*
X216324Y142343*
X218199Y141321D02*
X218356Y141093D01*
X218824Y140752*
X215543*
X218824Y138139D02*
X215543Y139275D01*
X218824Y139730D02*
Y138139D01*
X167682Y144702D02*
X167994Y144815D01*
X168307Y145043*
X168463Y145270*
Y145724*
X168307Y145952*
X167994Y146179*
X167682Y146293*
X167213Y146406*
X166432*
X165963Y146293*
X165651Y146179*
X165338Y145952*
X165182Y145724*
Y145270*
X165338Y145043*
X165651Y144815*
X165963Y144702*
X167838Y143679D02*
X167994Y143452D01*
X168463Y143111*
X165182*
X168463Y141520D02*
X168307Y141861D01*
X167994Y141974*
X167682*
X167369Y141861*
X167213Y141634*
X167057Y141179*
X166901Y140838*
X166588Y140611*
X166276Y140497*
X165807*
X165494Y140611*
X165338Y140724*
X165182Y141065*
Y141520*
X165338Y141861*
X165494Y141974*
X165807Y142088*
X166276*
X166588Y141974*
X166901Y141747*
X167057Y141406*
X167213Y140952*
X167369Y140724*
X167682Y140611*
X167994*
X168307Y140724*
X168463Y141065*
Y141520*
X171168Y133366D02*
X167886D01*
X171168D02*
Y132344D01*
X171011Y132003*
X170855Y131889*
X170543Y131776*
X170230*
X169918Y131889*
X169761Y132003*
X169605Y132344*
Y133366*
Y132571D02*
X167886Y131776D01*
X171168Y129276D02*
Y130412D01*
X169761Y130526*
X169918Y130412*
X170074Y130071*
Y129730*
X169918Y129389*
X169605Y129162*
X169136Y129048*
X168824Y129162*
X168355Y129276*
X168043Y129503*
X167886Y129844*
Y130185*
X168043Y130526*
X168199Y130639*
X168511Y130753*
X192180Y174694D02*
X192066Y175006D01*
X191839Y175319*
X191611Y175475*
X191157*
X190930Y175319*
X190702Y175006*
X190589Y174694*
X190475Y174225*
Y173444*
X190589Y172975*
X190702Y172663*
X190702D02*
X190930Y172350D01*
X191157Y172194*
X191611*
X191839Y172350*
X192066Y172663*
X192066D02*
X192180Y172975D01*
X193202Y174850D02*
X193430Y175006D01*
X193770Y175475*
Y172194*
X196270Y174381D02*
X196157Y173913D01*
X196157D02*
X195930Y173600D01*
X195589Y173444*
X195475*
X195134Y173600*
X194907Y173913*
X194907D02*
X194793Y174381D01*
Y174538*
X194793D02*
X194907Y175006D01*
X195134Y175319*
X195475Y175475*
X195589*
X195930Y175319*
X196157Y175006*
X196270Y174381*
Y173600*
X196157Y172819*
X195930Y172350*
X195589Y172194*
X195361*
X195020Y172350*
X194907Y172663*
X180511Y174794D02*
X180398Y175106D01*
X180170Y175419*
X179943Y175575*
X179489*
X179261Y175419*
X179034Y175106*
X178920Y174794*
X178807Y174325*
Y173544*
X178920Y173075*
X179034Y172763*
X179034D02*
X179261Y172450D01*
X179489Y172294*
X179943*
X180170Y172450*
X180398Y172763*
X180398D02*
X180511Y173075D01*
X181648Y174794D02*
Y174950D01*
X181761Y175263*
X181761D02*
X181875Y175419D01*
X182102Y175575*
X182557*
X182784Y175419*
X182898Y175263*
X182898D02*
X183011Y174950D01*
Y174638*
X183011D02*
X182898Y174325D01*
X182670Y173856*
X181534Y172294*
X183125*
X184830Y175575D02*
X184489Y175419D01*
X184261Y174950*
X184148Y174169*
Y173700*
X184261Y172919*
X184489Y172450*
X184830Y172294*
X185057*
X185398Y172450*
X185625Y172919*
X185739Y173700*
Y174169*
X185625Y174950*
X185398Y175419*
X185057Y175575*
X184830*
X155384Y194270D02*
X152884D01*
X152415Y194384*
X152259Y194497*
X152102Y194724*
Y194952*
X152259Y195179*
X152415Y195293*
X152884Y195406*
X153196*
X154602Y193134D02*
X154759D01*
X155071Y193020*
X155227Y192906*
X155384Y192679*
Y192224*
X155227Y191997*
X155071Y191884*
X154759Y191770*
X154446*
X154134Y191884*
X153665Y192111*
X152102Y193247*
Y191656*
X282659Y210906D02*
X282545Y211219D01*
X282318Y211531*
X282091Y211688*
X282091D02*
X281636D01*
X281636D02*
X281409Y211531D01*
X281182Y211219*
X281068Y210906*
X280955Y210438*
X280955D02*
Y209656D01*
X281068Y209188*
X281068D02*
X281182Y208875D01*
X281409Y208563*
X281409D02*
X281636Y208406D01*
X282091*
X282318Y208563*
X282318D02*
X282545Y208875D01*
X282659Y209188*
X283795Y210906D02*
Y211063D01*
X283795D02*
X283909Y211375D01*
X284023Y211531*
X284250Y211688*
X284250D02*
X284705D01*
X284705D02*
X284932Y211531D01*
X285045Y211375*
X285159Y211063*
X285159D02*
Y210750D01*
X285045Y210438*
X285045D02*
X284818Y209969D01*
X283682Y208406*
X285273*
X286295Y211063D02*
X286523Y211219D01*
X286864Y211688*
X286864D02*
Y208406D01*
X216294Y148197D02*
Y144916D01*
X217657*
X218794Y147416D02*
Y147572D01*
X218907Y147885*
X219021Y148041*
X219248Y148197*
X219703*
X219930Y148041*
X220044Y147885*
X220157Y147572*
Y147260*
X220044Y146947*
X219816Y146478*
X218680Y144916*
X220271*
X158682Y113688D02*
Y110406D01*
Y113688D02*
X159705D01*
X159705D02*
X160045Y113531D01*
X160159Y113375*
X160273Y113063*
X160273D02*
Y112750D01*
X160159Y112438*
X160159D02*
X160045Y112281D01*
X159705Y112125*
X158682*
X159477D02*
X160273Y110406D01*
X162659Y113219D02*
X162545Y113531D01*
X162205Y113688*
X162205D02*
X161977D01*
X161977D02*
X161636Y113531D01*
X161409Y113063*
X161409D02*
X161295Y112281D01*
Y111500*
X161409Y110875*
X161636Y110563*
X161636D02*
X161977Y110406D01*
X162091*
X162432Y110563*
X162432D02*
X162659Y110875D01*
X162773Y111344*
Y111500*
X162659Y111969*
X162432Y112281*
X162091Y112438*
X162091D02*
X161977D01*
X161977D02*
X161636Y112281D01*
X161409Y111969*
X161295Y111500*
X287906Y352875D02*
X288219Y352989D01*
X288531Y353216*
X288687Y353443*
X288687D02*
Y353898D01*
X288687D02*
X288531Y354125D01*
X288219Y354352*
X287906Y354466*
X287437Y354580*
X287437D02*
X286656D01*
X286187Y354466*
X286187D02*
X285875Y354352D01*
X285562Y354125*
X285562D02*
X285406Y353898D01*
Y353443*
X285562Y353216*
X285562D02*
X285875Y352989D01*
X286187Y352875*
X287906Y351739D02*
X288062D01*
X288062D02*
X288375Y351625D01*
X288531Y351511*
X288687Y351284*
X288687D02*
Y350830D01*
X288687D02*
X288531Y350602D01*
X288375Y350489*
X288062Y350375*
X288062D02*
X287750D01*
X287437Y350489*
X287437D02*
X286969Y350716D01*
X285406Y351852*
Y350261*
X288687Y349011D02*
Y347761D01*
X288687D02*
X287437Y348443D01*
X287437D02*
Y348102D01*
X287437D02*
X287281Y347875D01*
X287125Y347761*
X286656Y347648*
X286344*
X285875Y347761*
X285562Y347989*
X285562D02*
X285406Y348330D01*
Y348670*
X285562Y349011*
X285562D02*
X285719Y349125D01*
X286031Y349239*
X308611Y323750D02*
X308497Y324063D01*
X308497D02*
X308270Y324375D01*
X308043Y324531*
X307588*
X307361Y324375*
X307134Y324063*
X307134D02*
X307020Y323750D01*
X306906Y323281*
Y322500*
X307020Y322031*
X307134Y321719*
X307361Y321406*
X307588Y321250*
X308043*
X308270Y321406*
X308497Y321719*
X308611Y322031*
X309747Y323750D02*
Y323906D01*
X309861Y324219*
X309974Y324375*
X310202Y324531*
X310656*
X310884Y324375*
X310997Y324219*
X311111Y323906*
Y323594*
X310997Y323281*
X310770Y322813*
X310770D02*
X309634Y321250D01*
X311224*
X313384Y324531D02*
X312247Y322344D01*
X313952*
X313384Y324531D02*
Y321250D01*
X269727Y319175D02*
Y315894D01*
X271091*
X273591Y319175D02*
X272455D01*
X272341Y317769*
X272455Y317925*
X272795Y318081*
X273136*
X273477Y317925*
X273705Y317613*
X273705D02*
X273818Y317144D01*
X273705Y316831*
X273591Y316363*
X273591D02*
X273364Y316050D01*
X273023Y315894*
X272682*
X272341Y316050*
X272227Y316206*
X272114Y316519*
X300170Y318875D02*
Y315594D01*
Y318875D02*
X301193D01*
X301534Y318719*
X301648Y318563*
X301761Y318250*
Y317938*
X301648Y317625*
X301534Y317469*
X301193Y317313*
X300170*
X300966D02*
X301761Y315594D01*
X303352Y318875D02*
X303011Y318719D01*
X302898Y318406*
Y318094*
X303011Y317781*
X303239Y317625*
X303693Y317469*
X304034Y317313*
X304261Y317000*
X304375Y316688*
Y316219*
X304261Y315906*
X304148Y315750*
X303807Y315594*
X303352*
X303011Y315750*
X302898Y315906*
X302784Y316219*
Y316688*
X302898Y317000*
X303125Y317313*
X303466Y317469*
X303920Y317625*
X304148Y317781*
X304261Y318094*
Y318406*
X304148Y318719*
X303807Y318875*
X303352*
X139063Y304624D02*
X138836Y304936D01*
X138495Y305092*
X138041*
X137700Y304936*
X137472Y304624*
Y304311*
X137586Y303999*
X137700Y303842*
X137927Y303686*
X138609Y303374*
X138836Y303217*
X138950Y303061*
X139063Y302749*
Y302280*
X138836Y301967*
X138495Y301811*
X138041*
X137700Y301967*
X137472Y302280*
X140086Y304467D02*
X140313Y304624D01*
X140654Y305092*
Y301811*
X158688Y305875D02*
X155406D01*
X158688D02*
Y304852D01*
X158688D02*
X158531Y304511D01*
X158375Y304398*
X158063Y304284*
X158063D02*
X157750D01*
X157438Y304398*
X157438D02*
X157281Y304511D01*
X157125Y304852*
Y305875*
Y305080D02*
X155406Y304284D01*
X158063Y303261D02*
X158219Y303034D01*
X158688Y302693*
X158688D02*
X155406D01*
X158688Y300989D02*
X158531Y301330D01*
X158063Y301557*
X158063D02*
X157281Y301670D01*
X156813*
X156813D02*
X156031Y301557D01*
X155563Y301330*
X155563D02*
X155406Y300989D01*
Y300761*
X155563Y300420*
X155563D02*
X156031Y300193D01*
X156813Y300080*
X156813D02*
X157281D01*
X158063Y300193*
X158063D02*
X158531Y300420D01*
X158688Y300761*
X158688D02*
Y300989D01*
X286932Y247687D02*
X287841Y246125D01*
Y244406*
X288750Y247687D02*
X287841Y246125D01*
X289773Y247062D02*
X290000Y247219D01*
X290341Y247687*
X290341D02*
Y244406D01*
X305094Y261545D02*
X305406Y261659D01*
X305719Y261886*
X305875Y262114*
Y262568*
X305719Y262795*
X305406Y263023*
X305094Y263136*
X304625Y263250*
X303844*
X303375Y263136*
X303063Y263023*
X303063D02*
X302750Y262795D01*
X302594Y262568*
Y262114*
X302750Y261886*
X303063Y261659*
X303063D02*
X303375Y261545D01*
X305094Y260409D02*
X305250D01*
X305563Y260295*
X305563D02*
X305719Y260182D01*
X305875Y259955*
Y259500*
X305719Y259273*
X305563Y259159*
X305563D02*
X305250Y259045D01*
X304938*
X304938D02*
X304625Y259159D01*
X304156Y259386*
X302594Y260523*
Y258932*
X305875Y256432D02*
Y257568D01*
X304469Y257682*
X304625Y257568*
X304781Y257227*
Y256886*
X304625Y256545*
X304313Y256318*
X304313D02*
X303844Y256205D01*
X303531Y256318*
X303063Y256432*
X303063D02*
X302750Y256659D01*
X302594Y257000*
Y257341*
X302750Y257682*
X302906Y257795*
X303219Y257909*
X167330Y268687D02*
Y265406D01*
Y268687D02*
X168125D01*
X168125D02*
X168466Y268531D01*
X168693Y268219*
X168807Y267906*
X168920Y267437*
X168920D02*
Y266656D01*
X168807Y266187*
X168807D02*
X168693Y265875D01*
X168466Y265562*
X168466D02*
X168125Y265406D01*
X167330*
X171534Y268687D02*
X170398Y265406D01*
X169943Y268687D02*
X171534D01*
X108736Y334629D02*
Y332129D01*
X108623Y331661*
X108509Y331504*
X108282Y331348*
X108055*
X107827Y331504*
X107714Y331661*
X107600Y332129*
Y332442*
X109986Y334629D02*
X111236D01*
X110555Y333379*
X110895*
X111123Y333223*
X111236Y333067*
X111350Y332598*
Y332286*
X111236Y331817*
X111009Y331504*
X110668Y331348*
X110327*
X109986Y331504*
X109873Y331661*
X109759Y331973*
X127687Y317409D02*
X124406D01*
X127687D02*
Y316386D01*
X127687D02*
X127531Y316045D01*
X127375Y315932*
X127062Y315818*
X127062D02*
X126750D01*
X126437Y315932*
X126437D02*
X126281Y316045D01*
X126125Y316386*
Y317409*
Y316614D02*
X124406Y315818D01*
X126906Y314682D02*
X127062D01*
X127062D02*
X127375Y314568D01*
X127531Y314455*
X127687Y314227*
X127687D02*
Y313773D01*
X127687D02*
X127531Y313545D01*
X127375Y313432*
X127062Y313318*
X127062D02*
X126750D01*
X126437Y313432*
X126437D02*
X125969Y313659D01*
X124406Y314795*
Y313205*
X127687Y311955D02*
Y310705D01*
X127687D02*
X126437Y311386D01*
X126437D02*
Y311045D01*
X126437D02*
X126281Y310818D01*
X126125Y310705*
X125656Y310591*
X125344*
X124875Y310705*
X124562Y310932*
X124562D02*
X124406Y311273D01*
Y311614*
X124562Y311955*
X124562D02*
X124719Y312068D01*
X125031Y312182*
X166759Y284388D02*
Y281106D01*
Y284388D02*
X167782D01*
X167782D02*
X168123Y284231D01*
X168236Y284075*
X168350Y283763*
X168350D02*
Y283450D01*
X168236Y283138*
X168236D02*
X168123Y282981D01*
X167782Y282825*
X166759*
X167555D02*
X168350Y281106D01*
X169373Y283763D02*
X169600Y283919D01*
X169941Y284388*
X169941D02*
Y281106D01*
X170964Y283763D02*
X171191Y283919D01*
X171532Y284388*
X171532D02*
Y281106D01*
X164375Y293875D02*
Y290594D01*
Y293875D02*
X165398D01*
X165739Y293719*
X165852Y293563*
X165852D02*
X165966Y293250D01*
Y292938*
X165966D02*
X165852Y292625D01*
X165739Y292469*
X165398Y292313*
X165398D02*
X164375D01*
X165170D02*
X165966Y290594D01*
X166989Y293250D02*
X167216Y293406D01*
X167557Y293875*
Y290594*
X168693Y293094D02*
Y293250D01*
X168807Y293563*
X168807D02*
X168920Y293719D01*
X169148Y293875*
X169602*
X169830Y293719*
X169943Y293563*
X169943D02*
X170057Y293250D01*
Y292938*
X170057D02*
X169943Y292625D01*
X169716Y292156*
X168580Y290594*
X170170*
X188306Y216144D02*
X185025D01*
X188306D02*
Y215121D01*
X188150Y214780*
X187994Y214666*
X187681Y214553*
X187369*
X187056Y214666*
X186900Y214780*
X186744Y215121*
Y216144*
Y215348D02*
X185025Y214553D01*
X187681Y213530D02*
X187838Y213303D01*
X187838D02*
X188306Y212962D01*
X185025*
X188306Y211712D02*
Y210462D01*
X187056Y211144*
Y210803*
X186900Y210576*
X186744Y210462*
X186275Y210348*
X185963*
X185963D02*
X185494Y210462D01*
X185181Y210689*
X185025Y211030*
Y211371*
X185181Y211712*
X185338Y211826*
X185338D02*
X185650Y211939D01*
X202775Y216182D02*
X199494D01*
X202775D02*
Y215159D01*
X202619Y214818*
X202463Y214705*
X202463D02*
X202150Y214591D01*
X201838*
X201838D02*
X201525Y214705D01*
X201369Y214818*
X201213Y215159*
X201213D02*
Y216182D01*
Y215386D02*
X199494Y214591D01*
X202150Y213568D02*
X202306Y213341D01*
X202775Y213000*
X199494*
X202775Y210841D02*
X200588Y211977D01*
X200588D02*
Y210273D01*
X202775Y210841D02*
X199494D01*
X345730Y265099D02*
Y261818D01*
Y265099D02*
X346753D01*
X347094Y264943*
X347207Y264787*
X347321Y264474*
Y264162*
X347207Y263849*
X347094Y263693*
X346753Y263537*
X345730*
X346526D02*
X347321Y261818D01*
X348344Y264474D02*
X348571Y264631D01*
X348912Y265099*
Y261818*
X351412Y265099D02*
X350276D01*
X350162Y263693*
X350276Y263849*
X350616Y264006*
X350957*
X351298Y263849*
X351526Y263537*
X351639Y263068*
X351526Y262756*
X351412Y262287*
X351185Y261974*
X350844Y261818*
X350503*
X350162Y261974*
X350048Y262131*
X349935Y262443*
X323957Y265213D02*
Y261932D01*
Y265213D02*
X324980D01*
X325321Y265057*
X325435Y264901*
X325548Y264588*
Y264276*
X325435Y263963*
X325321Y263807*
X324980Y263651*
X323957*
X324753D02*
X325548Y261932D01*
X326571Y264588D02*
X326798Y264744D01*
X327139Y265213*
Y261932*
X329526Y264744D02*
X329412Y265057D01*
X329071Y265213*
X328844*
X328503Y265057*
X328276Y264588*
X328162Y263807*
Y263026*
X328276Y262401*
X328503Y262088*
X328844Y261932*
X328957*
X329298Y262088*
X329526Y262401*
X329639Y262869*
Y263026*
X329526Y263494*
X329298Y263807*
X328957Y263963*
X328844*
X328503Y263807*
X328276Y263494*
X328162Y263026*
X139920Y334219D02*
X139693Y334531D01*
X139352Y334688*
X139352D02*
X138898D01*
X138898D02*
X138557Y334531D01*
X138330Y334219*
Y333906*
X138443Y333594*
X138557Y333438*
X138557D02*
X138784Y333281D01*
X139466Y332969*
X139693Y332813*
X139693D02*
X139807Y332656D01*
X139920Y332344*
Y331875*
X139693Y331563*
X139693D02*
X139352Y331406D01*
X138898*
X138557Y331563*
X138557D02*
X138330Y331875D01*
X141057Y333906D02*
Y334063D01*
X141057D02*
X141170Y334375D01*
X141284Y334531*
X141511Y334688*
X141511D02*
X141966D01*
X141966D02*
X142193Y334531D01*
X142307Y334375*
X142420Y334063*
X142420D02*
Y333750D01*
X142307Y333438*
X142307D02*
X142080Y332969D01*
X140943Y331406*
X142534*
X262375Y173875D02*
Y170594D01*
Y173875D02*
X263398D01*
X263739Y173719*
X263852Y173563*
X263852D02*
X263966Y173250D01*
Y172938*
X263966D02*
X263852Y172625D01*
X263739Y172469*
X263398Y172313*
X263398D02*
X262375D01*
X263170D02*
X263966Y170594D01*
X264989Y173250D02*
X265216Y173406D01*
X265557Y173875*
Y170594*
X267148Y173875D02*
X266807Y173719D01*
X266693Y173406*
Y173094*
X266807Y172781*
X267034Y172625*
X267489Y172469*
X267830Y172313*
X267830D02*
X268057Y172000D01*
X268170Y171688*
X268170D02*
Y171219D01*
X268057Y170906*
X267943Y170750*
X267602Y170594*
X267148*
X266807Y170750*
X266693Y170906*
X266580Y171219*
Y171688*
X266580D02*
X266693Y172000D01*
X266920Y172313*
X266920D02*
X267261Y172469D01*
X267716Y172625*
X267943Y172781*
X268057Y173094*
Y173406*
X267943Y173719*
X267602Y173875*
X267148*
X307541Y159607D02*
X305041D01*
X304572Y159721*
X304416Y159835*
X304260Y160062*
Y160289*
X304416Y160516*
X304572Y160630*
X305041Y160744*
X305353*
X307541Y157107D02*
Y158244D01*
X306135Y158357*
X306291Y158244*
X306447Y157903*
Y157562*
X306291Y157221*
X305978Y156994*
X305510Y156880*
X305197Y156994*
X304728Y157107*
X304416Y157335*
X304260Y157676*
Y158016*
X304416Y158357*
X304572Y158471*
X304885Y158585*
X232875Y136568D02*
X229594D01*
X232875D02*
Y135545D01*
X232719Y135205*
X232563Y135091*
X232250Y134977*
X231938*
X231625Y135091*
X231469Y135205*
X231313Y135545*
Y136568*
Y135773D02*
X229594Y134977D01*
X232250Y133955D02*
X232406Y133727D01*
X232875Y133386*
X229594*
X231781Y130886D02*
X231313Y131000D01*
X231000Y131227*
X230844Y131568*
Y131682*
X231000Y132023*
X231313Y132250*
X231781Y132364*
X231938*
X232406Y132250*
X232719Y132023*
X232875Y131682*
Y131568*
X232719Y131227*
X232406Y131000*
X231781Y130886*
X231000*
X230219Y131000*
X229750Y131227*
X229594Y131568*
Y131795*
X229750Y132136*
X230063Y132250*
X259645Y174179D02*
X256364D01*
X259645D02*
Y173156D01*
X259489Y172815*
X259332Y172702*
X259020Y172588*
X258707*
X258395Y172702*
X258239Y172815*
X258082Y173156*
Y174179*
Y173384D02*
X256364Y172588D01*
X258864Y171452D02*
X259020D01*
X259332Y171338*
X259489Y171224*
X259645Y170997*
Y170543*
X259489Y170315*
X259332Y170202*
X259020Y170088*
X258707*
X258395Y170202*
X257926Y170429*
X256364Y171565*
Y169974*
X259645Y168270D02*
X259489Y168611D01*
X259020Y168838*
X258239Y168952*
X257770*
X256989Y168838*
X256520Y168611*
X256364Y168270*
Y168043*
X256520Y167702*
X256989Y167474*
X257770Y167361*
X258239*
X259020Y167474*
X259489Y167702*
X259645Y168043*
Y168270*
X294125Y174687D02*
Y171406D01*
Y174687D02*
X295148D01*
X295148D02*
X295489Y174531D01*
X295602Y174375*
X295716Y174062*
X295716D02*
Y173750D01*
X295602Y173437*
X295602D02*
X295489Y173281D01*
X295148Y173125*
X294125*
X294920D02*
X295716Y171406D01*
X296852Y173906D02*
Y174062D01*
X296852D02*
X296966Y174375D01*
X297080Y174531*
X297307Y174687*
X297307D02*
X297761D01*
X297761D02*
X297989Y174531D01*
X298102Y174375*
X298216Y174062*
X298216D02*
Y173750D01*
X298102Y173437*
X298102D02*
X297875Y172969D01*
X296739Y171406*
X298330*
X299352Y174062D02*
X299580Y174219D01*
X299920Y174687*
X299920D02*
Y171406D01*
X151125Y336687D02*
Y333406D01*
Y336687D02*
X152148D01*
X152148D02*
X152489Y336531D01*
X152602Y336375*
X152716Y336062*
X152716D02*
Y335750D01*
X152602Y335437*
X152602D02*
X152489Y335281D01*
X152148Y335125*
X151125*
X151920D02*
X152716Y333406D01*
X153739Y336062D02*
X153966Y336219D01*
X154307Y336687*
X154307D02*
Y333406D01*
X156920Y336687D02*
X155784Y333406D01*
X155330Y336687D02*
X156920D01*
X151591Y351687D02*
Y348406D01*
Y351687D02*
X152614D01*
X152614D02*
X152955Y351531D01*
X153068Y351375*
X153182Y351062*
X153182D02*
Y350750D01*
X153068Y350437*
X153068D02*
X152955Y350281D01*
X152614Y350125*
X151591*
X152386D02*
X153182Y348406D01*
X154318Y350906D02*
Y351062D01*
X154318D02*
X154432Y351375D01*
X154545Y351531*
X154773Y351687*
X154773D02*
X155227D01*
X155227D02*
X155455Y351531D01*
X155568Y351375*
X155682Y351062*
X155682D02*
Y350750D01*
X155568Y350437*
X155568D02*
X155341Y349969D01*
X154205Y348406*
X155795*
X156932Y350906D02*
Y351062D01*
X156932D02*
X157045Y351375D01*
X157159Y351531*
X157386Y351687*
X157386D02*
X157841D01*
X157841D02*
X158068Y351531D01*
X158182Y351375*
X158295Y351062*
X158295D02*
Y350750D01*
X158182Y350437*
X158182D02*
X157955Y349969D01*
X156818Y348406*
X158409*
X356727Y328875D02*
Y326531D01*
X356841Y326063*
X356841D02*
X357068Y325750D01*
X357409Y325594*
X357636*
X357977Y325750*
X358205Y326063*
X358205D02*
X358318Y326531D01*
Y328875*
X360705Y328406D02*
X360591Y328719D01*
X360250Y328875*
X360023*
X359682Y328719*
X359455Y328250*
X359341Y327469*
Y326688*
X359341D02*
X359455Y326063D01*
X359455D02*
X359682Y325750D01*
X360023Y325594*
X360136*
X360477Y325750*
X360705Y326063*
X360705D02*
X360818Y326531D01*
Y326688*
X360818D02*
X360705Y327156D01*
X360477Y327469*
X360136Y327625*
X360023*
X359682Y327469*
X359455Y327156*
X359341Y326688*
X364125Y354906D02*
X364011Y355219D01*
X363784Y355531*
X363557Y355688*
X363557D02*
X363102D01*
X363102D02*
X362875Y355531D01*
X362648Y355219*
X362534Y354906*
X362420Y354438*
X362420D02*
Y353656D01*
X362534Y353188*
X362534D02*
X362648Y352875D01*
X362875Y352563*
X362875D02*
X363102Y352406D01*
X363557*
X363784Y352563*
X363784D02*
X364011Y352875D01*
X364125Y353188*
X365261Y354906D02*
Y355063D01*
X365261D02*
X365375Y355375D01*
X365489Y355531*
X365716Y355688*
X365716D02*
X366170D01*
X366170D02*
X366398Y355531D01*
X366511Y355375*
X366625Y355063*
X366625D02*
Y354750D01*
X366511Y354438*
X366511D02*
X366284Y353969D01*
X365148Y352406*
X366739*
X369352Y355688D02*
X368216Y352406D01*
X367761Y355688D02*
X369352D01*
X371977Y369875D02*
Y367375D01*
X371864Y366906*
X371750Y366750*
X371523Y366594*
X371295*
X371068Y366750*
X370955Y366906*
X370841Y367375*
Y367688*
X374136Y369875D02*
X373000Y367688D01*
X373000D02*
X374705D01*
X374136Y369875D02*
Y366594D01*
X352200Y271081D02*
Y268738D01*
X352200D02*
X352314Y268269D01*
X352541Y267956*
X352882Y267800*
X353109*
X353450Y267956*
X353677Y268269*
X353791Y268738*
X353791D02*
Y271081D01*
X356405D02*
X355268Y267800D01*
X354814Y271081D02*
X356405D01*
X364295Y296906D02*
X364182Y297219D01*
X363955Y297531*
X363727Y297688*
X363727D02*
X363273D01*
X363273D02*
X363045Y297531D01*
X362818Y297219*
X362705Y296906*
X362591Y296438*
X362591D02*
Y295656D01*
X362705Y295188*
X362705D02*
X362818Y294875D01*
X363045Y294563*
X363045D02*
X363273Y294406D01*
X363727*
X363955Y294563*
X363955D02*
X364182Y294875D01*
X364295Y295188*
X365432Y296906D02*
Y297063D01*
X365432D02*
X365545Y297375D01*
X365659Y297531*
X365886Y297688*
X365886D02*
X366341D01*
X366341D02*
X366568Y297531D01*
X366682Y297375*
X366795Y297063*
X366795D02*
Y296750D01*
X366682Y296438*
X366682D02*
X366455Y295969D01*
X365318Y294406*
X366909*
X369409Y296594D02*
X369295Y296125D01*
X369068Y295813*
X369068D02*
X368727Y295656D01*
X368614*
X368273Y295813*
X368273D02*
X368045Y296125D01*
X367932Y296594*
Y296750*
X368045Y297219*
X368273Y297531*
X368614Y297688*
X368614D02*
X368727D01*
X368727D02*
X369068Y297531D01*
X369295Y297219*
X369409Y296594*
Y295813*
X369409D02*
X369295Y295031D01*
X369068Y294563*
X369068D02*
X368727Y294406D01*
X368500*
X368159Y294563*
X368159D02*
X368045Y294875D01*
X373091Y308875D02*
Y306375D01*
X372977Y305906*
X372864Y305750*
X372636Y305594*
X372409*
X372182Y305750*
X372068Y305906*
X371955Y306375*
Y306688*
X375477Y308406D02*
X375364Y308719D01*
X375023Y308875*
X374795*
X374455Y308719*
X374227Y308250*
X374114Y307469*
Y306688*
X374114D02*
X374227Y306063D01*
X374227D02*
X374455Y305750D01*
X374795Y305594*
X374909*
X375250Y305750*
X375477Y306063*
X375477D02*
X375591Y306531D01*
Y306688*
X375591D02*
X375477Y307156D01*
X375250Y307469*
X374909Y307625*
X374795*
X374455Y307469*
X374227Y307156*
X374114Y306688*
X352200Y211081D02*
Y208738D01*
X352200D02*
X352314Y208269D01*
X352541Y207956*
X352882Y207800*
X353109*
X353450Y207956*
X353677Y208269*
X353791Y208738*
X353791D02*
Y211081D01*
X355382D02*
X355041Y210925D01*
X354927Y210613*
X354927D02*
Y210300D01*
X355041Y209988*
X355041D02*
X355268Y209831D01*
X355723Y209675*
X356064Y209519*
X356291Y209206*
X356405Y208894*
Y208425*
X356291Y208113*
X356291D02*
X356177Y207956D01*
X355836Y207800*
X355382*
X355041Y207956*
X354927Y208113*
X354927D02*
X354814Y208425D01*
Y208894*
X354927Y209206*
X355155Y209519*
X355495Y209675*
X355950Y209831*
X356177Y209988*
X356177D02*
X356291Y210300D01*
Y210613*
X356291D02*
X356177Y210925D01*
X355836Y211081*
X355382*
X364125Y236906D02*
X364011Y237219D01*
X363784Y237531*
X363557Y237688*
X363557D02*
X363102D01*
X363102D02*
X362875Y237531D01*
X362648Y237219*
X362534Y236906*
X362420Y236438*
X362420D02*
Y235656D01*
X362534Y235188*
X362534D02*
X362648Y234875D01*
X362875Y234563*
X362875D02*
X363102Y234406D01*
X363557*
X363784Y234563*
X363784D02*
X364011Y234875D01*
X364125Y235188*
X365375Y237688D02*
X366625D01*
X366625D02*
X365943Y236438D01*
X365943D02*
X366284D01*
X366284D02*
X366511Y236281D01*
X366625Y236125*
X366739Y235656*
Y235344*
X366625Y234875*
X366398Y234563*
X366398D02*
X366057Y234406D01*
X365716*
X365375Y234563*
X365375D02*
X365261Y234719D01*
X365148Y235031*
X368443Y237688D02*
X368102Y237531D01*
X367875Y237063*
X367875D02*
X367761Y236281D01*
Y235813*
X367761D02*
X367875Y235031D01*
X368102Y234563*
X368102D02*
X368443Y234406D01*
X368670*
X369011Y234563*
X369011D02*
X369239Y235031D01*
X369352Y235813*
X369352D02*
Y236281D01*
X369239Y237063*
X369239D02*
X369011Y237531D01*
X368670Y237688*
X368670D02*
X368443D01*
X373034Y249875D02*
Y247375D01*
X372920Y246906*
X372807Y246750*
X372580Y246594*
X372352*
X372125Y246750*
X372011Y246906*
X371898Y247375*
Y247688*
X375648Y249875D02*
X374511Y246594D01*
X374057Y249875D02*
X375648D01*
X353200Y163081D02*
Y160738D01*
X353200D02*
X353314Y160269D01*
X353541Y159956*
X353882Y159800*
X354109*
X354450Y159956*
X354677Y160269*
X354791Y160738*
X354791D02*
Y163081D01*
X357291Y161988D02*
X357177Y161519D01*
X356950Y161206*
X356609Y161050*
X356495*
X356155Y161206*
X355927Y161519*
X355814Y161988*
X355814D02*
Y162144D01*
X355927Y162613*
X355927D02*
X356155Y162925D01*
X356495Y163081*
X356609*
X356950Y162925*
X357177Y162613*
X357177D02*
X357291Y161988D01*
X357291D02*
Y161206D01*
X357177Y160425*
X356950Y159956*
X356609Y159800*
X356382*
X356041Y159956*
X355927Y160269*
X368959Y186600D02*
X369073Y186287D01*
X369073D02*
X369300Y185975D01*
X369527Y185819*
X369982*
X370209Y185975*
X370436Y186287*
X370436D02*
X370550Y186600D01*
X370664Y187069*
Y187850*
X370550Y188319*
X370436Y188631*
X370209Y188944*
X369982Y189100*
X369527*
X369300Y188944*
X369073Y188631*
X368959Y188319*
X367709Y185819D02*
X366459D01*
X367141Y187069*
X366800*
X366573Y187225*
X366459Y187381*
X366345Y187850*
Y188162*
X366345D02*
X366459Y188631D01*
X366686Y188944*
X367027Y189100*
X367368*
X367709Y188944*
X367823Y188787*
X367823D02*
X367936Y188475D01*
X365323Y186444D02*
X365095Y186287D01*
X365095D02*
X364755Y185819D01*
Y189100*
X373034Y190875D02*
Y188375D01*
X372920Y187906*
X372807Y187750*
X372580Y187594*
X372352*
X372125Y187750*
X372011Y187906*
X371898Y188375*
Y188688*
X374625Y190875D02*
X374284Y190719D01*
X374170Y190406*
Y190094*
X374284Y189781*
X374511Y189625*
X374966Y189469*
X375307Y189313*
X375307D02*
X375534Y189000D01*
X375648Y188688*
X375648D02*
Y188219D01*
X375534Y187906*
X375420Y187750*
X375080Y187594*
X374625*
X374284Y187750*
X374170Y187906*
X374057Y188219*
Y188688*
X374057D02*
X374170Y189000D01*
X374398Y189313*
X374398D02*
X374739Y189469D01*
X375193Y189625*
X375420Y189781*
X375534Y190094*
Y190406*
X375420Y190719*
X375080Y190875*
X374625*
X328481Y146200D02*
X326138D01*
X326138D02*
X325669Y146086D01*
X325356Y145859*
X325200Y145518*
Y145291*
X325356Y144950*
X325669Y144723*
X326138Y144609*
X326138D02*
X328481D01*
X327856Y143586D02*
X328013Y143359D01*
X328013D02*
X328481Y143018D01*
X325200*
X328481Y141314D02*
X328325Y141655D01*
X327856Y141882*
X327075Y141995*
X326606*
X325825Y141882*
X325356Y141655*
X325200Y141314*
Y141086*
X325356Y140745*
X325825Y140518*
X326606Y140405*
X327075*
X327856Y140518*
X328325Y140745*
X328481Y141086*
Y141314*
X358906Y143875D02*
X359219Y143989D01*
X359531Y144216*
X359687Y144443*
X359687D02*
Y144898D01*
X359687D02*
X359531Y145125D01*
X359219Y145352*
X358906Y145466*
X358437Y145580*
X358437D02*
X357656D01*
X357187Y145466*
X357187D02*
X356875Y145352D01*
X356562Y145125*
X356562D02*
X356406Y144898D01*
Y144443*
X356562Y144216*
X356562D02*
X356875Y143989D01*
X357187Y143875*
X359687Y142625D02*
Y141375D01*
X359687D02*
X358437Y142057D01*
X358437D02*
Y141716D01*
X358437D02*
X358281Y141489D01*
X358125Y141375*
X357656Y141261*
X357344*
X356875Y141375*
X356562Y141602*
X356562D02*
X356406Y141943D01*
Y142284*
X356562Y142625*
X356562D02*
X356719Y142739D01*
X357031Y142852*
X358906Y140125D02*
X359062D01*
X359062D02*
X359375Y140011D01*
X359531Y139898*
X359687Y139670*
X359687D02*
Y139216D01*
X359687D02*
X359531Y138989D01*
X359375Y138875*
X359062Y138761*
X359062D02*
X358750D01*
X358437Y138875*
X358437D02*
X357969Y139102D01*
X356406Y140239*
Y138648*
X365730Y128327D02*
Y125827D01*
X365616Y125358*
X365503Y125202*
X365276Y125045*
X365048*
X364821Y125202*
X364707Y125358*
X364594Y125827*
Y126139*
X368230Y127233D02*
X368116Y126764D01*
X367889Y126452*
X367548Y126295*
X367435*
X367094Y126452*
X366866Y126764*
X366753Y127233*
Y127389*
X366866Y127858*
X367094Y128170*
X367435Y128327*
X367548*
X367889Y128170*
X368116Y127858*
X368230Y127233*
Y126452*
X368116Y125670*
X367889Y125202*
X367548Y125045*
X367321*
X366980Y125202*
X366866Y125514*
X266182Y334875D02*
Y332531D01*
X266295Y332063*
X266295D02*
X266523Y331750D01*
X266864Y331594*
X267091*
X267432Y331750*
X267659Y332063*
X267659D02*
X267773Y332531D01*
Y334875*
X268795Y334250D02*
X269023Y334406D01*
X269364Y334875*
Y331594*
X296687Y194239D02*
X293406D01*
X296687D02*
Y193216D01*
X296687D02*
X296531Y192875D01*
X296375Y192761*
X296062Y192648*
X296062D02*
X295750D01*
X295437Y192761*
X295437D02*
X295281Y192875D01*
X295125Y193216*
Y194239*
Y193443D02*
X293406Y192648D01*
X295906Y191511D02*
X296062D01*
X296062D02*
X296375Y191398D01*
X296531Y191284*
X296687Y191057*
X296687D02*
Y190602D01*
X296687D02*
X296531Y190375D01*
X296375Y190261*
X296062Y190148*
X296062D02*
X295750D01*
X295437Y190261*
X295437D02*
X294969Y190489D01*
X293406Y191625*
Y190034*
X295594Y187534D02*
X295125Y187648D01*
X294812Y187875*
X294812D02*
X294656Y188216D01*
Y188330*
X294812Y188670*
X294812D02*
X295125Y188898D01*
X295594Y189011*
X295750*
X296219Y188898*
X296531Y188670*
X296687Y188330*
X296687D02*
Y188216D01*
X296687D02*
X296531Y187875D01*
X296219Y187648*
X295594Y187534*
X294812*
X294812D02*
X294031Y187648D01*
X293562Y187875*
X293562D02*
X293406Y188216D01*
Y188443*
X293562Y188784*
X293562D02*
X293875Y188898D01*
X263781Y195100D02*
X261438D01*
X261438D02*
X260969Y194986D01*
X260656Y194759*
X260500Y194418*
Y194191*
X260656Y193850*
X260969Y193623*
X261438Y193509*
X261438D02*
X263781D01*
X263156Y192486D02*
X263313Y192259D01*
X263313D02*
X263781Y191918D01*
X260500*
X263156Y190895D02*
X263313Y190668D01*
X263313D02*
X263781Y190327D01*
X260500*
X188273Y179687D02*
Y176406D01*
Y179687D02*
X189068D01*
X189068D02*
X189409Y179531D01*
X189636Y179219*
X189750Y178906*
X189864Y178437*
X189864D02*
Y177656D01*
X189750Y177187*
X189750D02*
X189636Y176875D01*
X189409Y176562*
X189409D02*
X189068Y176406D01*
X188273*
X192250Y179219D02*
X192136Y179531D01*
X191795Y179687*
X191795D02*
X191568D01*
X191568D02*
X191227Y179531D01*
X191000Y179062*
X191000D02*
X190886Y178281D01*
Y177500*
X191000Y176875*
X191227Y176562*
X191227D02*
X191568Y176406D01*
X191682*
X192023Y176562*
X192023D02*
X192250Y176875D01*
X192364Y177344*
Y177500*
X192250Y177969*
X192023Y178281*
X191682Y178437*
X191682D02*
X191568D01*
X191568D02*
X191227Y178281D01*
X191000Y177969*
X190886Y177500*
X306594Y347611D02*
Y345267D01*
X306707Y344798*
X306935Y344486*
X307276Y344330*
X307503*
X307844Y344486*
X308071Y344798*
X308185Y345267*
Y347611*
X309321Y346830D02*
Y346986D01*
X309435Y347298*
X309548Y347455*
X309776Y347611*
X310230*
X310457Y347455*
X310571Y347298*
X310685Y346986*
Y346673*
X310571Y346361*
X310344Y345892*
X309207Y344330*
X310798*
X213875Y215386D02*
X211531D01*
X211063Y215273*
X211063D02*
X210750Y215045D01*
X210594Y214705*
Y214477*
X210750Y214136*
X211063Y213909*
X211063D02*
X211531Y213795D01*
X213875*
Y211295D02*
Y212432D01*
X212469Y212545*
X212625Y212432*
X212781Y212091*
Y211750*
X212625Y211409*
X212313Y211182*
X212313D02*
X211844Y211068D01*
X211531Y211182*
X211063Y211295*
X211063D02*
X210750Y211523D01*
X210594Y211864*
Y212205*
X210750Y212545*
X210906Y212659*
X211219Y212773*
X234906Y223705D02*
X235219Y223818D01*
X235531Y224045*
X235687Y224273*
X235687D02*
Y224727D01*
X235687D02*
X235531Y224955D01*
X235219Y225182*
X234906Y225295*
X234437Y225409*
X234437D02*
X233656D01*
X233187Y225295*
X233187D02*
X232875Y225182D01*
X232562Y224955*
X232562D02*
X232406Y224727D01*
Y224273*
X232562Y224045*
X232562D02*
X232875Y223818D01*
X233187Y223705*
X234906Y222568D02*
X235062D01*
X235062D02*
X235375Y222455D01*
X235531Y222341*
X235687Y222114*
X235687D02*
Y221659D01*
X235687D02*
X235531Y221432D01*
X235375Y221318*
X235062Y221205*
X235062D02*
X234750D01*
X234437Y221318*
X234437D02*
X233969Y221545D01*
X232406Y222682*
Y221091*
X235219Y218705D02*
X235531Y218818D01*
X235687Y219159*
X235687D02*
Y219386D01*
X235687D02*
X235531Y219727D01*
X235062Y219955*
X235062D02*
X234281Y220068D01*
X233500*
X232875Y219955*
X232562Y219727*
X232562D02*
X232406Y219386D01*
Y219273*
X232562Y218932*
X232562D02*
X232875Y218705D01*
X233344Y218591*
X233500*
X233969Y218705*
X234281Y218932*
X234437Y219273*
X234437D02*
Y219386D01*
X234437D02*
X234281Y219727D01*
X233969Y219955*
X233500Y220068*
X201125Y199906D02*
X201011Y200219D01*
X200784Y200531*
X200557Y200687*
X200557D02*
X200102D01*
X200102D02*
X199875Y200531D01*
X199648Y200219*
X199534Y199906*
X199420Y199437*
X199420D02*
Y198656D01*
X199534Y198187*
X199534D02*
X199648Y197875D01*
X199875Y197562*
X199875D02*
X200102Y197406D01*
X200557*
X200784Y197562*
X200784D02*
X201011Y197875D01*
X201125Y198187*
X202375Y200687D02*
X203625D01*
X203625D02*
X202943Y199437D01*
X202943D02*
X203284D01*
X203284D02*
X203511Y199281D01*
X203625Y199125*
X203739Y198656*
Y198344*
X203625Y197875*
X203398Y197562*
X203398D02*
X203057Y197406D01*
X202716*
X202375Y197562*
X202375D02*
X202261Y197719D01*
X202148Y198031*
X206352Y200687D02*
X205216Y197406D01*
X204761Y200687D02*
X206352D01*
X222511Y184094D02*
X222398Y184406D01*
X222170Y184719*
X221943Y184875*
X221489*
X221261Y184719*
X221034Y184406*
X220920Y184094*
X220807Y183625*
Y182844*
X220920Y182375*
X221034Y182063*
X221034D02*
X221261Y181750D01*
X221489Y181594*
X221943*
X222170Y181750*
X222398Y182063*
X222398D02*
X222511Y182375D01*
X223761Y184875D02*
X225011D01*
X224330Y183625*
X224670*
X224898Y183469*
X225011Y183313*
X225011D02*
X225125Y182844D01*
Y182531*
X225011Y182063*
X225011D02*
X224784Y181750D01*
X224443Y181594*
X224102*
X223761Y181750*
X223648Y181906*
X223534Y182219*
X226716Y184875D02*
X226375Y184719D01*
X226261Y184406*
Y184094*
X226375Y183781*
X226602Y183625*
X227057Y183469*
X227398Y183313*
X227398D02*
X227625Y183000D01*
X227739Y182688*
X227739D02*
Y182219D01*
X227625Y181906*
X227511Y181750*
X227170Y181594*
X226716*
X226375Y181750*
X226261Y181906*
X226148Y182219*
Y182688*
X226148D02*
X226261Y183000D01*
X226489Y183313*
X226489D02*
X226830Y183469D01*
X227284Y183625*
X227511Y183781*
X227625Y184094*
Y184406*
X227511Y184719*
X227170Y184875*
X226716*
X245406Y213065D02*
Y209784D01*
X246770*
X248020Y213065D02*
X249270D01*
X248588Y211815*
X248929*
X249156Y211659*
X249270Y211503*
X249384Y211034*
Y210722*
X249270Y210253*
X249043Y209940*
X248702Y209784*
X248361*
X248020Y209940*
X247906Y210097*
X247793Y210409*
X205127Y231881D02*
Y228600D01*
Y231881D02*
X206150D01*
X206491Y231725*
X206605Y231569*
X206718Y231256*
Y230944*
X206605Y230631*
X206491Y230475*
X206150Y230319*
X205127*
X205923D02*
X206718Y228600D01*
X207968Y231881D02*
X209218D01*
X208536Y230631*
X208877*
X209105Y230475*
X209218Y230319*
X209332Y229850*
Y229538*
X209332D02*
X209218Y229069D01*
X208991Y228756*
X208650Y228600*
X208309*
X207968Y228756*
X207855Y228913*
X207855D02*
X207741Y229225D01*
X211036Y231881D02*
X210695Y231725D01*
X210468Y231256*
X210355Y230475*
Y230006*
X210468Y229225*
X210695Y228756*
X211036Y228600*
X211264*
X211605Y228756*
X211832Y229225*
X211945Y230006*
Y230475*
X211832Y231256*
X211605Y231725*
X211264Y231881*
X211036*
X225125Y227688D02*
Y224406D01*
Y227688D02*
X226148D01*
X226148D02*
X226489Y227531D01*
X226602Y227375*
X226716Y227063*
X226716D02*
Y226750D01*
X226602Y226438*
X226602D02*
X226489Y226281D01*
X226148Y226125*
X225125*
X225920D02*
X226716Y224406D01*
X227966Y227688D02*
X229216D01*
X229216D02*
X228534Y226438D01*
X228534D02*
X228875D01*
X228875D02*
X229102Y226281D01*
X229216Y226125*
X229330Y225656*
Y225344*
X229216Y224875*
X228989Y224563*
X228989D02*
X228648Y224406D01*
X228307*
X227966Y224563*
X227966D02*
X227852Y224719D01*
X227739Y225031*
X230352Y227063D02*
X230580Y227219D01*
X230920Y227688*
X230920D02*
Y224406D01*
X237330Y214687D02*
Y211406D01*
Y214687D02*
X238125D01*
X238125D02*
X238466Y214531D01*
X238693Y214219*
X238807Y213906*
X238920Y213437*
X238920D02*
Y212656D01*
X238807Y212187*
X238807D02*
X238693Y211875D01*
X238466Y211562*
X238466D02*
X238125Y211406D01*
X237330*
X240511Y214687D02*
X240170Y214531D01*
X240057Y214219*
Y213906*
X240170Y213594*
X240398Y213437*
X240398D02*
X240852Y213281D01*
X241193Y213125*
X241420Y212812*
X241420D02*
X241534Y212500D01*
Y212031*
X241420Y211719*
X241307Y211562*
X241307D02*
X240966Y211406D01*
X240511*
X240170Y211562*
X240170D02*
X240057Y211719D01*
X239943Y212031*
Y212500*
X240057Y212812*
X240057D02*
X240284Y213125D01*
X240625Y213281*
X241080Y213437*
X241080D02*
X241307Y213594D01*
X241420Y213906*
Y214219*
X241307Y214531*
X240966Y214687*
X240966D02*
X240511D01*
X337136Y329486D02*
Y326986D01*
X337023Y326517*
X336909Y326361*
X336682Y326205*
X336455*
X336227Y326361*
X336114Y326517*
X336000Y326986*
Y327298*
X338159Y328861D02*
X338386Y329017D01*
X338727Y329486*
Y326205*
X340432Y329486D02*
X340091Y329330D01*
X339864Y328861*
X339750Y328080*
Y327611*
X339864Y326830*
X340091Y326361*
X340432Y326205*
X340659*
X341000Y326361*
X341227Y326830*
X341341Y327611*
Y328080*
X341227Y328861*
X341000Y329330*
X340659Y329486*
X340432*
X342486Y185864D02*
X339986D01*
X339517Y185977*
X339361Y186091*
X339205Y186318*
Y186545*
X339361Y186773*
X339517Y186886*
X339986Y187000*
X340298*
X341861Y184841D02*
X342017Y184614D01*
X342486Y184273*
X339205*
X341861Y183250D02*
X342017Y183023D01*
X342486Y182682*
X339205*
X341486Y211864D02*
X338986D01*
X338517Y211977*
X338361Y212091*
X338205Y212318*
Y212545*
X338361Y212773*
X338517Y212886*
X338986Y213000*
X339298*
X340861Y210841D02*
X341017Y210614D01*
X341486Y210273*
X338205*
X340705Y209136D02*
X340861D01*
X341173Y209023*
X341330Y208909*
X341486Y208682*
Y208227*
X341330Y208000*
X341173Y207886*
X340861Y207773*
X340548*
X340236Y207886*
X339767Y208114*
X338205Y209250*
Y207659*
X217427Y336666D02*
X214927D01*
X214458Y336780*
X214302Y336893*
X214146Y337121*
Y337348*
X214302Y337575*
X214458Y337689*
X214927Y337802*
X215239*
X216802Y335643D02*
X216958Y335416D01*
X217427Y335075*
X214146*
X217427Y333825D02*
Y332575D01*
X216177Y333257*
Y332916*
X216021Y332689*
X215864Y332575*
X215396Y332461*
X215083*
X214614Y332575*
X214302Y332802*
X214146Y333143*
Y333484*
X214302Y333825*
X214458Y333939*
X214771Y334052*
G54D65*
X148276Y120362D02*
X146701D01*
Y115638*
X148276*
X339638Y250276D02*
Y248701D01*
X344362*
Y250276*
X331638D02*
Y248701D01*
X336362*
Y250276*
G54D66*
X108870Y164299D02*
G03X108870I-492J0D01*
G54D67*
G01X397449Y312535D02*
X398039Y313126D01*
Y319031*
X397449Y319622*
X394102*
Y361748*
X397449*
X398039Y362339*
Y368244*
X397449Y368835*
X376386*
Y312535*
X397449*
Y252535D02*
X398039Y253126D01*
Y259031*
X397449Y259622*
X394102*
Y301748*
X397449*
X398039Y302339*
Y308244*
X397449Y308835*
X376386*
Y252535*
X397449*
Y193535D02*
X398039Y194126D01*
Y200031*
X397449Y200622*
X394102*
Y242748*
X397449*
X398039Y243339*
Y249244*
X397449Y249835*
X376386*
Y193535*
X397449*
Y134535D02*
X398039Y135126D01*
Y141031*
X397449Y141622*
X394102*
Y183748*
X397449*
X398039Y184339*
Y190244*
X397449Y190835*
X376386*
Y134535*
X397449*
X310935Y101951D02*
X311526Y101361D01*
X317431*
X318022Y101951*
Y105298*
X360148*
Y101951*
X360739Y101361*
X366644*
X367235Y101951*
Y123014*
X310935*
Y101951*
X172413Y322251D02*
X173004Y321661D01*
X178909*
X179500Y322251*
Y325598*
X205878*
Y322251*
X206469Y321661*
X212374*
X212965Y322251*
Y343314*
X172413*
Y322251*
G54D68*
X346039Y295496D02*
X345449Y294906D01*
X336000*
X332063Y299624*
X324386Y299644*
Y320496*
X332063*
X336000Y325220*
X345449*
X346039Y324630*
Y318724*
X345449Y318134*
X342102*
Y301992*
X345449*
X346039Y301402*
Y295496*
X308496Y176961D02*
X307906Y177551D01*
Y187000*
X312624Y190937*
X312644Y198614*
X333496*
Y190937*
X338220Y187000*
Y177551*
X337630Y176961*
X331724*
X331134Y177551*
Y180898*
X314992*
Y177551*
X314402Y176961*
X308496*
X307496Y202961D02*
X306906Y203551D01*
Y213000*
X311624Y216937*
X311644Y224614*
X332496*
Y216937*
X337220Y213000*
Y203551*
X336630Y202961*
X330724*
X330134Y203551*
Y206898*
X313992*
Y203551*
X313402Y202961*
X307496*
G54D69*
X126946Y184292D02*
X126812Y184661D01*
X126544Y185030*
X126275Y185215*
X125739*
X125470Y185030*
X125202Y184661*
X125067Y184292*
X124933Y183738*
Y182815*
X125067Y182262*
X125202Y181893*
X125470Y181524*
X125739Y181339*
X126275*
X126544Y181524*
X126812Y181893*
X126946Y182262*
X128289Y184292D02*
Y184476D01*
X128423Y184845*
X128557Y185030*
X128826Y185215*
X129362*
X129631Y185030*
X129765Y184845*
X129899Y184476*
Y184107*
X129765Y183738*
X129497Y183185*
X128154Y181339*
X130033*
X131376Y184292D02*
Y184476D01*
X131510Y184845*
X131644Y185030*
X131912Y185215*
X132449*
X132718Y185030*
X132852Y184845*
X132986Y184476*
Y184107*
X132852Y183738*
X132584Y183185*
X131241Y181339*
X133120*
X115934Y158646D02*
X115800Y159015D01*
X115532Y159384*
X115263Y159569*
X114726*
X114458Y159384*
X114190Y159015*
X114055Y158646*
X113921Y158092*
Y157170*
X114055Y156616*
X114190Y156247*
X114458Y155878*
X114726Y155693*
X115263*
X115532Y155878*
X115800Y156247*
X115934Y156616*
X118216Y159569D02*
X117142Y155693D01*
X118216Y159569D02*
X119290Y155693D01*
X117545Y156985D02*
X118887D01*
X120498Y159569D02*
Y155693D01*
Y159569D02*
X121706D01*
X122108Y159384*
X122242Y159200*
X122377Y158830*
Y158277*
X122242Y157908*
X122108Y157723*
X121706Y157539*
X120498*
X123585Y157354D02*
X126001D01*
X128282Y159569D02*
X127208Y155693D01*
X128282Y159569D02*
X129356Y155693D01*
X127611Y156985D02*
X128953D01*
X130564Y159569D02*
Y155693D01*
Y159569D02*
X132309D01*
X130564Y157723D02*
X131638D01*
X130564Y155693D02*
X132309D01*
X133517Y154955D02*
X136335D01*
X137140Y158830D02*
X137409Y159015D01*
X137812Y159569*
Y155693*
X139825Y159569D02*
X139422Y159384D01*
X139154Y158830*
X139020Y157908*
Y157354*
X139154Y156431*
X139422Y155878*
X139825Y155693*
X140093*
X140496Y155878*
X140764Y156431*
X140899Y157354*
Y157908*
X140764Y158830*
X140496Y159384*
X140093Y159569*
X139825*
X142106D02*
X143986Y155693D01*
Y159569D02*
X142106Y155693D01*
X145193Y158830D02*
X145462Y159015D01*
X145865Y159569*
Y155693*
X147878Y159569D02*
X147475Y159384D01*
X147207Y158830*
X147072Y157908*
Y157354*
X147207Y156431*
X147475Y155878*
X147878Y155693*
X148146*
X148549Y155878*
X148817Y156431*
X148952Y157354*
Y157908*
X148817Y158830*
X148549Y159384*
X148146Y159569*
X147878*
G74*
X0Y0D02*
M02*
