*
*
G04 PADS 9.3.1 Build Number: 456998 generated Gerber (RS-274-X) file*
G04 PC Version=2.1*
*
%IN "accumulatron_rev1.pcb"*%
*
%MOIN*%
*
%FSLAX35Y35*%
*
*
*
*
G04 PC Standard Apertures*
*
*
G04 Thermal Relief Aperture macro.*
%AMTER*
1,1,$1,0,0*
1,0,$1-$2,0,0*
21,0,$3,$4,0,0,45*
21,0,$3,$4,0,0,135*
%
*
*
G04 Annular Aperture macro.*
%AMANN*
1,1,$1,0,0*
1,0,$2,0,0*
%
*
*
G04 Odd Aperture macro.*
%AMODD*
1,1,$1,0,0*
1,0,$1-0.005,0,0*
%
*
*
G04 PC Custom Aperture Macros*
*
*
*
*
*
*
G04 PC Aperture Table*
*
%ADD010C,0.001*%
%ADD011C,0.004*%
%ADD014C,0.008*%
%ADD017C,0.095*%
%ADD020C,0.01*%
%ADD021C,0.06299*%
%ADD022C,0.02*%
%ADD023C,0.062*%
%ADD024C,0.15*%
%ADD026C,0.05906*%
%ADD029C,0.03*%
%ADD031C,0.016*%
%ADD036C,0.04*%
%ADD041C,0.028*%
%ADD042C,0.015*%
%ADD043R,0.01417X0.05906*%
%ADD044R,0.01378X0.05906*%
%ADD045O,0.01417X0.05906*%
*
*
*
*
G04 PC Circuitry*
G04 Layer Name accumulatron_rev1.pcb - circuitry*
%LPD*%
*
*
G04 PC Custom Flashes*
G04 Layer Name accumulatron_rev1.pcb - flashes*
%LPD*%
*
*
G04 PC Circuitry*
G04 Layer Name accumulatron_rev1.pcb - circuitry*
%LPD*%
*
G54D10*
G54D11*
G01X191000Y135700D02*
Y133100D01*
X187600*
Y135700*
X191000*
X187600Y133200D02*
X191000D01*
X187600Y133600D02*
X191000D01*
X187600Y134000D02*
X191000D01*
X187600Y134400D02*
X191000D01*
X187600Y134800D02*
X191000D01*
X187600Y135200D02*
X191000D01*
X187600Y135600D02*
X191000D01*
X187600Y133100D02*
Y135700D01*
X188000Y133100D02*
Y135700D01*
X188400Y133100D02*
Y135700D01*
X188800Y133100D02*
Y135700D01*
X189200Y133100D02*
Y135700D01*
X189600Y133100D02*
Y135700D01*
X190000Y133100D02*
Y135700D01*
X190400Y133100D02*
Y135700D01*
X190800Y133100D02*
Y135700D01*
X197200D02*
Y133100D01*
X193800*
Y135700*
X197200*
X193800Y133200D02*
X197200D01*
X193800Y133600D02*
X197200D01*
X193800Y134000D02*
X197200D01*
X193800Y134400D02*
X197200D01*
X193800Y134800D02*
X197200D01*
X193800Y135200D02*
X197200D01*
X193800Y135600D02*
X197200D01*
X194000Y133100D02*
Y135700D01*
X194400Y133100D02*
Y135700D01*
X194800Y133100D02*
Y135700D01*
X195200Y133100D02*
Y135700D01*
X195600Y133100D02*
Y135700D01*
X196000Y133100D02*
Y135700D01*
X196400Y133100D02*
Y135700D01*
X196800Y133100D02*
Y135700D01*
X197200Y133100D02*
Y135700D01*
X254000Y177100D02*
X251400D01*
Y180500*
X254000*
Y177100*
X251400Y177200D02*
X254000D01*
X251400Y177600D02*
X254000D01*
X251400Y178000D02*
X254000D01*
X251400Y178400D02*
X254000D01*
X251400Y178800D02*
X254000D01*
X251400Y179200D02*
X254000D01*
X251400Y179600D02*
X254000D01*
X251400Y180000D02*
X254000D01*
X251400Y180400D02*
X254000D01*
X251600Y177100D02*
Y180500D01*
X252000Y177100D02*
Y180500D01*
X252400Y177100D02*
Y180500D01*
X252800Y177100D02*
Y180500D01*
X253200Y177100D02*
Y180500D01*
X253600Y177100D02*
Y180500D01*
X254000Y177100D02*
Y180500D01*
Y170900D02*
X251400D01*
Y174300*
X254000*
Y170900*
X251400Y171200D02*
X254000D01*
X251400Y171600D02*
X254000D01*
X251400Y172000D02*
X254000D01*
X251400Y172400D02*
X254000D01*
X251400Y172800D02*
X254000D01*
X251400Y173200D02*
X254000D01*
X251400Y173600D02*
X254000D01*
X251400Y174000D02*
X254000D01*
X251600Y170900D02*
Y174300D01*
X252000Y170900D02*
Y174300D01*
X252400Y170900D02*
Y174300D01*
X252800Y170900D02*
Y174300D01*
X253200Y170900D02*
Y174300D01*
X253600Y170900D02*
Y174300D01*
X254000Y170900D02*
Y174300D01*
X236900Y159600D02*
X239500D01*
Y156200*
X236900*
Y159600*
Y156400D02*
X239500D01*
X236900Y156800D02*
X239500D01*
X236900Y157200D02*
X239500D01*
X236900Y157600D02*
X239500D01*
X236900Y158000D02*
X239500D01*
X236900Y158400D02*
X239500D01*
X236900Y158800D02*
X239500D01*
X236900Y159200D02*
X239500D01*
X236900Y159600D02*
X239500D01*
X237200Y156200D02*
Y159600D01*
X237600Y156200D02*
Y159600D01*
X238000Y156200D02*
Y159600D01*
X238400Y156200D02*
Y159600D01*
X238800Y156200D02*
Y159600D01*
X239200Y156200D02*
Y159600D01*
X236900Y165800D02*
X239500D01*
Y162400*
X236900*
Y165800*
Y162400D02*
X239500D01*
X236900Y162800D02*
X239500D01*
X236900Y163200D02*
X239500D01*
X236900Y163600D02*
X239500D01*
X236900Y164000D02*
X239500D01*
X236900Y164400D02*
X239500D01*
X236900Y164800D02*
X239500D01*
X236900Y165200D02*
X239500D01*
X236900Y165600D02*
X239500D01*
X237200Y162400D02*
Y165800D01*
X237600Y162400D02*
Y165800D01*
X238000Y162400D02*
Y165800D01*
X238400Y162400D02*
Y165800D01*
X238800Y162400D02*
Y165800D01*
X239200Y162400D02*
Y165800D01*
X376800Y349800D02*
Y352400D01*
X380200*
Y349800*
X376800*
Y350000D02*
X380200D01*
X376800Y350400D02*
X380200D01*
X376800Y350800D02*
X380200D01*
X376800Y351200D02*
X380200D01*
X376800Y351600D02*
X380200D01*
X376800Y352000D02*
X380200D01*
X376800Y352400D02*
X380200D01*
X376800Y349800D02*
Y352400D01*
X377200Y349800D02*
Y352400D01*
X377600Y349800D02*
Y352400D01*
X378000Y349800D02*
Y352400D01*
X378400Y349800D02*
Y352400D01*
X378800Y349800D02*
Y352400D01*
X379200Y349800D02*
Y352400D01*
X379600Y349800D02*
Y352400D01*
X380000Y349800D02*
Y352400D01*
X370600Y349800D02*
Y352400D01*
X374000*
Y349800*
X370600*
Y350000D02*
X374000D01*
X370600Y350400D02*
X374000D01*
X370600Y350800D02*
X374000D01*
X370600Y351200D02*
X374000D01*
X370600Y351600D02*
X374000D01*
X370600Y352000D02*
X374000D01*
X370600Y352400D02*
X374000D01*
X370800Y349800D02*
Y352400D01*
X371200Y349800D02*
Y352400D01*
X371600Y349800D02*
Y352400D01*
X372000Y349800D02*
Y352400D01*
X372400Y349800D02*
Y352400D01*
X372800Y349800D02*
Y352400D01*
X373200Y349800D02*
Y352400D01*
X373600Y349800D02*
Y352400D01*
X374000Y349800D02*
Y352400D01*
Y347400D02*
Y344800D01*
X370600*
Y347400*
X374000*
X370600Y344800D02*
X374000D01*
X370600Y345200D02*
X374000D01*
X370600Y345600D02*
X374000D01*
X370600Y346000D02*
X374000D01*
X370600Y346400D02*
X374000D01*
X370600Y346800D02*
X374000D01*
X370600Y347200D02*
X374000D01*
X370800Y344800D02*
Y347400D01*
X371200Y344800D02*
Y347400D01*
X371600Y344800D02*
Y347400D01*
X372000Y344800D02*
Y347400D01*
X372400Y344800D02*
Y347400D01*
X372800Y344800D02*
Y347400D01*
X373200Y344800D02*
Y347400D01*
X373600Y344800D02*
Y347400D01*
X374000Y344800D02*
Y347400D01*
X380200D02*
Y344800D01*
X376800*
Y347400*
X380200*
X376800Y344800D02*
X380200D01*
X376800Y345200D02*
X380200D01*
X376800Y345600D02*
X380200D01*
X376800Y346000D02*
X380200D01*
X376800Y346400D02*
X380200D01*
X376800Y346800D02*
X380200D01*
X376800Y347200D02*
X380200D01*
X376800Y344800D02*
Y347400D01*
X377200Y344800D02*
Y347400D01*
X377600Y344800D02*
Y347400D01*
X378000Y344800D02*
Y347400D01*
X378400Y344800D02*
Y347400D01*
X378800Y344800D02*
Y347400D01*
X379200Y344800D02*
Y347400D01*
X379600Y344800D02*
Y347400D01*
X380000Y344800D02*
Y347400D01*
X376400Y288700D02*
Y291300D01*
X379800*
Y288700*
X376400*
Y288800D02*
X379800D01*
X376400Y289200D02*
X379800D01*
X376400Y289600D02*
X379800D01*
X376400Y290000D02*
X379800D01*
X376400Y290400D02*
X379800D01*
X376400Y290800D02*
X379800D01*
X376400Y291200D02*
X379800D01*
X376400Y288700D02*
Y291300D01*
X376800Y288700D02*
Y291300D01*
X377200Y288700D02*
Y291300D01*
X377600Y288700D02*
Y291300D01*
X378000Y288700D02*
Y291300D01*
X378400Y288700D02*
Y291300D01*
X378800Y288700D02*
Y291300D01*
X379200Y288700D02*
Y291300D01*
X379600Y288700D02*
Y291300D01*
X370200Y288700D02*
Y291300D01*
X373600*
Y288700*
X370200*
Y288800D02*
X373600D01*
X370200Y289200D02*
X373600D01*
X370200Y289600D02*
X373600D01*
X370200Y290000D02*
X373600D01*
X370200Y290400D02*
X373600D01*
X370200Y290800D02*
X373600D01*
X370200Y291200D02*
X373600D01*
X370400Y288700D02*
Y291300D01*
X370800Y288700D02*
Y291300D01*
X371200Y288700D02*
Y291300D01*
X371600Y288700D02*
Y291300D01*
X372000Y288700D02*
Y291300D01*
X372400Y288700D02*
Y291300D01*
X372800Y288700D02*
Y291300D01*
X373200Y288700D02*
Y291300D01*
X373600Y288700D02*
Y291300D01*
Y286300D02*
Y283700D01*
X370200*
Y286300*
X373600*
X370200Y284000D02*
X373600D01*
X370200Y284400D02*
X373600D01*
X370200Y284800D02*
X373600D01*
X370200Y285200D02*
X373600D01*
X370200Y285600D02*
X373600D01*
X370200Y286000D02*
X373600D01*
X370400Y283700D02*
Y286300D01*
X370800Y283700D02*
Y286300D01*
X371200Y283700D02*
Y286300D01*
X371600Y283700D02*
Y286300D01*
X372000Y283700D02*
Y286300D01*
X372400Y283700D02*
Y286300D01*
X372800Y283700D02*
Y286300D01*
X373200Y283700D02*
Y286300D01*
X373600Y283700D02*
Y286300D01*
X379800D02*
Y283700D01*
X376400*
Y286300*
X379800*
X376400Y284000D02*
X379800D01*
X376400Y284400D02*
X379800D01*
X376400Y284800D02*
X379800D01*
X376400Y285200D02*
X379800D01*
X376400Y285600D02*
X379800D01*
X376400Y286000D02*
X379800D01*
X376400Y283700D02*
Y286300D01*
X376800Y283700D02*
Y286300D01*
X377200Y283700D02*
Y286300D01*
X377600Y283700D02*
Y286300D01*
X378000Y283700D02*
Y286300D01*
X378400Y283700D02*
Y286300D01*
X378800Y283700D02*
Y286300D01*
X379200Y283700D02*
Y286300D01*
X379600Y283700D02*
Y286300D01*
X377400Y230700D02*
Y233300D01*
X380800*
Y230700*
X377400*
Y230800D02*
X380800D01*
X377400Y231200D02*
X380800D01*
X377400Y231600D02*
X380800D01*
X377400Y232000D02*
X380800D01*
X377400Y232400D02*
X380800D01*
X377400Y232800D02*
X380800D01*
X377400Y233200D02*
X380800D01*
X377600Y230700D02*
Y233300D01*
X378000Y230700D02*
Y233300D01*
X378400Y230700D02*
Y233300D01*
X378800Y230700D02*
Y233300D01*
X379200Y230700D02*
Y233300D01*
X379600Y230700D02*
Y233300D01*
X380000Y230700D02*
Y233300D01*
X380400Y230700D02*
Y233300D01*
X380800Y230700D02*
Y233300D01*
X371200Y230700D02*
Y233300D01*
X374600*
Y230700*
X371200*
Y230800D02*
X374600D01*
X371200Y231200D02*
X374600D01*
X371200Y231600D02*
X374600D01*
X371200Y232000D02*
X374600D01*
X371200Y232400D02*
X374600D01*
X371200Y232800D02*
X374600D01*
X371200Y233200D02*
X374600D01*
X371200Y230700D02*
Y233300D01*
X371600Y230700D02*
Y233300D01*
X372000Y230700D02*
Y233300D01*
X372400Y230700D02*
Y233300D01*
X372800Y230700D02*
Y233300D01*
X373200Y230700D02*
Y233300D01*
X373600Y230700D02*
Y233300D01*
X374000Y230700D02*
Y233300D01*
X374400Y230700D02*
Y233300D01*
X374600Y228300D02*
Y225700D01*
X371200*
Y228300*
X374600*
X371200Y226000D02*
X374600D01*
X371200Y226400D02*
X374600D01*
X371200Y226800D02*
X374600D01*
X371200Y227200D02*
X374600D01*
X371200Y227600D02*
X374600D01*
X371200Y228000D02*
X374600D01*
X371200Y225700D02*
Y228300D01*
X371600Y225700D02*
Y228300D01*
X372000Y225700D02*
Y228300D01*
X372400Y225700D02*
Y228300D01*
X372800Y225700D02*
Y228300D01*
X373200Y225700D02*
Y228300D01*
X373600Y225700D02*
Y228300D01*
X374000Y225700D02*
Y228300D01*
X374400Y225700D02*
Y228300D01*
X380800D02*
Y225700D01*
X377400*
Y228300*
X380800*
X377400Y226000D02*
X380800D01*
X377400Y226400D02*
X380800D01*
X377400Y226800D02*
X380800D01*
X377400Y227200D02*
X380800D01*
X377400Y227600D02*
X380800D01*
X377400Y228000D02*
X380800D01*
X377600Y225700D02*
Y228300D01*
X378000Y225700D02*
Y228300D01*
X378400Y225700D02*
Y228300D01*
X378800Y225700D02*
Y228300D01*
X379200Y225700D02*
Y228300D01*
X379600Y225700D02*
Y228300D01*
X380000Y225700D02*
Y228300D01*
X380400Y225700D02*
Y228300D01*
X380800Y225700D02*
Y228300D01*
X377400Y171700D02*
Y174300D01*
X380800*
Y171700*
X377400*
Y172000D02*
X380800D01*
X377400Y172400D02*
X380800D01*
X377400Y172800D02*
X380800D01*
X377400Y173200D02*
X380800D01*
X377400Y173600D02*
X380800D01*
X377400Y174000D02*
X380800D01*
X377600Y171700D02*
Y174300D01*
X378000Y171700D02*
Y174300D01*
X378400Y171700D02*
Y174300D01*
X378800Y171700D02*
Y174300D01*
X379200Y171700D02*
Y174300D01*
X379600Y171700D02*
Y174300D01*
X380000Y171700D02*
Y174300D01*
X380400Y171700D02*
Y174300D01*
X380800Y171700D02*
Y174300D01*
X371200Y171700D02*
Y174300D01*
X374600*
Y171700*
X371200*
Y172000D02*
X374600D01*
X371200Y172400D02*
X374600D01*
X371200Y172800D02*
X374600D01*
X371200Y173200D02*
X374600D01*
X371200Y173600D02*
X374600D01*
X371200Y174000D02*
X374600D01*
X371200Y171700D02*
Y174300D01*
X371600Y171700D02*
Y174300D01*
X372000Y171700D02*
Y174300D01*
X372400Y171700D02*
Y174300D01*
X372800Y171700D02*
Y174300D01*
X373200Y171700D02*
Y174300D01*
X373600Y171700D02*
Y174300D01*
X374000Y171700D02*
Y174300D01*
X374400Y171700D02*
Y174300D01*
X374600Y169300D02*
Y166700D01*
X371200*
Y169300*
X374600*
X371200Y166800D02*
X374600D01*
X371200Y167200D02*
X374600D01*
X371200Y167600D02*
X374600D01*
X371200Y168000D02*
X374600D01*
X371200Y168400D02*
X374600D01*
X371200Y168800D02*
X374600D01*
X371200Y169200D02*
X374600D01*
X371200Y166700D02*
Y169300D01*
X371600Y166700D02*
Y169300D01*
X372000Y166700D02*
Y169300D01*
X372400Y166700D02*
Y169300D01*
X372800Y166700D02*
Y169300D01*
X373200Y166700D02*
Y169300D01*
X373600Y166700D02*
Y169300D01*
X374000Y166700D02*
Y169300D01*
X374400Y166700D02*
Y169300D01*
X380800D02*
Y166700D01*
X377400*
Y169300*
X380800*
X377400Y166800D02*
X380800D01*
X377400Y167200D02*
X380800D01*
X377400Y167600D02*
X380800D01*
X377400Y168000D02*
X380800D01*
X377400Y168400D02*
X380800D01*
X377400Y168800D02*
X380800D01*
X377400Y169200D02*
X380800D01*
X377600Y166700D02*
Y169300D01*
X378000Y166700D02*
Y169300D01*
X378400Y166700D02*
Y169300D01*
X378800Y166700D02*
Y169300D01*
X379200Y166700D02*
Y169300D01*
X379600Y166700D02*
Y169300D01*
X380000Y166700D02*
Y169300D01*
X380400Y166700D02*
Y169300D01*
X380800Y166700D02*
Y169300D01*
X347100Y123000D02*
X349700D01*
Y119600*
X347100*
Y123000*
Y119600D02*
X349700D01*
X347100Y120000D02*
X349700D01*
X347100Y120400D02*
X349700D01*
X347100Y120800D02*
X349700D01*
X347100Y121200D02*
X349700D01*
X347100Y121600D02*
X349700D01*
X347100Y122000D02*
X349700D01*
X347100Y122400D02*
X349700D01*
X347100Y122800D02*
X349700D01*
X347200Y119600D02*
Y123000D01*
X347600Y119600D02*
Y123000D01*
X348000Y119600D02*
Y123000D01*
X348400Y119600D02*
Y123000D01*
X348800Y119600D02*
Y123000D01*
X349200Y119600D02*
Y123000D01*
X349600Y119600D02*
Y123000D01*
X347100Y129200D02*
X349700D01*
Y125800*
X347100*
Y129200*
Y126000D02*
X349700D01*
X347100Y126400D02*
X349700D01*
X347100Y126800D02*
X349700D01*
X347100Y127200D02*
X349700D01*
X347100Y127600D02*
X349700D01*
X347100Y128000D02*
X349700D01*
X347100Y128400D02*
X349700D01*
X347100Y128800D02*
X349700D01*
X347100Y129200D02*
X349700D01*
X347200Y125800D02*
Y129200D01*
X347600Y125800D02*
Y129200D01*
X348000Y125800D02*
Y129200D01*
X348400Y125800D02*
Y129200D01*
X348800Y125800D02*
Y129200D01*
X349200Y125800D02*
Y129200D01*
X349600Y125800D02*
Y129200D01*
X344700Y125800D02*
X342100D01*
Y129200*
X344700*
Y125800*
X342100Y126000D02*
X344700D01*
X342100Y126400D02*
X344700D01*
X342100Y126800D02*
X344700D01*
X342100Y127200D02*
X344700D01*
X342100Y127600D02*
X344700D01*
X342100Y128000D02*
X344700D01*
X342100Y128400D02*
X344700D01*
X342100Y128800D02*
X344700D01*
X342100Y129200D02*
X344700D01*
X342400Y125800D02*
Y129200D01*
X342800Y125800D02*
Y129200D01*
X343200Y125800D02*
Y129200D01*
X343600Y125800D02*
Y129200D01*
X344000Y125800D02*
Y129200D01*
X344400Y125800D02*
Y129200D01*
X344700Y119600D02*
X342100D01*
Y123000*
X344700*
Y119600*
X342100D02*
X344700D01*
X342100Y120000D02*
X344700D01*
X342100Y120400D02*
X344700D01*
X342100Y120800D02*
X344700D01*
X342100Y121200D02*
X344700D01*
X342100Y121600D02*
X344700D01*
X342100Y122000D02*
X344700D01*
X342100Y122400D02*
X344700D01*
X342100Y122800D02*
X344700D01*
X342400Y119600D02*
Y123000D01*
X342800Y119600D02*
Y123000D01*
X343200Y119600D02*
Y123000D01*
X343600Y119600D02*
Y123000D01*
X344000Y119600D02*
Y123000D01*
X344400Y119600D02*
Y123000D01*
G54D14*
X139473Y106300D02*
X139655Y106800D01*
X140018Y107300*
X140382Y107550*
X141109*
X141473Y107300*
X141836Y106800*
X142018Y106300*
X142200Y105550*
Y104300*
X142018Y103550*
X141836Y103050*
X141473Y102550*
X141109Y102300*
X140382*
X140018Y102550*
X139655Y103050*
X139473Y103550*
X136382Y107550D02*
X137836Y102300D01*
X136382Y107550D02*
X134927Y102300D01*
X137291Y104050D02*
X135473D01*
X133291Y107550D02*
Y102300D01*
X130745Y107550D02*
Y102300D01*
X133291Y105050D02*
X130745D01*
G54D17*
X157000Y203000D03*
X178700D03*
G54D20*
X248050Y179540D02*
Y178540D01*
X245550*
Y179540*
X248050*
X245550Y179000D02*
X248050D01*
X246000Y178540D02*
Y179540D01*
X247000Y178540D02*
Y179540D01*
X248000Y178540D02*
Y179540D01*
X248050Y172060D02*
Y171060D01*
X245550*
Y172060*
X248050*
X245550Y172000D02*
X248050D01*
X246000Y171060D02*
Y172060D01*
X247000Y171060D02*
Y172060D01*
X248000Y171060D02*
Y172060D01*
X240176Y175800D02*
Y174800D01*
X237676*
Y175800*
X240176*
X237676Y175000D02*
X240176D01*
X238000Y174800D02*
Y175800D01*
X239000Y174800D02*
Y175800D01*
X240000Y174800D02*
Y175800D01*
X222100Y128600D02*
Y164700D01*
X238300Y153600D02*
Y157900D01*
X238200*
X234600Y161500*
Y162800*
X232900Y164500*
X229600*
X238200Y164100D02*
Y175300D01*
X238926*
X232532Y175265D02*
X232568Y175300D01*
X238926*
X252700Y178800D02*
Y200100D01*
X252000Y200800*
Y221600*
X252700Y178800D02*
X252460Y179040D01*
X246800*
X240200Y188500D02*
X234700Y194000D01*
Y213900*
X279100Y186400D02*
X284777D01*
X299200Y200823*
Y212700*
X299300*
X295500Y200800D02*
Y210500D01*
X295600Y210600*
Y216400*
X267300Y207100D02*
Y215400D01*
X121300Y239779D02*
Y307100D01*
X123400Y309200*
Y319800*
X129400Y234100D02*
X130200Y234900D01*
X145200*
X147000Y236700*
X150100*
X129400Y234100D02*
X126979D01*
X121300Y239779*
X131600Y231800D02*
X126485D01*
X119600Y238685*
Y303174*
X112400Y310374*
X123500Y229700D02*
Y232380D01*
X117700Y238180*
Y290444*
X112400Y295744*
Y302500*
X208400Y235300D02*
Y246400D01*
X213000Y237200D02*
X216834Y241034D01*
Y241611*
X220923Y245700*
X229696*
X235600Y251604*
Y255500*
X221500Y242600D02*
X229000D01*
X242100Y255700*
X255200*
X224000Y239500D02*
X229000D01*
X231900Y242400*
X235200*
X253300Y230400D02*
Y237300D01*
X250700Y239900*
Y241800*
X249300Y230100D02*
Y235700D01*
X248100Y236900*
Y243800*
X261300Y227700D02*
Y234000D01*
X258600Y236700*
Y241700*
X257200Y225800D02*
Y233100D01*
X255100Y235200*
Y241900*
X276777Y237900D02*
X279400Y240523D01*
Y249100*
X276777Y237900D02*
X263723D01*
X261200Y240423*
Y242777*
X259477Y244500*
X271500Y240800D02*
X268500Y242200D01*
X266500Y244200*
Y258955*
X255300Y270155*
X264800Y240500D02*
Y258250D01*
X253600Y269450*
Y289200*
X283000Y241000D02*
Y244392D01*
X281100Y246292*
Y249804*
X268000Y262904*
Y268800*
X263400Y273400*
Y275100*
X262000Y276500*
Y279200*
X209968Y258032D02*
X216236Y264300D01*
X223000*
X225100Y266400*
Y278800*
X228600Y282300*
X232200*
X210100Y257900D02*
X209968Y258032D01*
X230500Y255800D02*
Y262500D01*
Y250836*
X229000Y248800D02*
X230500Y250836D01*
X248100Y243800D02*
X248800Y244500D01*
X259477*
X246600Y261000D02*
Y263600D01*
X245800Y264400*
X279400Y249100D02*
X264900Y263600D01*
X262000Y268000*
X174800Y283000D02*
X185100D01*
X219000Y276500D02*
Y276750D01*
X212100*
Y277000*
X219500Y280300D02*
X215800D01*
X215600Y280500*
X211900*
X255300Y270155D02*
Y283055D01*
X256700Y284455*
Y287200*
X245900Y272987D02*
Y298815D01*
X235257Y309457*
X245800Y264400D02*
Y269700D01*
X247600Y271500*
Y299519*
X238200Y308919*
Y310964*
X238000Y311164*
X236500Y313200*
X249300Y270686D02*
Y300223D01*
X240000Y309523*
Y313100*
X243100Y263600D02*
Y270187D01*
X245900Y272987*
X251000Y268600D02*
Y302200D01*
X242700Y310500*
X248400Y265500D02*
Y269786D01*
X249300Y270686*
X276300Y270300D02*
X262900Y283700D01*
Y299100*
X248400Y313600*
X306800Y270200D02*
Y275100D01*
X306900Y275200*
Y280000*
X315000Y277500D02*
X323800D01*
X324600Y272800D02*
X319700D01*
X319300Y273200*
X314400*
X208100Y292800D02*
X212800D01*
X215000Y295000*
Y296600*
X216100Y297700*
X221600*
X219021Y291802D02*
X220300Y294058D01*
X221342Y295100*
X222677*
X226000Y298423*
X208700Y302200D02*
X205000Y305900D01*
Y314981*
X213100Y302400D02*
X206700Y308800D01*
X219200Y291700D02*
X219021Y291802D01*
X203500Y302200D02*
Y304700D01*
X199350Y308850*
X207800Y284200D02*
X220400D01*
X221100Y284900*
X233500*
X225181Y305100D02*
X227200Y303081D01*
X227700Y302581*
X229400Y293900D02*
Y303285D01*
X225885Y306800*
X226000Y298423D02*
Y301877D01*
X224477Y303400*
X240800Y291500D02*
Y298900D01*
X230600Y309100*
X219500*
X222700Y292500D02*
X223600D01*
X227700Y296600*
Y302581*
X227400Y291900D02*
X229400Y293900D01*
X236400Y284800D02*
X233600D01*
X233500Y284900*
X239300Y290500D02*
X240800Y291500D01*
X265800Y284500D02*
Y289800D01*
X270000Y294000*
X293100Y286500D02*
X289500D01*
X279200Y296800*
X328000Y292000D02*
X319500D01*
X317500Y294000*
X309000*
X199100Y308600D02*
X199350Y308850D01*
X222018Y303100D02*
X222318Y303400D01*
X224477*
X222018Y303100D02*
X216523D01*
X209300Y310323*
Y313200*
X221309Y304800D02*
X221609Y305100D01*
X225181*
X221309Y304800D02*
X217719D01*
X214000Y308519*
Y309300*
X212200Y311100*
X220600Y306500D02*
X220900Y306800D01*
X222500*
X220600Y306500D02*
X218423D01*
X215700Y309223*
Y313800*
X219577Y312744D02*
X218298Y315000D01*
X216898Y316400*
X208823*
X205000Y314981D02*
X208119Y318100D01*
X217864*
X206700Y308800D02*
Y314277D01*
X208823Y316400*
X219500Y312700D02*
X219577Y312744D01*
X222500Y306800D02*
X225885D01*
X223132Y312832D02*
X217864Y318100D01*
X235257Y309457D02*
X235300Y309500D01*
X223000Y312700D02*
X223132Y312832D01*
X248600Y322700D02*
X228100D01*
X227100Y323700*
X222800*
X240200Y324400D02*
X241200Y325400D01*
X251900*
X240200Y324400D02*
X232264D01*
X230432Y326232*
X230200Y326000D02*
X230432Y326232D01*
X251900Y325200D02*
Y325400D01*
X304000Y157800D02*
G75*
G03X304000I-4300J0D01*
G01X295000D02*
G03X295000I-4300J0D01*
G01X352500Y138700D02*
G03X352500I-2600J0D01*
G01X346600Y137962D02*
G03X346600I-2600J0D01*
G01X336600D02*
G03X336600I-2600J0D01*
G01X326600Y147962D02*
G03X326600I-2600J0D01*
G01X316600D02*
G03X316600I-2600J0D01*
G01X306600D02*
G03X306600I-2600J0D01*
G01X296600D02*
G03X296600I-2600J0D01*
G01X276600D02*
G03X276600I-2600J0D01*
G01X266600D02*
G03X266600I-2600J0D01*
G01X256600D02*
G03X256600I-2600J0D01*
G01X246600D02*
G03X246600I-2600J0D01*
G01X162950Y203000D02*
G03X162950I-5950J0D01*
G01X135600D02*
G03X135600I-7300J0D01*
G01X184650D02*
G03X184650I-5950J0D01*
G01X209500Y127800D02*
G03X209500I-2600J0D01*
G01X250000Y157800D02*
G03X250000I-4300J0D01*
G01X256400Y121800D02*
G03X256400I-8700J0D01*
G01X306400D02*
G03X306400I-8700J0D01*
G01X376400Y353742D02*
Y368400D01*
X368400*
Y164000*
X263300*
Y165458*
Y170466D02*
G03Y165458I700J-2504D01*
G01Y170466D02*
Y198500D01*
X254500*
Y181808*
X255400Y180500D02*
G03X254500Y181808I-1400J0D01*
G01X255400Y180500D02*
Y177100D01*
X254500Y175792D02*
G03X255400Y177100I-500J1308D01*
G01X254500Y175792D02*
Y175608D01*
X255400Y174300D02*
G03X254500Y175608I-1400J0D01*
G01X255400Y174300D02*
Y170900D01*
X254500Y169592D02*
G03X255400Y170900I-500J1308D01*
G01X254500Y169592D02*
Y162173D01*
Y153583D02*
G03Y162173I200J4295D01*
G01Y153583D02*
Y152800D01*
X376400*
Y165720*
X376000Y166692D02*
G03X376400Y165720I1400J8D01*
G01X374600Y165300D02*
G03X376000Y166692I0J1400D01*
G01X374600Y165300D02*
X371200D01*
X369800Y166700D02*
G03X371200Y165300I1400J0D01*
G01X369800Y166700D02*
Y169300D01*
X370479Y170500D02*
G03X369800Y169300I721J-1200D01*
G01Y171700D02*
G03X370479Y170500I1400J0D01*
G01X369800Y171700D02*
Y174300D01*
X371200Y175700D02*
G03X369800Y174300I0J-1400D01*
G01X371200Y175700D02*
X374600D01*
X376000Y174308D02*
G03X374600Y175700I-1400J-8D01*
G01X376400Y175280D02*
G03X376000Y174308I1000J-980D01*
G01X376400Y175280D02*
Y224720D01*
X376000Y225692D02*
G03X376400Y224720I1400J8D01*
G01X374600Y224300D02*
G03X376000Y225692I0J1400D01*
G01X374600Y224300D02*
X371200D01*
X369800Y225700D02*
G03X371200Y224300I1400J0D01*
G01X369800Y225700D02*
Y227000D01*
Y230700*
Y233300*
X371200Y234700D02*
G03X369800Y233300I0J-1400D01*
G01X371200Y234700D02*
X374600D01*
X376000Y233308D02*
G03X374600Y234700I-1400J-8D01*
G01X376400Y234280D02*
G03X376000Y233308I1000J-980D01*
G01X376400Y234280D02*
Y282300D01*
X375000Y283692D02*
G03X376400Y282300I1400J8D01*
G01X373600D02*
G03X375000Y283692I0J1400D01*
G01X373600Y282300D02*
X370200D01*
X368800Y283700D02*
G03X370200Y282300I1400J0D01*
G01X368800Y283700D02*
Y285000D01*
Y288700*
Y291300*
X370200Y292700D02*
G03X368800Y291300I0J-1400D01*
G01X370200Y292700D02*
X373600D01*
X375000Y291308D02*
G03X373600Y292700I-1400J-8D01*
G01X376400D02*
G03X375000Y291308I0J-1400D01*
G01X376400Y292700D02*
Y343458D01*
X375400Y344792D02*
G03X376400Y343458I1400J8D01*
G01X374000Y343400D02*
G03X375400Y344792I0J1400D01*
G01X374000Y343400D02*
X370600D01*
X369200Y344800D02*
G03X370600Y343400I1400J0D01*
G01X369200Y344800D02*
Y346100D01*
Y349800*
Y352400*
X370600Y353800D02*
G03X369200Y352400I0J-1400D01*
G01X370600Y353800D02*
X374000D01*
X375400Y352408D02*
G03X374000Y353800I-1400J-8D01*
G01X376400Y353742D02*
G03X375400Y352408I400J-1342D01*
G01X230500Y154700D02*
Y181893D01*
X216593Y195800*
X203500*
Y180900*
X225207*
X226600Y179507*
Y178823*
X226764Y178217D02*
G03X226600Y178823I-1200J0D01*
G01X226764Y178217D02*
Y172312D01*
X226600Y171707D02*
G03X226764Y172312I-1036J605D01*
G01X226600Y171707D02*
Y161106D01*
X226764Y160501D02*
G03X226600Y161106I-1200J-0D01*
G01X226764Y160501D02*
Y154700D01*
X230500*
X397500Y124165D02*
Y369100D01*
X377949*
X378100Y368400D02*
G03X377949Y369100I-1700J0D01*
G01X378100Y368400D02*
Y353800D01*
X380200*
X384057*
X386679Y356433D02*
G03X384057Y353800I1321J-3937D01*
G01X389321Y356433D02*
G03X386679I-1321J3937D01*
G01X389321Y348559D02*
G03Y356433I-1321J3937D01*
G01Y340685D02*
G03Y348559I-1321J3937D01*
G01Y332811D02*
G03Y340685I-1321J3937D01*
G01Y324937D02*
G03Y332811I-1321J3937D01*
G01X386679Y324937D02*
G03X389321I1321J-3937D01*
G01X386679Y332811D02*
G03Y324937I1321J-3937D01*
G01Y340685D02*
G03Y332811I1321J-3937D01*
G01X384031Y343400D02*
G03X386679Y340685I3969J1222D01*
G01X384031Y343400D02*
X378500D01*
X378100*
Y292700*
X378372*
X379582Y293910*
X380996Y294496D02*
G03X379582Y293910I0J-2000D01*
G01X380996Y294496D02*
X384361D01*
X386679Y296433D02*
G03X384361Y294496I1321J-3937D01*
G01X389321Y296433D02*
G03X386679I-1321J3937D01*
G01X389321Y288559D02*
G03Y296433I-1321J3937D01*
G01Y280685D02*
G03Y288559I-1321J3937D01*
G01Y272811D02*
G03Y280685I-1321J3937D01*
G01Y264937D02*
G03Y272811I-1321J3937D01*
G01X386679Y264937D02*
G03X389321I1321J-3937D01*
G01X386679Y272811D02*
G03Y264937I1321J-3937D01*
G01Y280685D02*
G03Y272811I1321J-3937D01*
G01X384195Y282958D02*
G03X386679Y280685I3805J1664D01*
G01X384195Y282958D02*
X380987D01*
X379800Y282300D02*
G03X380987Y282958I0J1400D01*
G01X379800Y282300D02*
X378100D01*
Y234700*
X380800*
X381812Y234268D02*
G03X380800Y234700I-1012J-968D01*
G01X381812Y234268D02*
X382233Y234689D01*
X383647Y235275D02*
G03X382233Y234689I0J-2000D01*
G01X383647Y235275D02*
X384247D01*
X386679Y237433D02*
G03X384248Y235275I1321J-3937D01*
G01X389321Y237433D02*
G03X386679I-1321J3937D01*
G01X389321Y229559D02*
G03Y237433I-1321J3937D01*
G01Y221685D02*
G03Y229559I-1321J3937D01*
G01Y213811D02*
G03Y221685I-1321J3937D01*
G01Y205937D02*
G03Y213811I-1321J3937D01*
G01X386679Y205937D02*
G03X389321I1321J-3937D01*
G01X386679Y213811D02*
G03Y205937I1321J-3937D01*
G01Y221685D02*
G03Y213811I1321J-3937D01*
G01X384299Y223738D02*
G03X386679Y221685I3701J1884D01*
G01X384299Y223738D02*
X383647D01*
X382233Y224324D02*
G03X383647Y223738I1414J1414D01*
G01X382233Y224324D02*
X381818Y224739D01*
X380800Y224300D02*
G03X381818Y224739I0J1400D01*
G01X380800Y224300D02*
X378100D01*
Y175700*
X380800*
X381812Y175268D02*
G03X380800Y175700I-1012J-968D01*
G01X381812Y175268D02*
X382233Y175689D01*
X383647Y176275D02*
G03X382233Y175689I0J-2000D01*
G01X383647Y176275D02*
X384247D01*
X386679Y178433D02*
G03X384248Y176275I1321J-3937D01*
G01X389321Y178433D02*
G03X386679I-1321J3937D01*
G01X389321Y170559D02*
G03Y178433I-1321J3937D01*
G01Y162685D02*
G03Y170559I-1321J3937D01*
G01Y154811D02*
G03Y162685I-1321J3937D01*
G01Y146937D02*
G03Y154811I-1321J3937D01*
G01X386679Y146937D02*
G03X389321I1321J-3937D01*
G01X386679Y154811D02*
G03Y146937I1321J-3937D01*
G01Y162685D02*
G03Y154811I1321J-3937D01*
G01X384299Y164738D02*
G03X386679Y162685I3701J1884D01*
G01X384299Y164738D02*
X383647D01*
X382233Y165324D02*
G03X383647Y164738I1414J1414D01*
G01X382233Y165324D02*
X381818Y165739D01*
X380800Y165300D02*
G03X381818Y165739I0J1400D01*
G01X380800Y165300D02*
X378100D01*
Y152800*
X377700Y151705D02*
G03X378100Y152800I-1300J1095D01*
G01X377700Y151705D02*
Y151600D01*
X377604*
X376400Y151100D02*
G03X377604Y151600I0J1700D01*
G01X376400Y151100D02*
X254500D01*
X253296Y151600D02*
G03X254500Y151100I1204J1200D01*
G01X253296Y151600D02*
X239961D01*
X236639D02*
G03X239961I1661J2000D01*
G01X236639D02*
X234000D01*
Y159696*
X233398Y160298*
X232912Y161300D02*
G03X233398Y160298I1688J200D01*
G01X232912Y161300D02*
X232200D01*
Y154700*
X231700Y153496D02*
G03X232200Y154700I-1200J1204D01*
G01X231700Y153496D02*
Y153100D01*
X231075*
X230500Y153000D02*
G03X231075Y153100I0J1700D01*
G01X230500Y153000D02*
X226600D01*
X226025Y153100D02*
G03X226600Y153000I575J1600D01*
G01X226025Y153100D02*
X225400D01*
Y153496*
X224900Y154700D02*
G03X225400Y153496I1700J0D01*
G01X224900Y154700D02*
Y178300D01*
X223100*
Y167100*
X223800Y162733D02*
G03X223100Y167100I-1700J1967D01*
G01X223800Y162733D02*
Y143400D01*
X326700*
Y115513*
X331211Y112721D02*
G03X326700Y115513I-3937J-1321D01*
G01X339085Y112721D02*
G03X331211I-3937J-1321D01*
G01X341358Y115205D02*
G03X339085Y112721I1664J-3805D01*
G01X341358Y115205D02*
Y118413D01*
X340700Y119600D02*
G03X341358Y118413I1400J0D01*
G01X340700Y119600D02*
Y123000D01*
X342092Y124400D02*
G03X340700Y123000I8J-1400D01*
G01Y125800D02*
G03X342092Y124400I1400J0D01*
G01X340700Y125800D02*
Y129200D01*
X342100Y130600D02*
G03X340700Y129200I0J-1400D01*
G01X342100Y130600D02*
X344700D01*
X345900Y129921D02*
G03X344700Y130600I-1200J-721D01*
G01X347100D02*
G03X345900Y129921I0J-1400D01*
G01X347100Y130600D02*
X349700D01*
X351100Y129200D02*
G03X349700Y130600I-1400J0D01*
G01X351100Y129200D02*
Y125800D01*
X349708Y124400D02*
G03X351100Y125800I-8J1400D01*
G01Y123000D02*
G03X349708Y124400I-1400J0D01*
G01X351100Y123000D02*
Y121028D01*
X352310Y119818*
X352896Y118404D02*
G03X352310Y119818I-2000J-0D01*
G01X352896Y118404D02*
Y115039D01*
X354833Y112721D02*
G03X352896Y115039I-3937J-1321D01*
G01X354833Y110079D02*
G03Y112721I3937J1321D01*
G01X346959Y110079D02*
G03X354833I3937J1321D01*
G01X339085D02*
G03X346959I3937J1321D01*
G01X331211D02*
G03X339085I3937J1321D01*
G01X326700Y107287D02*
G03X331211Y110079I574J4113D01*
G01X326700Y107287D02*
Y104798D01*
X373504Y104603*
X397500Y124165D02*
G03X373504Y104603I-12500J-9165D01*
G01X279400Y136043D02*
G03X278000I-700J-4243D01*
G01X278700Y137222D02*
G03X279400Y136043I4000J1578D01*
G01X278000D02*
G03X278700Y137222I-3300J2757D01*
G01X267400Y134557D02*
G03X266700Y133378I3300J-2757D01*
G01X266000Y134557D02*
G03X267400I700J4243D01*
G01X266700Y133378D02*
G03X266000Y134557I-4000J-1578D01*
G01X263400Y136043D02*
G03X262000I-700J-4243D01*
G01X262700Y137222D02*
G03X263400Y136043I4000J1578D01*
G01X262000D02*
G03X262700Y137222I-3300J2757D01*
G01X236500Y167142D02*
Y173572D01*
X236472Y173600D02*
G03X236500Y173572I1204J1200D01*
G01X236472Y173600D02*
X234441D01*
Y173020*
X232200Y171141D02*
G03X234441Y173020I332J1879D01*
G01X232200Y171141D02*
Y166200D01*
X232900*
X234102Y165702D02*
G03X232900Y166200I-1202J-1202D01*
G01X234102Y165702D02*
X235500Y164304D01*
Y165800*
X236500Y167142D02*
G03X235500Y165800I400J-1342D01*
G01X377700Y370800D02*
X378786D01*
X375835Y397500D02*
G03X378786Y370800I9165J-12500D01*
G01X375835Y397500D02*
X351000D01*
Y349500*
X350500Y349000D02*
G03X351000Y349500I0J500D01*
G01X350500Y349000D02*
X149500D01*
X149000Y349500D02*
G03X149500Y349000I500J0D01*
G01X149000Y349500D02*
Y397500D01*
X124165*
X102500Y375835D02*
G03X124165Y397500I12500J9165D01*
G01X102500Y375835D02*
Y290226D01*
X102937Y290663*
X107463Y286137D02*
G03X102937Y290663I-2263J2263D01*
G01X107463Y286137D02*
X107200Y285875D01*
Y230200*
X102500Y227373D02*
G03X107200Y230200I1500J2827D01*
G01X102500Y227373D02*
Y124165D01*
X129722Y110150D02*
G03X102500Y124165I-14722J4850D01*
G01X129722Y110150D02*
X142600D01*
X143800Y108950D02*
G03X142600Y110150I-1200J0D01*
G01X143800Y108950D02*
Y102500D01*
X375835*
X375319Y102895D02*
G03X375835Y102500I9681J12105D01*
G01X375319Y102895D02*
X326693Y103098D01*
X325000Y104798D02*
G03X326693Y103098I1700J-0D01*
G01X325000Y104798D02*
Y107925D01*
X323337Y110079D02*
G03X325000Y107925I3937J1321D01*
G01X323337Y112721D02*
G03Y110079I-3937J-1321D01*
G01X325000Y114875D02*
G03X323337Y112721I2274J-3475D01*
G01X325000Y114875D02*
Y141700D01*
X285875*
X286000Y136043D02*
G03X285875Y141700I-3300J2757D01*
G01X282700Y130222D02*
G03X286000Y136043I4000J1578D01*
G01X274700Y130222D02*
G03X282700I4000J1578D01*
G01X266700D02*
G03X274700I4000J1578D01*
G01X259400Y134557D02*
G03X266700Y130222I3300J-2757D01*
G01X255525Y141700D02*
G03X259400Y134557I3175J-2900D01*
G01X255525Y141700D02*
X223800D01*
Y130567*
X220400D02*
G03X223800I1700J-1967D01*
G01X220400D02*
Y162733D01*
X221400Y167204D02*
G03X220400Y162733I700J-2504D01*
G01X221400Y167204D02*
Y178300D01*
X221658Y179200D02*
G03X221400Y178300I1442J-900D01*
G01X221658Y179200D02*
X203500D01*
X201800Y180900D02*
G03X203500Y179200I1700J0D01*
G01X201800Y180900D02*
Y195800D01*
X203500Y197500D02*
G03X201800Y195800I0J-1700D01*
G01X203500Y197500D02*
X206300D01*
Y216934*
X202333Y220901*
X201785Y221421D02*
G03X202333Y220901I2115J1679D01*
G01X197750Y221501D02*
G03X201785Y221421I2050J1599D01*
G01X197750Y224699D02*
G03Y221501I-2050J-1599D01*
G01X201785Y224779D02*
G03X197750Y224699I-1985J-1679D01*
G01X201991Y225009D02*
G03X201785Y224779I1909J-1909D01*
G01X201991Y225009D02*
X202017Y225035D01*
X205836Y225036D02*
G03X202017Y225035I-1910J-1910D01*
G01X205836Y225036D02*
X210909Y219962D01*
X211700Y218053D02*
G03X210909Y219962I-2700J-0D01*
G01X211700Y218053D02*
Y197500D01*
X216593*
X217795Y197002D02*
G03X216593Y197500I-1202J-1202D01*
G01X217795Y197002D02*
X231702Y183095D01*
X232200Y181893D02*
G03X231702Y183095I-1700J-0D01*
G01X232200Y181893D02*
Y179388D01*
X234441Y177509D02*
G03X232200Y179388I-1909J-0D01*
G01X234441Y177509D02*
Y177000D01*
X236472*
X237676Y177500D02*
G03X236472Y177000I-0J-1700D01*
G01X237676Y177500D02*
X240176D01*
X241876Y175800D02*
G03X240176Y177500I-1700J0D01*
G01X241876Y175800D02*
Y174800D01*
X240176Y173100D02*
G03X241876Y174800I-0J1700D01*
G01X240176Y173100D02*
X239900D01*
Y167142*
X240900Y165800D02*
G03X239900Y167142I-1400J0D01*
G01X240900Y165800D02*
Y162400D01*
X239508Y161000D02*
G03X240900Y162400I-8J1400D01*
G01Y159600D02*
G03X239508Y161000I-1400J0D01*
G01X240900Y159600D02*
Y156200D01*
X240402Y155130D02*
G03X240900Y156200I-902J1070D01*
G01X240883Y153300D02*
G03X240402Y155130I-2583J300D01*
G01X240883Y153300D02*
X252800D01*
Y154021*
Y161735D02*
G03Y154021I1900J-3857D01*
G01Y161735D02*
Y169500D01*
X251400*
X250000Y170900D02*
G03X251400Y169500I1400J0D01*
G01X250000Y170900D02*
Y174300D01*
X251392Y175700D02*
G03X250000Y174300I8J-1400D01*
G01Y177100D02*
G03X251392Y175700I1400J0D01*
G01X250000Y177100D02*
Y177340D01*
X249254*
X248050Y176840D02*
G03X249254Y177340I0J1700D01*
G01X248050Y176840D02*
X245550D01*
X243850Y178540D02*
G03X245550Y176840I1700J0D01*
G01X243850Y178540D02*
Y179540D01*
X245550Y181240D02*
G03X243850Y179540I0J-1700D01*
G01X245550Y181240D02*
X248050D01*
X249254Y180740D02*
G03X248050Y181240I-1204J-1200D01*
G01X249254Y180740D02*
X250021D01*
X251000Y181842D02*
G03X250021Y180740I400J-1342D01*
G01X251000Y181842D02*
Y199396D01*
X250798Y199598*
X250300Y200800D02*
G03X250798Y199598I1700J0D01*
G01X250300Y200800D02*
Y219633D01*
X253700D02*
G03X250300I-1700J1967D01*
G01X253700D02*
Y201504D01*
X253902Y201302*
X254397Y200197D02*
G03X253902Y201302I-1697J-97D01*
G01X254500Y200200D02*
G03X254397Y200197I0J-1700D01*
G01X254500Y200200D02*
X263300D01*
X265000Y198500D02*
G03X263300Y200200I-1700J0D01*
G01X265000Y198500D02*
Y165700D01*
X366700*
Y239524*
Y243276D02*
G03Y239524I1800J-1876D01*
G01Y243276D02*
Y299400D01*
X364561*
Y303400D02*
G03Y299400I-1661J-2000D01*
G01Y303400D02*
X366700D01*
Y361900*
X359461*
Y365900D02*
G03Y361900I-1661J-2000D01*
G01Y365900D02*
X366700D01*
Y368400*
X368400Y370100D02*
G03X366700Y368400I0J-1700D01*
G01X368400Y370100D02*
X376325D01*
X377700Y370800D02*
G03X376325Y370100I0J-1700D01*
G01X206107Y302389D02*
G03X206100Y302210I2593J-189D01*
G01X206107Y302389D02*
X206092Y302404D01*
X206100Y302210D02*
G03X206092Y302404I-2600J-10D01*
G01X304000Y157800D02*
G03X304000I-4300J0D01*
G01X295000D02*
G03X295000I-4300J0D01*
G01X352500Y138700D02*
G03X352500I-2600J0D01*
G01X346600Y137962D02*
G03X346600I-2600J0D01*
G01X336600D02*
G03X336600I-2600J0D01*
G01X326600Y147962D02*
G03X326600I-2600J0D01*
G01X316600D02*
G03X316600I-2600J0D01*
G01X306600D02*
G03X306600I-2600J0D01*
G01X296600D02*
G03X296600I-2600J0D01*
G01X276600D02*
G03X276600I-2600J0D01*
G01X266600D02*
G03X266600I-2600J0D01*
G01X256600D02*
G03X256600I-2600J0D01*
G01X246600D02*
G03X246600I-2600J0D01*
G01X337321Y310063D02*
G03X334679I-1321J3937D01*
X337321I1321J-3937*
G01X323063Y185679D02*
G03Y188321I3937J1321D01*
Y185679I-3937J-1321*
G01X322063Y211679D02*
G03Y214321I3937J1321D01*
Y211679I-3937J-1321*
G01X322633Y271100D02*
G03X325223Y275324I1967J1700D01*
G01X322633Y271100D02*
X319700D01*
X318605Y271500D02*
G03X319700Y271100I1095J1300D01*
G01X318605Y271500D02*
X316367D01*
X313283Y275548D02*
G03X316367Y271500I1117J-2348D01*
G01X316967Y279200D02*
G03X313283Y275548I-1967J-1700D01*
G01X316967Y279200D02*
X321833D01*
X325223Y275324D02*
G03X321833Y279200I-1423J2176D01*
G01X308600Y278033D02*
G03X305200I-1700J1967D01*
G01X308600D02*
Y275200D01*
X308500Y274626D02*
G03X308600Y275200I-1600J574D01*
G01X308500Y274626D02*
Y272167D01*
X305100D02*
G03X308500I1700J-1967D01*
G01X305100D02*
Y275100D01*
X305200Y275674D02*
G03X305100Y275100I1600J-574D01*
G01X305200Y275674D02*
Y278033D01*
X326033Y290300D02*
G03Y293700I1967J1700D01*
G01Y290300D02*
X319500D01*
X318298Y290798D02*
G03X319500Y290300I1202J1202D01*
G01X318298Y290798D02*
X316796Y292300D01*
X310967*
Y295700D02*
G03Y292300I-1967J-1700D01*
G01Y295700D02*
X317500D01*
X318702Y295202D02*
G03X317500Y295700I-1202J-1202D01*
G01X318702Y295202D02*
X320204Y293700D01*
X326033*
X300900Y210651D02*
G03X297300Y214361I-1600J2049D01*
G01X300900Y210651D02*
Y200823D01*
X300402Y199621D02*
G03X300900Y200823I-1202J1202D01*
G01X300402Y199621D02*
X285979Y185198D01*
X284777Y184700D02*
G03X285979Y185198I-0J1700D01*
G01X284777Y184700D02*
X281067D01*
Y188100D02*
G03Y184700I-1967J-1700D01*
G01Y188100D02*
X284073D01*
X294412Y198439*
X293800Y202767D02*
G03X294412Y198439I1700J-1967D01*
G01X293800Y202767D02*
Y210500D01*
X293900Y211074D02*
G03X293800Y210500I1600J-574D01*
G01X293900Y211074D02*
Y214433D01*
X297300D02*
G03X293900I-1700J1967D01*
G01X297300D02*
Y214361D01*
X269000Y213433D02*
G03X265600I-1700J1967D01*
G01X269000D02*
Y209067D01*
X265600D02*
G03X269000I1700J-1967D01*
G01X265600D02*
Y213433D01*
X280818Y239586D02*
G03X284700Y242967I2182J1414D01*
G01X280602Y239321D02*
G03X280818Y239586I-1202J1202D01*
G01X280602Y239321D02*
X277979Y236698D01*
X276777Y236200D02*
G03X277979Y236698I-0J1700D01*
G01X276777Y236200D02*
X263723D01*
X262521Y236698D02*
G03X263723Y236200I1202J1202D01*
G01X262521Y236698D02*
X260300Y238919D01*
Y237404*
X262502Y235202*
X263000Y234000D02*
G03X262502Y235202I-1700J0D01*
G01X263000Y234000D02*
Y229667D01*
X259791Y225583D02*
G03X263000Y229667I1509J2117D01*
G01X255500Y227767D02*
G03X259791Y225583I1700J-1967D01*
G01X255500Y227767D02*
Y229014D01*
X251424Y228600D02*
G03X255500Y229014I1876J1800D01*
G01X247600Y232067D02*
G03X251424Y228600I1700J-1967D01*
G01X247600Y232067D02*
Y234996D01*
X246898Y235698*
X246400Y236900D02*
G03X246898Y235698I1700J0D01*
G01X246400Y236900D02*
Y243800D01*
X246898Y245002D02*
G03X246400Y243800I1202J-1202D01*
G01X246898Y245002D02*
X247598Y245702D01*
X248800Y246200D02*
G03X247598Y245702I0J-1700D01*
G01X248800Y246200D02*
X259477D01*
X260679Y245702D02*
G03X259477Y246200I-1202J-1202D01*
G01X260679Y245702D02*
X262402Y243979D01*
X262900Y242777D02*
G03X262402Y243979I-1700J-0D01*
G01X262900Y242777D02*
Y242275D01*
X263100Y242467D02*
G03X262900Y242275I1700J-1967D01*
G01X263100Y242467D02*
Y257546D01*
X253285Y267360*
X250951Y266000D02*
G03X253285Y267360I49J2600D01*
G01X248375Y262900D02*
G03X250951Y266000I25J2600D01*
G01X244005Y261163D02*
G03X248375Y262900I2595J-163D01*
G01X241400Y265567D02*
G03X244005Y261163I1700J-1967D01*
G01X241400Y265567D02*
Y270187D01*
X241898Y271389D02*
G03X241400Y270187I1202J-1202D01*
G01X241898Y271389D02*
X244200Y273691D01*
Y298111*
X235408Y306902*
X235202D02*
G03X235408I98J2598D01*
G01X235202D02*
X242002Y300102D01*
X242500Y298900D02*
G03X242002Y300102I-1700J0D01*
G01X242500Y298900D02*
Y291500D01*
X241881Y290188D02*
G03X242500Y291500I-1081J1312D01*
G01X239100Y293092D02*
G03X241881Y290188I200J-2592D01*
G01X239100Y293092D02*
Y298196D01*
X229896Y307400*
X227689*
X230602Y304487*
X231100Y303285D02*
G03X230602Y304487I-1700J0D01*
G01X231100Y303285D02*
Y293900D01*
X230602Y292698D02*
G03X231100Y293900I-1202J1202D01*
G01X230602Y292698D02*
X229993Y292089D01*
X224914Y291137D02*
G03X229993Y292089I2486J763D01*
G01X221369Y290266D02*
G03X224914Y291137I1331J2234D01*
G01X218414Y294178D02*
G03X221369Y290266I786J-2478D01*
G01X218414Y294178D02*
X218821Y294896D01*
X219098Y295260D02*
G03X218821Y294896I1202J-1202D01*
G01X219098Y295260D02*
X219731Y295893D01*
X219633Y296000D02*
G03X219731Y295893I1967J1700D01*
G01X219633Y296000D02*
X216804D01*
X216700Y295896*
Y295000*
X216202Y293798D02*
G03X216700Y295000I-1202J1202D01*
G01X216202Y293798D02*
X214002Y291598D01*
X212800Y291100D02*
G03X214002Y291598I0J1700D01*
G01X212800Y291100D02*
X210067D01*
Y294500D02*
G03Y291100I-1967J-1700D01*
G01Y294500D02*
X212096D01*
X213300Y295704*
Y296600*
X213798Y297802D02*
G03X213300Y296600I1202J-1202D01*
G01X213798Y297802D02*
X214898Y298902D01*
X216100Y299400D02*
G03X214898Y298902I0J-1700D01*
G01X216100Y299400D02*
X219633D01*
X223961Y298788D02*
G03X219633Y299400I-2361J-1088D01*
G01X223961Y298788D02*
X224300Y299127D01*
Y301173*
X223773Y301700*
X222983*
X222018Y301400D02*
G03X222983Y301700I0J1700D01*
G01X222018Y301400D02*
X216523D01*
X215597Y301675D02*
G03X216523Y301400I926J1425D01*
G01X210963Y300919D02*
G03X215597Y301675I2137J1481D01*
G01X206100Y302190D02*
G03X210963Y300919I2600J10D01*
G01X201710Y304086D02*
G03X206100Y302190I1790J-1886D01*
G01X201710Y304086D02*
X199721Y306075D01*
X201680Y308925D02*
G03X199721Y306075I-2580J-325D01*
G01X201680Y308925D02*
X203300Y307304D01*
Y314981*
X203798Y316183D02*
G03X203300Y314981I1202J-1202D01*
G01X203798Y316183D02*
X205715Y318100D01*
X200325*
X182363Y300137*
X177837Y304663D02*
G03X182363Y300137I2263J-2263D01*
G01X177837Y304663D02*
X196737Y323563D01*
X199000Y324500D02*
G03X196737Y323563I0J-3200D01*
G01X199000Y324500D02*
X219302D01*
X220282Y324347D02*
G03X219302Y324500I-980J-3047D01*
G01X224767Y325400D02*
G03X220282Y324347I-1967J-1700D01*
G01X224767Y325400D02*
X227100D01*
X227698Y325291D02*
G03X227100Y325400I-598J-1591D01*
G01X232784Y326284D02*
G03X227698Y325291I-2584J-284D01*
G01X232784Y326284D02*
X232969Y326100D01*
X239496*
X239998Y326602*
X241200Y327100D02*
G03X239998Y326602I0J-1700D01*
G01X241200Y327100D02*
X250125D01*
X251200Y322696D02*
G03X250125Y327100I700J2504D01*
G01X250476Y320900D02*
G03X251200Y322696I-1876J1800D01*
G01X250476Y320900D02*
X252300D01*
Y314500D02*
G03Y320900I0J3200D01*
G01Y314500D02*
X250839D01*
X250993Y313411D02*
G03X250839Y314500I-2593J189D01*
G01X250993Y313411D02*
X264102Y300302D01*
X264600Y299100D02*
G03X264102Y300302I-1700J0D01*
G01X264600Y299100D02*
Y291004D01*
X267407Y293811*
X269811Y291407D02*
G03X267407Y293811I189J2593D01*
G01X269811Y291407D02*
X267500Y289096D01*
Y286467*
X266873Y282132D02*
G03X267500Y286467I-1073J2368D01*
G01X266873Y282132D02*
X276111Y272893D01*
X273707Y270489D02*
G03X276111Y272893I2593J-189D01*
G01X273707Y270489D02*
X264564Y279632D01*
X263700Y277233D02*
G03X264564Y279632I-1700J1967D01*
G01X263700Y277233D02*
Y277204D01*
X264602Y276302*
X265100Y275100D02*
G03X264602Y276302I-1700J0D01*
G01X265100Y275100D02*
Y274104D01*
X269202Y270002*
X269700Y268800D02*
G03X269202Y270002I-1700J0D01*
G01X269700Y268800D02*
Y263608D01*
X282302Y251006*
X282800Y249804D02*
G03X282302Y251006I-1700J0D01*
G01X282800Y249804D02*
Y246996D01*
X284202Y245594*
X284700Y244392D02*
G03X284202Y245594I-1700J0D01*
G01X284700Y244392D02*
Y242967D01*
X291133Y284800D02*
G03Y288200I1967J1700D01*
G01Y284800D02*
X289500D01*
X288298Y285298D02*
G03X289500Y284800I1202J1202D01*
G01X288298Y285298D02*
X279389Y294207D01*
X281793Y296611D02*
G03X279389Y294207I-2593J189D01*
G01X281793Y296611D02*
X290204Y288200D01*
X291133*
X200563Y330379D02*
G03Y333021I3937J1321D01*
G01X192689Y330379D02*
G03X200563I3937J1321D01*
G01X184815D02*
G03X192689I3937J1321D01*
G01X184815Y333021D02*
G03Y330379I-3937J-1321D01*
G01X192689Y333021D02*
G03X184815I-3937J-1321D01*
G01X200563D02*
G03X192689I-3937J-1321D01*
G01X162950Y203000D02*
G03X162950I-5950J0D01*
G01X135600D02*
G03X135600I-7300J0D01*
G01X148133Y235000D02*
G03Y238400I1967J1700D01*
G01Y235000D02*
X147704D01*
X146402Y233698*
X145200Y233200D02*
G03X146402Y233698I0J1700D01*
G01X145200Y233200D02*
X133791D01*
X129633Y230100D02*
G03X133791Y233200I1967J1700D01*
G01X129633Y230100D02*
X126485D01*
X126060Y230154D02*
G03X126485Y230100I425J1646D01*
G01X121800Y231667D02*
G03X126060Y230154I1700J-1967D01*
G01X121800Y231667D02*
Y231676D01*
X116498Y236978*
X116000Y238180D02*
G03X116498Y236978I1700J0D01*
G01X116000Y238180D02*
Y289740D01*
X111198Y294542*
X110700Y295744D02*
G03X111198Y294542I1700J0D01*
G01X110700Y295744D02*
Y298496D01*
X110551Y306437D02*
G03X110700Y298496I1849J-3937D01*
G01X110551Y314311D02*
G03Y306437I1849J-3937D01*
G01Y322185D02*
G03Y314311I1849J-3937D01*
G01X114249Y322185D02*
G03X110551I-1849J3937D01*
G01X114249Y314311D02*
G03Y322185I-1849J3937D01*
G01X116433Y308745D02*
G03X114249Y314311I-4033J1629D01*
G01X116433Y308745D02*
X119600Y305578D01*
Y307100*
X120098Y308302D02*
G03X119600Y307100I1202J-1202D01*
G01X120098Y308302D02*
X121700Y309904D01*
Y317833*
X125100D02*
G03X121700I-1700J1967D01*
G01X125100D02*
Y309200D01*
X124602Y307998D02*
G03X125100Y309200I-1202J1202D01*
G01X124602Y307998D02*
X123000Y306396D01*
Y268233*
Y263290D02*
G03Y268233I2364J2471D01*
G01Y263290D02*
Y250910D01*
Y245967D02*
G03Y250910I2364J2472D01*
G01Y245967D02*
Y240483D01*
X127683Y235800*
X128696*
X128998Y236102*
X130200Y236600D02*
G03X128998Y236102I0J-1700D01*
G01X130200Y236600D02*
X144496D01*
X145798Y237902*
X147000Y238400D02*
G03X145798Y237902I0J-1700D01*
G01X147000Y238400D02*
X148133D01*
X134191Y271991D02*
G03X138009Y275809I1909J1909D01*
G01X134191Y271991D02*
X133091Y273091D01*
X136909Y276909D02*
G03X133091Y273091I-1909J-1909D01*
G01X136909Y276909D02*
X138009Y275809D01*
X184650Y203000D02*
G03X184650I-5950J0D01*
G01X183133Y281300D02*
G03Y284700I1967J1700D01*
G01Y281300D02*
X176767D01*
Y284700D02*
G03Y281300I-1967J-1700D01*
G01Y284700D02*
X183133D01*
X209500Y127800D02*
G03X209500I-2600J0D01*
G01X205114Y135700D02*
G03Y140100I1386J2200D01*
G01Y135700D02*
X204111D01*
X201256Y132844*
X199700Y132200D02*
G03X201256Y132844I0J2200D01*
G01X199700Y132200D02*
X198272D01*
X197200Y131700D02*
G03X198272Y132200I0J1400D01*
G01X197200Y131700D02*
X193800D01*
X192400Y133092D02*
G03X193800Y131700I1400J8D01*
G01X191000D02*
G03X192400Y133092I0J1400D01*
G01X191000Y131700D02*
X187600D01*
X186258Y132700D02*
G03X187600Y131700I1342J400D01*
G01X186258Y132700D02*
X182100D01*
X180544Y133344D02*
G03X182100Y132700I1556J1556D01*
G01X180544Y133344D02*
X179724Y134165D01*
X182835Y137276D02*
G03X179724Y134165I-2535J-576D01*
G01X182835Y137276D02*
X183011Y137100D01*
X189300*
X191000*
X192400Y135708D02*
G03X191000Y137100I-1400J-8D01*
G01X193800D02*
G03X192400Y135708I0J-1400D01*
G01X193800Y137100D02*
X197200D01*
X198272Y136600D02*
G03X197200Y137100I-1072J-900D01*
G01X198272Y136600D02*
X198789D01*
X201644Y139456*
X203200Y140100D02*
G03X201644Y139456I0J-2200D01*
G01X203200Y140100D02*
X205114D01*
X234754Y282787D02*
G03X234433Y286500I1646J2013D01*
G01X230233Y280600D02*
G03X234754Y282787I1967J1700D01*
G01X230233Y280600D02*
X229304D01*
X226800Y278096*
Y266400*
X226302Y265198D02*
G03X226800Y266400I-1202J1202D01*
G01X226302Y265198D02*
X224202Y263098D01*
X223000Y262600D02*
G03X224202Y263098I0J1700D01*
G01X223000Y262600D02*
X216940D01*
X212665Y258325*
X210030Y260499D02*
G03X212665Y258325I70J-2599D01*
G01X210030Y260499D02*
X215033Y265502D01*
X216236Y266000D02*
G03X215033Y265502I-0J-1700D01*
G01X216236Y266000D02*
X222296D01*
X223400Y267104*
Y278800*
X223898Y280002D02*
G03X223400Y278800I1202J-1202D01*
G01X223898Y280002D02*
X227096Y283200D01*
X221804*
X221602Y282998*
X220805Y282549D02*
G03X221602Y282998I-405J1651D01*
G01X220992Y278171D02*
G03X220805Y282549I-1492J2129D01*
G01X216842Y275050D02*
G03X220992Y278171I2158J1450D01*
G01X216842Y275050D02*
X213820D01*
X210083Y278640D02*
G03X213820Y275050I2017J-1640D01*
G01X210239Y282500D02*
G03X210083Y278640I1661J-2000D01*
G01X210239Y282500D02*
X209767D01*
Y285900D02*
G03Y282500I-1967J-1700D01*
G01Y285900D02*
X219696D01*
X219898Y286102*
X221100Y286600D02*
G03X219898Y286102I0J-1700D01*
G01X221100Y286600D02*
X233500D01*
X234074Y286500D02*
G03X233500Y286600I-574J-1600D01*
G01X234074Y286500D02*
X234433D01*
X249750Y172060D02*
Y171060D01*
X248050Y169360D02*
G03X249750Y171060I0J1700D01*
G01X248050Y169360D02*
X245550D01*
X243850Y171060D02*
G03X245550Y169360I1700J-0D01*
G01X243850Y171060D02*
Y172060D01*
X245550Y173760D02*
G03X243850Y172060I0J-1700D01*
G01X245550Y173760D02*
X248050D01*
X249750Y172060D02*
G03X248050Y173760I-1700J-0D01*
G01X250000Y157800D02*
G03X250000I-4300J0D01*
G01X256400Y121800D02*
G03X256400I-8700J0D01*
G01X237607Y188689D02*
G03X240011Y191093I2593J-189D01*
G01X237607Y188689D02*
X233498Y192798D01*
X233000Y194000D02*
G03X233498Y192798I1700J0D01*
G01X233000Y194000D02*
Y211933D01*
X236400D02*
G03X233000I-1700J1967D01*
G01X236400D02*
Y194704D01*
X240011Y191093*
X253233Y254000D02*
G03Y257400I1967J1700D01*
G01Y254000D02*
X242804D01*
X232904Y244100*
X233233*
Y240700D02*
G03Y244100I1967J1700D01*
G01Y240700D02*
X232604D01*
X230202Y238298*
X229000Y237800D02*
G03X230202Y238298I0J1700D01*
G01X229000Y237800D02*
X225967D01*
X221449Y240000D02*
G03X225967Y237800I2551J-500D01*
G01X219139Y241512D02*
G03X221449Y240000I2361J1088D01*
G01X219139Y241512D02*
X218529Y240902D01*
X218036Y239832D02*
G03X218529Y240902I-1202J1202D01*
G01X218036Y239832D02*
X215593Y237389D01*
X210988Y235554D02*
G03X215593Y237389I2012J1646D01*
G01X206700Y237267D02*
G03X210988Y235554I1700J-1967D01*
G01X206700Y237267D02*
Y244433D01*
X210100D02*
G03X206700I-1700J1967D01*
G01X210100D02*
Y237267D01*
X210412Y236946D02*
G03X210100Y237267I-2012J-1646D01*
G01X213189Y239793D02*
G03X210412Y236946I-189J-2593D01*
G01X213189Y239793D02*
X215139Y241743D01*
X215632Y242813D02*
G03X215139Y241743I1202J-1202D01*
G01X215632Y242813D02*
X219721Y246902D01*
X220923Y247400D02*
G03X219721Y246902I0J-1700D01*
G01X220923Y247400D02*
X226809D01*
X228798Y251392D02*
G03X226809Y247400I202J-2592D01*
G01X228798Y251392D02*
X228800Y251394D01*
Y255800*
Y260533*
X232200D02*
G03X228800I-1700J1967D01*
G01X232200D02*
Y250836D01*
X232182Y250591D02*
G03X232200Y250836I-1682J245D01*
G01X232182Y250591D02*
X233900Y252308D01*
Y253533*
X237300D02*
G03X233900I-1700J1967D01*
G01X237300D02*
Y253304D01*
X240898Y256902*
X242100Y257400D02*
G03X240898Y256902I0J-1700D01*
G01X242100Y257400D02*
X253233D01*
X306400Y121800D02*
G03X306400I-8700J0D01*
G01X368400Y367899D02*
X376400D01*
X368400Y366999D02*
X376400D01*
X368400Y366099D02*
X376400D01*
X368400Y365199D02*
X376400D01*
X368400Y364299D02*
X376400D01*
X368400Y363399D02*
X376400D01*
X368400Y362499D02*
X376400D01*
X368400Y361599D02*
X376400D01*
X368400Y360699D02*
X376400D01*
X368400Y359799D02*
X376400D01*
X368400Y358899D02*
X376400D01*
X368400Y357999D02*
X376400D01*
X368400Y357099D02*
X376400D01*
X368400Y356199D02*
X376400D01*
X368400Y355299D02*
X376400D01*
X368400Y354399D02*
X376400D01*
X368400Y342699D02*
X376400D01*
X368400Y341799D02*
X376400D01*
X368400Y340899D02*
X376400D01*
X368400Y339999D02*
X376400D01*
X368400Y339099D02*
X376400D01*
X368400Y338199D02*
X376400D01*
X368400Y337299D02*
X376400D01*
X368400Y336399D02*
X376400D01*
X368400Y335499D02*
X376400D01*
X368400Y334599D02*
X376400D01*
X368400Y333699D02*
X376400D01*
X368400Y332799D02*
X376400D01*
X368400Y331899D02*
X376400D01*
X368400Y330999D02*
X376400D01*
X368400Y330099D02*
X376400D01*
X368400Y329199D02*
X376400D01*
X368400Y328299D02*
X376400D01*
X368400Y327399D02*
X376400D01*
X368400Y326499D02*
X376400D01*
X368400Y325599D02*
X376400D01*
X368400Y324699D02*
X376400D01*
X368400Y323799D02*
X376400D01*
X368400Y322899D02*
X376400D01*
X368400Y321999D02*
X376400D01*
X368400Y321099D02*
X376400D01*
X368400Y320199D02*
X376400D01*
X368400Y319299D02*
X376400D01*
X368400Y318399D02*
X376400D01*
X368400Y317499D02*
X376400D01*
X368400Y316599D02*
X376400D01*
X368400Y315699D02*
X376400D01*
X368400Y314799D02*
X376400D01*
X368400Y313899D02*
X376400D01*
X368400Y312999D02*
X376400D01*
X368400Y312099D02*
X376400D01*
X368400Y311199D02*
X376400D01*
X368400Y310299D02*
X376400D01*
X368400Y309399D02*
X376400D01*
X368400Y308499D02*
X376400D01*
X368400Y307599D02*
X376400D01*
X368400Y306699D02*
X376400D01*
X368400Y305799D02*
X376400D01*
X368400Y304899D02*
X376400D01*
X368400Y303999D02*
X376400D01*
X368400Y303099D02*
X376400D01*
X368400Y302199D02*
X376400D01*
X368400Y301299D02*
X376400D01*
X368400Y300399D02*
X376400D01*
X368400Y299499D02*
X376400D01*
X368400Y298599D02*
X376400D01*
X368400Y297699D02*
X376400D01*
X368400Y296799D02*
X376400D01*
X368400Y295899D02*
X376400D01*
X368400Y294999D02*
X376400D01*
X368400Y294099D02*
X376400D01*
X368400Y293199D02*
X376400D01*
X368400Y281499D02*
X376400D01*
X368400Y280599D02*
X376400D01*
X368400Y279699D02*
X376400D01*
X368400Y278799D02*
X376400D01*
X368400Y277899D02*
X376400D01*
X368400Y276999D02*
X376400D01*
X368400Y276099D02*
X376400D01*
X368400Y275199D02*
X376400D01*
X368400Y274299D02*
X376400D01*
X368400Y273399D02*
X376400D01*
X368400Y272499D02*
X376400D01*
X368400Y271599D02*
X376400D01*
X368400Y270699D02*
X376400D01*
X368400Y269799D02*
X376400D01*
X368400Y268899D02*
X376400D01*
X368400Y267999D02*
X376400D01*
X368400Y267099D02*
X376400D01*
X368400Y266199D02*
X376400D01*
X368400Y265299D02*
X376400D01*
X368400Y264399D02*
X376400D01*
X368400Y263499D02*
X376400D01*
X368400Y262599D02*
X376400D01*
X368400Y261699D02*
X376400D01*
X368400Y260799D02*
X376400D01*
X368400Y259899D02*
X376400D01*
X368400Y258999D02*
X376400D01*
X368400Y258099D02*
X376400D01*
X368400Y257199D02*
X376400D01*
X368400Y256299D02*
X376400D01*
X368400Y255399D02*
X376400D01*
X368400Y254499D02*
X376400D01*
X368400Y253599D02*
X376400D01*
X368400Y252699D02*
X376400D01*
X368400Y251799D02*
X376400D01*
X368400Y250899D02*
X376400D01*
X368400Y249999D02*
X376400D01*
X368400Y249099D02*
X376400D01*
X368400Y248199D02*
X376400D01*
X368400Y247299D02*
X376400D01*
X368400Y246399D02*
X376400D01*
X368400Y245499D02*
X376400D01*
X368400Y244599D02*
X376400D01*
X368400Y243699D02*
X376400D01*
X368400Y242799D02*
X376400D01*
X368400Y241899D02*
X376400D01*
X368400Y240999D02*
X376400D01*
X368400Y240099D02*
X376400D01*
X368400Y239199D02*
X376400D01*
X368400Y238299D02*
X376400D01*
X368400Y237399D02*
X376400D01*
X368400Y236499D02*
X376400D01*
X368400Y235599D02*
X376400D01*
X374661Y234699D02*
X376400D01*
X368400Y223899D02*
X376400D01*
X368400Y222999D02*
X376400D01*
X368400Y222099D02*
X376400D01*
X368400Y221199D02*
X376400D01*
X368400Y220299D02*
X376400D01*
X368400Y219399D02*
X376400D01*
X368400Y218499D02*
X376400D01*
X368400Y217599D02*
X376400D01*
X368400Y216699D02*
X376400D01*
X368400Y215799D02*
X376400D01*
X368400Y214899D02*
X376400D01*
X368400Y213999D02*
X376400D01*
X368400Y213099D02*
X376400D01*
X368400Y212199D02*
X376400D01*
X368400Y211299D02*
X376400D01*
X368400Y210399D02*
X376400D01*
X368400Y209499D02*
X376400D01*
X368400Y208599D02*
X376400D01*
X368400Y207699D02*
X376400D01*
X368400Y206799D02*
X376400D01*
X368400Y205899D02*
X376400D01*
X368400Y204999D02*
X376400D01*
X368400Y204099D02*
X376400D01*
X368400Y203199D02*
X376400D01*
X368400Y202299D02*
X376400D01*
X368400Y201399D02*
X376400D01*
X368400Y200499D02*
X376400D01*
X368400Y199599D02*
X376400D01*
X368400Y198699D02*
X376400D01*
X368400Y197799D02*
X376400D01*
X368400Y196899D02*
X376400D01*
X368400Y195999D02*
X376400D01*
X368400Y195099D02*
X376400D01*
X368400Y194199D02*
X376400D01*
X368400Y193299D02*
X376400D01*
X368400Y192399D02*
X376400D01*
X368400Y191499D02*
X376400D01*
X368400Y190599D02*
X376400D01*
X368400Y189699D02*
X376400D01*
X368400Y188799D02*
X376400D01*
X368400Y187899D02*
X376400D01*
X368400Y186999D02*
X376400D01*
X368400Y186099D02*
X376400D01*
X368400Y185199D02*
X376400D01*
X368400Y184299D02*
X376400D01*
X368400Y183399D02*
X376400D01*
X368400Y182499D02*
X376400D01*
X368400Y181599D02*
X376400D01*
X368400Y180699D02*
X376400D01*
X368400Y179799D02*
X376400D01*
X368400Y178899D02*
X376400D01*
X368400Y177999D02*
X376400D01*
X368400Y177099D02*
X376400D01*
X368400Y176199D02*
X376400D01*
X375581Y175299D02*
X376400D01*
X375116Y165399D02*
X376400D01*
X368400Y164499D02*
X376400D01*
X254500Y163599D02*
X376400D01*
X254500Y162699D02*
X376400D01*
X301281Y161799D02*
X376400D01*
X302681Y160899D02*
X376400D01*
X303395Y159999D02*
X376400D01*
X303799Y159099D02*
X376400D01*
X303981Y158199D02*
X376400D01*
X303971Y157299D02*
X376400D01*
X303765Y156399D02*
X376400D01*
X303332Y155499D02*
X376400D01*
X302571Y154599D02*
X376400D01*
X300992Y153699D02*
X376400D01*
X375671Y224799D02*
X376329D01*
X375908Y233799D02*
X376092D01*
X374719Y343599D02*
X376081D01*
X375941Y166299D02*
X376059D01*
X375997Y174399D02*
X376003D01*
X374868Y353499D02*
X375932D01*
X374116Y282399D02*
X375884D01*
X375367Y344499D02*
X375433D01*
X374581Y292299D02*
X375419D01*
X375386Y352599D02*
X375414D01*
X374941Y283299D02*
X375059D01*
X374997Y291399D02*
X375003D01*
X368400Y234699D02*
X371139D01*
X368400Y165399D02*
X370684D01*
X368400Y175299D02*
X370219D01*
X368400Y224799D02*
X370129D01*
X368400Y170799D02*
X370129D01*
X368400Y169899D02*
X369934D01*
X368400Y233799D02*
X369892D01*
X368400Y343599D02*
X369881D01*
X368400Y166299D02*
X369859D01*
X368400Y174399D02*
X369803D01*
X368400Y232899D02*
X369800D01*
X368400Y231999D02*
X369800D01*
X368400Y231099D02*
X369800D01*
X368400Y230199D02*
X369800D01*
X368400Y229299D02*
X369800D01*
X368400Y228399D02*
X369800D01*
X368400Y227499D02*
X369800D01*
X368400Y226599D02*
X369800D01*
X368400Y225699D02*
X369800D01*
X368400Y173499D02*
X369800D01*
X368400Y172599D02*
X369800D01*
X368400Y171699D02*
X369800D01*
X368400Y168999D02*
X369800D01*
X368400Y168099D02*
X369800D01*
X368400Y167199D02*
X369800D01*
X368400Y353499D02*
X369732D01*
X368400Y282399D02*
X369684D01*
X368400Y344499D02*
X369233D01*
X368400Y292299D02*
X369219D01*
X368400Y352599D02*
X369214D01*
X368400Y351699D02*
X369200D01*
X368400Y350799D02*
X369200D01*
X368400Y349899D02*
X369200D01*
X368400Y348999D02*
X369200D01*
X368400Y348099D02*
X369200D01*
X368400Y347199D02*
X369200D01*
X368400Y346299D02*
X369200D01*
X368400Y345399D02*
X369200D01*
X368400Y283299D02*
X368859D01*
X368400Y291399D02*
X368803D01*
X368400Y290499D02*
X368800D01*
X368400Y289599D02*
X368800D01*
X368400Y288699D02*
X368800D01*
X368400Y287799D02*
X368800D01*
X368400Y286899D02*
X368800D01*
X368400Y285999D02*
X368800D01*
X368400Y285099D02*
X368800D01*
X368400Y284199D02*
X368800D01*
X291992Y153699D02*
X298408D01*
X292281Y161799D02*
X298119D01*
X293571Y154599D02*
X296829D01*
X293681Y160899D02*
X296719D01*
X294332Y155499D02*
X296068D01*
X294395Y159999D02*
X296005D01*
X294765Y156399D02*
X295635D01*
X294799Y159099D02*
X295601D01*
X294971Y157299D02*
X295429D01*
X294981Y158199D02*
X295419D01*
X255712Y153699D02*
X289408D01*
X256466Y161799D02*
X289119D01*
X257481Y154599D02*
X287829D01*
X257760Y160899D02*
X287719D01*
X258282Y155499D02*
X287068D01*
X258441Y159999D02*
X287005D01*
X258738Y156399D02*
X286635D01*
X258823Y159099D02*
X286601D01*
X258961Y157299D02*
X286429D01*
X258988Y158199D02*
X286419D01*
X254500Y197799D02*
X263300D01*
X254500Y196899D02*
X263300D01*
X254500Y195999D02*
X263300D01*
X254500Y195099D02*
X263300D01*
X254500Y194199D02*
X263300D01*
X254500Y193299D02*
X263300D01*
X254500Y192399D02*
X263300D01*
X254500Y191499D02*
X263300D01*
X254500Y190599D02*
X263300D01*
X254500Y189699D02*
X263300D01*
X254500Y188799D02*
X263300D01*
X254500Y187899D02*
X263300D01*
X254500Y186999D02*
X263300D01*
X254500Y186099D02*
X263300D01*
X254500Y185199D02*
X263300D01*
X254500Y184299D02*
X263300D01*
X254500Y183399D02*
X263300D01*
X254500Y182499D02*
X263300D01*
X254868Y181599D02*
X263300D01*
X255386Y180699D02*
X263300D01*
X255400Y179799D02*
X263300D01*
X255400Y178899D02*
X263300D01*
X255400Y177999D02*
X263300D01*
X255400Y177099D02*
X263300D01*
X255071Y176199D02*
X263300D01*
X254981Y175299D02*
X263300D01*
X255397Y174399D02*
X263300D01*
X255400Y173499D02*
X263300D01*
X255400Y172599D02*
X263300D01*
X255400Y171699D02*
X263300D01*
X255396Y170799D02*
X263300D01*
X254500Y165399D02*
X263300D01*
X254500Y164499D02*
X263300D01*
X254978Y169899D02*
X262266D01*
X254500Y166299D02*
X262001D01*
X254500Y168999D02*
X261616D01*
X254500Y167199D02*
X261514D01*
X254500Y168099D02*
X261404D01*
X203500Y181699D02*
X230500D01*
X225308Y180799D02*
X230500D01*
X226208Y179899D02*
X230500D01*
X226600Y178999D02*
X230500D01*
X226764Y178099D02*
X230500D01*
X226764Y177199D02*
X230500D01*
X226764Y176299D02*
X230500D01*
X226764Y175399D02*
X230500D01*
X226764Y174499D02*
X230500D01*
X226764Y173599D02*
X230500D01*
X226764Y172699D02*
X230500D01*
X226649Y171799D02*
X230500D01*
X226600Y170899D02*
X230500D01*
X226600Y169999D02*
X230500D01*
X226600Y169099D02*
X230500D01*
X226600Y168199D02*
X230500D01*
X226600Y167299D02*
X230500D01*
X226600Y166399D02*
X230500D01*
X226600Y165499D02*
X230500D01*
X226600Y164599D02*
X230500D01*
X226600Y163699D02*
X230500D01*
X226600Y162799D02*
X230500D01*
X226600Y161899D02*
X230500D01*
X226656Y160999D02*
X230500D01*
X226764Y160099D02*
X230500D01*
X226764Y159199D02*
X230500D01*
X226764Y158299D02*
X230500D01*
X226764Y157399D02*
X230500D01*
X226764Y156499D02*
X230500D01*
X226764Y155599D02*
X230500D01*
X203500Y182599D02*
X229794D01*
X203500Y183499D02*
X228894D01*
X203500Y184399D02*
X227994D01*
X203500Y185299D02*
X227094D01*
X203500Y186199D02*
X226194D01*
X203500Y187099D02*
X225294D01*
X203500Y187999D02*
X224394D01*
X203500Y188899D02*
X223494D01*
X203500Y189799D02*
X222594D01*
X203500Y190699D02*
X221694D01*
X203500Y191599D02*
X220794D01*
X203500Y192499D02*
X219894D01*
X203500Y193399D02*
X218994D01*
X203500Y194299D02*
X218094D01*
X203500Y195199D02*
X217194D01*
X378100Y368201D02*
X397500D01*
X378100Y367301D02*
X397500D01*
X378100Y366401D02*
X397500D01*
X378100Y365501D02*
X397500D01*
X378100Y364601D02*
X397500D01*
X390480Y363701D02*
X397500D01*
X391367Y362801D02*
X397500D01*
X391860Y361901D02*
X397500D01*
X392105Y361001D02*
X397500D01*
X392144Y360101D02*
X397500D01*
X391985Y359201D02*
X397500D01*
X391600Y358301D02*
X397500D01*
X390903Y357401D02*
X397500D01*
X389508Y356501D02*
X397500D01*
X390758Y355601D02*
X397500D01*
X391519Y354701D02*
X397500D01*
X391942Y353801D02*
X397500D01*
X392133Y352901D02*
X397500D01*
X392123Y352001D02*
X397500D01*
X391911Y351101D02*
X397500D01*
X391461Y350201D02*
X397500D01*
X390652Y349301D02*
X397500D01*
X389722Y348401D02*
X397500D01*
X390993Y347501D02*
X397500D01*
X391651Y346601D02*
X397500D01*
X392010Y345701D02*
X397500D01*
X392149Y344801D02*
X397500D01*
X392090Y343901D02*
X397500D01*
X391823Y343001D02*
X397500D01*
X391300Y342101D02*
X397500D01*
X390354Y341201D02*
X397500D01*
X390150Y340301D02*
X397500D01*
X391195Y339401D02*
X397500D01*
X391765Y338501D02*
X397500D01*
X392064Y337601D02*
X397500D01*
X392153Y336701D02*
X397500D01*
X392043Y335801D02*
X397500D01*
X391719Y334901D02*
X397500D01*
X391114Y334001D02*
X397500D01*
X389986Y333101D02*
X397500D01*
X390486Y332201D02*
X397500D01*
X391370Y331301D02*
X397500D01*
X391862Y330401D02*
X397500D01*
X392105Y329501D02*
X397500D01*
X392144Y328601D02*
X397500D01*
X391984Y327701D02*
X397500D01*
X391598Y326801D02*
X397500D01*
X390899Y325901D02*
X397500D01*
X389498Y325001D02*
X397500D01*
X390762Y324101D02*
X397500D01*
X391522Y323201D02*
X397500D01*
X391944Y322301D02*
X397500D01*
X392133Y321401D02*
X397500D01*
X392123Y320501D02*
X397500D01*
X391910Y319601D02*
X397500D01*
X391458Y318701D02*
X397500D01*
X390648Y317801D02*
X397500D01*
X388665Y316901D02*
X397500D01*
X378100Y316001D02*
X397500D01*
X378100Y315101D02*
X397500D01*
X378100Y314201D02*
X397500D01*
X378100Y313301D02*
X397500D01*
X378100Y312401D02*
X397500D01*
X378100Y311501D02*
X397500D01*
X378100Y310601D02*
X397500D01*
X378100Y309701D02*
X397500D01*
X378100Y308801D02*
X397500D01*
X378100Y307901D02*
X397500D01*
X378100Y307001D02*
X397500D01*
X378100Y306101D02*
X397500D01*
X378100Y305201D02*
X397500D01*
X389340Y304301D02*
X397500D01*
X390839Y303401D02*
X397500D01*
X391565Y302501D02*
X397500D01*
X391966Y301601D02*
X397500D01*
X392140Y300701D02*
X397500D01*
X392114Y299801D02*
X397500D01*
X391884Y298901D02*
X397500D01*
X391411Y298001D02*
X397500D01*
X390561Y297101D02*
X397500D01*
X389876Y296201D02*
X397500D01*
X391063Y295301D02*
X397500D01*
X391690Y294401D02*
X397500D01*
X392029Y293501D02*
X397500D01*
X392151Y292601D02*
X397500D01*
X392076Y291701D02*
X397500D01*
X391791Y290801D02*
X397500D01*
X391242Y289901D02*
X397500D01*
X390242Y289001D02*
X397500D01*
X390268Y288101D02*
X397500D01*
X391255Y287201D02*
X397500D01*
X391798Y286301D02*
X397500D01*
X392079Y285401D02*
X397500D01*
X392151Y284501D02*
X397500D01*
X392025Y283601D02*
X397500D01*
X391682Y282701D02*
X397500D01*
X391047Y281801D02*
X397500D01*
X389843Y280901D02*
X397500D01*
X390582Y280001D02*
X397500D01*
X391422Y279101D02*
X397500D01*
X391890Y278201D02*
X397500D01*
X392116Y277301D02*
X397500D01*
X392138Y276401D02*
X397500D01*
X391961Y275501D02*
X397500D01*
X391555Y274601D02*
X397500D01*
X390821Y273701D02*
X397500D01*
X389351Y272801D02*
X397500D01*
X390843Y271901D02*
X397500D01*
X391567Y271001D02*
X397500D01*
X391967Y270101D02*
X397500D01*
X392140Y269201D02*
X397500D01*
X392113Y268301D02*
X397500D01*
X391883Y267401D02*
X397500D01*
X391408Y266501D02*
X397500D01*
X390556Y265601D02*
X397500D01*
X389884Y264701D02*
X397500D01*
X391066Y263801D02*
X397500D01*
X391692Y262901D02*
X397500D01*
X392030Y262001D02*
X397500D01*
X392152Y261101D02*
X397500D01*
X392075Y260201D02*
X397500D01*
X391789Y259301D02*
X397500D01*
X391239Y258401D02*
X397500D01*
X390236Y257501D02*
X397500D01*
X378100Y256601D02*
X397500D01*
X378100Y255701D02*
X397500D01*
X378100Y254801D02*
X397500D01*
X378100Y253901D02*
X397500D01*
X378100Y253001D02*
X397500D01*
X378100Y252101D02*
X397500D01*
X378100Y251201D02*
X397500D01*
X378100Y250301D02*
X397500D01*
X378100Y249401D02*
X397500D01*
X378100Y248501D02*
X397500D01*
X378100Y247601D02*
X397500D01*
X378100Y246701D02*
X397500D01*
X378100Y245801D02*
X397500D01*
X390186Y244901D02*
X397500D01*
X391213Y244001D02*
X397500D01*
X391775Y243101D02*
X397500D01*
X392069Y242201D02*
X397500D01*
X392152Y241301D02*
X397500D01*
X392038Y240401D02*
X397500D01*
X391708Y239501D02*
X397500D01*
X391095Y238601D02*
X397500D01*
X389945Y237701D02*
X397500D01*
X390515Y236801D02*
X397500D01*
X391386Y235901D02*
X397500D01*
X391871Y235001D02*
X397500D01*
X392109Y234101D02*
X397500D01*
X392142Y233201D02*
X397500D01*
X391977Y232301D02*
X397500D01*
X391585Y231401D02*
X397500D01*
X390876Y230501D02*
X397500D01*
X389440Y229601D02*
X397500D01*
X390787Y228701D02*
X397500D01*
X391535Y227801D02*
X397500D01*
X391951Y226901D02*
X397500D01*
X392135Y226001D02*
X397500D01*
X392120Y225101D02*
X397500D01*
X391902Y224201D02*
X397500D01*
X391443Y223301D02*
X397500D01*
X390621Y222401D02*
X397500D01*
X389778Y221501D02*
X397500D01*
X391018Y220601D02*
X397500D01*
X391665Y219701D02*
X397500D01*
X392017Y218801D02*
X397500D01*
X392150Y217901D02*
X397500D01*
X392085Y217001D02*
X397500D01*
X391812Y216101D02*
X397500D01*
X391280Y215201D02*
X397500D01*
X390316Y214301D02*
X397500D01*
X390193Y213401D02*
X397500D01*
X391216Y212501D02*
X397500D01*
X391777Y211601D02*
X397500D01*
X392070Y210701D02*
X397500D01*
X392152Y209801D02*
X397500D01*
X392037Y208901D02*
X397500D01*
X391706Y208001D02*
X397500D01*
X391091Y207101D02*
X397500D01*
X389937Y206201D02*
X397500D01*
X390520Y205301D02*
X397500D01*
X391388Y204401D02*
X397500D01*
X391872Y203501D02*
X397500D01*
X392109Y202601D02*
X397500D01*
X392142Y201701D02*
X397500D01*
X391976Y200801D02*
X397500D01*
X391583Y199901D02*
X397500D01*
X390872Y199001D02*
X397500D01*
X389429Y198101D02*
X397500D01*
X378100Y197201D02*
X397500D01*
X378100Y196301D02*
X397500D01*
X378100Y195401D02*
X397500D01*
X378100Y194501D02*
X397500D01*
X378100Y193601D02*
X397500D01*
X378100Y192701D02*
X397500D01*
X378100Y191801D02*
X397500D01*
X378100Y190901D02*
X397500D01*
X378100Y190001D02*
X397500D01*
X378100Y189101D02*
X397500D01*
X378100Y188201D02*
X397500D01*
X378100Y187301D02*
X397500D01*
X389000Y186401D02*
X397500D01*
X390728Y185501D02*
X397500D01*
X391503Y184601D02*
X397500D01*
X391934Y183701D02*
X397500D01*
X392130Y182801D02*
X397500D01*
X392126Y181901D02*
X397500D01*
X391921Y181001D02*
X397500D01*
X391478Y180101D02*
X397500D01*
X390683Y179201D02*
X397500D01*
X389664Y178301D02*
X397500D01*
X390968Y177401D02*
X397500D01*
X391637Y176501D02*
X397500D01*
X392003Y175601D02*
X397500D01*
X392148Y174701D02*
X397500D01*
X392094Y173801D02*
X397500D01*
X391834Y172901D02*
X397500D01*
X391320Y172001D02*
X397500D01*
X390391Y171101D02*
X397500D01*
X390107Y170201D02*
X397500D01*
X391173Y169301D02*
X397500D01*
X391753Y168401D02*
X397500D01*
X392059Y167501D02*
X397500D01*
X392153Y166601D02*
X397500D01*
X392049Y165701D02*
X397500D01*
X391732Y164801D02*
X397500D01*
X391137Y163901D02*
X397500D01*
X390033Y163001D02*
X397500D01*
X390450Y162101D02*
X397500D01*
X391351Y161201D02*
X397500D01*
X391852Y160301D02*
X397500D01*
X392101Y159401D02*
X397500D01*
X392145Y158501D02*
X397500D01*
X391991Y157601D02*
X397500D01*
X391613Y156701D02*
X397500D01*
X390926Y155801D02*
X397500D01*
X389563Y154901D02*
X397500D01*
X390733Y154001D02*
X397500D01*
X391505Y153101D02*
X397500D01*
X391935Y152201D02*
X397500D01*
X392131Y151301D02*
X397500D01*
X392126Y150401D02*
X397500D01*
X391919Y149501D02*
X397500D01*
X391475Y148601D02*
X397500D01*
X390679Y147701D02*
X397500D01*
X389673Y146801D02*
X397500D01*
X390972Y145901D02*
X397500D01*
X391639Y145001D02*
X397500D01*
X392004Y144101D02*
X397500D01*
X392148Y143201D02*
X397500D01*
X392093Y142301D02*
X397500D01*
X391832Y141401D02*
X397500D01*
X391317Y140501D02*
X397500D01*
X390386Y139601D02*
X397500D01*
X352500Y138701D02*
X397500D01*
X352340Y137801D02*
X397500D01*
X351777Y136901D02*
X397500D01*
X345708Y136001D02*
X397500D01*
X326700Y135101D02*
X397500D01*
X326700Y134201D02*
X397500D01*
X326700Y133301D02*
X397500D01*
X326700Y132401D02*
X397500D01*
X326700Y131501D02*
X397500D01*
X326700Y130601D02*
X397500D01*
X389913Y129701D02*
X397500D01*
X392056Y128801D02*
X397500D01*
X393592Y127901D02*
X397500D01*
X394810Y127001D02*
X397500D01*
X395818Y126101D02*
X397500D01*
X396670Y125201D02*
X397500D01*
X397399Y124301D02*
X397500D01*
X378100Y316901D02*
X387335D01*
X378100Y186401D02*
X387000D01*
X378100Y304301D02*
X386660D01*
X378100Y272801D02*
X386649D01*
X378100Y198101D02*
X386571D01*
X378100Y325001D02*
X386502D01*
X378100Y356501D02*
X386492D01*
X378100Y154901D02*
X386437D01*
X378100Y178301D02*
X386336D01*
X326327Y146801D02*
X386327D01*
X378100Y221501D02*
X386222D01*
X378100Y280901D02*
X386157D01*
X378100Y296201D02*
X386124D01*
X378100Y264701D02*
X386116D01*
X378100Y206201D02*
X386063D01*
X378100Y237701D02*
X386055D01*
X378100Y333101D02*
X386014D01*
X378100Y163001D02*
X385967D01*
X378100Y340301D02*
X385850D01*
X378100Y244901D02*
X385814D01*
X378100Y213401D02*
X385807D01*
X378100Y257501D02*
X385764D01*
X378100Y214301D02*
X385684D01*
X378100Y341201D02*
X385646D01*
X352339Y139601D02*
X385614D01*
X378100Y162101D02*
X385550D01*
X378100Y363701D02*
X385520D01*
X378100Y332201D02*
X385514D01*
X378100Y236801D02*
X385485D01*
X378100Y205301D02*
X385480D01*
X378100Y265601D02*
X385444D01*
X378100Y297101D02*
X385439D01*
X378100Y280001D02*
X385418D01*
X378100Y222401D02*
X385379D01*
X378100Y317801D02*
X385352D01*
X326587Y147701D02*
X385321D01*
X378100Y179201D02*
X385317D01*
X378100Y185501D02*
X385272D01*
X378100Y154001D02*
X385267D01*
X378100Y355601D02*
X385242D01*
X378100Y324101D02*
X385238D01*
X378100Y273701D02*
X385179D01*
X378100Y303401D02*
X385161D01*
X378100Y271901D02*
X385157D01*
X378100Y199001D02*
X385128D01*
X378100Y325901D02*
X385101D01*
X378100Y357401D02*
X385097D01*
X378100Y155801D02*
X385074D01*
X378100Y177401D02*
X385032D01*
X325585Y145901D02*
X385028D01*
X378100Y220601D02*
X384982D01*
X378100Y281801D02*
X384953D01*
X378100Y295301D02*
X384937D01*
X378100Y263801D02*
X384934D01*
X378100Y207101D02*
X384909D01*
X378100Y238601D02*
X384905D01*
X378100Y334001D02*
X384886D01*
X378100Y163901D02*
X384863D01*
X378100Y339401D02*
X384805D01*
X378100Y244001D02*
X384787D01*
X378100Y212501D02*
X384784D01*
X378100Y258401D02*
X384761D01*
X378100Y215201D02*
X384720D01*
X378100Y342101D02*
X384700D01*
X351775Y140501D02*
X384683D01*
X378100Y161201D02*
X384649D01*
X378100Y362801D02*
X384633D01*
X378100Y331301D02*
X384630D01*
X378100Y235901D02*
X384614D01*
X378100Y204401D02*
X384612D01*
X378100Y266501D02*
X384592D01*
X378100Y298001D02*
X384589D01*
X378100Y279101D02*
X384578D01*
X378100Y223301D02*
X384557D01*
X378100Y318701D02*
X384542D01*
X326520Y148601D02*
X384525D01*
X378100Y180101D02*
X384522D01*
X378100Y184601D02*
X384497D01*
X378100Y153101D02*
X384495D01*
X378100Y354701D02*
X384481D01*
X378100Y323201D02*
X384478D01*
X378100Y274601D02*
X384445D01*
X378100Y302501D02*
X384435D01*
X378100Y271001D02*
X384433D01*
X378100Y199901D02*
X384417D01*
X378100Y326801D02*
X384402D01*
X378100Y358301D02*
X384400D01*
X378100Y156701D02*
X384387D01*
X378100Y176501D02*
X384363D01*
X223800Y145001D02*
X384361D01*
X378100Y219701D02*
X384335D01*
X380781Y282701D02*
X384318D01*
X378100Y262901D02*
X384308D01*
X378100Y208001D02*
X384294D01*
X378100Y239501D02*
X384292D01*
X378100Y334901D02*
X384281D01*
X378100Y338501D02*
X384235D01*
X378100Y243101D02*
X384225D01*
X378100Y211601D02*
X384223D01*
X378100Y259301D02*
X384211D01*
X378100Y216101D02*
X384188D01*
X378100Y343001D02*
X384177D01*
X326700Y141401D02*
X384168D01*
X378100Y160301D02*
X384148D01*
X378100Y361901D02*
X384140D01*
X378100Y330401D02*
X384138D01*
X378100Y203501D02*
X384128D01*
X378100Y267401D02*
X384117D01*
X378100Y298901D02*
X384116D01*
X378100Y278201D02*
X384110D01*
X378100Y319601D02*
X384090D01*
X326095Y149501D02*
X384081D01*
X378100Y181001D02*
X384079D01*
X378100Y183701D02*
X384066D01*
X377991Y152201D02*
X384065D01*
X378100Y353801D02*
X384058D01*
X378100Y322301D02*
X384056D01*
X378100Y275501D02*
X384039D01*
X378100Y301601D02*
X384034D01*
X378100Y270101D02*
X384033D01*
X378100Y200801D02*
X384024D01*
X378100Y327701D02*
X384016D01*
X378100Y359201D02*
X384015D01*
X378100Y157601D02*
X384009D01*
X223800Y144101D02*
X383996D01*
X378100Y218801D02*
X383983D01*
X378100Y262001D02*
X383970D01*
X378100Y208901D02*
X383963D01*
X378100Y240401D02*
X383962D01*
X378100Y335801D02*
X383957D01*
X378100Y337601D02*
X383936D01*
X378100Y242201D02*
X383931D01*
X378100Y210701D02*
X383930D01*
X378100Y260201D02*
X383925D01*
X378100Y217001D02*
X383915D01*
X326700Y142301D02*
X383907D01*
X378100Y159401D02*
X383899D01*
X378100Y361001D02*
X383895D01*
X378100Y329501D02*
X383895D01*
X378100Y202601D02*
X383891D01*
X378100Y268301D02*
X383887D01*
X378100Y299801D02*
X383886D01*
X378100Y277301D02*
X383884D01*
X378100Y320501D02*
X383877D01*
X324900Y150401D02*
X383874D01*
X378100Y181901D02*
X383874D01*
X378100Y182801D02*
X383870D01*
X377201Y151301D02*
X383869D01*
X378100Y321401D02*
X383867D01*
X378100Y276401D02*
X383862D01*
X378100Y300701D02*
X383860D01*
X378100Y269201D02*
X383860D01*
X378100Y201701D02*
X383858D01*
X378100Y328601D02*
X383856D01*
X378100Y360101D02*
X383856D01*
X378100Y158501D02*
X383855D01*
X326700Y143201D02*
X383852D01*
X378100Y217901D02*
X383850D01*
X378100Y261101D02*
X383848D01*
X378100Y209801D02*
X383848D01*
X378100Y241301D02*
X383848D01*
X378100Y336701D02*
X383847D01*
X378100Y164801D02*
X383151D01*
X378100Y235001D02*
X382637D01*
X378100Y224201D02*
X382368D01*
X381318Y175601D02*
X382145D01*
X381781Y165701D02*
X381856D01*
X378100Y294401D02*
X380386D01*
X351007Y129701D02*
X380087D01*
X378100Y293501D02*
X379172D01*
X351100Y128801D02*
X377944D01*
X351100Y127901D02*
X376408D01*
X351100Y127001D02*
X375190D01*
X351100Y126101D02*
X374182D01*
X350965Y125201D02*
X373330D01*
X326700Y105401D02*
X372830D01*
X350218Y124301D02*
X372601D01*
X326700Y106301D02*
X372171D01*
X351041Y123401D02*
X371974D01*
X326700Y107201D02*
X371605D01*
X351100Y122501D02*
X371436D01*
X361292Y108101D02*
X371120D01*
X351100Y121601D02*
X370976D01*
X362160Y109001D02*
X370708D01*
X351428Y120701D02*
X370586D01*
X362643Y109901D02*
X370363D01*
X352327Y119801D02*
X370262D01*
X362879Y110801D02*
X370080D01*
X352833Y118901D02*
X369999D01*
X362912Y111701D02*
X369855D01*
X352896Y118001D02*
X369793D01*
X362745Y112601D02*
X369687D01*
X352896Y117101D02*
X369643D01*
X362352Y113501D02*
X369573D01*
X352896Y116201D02*
X369547D01*
X361641Y114401D02*
X369512D01*
X360195Y115301D02*
X369503D01*
X352896D02*
X357345D01*
X353418Y108101D02*
X356248D01*
X353767Y114401D02*
X355899D01*
X354286Y109001D02*
X355380D01*
X354478Y113501D02*
X355188D01*
X354769Y109901D02*
X354897D01*
X345544Y108101D02*
X348374D01*
X344559Y140501D02*
X348025D01*
X346374Y136901D02*
X348023D01*
X346412Y109001D02*
X347506D01*
X346018Y139601D02*
X347461D01*
X346595Y137801D02*
X347460D01*
X346493Y138701D02*
X347300D01*
X346895Y109901D02*
X347023D01*
X334559Y140501D02*
X343441D01*
X335708Y136001D02*
X342293D01*
X336018Y139601D02*
X341982D01*
X336374Y136901D02*
X341626D01*
X326700Y124301D02*
X341582D01*
X336493Y138701D02*
X341507D01*
X336595Y137801D02*
X341405D01*
X326700Y118001D02*
X341358D01*
X326700Y117101D02*
X341358D01*
X326700Y116201D02*
X341358D01*
X336573Y115301D02*
X341358D01*
X326700Y118901D02*
X340887D01*
X326700Y125201D02*
X340835D01*
X326700Y129701D02*
X340793D01*
X326700Y123401D02*
X340759D01*
X326700Y128801D02*
X340700D01*
X326700Y127901D02*
X340700D01*
X326700Y127001D02*
X340700D01*
X326700Y126101D02*
X340700D01*
X326700Y122501D02*
X340700D01*
X326700Y121601D02*
X340700D01*
X326700Y120701D02*
X340700D01*
X326700Y119801D02*
X340700D01*
X337670Y108101D02*
X340500D01*
X338019Y114401D02*
X340151D01*
X338538Y109001D02*
X339632D01*
X338730Y113501D02*
X339440D01*
X339021Y109901D02*
X339149D01*
X328699Y115301D02*
X333723D01*
X326700Y140501D02*
X333441D01*
X329796Y108101D02*
X332626D01*
X326700Y136001D02*
X332293D01*
X330145Y114401D02*
X332277D01*
X326700Y139601D02*
X331982D01*
X330664Y109001D02*
X331758D01*
X326700Y136901D02*
X331626D01*
X330856Y113501D02*
X331566D01*
X326700Y138701D02*
X331507D01*
X326700Y137801D02*
X331405D01*
X331147Y109901D02*
X331275D01*
X314900Y150401D02*
X323100D01*
X315585Y145901D02*
X322415D01*
X316095Y149501D02*
X321905D01*
X316327Y146801D02*
X321673D01*
X316520Y148601D02*
X321480D01*
X316587Y147701D02*
X321413D01*
X304900Y150401D02*
X313100D01*
X305585Y145901D02*
X312415D01*
X306095Y149501D02*
X311905D01*
X306327Y146801D02*
X311673D01*
X306520Y148601D02*
X311480D01*
X306587Y147701D02*
X311413D01*
X294900Y150401D02*
X303100D01*
X295585Y145901D02*
X302415D01*
X296095Y149501D02*
X301905D01*
X296327Y146801D02*
X301673D01*
X296520Y148601D02*
X301480D01*
X296587Y147701D02*
X301413D01*
X274900Y150401D02*
X293100D01*
X275585Y145901D02*
X292415D01*
X276095Y149501D02*
X291905D01*
X276327Y146801D02*
X291673D01*
X276520Y148601D02*
X291480D01*
X276587Y147701D02*
X291413D01*
X264900Y150401D02*
X273100D01*
X265585Y145901D02*
X272415D01*
X266095Y149501D02*
X271905D01*
X266327Y146801D02*
X271673D01*
X266520Y148601D02*
X271480D01*
X266587Y147701D02*
X271413D01*
X254900Y150401D02*
X263100D01*
X255585Y145901D02*
X262415D01*
X256095Y149501D02*
X261905D01*
X256327Y146801D02*
X261673D01*
X256520Y148601D02*
X261480D01*
X256587Y147701D02*
X261413D01*
X239514Y151301D02*
X253699D01*
X244900Y150401D02*
X253100D01*
X245585Y145901D02*
X252415D01*
X246095Y149501D02*
X251905D01*
X246327Y146801D02*
X251673D01*
X246520Y148601D02*
X251480D01*
X246587Y147701D02*
X251413D01*
X223800Y150401D02*
X243100D01*
X223800Y145901D02*
X242415D01*
X223800Y149501D02*
X241905D01*
X223800Y146801D02*
X241673D01*
X223800Y148601D02*
X241480D01*
X223800Y147701D02*
X241413D01*
X223800Y151301D02*
X237086D01*
X232200Y159401D02*
X234000D01*
X232200Y158501D02*
X234000D01*
X232200Y157601D02*
X234000D01*
X232200Y156701D02*
X234000D01*
X232200Y155801D02*
X234000D01*
X232200Y154901D02*
X234000D01*
X232050Y154001D02*
X234000D01*
X231700Y153101D02*
X234000D01*
X223800Y152201D02*
X234000D01*
X232200Y160301D02*
X233395D01*
X232200Y161201D02*
X232927D01*
X223800Y153101D02*
X225400D01*
X223800Y154001D02*
X225050D01*
X223800Y154901D02*
X224900D01*
X223800Y155801D02*
X224900D01*
X223800Y156701D02*
X224900D01*
X223800Y157601D02*
X224900D01*
X223800Y158501D02*
X224900D01*
X223800Y159401D02*
X224900D01*
X223800Y160301D02*
X224900D01*
X223800Y161201D02*
X224900D01*
X223800Y162101D02*
X224900D01*
X224068Y163001D02*
X224900D01*
X224574Y163901D02*
X224900D01*
X224698Y164801D02*
X224900D01*
X224500Y165701D02*
X224900D01*
X223874Y166601D02*
X224900D01*
X223100Y167501D02*
X224900D01*
X223100Y168401D02*
X224900D01*
X223100Y169301D02*
X224900D01*
X223100Y170201D02*
X224900D01*
X223100Y171101D02*
X224900D01*
X223100Y172001D02*
X224900D01*
X223100Y172901D02*
X224900D01*
X223100Y173801D02*
X224900D01*
X223100Y174701D02*
X224900D01*
X223100Y175601D02*
X224900D01*
X223100Y176501D02*
X224900D01*
X223100Y177401D02*
X224900D01*
X351000Y371399D02*
X377567D01*
X351000Y370499D02*
X376734D01*
X351000Y372299D02*
X376116D01*
X351000Y397499D02*
X375833D01*
X351000Y373199D02*
X374951D01*
X351000Y396599D02*
X374718D01*
X351000Y374099D02*
X373981D01*
X351000Y395699D02*
X373784D01*
X351000Y374999D02*
X373158D01*
X351000Y394799D02*
X372990D01*
X351000Y375899D02*
X372453D01*
X351000Y393899D02*
X372309D01*
X351000Y376799D02*
X371847D01*
X351000Y392999D02*
X371723D01*
X351000Y377699D02*
X371327D01*
X351000Y392099D02*
X371221D01*
X351000Y378599D02*
X370884D01*
X351000Y391199D02*
X370793D01*
X351000Y379499D02*
X370509D01*
X351000Y390299D02*
X370434D01*
X351000Y380399D02*
X370199D01*
X351000Y389399D02*
X370137D01*
X351000Y381299D02*
X369948D01*
X351000Y388499D02*
X369900D01*
X351000Y382199D02*
X369755D01*
X351000Y387599D02*
X369719D01*
X351000Y383099D02*
X369617D01*
X351000Y386699D02*
X369593D01*
X351000Y383999D02*
X369532D01*
X351000Y385799D02*
X369521D01*
X351000Y384899D02*
X369500D01*
X351000Y369599D02*
X367195D01*
X351000Y368699D02*
X366726D01*
X351000Y367799D02*
X366700D01*
X351000Y366899D02*
X366700D01*
X359335Y365999D02*
X366700D01*
X358797Y361499D02*
X366700D01*
X351000Y360599D02*
X366700D01*
X351000Y359699D02*
X366700D01*
X351000Y358799D02*
X366700D01*
X351000Y357899D02*
X366700D01*
X351000Y356999D02*
X366700D01*
X351000Y356099D02*
X366700D01*
X351000Y355199D02*
X366700D01*
X351000Y354299D02*
X366700D01*
X351000Y353399D02*
X366700D01*
X351000Y352499D02*
X366700D01*
X351000Y351599D02*
X366700D01*
X351000Y350699D02*
X366700D01*
X351000Y349799D02*
X366700D01*
X102500Y348899D02*
X366700D01*
X102500Y347999D02*
X366700D01*
X102500Y347099D02*
X366700D01*
X102500Y346199D02*
X366700D01*
X102500Y345299D02*
X366700D01*
X102500Y344399D02*
X366700D01*
X102500Y343499D02*
X366700D01*
X102500Y342599D02*
X366700D01*
X102500Y341699D02*
X366700D01*
X102500Y340799D02*
X366700D01*
X102500Y339899D02*
X366700D01*
X102500Y338999D02*
X366700D01*
X102500Y338099D02*
X366700D01*
X102500Y337199D02*
X366700D01*
X102500Y336299D02*
X366700D01*
X206388Y335399D02*
X366700D01*
X207568Y334499D02*
X366700D01*
X208193Y333599D02*
X366700D01*
X208531Y332699D02*
X366700D01*
X208652Y331799D02*
X366700D01*
X208575Y330899D02*
X366700D01*
X208288Y329999D02*
X366700D01*
X207737Y329099D02*
X366700D01*
X231588Y328199D02*
X366700D01*
X253435Y327299D02*
X366700D01*
X254207Y326399D02*
X366700D01*
X254483Y325499D02*
X366700D01*
X254430Y324599D02*
X366700D01*
X254023Y323699D02*
X366700D01*
X252897Y322799D02*
X366700D01*
X251073Y321899D02*
X366700D01*
X250566Y320999D02*
X366700D01*
X254418Y320099D02*
X366700D01*
X255127Y319199D02*
X366700D01*
X255444Y318299D02*
X366700D01*
X338386Y317399D02*
X366700D01*
X339317Y316499D02*
X366700D01*
X339833Y315599D02*
X366700D01*
X340094Y314699D02*
X366700D01*
X340148Y313799D02*
X366700D01*
X340004Y312899D02*
X366700D01*
X339639Y311999D02*
X366700D01*
X338971Y311099D02*
X366700D01*
X337672Y310199D02*
X366700D01*
X338679Y309299D02*
X366700D01*
X339476Y308399D02*
X366700D01*
X339919Y307499D02*
X366700D01*
X340126Y306599D02*
X366700D01*
X340131Y305699D02*
X366700D01*
X339935Y304799D02*
X366700D01*
X363619Y303899D02*
X366700D01*
X364560Y299399D02*
X366700D01*
X281168Y298499D02*
X366700D01*
X281674Y297599D02*
X366700D01*
X281798Y296699D02*
X366700D01*
X310877Y295799D02*
X366700D01*
X319006Y294899D02*
X366700D01*
X329663Y293999D02*
X366700D01*
X330356Y293099D02*
X366700D01*
X330592Y292199D02*
X366700D01*
X330504Y291299D02*
X366700D01*
X330048Y290399D02*
X366700D01*
X328710Y289499D02*
X366700D01*
X294635Y288599D02*
X366700D01*
X295407Y287699D02*
X366700D01*
X295683Y286799D02*
X366700D01*
X295630Y285899D02*
X366700D01*
X295223Y284999D02*
X366700D01*
X294097Y284099D02*
X366700D01*
X268051Y283199D02*
X366700D01*
X308115Y282299D02*
X366700D01*
X309092Y281399D02*
X366700D01*
X309452Y280499D02*
X366700D01*
X325335Y279599D02*
X366700D01*
X326107Y278699D02*
X366700D01*
X326383Y277799D02*
X366700D01*
X326330Y276899D02*
X366700D01*
X325923Y275999D02*
X366700D01*
X325815Y275099D02*
X366700D01*
X326792Y274199D02*
X366700D01*
X327152Y273299D02*
X366700D01*
X327169Y272399D02*
X366700D01*
X326851Y271499D02*
X366700D01*
X325984Y270599D02*
X366700D01*
X309351Y269699D02*
X366700D01*
X308990Y268799D02*
X366700D01*
X308010Y267899D02*
X366700D01*
X269700Y266999D02*
X366700D01*
X269700Y266099D02*
X366700D01*
X269700Y265199D02*
X366700D01*
X269700Y264299D02*
X366700D01*
X269910Y263399D02*
X366700D01*
X270810Y262499D02*
X366700D01*
X271710Y261599D02*
X366700D01*
X272610Y260699D02*
X366700D01*
X273510Y259799D02*
X366700D01*
X274410Y258899D02*
X366700D01*
X275310Y257999D02*
X366700D01*
X276210Y257099D02*
X366700D01*
X277110Y256199D02*
X366700D01*
X278010Y255299D02*
X366700D01*
X278910Y254399D02*
X366700D01*
X279810Y253499D02*
X366700D01*
X280710Y252599D02*
X366700D01*
X281610Y251699D02*
X366700D01*
X282479Y250799D02*
X366700D01*
X282797Y249899D02*
X366700D01*
X282800Y248999D02*
X366700D01*
X282800Y248099D02*
X366700D01*
X282800Y247199D02*
X366700D01*
X283498Y246299D02*
X366700D01*
X284370Y245399D02*
X366700D01*
X284697Y244499D02*
X366700D01*
X284700Y243599D02*
X366700D01*
X284773Y239099D02*
X366700D01*
X279480Y238199D02*
X366700D01*
X278580Y237299D02*
X366700D01*
X277575Y236399D02*
X366700D01*
X262206Y235499D02*
X366700D01*
X262891Y234599D02*
X366700D01*
X263000Y233699D02*
X366700D01*
X263000Y232799D02*
X366700D01*
X263000Y231899D02*
X366700D01*
X263000Y230999D02*
X366700D01*
X263000Y230099D02*
X366700D01*
X263425Y229199D02*
X366700D01*
X263830Y228299D02*
X366700D01*
X263883Y227399D02*
X366700D01*
X263606Y226499D02*
X366700D01*
X262831Y225599D02*
X366700D01*
X259555Y224699D02*
X366700D01*
X258860Y223799D02*
X366700D01*
X254252Y222899D02*
X366700D01*
X254569Y221999D02*
X366700D01*
X254551Y221099D02*
X366700D01*
X254190Y220199D02*
X366700D01*
X253700Y219299D02*
X366700D01*
X297263Y218399D02*
X366700D01*
X297956Y217499D02*
X366700D01*
X328072Y216599D02*
X366700D01*
X329156Y215699D02*
X366700D01*
X329743Y214799D02*
X366700D01*
X330054Y213899D02*
X366700D01*
X330153Y212999D02*
X366700D01*
X330054Y212099D02*
X366700D01*
X329742Y211199D02*
X366700D01*
X329154Y210299D02*
X366700D01*
X328068Y209399D02*
X366700D01*
X300900Y208499D02*
X366700D01*
X300900Y207599D02*
X366700D01*
X300900Y206699D02*
X366700D01*
X300900Y205799D02*
X366700D01*
X300900Y204899D02*
X366700D01*
X300900Y203999D02*
X366700D01*
X300900Y203099D02*
X366700D01*
X300900Y202199D02*
X366700D01*
X300900Y201299D02*
X366700D01*
X300846Y200399D02*
X366700D01*
X300280Y199499D02*
X366700D01*
X299380Y198599D02*
X366700D01*
X298480Y197699D02*
X366700D01*
X297580Y196799D02*
X366700D01*
X296680Y195899D02*
X366700D01*
X295780Y194999D02*
X366700D01*
X294880Y194099D02*
X366700D01*
X293980Y193199D02*
X366700D01*
X293080Y192299D02*
X366700D01*
X292180Y191399D02*
X366700D01*
X329237Y190499D02*
X366700D01*
X330239Y189599D02*
X366700D01*
X330789Y188699D02*
X366700D01*
X331075Y187799D02*
X366700D01*
X331152Y186899D02*
X366700D01*
X331030Y185999D02*
X366700D01*
X330692Y185099D02*
X366700D01*
X330066Y184199D02*
X366700D01*
X328883Y183299D02*
X366700D01*
X265000Y182399D02*
X366700D01*
X265000Y181499D02*
X366700D01*
X265000Y180599D02*
X366700D01*
X265000Y179699D02*
X366700D01*
X265000Y178799D02*
X366700D01*
X265000Y177899D02*
X366700D01*
X265000Y176999D02*
X366700D01*
X265000Y176099D02*
X366700D01*
X265000Y175199D02*
X366700D01*
X265000Y174299D02*
X366700D01*
X265000Y173399D02*
X366700D01*
X265000Y172499D02*
X366700D01*
X265000Y171599D02*
X366700D01*
X265000Y170699D02*
X366700D01*
X265000Y169799D02*
X366700D01*
X265000Y168899D02*
X366700D01*
X265000Y167999D02*
X366700D01*
X265000Y167099D02*
X366700D01*
X265000Y166199D02*
X366700D01*
X285399Y239999D02*
X366310D01*
X284968Y242699D02*
X366248D01*
X285598Y240899D02*
X365949D01*
X285474Y241799D02*
X365931D01*
X339505Y303899D02*
X362181D01*
X279283Y299399D02*
X361240D01*
X338732Y302999D02*
X360850D01*
X264105Y300299D02*
X360545D01*
X337013Y302099D02*
X360396D01*
X263206Y301199D02*
X360308D01*
X351000Y361499D02*
X356803D01*
X351000Y365999D02*
X356265D01*
X351000Y362399D02*
X355677D01*
X351000Y365099D02*
X355493D01*
X351000Y363299D02*
X355270D01*
X351000Y364199D02*
X355217D01*
X262306Y302099D02*
X334987D01*
X254206Y310199D02*
X334328D01*
X255486Y317399D02*
X333614D01*
X255106Y309299D02*
X333321D01*
X261406Y302999D02*
X333268D01*
X253306Y311099D02*
X333029D01*
X255266Y316499D02*
X332683D01*
X256006Y308399D02*
X332524D01*
X260506Y303899D02*
X332495D01*
X252406Y311999D02*
X332361D01*
X254713Y315599D02*
X332167D01*
X256906Y307499D02*
X332081D01*
X259606Y304799D02*
X332065D01*
X251506Y312899D02*
X331996D01*
X253410Y314699D02*
X331906D01*
X257806Y306599D02*
X331874D01*
X258706Y305699D02*
X331869D01*
X250992Y313799D02*
X331852D01*
X288906Y289499D02*
X327290D01*
X319906Y293999D02*
X326337D01*
X143800Y103199D02*
X326123D01*
X143800Y104099D02*
X325150D01*
X321009Y183299D02*
X325117D01*
X286395Y140999D02*
X325000D01*
X286799Y140099D02*
X325000D01*
X286981Y139199D02*
X325000D01*
X286971Y138299D02*
X325000D01*
X286765Y137399D02*
X325000D01*
X286332Y136499D02*
X325000D01*
X288715Y135599D02*
X325000D01*
X289876Y134699D02*
X325000D01*
X290507Y133799D02*
X325000D01*
X290857Y132899D02*
X325000D01*
X290995Y131999D02*
X325000D01*
X290942Y131099D02*
X325000D01*
X299970Y130199D02*
X325000D01*
X302111Y129299D02*
X325000D01*
X303370Y128399D02*
X325000D01*
X304274Y127499D02*
X325000D01*
X304957Y126599D02*
X325000D01*
X305478Y125699D02*
X325000D01*
X305867Y124799D02*
X325000D01*
X306143Y123899D02*
X325000D01*
X306317Y122999D02*
X325000D01*
X306395Y122099D02*
X325000D01*
X306379Y121199D02*
X325000D01*
X306270Y120299D02*
X325000D01*
X306062Y119399D02*
X325000D01*
X305749Y118499D02*
X325000D01*
X305318Y117599D02*
X325000D01*
X304747Y116699D02*
X325000D01*
X303999Y115799D02*
X325000D01*
X321637Y114899D02*
X325000D01*
X321283Y107699D02*
X325000D01*
X143800Y106799D02*
X325000D01*
X143800Y105899D02*
X325000D01*
X143800Y104999D02*
X325000D01*
X321363Y190499D02*
X324763D01*
X322466Y108599D02*
X324208D01*
X322639Y113999D02*
X324035D01*
X322192Y184199D02*
X323934D01*
X320194Y209399D02*
X323932D01*
X320198Y216599D02*
X323928D01*
X322365Y189599D02*
X323761D01*
X323092Y109499D02*
X323582D01*
X323189Y113099D02*
X323485D01*
X322818Y185099D02*
X323308D01*
X309369Y270599D02*
X323216D01*
X322915Y188699D02*
X323211D01*
X321280Y210299D02*
X322846D01*
X321282Y215699D02*
X322844D01*
X316535Y279599D02*
X322265D01*
X321868Y211199D02*
X322258D01*
X321869Y214799D02*
X322257D01*
X288006Y290399D02*
X318929D01*
X316366Y271499D02*
X318606D01*
X287106Y291299D02*
X317797D01*
X143800Y107699D02*
X317517D01*
X265000Y183299D02*
X317243D01*
X302997Y114899D02*
X317163D01*
X310875Y292199D02*
X316897D01*
X291280Y190499D02*
X316889D01*
X143800Y108599D02*
X316334D01*
X301551Y113999D02*
X316161D01*
X280484Y184199D02*
X316060D01*
X300900Y209399D02*
X316058D01*
X298192Y216599D02*
X316054D01*
X290380Y189599D02*
X315887D01*
X143667Y109499D02*
X315708D01*
X130383Y113099D02*
X315611D01*
X285871Y185099D02*
X315434D01*
X129801Y110399D02*
X315370D01*
X289480Y188699D02*
X315337D01*
X130245Y112199D02*
X315325D01*
X130052Y111299D02*
X315248D01*
X286780Y185999D02*
X315096D01*
X288580Y187799D02*
X315051D01*
X287680Y186899D02*
X314974D01*
X300900Y210299D02*
X314972D01*
X298104Y215699D02*
X314970D01*
X301423Y211199D02*
X314384D01*
X300835Y214799D02*
X314383D01*
X301830Y212099D02*
X314072D01*
X301607Y213899D02*
X314072D01*
X301883Y212999D02*
X313973D01*
X309469Y279599D02*
X313465D01*
X308600Y275999D02*
X312877D01*
X309151Y278699D02*
X312693D01*
X308597Y275099D02*
X312624D01*
X308600Y276899D02*
X312470D01*
X309052Y271499D02*
X312434D01*
X308600Y277799D02*
X312417D01*
X308500Y274199D02*
X311999D01*
X308500Y272399D02*
X311927D01*
X308500Y273299D02*
X311802D01*
X286206Y292199D02*
X307125D01*
X282606Y295799D02*
X307123D01*
X285306Y293099D02*
X306561D01*
X283506Y294899D02*
X306560D01*
X284406Y293999D02*
X306400D01*
X267184Y282299D02*
X305685D01*
X277297Y267899D02*
X305590D01*
X271206Y277799D02*
X305200D01*
X272106Y276899D02*
X305200D01*
X273006Y275999D02*
X305200D01*
X273906Y275099D02*
X305100D01*
X274806Y274199D02*
X305100D01*
X275706Y273299D02*
X305100D01*
X277835Y272399D02*
X305100D01*
X267606Y281399D02*
X304708D01*
X270306Y278699D02*
X304649D01*
X278423Y268799D02*
X304610D01*
X278607Y271499D02*
X304548D01*
X268506Y280499D02*
X304348D01*
X269406Y279599D02*
X304331D01*
X278830Y269699D02*
X304249D01*
X278883Y270599D02*
X304231D01*
X297648Y214799D02*
X297765D01*
X290691Y130199D02*
X295430D01*
X264997Y198599D02*
X294116D01*
X253700Y218399D02*
X293937D01*
X269423Y213899D02*
X293900D01*
X269000Y212999D02*
X293900D01*
X269000Y212099D02*
X293900D01*
X269000Y211199D02*
X293900D01*
X251551Y113999D02*
X293849D01*
X269000Y210299D02*
X293800D01*
X269000Y209399D02*
X293800D01*
X269492Y208499D02*
X293800D01*
X269852Y207599D02*
X293800D01*
X269869Y206699D02*
X293800D01*
X269551Y205799D02*
X293800D01*
X268684Y204899D02*
X293800D01*
X253700Y203999D02*
X293800D01*
X253700Y203099D02*
X293800D01*
X265000Y197699D02*
X293671D01*
X269830Y214799D02*
X293552D01*
X253700Y202199D02*
X293308D01*
X290198Y129299D02*
X293289D01*
X264676Y199499D02*
X293249D01*
X268835Y217499D02*
X293244D01*
X269883Y215699D02*
X293096D01*
X269607Y216599D02*
X293008D01*
X253905Y201299D02*
X292948D01*
X254374Y200399D02*
X292931D01*
X265000Y196799D02*
X292771D01*
X252997Y114899D02*
X292403D01*
X268369Y284099D02*
X292103D01*
X289331Y128399D02*
X292030D01*
X265000Y195899D02*
X291871D01*
X289806Y288599D02*
X291565D01*
X253999Y115799D02*
X291401D01*
X254274Y127499D02*
X291126D01*
X265000Y194999D02*
X290971D01*
X254747Y116699D02*
X290653D01*
X254957Y126599D02*
X290443D01*
X255318Y117599D02*
X290082D01*
X265000Y194099D02*
X290071D01*
X255478Y125699D02*
X289922D01*
X255749Y118499D02*
X289651D01*
X255867Y124799D02*
X289533D01*
X256062Y119399D02*
X289338D01*
X256143Y123899D02*
X289257D01*
X265000Y193199D02*
X289171D01*
X256270Y120299D02*
X289130D01*
X256317Y122999D02*
X289083D01*
X256379Y121199D02*
X289021D01*
X256395Y122099D02*
X289005D01*
X268352Y284999D02*
X288702D01*
X265000Y192299D02*
X288271D01*
X267992Y285899D02*
X287697D01*
X265000Y191399D02*
X287371D01*
X267500Y286799D02*
X286797D01*
X265000Y190499D02*
X286471D01*
X267500Y287699D02*
X285897D01*
X265000Y189599D02*
X285571D01*
X267500Y288599D02*
X284997D01*
X280315Y188699D02*
X284671D01*
X267903Y289499D02*
X284097D01*
X281331Y128399D02*
X284069D01*
X282198Y129299D02*
X283202D01*
X268803Y290399D02*
X283197D01*
X282691Y130199D02*
X282709D01*
X269703Y291299D02*
X282297D01*
X271875Y292199D02*
X281397D01*
X280380Y239099D02*
X281227D01*
X272439Y293099D02*
X280497D01*
X272600Y293999D02*
X279597D01*
X264574Y299399D02*
X279117D01*
X265000Y188699D02*
X277885D01*
X265000Y184199D02*
X277716D01*
X272440Y294899D02*
X277427D01*
X264600Y298499D02*
X277232D01*
X265000Y187799D02*
X276908D01*
X265000Y185099D02*
X276849D01*
X271877Y295799D02*
X276801D01*
X264600Y297599D02*
X276726D01*
X264600Y296699D02*
X276602D01*
X265000Y186899D02*
X276548D01*
X265000Y185999D02*
X276531D01*
X273331Y128399D02*
X276069D01*
X269700Y267899D02*
X275303D01*
X274198Y129299D02*
X275202D01*
X274691Y130199D02*
X274709D01*
X269700Y268799D02*
X274177D01*
X269443Y269699D02*
X273770D01*
X268606Y270599D02*
X273597D01*
X267706Y271499D02*
X272697D01*
X266806Y272399D02*
X271797D01*
X265906Y273299D02*
X270897D01*
X265100Y274199D02*
X269997D01*
X265100Y275099D02*
X269097D01*
X264843Y275999D02*
X268197D01*
X264600Y295799D02*
X268123D01*
X265331Y128399D02*
X268069D01*
X264600Y294899D02*
X267560D01*
X264600Y293999D02*
X267400D01*
X264006Y276899D02*
X267297D01*
X266198Y129299D02*
X267202D01*
X266691Y130199D02*
X266709D01*
X264600Y293099D02*
X266694D01*
X264190Y277799D02*
X266397D01*
X253700Y204899D02*
X265916D01*
X264600Y292199D02*
X265794D01*
X253700Y217499D02*
X265765D01*
X253700Y212999D02*
X265600D01*
X253700Y212099D02*
X265600D01*
X253700Y211199D02*
X265600D01*
X253700Y210299D02*
X265600D01*
X253700Y209399D02*
X265600D01*
X264551Y278699D02*
X265497D01*
X253700Y213899D02*
X265177D01*
X253700Y208499D02*
X265108D01*
X253700Y205799D02*
X265049D01*
X253700Y216599D02*
X264993D01*
X264600Y291299D02*
X264894D01*
X253700Y214799D02*
X264770D01*
X253700Y207599D02*
X264748D01*
X253700Y206699D02*
X264731D01*
X253700Y215699D02*
X264717D01*
X264569Y279599D02*
X264597D01*
X257392Y257099D02*
X263100D01*
X257752Y256199D02*
X263100D01*
X257769Y255299D02*
X263100D01*
X257451Y254399D02*
X263100D01*
X256584Y253499D02*
X263100D01*
X241403Y252599D02*
X263100D01*
X240503Y251699D02*
X263100D01*
X239603Y250799D02*
X263100D01*
X238703Y249899D02*
X263100D01*
X237803Y248999D02*
X263100D01*
X236903Y248099D02*
X263100D01*
X236003Y247199D02*
X263100D01*
X235103Y246299D02*
X263100D01*
X260982Y245399D02*
X263100D01*
X261882Y244499D02*
X263100D01*
X262688Y243599D02*
X263100D01*
X262900Y242699D02*
X263100D01*
X261306Y236399D02*
X262925D01*
X256415Y257999D02*
X262647D01*
X260406Y237299D02*
X261920D01*
X248131Y258899D02*
X261747D01*
X260300Y238199D02*
X261020D01*
X248906Y259799D02*
X260847D01*
X253370Y128399D02*
X260069D01*
X249183Y260699D02*
X259947D01*
X252111Y129299D02*
X259202D01*
X249130Y261599D02*
X259047D01*
X223800Y133799D02*
X258893D01*
X249970Y130199D02*
X258709D01*
X223800Y132899D02*
X258543D01*
X223800Y131099D02*
X258458D01*
X223800Y131999D02*
X258405D01*
X248725Y262499D02*
X258147D01*
X223800Y134699D02*
X257408D01*
X249931Y263399D02*
X257247D01*
X250706Y264299D02*
X256347D01*
X223800Y135599D02*
X255829D01*
X253388Y223799D02*
X255540D01*
X254831Y228299D02*
X255500D01*
X250983Y265199D02*
X255447D01*
X124710Y227399D02*
X255150D01*
X223800Y136499D02*
X255068D01*
X223800Y140999D02*
X255005D01*
X206172Y224699D02*
X254845D01*
X102500Y226499D02*
X254696D01*
X223800Y137399D02*
X254635D01*
X205012Y225599D02*
X254608D01*
X223800Y140099D02*
X254601D01*
X251710Y266099D02*
X254547D01*
X223800Y138299D02*
X254429D01*
X223800Y139199D02*
X254419D01*
X236319Y257999D02*
X253985D01*
X242303Y253499D02*
X253816D01*
X253048Y266999D02*
X253647D01*
X239900Y168899D02*
X252800D01*
X239900Y167999D02*
X252800D01*
X240023Y167099D02*
X252800D01*
X240842Y166199D02*
X252800D01*
X240900Y165299D02*
X252800D01*
X240900Y164399D02*
X252800D01*
X240900Y163499D02*
X252800D01*
X240900Y162599D02*
X252800D01*
X246616Y153599D02*
X252800D01*
X247514Y161699D02*
X252727D01*
X248455Y154499D02*
X252041D01*
X251175Y228299D02*
X251769D01*
X248782Y160799D02*
X251544D01*
X249267Y155399D02*
X251187D01*
X236400Y198599D02*
X251000D01*
X236400Y197699D02*
X251000D01*
X236400Y196799D02*
X251000D01*
X236400Y195899D02*
X251000D01*
X236400Y194999D02*
X251000D01*
X237006Y194099D02*
X251000D01*
X237906Y193199D02*
X251000D01*
X238806Y192299D02*
X251000D01*
X239706Y191399D02*
X251000D01*
X241863Y190499D02*
X251000D01*
X242556Y189599D02*
X251000D01*
X242792Y188699D02*
X251000D01*
X242704Y187799D02*
X251000D01*
X242248Y186899D02*
X251000D01*
X240910Y185999D02*
X251000D01*
X229698Y185099D02*
X251000D01*
X230598Y184199D02*
X251000D01*
X231498Y183299D02*
X251000D01*
X232123Y182399D02*
X251000D01*
X249453Y159899D02*
X250904D01*
X236400Y199499D02*
X250897D01*
X249729Y156299D02*
X250701D01*
X207072Y223799D02*
X250612D01*
X249830Y158999D02*
X250549D01*
X249190Y169799D02*
X250536D01*
X249958Y157199D02*
X250454D01*
X241850Y176099D02*
X250422D01*
X232200Y181499D02*
X250419D01*
X249990Y158099D02*
X250406D01*
X232452Y327299D02*
X250365D01*
X236400Y200399D02*
X250348D01*
X241876Y175199D02*
X250326D01*
X211395Y219299D02*
X250300D01*
X211678Y218399D02*
X250300D01*
X211700Y217499D02*
X250300D01*
X211700Y216599D02*
X250300D01*
X236577Y215699D02*
X250300D01*
X237140Y214799D02*
X250300D01*
X237300Y213899D02*
X250300D01*
X237139Y212999D02*
X250300D01*
X236575Y212099D02*
X250300D01*
X236400Y211199D02*
X250300D01*
X236400Y210299D02*
X250300D01*
X236400Y209399D02*
X250300D01*
X236400Y208499D02*
X250300D01*
X236400Y207599D02*
X250300D01*
X236400Y206699D02*
X250300D01*
X236400Y205799D02*
X250300D01*
X236400Y204899D02*
X250300D01*
X236400Y203999D02*
X250300D01*
X236400Y203099D02*
X250300D01*
X236400Y202199D02*
X250300D01*
X236400Y201299D02*
X250300D01*
X249711Y170699D02*
X250015D01*
X248767Y176999D02*
X250004D01*
X241800Y174299D02*
X250000D01*
X249098Y173399D02*
X250000D01*
X249692Y172499D02*
X250000D01*
X249750Y171599D02*
X250000D01*
X210672Y220199D02*
X249810D01*
X207972Y222899D02*
X249748D01*
X209772Y221099D02*
X249449D01*
X208872Y221999D02*
X249431D01*
X210904Y234599D02*
X247600D01*
X210448Y233699D02*
X247600D01*
X209110Y232799D02*
X247600D01*
X125690Y228299D02*
X247425D01*
X134198Y231899D02*
X247423D01*
X234203Y245399D02*
X247294D01*
X214966Y235499D02*
X247097D01*
X126051Y229199D02*
X246861D01*
X134073Y230999D02*
X246860D01*
X133566Y230099D02*
X246700D01*
X236735Y244499D02*
X246550D01*
X215473Y236399D02*
X246476D01*
X237507Y243599D02*
X246400D01*
X237783Y242699D02*
X246400D01*
X237730Y241799D02*
X246400D01*
X237323Y240899D02*
X246400D01*
X236197Y239999D02*
X246400D01*
X231003Y239099D02*
X246400D01*
X230094Y238199D02*
X246400D01*
X225384Y237299D02*
X246400D01*
X224150Y130199D02*
X245430D01*
X232200Y258899D02*
X245069D01*
X241381Y176999D02*
X244833D01*
X240900Y153599D02*
X244784D01*
X241138Y173399D02*
X244502D01*
X239900Y169799D02*
X244410D01*
X232200Y259799D02*
X244294D01*
X232200Y180599D02*
X244220D01*
X242500Y297599D02*
X244200D01*
X242500Y296699D02*
X244200D01*
X242500Y295799D02*
X244200D01*
X242500Y294899D02*
X244200D01*
X242500Y293999D02*
X244200D01*
X242500Y293099D02*
X244200D01*
X242500Y292199D02*
X244200D01*
X242488Y291299D02*
X244200D01*
X242095Y290399D02*
X244200D01*
X241699Y289499D02*
X244200D01*
X241073Y288599D02*
X244200D01*
X123000Y287699D02*
X244200D01*
X238063Y286799D02*
X244200D01*
X238756Y285899D02*
X244200D01*
X238992Y284999D02*
X244200D01*
X238904Y284099D02*
X244200D01*
X238448Y283199D02*
X244200D01*
X237110Y282299D02*
X244200D01*
X234639Y281399D02*
X244200D01*
X234075Y280499D02*
X244200D01*
X228303Y279599D02*
X244200D01*
X227403Y278699D02*
X244200D01*
X226800Y277799D02*
X244200D01*
X226800Y276899D02*
X244200D01*
X226800Y275999D02*
X244200D01*
X226800Y275099D02*
X244200D01*
X226800Y274199D02*
X244200D01*
X232375Y260699D02*
X244017D01*
X234401Y177899D02*
X243976D01*
X239900Y172499D02*
X243908D01*
X239900Y170699D02*
X243889D01*
X240712Y161699D02*
X243886D01*
X232200Y179699D02*
X243857D01*
X233939Y178799D02*
X243850D01*
X239900Y171599D02*
X243850D01*
X130468Y113999D02*
X243849D01*
X242500Y298499D02*
X243812D01*
X226800Y273299D02*
X243808D01*
X224604Y129299D02*
X243289D01*
X240740Y154499D02*
X242945D01*
X242425Y299399D02*
X242912D01*
X226800Y272399D02*
X242908D01*
X240223Y160799D02*
X242618D01*
X130500Y114899D02*
X242403D01*
X240648Y155399D02*
X242133D01*
X224692Y128399D02*
X242030D01*
X241806Y300299D02*
X242012D01*
X226800Y271499D02*
X242008D01*
X240868Y159899D02*
X241947D01*
X240900Y156299D02*
X241671D01*
X240900Y158999D02*
X241570D01*
X226800Y270599D02*
X241451D01*
X240900Y157199D02*
X241442D01*
X232939Y261599D02*
X241440D01*
X240900Y158099D02*
X241410D01*
X130479Y115799D02*
X241401D01*
X226800Y269699D02*
X241400D01*
X226800Y268799D02*
X241400D01*
X226800Y267899D02*
X241400D01*
X226800Y266999D02*
X241400D01*
X226773Y266099D02*
X241400D01*
X237650Y257099D02*
X241134D01*
X224455Y127499D02*
X241126D01*
X240906Y301199D02*
X241112D01*
X226303Y265199D02*
X241050D01*
X233100Y262499D02*
X240745D01*
X130407Y116699D02*
X240653D01*
X232377Y264299D02*
X240596D01*
X232940Y263399D02*
X240508D01*
X223760Y126599D02*
X240443D01*
X240006Y302099D02*
X240212D01*
X238104Y256199D02*
X240194D01*
X130281Y117599D02*
X240082D01*
X208431Y125699D02*
X239922D01*
X232769Y326399D02*
X239794D01*
X130100Y118499D02*
X239651D01*
X127010Y124799D02*
X239533D01*
X228798Y185999D02*
X239490D01*
X129863Y119399D02*
X239338D01*
X239106Y302999D02*
X239312D01*
X238192Y255299D02*
X239294D01*
X127691Y123899D02*
X239257D01*
X129566Y120299D02*
X239130D01*
X231100Y297599D02*
X239100D01*
X231100Y296699D02*
X239100D01*
X231100Y295799D02*
X239100D01*
X231100Y294899D02*
X239100D01*
X231100Y293999D02*
X239100D01*
X230899Y293099D02*
X239100D01*
X128277Y122999D02*
X239083D01*
X129207Y121199D02*
X239021D01*
X128779Y122099D02*
X239005D01*
X231100Y298499D02*
X238797D01*
X238206Y303899D02*
X238412D01*
X237955Y254399D02*
X238394D01*
X227898Y186899D02*
X238152D01*
X231100Y299399D02*
X237897D01*
X226998Y187799D02*
X237696D01*
X226098Y188699D02*
X237597D01*
X123000Y288599D02*
X237527D01*
X237306Y304799D02*
X237512D01*
X237300Y253499D02*
X237494D01*
X230103Y292199D02*
X237332D01*
X231100Y300299D02*
X236997D01*
X228397Y289499D02*
X236901D01*
X229930Y291299D02*
X236826D01*
X229523Y290399D02*
X236702D01*
X225198Y189599D02*
X236697D01*
X236406Y305699D02*
X236612D01*
X231100Y301199D02*
X236097D01*
X224298Y190499D02*
X235797D01*
X235506Y306599D02*
X235712D01*
X234800Y282299D02*
X235690D01*
X231100Y302099D02*
X235197D01*
X223398Y191399D02*
X234897D01*
X232200Y257999D02*
X234881D01*
X207883Y286799D02*
X234737D01*
X231100Y302999D02*
X234297D01*
X231903Y239999D02*
X234203D01*
X222498Y192299D02*
X233997D01*
X232200Y253499D02*
X233900D01*
X232200Y252599D02*
X233900D01*
X233303Y244499D02*
X233665D01*
X232200Y257099D02*
X233550D01*
X230985Y303899D02*
X233397D01*
X232200Y251699D02*
X233290D01*
X232200Y254399D02*
X233245D01*
X221598Y193199D02*
X233201D01*
X232200Y256199D02*
X233096D01*
X232200Y255299D02*
X233008D01*
X211700Y211199D02*
X233000D01*
X211700Y210299D02*
X233000D01*
X211700Y209399D02*
X233000D01*
X211700Y208499D02*
X233000D01*
X211700Y207599D02*
X233000D01*
X211700Y206699D02*
X233000D01*
X211700Y205799D02*
X233000D01*
X211700Y204899D02*
X233000D01*
X211700Y203999D02*
X233000D01*
X211700Y203099D02*
X233000D01*
X211700Y202199D02*
X233000D01*
X211700Y201299D02*
X233000D01*
X211700Y200399D02*
X233000D01*
X211700Y199499D02*
X233000D01*
X211700Y198599D02*
X233000D01*
X211700Y197699D02*
X233000D01*
X217998Y196799D02*
X233000D01*
X218898Y195899D02*
X233000D01*
X219798Y194999D02*
X233000D01*
X220698Y194099D02*
X233000D01*
X211700Y212099D02*
X232825D01*
X211700Y215699D02*
X232823D01*
X230291Y304799D02*
X232497D01*
X232200Y250799D02*
X232390D01*
X211700Y212999D02*
X232261D01*
X211700Y214799D02*
X232260D01*
X211700Y213899D02*
X232100D01*
X229391Y305699D02*
X231597D01*
X228491Y306599D02*
X230697D01*
X229203Y280499D02*
X230325D01*
X206733Y328199D02*
X228812D01*
X126398Y251699D02*
X228800D01*
X123000Y252599D02*
X228800D01*
X123000Y253499D02*
X228800D01*
X214138Y259799D02*
X228800D01*
X213238Y258899D02*
X228800D01*
X212698Y257999D02*
X228800D01*
X212573Y257099D02*
X228800D01*
X212066Y256199D02*
X228800D01*
X123000Y254399D02*
X228800D01*
X123000Y255299D02*
X228800D01*
X215038Y260699D02*
X228625D01*
X225403Y264299D02*
X228623D01*
X215938Y261599D02*
X228061D01*
X224503Y263399D02*
X228060D01*
X116587Y327299D02*
X227948D01*
X216838Y262499D02*
X227900D01*
X224677Y325499D02*
X227649D01*
X116741Y326399D02*
X227631D01*
X127839Y250799D02*
X227337D01*
X221803Y283199D02*
X227094D01*
X128457Y249899D02*
X226644D01*
X210368Y248099D02*
X226496D01*
X208483Y248999D02*
X226408D01*
X220584Y289499D02*
X226403D01*
X221163Y282299D02*
X226194D01*
X221856Y281399D02*
X225294D01*
X224231Y290399D02*
X225277D01*
X222092Y280499D02*
X224394D01*
X221683Y300299D02*
X224300D01*
X223568Y299399D02*
X224300D01*
X215406Y301199D02*
X224274D01*
X222004Y279599D02*
X223599D01*
X221548Y278699D02*
X223400D01*
X221252Y277799D02*
X223400D01*
X221569Y276899D02*
X223400D01*
X221551Y275999D02*
X223400D01*
X221190Y275099D02*
X223400D01*
X220210Y274199D02*
X223400D01*
X138732Y273299D02*
X223400D01*
X138344Y272399D02*
X223400D01*
X137334Y271499D02*
X223400D01*
X123000Y270599D02*
X223400D01*
X123000Y269699D02*
X223400D01*
X126936Y268799D02*
X223400D01*
X128034Y267899D02*
X223400D01*
X128552Y266999D02*
X223294D01*
X215598Y237299D02*
X222616D01*
X128767Y266099D02*
X222394D01*
X216403Y238199D02*
X221749D01*
X214631Y300299D02*
X221517D01*
X102500Y178799D02*
X221475D01*
X218182Y239999D02*
X221448D01*
X217303Y239099D02*
X221431D01*
X102500Y177899D02*
X221400D01*
X102500Y176999D02*
X221400D01*
X102500Y176099D02*
X221400D01*
X102500Y175199D02*
X221400D01*
X102500Y174299D02*
X221400D01*
X102500Y173399D02*
X221400D01*
X102500Y172499D02*
X221400D01*
X102500Y171599D02*
X221400D01*
X102500Y170699D02*
X221400D01*
X102500Y169799D02*
X221400D01*
X102500Y168899D02*
X221400D01*
X102500Y167999D02*
X221400D01*
X102500Y167099D02*
X221097D01*
X116705Y325499D02*
X220923D01*
X209206Y126599D02*
X220440D01*
X102500Y162599D02*
X220400D01*
X102500Y161699D02*
X220400D01*
X102500Y160799D02*
X220400D01*
X102500Y159899D02*
X220400D01*
X102500Y158999D02*
X220400D01*
X102500Y158099D02*
X220400D01*
X102500Y157199D02*
X220400D01*
X102500Y156299D02*
X220400D01*
X102500Y155399D02*
X220400D01*
X102500Y154499D02*
X220400D01*
X102500Y153599D02*
X220400D01*
X102500Y152699D02*
X220400D01*
X102500Y151799D02*
X220400D01*
X102500Y150899D02*
X220400D01*
X102500Y149999D02*
X220400D01*
X102500Y149099D02*
X220400D01*
X102500Y148199D02*
X220400D01*
X102500Y147299D02*
X220400D01*
X102500Y146399D02*
X220400D01*
X102500Y145499D02*
X220400D01*
X102500Y144599D02*
X220400D01*
X102500Y143699D02*
X220400D01*
X102500Y142799D02*
X220400D01*
X102500Y141899D02*
X220400D01*
X102500Y140999D02*
X220400D01*
X207888Y140099D02*
X220400D01*
X208752Y139199D02*
X220400D01*
X209069Y138299D02*
X220400D01*
X209051Y137399D02*
X220400D01*
X208690Y136499D02*
X220400D01*
X207710Y135599D02*
X220400D01*
X203110Y134699D02*
X220400D01*
X202210Y133799D02*
X220400D01*
X201310Y132899D02*
X220400D01*
X198064Y131999D02*
X220400D01*
X102500Y131099D02*
X220400D01*
X116474Y324599D02*
X220360D01*
X210874Y247199D02*
X220121D01*
X207903Y130199D02*
X220050D01*
X102500Y166199D02*
X219975D01*
X102500Y163499D02*
X219794D01*
X209483Y127499D02*
X219745D01*
X216700Y295799D02*
X219637D01*
X209025Y129299D02*
X219596D01*
X102500Y165299D02*
X219570D01*
X218529Y240899D02*
X219534D01*
X102500Y164399D02*
X219517D01*
X209430Y128399D02*
X219508D01*
X210998Y246299D02*
X219118D01*
X216697Y294899D02*
X218822D01*
X210799Y245399D02*
X218218D01*
X216374Y293999D02*
X217985D01*
X123000Y289499D02*
X217816D01*
X138783Y274199D02*
X217790D01*
X210173Y244499D02*
X217318D01*
X215503Y293099D02*
X217008D01*
X209097Y290399D02*
X216949D01*
X214603Y292199D02*
X216648D01*
X213598Y291299D02*
X216631D01*
X210100Y243599D02*
X216418D01*
X181210Y299399D02*
X216033D01*
X210100Y242699D02*
X215527D01*
X210100Y241799D02*
X215144D01*
X128737Y265199D02*
X214730D01*
X123000Y298499D02*
X214494D01*
X210100Y240899D02*
X214294D01*
X128455Y264299D02*
X213830D01*
X123000Y297599D02*
X213624D01*
X210100Y239999D02*
X213394D01*
X123000Y296699D02*
X213303D01*
X123000Y295799D02*
X213300D01*
X127837Y263399D02*
X212930D01*
X209635Y294899D02*
X212494D01*
X126389Y262499D02*
X212030D01*
X210473Y300299D02*
X211569D01*
X210100Y239099D02*
X211224D01*
X123000Y261599D02*
X211130D01*
X210992Y235499D02*
X211034D01*
X210100Y238199D02*
X210599D01*
X210100Y237299D02*
X210402D01*
X138519Y275099D02*
X210327D01*
X123000Y260699D02*
X210230D01*
X123000Y278699D02*
X210025D01*
X209573Y282299D02*
X210023D01*
X137820Y275999D02*
X209701D01*
X123000Y277799D02*
X209626D01*
X136920Y276899D02*
X209502D01*
X123000Y279599D02*
X209461D01*
X187148Y281399D02*
X209460D01*
X185810Y280499D02*
X209300D01*
X123000Y259799D02*
X208324D01*
X128738Y248999D02*
X208317D01*
X123000Y256199D02*
X208134D01*
X123000Y286799D02*
X207717D01*
X123000Y258899D02*
X207699D01*
X134001Y232799D02*
X207690D01*
X123000Y257099D02*
X207627D01*
X123000Y257999D02*
X207502D01*
X123000Y290399D02*
X207103D01*
X205273Y300299D02*
X206927D01*
X123000Y243599D02*
X206700D01*
X123000Y242699D02*
X206700D01*
X123000Y241799D02*
X206700D01*
X123000Y240899D02*
X206700D01*
X123485Y239999D02*
X206700D01*
X151103Y239099D02*
X206700D01*
X152225Y238199D02*
X206700D01*
X152630Y237299D02*
X206700D01*
X123000Y244499D02*
X206627D01*
X123000Y294899D02*
X206565D01*
X128767Y248099D02*
X206432D01*
X146403Y233699D02*
X206352D01*
X205899Y301199D02*
X206301D01*
X102500Y216599D02*
X206300D01*
X102500Y215699D02*
X206300D01*
X102500Y214799D02*
X206300D01*
X102500Y213899D02*
X206300D01*
X102500Y212999D02*
X206300D01*
X102500Y212099D02*
X206300D01*
X102500Y211199D02*
X206300D01*
X128440Y210299D02*
X206300D01*
X131814Y209399D02*
X206300D01*
X180973Y208499D02*
X206300D01*
X182476Y207599D02*
X206300D01*
X183361Y206699D02*
X206300D01*
X183951Y205799D02*
X206300D01*
X184339Y204899D02*
X206300D01*
X184566Y203999D02*
X206300D01*
X184649Y203099D02*
X206300D01*
X184596Y202199D02*
X206300D01*
X184402Y201299D02*
X206300D01*
X184051Y200399D02*
X206300D01*
X183511Y199499D02*
X206300D01*
X182704Y198599D02*
X206300D01*
X181402Y197699D02*
X206300D01*
X206098Y302099D02*
X206102D01*
X152683Y236399D02*
X206044D01*
X187604Y282299D02*
X206027D01*
X126931Y245399D02*
X206001D01*
X123000Y291299D02*
X205977D01*
X128551Y247199D02*
X205926D01*
X118041Y130199D02*
X205897D01*
X151631Y234599D02*
X205896D01*
X123000Y285899D02*
X205832D01*
X152406Y235499D02*
X205808D01*
X128032Y246299D02*
X205802D01*
X123000Y293999D02*
X205793D01*
X102500Y217499D02*
X205736D01*
X123000Y292199D02*
X205570D01*
X123000Y293099D02*
X205517D01*
X187692Y283199D02*
X205401D01*
X126216Y125699D02*
X205369D01*
X186763Y284999D02*
X205326D01*
X204010Y135599D02*
X205290D01*
X187456Y284099D02*
X205202D01*
X199624Y317399D02*
X205013D01*
X102500Y218399D02*
X204836D01*
X120983Y129299D02*
X204775D01*
X125282Y126599D02*
X204594D01*
X122793Y128399D02*
X204370D01*
X124167Y127499D02*
X204317D01*
X198724Y316499D02*
X204113D01*
X102500Y219299D02*
X203936D01*
X197824Y315599D02*
X203416D01*
X196924Y314699D02*
X203300D01*
X196024Y313799D02*
X203300D01*
X195124Y312899D02*
X203300D01*
X194224Y311999D02*
X203300D01*
X199819Y311099D02*
X203300D01*
X201150Y310199D02*
X203300D01*
X201604Y309299D02*
X203300D01*
X202206Y308399D02*
X203300D01*
X203106Y307499D02*
X203300D01*
X102500Y140099D02*
X203123D01*
X102500Y220199D02*
X203036D01*
X200519Y225599D02*
X202841D01*
X198514Y335399D02*
X202612D01*
X102500Y179699D02*
X202297D01*
X198859Y328199D02*
X202267D01*
X132151Y196799D02*
X202124D01*
X201460Y221099D02*
X202088D01*
X102500Y180599D02*
X201827D01*
X129992Y195899D02*
X201803D01*
X102500Y194999D02*
X201800D01*
X102500Y194099D02*
X201800D01*
X102500Y193199D02*
X201800D01*
X102500Y192299D02*
X201800D01*
X102500Y191399D02*
X201800D01*
X102500Y190499D02*
X201800D01*
X102500Y189599D02*
X201800D01*
X102500Y188699D02*
X201800D01*
X102500Y187799D02*
X201800D01*
X102500Y186899D02*
X201800D01*
X102500Y185999D02*
X201800D01*
X102500Y185099D02*
X201800D01*
X102500Y184199D02*
X201800D01*
X102500Y183299D02*
X201800D01*
X102500Y182399D02*
X201800D01*
X102500Y181499D02*
X201800D01*
X182524Y300299D02*
X201727D01*
X186124Y303899D02*
X201532D01*
X199694Y334499D02*
X201432D01*
X181019Y139199D02*
X201387D01*
X199863Y329099D02*
X201263D01*
X183424Y301199D02*
X201101D01*
X185224Y302999D02*
X201026D01*
X187024Y304799D02*
X200997D01*
X184324Y302099D02*
X200902D01*
X200319Y333599D02*
X200807D01*
X200414Y329999D02*
X200712D01*
X182350Y138299D02*
X200487D01*
X187924Y305699D02*
X200097D01*
X182804Y137399D02*
X199587D01*
X196419Y225599D02*
X199081D01*
X193324Y311099D02*
X198381D01*
X197360Y221099D02*
X198140D01*
X188824Y306599D02*
X197440D01*
X192424Y310199D02*
X197050D01*
X116012Y323699D02*
X196882D01*
X189724Y307499D02*
X196745D01*
X191524Y309299D02*
X196596D01*
X190624Y308399D02*
X196508D01*
X115206Y322799D02*
X195973D01*
X124935Y321899D02*
X195073D01*
X102500Y225599D02*
X194981D01*
X190640Y335399D02*
X194738D01*
X190985Y328199D02*
X194393D01*
X125707Y320999D02*
X194173D01*
X102500Y221099D02*
X194040D01*
X102500Y224699D02*
X193650D01*
X191820Y334499D02*
X193558D01*
X191989Y329099D02*
X193389D01*
X102500Y221999D02*
X193345D01*
X125983Y320099D02*
X193273D01*
X102500Y223799D02*
X193196D01*
X102500Y222899D02*
X193108D01*
X191864Y131999D02*
X192936D01*
X192445Y333599D02*
X192933D01*
X192540Y329999D02*
X192838D01*
X192150Y136499D02*
X192650D01*
X192385Y132899D02*
X192415D01*
X125930Y319199D02*
X192373D01*
X125523Y318299D02*
X191473D01*
X125100Y317399D02*
X190573D01*
X125100Y316499D02*
X189673D01*
X125100Y315599D02*
X188773D01*
X125100Y314699D02*
X187873D01*
X125100Y313799D02*
X186973D01*
X182766Y335399D02*
X186864D01*
X102500Y131999D02*
X186736D01*
X183111Y328199D02*
X186519D01*
X125100Y312899D02*
X186073D01*
X183946Y334499D02*
X185684D01*
X184115Y329099D02*
X185515D01*
X125100Y311999D02*
X185173D01*
X184571Y333599D02*
X185059D01*
X184666Y329999D02*
X184964D01*
X175510Y280499D02*
X184390D01*
X125100Y311099D02*
X184273D01*
X176463Y284999D02*
X183437D01*
X125100Y310199D02*
X183373D01*
X125100Y309299D02*
X182473D01*
X124899Y308399D02*
X181573D01*
X102500Y132899D02*
X181186D01*
X124103Y307499D02*
X180673D01*
X102500Y133799D02*
X180090D01*
X123203Y306599D02*
X179773D01*
X102500Y139199D02*
X179581D01*
X123000Y299399D02*
X178990D01*
X102500Y335399D02*
X178990D01*
X123000Y305699D02*
X178873D01*
X116222Y328199D02*
X178645D01*
X102500Y134699D02*
X178640D01*
X102500Y138299D02*
X178250D01*
X123000Y304799D02*
X177973D01*
X102500Y135599D02*
X177945D01*
X102500Y334499D02*
X177810D01*
X102500Y137399D02*
X177796D01*
X102500Y136499D02*
X177708D01*
X123000Y300299D02*
X177687D01*
X115572Y329099D02*
X177641D01*
X123000Y303899D02*
X177273D01*
X102500Y333599D02*
X177185D01*
X123000Y301199D02*
X177134D01*
X114373Y329999D02*
X177090D01*
X123000Y302999D02*
X176956D01*
X123000Y302099D02*
X176914D01*
X102500Y332699D02*
X176847D01*
X102500Y330899D02*
X176803D01*
X102500Y331799D02*
X176726D01*
X159273Y208499D02*
X176427D01*
X159702Y197699D02*
X175998D01*
X160776Y207599D02*
X174924D01*
X161004Y198599D02*
X174696D01*
X123000Y280499D02*
X174090D01*
X161661Y206699D02*
X174039D01*
X161811Y199499D02*
X173889D01*
X162251Y205799D02*
X173449D01*
X162351Y200399D02*
X173349D01*
X123000Y284999D02*
X173137D01*
X162639Y204899D02*
X173061D01*
X162702Y201299D02*
X172998D01*
X162866Y203999D02*
X172834D01*
X162896Y202199D02*
X172804D01*
X123000Y281399D02*
X172752D01*
X162949Y203099D02*
X172751D01*
X123000Y284099D02*
X172444D01*
X123000Y282299D02*
X172296D01*
X123000Y283199D02*
X172208D01*
X133102Y208499D02*
X154727D01*
X133319Y197699D02*
X154298D01*
X133969Y207599D02*
X153224D01*
X134124Y198599D02*
X152996D01*
X134594Y206699D02*
X152339D01*
X134706Y199499D02*
X152189D01*
X135042Y205799D02*
X151749D01*
X135121Y200399D02*
X151649D01*
X135349Y204899D02*
X151361D01*
X135399Y201299D02*
X151298D01*
X135531Y203999D02*
X151134D01*
X135556Y202199D02*
X151104D01*
X135599Y203099D02*
X151051D01*
X124385Y239099D02*
X149097D01*
X124167Y397499D02*
X149000D01*
X125282Y396599D02*
X149000D01*
X126216Y395699D02*
X149000D01*
X127010Y394799D02*
X149000D01*
X127691Y393899D02*
X149000D01*
X128277Y392999D02*
X149000D01*
X128779Y392099D02*
X149000D01*
X129207Y391199D02*
X149000D01*
X129566Y390299D02*
X149000D01*
X129863Y389399D02*
X149000D01*
X130100Y388499D02*
X149000D01*
X130281Y387599D02*
X149000D01*
X130407Y386699D02*
X149000D01*
X130479Y385799D02*
X149000D01*
X130500Y384899D02*
X149000D01*
X130468Y383999D02*
X149000D01*
X130383Y383099D02*
X149000D01*
X130245Y382199D02*
X149000D01*
X130052Y381299D02*
X149000D01*
X129801Y380399D02*
X149000D01*
X129491Y379499D02*
X149000D01*
X129116Y378599D02*
X149000D01*
X128673Y377699D02*
X149000D01*
X128153Y376799D02*
X149000D01*
X127547Y375899D02*
X149000D01*
X126842Y374999D02*
X149000D01*
X126019Y374099D02*
X149000D01*
X125049Y373199D02*
X149000D01*
X123884Y372299D02*
X149000D01*
X122433Y371399D02*
X149000D01*
X120474Y370499D02*
X149000D01*
X116746Y369599D02*
X149000D01*
X102500Y368699D02*
X149000D01*
X102500Y367799D02*
X149000D01*
X102500Y366899D02*
X149000D01*
X102500Y365999D02*
X149000D01*
X102500Y365099D02*
X149000D01*
X102500Y364199D02*
X149000D01*
X102500Y363299D02*
X149000D01*
X102500Y362399D02*
X149000D01*
X102500Y361499D02*
X149000D01*
X102500Y360599D02*
X149000D01*
X102500Y359699D02*
X149000D01*
X102500Y358799D02*
X149000D01*
X102500Y357899D02*
X149000D01*
X102500Y356999D02*
X149000D01*
X102500Y356099D02*
X149000D01*
X102500Y355199D02*
X149000D01*
X102500Y354299D02*
X149000D01*
X102500Y353399D02*
X149000D01*
X102500Y352499D02*
X149000D01*
X102500Y351599D02*
X149000D01*
X102500Y350699D02*
X149000D01*
X102500Y349799D02*
X149000D01*
X147303Y234599D02*
X148569D01*
X125285Y238199D02*
X146197D01*
X126185Y237299D02*
X145194D01*
X123000Y271499D02*
X134866D01*
X123000Y272399D02*
X133783D01*
X123000Y276899D02*
X133080D01*
X123000Y273299D02*
X132903D01*
X123000Y275999D02*
X132491D01*
X123000Y274199D02*
X132422D01*
X123000Y275099D02*
X132302D01*
X126069Y230099D02*
X129634D01*
X127085Y236399D02*
X129397D01*
X102500Y210299D02*
X128160D01*
X102500Y195899D02*
X126608D01*
X102500Y209399D02*
X124786D01*
X102500Y196799D02*
X124449D01*
X123000Y262499D02*
X124338D01*
X123000Y251699D02*
X124330D01*
X123000Y245399D02*
X123797D01*
X123000Y268799D02*
X123791D01*
X102500Y208499D02*
X123498D01*
X102500Y197699D02*
X123281D01*
X102500Y207599D02*
X122631D01*
X102500Y198599D02*
X122476D01*
X105547Y227399D02*
X122290D01*
X102500Y206699D02*
X122006D01*
X102500Y199499D02*
X121894D01*
X114765Y321899D02*
X121865D01*
X116666Y317399D02*
X121700D01*
X116382Y316499D02*
X121700D01*
X115850Y315599D02*
X121700D01*
X114914Y314699D02*
X121700D01*
X115082Y313799D02*
X121700D01*
X115942Y312899D02*
X121700D01*
X116435Y311999D02*
X121700D01*
X116689Y311099D02*
X121700D01*
X116746Y310199D02*
X121700D01*
X107200Y231899D02*
X121578D01*
X102500Y205799D02*
X121558D01*
X102500Y200399D02*
X121479D01*
X106574Y228299D02*
X121310D01*
X116749Y318299D02*
X121277D01*
X102500Y204899D02*
X121251D01*
X107200Y230999D02*
X121248D01*
X102500Y201299D02*
X121201D01*
X116615Y309299D02*
X121094D01*
X115769Y320999D02*
X121093D01*
X102500Y203999D02*
X121069D01*
X102500Y202199D02*
X121044D01*
X102500Y203099D02*
X121001D01*
X107039Y229199D02*
X120949D01*
X107198Y230099D02*
X120931D01*
X116644Y319199D02*
X120870D01*
X116336Y320099D02*
X120817D01*
X107200Y232799D02*
X120678D01*
X116780Y308399D02*
X120194D01*
X107200Y233699D02*
X119778D01*
X117680Y307499D02*
X119647D01*
X118580Y306599D02*
X119600D01*
X119480Y305699D02*
X119600D01*
X107200Y234599D02*
X118878D01*
X107200Y235499D02*
X117978D01*
X107200Y236399D02*
X117078D01*
X107200Y237299D02*
X116247D01*
X108205Y289499D02*
X116000D01*
X108394Y288599D02*
X116000D01*
X108322Y287699D02*
X116000D01*
X107971Y286799D02*
X116000D01*
X107224Y285899D02*
X116000D01*
X107200Y284999D02*
X116000D01*
X107200Y284099D02*
X116000D01*
X107200Y283199D02*
X116000D01*
X107200Y282299D02*
X116000D01*
X107200Y281399D02*
X116000D01*
X107200Y280499D02*
X116000D01*
X107200Y279599D02*
X116000D01*
X107200Y278699D02*
X116000D01*
X107200Y277799D02*
X116000D01*
X107200Y276899D02*
X116000D01*
X107200Y275999D02*
X116000D01*
X107200Y275099D02*
X116000D01*
X107200Y274199D02*
X116000D01*
X107200Y273299D02*
X116000D01*
X107200Y272399D02*
X116000D01*
X107200Y271499D02*
X116000D01*
X107200Y270599D02*
X116000D01*
X107200Y269699D02*
X116000D01*
X107200Y268799D02*
X116000D01*
X107200Y267899D02*
X116000D01*
X107200Y266999D02*
X116000D01*
X107200Y266099D02*
X116000D01*
X107200Y265199D02*
X116000D01*
X107200Y264299D02*
X116000D01*
X107200Y263399D02*
X116000D01*
X107200Y262499D02*
X116000D01*
X107200Y261599D02*
X116000D01*
X107200Y260699D02*
X116000D01*
X107200Y259799D02*
X116000D01*
X107200Y258899D02*
X116000D01*
X107200Y257999D02*
X116000D01*
X107200Y257099D02*
X116000D01*
X107200Y256199D02*
X116000D01*
X107200Y255299D02*
X116000D01*
X107200Y254399D02*
X116000D01*
X107200Y253499D02*
X116000D01*
X107200Y252599D02*
X116000D01*
X107200Y251699D02*
X116000D01*
X107200Y250799D02*
X116000D01*
X107200Y249899D02*
X116000D01*
X107200Y248999D02*
X116000D01*
X107200Y248099D02*
X116000D01*
X107200Y247199D02*
X116000D01*
X107200Y246299D02*
X116000D01*
X107200Y245399D02*
X116000D01*
X107200Y244499D02*
X116000D01*
X107200Y243599D02*
X116000D01*
X107200Y242699D02*
X116000D01*
X107200Y241799D02*
X116000D01*
X107200Y240899D02*
X116000D01*
X107200Y239999D02*
X116000D01*
X107200Y239099D02*
X116000D01*
X107200Y238199D02*
X116000D01*
X107699Y290399D02*
X115342D01*
X106556Y291299D02*
X114442D01*
X102500Y292199D02*
X113542D01*
X102500Y369599D02*
X113254D01*
X102500Y293099D02*
X112642D01*
X102500Y130199D02*
X111959D01*
X102500Y293999D02*
X111742D01*
X102500Y294899D02*
X110925D01*
X102500Y297599D02*
X110700D01*
X102500Y296699D02*
X110700D01*
X102500Y295799D02*
X110700D01*
X102500Y298499D02*
X110694D01*
X102500Y329999D02*
X110427D01*
X102500Y306599D02*
X110240D01*
X102500Y321899D02*
X110035D01*
X102500Y314699D02*
X109886D01*
X102500Y313799D02*
X109718D01*
X102500Y322799D02*
X109594D01*
X102500Y370499D02*
X109526D01*
X102500Y305699D02*
X109453D01*
X102500Y299399D02*
X109350D01*
X102500Y329099D02*
X109228D01*
X102500Y307499D02*
X109136D01*
X102500Y320999D02*
X109031D01*
X102500Y129299D02*
X109017D01*
X102500Y315599D02*
X108950D01*
X102500Y312899D02*
X108858D01*
X102500Y323699D02*
X108788D01*
X102500Y304799D02*
X108707D01*
X102500Y300299D02*
X108649D01*
X102500Y328199D02*
X108578D01*
X102500Y308399D02*
X108525D01*
X102500Y320099D02*
X108464D01*
X102500Y316499D02*
X108418D01*
X102500Y311999D02*
X108365D01*
X102500Y324599D02*
X108326D01*
X102500Y303899D02*
X108281D01*
X102500Y301199D02*
X108250D01*
X102500Y327299D02*
X108213D01*
X102500Y309299D02*
X108185D01*
X102500Y319199D02*
X108156D01*
X102500Y317399D02*
X108134D01*
X102500Y311099D02*
X108111D01*
X102500Y325499D02*
X108095D01*
X102500Y302999D02*
X108079D01*
X102500Y302099D02*
X108069D01*
X102500Y326399D02*
X108059D01*
X102500Y310199D02*
X108054D01*
X102500Y318299D02*
X108051D01*
X102500Y371399D02*
X107567D01*
X102500Y128399D02*
X107207D01*
X102500Y372299D02*
X106116D01*
X102500Y127499D02*
X105833D01*
X102500Y373199D02*
X104951D01*
X102500Y126599D02*
X104718D01*
X102500Y374099D02*
X103981D01*
X102500Y291299D02*
X103844D01*
X102500Y125699D02*
X103784D01*
X102500Y374999D02*
X103158D01*
X102500Y124799D02*
X102990D01*
X102500Y290399D02*
X102673D01*
X234441Y173399D02*
X236500D01*
X234368Y172499D02*
X236500D01*
X233806Y171599D02*
X236500D01*
X232200Y170699D02*
X236500D01*
X232200Y169799D02*
X236500D01*
X232200Y168899D02*
X236500D01*
X232200Y167999D02*
X236500D01*
X232200Y167099D02*
X236377D01*
X232967Y166199D02*
X235558D01*
X234506Y165299D02*
X235500D01*
X235406Y164399D02*
X235500D01*
X262332Y136499D02*
X263068D01*
X266507Y133799D02*
X266893D01*
X278332Y136499D02*
X279068D01*
X250000Y172600D02*
X251200D01*
X252700Y169500D02*
Y170700D01*
X246800Y169360D02*
Y170560D01*
X243850Y171560D02*
X245050D01*
X246800Y173760D02*
Y172560D01*
X249750Y171560D02*
X248550D01*
G54D21*
X112400Y302500D03*
Y310374D03*
Y318248D03*
Y326122D03*
G54D22*
X195500Y134400D02*
X199700D01*
X203200Y137900*
X206500*
X189300Y134400D02*
Y134900D01*
X182100*
X180300Y136700*
G54D23*
X286700Y131800D03*
X282700Y138800D03*
X278700Y131800D03*
X274700Y138800D03*
X270700Y131800D03*
X266700Y138800D03*
X262700Y131800D03*
X258700Y138800D03*
X299700Y157800D03*
X290700D03*
X254700Y157878D03*
X245700Y157800D03*
G54D24*
X297700Y121800D03*
X247700D03*
X115000Y115000D03*
Y385000D03*
X385000Y115000D03*
Y385000D03*
G54D26*
X388000Y360370D03*
Y352496D03*
Y344622D03*
Y336748D03*
Y328874D03*
Y321000D03*
Y300370D03*
Y292496D03*
Y284622D03*
Y276748D03*
Y268874D03*
Y261000D03*
Y241370D03*
Y233496D03*
Y225622D03*
Y217748D03*
Y209874D03*
Y202000D03*
Y182370D03*
Y174496D03*
Y166622D03*
Y158748D03*
Y150874D03*
Y143000D03*
X358770Y111400D03*
X350896D03*
X343022D03*
X335148D03*
X327274D03*
X319400D03*
X336000Y314000D03*
Y306126D03*
X327000Y187000D03*
X319126D03*
X326000Y213000D03*
X318126D03*
X204500Y331700D03*
X196626D03*
X188752D03*
X180878D03*
G54D29*
X209000Y193000D02*
Y218053D01*
X203926Y223126*
X203900Y223100D02*
X203926Y223126D01*
X136100Y273900D02*
X135000Y275000D01*
G54D31*
X343022Y111400D02*
X343358D01*
Y121300*
X343400*
X350896Y111400D02*
Y118404D01*
X348400Y120900*
Y121300*
Y127500D02*
Y126400D01*
X343400*
Y127500*
X374000Y173000D02*
X372900D01*
Y168000D02*
X374000D01*
Y173000*
X379100D02*
Y173028D01*
X382400*
X383647Y174275*
X388000*
Y174496*
Y166622D02*
Y166738D01*
X383647*
X382400Y167985*
X379100*
Y168000*
X371800Y232000D02*
X372900D01*
Y227000D02*
X371800D01*
Y232000*
X379100D02*
Y232028D01*
X382400*
X383647Y233275*
X388000*
Y233496*
Y225622D02*
Y225738D01*
X383647*
X382400Y226985*
X379100*
Y227000*
X370800Y290000D02*
X371900D01*
X362900Y301400D02*
X371000D01*
X371900Y285000D02*
X370800D01*
Y290000*
X378100D02*
X378500D01*
X380996Y292496*
X388000*
Y284622D02*
Y284958D01*
X378100*
Y285000*
X371200Y351100D02*
X372300D01*
Y346100D02*
X371200D01*
Y351100*
X378500D02*
Y351800D01*
X388000*
Y352496*
Y344622D02*
Y345400D01*
X378500*
Y346100*
X357800Y363900D02*
X370700D01*
G54D36*
X104000Y230200D02*
Y287200D01*
X105200Y288400*
X180100Y302400D02*
X199000Y321300D01*
X219302*
X252300Y317700D02*
X222902D01*
X219302Y321300*
G54D41*
X134000Y117962D03*
X152400Y105600D03*
X174000Y117962D03*
Y107962D03*
X194000Y117962D03*
Y107962D03*
X214000D03*
X234000D03*
X254000D03*
X274000D03*
X264000Y117962D03*
X294000Y107962D03*
X284000Y117962D03*
X314000D03*
Y107962D03*
X104000Y127962D03*
X144000D03*
X180300Y136700D03*
X164000Y127962D03*
X206900Y127800D03*
X206500Y137900D03*
X214700Y142700D03*
X222100Y128600D03*
X234000Y127962D03*
X294000Y137962D03*
X314000D03*
Y127962D03*
X304000Y137962D03*
X334000D03*
X324000D03*
Y127962D03*
X349900Y138700D03*
X344000Y137962D03*
X164000Y157962D03*
X226400Y146300D03*
X238300Y153600D03*
X254000Y147962D03*
X244000D03*
X274000D03*
X264000D03*
X294000D03*
X314000D03*
X304000D03*
X324000D03*
X356000Y154000D03*
X104000Y177962D03*
X154000Y167962D03*
X144000D03*
X164000Y177962D03*
Y167962D03*
X209000Y183000D03*
X215000D03*
X222100Y164700D03*
X234000Y167962D03*
X264000D03*
X294000Y177962D03*
X284000Y167962D03*
X314000D03*
X304000D03*
X324000D03*
X354000Y177962D03*
Y167962D03*
X114000Y187962D03*
X104000Y197962D03*
X174000Y187962D03*
X215000Y188000D03*
X209000D03*
X215000Y193000D03*
X209000D03*
X240200Y188500D03*
X258509Y195500D03*
Y185500D03*
X258500Y190700D03*
X279100Y186400D03*
X295500Y200800D03*
X360700Y184500D03*
X354000Y197962D03*
X370000Y193000D03*
X114000Y207962D03*
X104000Y217962D03*
X124000D03*
X144000D03*
X164000D03*
X191800Y217200D03*
X184000Y217962D03*
X220500Y214000D03*
X204000Y207962D03*
X234700Y213900D03*
X240000Y220000D03*
X252000Y221600D03*
X258000Y217000D03*
X267300Y207100D03*
Y215400D03*
X276100Y213600D03*
X274000Y217962D03*
X299300Y212700D03*
X295600Y216400D03*
X339400Y214500D03*
X334000Y217962D03*
X354000D03*
X344000Y207962D03*
X364000D03*
X114000Y227962D03*
X104000Y230200D03*
X131600Y231800D03*
X123500Y229700D03*
X134600Y227400D03*
X150100Y236700D03*
X154000Y227962D03*
X144000Y237962D03*
X174000Y227962D03*
X194000D03*
X199800Y223100D03*
X195700D03*
X208400Y235300D03*
X213000Y237200D03*
X221500Y242600D03*
X203900Y223100D03*
X235200Y242400D03*
X224000Y239500D03*
X250700Y241800D03*
X253300Y230400D03*
X249300Y230100D03*
X261300Y227700D03*
X258600Y241700D03*
X257200Y225800D03*
X255100Y241900D03*
X271500Y240800D03*
X264800Y240500D03*
X283000Y241000D03*
X314000Y237962D03*
X334000D03*
X324000Y227962D03*
X359800Y232500D03*
X354000Y227962D03*
X344000Y237962D03*
X368500Y241400D03*
X114000Y247962D03*
X124000Y257962D03*
X157500Y258700D03*
Y248900D03*
X145100Y247900D03*
X154000Y247962D03*
X174000D03*
X164000D03*
X194000D03*
X184000D03*
X210100Y257900D03*
X208400Y246400D03*
X213700Y258000D03*
X204000Y257962D03*
Y247962D03*
X235600Y255500D03*
X230500Y262500D03*
X229000Y248800D03*
X255200Y255700D03*
X246600Y261000D03*
X258700Y255900D03*
X294000Y247962D03*
X284000D03*
X314000Y257962D03*
Y247962D03*
X304000D03*
X324000D03*
X354000D03*
X364000Y257962D03*
Y247962D03*
X114000Y267962D03*
X134000D03*
X124000Y278600D03*
X144000Y277962D03*
X174800Y283000D03*
X174000Y265962D03*
X185100Y283000D03*
X184000Y265962D03*
X200000Y273000D03*
X191000Y270000D03*
X212100Y277000D03*
X219000Y276500D03*
X219500Y280300D03*
X211900Y280500D03*
X208000Y273000D03*
X232200Y282300D03*
X262000Y279200D03*
X243100Y263600D03*
X262000Y268000D03*
X251000Y268600D03*
X248400Y265500D03*
X276300Y270300D03*
X288300Y279300D03*
X293300Y268600D03*
X306900Y280000D03*
X306800Y270200D03*
X315000Y277500D03*
X314400Y273200D03*
X314000Y267962D03*
X304000D03*
X323800Y277500D03*
X324600Y272800D03*
X340400Y275000D03*
X334000Y267962D03*
X354000Y277962D03*
X344000Y267962D03*
X364000D03*
X114000Y287962D03*
X104000Y297962D03*
X105200Y288400D03*
X134000Y287962D03*
X124000Y297962D03*
X151800Y288000D03*
X144000Y297962D03*
X174000Y287962D03*
X164000Y297962D03*
X180100Y302400D03*
X194000Y297962D03*
X208100Y292800D03*
X208700Y302200D03*
X213100Y302400D03*
X219200Y291700D03*
X221600Y297700D03*
X203500Y302200D03*
X207800Y284200D03*
X204000Y287962D03*
X222700Y292500D03*
X227400Y291900D03*
X236400Y284800D03*
X239300Y290500D03*
X223400Y300800D03*
X256700Y287200D03*
X253600Y289200D03*
X279200Y296800D03*
X265800Y284500D03*
X270000Y294000D03*
X274000Y297962D03*
X293100Y286500D03*
X294000Y297962D03*
X284000D03*
X309000Y294000D03*
X304000Y297962D03*
X328000Y292000D03*
X334000Y287962D03*
X324000Y297962D03*
X359900Y291800D03*
X354000Y287962D03*
X344000Y297962D03*
X362900Y301400D03*
X104000Y317962D03*
Y307962D03*
X123400Y319800D03*
X145500Y321900D03*
X174000Y317962D03*
X199100Y308600D03*
X219500Y312700D03*
X209300Y313200D03*
X212200Y311100D03*
X215700Y313800D03*
X219500Y309100D03*
X223000Y312700D03*
X235300Y309500D03*
X236500Y313200D03*
X240000Y313100D03*
X248600Y322700D03*
X248400Y313600D03*
X242700Y310500D03*
X252300Y317700D03*
X314000Y307962D03*
X324000Y317962D03*
X354000Y307962D03*
X344000Y317962D03*
X364000D03*
Y307962D03*
X117800Y340000D03*
X104000Y327962D03*
X134000Y337962D03*
X124000D03*
X144000Y327962D03*
X174000Y337962D03*
X194000D03*
X214000D03*
X230200Y326000D03*
X222800Y323700D03*
X224000Y327962D03*
X251900Y325200D03*
X274000Y327962D03*
X284000D03*
X340400Y332300D03*
X334000Y327962D03*
X354000Y337962D03*
Y327962D03*
X344000D03*
X364000D03*
X114000Y357962D03*
X104000D03*
X134000D03*
Y347962D03*
X124000Y357962D03*
Y347962D03*
X144000Y357962D03*
X360000Y350500D03*
X354000Y347962D03*
X364000Y357962D03*
X114000Y367962D03*
X104000D03*
X134000Y377962D03*
Y367962D03*
X124000D03*
X144000Y377962D03*
Y367962D03*
X357800Y363900D03*
X354000Y367962D03*
X364000Y377962D03*
X134000Y387962D03*
X144000D03*
X354000D03*
G54D42*
X180878Y335853D02*
Y334653D01*
X176725Y331700D02*
X177925D01*
X180878Y327547D02*
Y328747D01*
X318126Y217153D02*
Y215953D01*
X313973Y213000D02*
X315173D01*
X318126Y208847D02*
Y210047D01*
X319126Y191153D02*
Y189953D01*
X314973Y187000D02*
X316173D01*
X319126Y182847D02*
Y184047D01*
X331847Y306126D02*
X333047D01*
X336000Y301973D02*
Y303173D01*
X340153Y306126D02*
X338953D01*
X319400Y115553D02*
Y114353D01*
X315247Y111400D02*
X316447D01*
X319400Y107247D02*
Y108447D01*
X250400Y157878D02*
X251600D01*
X262700Y136100D02*
Y134900D01*
X258400Y131800D02*
X259600D01*
X262700Y127500D02*
Y128700D01*
X266700Y134500D02*
Y135700D01*
X278700Y136100D02*
Y134900D01*
Y127500D02*
Y128700D01*
X112400Y330472D02*
Y329272D01*
X108050Y326122D02*
X109250D01*
X116750D02*
X115550D01*
X178700Y197050D02*
Y198250D01*
X184650Y203000D02*
X183450D01*
X178700Y208950D02*
Y207750D01*
X172750Y203000D02*
X173950D01*
X388000Y364523D02*
Y363323D01*
X383847Y360370D02*
X385047D01*
X392153D02*
X390953D01*
X362923Y111400D02*
X361723D01*
X358770Y115553D02*
Y114353D01*
Y107247D02*
Y108447D01*
X388000Y186523D02*
Y185323D01*
X383847Y182370D02*
X385047D01*
X392153D02*
X390953D01*
X388000Y245523D02*
Y244323D01*
X383847Y241370D02*
X385047D01*
X392153D02*
X390953D01*
X388000Y304523D02*
Y303323D01*
X383847Y300370D02*
X385047D01*
X392153D02*
X390953D01*
G54D43*
X224855Y175265D03*
X229973D03*
X232532Y157548D03*
X229973D03*
X227414D03*
X224855D03*
G54D44*
X227414Y175265D03*
G54D45*
X232532D03*
G74*
X0Y0D02*
M02*
