*
*
G04 PADS 9.3.1 Build Number: 456998 generated Gerber (RS-274-X) file*
G04 PC Version=2.1*
*
%IN "accumulatron_rev1.pcb"*%
*
%MOIN*%
*
%FSLAX35Y35*%
*
*
*
*
G04 PC Standard Apertures*
*
*
G04 Thermal Relief Aperture macro.*
%AMTER*
1,1,$1,0,0*
1,0,$1-$2,0,0*
21,0,$3,$4,0,0,45*
21,0,$3,$4,0,0,135*
%
*
*
G04 Annular Aperture macro.*
%AMANN*
1,1,$1,0,0*
1,0,$2,0,0*
%
*
*
G04 Odd Aperture macro.*
%AMODD*
1,1,$1,0,0*
1,0,$1-0.005,0,0*
%
*
*
G04 PC Custom Aperture Macros*
*
*
*
*
*
*
G04 PC Aperture Table*
*
%ADD010C,0.001*%
%ADD020C,0.01*%
%ADD031C,0.016*%
%ADD032C,0.012*%
%ADD037C,0.018*%
%ADD039C,0.014*%
%ADD041C,0.028*%
%ADD046C,0.01587*%
%ADD047R,0.06981X0.08202*%
%ADD048C,0.103*%
%ADD049C,0.07099*%
%ADD050C,0.07*%
%ADD051C,0.158*%
%ADD052C,0.06706*%
%ADD053C,0.01981*%
%ADD054C,0.01666*%
%ADD055O,0.07296X0.02178*%
%ADD056C,0.01902*%
%ADD057C,0.03162*%
%ADD058O,0.0769X0.0332*%
%ADD059O,0.0332X0.0769*%
%ADD060C,0.038*%
%ADD061C,0.02257*%
%ADD062C,0.01627*%
*
*
*
*
G04 PC Circuitry*
G04 Layer Name accumulatron_rev1.pcb - circuitry*
%LPD*%
*
*
G04 PC Custom Flashes*
G04 Layer Name accumulatron_rev1.pcb - flashes*
%LPD*%
*
*
G04 PC Circuitry*
G04 Layer Name accumulatron_rev1.pcb - circuitry*
%LPD*%
*
G54D10*
G54D20*
G01X301183Y337498D02*
X298628D01*
Y328800*
X301183*
Y337498*
X299000Y328800D02*
Y337498D01*
X299500Y328800D02*
Y337498D01*
X300000Y328800D02*
Y337498D01*
X300500Y328800D02*
Y337498D01*
X301000Y328800D02*
Y337498D01*
X303743Y344013D02*
X303014Y344742D01*
X296797*
X296069Y344013*
Y334844*
X296797Y334115*
X303014*
X303743Y334844*
Y344013*
X296500Y334412D02*
Y344444D01*
X297000Y334115D02*
Y344742D01*
X297500Y334115D02*
Y344742D01*
X298000Y334115D02*
Y344742D01*
X298500Y334115D02*
Y344742D01*
X299000Y334115D02*
Y344742D01*
X299500Y334115D02*
Y344742D01*
X300000Y334115D02*
Y344742D01*
X300500Y334115D02*
Y344742D01*
X301000Y334115D02*
Y344742D01*
X301500Y334115D02*
Y344742D01*
X302000Y334115D02*
Y344742D01*
X302500Y334115D02*
Y344742D01*
X303000Y334115D02*
Y344742D01*
X303500Y334601D02*
Y344255D01*
G54D31*
X170050Y148000D02*
X175250D01*
Y138800*
X170050*
Y148000*
Y140000D02*
X175250D01*
X170050Y141600D02*
X175250D01*
X170050Y143200D02*
X175250D01*
X170050Y144800D02*
X175250D01*
X170050Y146400D02*
X175250D01*
X170050Y148000D02*
X175250D01*
X170400Y138800D02*
Y148000D01*
X172000Y138800D02*
Y148000D01*
X173600Y138800D02*
Y148000D01*
X175200Y138800D02*
Y148000D01*
X183550D02*
X188750D01*
Y138800*
X183550*
Y148000*
Y140000D02*
X188750D01*
X183550Y141600D02*
X188750D01*
X183550Y143200D02*
X188750D01*
X183550Y144800D02*
X188750D01*
X183550Y146400D02*
X188750D01*
X183550Y148000D02*
X188750D01*
X184800Y138800D02*
Y148000D01*
X186400Y138800D02*
Y148000D01*
X188000Y138800D02*
Y148000D01*
X198000Y170750D02*
Y165550D01*
X188800*
Y170750*
X198000*
X188800Y165600D02*
X198000D01*
X188800Y167200D02*
X198000D01*
X188800Y168800D02*
X198000D01*
X188800Y170400D02*
X198000D01*
X189600Y165550D02*
Y170750D01*
X191200Y165550D02*
Y170750D01*
X192800Y165550D02*
Y170750D01*
X194400Y165550D02*
Y170750D01*
X196000Y165550D02*
Y170750D01*
X197600Y165550D02*
Y170750D01*
X198000Y157250D02*
Y152050D01*
X188800*
Y157250*
X198000*
X188800Y152800D02*
X198000D01*
X188800Y154400D02*
X198000D01*
X188800Y156000D02*
X198000D01*
X189600Y152050D02*
Y157250D01*
X191200Y152050D02*
Y157250D01*
X192800Y152050D02*
Y157250D01*
X194400Y152050D02*
Y157250D01*
X196000Y152050D02*
Y157250D01*
X197600Y152050D02*
Y157250D01*
X186000Y170750D02*
Y165550D01*
X176800*
Y170750*
X186000*
X176800Y165600D02*
X186000D01*
X176800Y167200D02*
X186000D01*
X176800Y168800D02*
X186000D01*
X176800Y170400D02*
X186000D01*
X176800Y165550D02*
Y170750D01*
X178400Y165550D02*
Y170750D01*
X180000Y165550D02*
Y170750D01*
X181600Y165550D02*
Y170750D01*
X183200Y165550D02*
Y170750D01*
X184800Y165550D02*
Y170750D01*
X186000Y157250D02*
Y152050D01*
X176800*
Y157250*
X186000*
X176800Y152800D02*
X186000D01*
X176800Y154400D02*
X186000D01*
X176800Y156000D02*
X186000D01*
X176800Y152050D02*
Y157250D01*
X178400Y152050D02*
Y157250D01*
X180000Y152050D02*
Y157250D01*
X181600Y152050D02*
Y157250D01*
X183200Y152050D02*
Y157250D01*
X184800Y152050D02*
Y157250D01*
X257722Y305500D02*
Y304300D01*
X256022*
Y305500*
X257722*
X256022Y304800D02*
X257722D01*
X256800Y304300D02*
Y305500D01*
X262978D02*
Y304300D01*
X261278*
Y305500*
X262978*
X261278Y304800D02*
X262978D01*
X261600Y304300D02*
Y305500D01*
X223578Y252200D02*
Y253400D01*
X225278*
Y252200*
X223578*
X224800D02*
Y253400D01*
X218322Y252200D02*
Y253400D01*
X220022*
Y252200*
X218322*
X218400D02*
Y253400D01*
X220000Y252200D02*
Y253400D01*
X266478Y243000D02*
Y244200D01*
X268178*
Y243000*
X266478*
Y244000D02*
X268178D01*
X268000Y243000D02*
Y244200D01*
X261222Y243000D02*
Y244200D01*
X262922*
Y243000*
X261222*
Y244000D02*
X262922D01*
X261600Y243000D02*
Y244200D01*
X225800Y297222D02*
X227000D01*
Y295522*
X225800*
Y297222*
Y296800D02*
X227000D01*
X226400Y295522D02*
Y297222D01*
X225800Y302478D02*
X227000D01*
Y300778*
X225800*
Y302478*
Y301600D02*
X227000D01*
X226400Y300778D02*
Y302478D01*
X273400Y251178D02*
X272200D01*
Y252878*
X273400*
Y251178*
X272200Y252000D02*
X273400D01*
X272800Y251178D02*
Y252878D01*
X273400Y245922D02*
X272200D01*
Y247622*
X273400*
Y245922*
X272200Y247200D02*
X273400D01*
X272800Y245922D02*
Y247622D01*
X280900Y284078D02*
X279700D01*
Y285778*
X280900*
Y284078*
X279700Y285600D02*
X280900D01*
X280800Y284078D02*
Y285778D01*
X280900Y278822D02*
X279700D01*
Y280522*
X280900*
Y278822*
X279700Y279200D02*
X280900D01*
X280800Y278822D02*
Y280522D01*
X299900Y257822D02*
X301100D01*
Y256122*
X299900*
Y257822*
Y256800D02*
X301100D01*
X300000Y256122D02*
Y257822D01*
X299900Y263078D02*
X301100D01*
Y261378*
X299900*
Y263078*
Y261600D02*
X301100D01*
X300000Y261378D02*
Y263078D01*
G54D32*
X277300Y345700D02*
X274700D01*
Y349100*
X277300*
Y345700*
X274700Y346000D02*
X277300D01*
X274700Y347200D02*
X277300D01*
X274700Y348400D02*
X277300D01*
X275200Y345700D02*
Y349100D01*
X276400Y345700D02*
Y349100D01*
X277300Y339500D02*
X274700D01*
Y342900*
X277300*
Y339500*
X274700Y340000D02*
X277300D01*
X274700Y341200D02*
X277300D01*
X274700Y342400D02*
X277300D01*
X275200Y339500D02*
Y342900D01*
X276400Y339500D02*
Y342900D01*
X272200Y345700D02*
X269600D01*
Y349100*
X272200*
Y345700*
X269600Y346000D02*
X272200D01*
X269600Y347200D02*
X272200D01*
X269600Y348400D02*
X272200D01*
X270400Y345700D02*
Y349100D01*
X271600Y345700D02*
Y349100D01*
X272200Y339500D02*
X269600D01*
Y342900*
X272200*
Y339500*
X269600Y340000D02*
X272200D01*
X269600Y341200D02*
X272200D01*
X269600Y342400D02*
X272200D01*
X270400Y339500D02*
Y342900D01*
X271600Y339500D02*
Y342900D01*
X258500Y329200D02*
Y326600D01*
X255100*
Y329200*
X258500*
X255100Y326800D02*
X258500D01*
X255100Y328000D02*
X258500D01*
X255100Y329200D02*
X258500D01*
X256000Y326600D02*
Y329200D01*
X257200Y326600D02*
Y329200D01*
X258400Y326600D02*
Y329200D01*
X264700D02*
Y326600D01*
X261300*
Y329200*
X264700*
X261300Y326800D02*
X264700D01*
X261300Y328000D02*
X264700D01*
X261300Y329200D02*
X264700D01*
X262000Y326600D02*
Y329200D01*
X263200Y326600D02*
Y329200D01*
X264400Y326600D02*
Y329200D01*
X223300Y344500D02*
X220700D01*
Y347900*
X223300*
Y344500*
X220700Y344800D02*
X223300D01*
X220700Y346000D02*
X223300D01*
X220700Y347200D02*
X223300D01*
X221200Y344500D02*
Y347900D01*
X222400Y344500D02*
Y347900D01*
X223300Y338300D02*
X220700D01*
Y341700*
X223300*
Y338300*
X220700Y338800D02*
X223300D01*
X220700Y340000D02*
X223300D01*
X220700Y341200D02*
X223300D01*
X221200Y338300D02*
Y341700D01*
X222400Y338300D02*
Y341700D01*
X282400Y345700D02*
X279800D01*
Y349100*
X282400*
Y345700*
X279800Y346000D02*
X282400D01*
X279800Y347200D02*
X282400D01*
X279800Y348400D02*
X282400D01*
X280000Y345700D02*
Y349100D01*
X281200Y345700D02*
Y349100D01*
X282400Y345700D02*
Y349100D01*
Y339500D02*
X279800D01*
Y342900*
X282400*
Y339500*
X279800Y340000D02*
X282400D01*
X279800Y341200D02*
X282400D01*
X279800Y342400D02*
X282400D01*
X280000Y339500D02*
Y342900D01*
X281200Y339500D02*
Y342900D01*
X282400Y339500D02*
Y342900D01*
X221700Y246300D02*
Y248900D01*
X225100*
Y246300*
X221700*
Y246400D02*
X225100D01*
X221700Y247600D02*
X225100D01*
X221700Y248800D02*
X225100D01*
X222400Y246300D02*
Y248900D01*
X223600Y246300D02*
Y248900D01*
X224800Y246300D02*
Y248900D01*
X215500Y246300D02*
Y248900D01*
X218900*
Y246300*
X215500*
Y246400D02*
X218900D01*
X215500Y247600D02*
X218900D01*
X215500Y248800D02*
X218900D01*
X216400Y246300D02*
Y248900D01*
X217600Y246300D02*
Y248900D01*
X218800Y246300D02*
Y248900D01*
X286100Y283900D02*
X283500D01*
Y287300*
X286100*
Y283900*
X283500Y284800D02*
X286100D01*
X283500Y286000D02*
X286100D01*
X283500Y287200D02*
X286100D01*
X283600Y283900D02*
Y287300D01*
X284800Y283900D02*
Y287300D01*
X286000Y283900D02*
Y287300D01*
X286100Y277700D02*
X283500D01*
Y281100*
X286100*
Y277700*
X283500Y278800D02*
X286100D01*
X283500Y280000D02*
X286100D01*
X283600Y277700D02*
Y281100D01*
X284800Y277700D02*
Y281100D01*
X286000Y277700D02*
Y281100D01*
X157800Y119300D02*
Y116700D01*
X154400*
Y119300*
X157800*
X154400Y116800D02*
X157800D01*
X154400Y118000D02*
X157800D01*
X154400Y119200D02*
X157800D01*
X155200Y116700D02*
Y119300D01*
X156400Y116700D02*
Y119300D01*
X157600Y116700D02*
Y119300D01*
X151600D02*
Y116700D01*
X148200*
Y119300*
X151600*
X148200Y116800D02*
X151600D01*
X148200Y118000D02*
X151600D01*
X148200Y119200D02*
X151600D01*
X149200Y116700D02*
Y119300D01*
X150400Y116700D02*
Y119300D01*
X151600Y116700D02*
Y119300D01*
X340700Y259800D02*
X343300D01*
Y256400*
X340700*
Y259800*
Y257200D02*
X343300D01*
X340700Y258400D02*
X343300D01*
X340700Y259600D02*
X343300D01*
X341200Y256400D02*
Y259800D01*
X342400Y256400D02*
Y259800D01*
X340700Y253600D02*
X343300D01*
Y250200*
X340700*
Y253600*
Y251200D02*
X343300D01*
X340700Y252400D02*
X343300D01*
X340700Y253600D02*
X343300D01*
X341200Y250200D02*
Y253600D01*
X342400Y250200D02*
Y253600D01*
X332700Y259800D02*
X335300D01*
Y256400*
X332700*
Y259800*
Y257200D02*
X335300D01*
X332700Y258400D02*
X335300D01*
X332700Y259600D02*
X335300D01*
X332800Y256400D02*
Y259800D01*
X334000Y256400D02*
Y259800D01*
X335200Y256400D02*
Y259800D01*
X332700Y253600D02*
X335300D01*
Y250200*
X332700*
Y253600*
Y251200D02*
X335300D01*
X332700Y252400D02*
X335300D01*
X332700Y253600D02*
X335300D01*
X332800Y250200D02*
Y253600D01*
X334000Y250200D02*
Y253600D01*
X335200Y250200D02*
Y253600D01*
X210600Y115900D02*
Y118500D01*
X214000*
Y115900*
X210600*
Y116800D02*
X214000D01*
X210600Y118000D02*
X214000D01*
X211600Y115900D02*
Y118500D01*
X212800Y115900D02*
Y118500D01*
X214000Y115900D02*
Y118500D01*
X204400Y115900D02*
Y118500D01*
X207800*
Y115900*
X204400*
Y116800D02*
X207800D01*
X204400Y118000D02*
X207800D01*
X204400Y115900D02*
Y118500D01*
X205600Y115900D02*
Y118500D01*
X206800Y115900D02*
Y118500D01*
X202693Y121785D02*
Y124385D01*
X206093*
Y121785*
X202693*
Y122800D02*
X206093D01*
X202693Y124000D02*
X206093D01*
X203200Y121785D02*
Y124385D01*
X204400Y121785D02*
Y124385D01*
X205600Y121785D02*
Y124385D01*
X196493Y121785D02*
Y124385D01*
X199893*
Y121785*
X196493*
Y122800D02*
X199893D01*
X196493Y124000D02*
X199893D01*
X197200Y121785D02*
Y124385D01*
X198400Y121785D02*
Y124385D01*
X199600Y121785D02*
Y124385D01*
X174100Y163300D02*
X171500D01*
Y166700*
X174100*
Y163300*
X171500Y163600D02*
X174100D01*
X171500Y164800D02*
X174100D01*
X171500Y166000D02*
X174100D01*
X172000Y163300D02*
Y166700D01*
X173200Y163300D02*
Y166700D01*
X174100Y157100D02*
X171500D01*
Y160500*
X174100*
Y157100*
X171500Y157600D02*
X174100D01*
X171500Y158800D02*
X174100D01*
X171500Y160000D02*
X174100D01*
X172000Y157100D02*
Y160500D01*
X173200Y157100D02*
Y160500D01*
X181846Y119359D02*
Y116759D01*
X178446*
Y119359*
X181846*
X178446Y116800D02*
X181846D01*
X178446Y118000D02*
X181846D01*
X178446Y119200D02*
X181846D01*
X179200Y116759D02*
Y119359D01*
X180400Y116759D02*
Y119359D01*
X181600Y116759D02*
Y119359D01*
X188046D02*
Y116759D01*
X184646*
Y119359*
X188046*
X184646Y116800D02*
X188046D01*
X184646Y118000D02*
X188046D01*
X184646Y119200D02*
X188046D01*
X185200Y116759D02*
Y119359D01*
X186400Y116759D02*
Y119359D01*
X187600Y116759D02*
Y119359D01*
X181846Y124474D02*
Y121874D01*
X178446*
Y124474*
X181846*
X178446Y122800D02*
X181846D01*
X178446Y124000D02*
X181846D01*
X179200Y121874D02*
Y124474D01*
X180400Y121874D02*
Y124474D01*
X181600Y121874D02*
Y124474D01*
X188046D02*
Y121874D01*
X184646*
Y124474*
X188046*
X184646Y122800D02*
X188046D01*
X184646Y124000D02*
X188046D01*
X185200Y121874D02*
Y124474D01*
X186400Y121874D02*
Y124474D01*
X187600Y121874D02*
Y124474D01*
X213143Y123584D02*
Y120984D01*
X209743*
Y123584*
X213143*
X209743Y121600D02*
X213143D01*
X209743Y122800D02*
X213143D01*
X210400Y120984D02*
Y123584D01*
X211600Y120984D02*
Y123584D01*
X212800Y120984D02*
Y123584D01*
X219343D02*
Y120984D01*
X215943*
Y123584*
X219343*
X215943Y121600D02*
X219343D01*
X215943Y122800D02*
X219343D01*
X216400Y120984D02*
Y123584D01*
X217600Y120984D02*
Y123584D01*
X218800Y120984D02*
Y123584D01*
X210343Y129984D02*
X212943D01*
Y126584*
X210343*
Y129984*
Y127600D02*
X212943D01*
X210343Y128800D02*
X212943D01*
X210400Y126584D02*
Y129984D01*
X211600Y126584D02*
Y129984D01*
X212800Y126584D02*
Y129984D01*
X210343Y136184D02*
X212943D01*
Y132784*
X210343*
Y136184*
Y133600D02*
X212943D01*
X210343Y134800D02*
X212943D01*
X210343Y136000D02*
X212943D01*
X210400Y132784D02*
Y136184D01*
X211600Y132784D02*
Y136184D01*
X212800Y132784D02*
Y136184D01*
X215343Y129984D02*
X217943D01*
Y126584*
X215343*
Y129984*
Y127600D02*
X217943D01*
X215343Y128800D02*
X217943D01*
X216400Y126584D02*
Y129984D01*
X217600Y126584D02*
Y129984D01*
X215343Y136184D02*
X217943D01*
Y132784*
X215343*
Y136184*
Y133600D02*
X217943D01*
X215343Y134800D02*
X217943D01*
X215343Y136000D02*
X217943D01*
X216400Y132784D02*
Y136184D01*
X217600Y132784D02*
Y136184D01*
X175059Y131160D02*
X172459D01*
Y134560*
X175059*
Y131160*
X172459Y131200D02*
X175059D01*
X172459Y132400D02*
X175059D01*
X172459Y133600D02*
X175059D01*
X173200Y131160D02*
Y134560D01*
X174400Y131160D02*
Y134560D01*
X175059Y124960D02*
X172459D01*
Y128360*
X175059*
Y124960*
X172459Y125200D02*
X175059D01*
X172459Y126400D02*
X175059D01*
X172459Y127600D02*
X175059D01*
X173200Y124960D02*
Y128360D01*
X174400Y124960D02*
Y128360D01*
X273400Y211400D02*
Y208800D01*
X270000*
Y211400*
X273400*
X270000Y209200D02*
X273400D01*
X270000Y210400D02*
X273400D01*
X270400Y208800D02*
Y211400D01*
X271600Y208800D02*
Y211400D01*
X272800Y208800D02*
Y211400D01*
X279600D02*
Y208800D01*
X276200*
Y211400*
X279600*
X276200Y209200D02*
X279600D01*
X276200Y210400D02*
X279600D01*
X276400Y208800D02*
Y211400D01*
X277600Y208800D02*
Y211400D01*
X278800Y208800D02*
Y211400D01*
X151600Y113300D02*
Y110700D01*
X148200*
Y113300*
X151600*
X148200Y110800D02*
X151600D01*
X148200Y112000D02*
X151600D01*
X148200Y113200D02*
X151600D01*
X149200Y110700D02*
Y113300D01*
X150400Y110700D02*
Y113300D01*
X151600Y110700D02*
Y113300D01*
X157800D02*
Y110700D01*
X154400*
Y113300*
X157800*
X154400Y110800D02*
X157800D01*
X154400Y112000D02*
X157800D01*
X154400Y113200D02*
X157800D01*
X155200Y110700D02*
Y113300D01*
X156400Y110700D02*
Y113300D01*
X157600Y110700D02*
Y113300D01*
X287600Y339600D02*
X285000D01*
Y343000*
X287600*
Y339600*
X285000Y340000D02*
X287600D01*
X285000Y341200D02*
X287600D01*
X285000Y342400D02*
X287600D01*
X286000Y339600D02*
Y343000D01*
X287200Y339600D02*
Y343000D01*
X287600Y333400D02*
X285000D01*
Y336800*
X287600*
Y333400*
X285000Y334000D02*
X287600D01*
X285000Y335200D02*
X287600D01*
X285000Y336400D02*
X287600D01*
X286000Y333400D02*
Y336800D01*
X287200Y333400D02*
Y336800D01*
X301200Y321400D02*
Y324000D01*
X304600*
Y321400*
X301200*
Y322000D02*
X304600D01*
X301200Y323200D02*
X304600D01*
X301600Y321400D02*
Y324000D01*
X302800Y321400D02*
Y324000D01*
X304000Y321400D02*
Y324000D01*
X295000Y321400D02*
Y324000D01*
X298400*
Y321400*
X295000*
Y322000D02*
X298400D01*
X295000Y323200D02*
X298400D01*
X295600Y321400D02*
Y324000D01*
X296800Y321400D02*
Y324000D01*
X298000Y321400D02*
Y324000D01*
X280400Y319000D02*
Y316400D01*
X277000*
Y319000*
X280400*
X277000Y317200D02*
X280400D01*
X277000Y318400D02*
X280400D01*
X277600Y316400D02*
Y319000D01*
X278800Y316400D02*
Y319000D01*
X280000Y316400D02*
Y319000D01*
X286600D02*
Y316400D01*
X283200*
Y319000*
X286600*
X283200Y317200D02*
X286600D01*
X283200Y318400D02*
X286600D01*
X283600Y316400D02*
Y319000D01*
X284800Y316400D02*
Y319000D01*
X286000Y316400D02*
Y319000D01*
X293300D02*
Y316400D01*
X289900*
Y319000*
X293300*
X289900Y317200D02*
X293300D01*
X289900Y318400D02*
X293300D01*
X290800Y316400D02*
Y319000D01*
X292000Y316400D02*
Y319000D01*
X293200Y316400D02*
Y319000D01*
X299500D02*
Y316400D01*
X296100*
Y319000*
X299500*
X296100Y317200D02*
X299500D01*
X296100Y318400D02*
X299500D01*
X296800Y316400D02*
Y319000D01*
X298000Y316400D02*
Y319000D01*
X299200Y316400D02*
Y319000D01*
X158400Y313400D02*
X155800D01*
Y316800*
X158400*
Y313400*
X155800Y313600D02*
X158400D01*
X155800Y314800D02*
X158400D01*
X155800Y316000D02*
X158400D01*
X156400Y313400D02*
Y316800D01*
X157600Y313400D02*
Y316800D01*
X158400Y307200D02*
X155800D01*
Y310600*
X158400*
Y307200*
X155800Y307600D02*
X158400D01*
X155800Y308800D02*
X158400D01*
X155800Y310000D02*
X158400D01*
X156400Y307200D02*
Y310600D01*
X157600Y307200D02*
Y310600D01*
X123000Y311600D02*
X120400D01*
Y315000*
X123000*
Y311600*
X120400Y312400D02*
X123000D01*
X120400Y313600D02*
X123000D01*
X120400Y314800D02*
X123000D01*
X120400Y311600D02*
Y315000D01*
X121600Y311600D02*
Y315000D01*
X122800Y311600D02*
Y315000D01*
X123000Y305400D02*
X120400D01*
Y308800*
X123000*
Y305400*
X120400Y306400D02*
X123000D01*
X120400Y307600D02*
X123000D01*
X120400Y308800D02*
X123000D01*
X120400Y305400D02*
Y308800D01*
X121600Y305400D02*
Y308800D01*
X122800Y305400D02*
Y308800D01*
X159600Y284300D02*
Y281700D01*
X156200*
Y284300*
X159600*
X156200Y282400D02*
X159600D01*
X156200Y283600D02*
X159600D01*
X156400Y281700D02*
Y284300D01*
X157600Y281700D02*
Y284300D01*
X158800Y281700D02*
Y284300D01*
X165800D02*
Y281700D01*
X162400*
Y284300*
X165800*
X162400Y282400D02*
X165800D01*
X162400Y283600D02*
X165800D01*
X162400Y281700D02*
Y284300D01*
X163600Y281700D02*
Y284300D01*
X164800Y281700D02*
Y284300D01*
X162400Y286700D02*
Y289300D01*
X165800*
Y286700*
X162400*
Y287200D02*
X165800D01*
X162400Y288400D02*
X165800D01*
X162400Y286700D02*
Y289300D01*
X163600Y286700D02*
Y289300D01*
X164800Y286700D02*
Y289300D01*
X156200Y286700D02*
Y289300D01*
X159600*
Y286700*
X156200*
Y287200D02*
X159600D01*
X156200Y288400D02*
X159600D01*
X156400Y286700D02*
Y289300D01*
X157600Y286700D02*
Y289300D01*
X158800Y286700D02*
Y289300D01*
X190400Y205300D02*
X193000D01*
Y201900*
X190400*
Y205300*
Y202000D02*
X193000D01*
X190400Y203200D02*
X193000D01*
X190400Y204400D02*
X193000D01*
X191200Y201900D02*
Y205300D01*
X192400Y201900D02*
Y205300D01*
X190400Y211500D02*
X193000D01*
Y208100*
X190400*
Y211500*
Y209200D02*
X193000D01*
X190400Y210400D02*
X193000D01*
X191200Y208100D02*
Y211500D01*
X192400Y208100D02*
Y211500D01*
X195500Y212700D02*
X198100D01*
Y209300*
X195500*
Y212700*
Y210400D02*
X198100D01*
X195500Y211600D02*
X198100D01*
X196000Y209300D02*
Y212700D01*
X197200Y209300D02*
Y212700D01*
X195500Y218900D02*
X198100D01*
Y215500*
X195500*
Y218900*
Y216400D02*
X198100D01*
X195500Y217600D02*
X198100D01*
X195500Y218800D02*
X198100D01*
X196000Y215500D02*
Y218900D01*
X197200Y215500D02*
Y218900D01*
X346700Y253600D02*
X349300D01*
Y250200*
X346700*
Y253600*
Y251200D02*
X349300D01*
X346700Y252400D02*
X349300D01*
X346700Y253600D02*
X349300D01*
X347200Y250200D02*
Y253600D01*
X348400Y250200D02*
Y253600D01*
X346700Y259800D02*
X349300D01*
Y256400*
X346700*
Y259800*
Y257200D02*
X349300D01*
X346700Y258400D02*
X349300D01*
X346700Y259600D02*
X349300D01*
X347200Y256400D02*
Y259800D01*
X348400Y256400D02*
Y259800D01*
X326700Y253600D02*
X329300D01*
Y250200*
X326700*
Y253600*
Y251200D02*
X329300D01*
X326700Y252400D02*
X329300D01*
X326700Y253600D02*
X329300D01*
X326800Y250200D02*
Y253600D01*
X328000Y250200D02*
Y253600D01*
X329200Y250200D02*
Y253600D01*
X326700Y259800D02*
X329300D01*
Y256400*
X326700*
Y259800*
Y257200D02*
X329300D01*
X326700Y258400D02*
X329300D01*
X326700Y259600D02*
X329300D01*
X326800Y256400D02*
Y259800D01*
X328000Y256400D02*
Y259800D01*
X329200Y256400D02*
Y259800D01*
X276000Y169200D02*
Y171800D01*
X279400*
Y169200*
X276000*
Y169600D02*
X279400D01*
X276000Y170800D02*
X279400D01*
X276400Y169200D02*
Y171800D01*
X277600Y169200D02*
Y171800D01*
X278800Y169200D02*
Y171800D01*
X269800Y169200D02*
Y171800D01*
X273200*
Y169200*
X269800*
Y169600D02*
X273200D01*
X269800Y170800D02*
X273200D01*
X270400Y169200D02*
Y171800D01*
X271600Y169200D02*
Y171800D01*
X272800Y169200D02*
Y171800D01*
X232700Y144600D02*
X230100D01*
Y148000*
X232700*
Y144600*
X230100Y145600D02*
X232700D01*
X230100Y146800D02*
X232700D01*
X230100Y148000D02*
X232700D01*
X230800Y144600D02*
Y148000D01*
X232000Y144600D02*
Y148000D01*
X232700Y138400D02*
X230100D01*
Y141800*
X232700*
Y138400*
X230100D02*
X232700D01*
X230100Y139600D02*
X232700D01*
X230100Y140800D02*
X232700D01*
X230800Y138400D02*
Y141800D01*
X232000Y138400D02*
Y141800D01*
X248400Y170300D02*
Y167700D01*
X245000*
Y170300*
X248400*
X245000Y168400D02*
X248400D01*
X245000Y169600D02*
X248400D01*
X245200Y167700D02*
Y170300D01*
X246400Y167700D02*
Y170300D01*
X247600Y167700D02*
Y170300D01*
X254600D02*
Y167700D01*
X251200*
Y170300*
X254600*
X251200Y168400D02*
X254600D01*
X251200Y169600D02*
X254600D01*
X251200Y167700D02*
Y170300D01*
X252400Y167700D02*
Y170300D01*
X253600Y167700D02*
Y170300D01*
X293700Y170000D02*
Y167400D01*
X290300*
Y170000*
X293700*
X290300Y168400D02*
X293700D01*
X290300Y169600D02*
X293700D01*
X290800Y167400D02*
Y170000D01*
X292000Y167400D02*
Y170000D01*
X293200Y167400D02*
Y170000D01*
X299900D02*
Y167400D01*
X296500*
Y170000*
X299900*
X296500Y168400D02*
X299900D01*
X296500Y169600D02*
X299900D01*
X296800Y167400D02*
Y170000D01*
X298000Y167400D02*
Y170000D01*
X299200Y167400D02*
Y170000D01*
X158800Y338600D02*
Y341200D01*
X162200*
Y338600*
X158800*
Y338800D02*
X162200D01*
X158800Y340000D02*
X162200D01*
X158800Y341200D02*
X162200D01*
X158800Y338600D02*
Y341200D01*
X160000Y338600D02*
Y341200D01*
X161200Y338600D02*
Y341200D01*
X152600Y338600D02*
Y341200D01*
X156000*
Y338600*
X152600*
Y338800D02*
X156000D01*
X152600Y340000D02*
X156000D01*
X152600Y341200D02*
X156000D01*
X152800Y338600D02*
Y341200D01*
X154000Y338600D02*
Y341200D01*
X155200Y338600D02*
Y341200D01*
X158800Y343700D02*
Y346300D01*
X162200*
Y343700*
X158800*
Y344800D02*
X162200D01*
X158800Y346000D02*
X162200D01*
X158800Y343700D02*
Y346300D01*
X160000Y343700D02*
Y346300D01*
X161200Y343700D02*
Y346300D01*
X152600Y343700D02*
Y346300D01*
X156000*
Y343700*
X152600*
Y344800D02*
X156000D01*
X152600Y346000D02*
X156000D01*
X152800Y343700D02*
Y346300D01*
X154000Y343700D02*
Y346300D01*
X155200Y343700D02*
Y346300D01*
X355600Y355300D02*
Y352700D01*
X352200*
Y355300*
X355600*
X352200Y353200D02*
X355600D01*
X352200Y354400D02*
X355600D01*
X353200Y352700D02*
Y355300D01*
X354400Y352700D02*
Y355300D01*
X355600Y352700D02*
Y355300D01*
X361800D02*
Y352700D01*
X358400*
Y355300*
X361800*
X358400Y353200D02*
X361800D01*
X358400Y354400D02*
X361800D01*
X359200Y352700D02*
Y355300D01*
X360400Y352700D02*
Y355300D01*
X361600Y352700D02*
Y355300D01*
X355600Y297300D02*
Y294700D01*
X352200*
Y297300*
X355600*
X352200Y295600D02*
X355600D01*
X352200Y296800D02*
X355600D01*
X353200Y294700D02*
Y297300D01*
X354400Y294700D02*
Y297300D01*
X355600Y294700D02*
Y297300D01*
X361800D02*
Y294700D01*
X358400*
Y297300*
X361800*
X358400Y295600D02*
X361800D01*
X358400Y296800D02*
X361800D01*
X359200Y294700D02*
Y297300D01*
X360400Y294700D02*
Y297300D01*
X361600Y294700D02*
Y297300D01*
X355600Y237300D02*
Y234700D01*
X352200*
Y237300*
X355600*
X352200Y235600D02*
X355600D01*
X352200Y236800D02*
X355600D01*
X353200Y234700D02*
Y237300D01*
X354400Y234700D02*
Y237300D01*
X355600Y234700D02*
Y237300D01*
X361800D02*
Y234700D01*
X358400*
Y237300*
X361800*
X358400Y235600D02*
X361800D01*
X358400Y236800D02*
X361800D01*
X359200Y234700D02*
Y237300D01*
X360400Y234700D02*
Y237300D01*
X361600Y234700D02*
Y237300D01*
X356600Y189300D02*
Y186700D01*
X353200*
Y189300*
X356600*
X353200Y187600D02*
X356600D01*
X353200Y188800D02*
X356600D01*
X353200Y186700D02*
Y189300D01*
X354400Y186700D02*
Y189300D01*
X355600Y186700D02*
Y189300D01*
X362800D02*
Y186700D01*
X359400*
Y189300*
X362800*
X359400Y187600D02*
X362800D01*
X359400Y188800D02*
X362800D01*
X360400Y186700D02*
Y189300D01*
X361600Y186700D02*
Y189300D01*
X362800Y186700D02*
Y189300D01*
X354700Y142800D02*
X352100D01*
Y146200*
X354700*
Y142800*
X352100Y143200D02*
X354700D01*
X352100Y144400D02*
X354700D01*
X352100Y145600D02*
X354700D01*
X353200Y142800D02*
Y146200D01*
X354400Y142800D02*
Y146200D01*
X354700Y136600D02*
X352100D01*
Y140000*
X354700*
Y136600*
X352100Y137200D02*
X354700D01*
X352100Y138400D02*
X354700D01*
X352100Y139600D02*
X354700D01*
X353200Y136600D02*
Y140000D01*
X354400Y136600D02*
Y140000D01*
X291400Y191700D02*
X288800D01*
Y195100*
X291400*
Y191700*
X288800Y192400D02*
X291400D01*
X288800Y193600D02*
X291400D01*
X288800Y194800D02*
X291400D01*
X289600Y191700D02*
Y195100D01*
X290800Y191700D02*
Y195100D01*
X291400Y185500D02*
X288800D01*
Y188900*
X291400*
Y185500*
X288800Y186400D02*
X291400D01*
X288800Y187600D02*
X291400D01*
X288800Y188800D02*
X291400D01*
X289600Y185500D02*
Y188900D01*
X290800Y185500D02*
Y188900D01*
X231600Y219500D02*
X229000D01*
Y222900*
X231600*
Y219500*
X229000Y220000D02*
X231600D01*
X229000Y221200D02*
X231600D01*
X229000Y222400D02*
X231600D01*
X229600Y219500D02*
Y222900D01*
X230800Y219500D02*
Y222900D01*
X231600Y213300D02*
X229000D01*
Y216700*
X231600*
Y213300*
X229000Y214000D02*
X231600D01*
X229000Y215200D02*
X231600D01*
X229000Y216400D02*
X231600D01*
X229600Y213300D02*
Y216700D01*
X230800Y213300D02*
Y216700D01*
X220100Y228400D02*
Y231000D01*
X223500*
Y228400*
X220100*
X223500*
X220100Y229600D02*
X223500D01*
X220100Y230800D02*
X223500D01*
X221200Y228400D02*
Y231000D01*
X222400Y228400D02*
Y231000D01*
X213900Y228400D02*
Y231000D01*
X217300*
Y228400*
X213900*
X217300*
X213900Y229600D02*
X217300D01*
X213900Y230800D02*
X217300D01*
X214000Y228400D02*
Y231000D01*
X215200Y228400D02*
Y231000D01*
X216400Y228400D02*
Y231000D01*
X217300Y226000D02*
Y223400D01*
X213900*
Y226000*
X217300*
X213900Y223600D02*
X217300D01*
X213900Y224800D02*
X217300D01*
X213900Y226000D02*
X217300D01*
X214000Y223400D02*
Y226000D01*
X215200Y223400D02*
Y226000D01*
X216400Y223400D02*
Y226000D01*
X223500D02*
Y223400D01*
X220100*
Y226000*
X223500*
X220100Y223600D02*
X223500D01*
X220100Y224800D02*
X223500D01*
X220100Y226000D02*
X223500D01*
X221200Y223400D02*
Y226000D01*
X222400Y223400D02*
Y226000D01*
G54D37*
X168900Y276500D02*
X171500D01*
Y272700*
X168900*
Y276500*
Y272800D02*
X171500D01*
X168900Y274600D02*
X171500D01*
X168900Y276400D02*
X171500D01*
X170200Y272700D02*
Y276500D01*
X156800D02*
X159400D01*
Y272700*
X156800*
Y276500*
Y272800D02*
X159400D01*
X156800Y274600D02*
X159400D01*
X156800Y276400D02*
X159400D01*
X157600Y272700D02*
Y276500D01*
X159400Y272700D02*
Y276500D01*
X229900Y207000D02*
Y209600D01*
X233700*
Y207000*
X229900*
Y208000D02*
X233700D01*
X231400Y207000D02*
Y209600D01*
X233200Y207000D02*
Y209600D01*
X229900Y194900D02*
Y197500D01*
X233700*
Y194900*
X229900*
Y195400D02*
X233700D01*
X229900Y197200D02*
X233700D01*
X231400Y194900D02*
Y197500D01*
X233200Y194900D02*
Y197500D01*
G54D39*
X216000Y202500D02*
Y198100D01*
X210600*
Y202500*
X216000*
X210600Y199400D02*
X216000D01*
X210600Y200800D02*
X216000D01*
X210600Y202200D02*
X216000D01*
X210600Y198100D02*
Y202500D01*
X212000Y198100D02*
Y202500D01*
X213400Y198100D02*
Y202500D01*
X214800Y198100D02*
Y202500D01*
X225000D02*
Y198100D01*
X219600*
Y202500*
X225000*
X219600Y199400D02*
X225000D01*
X219600Y200800D02*
X225000D01*
X219600Y202200D02*
X225000D01*
X220400Y198100D02*
Y202500D01*
X221800Y198100D02*
Y202500D01*
X223200Y198100D02*
Y202500D01*
X224600Y198100D02*
Y202500D01*
X230900Y186500D02*
Y190900D01*
X236300*
Y186500*
X230900*
Y186800D02*
X236300D01*
X230900Y188200D02*
X236300D01*
X230900Y189600D02*
X236300D01*
X231600Y186500D02*
Y190900D01*
X233000Y186500D02*
Y190900D01*
X234400Y186500D02*
Y190900D01*
X235800Y186500D02*
Y190900D01*
X221900Y186500D02*
Y190900D01*
X227300*
Y186500*
X221900*
Y186800D02*
X227300D01*
X221900Y188200D02*
X227300D01*
X221900Y189600D02*
X227300D01*
X223200Y186500D02*
Y190900D01*
X224600Y186500D02*
Y190900D01*
X226000Y186500D02*
Y190900D01*
G54D41*
X147750Y341200D02*
Y338800D01*
X140150*
Y341200*
X147750*
X140150Y340800D02*
X147750D01*
X142000Y338800D02*
Y341200D01*
X144800Y338800D02*
Y341200D01*
X147600Y338800D02*
Y341200D01*
X147750Y351200D02*
Y348800D01*
X140150*
Y351200*
X147750*
X140150Y349200D02*
X147750D01*
X142000Y348800D02*
Y351200D01*
X144800Y348800D02*
Y351200D01*
X147600Y348800D02*
Y351200D01*
X113850D02*
Y348800D01*
X106250*
Y351200*
X113850*
X106250Y349200D02*
X113850D01*
X108400Y348800D02*
Y351200D01*
X111200Y348800D02*
Y351200D01*
X113850Y341200D02*
Y338800D01*
X106250*
Y341200*
X113850*
X106250Y340800D02*
X113850D01*
X108400Y338800D02*
Y341200D01*
X111200Y338800D02*
Y341200D01*
G54D46*
X131466Y262809D02*
Y263990D01*
X139734*
Y262809*
X131466*
Y263502D02*
X139734D01*
X131748Y262809D02*
Y263990D01*
X133335Y262809D02*
Y263990D01*
X134923Y262809D02*
Y263990D01*
X136510Y262809D02*
Y263990D01*
X138098Y262809D02*
Y263990D01*
X139685Y262809D02*
Y263990D01*
X131466Y259659D02*
Y260840D01*
X139734*
Y259659*
X131466*
Y260328D02*
X139734D01*
X131748Y259659D02*
Y260840D01*
X133335Y259659D02*
Y260840D01*
X134923Y259659D02*
Y260840D01*
X136510Y259659D02*
Y260840D01*
X138098Y259659D02*
Y260840D01*
X139685Y259659D02*
Y260840D01*
X131466Y256509D02*
Y257691D01*
X139734*
Y256509*
X131466*
Y257153D02*
X139734D01*
X131748Y256509D02*
Y257691D01*
X133335Y256509D02*
Y257691D01*
X134923Y256509D02*
Y257691D01*
X136510Y256509D02*
Y257691D01*
X138098Y256509D02*
Y257691D01*
X139685Y256509D02*
Y257691D01*
X131466Y253360D02*
Y254541D01*
X139734*
Y253360*
X131466*
Y253978D02*
X139734D01*
X131748Y253360D02*
Y254541D01*
X133335Y253360D02*
Y254541D01*
X134923Y253360D02*
Y254541D01*
X136510Y253360D02*
Y254541D01*
X138098Y253360D02*
Y254541D01*
X139685Y253360D02*
Y254541D01*
X131466Y250210D02*
Y251391D01*
X139734*
Y250210*
X131466*
Y250803D02*
X139734D01*
X131748Y250210D02*
Y251391D01*
X133335Y250210D02*
Y251391D01*
X134923Y250210D02*
Y251391D01*
X136510Y250210D02*
Y251391D01*
X138098Y250210D02*
Y251391D01*
X139685Y250210D02*
Y251391D01*
X130679Y271076D02*
Y278163D01*
X139734*
Y271076*
X130679*
Y271439D02*
X139734D01*
X130679Y273027D02*
X139734D01*
X130679Y274614D02*
X139734D01*
X130679Y276202D02*
X139734D01*
X130679Y277789D02*
X139734D01*
X131748Y271076D02*
Y278163D01*
X133335Y271076D02*
Y278163D01*
X134923Y271076D02*
Y278163D01*
X136510Y271076D02*
Y278163D01*
X138098Y271076D02*
Y278163D01*
X139685Y271076D02*
Y278163D01*
X130679Y236037D02*
Y243124D01*
X139734*
Y236037*
X130679*
Y236517D02*
X139734D01*
X130679Y238104D02*
X139734D01*
X130679Y239691D02*
X139734D01*
X130679Y241279D02*
X139734D01*
X130679Y242866D02*
X139734D01*
X131748Y236037D02*
Y243124D01*
X133335Y236037D02*
Y243124D01*
X134923Y236037D02*
Y243124D01*
X136510Y236037D02*
Y243124D01*
X138098Y236037D02*
Y243124D01*
X139685Y236037D02*
Y243124D01*
X109025Y236037D02*
Y243124D01*
X118080*
Y236037*
X109025*
Y236517D02*
X118080D01*
X109025Y238104D02*
X118080D01*
X109025Y239691D02*
X118080D01*
X109025Y241279D02*
X118080D01*
X109025Y242866D02*
X118080D01*
X109524Y236037D02*
Y243124D01*
X111112Y236037D02*
Y243124D01*
X112699Y236037D02*
Y243124D01*
X114287Y236037D02*
Y243124D01*
X115874Y236037D02*
Y243124D01*
X117461Y236037D02*
Y243124D01*
X109025Y271076D02*
Y278163D01*
X118080*
Y271076*
X109025*
Y271439D02*
X118080D01*
X109025Y273027D02*
X118080D01*
X109025Y274614D02*
X118080D01*
X109025Y276202D02*
X118080D01*
X109025Y277789D02*
X118080D01*
X109524Y271076D02*
Y278163D01*
X111112Y271076D02*
Y278163D01*
X112699Y271076D02*
Y278163D01*
X114287Y271076D02*
Y278163D01*
X115874Y271076D02*
Y278163D01*
X117461Y271076D02*
Y278163D01*
X205022Y145762D02*
X207778D01*
Y141038*
X205022*
Y145762*
Y141272D02*
X207778D01*
X205022Y142860D02*
X207778D01*
X205022Y144447D02*
X207778D01*
X206356Y141038D02*
Y145762D01*
X192424Y141038D02*
Y145762D01*
X200298*
Y141038*
X192424*
Y141272D02*
X200298D01*
X192424Y142860D02*
X200298D01*
X192424Y144447D02*
X200298D01*
X193657Y141038D02*
Y145762D01*
X195244Y141038D02*
Y145762D01*
X196831Y141038D02*
Y145762D01*
X198419Y141038D02*
Y145762D01*
X200006Y141038D02*
Y145762D01*
X229569Y376999D02*
Y380149D01*
X232719*
Y376999*
X229569*
Y377795D02*
X232719D01*
X229569Y379383D02*
X232719D01*
X230167Y376999D02*
Y380149D01*
X231754Y376999D02*
Y380149D01*
X260281Y376999D02*
Y380149D01*
X263431*
Y376999*
X260281*
Y377795D02*
X263431D01*
X260281Y379383D02*
X263431D01*
X260328Y376999D02*
Y380149D01*
X261915Y376999D02*
Y380149D01*
X229569Y392747D02*
Y395897D01*
X232719*
Y392747*
X229569*
Y393669D02*
X232719D01*
X229569Y395257D02*
X232719D01*
X230167Y392747D02*
Y395897D01*
X231754Y392747D02*
Y395897D01*
X260281Y392747D02*
Y395897D01*
X263431*
Y392747*
X260281*
Y393669D02*
X263431D01*
X260281Y395257D02*
X263431D01*
X260328Y392747D02*
Y395897D01*
X261915Y392747D02*
Y395897D01*
X241026Y364204D02*
Y367354D01*
X244175*
Y364204*
X241026*
Y365096D02*
X244175D01*
X241026Y366683D02*
X244175D01*
X241279Y364204D02*
Y367354D01*
X242866Y364204D02*
Y367354D01*
X248825Y364204D02*
Y367354D01*
X251974*
Y364204*
X248825*
Y365096D02*
X251974D01*
X248825Y366683D02*
X251974D01*
X249216Y364204D02*
Y367354D01*
X250803Y364204D02*
Y367354D01*
X273487Y258733D02*
Y258339D01*
X268369*
Y258733*
X273487*
X269852Y258339D02*
Y258733D01*
X271439Y258339D02*
Y258733D01*
X273027Y258339D02*
Y258733D01*
X273487Y260702D02*
Y260308D01*
X268369*
Y260702*
X273487*
X268369Y260328D02*
X273487D01*
X269852Y260308D02*
Y260702D01*
X271439Y260308D02*
Y260702D01*
X273027Y260308D02*
Y260702D01*
X273487Y262670D02*
Y262276D01*
X268369*
Y262670*
X273487*
X269852Y262276D02*
Y262670D01*
X271439Y262276D02*
Y262670D01*
X273027Y262276D02*
Y262670D01*
X273487Y264639D02*
Y264245D01*
X268369*
Y264639*
X273487*
X269852Y264245D02*
Y264639D01*
X271439Y264245D02*
Y264639D01*
X273027Y264245D02*
Y264639D01*
X273487Y266607D02*
Y266213D01*
X268369*
Y266607*
X273487*
X269852Y266213D02*
Y266607D01*
X271439Y266213D02*
Y266607D01*
X273027Y266213D02*
Y266607D01*
X273487Y268576D02*
Y268182D01*
X268369*
Y268576*
X273487*
X268369Y268265D02*
X273487D01*
X269852Y268182D02*
Y268576D01*
X271439Y268182D02*
Y268576D01*
X273027Y268182D02*
Y268576D01*
X273487Y270544D02*
Y270150D01*
X268369*
Y270544*
X273487*
X269852Y270150D02*
Y270544D01*
X271439Y270150D02*
Y270544D01*
X273027Y270150D02*
Y270544D01*
X273487Y272513D02*
Y272119D01*
X268369*
Y272513*
X273487*
X269852Y272119D02*
Y272513D01*
X271439Y272119D02*
Y272513D01*
X273027Y272119D02*
Y272513D01*
X273487Y274481D02*
Y274087D01*
X268369*
Y274481*
X273487*
X269852Y274087D02*
Y274481D01*
X271439Y274087D02*
Y274481D01*
X273027Y274087D02*
Y274481D01*
X273487Y276450D02*
Y276056D01*
X268369*
Y276450*
X273487*
X268369Y276202D02*
X273487D01*
X269852Y276056D02*
Y276450D01*
X271439Y276056D02*
Y276450D01*
X273027Y276056D02*
Y276450D01*
X273487Y278418D02*
Y278024D01*
X268369*
Y278418*
X273487*
X269852Y278024D02*
Y278418D01*
X271439Y278024D02*
Y278418D01*
X273027Y278024D02*
Y278418D01*
X273487Y280387D02*
Y279993D01*
X268369*
Y280387*
X273487*
X269852Y279993D02*
Y280387D01*
X271439Y279993D02*
Y280387D01*
X273027Y279993D02*
Y280387D01*
X273487Y282355D02*
Y281961D01*
X268369*
Y282355*
X273487*
X269852Y281961D02*
Y282355D01*
X271439Y281961D02*
Y282355D01*
X273027Y281961D02*
Y282355D01*
X273487Y284324D02*
Y283930D01*
X268369*
Y284324*
X273487*
X268369Y284139D02*
X273487D01*
X269852Y283930D02*
Y284324D01*
X271439Y283930D02*
Y284324D01*
X273027Y283930D02*
Y284324D01*
X273487Y286292D02*
Y285898D01*
X268369*
Y286292*
X273487*
X269852Y285898D02*
Y286292D01*
X271439Y285898D02*
Y286292D01*
X273027Y285898D02*
Y286292D01*
X273487Y288261D02*
Y287867D01*
X268369*
Y288261*
X273487*
X269852Y287867D02*
Y288261D01*
X271439Y287867D02*
Y288261D01*
X273027Y287867D02*
Y288261D01*
X262267Y299087D02*
X262661D01*
Y293969*
X262267*
Y299087*
Y295250D02*
X262661D01*
X262267Y296838D02*
X262661D01*
X262267Y298425D02*
X262661D01*
X260298Y299087D02*
X260692D01*
Y293969*
X260298*
Y299087*
Y295250D02*
X260692D01*
X260298Y296838D02*
X260692D01*
X260298Y298425D02*
X260692D01*
X260328Y293969D02*
Y299087D01*
X258330D02*
X258724D01*
Y293969*
X258330*
Y299087*
Y295250D02*
X258724D01*
X258330Y296838D02*
X258724D01*
X258330Y298425D02*
X258724D01*
X256361Y299087D02*
X256755D01*
Y293969*
X256361*
Y299087*
Y295250D02*
X256755D01*
X256361Y296838D02*
X256755D01*
X256361Y298425D02*
X256755D01*
X254393Y299087D02*
X254787D01*
Y293969*
X254393*
Y299087*
Y295250D02*
X254787D01*
X254393Y296838D02*
X254787D01*
X254393Y298425D02*
X254787D01*
X252424Y299087D02*
X252818D01*
Y293969*
X252424*
Y299087*
Y295250D02*
X252818D01*
X252424Y296838D02*
X252818D01*
X252424Y298425D02*
X252818D01*
X250456Y299087D02*
X250850D01*
Y293969*
X250456*
Y299087*
Y295250D02*
X250850D01*
X250456Y296838D02*
X250850D01*
X250456Y298425D02*
X250850D01*
X250803Y293969D02*
Y299087D01*
X248487D02*
X248881D01*
Y293969*
X248487*
Y299087*
Y295250D02*
X248881D01*
X248487Y296838D02*
X248881D01*
X248487Y298425D02*
X248881D01*
X246519Y299087D02*
X246913D01*
Y293969*
X246519*
Y299087*
Y295250D02*
X246913D01*
X246519Y296838D02*
X246913D01*
X246519Y298425D02*
X246913D01*
X244550Y299087D02*
X244944D01*
Y293969*
X244550*
Y299087*
Y295250D02*
X244944D01*
X244550Y296838D02*
X244944D01*
X244550Y298425D02*
X244944D01*
X242582Y299087D02*
X242976D01*
Y293969*
X242582*
Y299087*
Y295250D02*
X242976D01*
X242582Y296838D02*
X242976D01*
X242582Y298425D02*
X242976D01*
X242866Y293969D02*
Y299087D01*
X240613D02*
X241007D01*
Y293969*
X240613*
Y299087*
Y295250D02*
X241007D01*
X240613Y296838D02*
X241007D01*
X240613Y298425D02*
X241007D01*
X238645Y299087D02*
X239039D01*
Y293969*
X238645*
Y299087*
Y295250D02*
X239039D01*
X238645Y296838D02*
X239039D01*
X238645Y298425D02*
X239039D01*
X236676Y299087D02*
X237070D01*
Y293969*
X236676*
Y299087*
Y295250D02*
X237070D01*
X236676Y296838D02*
X237070D01*
X236676Y298425D02*
X237070D01*
X234708Y299087D02*
X235102D01*
Y293969*
X234708*
Y299087*
Y295250D02*
X235102D01*
X234708Y296838D02*
X235102D01*
X234708Y298425D02*
X235102D01*
X234929Y293969D02*
Y299087D01*
X232739D02*
X233133D01*
Y293969*
X232739*
Y299087*
Y295250D02*
X233133D01*
X232739Y296838D02*
X233133D01*
X232739Y298425D02*
X233133D01*
X227031Y288261D02*
Y287867D01*
X221913*
Y288261*
X227031*
X222230Y287867D02*
Y288261D01*
X223817Y287867D02*
Y288261D01*
X225405Y287867D02*
Y288261D01*
X226992Y287867D02*
Y288261D01*
X227031Y286292D02*
Y285898D01*
X221913*
Y286292*
X227031*
X222230Y285898D02*
Y286292D01*
X223817Y285898D02*
Y286292D01*
X225405Y285898D02*
Y286292D01*
X226992Y285898D02*
Y286292D01*
X227031Y284324D02*
Y283930D01*
X221913*
Y284324*
X227031*
X221913Y284139D02*
X227031D01*
X222230Y283930D02*
Y284324D01*
X223817Y283930D02*
Y284324D01*
X225405Y283930D02*
Y284324D01*
X226992Y283930D02*
Y284324D01*
X227031Y282355D02*
Y281961D01*
X221913*
Y282355*
X227031*
X222230Y281961D02*
Y282355D01*
X223817Y281961D02*
Y282355D01*
X225405Y281961D02*
Y282355D01*
X226992Y281961D02*
Y282355D01*
X227031Y280387D02*
Y279993D01*
X221913*
Y280387*
X227031*
X222230Y279993D02*
Y280387D01*
X223817Y279993D02*
Y280387D01*
X225405Y279993D02*
Y280387D01*
X226992Y279993D02*
Y280387D01*
X227031Y278418D02*
Y278024D01*
X221913*
Y278418*
X227031*
X222230Y278024D02*
Y278418D01*
X223817Y278024D02*
Y278418D01*
X225405Y278024D02*
Y278418D01*
X226992Y278024D02*
Y278418D01*
X227031Y276450D02*
Y276056D01*
X221913*
Y276450*
X227031*
X221913Y276202D02*
X227031D01*
X222230Y276056D02*
Y276450D01*
X223817Y276056D02*
Y276450D01*
X225405Y276056D02*
Y276450D01*
X226992Y276056D02*
Y276450D01*
X227031Y274481D02*
Y274087D01*
X221913*
Y274481*
X227031*
X222230Y274087D02*
Y274481D01*
X223817Y274087D02*
Y274481D01*
X225405Y274087D02*
Y274481D01*
X226992Y274087D02*
Y274481D01*
X227031Y272513D02*
Y272119D01*
X221913*
Y272513*
X227031*
X222230Y272119D02*
Y272513D01*
X223817Y272119D02*
Y272513D01*
X225405Y272119D02*
Y272513D01*
X226992Y272119D02*
Y272513D01*
X227031Y270544D02*
Y270150D01*
X221913*
Y270544*
X227031*
X222230Y270150D02*
Y270544D01*
X223817Y270150D02*
Y270544D01*
X225405Y270150D02*
Y270544D01*
X226992Y270150D02*
Y270544D01*
X227031Y268576D02*
Y268182D01*
X221913*
Y268576*
X227031*
X221913Y268265D02*
X227031D01*
X222230Y268182D02*
Y268576D01*
X223817Y268182D02*
Y268576D01*
X225405Y268182D02*
Y268576D01*
X226992Y268182D02*
Y268576D01*
X227031Y266607D02*
Y266213D01*
X221913*
Y266607*
X227031*
X222230Y266213D02*
Y266607D01*
X223817Y266213D02*
Y266607D01*
X225405Y266213D02*
Y266607D01*
X226992Y266213D02*
Y266607D01*
X227031Y264639D02*
Y264245D01*
X221913*
Y264639*
X227031*
X222230Y264245D02*
Y264639D01*
X223817Y264245D02*
Y264639D01*
X225405Y264245D02*
Y264639D01*
X226992Y264245D02*
Y264639D01*
X227031Y262670D02*
Y262276D01*
X221913*
Y262670*
X227031*
X222230Y262276D02*
Y262670D01*
X223817Y262276D02*
Y262670D01*
X225405Y262276D02*
Y262670D01*
X226992Y262276D02*
Y262670D01*
X227031Y260702D02*
Y260308D01*
X221913*
Y260702*
X227031*
X221913Y260328D02*
X227031D01*
X222230Y260308D02*
Y260702D01*
X223817Y260308D02*
Y260702D01*
X225405Y260308D02*
Y260702D01*
X226992Y260308D02*
Y260702D01*
X227031Y258733D02*
Y258339D01*
X221913*
Y258733*
X227031*
X222230Y258339D02*
Y258733D01*
X223817Y258339D02*
Y258733D01*
X225405Y258339D02*
Y258733D01*
X226992Y258339D02*
Y258733D01*
X232739Y252631D02*
X233133D01*
Y247513*
X232739*
Y252631*
Y247628D02*
X233133D01*
X232739Y249216D02*
X233133D01*
X232739Y250803D02*
X233133D01*
X232739Y252391D02*
X233133D01*
X234708Y252631D02*
X235102D01*
Y247513*
X234708*
Y252631*
Y247628D02*
X235102D01*
X234708Y249216D02*
X235102D01*
X234708Y250803D02*
X235102D01*
X234708Y252391D02*
X235102D01*
X234929Y247513D02*
Y252631D01*
X236676D02*
X237070D01*
Y247513*
X236676*
Y252631*
Y247628D02*
X237070D01*
X236676Y249216D02*
X237070D01*
X236676Y250803D02*
X237070D01*
X236676Y252391D02*
X237070D01*
X238645Y252631D02*
X239039D01*
Y247513*
X238645*
Y252631*
Y247628D02*
X239039D01*
X238645Y249216D02*
X239039D01*
X238645Y250803D02*
X239039D01*
X238645Y252391D02*
X239039D01*
X240613Y252631D02*
X241007D01*
Y247513*
X240613*
Y252631*
Y247628D02*
X241007D01*
X240613Y249216D02*
X241007D01*
X240613Y250803D02*
X241007D01*
X240613Y252391D02*
X241007D01*
X242582Y252631D02*
X242976D01*
Y247513*
X242582*
Y252631*
Y247628D02*
X242976D01*
X242582Y249216D02*
X242976D01*
X242582Y250803D02*
X242976D01*
X242582Y252391D02*
X242976D01*
X242866Y247513D02*
Y252631D01*
X244550D02*
X244944D01*
Y247513*
X244550*
Y252631*
Y247628D02*
X244944D01*
X244550Y249216D02*
X244944D01*
X244550Y250803D02*
X244944D01*
X244550Y252391D02*
X244944D01*
X246519Y252631D02*
X246913D01*
Y247513*
X246519*
Y252631*
Y247628D02*
X246913D01*
X246519Y249216D02*
X246913D01*
X246519Y250803D02*
X246913D01*
X246519Y252391D02*
X246913D01*
X248487Y252631D02*
X248881D01*
Y247513*
X248487*
Y252631*
Y247628D02*
X248881D01*
X248487Y249216D02*
X248881D01*
X248487Y250803D02*
X248881D01*
X248487Y252391D02*
X248881D01*
X250456Y252631D02*
X250850D01*
Y247513*
X250456*
Y252631*
Y247628D02*
X250850D01*
X250456Y249216D02*
X250850D01*
X250456Y250803D02*
X250850D01*
X250456Y252391D02*
X250850D01*
X250803Y247513D02*
Y252631D01*
X252424D02*
X252818D01*
Y247513*
X252424*
Y252631*
Y247628D02*
X252818D01*
X252424Y249216D02*
X252818D01*
X252424Y250803D02*
X252818D01*
X252424Y252391D02*
X252818D01*
X254393Y252631D02*
X254787D01*
Y247513*
X254393*
Y252631*
Y247628D02*
X254787D01*
X254393Y249216D02*
X254787D01*
X254393Y250803D02*
X254787D01*
X254393Y252391D02*
X254787D01*
X256361Y252631D02*
X256755D01*
Y247513*
X256361*
Y252631*
Y247628D02*
X256755D01*
X256361Y249216D02*
X256755D01*
X256361Y250803D02*
X256755D01*
X256361Y252391D02*
X256755D01*
X258330Y252631D02*
X258724D01*
Y247513*
X258330*
Y252631*
Y247628D02*
X258724D01*
X258330Y249216D02*
X258724D01*
X258330Y250803D02*
X258724D01*
X258330Y252391D02*
X258724D01*
X260298Y252631D02*
X260692D01*
Y247513*
X260298*
Y252631*
Y247628D02*
X260692D01*
X260298Y249216D02*
X260692D01*
X260298Y250803D02*
X260692D01*
X260298Y252391D02*
X260692D01*
X260328Y247513D02*
Y252631D01*
X262267D02*
X262661D01*
Y247513*
X262267*
Y252631*
Y247628D02*
X262661D01*
X262267Y249216D02*
X262661D01*
X262267Y250803D02*
X262661D01*
X262267Y252391D02*
X262661D01*
G54D47*
X193400Y131400D03*
G54D48*
X157000Y203000D03*
X178700D03*
G54D49*
X112400Y302500D03*
Y310374D03*
Y318248D03*
Y326122D03*
G54D50*
X286700Y131800D03*
X282700Y138800D03*
X278700Y131800D03*
X274700Y138800D03*
X270700Y131800D03*
X266700Y138800D03*
X262700Y131800D03*
X258700Y138800D03*
X299700Y157800D03*
X290700D03*
X254700Y157878D03*
X245700Y157800D03*
G54D51*
X297700Y121800D03*
X247700D03*
X115000Y115000D03*
Y385000D03*
X385000Y115000D03*
Y385000D03*
G54D52*
X388000Y360370D03*
Y352496D03*
Y344622D03*
Y336748D03*
Y328874D03*
Y321000D03*
Y300370D03*
Y292496D03*
Y284622D03*
Y276748D03*
Y268874D03*
Y261000D03*
Y241370D03*
Y233496D03*
Y225622D03*
Y217748D03*
Y209874D03*
Y202000D03*
Y182370D03*
Y174496D03*
Y166622D03*
Y158748D03*
Y150874D03*
Y143000D03*
X358770Y111400D03*
X350896D03*
X343022D03*
X335148D03*
X327274D03*
X319400D03*
X336000Y314000D03*
Y306126D03*
X327000Y187000D03*
X319126D03*
X326000Y213000D03*
X318126D03*
X204500Y331700D03*
X196626D03*
X188752D03*
X180878D03*
G54D53*
X227994Y370090D02*
Y371310D01*
X232719*
Y370090*
X227994*
X228772D02*
Y371310D01*
X230753Y370090D02*
Y371310D01*
X227994Y366153D02*
Y367373D01*
X232719*
Y366153*
X227994*
X228772D02*
Y367373D01*
X230753Y366153D02*
Y367373D01*
X227994Y362216D02*
Y363436D01*
X232719*
Y362216*
X227994*
X228772D02*
Y363436D01*
X230753Y362216D02*
Y363436D01*
X227994Y358279D02*
Y359499D01*
X232719*
Y358279*
X227994*
X228772D02*
Y359499D01*
X230753Y358279D02*
Y359499D01*
X227994Y354342D02*
Y355562D01*
X232719*
Y354342*
X227994*
Y355562D02*
X232719D01*
X228772Y354342D02*
Y355562D01*
X230753Y354342D02*
Y355562D01*
X227994Y350405D02*
Y351625D01*
X232719*
Y350405*
X227994*
Y351600D02*
X232719D01*
X228772Y350405D02*
Y351625D01*
X230753Y350405D02*
Y351625D01*
X227994Y346468D02*
Y347688D01*
X232719*
Y346468*
X227994*
Y347638D02*
X232719D01*
X228772Y346468D02*
Y347688D01*
X230753Y346468D02*
Y347688D01*
X227994Y342531D02*
Y343751D01*
X232719*
Y342531*
X227994*
Y343676D02*
X232719D01*
X228772Y342531D02*
Y343751D01*
X230753Y342531D02*
Y343751D01*
X233368Y334480D02*
X232148D01*
Y339204*
X233368*
Y334480*
X232148Y335751D02*
X233368D01*
X232148Y337732D02*
X233368D01*
X232734Y334480D02*
Y339204D01*
X237305Y334480D02*
X236085D01*
Y339204*
X237305*
Y334480*
X236085Y335751D02*
X237305D01*
X236085Y337732D02*
X237305D01*
X236696Y334480D02*
Y339204D01*
X241242Y334480D02*
X240022D01*
Y339204*
X241242*
Y334480*
X240022Y335751D02*
X241242D01*
X240022Y337732D02*
X241242D01*
X240658Y334480D02*
Y339204D01*
X245179Y334480D02*
X243959D01*
Y339204*
X245179*
Y334480*
X243959Y335751D02*
X245179D01*
X243959Y337732D02*
X245179D01*
X244620Y334480D02*
Y339204D01*
X249116Y334480D02*
X247896D01*
Y339204*
X249116*
Y334480*
X247896Y335751D02*
X249116D01*
X247896Y337732D02*
X249116D01*
X248583Y334480D02*
Y339204D01*
X253053Y334480D02*
X251833D01*
Y339204*
X253053*
Y334480*
X251833Y335751D02*
X253053D01*
X251833Y337732D02*
X253053D01*
X252545Y334480D02*
Y339204D01*
X256990Y334480D02*
X255770D01*
Y339204*
X256990*
Y334480*
X255770Y335751D02*
X256990D01*
X255770Y337732D02*
X256990D01*
X256507Y334480D02*
Y339204D01*
X260927Y334480D02*
X259707D01*
Y339204*
X260927*
Y334480*
X259707Y335751D02*
X260927D01*
X259707Y337732D02*
X260927D01*
X260469Y334480D02*
Y339204D01*
X260285Y342531D02*
Y343751D01*
X265010*
Y342531*
X260285*
Y343676D02*
X265010D01*
X260469Y342531D02*
Y343751D01*
X262450Y342531D02*
Y343751D01*
X264431Y342531D02*
Y343751D01*
X260285Y346468D02*
Y347688D01*
X265010*
Y346468*
X260285*
Y347638D02*
X265010D01*
X260469Y346468D02*
Y347688D01*
X262450Y346468D02*
Y347688D01*
X264431Y346468D02*
Y347688D01*
X260285Y350405D02*
Y351625D01*
X265010*
Y350405*
X260285*
Y351600D02*
X265010D01*
X260469Y350405D02*
Y351625D01*
X262450Y350405D02*
Y351625D01*
X264431Y350405D02*
Y351625D01*
X260285Y354342D02*
Y355562D01*
X265010*
Y354342*
X260285*
Y355562D02*
X265010D01*
X260469Y354342D02*
Y355562D01*
X262450Y354342D02*
Y355562D01*
X264431Y354342D02*
Y355562D01*
X260285Y358279D02*
Y359499D01*
X265010*
Y358279*
X260285*
X260469D02*
Y359499D01*
X262450Y358279D02*
Y359499D01*
X264431Y358279D02*
Y359499D01*
X260285Y362216D02*
Y363436D01*
X265010*
Y362216*
X260285*
X260469D02*
Y363436D01*
X262450Y362216D02*
Y363436D01*
X264431Y362216D02*
Y363436D01*
X260285Y366153D02*
Y367373D01*
X265010*
Y366153*
X260285*
X260469D02*
Y367373D01*
X262450Y366153D02*
Y367373D01*
X264431Y366153D02*
Y367373D01*
X260285Y370090D02*
Y371310D01*
X265010*
Y370090*
X260285*
X260469D02*
Y371310D01*
X262450Y370090D02*
Y371310D01*
X264431Y370090D02*
Y371310D01*
X294787Y327125D02*
X293213D01*
Y330275*
X294787*
Y327125*
X293213Y327827D02*
X294787D01*
X293213Y329808D02*
X294787D01*
X294148Y327125D02*
Y330275D01*
X300693Y327125D02*
X299118D01*
Y330275*
X300693*
Y327125*
X299118Y327827D02*
X300693D01*
X299118Y329808D02*
X300693D01*
X300091Y327125D02*
Y330275D01*
X306598Y327125D02*
X305024D01*
Y330275*
X306598*
Y327125*
X305024Y327827D02*
X306598D01*
X305024Y329808D02*
X306598D01*
X306035Y327125D02*
Y330275D01*
G54D54*
X154213Y251950D02*
X153307D01*
Y255020*
X154213*
Y251950*
X153307Y253285D02*
X154213D01*
X153307Y254951D02*
X154213D01*
X153317Y251950D02*
Y255020D01*
X157953Y251950D02*
X157047D01*
Y255020*
X157953*
Y251950*
X157047Y253285D02*
X157953D01*
X157047Y254951D02*
X157953D01*
X161693Y251950D02*
X160787D01*
Y255020*
X161693*
Y251950*
X160787Y253285D02*
X161693D01*
X160787Y254951D02*
X161693D01*
X161647Y251950D02*
Y255020D01*
X161693Y262580D02*
X160787D01*
Y265650*
X161693*
Y262580*
X160787Y263282D02*
X161693D01*
X160787Y264948D02*
X161693D01*
X161647Y262580D02*
Y265650D01*
X157953Y262580D02*
X157047D01*
Y265650*
X157953*
Y262580*
X157047Y263282D02*
X157953D01*
X157047Y264948D02*
X157953D01*
X154213Y262580D02*
X153307D01*
Y265650*
X154213*
Y262580*
X153307Y263282D02*
X154213D01*
X153307Y264948D02*
X154213D01*
X153317Y262580D02*
Y265650D01*
X134185Y320551D02*
X131508D01*
Y323228*
X134185*
Y320551*
X131508Y321597D02*
X134185D01*
X131657Y320551D02*
Y323228D01*
X133323Y320551D02*
Y323228D01*
X152492Y320551D02*
X149815D01*
Y323228*
X152492*
Y320551*
X149815Y321597D02*
X152492D01*
X149984Y320551D02*
Y323228D01*
X151650Y320551D02*
Y323228D01*
X134185Y306772D02*
X131508D01*
Y309449*
X134185*
Y306772*
X131508Y308268D02*
X134185D01*
X131657Y306772D02*
Y309449D01*
X133323Y306772D02*
Y309449D01*
X152492Y306772D02*
X149815D01*
Y309449*
X152492*
Y306772*
X149815Y308268D02*
X152492D01*
X149984Y306772D02*
Y309449D01*
X151650Y306772D02*
Y309449D01*
G54D55*
X185132Y135337D03*
Y133369D03*
Y131400D03*
Y129431D03*
Y127463D03*
X201668D03*
Y129431D03*
Y131400D03*
Y133369D03*
Y135337D03*
G54D56*
X224660Y157621D02*
Y150456D01*
X202140*
Y157621*
X224660*
X202140Y151364D02*
X224660D01*
X202140Y153266D02*
X224660D01*
X202140Y155169D02*
X224660D01*
X202140Y157071D02*
X224660D01*
X202728Y150456D02*
Y157621D01*
X204630Y150456D02*
Y157621D01*
X206532Y150456D02*
Y157621D01*
X208435Y150456D02*
Y157621D01*
X210337Y150456D02*
Y157621D01*
X212239Y150456D02*
Y157621D01*
X214142Y150456D02*
Y157621D01*
X216044Y150456D02*
Y157621D01*
X217946Y150456D02*
Y157621D01*
X219849Y150456D02*
Y157621D01*
X221751Y150456D02*
Y157621D01*
X223654Y150456D02*
Y157621D01*
X224660Y174944D02*
Y167779D01*
X202140*
Y174944*
X224660*
X202140Y168485D02*
X224660D01*
X202140Y170387D02*
X224660D01*
X202140Y172290D02*
X224660D01*
X202140Y174192D02*
X224660D01*
X202728Y167779D02*
Y174944D01*
X204630Y167779D02*
Y174944D01*
X206532Y167779D02*
Y174944D01*
X208435Y167779D02*
Y174944D01*
X210337Y167779D02*
Y174944D01*
X212239Y167779D02*
Y174944D01*
X214142Y167779D02*
Y174944D01*
X216044Y167779D02*
Y174944D01*
X217946Y167779D02*
Y174944D01*
X219849Y167779D02*
Y174944D01*
X221751Y167779D02*
Y174944D01*
X223654Y167779D02*
Y174944D01*
X295232Y256011D02*
Y252389D01*
X291413*
Y256011*
X295232*
X291413Y254091D02*
X295232D01*
X291413Y255994D02*
X295232D01*
X292139Y252389D02*
Y256011D01*
X294041Y252389D02*
Y256011D01*
X295232Y266011D02*
Y262389D01*
X291413*
Y266011*
X295232*
X291413Y263603D02*
X295232D01*
X291413Y265506D02*
X295232D01*
X292139Y262389D02*
Y266011D01*
X294041Y262389D02*
Y266011D01*
X285587D02*
Y262389D01*
X281768*
Y266011*
X285587*
X281768Y263603D02*
X285587D01*
X281768Y265506D02*
X285587D01*
X282627Y262389D02*
Y266011D01*
X284529Y262389D02*
Y266011D01*
X285587Y256011D02*
Y252389D01*
X281768*
Y256011*
X285587*
X281768Y254091D02*
X285587D01*
X281768Y255994D02*
X285587D01*
X282627Y252389D02*
Y256011D01*
X284529Y252389D02*
Y256011D01*
G54D57*
X108476Y154949D02*
Y161051D01*
X122453*
Y154949*
X108476*
Y156920D02*
X122453D01*
X108476Y160082D02*
X122453D01*
X109487Y154949D02*
Y161051D01*
X112649Y154949D02*
Y161051D01*
X115811Y154949D02*
Y161051D01*
X118973Y154949D02*
Y161051D01*
X122135Y154949D02*
Y161051D01*
X141547Y154949D02*
Y161051D01*
X155524*
Y154949*
X141547*
Y156920D02*
X155524D01*
X141547Y160082D02*
X155524D01*
X144271Y154949D02*
Y161051D01*
X147433Y154949D02*
Y161051D01*
X150595Y154949D02*
Y161051D01*
X153757Y154949D02*
Y161051D01*
G54D58*
X345976Y347500D03*
Y342500D03*
Y337500D03*
Y332500D03*
X368024D03*
Y337500D03*
Y342500D03*
Y347500D03*
X345976Y289500D03*
Y284500D03*
Y279500D03*
Y274500D03*
X368024D03*
Y279500D03*
Y284500D03*
Y289500D03*
X345976Y229500D03*
Y224500D03*
Y219500D03*
Y214500D03*
X368024D03*
Y219500D03*
Y224500D03*
Y229500D03*
X346976Y181500D03*
Y176500D03*
Y171500D03*
Y166500D03*
X369024D03*
Y171500D03*
Y176500D03*
Y181500D03*
G54D59*
X346900Y152424D03*
X341900D03*
X336900D03*
X331900D03*
Y130376D03*
X336900D03*
X341900D03*
X346900D03*
X282200Y201324D03*
X277200D03*
X272200D03*
X267200D03*
Y179276D03*
X272200D03*
X277200D03*
X282200D03*
G54D60*
X200615Y189734D02*
X204583D01*
Y184466*
X200615*
Y189734*
Y187400D02*
X204583D01*
X202600Y184466D02*
Y189734D01*
X183017D02*
X186985D01*
Y184466*
X183017*
Y189734*
Y187400D02*
X186985D01*
X183600Y184466D02*
Y189734D01*
G54D61*
X223550Y220091D02*
X224731D01*
Y217139*
X223550*
Y220091*
Y217348D02*
X224731D01*
X223550Y219605D02*
X224731D01*
X224118Y217139D02*
Y220091D01*
X219809D02*
X220991D01*
Y217139*
X219809*
Y220091*
Y217348D02*
X220991D01*
X219809Y219605D02*
X220991D01*
X216069Y220091D02*
X217250D01*
Y217139*
X216069*
Y220091*
Y217348D02*
X217250D01*
X216069Y219605D02*
X217250D01*
X216069Y209461D02*
X217250D01*
Y206509*
X216069*
Y209461*
Y208321D02*
X217250D01*
X219809Y209461D02*
X220991D01*
Y206509*
X219809*
Y209461*
Y208321D02*
X220991D01*
X223550Y209461D02*
X224731D01*
Y206509*
X223550*
Y209461*
Y208321D02*
X224731D01*
X224118Y206509D02*
Y209461D01*
G54D62*
X241079Y203056D02*
Y207780D01*
X250921*
Y203056*
X241079*
Y204113D02*
X250921D01*
X241079Y205740D02*
X250921D01*
X241079Y207367D02*
X250921D01*
X241529Y203056D02*
Y207780D01*
X243156Y203056D02*
Y207780D01*
X244783Y203056D02*
Y207780D01*
X246409Y203056D02*
Y207780D01*
X248036Y203056D02*
Y207780D01*
X249663Y203056D02*
Y207780D01*
X241079Y192820D02*
Y197544D01*
X250921*
Y192820*
X241079*
Y194353D02*
X250921D01*
X241079Y195980D02*
X250921D01*
X241529Y192820D02*
Y197544D01*
X243156Y192820D02*
Y197544D01*
X244783Y192820D02*
Y197544D01*
X246409Y192820D02*
Y197544D01*
X248036Y192820D02*
Y197544D01*
X249663Y192820D02*
Y197544D01*
X0Y0D02*
M02*
