%
T1C.015F095S3
X0104Y012796
X0134Y011796
X0144Y012796
X01524Y01056
X0164Y012796
X0174Y010796
X0174Y011796
X0194Y010796
X0194Y011796
X02069Y01278
X0214Y010796
X02221Y01286
X0234Y010796
X0234Y012796
X0254Y010796
X0264Y011796
X0274Y010796
X0284Y011796
X0294Y010796
X0314Y010796
X0314Y011796
X0314Y012796
X0324Y012796
X0356Y0154
X03499Y01387
X0344Y013796
X0334Y013796
X0324Y013796
X0324Y014796
X0314Y013796
X0314Y014796
X0304Y013796
X0304Y014796
X0294Y014796
X0294Y013796
X0274Y014796
X0264Y014796
X0254Y014796
X0244Y014796
X02383Y01536
X02264Y01463
X02147Y01427
X02065Y01379
X01803Y01367
X0104Y017796
X0144Y016796
X0154Y016796
X0164Y015796
X0164Y017796
X0164Y016796
X02221Y01647
X0234Y016796
X0264Y016796
X0284Y016796
X0294Y017796
X0304Y016796
X0314Y016796
X0324Y016796
X0354Y017796
X0354Y016796
X037Y0193
X03607Y01845
X0354Y019796
X02955Y02008
X02791Y01864
X025851Y01955
X025851Y01855
X02585Y01907
X02402Y01885
X0215Y0188
X0215Y0193
X0215Y0183
X0209Y0193
X0209Y0188
X0209Y0183
X0174Y018796
X0114Y018796
X0104Y019796
X0104Y02302
X0104Y021796
X0114Y022796
X0114Y020796
X01235Y02297
X0124Y021796
X01346Y02274
X0144Y021796
X0154Y022796
X0164Y021796
X0174Y022796
X0184Y021796
X01918Y02172
X0194Y022796
X01957Y02231
X01998Y02231
X02039Y02231
X0204Y020796
X02205Y0214
X02347Y02139
X024Y022
X02493Y02301
X0252Y02216
X02533Y02304
X02572Y02258
X0258Y0217
X02613Y02277
X02673Y02071
X02673Y02154
X0274Y021796
X02761Y02136
X02956Y02164
X02993Y02127
X0324Y022796
X0334Y021796
X03394Y02145
X0344Y020796
X0354Y021796
X0354Y022796
X0364Y020796
X03685Y02414
X0364Y024796
X03598Y02325
X0354Y024796
X0344Y023796
X0334Y023796
X0324Y024796
X0314Y023796
X0314Y024796
X0304Y024796
X0294Y024796
X0284Y024796
X0283Y0241
X02715Y02408
X02648Y02405
X02586Y02417
X02551Y02419
X02507Y02418
X02356Y02555
X02352Y02424
X0229Y02488
X0224Y02395
X02215Y02426
X0213Y02372
X02084Y02464
X02084Y02353
X0204Y024796
X0194Y024796
X0184Y024796
X0174Y024796
X0164Y024796
X01575Y02489
X0154Y024796
X01501Y02367
X01451Y02479
X0144Y023796
X01316Y02318
X0114Y024796
X0114Y026796
X0124Y02786
X0124Y025796
X0134Y026796
X0144Y027796
X01575Y02587
X0174Y026596
X0184Y026596
X0191Y027
X02Y0273
X0204Y025796
X0208Y0273
X02101Y02579
X02119Y02805
X02121Y0277
X02137Y0258
X0219Y02765
X02195Y02803
X02305Y02625
X02431Y02636
X02466Y0261
X02484Y02655
X0251Y02686
X02552Y02557
X02587Y02559
X0262Y0268
X0262Y02792
X02763Y02703
X02883Y02793
X02933Y02686
X0304Y026796
X03068Y02702
X03069Y028
X0314Y025796
X0314Y026796
X03144Y02732
X0315Y02775
X03238Y02775
X03246Y02728
X0334Y026796
X03404Y0275
X0344Y026796
X0354Y027796
X0364Y025796
X0364Y026796
X03629Y03014
X03599Y02918
X0354Y028796
X0344Y029796
X0334Y028796
X0328Y0292
X0324Y029796
X0309Y0294
X0304Y029796
X0294Y029796
X02931Y02865
X0284Y029796
X02792Y02968
X0274Y029796
X027Y0294
X02658Y02845
X02567Y02872
X02536Y02892
X02393Y02905
X02364Y02848
X02322Y02823
X02274Y02919
X02234Y03008
X02227Y02925
X02216Y02977
X02192Y02917
X02131Y03024
X02087Y03022
X02081Y02928
X02078Y02842
X0204Y028796
X02035Y03022
X0194Y029796
X01851Y0283
X01801Y03024
X01748Y0283
X0174Y028796
X0164Y029796
X01518Y0288
X0144Y029796
X0134Y028796
X0124Y029796
X0114Y028796
X01052Y02884
X0104Y029796
X0104Y031796
X0104Y030796
X0104Y032796
X01234Y03198
X0144Y032796
X01455Y03219
X0174Y031796
X01991Y03086
X02093Y03132
X02122Y03111
X02157Y03138
X02195Y03091
X02195Y03127
X02228Y03237
X0223Y03127
X0224Y032796
X02302Y0326
X02353Y03095
X02365Y03132
X024Y03131
X02427Y03105
X02484Y03136
X02486Y03227
X02519Y03252
X02523Y03177
X0274Y032796
X0284Y032796
X0314Y030796
X0324Y031796
X0334Y032796
X0344Y031796
X0344Y032796
X0354Y032796
X0354Y030796
X0364Y030796
X0364Y031796
X0364Y032796
X036Y03505
X0354Y033796
X0354Y034796
X03404Y03323
X0214Y033796
X0194Y033796
X0174Y033796
X0134Y034796
X0134Y033796
X0124Y034796
X0124Y033796
X01178Y034
X0104Y035796
X0104Y036796
X0114Y035796
X0114Y036796
X0124Y035796
X0124Y036796
X0134Y035796
X0134Y037796
X0134Y036796
X0144Y035796
X0144Y037796
X0144Y036796
X0354Y036796
X03578Y03639
X0364Y035796
X0364Y037796
X0354Y038796
X0144Y038796
X0134Y038796
T2C.0315F197S55
X03194Y01114
X032727Y01114
X033515Y01114
X034302Y01114
X03509Y01114
X035877Y01114
X0388Y015087
X0388Y0143
X0388Y01745
X0388Y016662
X0388Y015875
X0388Y0202
X0388Y018237
X0327Y0187
X031913Y0187
X031813Y0213
X0326Y0213
X0388Y022562
X0388Y020987
X0388Y021775
X0388Y02335
X0388Y024137
X0388Y027675
X0388Y0261
X0388Y026887
X0388Y030037
X0388Y02925
X0388Y028462
X018088Y03317
X018875Y03317
X019663Y03317
X02045Y03317
X0336Y030613
X0336Y0314
X0388Y033675
X0388Y03525
X0388Y034462
X0388Y0321
X0388Y032887
X0388Y036037
T3C.03228F197S55
X01124Y03025
X01124Y031037
X01124Y031825
X01124Y032612
T4C.035F197S55
X02587Y01388
X02627Y01318
X02667Y01388
X02707Y01318
X02747Y01388
X02787Y01318
X02827Y01388
X02867Y01318
X02997Y01578
X02907Y01578
X02547Y015788
X02457Y01578
T5C.0374F197S55
X012536Y024844
X012536Y026576
T6C.071F081S55
X0157Y0203
X01787Y0203
T7C.116F069S658
X0115Y0115
X0385Y0115
X0385Y0385
X0115Y0385
T8C.118F069S658
X01283Y0203
T9C.128F035S794
X02477Y01218
X02977Y01218
M30
